<?xml version="1.0" encoding="UTF-8" standalone="no"?>
<!DOCTYPE svg PUBLIC "-//W3C//DTD SVG 1.1//EN"
 "http://www.w3.org/Graphics/SVG/1.1/DTD/svg11.dtd">
<!-- Generated by graphviz version 2.43.0 (0)
 -->
<!-- Title: Alaris.Infrastructure.Events.Infrastructure.EVIF002B Pages: 1 -->
<svg width="250pt" height="438pt"
 viewBox="0.00 0.00 250.00 438.00" xmlns="http://www.w3.org/2000/svg" xmlns:xlink="http://www.w3.org/1999/xlink">

<svg id="main" version="1.1" xmlns="http://www.w3.org/2000/svg" xmlns:xlink="http://www.w3.org/1999/xlink" xml:space="preserve" onload="init(evt)">
<style type="text/css"><![CDATA[
.node, .edge {opacity: 0.7;}
.node.selected, .edge.selected {opacity: 1;}
.edge:hover path { stroke: red; }
.edge:hover polygon { stroke: red; fill: red; }
]]></style>
<script type="application/ecmascript" xlink:href="../../svg.min.js"/>
<svg id="graph" class="graph">
<g id="graph0" class="graph" transform="scale(1 1) rotate(0) translate(4 434)">
<title>Alaris.Infrastructure.Events.Infrastructure.EVIF002B</title>
<!-- Node1 -->
<g id="Node000001" class="node">
<title>Node1</title>
<g id="a_Node000001"><a xlink:title="File&#45;based persistent implementation of EVCR004A for production use.">
<polygon fill="#999999" stroke="transparent" points="227,-300 65,-300 65,0 227,0 227,-300"/>
<text text-anchor="start" x="84.5" y="-288" font-family="Helvetica,sans-Serif" font-size="10.00">Alaris.Infrastructure.Events.</text>
<text text-anchor="start" x="93" y="-277" font-family="Helvetica,sans-Serif" font-size="10.00">Infrastructure.EVIF002B</text>
<text text-anchor="start" x="70.5" y="-262" font-family="Helvetica,sans-Serif" font-size="10.00">&#45;</text>
<text text-anchor="start" x="80" y="-262" font-family="Helvetica,sans-Serif" font-size="10.00">_storagePath</text>
<text text-anchor="start" x="70.5" y="-247" font-family="Helvetica,sans-Serif" font-size="10.00">&#45;</text>
<text text-anchor="start" x="80" y="-247" font-family="Helvetica,sans-Serif" font-size="10.00">_writeSemaphore</text>
<text text-anchor="start" x="70.5" y="-232" font-family="Helvetica,sans-Serif" font-size="10.00">&#45;</text>
<text text-anchor="start" x="80" y="-232" font-family="Helvetica,sans-Serif" font-size="10.00">_readSemaphore</text>
<text text-anchor="start" x="70.5" y="-217" font-family="Helvetica,sans-Serif" font-size="10.00">&#45;</text>
<text text-anchor="start" x="80" y="-217" font-family="Helvetica,sans-Serif" font-size="10.00">_disposed</text>
<text text-anchor="start" x="70.5" y="-202" font-family="Helvetica,sans-Serif" font-size="10.00">&#45;</text>
<text text-anchor="start" x="80" y="-202" font-family="Helvetica,sans-Serif" font-size="10.00">HeaderSize</text>
<text text-anchor="start" x="70.5" y="-187" font-family="Helvetica,sans-Serif" font-size="10.00">&#45;</text>
<text text-anchor="start" x="80" y="-187" font-family="Helvetica,sans-Serif" font-size="10.00">MaxRecordSize</text>
<text text-anchor="start" x="69" y="-172" font-family="Helvetica,sans-Serif" font-size="10.00">+</text>
<text text-anchor="start" x="80" y="-172" font-family="Helvetica,sans-Serif" font-size="10.00">EVIF002B()</text>
<text text-anchor="start" x="69" y="-157" font-family="Helvetica,sans-Serif" font-size="10.00">+</text>
<text text-anchor="start" x="80" y="-157" font-family="Helvetica,sans-Serif" font-size="10.00">LogAsync()</text>
<text text-anchor="start" x="69" y="-142" font-family="Helvetica,sans-Serif" font-size="10.00">+</text>
<text text-anchor="start" x="80" y="-142" font-family="Helvetica,sans-Serif" font-size="10.00">GetEntriesForEntityAsync()</text>
<text text-anchor="start" x="69" y="-127" font-family="Helvetica,sans-Serif" font-size="10.00">+</text>
<text text-anchor="start" x="80" y="-127" font-family="Helvetica,sans-Serif" font-size="10.00">GetEntriesByInitiatorAsync()</text>
<text text-anchor="start" x="69" y="-112" font-family="Helvetica,sans-Serif" font-size="10.00">+</text>
<text text-anchor="start" x="80" y="-112" font-family="Helvetica,sans-Serif" font-size="10.00">GetEntriesByTimeRangeAsync()</text>
<text text-anchor="start" x="69" y="-97" font-family="Helvetica,sans-Serif" font-size="10.00">+</text>
<text text-anchor="start" x="80" y="-97" font-family="Helvetica,sans-Serif" font-size="10.00">Dispose()</text>
<text text-anchor="start" x="70.5" y="-82" font-family="Helvetica,sans-Serif" font-size="10.00">&#45;</text>
<text text-anchor="start" x="80" y="-82" font-family="Helvetica,sans-Serif" font-size="10.00">GetLogPathForDate()</text>
<text text-anchor="start" x="70.5" y="-67" font-family="Helvetica,sans-Serif" font-size="10.00">&#45;</text>
<text text-anchor="start" x="80" y="-67" font-family="Helvetica,sans-Serif" font-size="10.00">GetLogFilesInRange()</text>
<text text-anchor="start" x="70.5" y="-52" font-family="Helvetica,sans-Serif" font-size="10.00">&#45;</text>
<text text-anchor="start" x="80" y="-52" font-family="Helvetica,sans-Serif" font-size="10.00">ReadAllEntriesAsync()</text>
<text text-anchor="start" x="70.5" y="-37" font-family="Helvetica,sans-Serif" font-size="10.00">&#45;</text>
<text text-anchor="start" x="80" y="-37" font-family="Helvetica,sans-Serif" font-size="10.00">SerializeAuditEntry()</text>
<text text-anchor="start" x="70.5" y="-22" font-family="Helvetica,sans-Serif" font-size="10.00">&#45;</text>
<text text-anchor="start" x="80" y="-22" font-family="Helvetica,sans-Serif" font-size="10.00">DeserializeAuditEntry()</text>
<text text-anchor="start" x="70.5" y="-7" font-family="Helvetica,sans-Serif" font-size="10.00">&#45;</text>
<text text-anchor="start" x="80" y="-7" font-family="Helvetica,sans-Serif" font-size="10.00">ReadEntriesFromFileAsync()</text>
<polygon fill="#666666" stroke="#666666" points="65,-272 65,-272 227,-272 227,-272 65,-272"/>
<polygon fill="#666666" stroke="#666666" points="65,-182 65,-182 78,-182 78,-182 65,-182"/>
<polygon fill="#666666" stroke="#666666" points="78,-182 78,-182 227,-182 227,-182 78,-182"/>
<polygon fill="none" stroke="#666666" points="65,0 65,-300 227,-300 227,0 65,0"/>
</a>
</g>
</g>
<!-- Node2 -->
<g id="Node000002" class="node">
<title>Node2</title>
<g id="a_Node000002"><a xlink:href="../../d8/d03/interfaceAlaris_1_1Infrastructure_1_1Events_1_1Core_1_1EVCR004A.html" target="_top" xlink:title="Interface for writing immutable audit logs. Audit logs provide a human&#45;readable trail of all system a...">
<polygon fill="white" stroke="transparent" points="162,-430 0,-430 0,-336 162,-336 162,-430"/>
<text text-anchor="start" x="55" y="-418" font-family="Helvetica,sans-Serif" font-size="10.00">EVCR004A</text>
<text text-anchor="start" x="79" y="-403" font-family="Helvetica,sans-Serif" font-size="10.00"> </text>
<text text-anchor="start" x="4" y="-388" font-family="Helvetica,sans-Serif" font-size="10.00">+</text>
<text text-anchor="start" x="15" y="-388" font-family="Helvetica,sans-Serif" font-size="10.00">LogAsync()</text>
<text text-anchor="start" x="4" y="-373" font-family="Helvetica,sans-Serif" font-size="10.00">+</text>
<text text-anchor="start" x="15" y="-373" font-family="Helvetica,sans-Serif" font-size="10.00">GetEntriesForEntityAsync()</text>
<text text-anchor="start" x="4" y="-358" font-family="Helvetica,sans-Serif" font-size="10.00">+</text>
<text text-anchor="start" x="15" y="-358" font-family="Helvetica,sans-Serif" font-size="10.00">GetEntriesByInitiatorAsync()</text>
<text text-anchor="start" x="4" y="-343" font-family="Helvetica,sans-Serif" font-size="10.00">+</text>
<text text-anchor="start" x="15" y="-343" font-family="Helvetica,sans-Serif" font-size="10.00">GetEntriesByTimeRangeAsync()</text>
<polygon fill="#666666" stroke="#666666" points="0,-413 0,-413 162,-413 162,-413 0,-413"/>
<polygon fill="#666666" stroke="#666666" points="0,-398 0,-398 162,-398 162,-398 0,-398"/>
<polygon fill="none" stroke="#666666" points="0,-336 0,-430 162,-430 162,-336 0,-336"/>
</a>
</g>
</g>
<!-- Node2&#45;&gt;Node1 -->
<g id="edge1_Node000001_Node000002" class="edge">
<title>Node2&#45;&gt;Node1</title>
<g id="a_edge1_Node000001_Node000002"><a xlink:title=" ">
<path fill="none" stroke="#63b8ff" d="M96.72,-326.14C99.01,-317.98 101.46,-309.27 104,-300.26"/>
<polygon fill="none" stroke="#63b8ff" points="93.34,-325.23 94,-335.81 100.08,-327.13 93.34,-325.23"/>
</a>
</g>
</g>
<!-- Node3 -->
<g id="Node000003" class="node">
<title>Node3</title>
<g id="a_Node000003"><a xlink:title=" ">
<polygon fill="white" stroke="transparent" points="242,-407.5 180,-407.5 180,-358.5 242,-358.5 242,-407.5"/>
<text text-anchor="start" x="185" y="-395" font-family="Helvetica,sans-Serif" font-size="10.00">IDisposable</text>
<text text-anchor="start" x="209" y="-380" font-family="Helvetica,sans-Serif" font-size="10.00"> </text>
<text text-anchor="start" x="209" y="-365" font-family="Helvetica,sans-Serif" font-size="10.00"> </text>
<polygon fill="#666666" stroke="#666666" points="180,-390 180,-390 242,-390 242,-390 180,-390"/>
<polygon fill="#666666" stroke="#666666" points="180,-375 180,-375 242,-375 242,-375 180,-375"/>
<polygon fill="none" stroke="#666666" points="180,-358.5 180,-407.5 242,-407.5 242,-358.5 180,-358.5"/>
</a>
</g>
</g>
<!-- Node3&#45;&gt;Node1 -->
<g id="edge2_Node000001_Node000003" class="edge">
<title>Node3&#45;&gt;Node1</title>
<g id="a_edge2_Node000001_Node000003"><a xlink:title=" ">
<path fill="none" stroke="#63b8ff" d="M201.54,-348.38C197.71,-334.76 193,-318.02 187.96,-300.1"/>
<polygon fill="none" stroke="#63b8ff" points="198.21,-349.47 204.29,-358.15 204.95,-347.57 198.21,-349.47"/>
</a>
</g>
</g>
</g>
</svg>
</svg>

<style type='text/css'>
<![CDATA[
[data-mouse-over-selected='false'] { opacity: 0.7; }
[data-mouse-over-selected='true']  { opacity: 1.0; }
]]>
</style>
<script type="application/ecmascript"><![CDATA[
document.addEventListener('DOMContentLoaded', (event) => {
  highlightEdges();
  highlightAdjacentNodes();
});
]]></script>
</svg>
