<?xml version="1.0" encoding="UTF-8" standalone="no"?>
<!DOCTYPE svg PUBLIC "-//W3C//DTD SVG 1.1//EN"
 "http://www.w3.org/Graphics/SVG/1.1/DTD/svg11.dtd">
<!-- Generated by graphviz version 2.43.0 (0)
 -->
<!-- Title: Alaris.Host.Application.Cli.Infrastructure.CLif004A Pages: 1 -->
<!--zoomable 335 -->

<svg id="main" version="1.1" xmlns="http://www.w3.org/2000/svg" xmlns:xlink="http://www.w3.org/1999/xlink" xml:space="preserve" onload="init(evt)">
<style type="text/css"><![CDATA[
.node, .edge {opacity: 0.7;}
.node.selected, .edge.selected {opacity: 1;}
.edge:hover path { stroke: red; }
.edge:hover polygon { stroke: red; fill: red; }
]]></style>

<defs>
  <circle id="rim" cx="0" cy="0" r="7"/>
  <circle id="rim2" cx="0" cy="0" r="3.5"/>
  <g id="zoomPlus">
    <use xlink:href="#rim" fill="#404040"><set attributeName="fill" to="#808080" begin="zoomplus.mouseover" end="zoomplus.mouseout"/></use>
    <path d="M-4,0h8M0,-4v8" fill="none" stroke="white" stroke-width="1.5" pointer-events="none"/>
  </g>
  <g id="zoomMin">
    <use xlink:href="#rim" fill="#404040"><set attributeName="fill" to="#808080" begin="zoomminus.mouseover" end="zoomminus.mouseout"/></use>
    <path d="M-4,0h8" fill="none" stroke="white" stroke-width="1.5" pointer-events="none"/>
  </g>
  <g id="arrowUp" transform="translate(30 24)">
    <use xlink:href="#rim"/>
    <path pointer-events="none" fill="none" stroke="white" stroke-width="1.5" d="M0,-3.0v7 M-2.5,-0.5L0,-3.0L2.5,-0.5"/>
  </g>
  <g id="arrowRight" transform="rotate(90) translate(36 -43)">
    <use xlink:href="#rim"/>
    <path pointer-events="none" fill="none" stroke="white" stroke-width="1.5" d="M0,-3.0v7 M-2.5,-0.5L0,-3.0L2.5,-0.5"/>
  </g>
  <g id="arrowDown" transform="rotate(180) translate(-30 -48)">
    <use xlink:href="#rim"/>
    <path pointer-events="none" fill="none" stroke="white" stroke-width="1.5" d="M0,-3.0v7 M-2.5,-0.5L0,-3.0L2.5,-0.5"/>
  </g>
  <g id="arrowLeft" transform="rotate(270) translate(-36 17)">
    <use xlink:href="#rim"/>
    <path pointer-events="none" fill="none" stroke="white" stroke-width="1.5" d="M0,-3.0v7 M-2.5,-0.5L0,-3.0L2.5,-0.5"/>
  </g>
  <g id="resetDef">
    <use xlink:href="#rim2" fill="#404040"><set attributeName="fill" to="#808080" begin="reset.mouseover" end="reset.mouseout"/></use>
  </g>
</defs>
<script type="application/ecmascript">
var viewWidth = 2213;
var viewHeight = 335;
var sectionId = 'dynsection-0';
</script>
<script type="application/ecmascript" xlink:href="../../svg.min.js"/>
<svg id="graph" class="graph">
<g id="viewport">
<title>Alaris.Host.Application.Cli.Infrastructure.CLif004A</title>
<!-- Node1 -->
<g id="Node000001" class="node">
<title>Node1</title>
<g id="a_Node000001"><a xlink:title="Global settings inherited by all CLI commands. Component ID: CLif004A.">
<polygon fill="#999999" stroke="transparent" points="1167,-242 1040,-242 1040,-152 1167,-152 1167,-242"/>
<text text-anchor="start" x="1045.5" y="-230" font-family="Helvetica,sans-Serif" font-size="10.00">Alaris.Host.Application.</text>
<text text-anchor="start" x="1045.5" y="-219" font-family="Helvetica,sans-Serif" font-size="10.00">Cli.Infrastructure.CLif004A</text>
<text text-anchor="start" x="1058.5" y="-204" font-family="Helvetica,sans-Serif" font-size="10.00">+</text>
<text text-anchor="start" x="1083.5" y="-204" font-family="Helvetica,sans-Serif" font-size="10.00">Verbose</text>
<text text-anchor="start" x="1058.5" y="-189" font-family="Helvetica,sans-Serif" font-size="10.00">+</text>
<text text-anchor="start" x="1083.5" y="-189" font-family="Helvetica,sans-Serif" font-size="10.00">JsonOutput</text>
<text text-anchor="start" x="1058.5" y="-174" font-family="Helvetica,sans-Serif" font-size="10.00">+</text>
<text text-anchor="start" x="1083.5" y="-174" font-family="Helvetica,sans-Serif" font-size="10.00">NoColor</text>
<text text-anchor="start" x="1102" y="-159" font-family="Helvetica,sans-Serif" font-size="10.00"> </text>
<polygon fill="#666666" stroke="#666666" points="1040.5,-214 1040.5,-214 1167.5,-214 1167.5,-214 1040.5,-214"/>
<polygon fill="#666666" stroke="#666666" points="1040.5,-169 1040.5,-169 1081.5,-169 1081.5,-169 1040.5,-169"/>
<polygon fill="#666666" stroke="#666666" points="1081.5,-169 1081.5,-169 1167.5,-169 1167.5,-169 1081.5,-169"/>
<polygon fill="none" stroke="#666666" points="1040,-152 1040,-242 1167,-242 1167,-152 1040,-152"/>
</a>
</g>
</g>
<!-- Node3 -->
<g id="Node000003" class="node">
<title>Node3</title>
<g id="a_Node000003"><a xlink:href="../../d0/d02/classAlaris_1_1Host_1_1Application_1_1Cli_1_1Settings_1_1BacktestAnalyzeSettings.html" target="_top" xlink:title="Settings for backtest analyze command.">
<polygon fill="white" stroke="transparent" points="139,-101 0,-101 0,-15 139,-15 139,-101"/>
<text text-anchor="start" x="5.5" y="-89" font-family="Helvetica,sans-Serif" font-size="10.00">Alaris.Host.Application.</text>
<text text-anchor="start" x="5.5" y="-78" font-family="Helvetica,sans-Serif" font-size="10.00">Cli.Settings.BacktestAnalyze</text>
<text text-anchor="start" x="51.5" y="-67" font-family="Helvetica,sans-Serif" font-size="10.00">Settings</text>
<text text-anchor="start" x="23.5" y="-52" font-family="Helvetica,sans-Serif" font-size="10.00">+</text>
<text text-anchor="start" x="53.5" y="-52" font-family="Helvetica,sans-Serif" font-size="10.00">SessionId</text>
<text text-anchor="start" x="23.5" y="-37" font-family="Helvetica,sans-Serif" font-size="10.00">+</text>
<text text-anchor="start" x="53.5" y="-37" font-family="Helvetica,sans-Serif" font-size="10.00">Format</text>
<text text-anchor="start" x="68" y="-22" font-family="Helvetica,sans-Serif" font-size="10.00"> </text>
<polygon fill="#666666" stroke="#666666" points="0.5,-62 0.5,-62 139.5,-62 139.5,-62 0.5,-62"/>
<polygon fill="#666666" stroke="#666666" points="0.5,-32 0.5,-32 51.5,-32 51.5,-32 0.5,-32"/>
<polygon fill="#666666" stroke="#666666" points="51.5,-32 51.5,-32 139.5,-32 139.5,-32 51.5,-32"/>
<polygon fill="none" stroke="#666666" points="0,-15 0,-101 139,-101 139,-15 0,-15"/>
</a>
</g>
</g>
<!-- Node1&#45;&gt;Node3 -->
<g id="edge2_Node000001_Node000003" class="edge">
<title>Node1&#45;&gt;Node3</title>
<g id="a_edge2_Node000001_Node000003"><a xlink:title=" ">
<path fill="none" stroke="#63b8ff" d="M1029.71,-194.96C834.61,-191.39 309.03,-176.3 147.5,-116 137.6,-112.3 127.85,-106.98 118.77,-101.04"/>
<polygon fill="none" stroke="#63b8ff" points="1029.8,-198.46 1039.86,-195.14 1029.93,-191.46 1029.8,-198.46"/>
</a>
</g>
</g>
<!-- Node4 -->
<g id="Node000004" class="node">
<title>Node4</title>
<g id="a_Node000004"><a xlink:href="../../d5/d03/classAlaris_1_1Host_1_1Application_1_1Cli_1_1Settings_1_1BacktestListSettings.html" target="_top" xlink:title="Settings for backtest list command.">
<polygon fill="white" stroke="transparent" points="312,-95.5 157,-95.5 157,-20.5 312,-20.5 312,-95.5"/>
<text text-anchor="start" x="162.5" y="-83" font-family="Helvetica,sans-Serif" font-size="10.00">Alaris.Host.Application.</text>
<text text-anchor="start" x="162.5" y="-72" font-family="Helvetica,sans-Serif" font-size="10.00">Cli.Settings.BacktestListSettings</text>
<text text-anchor="start" x="186" y="-57" font-family="Helvetica,sans-Serif" font-size="10.00">+</text>
<text text-anchor="start" x="221.5" y="-57" font-family="Helvetica,sans-Serif" font-size="10.00">Limit</text>
<text text-anchor="start" x="186" y="-42" font-family="Helvetica,sans-Serif" font-size="10.00">+</text>
<text text-anchor="start" x="221.5" y="-42" font-family="Helvetica,sans-Serif" font-size="10.00">ShowAll</text>
<text text-anchor="start" x="233" y="-27" font-family="Helvetica,sans-Serif" font-size="10.00"> </text>
<polygon fill="#666666" stroke="#666666" points="157.5,-67 157.5,-67 312.5,-67 312.5,-67 157.5,-67"/>
<polygon fill="#666666" stroke="#666666" points="157.5,-37 157.5,-37 219.5,-37 219.5,-37 157.5,-37"/>
<polygon fill="#666666" stroke="#666666" points="219.5,-37 219.5,-37 312.5,-37 312.5,-37 219.5,-37"/>
<polygon fill="none" stroke="#666666" points="157,-20.5 157,-95.5 312,-95.5 312,-20.5 157,-20.5"/>
</a>
</g>
</g>
<!-- Node1&#45;&gt;Node4 -->
<g id="edge3_Node000001_Node000004" class="edge">
<title>Node1&#45;&gt;Node4</title>
<g id="a_edge3_Node000001_Node000004"><a xlink:title=" ">
<path fill="none" stroke="#63b8ff" d="M1029.9,-192.92C861.19,-185.14 451.09,-161.98 321.5,-116 307.72,-111.11 293.94,-103.61 281.56,-95.63"/>
<polygon fill="none" stroke="#63b8ff" points="1029.79,-196.42 1039.94,-193.38 1030.11,-189.42 1029.79,-196.42"/>
</a>
</g>
</g>
<!-- Node5 -->
<g id="Node000005" class="node">
<title>Node5</title>
<g id="a_Node000005"><a xlink:href="../../dc/d00/classAlaris_1_1Host_1_1Application_1_1Cli_1_1Settings_1_1BacktestRunSettings.html" target="_top" xlink:title="Settings for backtest run command. Component ID: CLse003A.">
<polygon fill="white" stroke="transparent" points="488.5,-95.5 330.5,-95.5 330.5,-20.5 488.5,-20.5 488.5,-95.5"/>
<text text-anchor="start" x="335.5" y="-83" font-family="Helvetica,sans-Serif" font-size="10.00">Alaris.Host.Application.</text>
<text text-anchor="start" x="335.5" y="-72" font-family="Helvetica,sans-Serif" font-size="10.00">Cli.Settings.BacktestRunSettings</text>
<text text-anchor="start" x="358" y="-57" font-family="Helvetica,sans-Serif" font-size="10.00">+</text>
<text text-anchor="start" x="392.5" y="-57" font-family="Helvetica,sans-Serif" font-size="10.00">SessionId</text>
<text text-anchor="start" x="358" y="-42" font-family="Helvetica,sans-Serif" font-size="10.00">+</text>
<text text-anchor="start" x="392.5" y="-42" font-family="Helvetica,sans-Serif" font-size="10.00">Monitor</text>
<text text-anchor="start" x="358" y="-27" font-family="Helvetica,sans-Serif" font-size="10.00">+</text>
<text text-anchor="start" x="392.5" y="-27" font-family="Helvetica,sans-Serif" font-size="10.00">Validate()</text>
<polygon fill="#666666" stroke="#666666" points="330.5,-67 330.5,-67 488.5,-67 488.5,-67 330.5,-67"/>
<polygon fill="#666666" stroke="#666666" points="330.5,-37 330.5,-37 390.5,-37 390.5,-37 330.5,-37"/>
<polygon fill="#666666" stroke="#666666" points="390.5,-37 390.5,-37 488.5,-37 488.5,-37 390.5,-37"/>
<polygon fill="none" stroke="#666666" points="330.5,-20.5 330.5,-95.5 488.5,-95.5 488.5,-20.5 330.5,-20.5"/>
</a>
</g>
</g>
<!-- Node1&#45;&gt;Node5 -->
<g id="edge4_Node000001_Node000005" class="edge">
<title>Node1&#45;&gt;Node5</title>
<g id="a_edge4_Node000001_Node000005"><a xlink:title=" ">
<path fill="none" stroke="#63b8ff" d="M1029.58,-196.59C912.88,-195.26 680.43,-183.4 497.5,-116 483.84,-110.97 470.12,-103.51 457.71,-95.64"/>
<polygon fill="none" stroke="#63b8ff" points="1029.79,-200.09 1039.82,-196.68 1029.85,-193.09 1029.79,-200.09"/>
</a>
</g>
</g>
<!-- Node6 -->
<g id="Node000006" class="node">
<title>Node6</title>
<g id="a_Node000006"><a xlink:href="../../da/d02/classAlaris_1_1Host_1_1Application_1_1Cli_1_1Settings_1_1DataBootstrapSettings.html" target="_top" xlink:title="Settings for data bootstrap command. Component ID: CLse001A.">
<polygon fill="white" stroke="transparent" points="670.5,-110.5 506.5,-110.5 506.5,-5.5 670.5,-5.5 670.5,-110.5"/>
<text text-anchor="start" x="511.5" y="-98" font-family="Helvetica,sans-Serif" font-size="10.00">Alaris.Host.Application.</text>
<text text-anchor="start" x="511.5" y="-87" font-family="Helvetica,sans-Serif" font-size="10.00">Cli.Settings.DataBootstrapSettings</text>
<text text-anchor="start" x="533" y="-72" font-family="Helvetica,sans-Serif" font-size="10.00">+</text>
<text text-anchor="start" x="566.5" y="-72" font-family="Helvetica,sans-Serif" font-size="10.00">SessionId</text>
<text text-anchor="start" x="533" y="-57" font-family="Helvetica,sans-Serif" font-size="10.00">+</text>
<text text-anchor="start" x="566.5" y="-57" font-family="Helvetica,sans-Serif" font-size="10.00">Symbols</text>
<text text-anchor="start" x="533" y="-42" font-family="Helvetica,sans-Serif" font-size="10.00">+</text>
<text text-anchor="start" x="566.5" y="-42" font-family="Helvetica,sans-Serif" font-size="10.00">SkipOptions</text>
<text text-anchor="start" x="533" y="-27" font-family="Helvetica,sans-Serif" font-size="10.00">+</text>
<text text-anchor="start" x="566.5" y="-27" font-family="Helvetica,sans-Serif" font-size="10.00">SkipRates</text>
<text text-anchor="start" x="533" y="-12" font-family="Helvetica,sans-Serif" font-size="10.00">+</text>
<text text-anchor="start" x="566.5" y="-12" font-family="Helvetica,sans-Serif" font-size="10.00">Validate()</text>
<polygon fill="#666666" stroke="#666666" points="506.5,-82 506.5,-82 670.5,-82 670.5,-82 506.5,-82"/>
<polygon fill="#666666" stroke="#666666" points="506.5,-22 506.5,-22 564.5,-22 564.5,-22 506.5,-22"/>
<polygon fill="#666666" stroke="#666666" points="564.5,-22 564.5,-22 670.5,-22 670.5,-22 564.5,-22"/>
<polygon fill="none" stroke="#666666" points="506.5,-5.5 506.5,-110.5 670.5,-110.5 670.5,-5.5 506.5,-5.5"/>
</a>
</g>
</g>
<!-- Node1&#45;&gt;Node6 -->
<g id="edge5_Node000001_Node000006" class="edge">
<title>Node1&#45;&gt;Node6</title>
<g id="a_edge5_Node000001_Node000006"><a xlink:title=" ">
<path fill="none" stroke="#63b8ff" d="M1029.7,-190.45C943.25,-182.07 796.93,-161.96 679.5,-116 675.33,-114.37 671.15,-112.54 666.99,-110.57"/>
<polygon fill="none" stroke="#63b8ff" points="1029.4,-193.94 1039.68,-191.39 1030.06,-186.97 1029.4,-193.94"/>
</a>
</g>
</g>
<!-- Node7 -->
<g id="Node000007" class="node">
<title>Node7</title>
<g id="a_Node000007"><a xlink:href="../../d6/d00/classAlaris_1_1Host_1_1Application_1_1Cli_1_1Settings_1_1DataStatusSettings.html" target="_top" xlink:title="Settings for data status command.">
<polygon fill="white" stroke="transparent" points="838.5,-88 688.5,-88 688.5,-28 838.5,-28 838.5,-88"/>
<text text-anchor="start" x="693.5" y="-76" font-family="Helvetica,sans-Serif" font-size="10.00">Alaris.Host.Application.</text>
<text text-anchor="start" x="693.5" y="-65" font-family="Helvetica,sans-Serif" font-size="10.00">Cli.Settings.DataStatusSettings</text>
<text text-anchor="start" x="714" y="-50" font-family="Helvetica,sans-Serif" font-size="10.00">+</text>
<text text-anchor="start" x="746.5" y="-50" font-family="Helvetica,sans-Serif" font-size="10.00">SessionId</text>
<text text-anchor="start" x="761.5" y="-35" font-family="Helvetica,sans-Serif" font-size="10.00"> </text>
<polygon fill="#666666" stroke="#666666" points="688.5,-60 688.5,-60 838.5,-60 838.5,-60 688.5,-60"/>
<polygon fill="#666666" stroke="#666666" points="688.5,-45 688.5,-45 744.5,-45 744.5,-45 688.5,-45"/>
<polygon fill="#666666" stroke="#666666" points="744.5,-45 744.5,-45 838.5,-45 838.5,-45 744.5,-45"/>
<polygon fill="none" stroke="#666666" points="688.5,-28 688.5,-88 838.5,-88 838.5,-28 688.5,-28"/>
</a>
</g>
</g>
<!-- Node1&#45;&gt;Node7 -->
<g id="edge6_Node000001_Node000007" class="edge">
<title>Node1&#45;&gt;Node7</title>
<g id="a_edge6_Node000001_Node000007"><a xlink:title=" ">
<path fill="none" stroke="#63b8ff" d="M1030.11,-179.19C977.73,-165.73 906.4,-144.42 847.5,-116 831.63,-108.34 815.34,-97.97 801.38,-88.17"/>
<polygon fill="none" stroke="#63b8ff" points="1029.45,-182.63 1040,-181.69 1031.16,-175.84 1029.45,-182.63"/>
</a>
</g>
</g>
<!-- Node8 -->
<g id="Node000008" class="node">
<title>Node8</title>
<g id="a_Node000008"><a xlink:href="../../d0/d01/classAlaris_1_1Host_1_1Application_1_1Cli_1_1Settings_1_1DataValidateSettings.html" target="_top" xlink:title="Settings for data validate command.">
<polygon fill="white" stroke="transparent" points="1012.5,-95.5 856.5,-95.5 856.5,-20.5 1012.5,-20.5 1012.5,-95.5"/>
<text text-anchor="start" x="861.5" y="-83" font-family="Helvetica,sans-Serif" font-size="10.00">Alaris.Host.Application.</text>
<text text-anchor="start" x="861.5" y="-72" font-family="Helvetica,sans-Serif" font-size="10.00">Cli.Settings.DataValidateSettings</text>
<text text-anchor="start" x="883.5" y="-57" font-family="Helvetica,sans-Serif" font-size="10.00">+</text>
<text text-anchor="start" x="917.5" y="-57" font-family="Helvetica,sans-Serif" font-size="10.00">SessionId</text>
<text text-anchor="start" x="883.5" y="-42" font-family="Helvetica,sans-Serif" font-size="10.00">+</text>
<text text-anchor="start" x="917.5" y="-42" font-family="Helvetica,sans-Serif" font-size="10.00">Fix</text>
<text text-anchor="start" x="932.5" y="-27" font-family="Helvetica,sans-Serif" font-size="10.00"> </text>
<polygon fill="#666666" stroke="#666666" points="856.5,-67 856.5,-67 1012.5,-67 1012.5,-67 856.5,-67"/>
<polygon fill="#666666" stroke="#666666" points="856.5,-37 856.5,-37 915.5,-37 915.5,-37 856.5,-37"/>
<polygon fill="#666666" stroke="#666666" points="915.5,-37 915.5,-37 1012.5,-37 1012.5,-37 915.5,-37"/>
<polygon fill="none" stroke="#666666" points="856.5,-20.5 856.5,-95.5 1012.5,-95.5 1012.5,-20.5 856.5,-20.5"/>
</a>
</g>
</g>
<!-- Node1&#45;&gt;Node8 -->
<g id="edge7_Node000001_Node000008" class="edge">
<title>Node1&#45;&gt;Node8</title>
<g id="a_edge7_Node000001_Node000008"><a xlink:title=" ">
<path fill="none" stroke="#63b8ff" d="M1041.11,-145.42C1020.76,-128.93 998.58,-110.95 979.75,-95.68"/>
<polygon fill="none" stroke="#63b8ff" points="1039.12,-148.32 1049.1,-151.9 1043.53,-142.88 1039.12,-148.32"/>
</a>
</g>
</g>
<!-- Node9 -->
<g id="Node000009" class="node">
<title>Node9</title>
<g id="a_Node000009"><a xlink:href="../../de/d00/classAlaris_1_1Host_1_1Application_1_1Cli_1_1Settings_1_1EarningsBootstrapSettings.html" target="_top" xlink:title="Settings for earnings bootstrap command. Component ID: CLse002A.">
<polygon fill="white" stroke="transparent" points="1176,-116 1031,-116 1031,0 1176,0 1176,-116"/>
<text text-anchor="start" x="1036.5" y="-104" font-family="Helvetica,sans-Serif" font-size="10.00">Alaris.Host.Application.</text>
<text text-anchor="start" x="1036.5" y="-93" font-family="Helvetica,sans-Serif" font-size="10.00">Cli.Settings.EarningsBootstrap</text>
<text text-anchor="start" x="1085.5" y="-82" font-family="Helvetica,sans-Serif" font-size="10.00">Settings</text>
<text text-anchor="start" x="1054.5" y="-67" font-family="Helvetica,sans-Serif" font-size="10.00">+</text>
<text text-anchor="start" x="1084.5" y="-67" font-family="Helvetica,sans-Serif" font-size="10.00">StartDate</text>
<text text-anchor="start" x="1054.5" y="-52" font-family="Helvetica,sans-Serif" font-size="10.00">+</text>
<text text-anchor="start" x="1084.5" y="-52" font-family="Helvetica,sans-Serif" font-size="10.00">EndDate</text>
<text text-anchor="start" x="1054.5" y="-37" font-family="Helvetica,sans-Serif" font-size="10.00">+</text>
<text text-anchor="start" x="1084.5" y="-37" font-family="Helvetica,sans-Serif" font-size="10.00">OutputPath</text>
<text text-anchor="start" x="1054.5" y="-22" font-family="Helvetica,sans-Serif" font-size="10.00">+</text>
<text text-anchor="start" x="1084.5" y="-22" font-family="Helvetica,sans-Serif" font-size="10.00">Force</text>
<text text-anchor="start" x="1054.5" y="-7" font-family="Helvetica,sans-Serif" font-size="10.00">+</text>
<text text-anchor="start" x="1084.5" y="-7" font-family="Helvetica,sans-Serif" font-size="10.00">Validate()</text>
<polygon fill="#666666" stroke="#666666" points="1031.5,-77 1031.5,-77 1176.5,-77 1176.5,-77 1031.5,-77"/>
<polygon fill="#666666" stroke="#666666" points="1031.5,-17 1031.5,-17 1082.5,-17 1082.5,-17 1031.5,-17"/>
<polygon fill="#666666" stroke="#666666" points="1082.5,-17 1082.5,-17 1176.5,-17 1176.5,-17 1082.5,-17"/>
<polygon fill="none" stroke="#666666" points="1031,0 1031,-116 1176,-116 1176,0 1031,0"/>
</a>
</g>
</g>
<!-- Node1&#45;&gt;Node9 -->
<g id="edge8_Node000001_Node000009" class="edge">
<title>Node1&#45;&gt;Node9</title>
<g id="a_edge8_Node000001_Node000009"><a xlink:title=" ">
<path fill="none" stroke="#63b8ff" d="M1103.5,-141.77C1103.5,-133.31 1103.5,-124.55 1103.5,-116.04"/>
<polygon fill="none" stroke="#63b8ff" points="1100,-141.9 1103.5,-151.9 1107,-141.9 1100,-141.9"/>
</a>
</g>
</g>
<!-- Node10 -->
<g id="Node000010" class="node">
<title>Node10</title>
<g id="a_Node000010"><a xlink:href="../../d1/d03/classAlaris_1_1Host_1_1Application_1_1Cli_1_1Settings_1_1EarningsCheckSettings.html" target="_top" xlink:title="Settings for earnings check command.">
<polygon fill="white" stroke="transparent" points="1361,-88 1194,-88 1194,-28 1361,-28 1361,-88"/>
<text text-anchor="start" x="1199.5" y="-76" font-family="Helvetica,sans-Serif" font-size="10.00">Alaris.Host.Application.</text>
<text text-anchor="start" x="1199.5" y="-65" font-family="Helvetica,sans-Serif" font-size="10.00">Cli.Settings.EarningsCheckSettings</text>
<text text-anchor="start" x="1224.5" y="-50" font-family="Helvetica,sans-Serif" font-size="10.00">+</text>
<text text-anchor="start" x="1261.5" y="-50" font-family="Helvetica,sans-Serif" font-size="10.00">SessionId</text>
<text text-anchor="start" x="1276" y="-35" font-family="Helvetica,sans-Serif" font-size="10.00"> </text>
<polygon fill="#666666" stroke="#666666" points="1194.5,-60 1194.5,-60 1361.5,-60 1361.5,-60 1194.5,-60"/>
<polygon fill="#666666" stroke="#666666" points="1194.5,-45 1194.5,-45 1259.5,-45 1259.5,-45 1194.5,-45"/>
<polygon fill="#666666" stroke="#666666" points="1259.5,-45 1259.5,-45 1361.5,-45 1361.5,-45 1259.5,-45"/>
<polygon fill="none" stroke="#666666" points="1194,-28 1194,-88 1361,-88 1361,-28 1194,-28"/>
</a>
</g>
</g>
<!-- Node1&#45;&gt;Node10 -->
<g id="edge9_Node000001_Node000010" class="edge">
<title>Node1&#45;&gt;Node10</title>
<g id="a_edge9_Node000001_Node000010"><a xlink:title=" ">
<path fill="none" stroke="#63b8ff" d="M1167.4,-145.69C1192.01,-126.31 1219.28,-104.84 1240.53,-88.11"/>
<polygon fill="none" stroke="#63b8ff" points="1165.2,-142.96 1159.51,-151.9 1169.53,-148.46 1165.2,-142.96"/>
</a>
</g>
</g>
<!-- Node11 -->
<g id="Node000011" class="node">
<title>Node11</title>
<g id="a_Node000011"><a xlink:href="../../d2/d03/classAlaris_1_1Host_1_1Application_1_1Cli_1_1Settings_1_1EarningsUpcomingSettings.html" target="_top" xlink:title="Settings for earnings upcoming command.">
<polygon fill="white" stroke="transparent" points="1526,-101 1379,-101 1379,-15 1526,-15 1526,-101"/>
<text text-anchor="start" x="1384.5" y="-89" font-family="Helvetica,sans-Serif" font-size="10.00">Alaris.Host.Application.</text>
<text text-anchor="start" x="1384.5" y="-78" font-family="Helvetica,sans-Serif" font-size="10.00">Cli.Settings.EarningsUpcoming</text>
<text text-anchor="start" x="1434.5" y="-67" font-family="Helvetica,sans-Serif" font-size="10.00">Settings</text>
<text text-anchor="start" x="1407" y="-52" font-family="Helvetica,sans-Serif" font-size="10.00">+</text>
<text text-anchor="start" x="1441.5" y="-52" font-family="Helvetica,sans-Serif" font-size="10.00">Days</text>
<text text-anchor="start" x="1407" y="-37" font-family="Helvetica,sans-Serif" font-size="10.00">+</text>
<text text-anchor="start" x="1441.5" y="-37" font-family="Helvetica,sans-Serif" font-size="10.00">Symbol</text>
<text text-anchor="start" x="1451" y="-22" font-family="Helvetica,sans-Serif" font-size="10.00"> </text>
<polygon fill="#666666" stroke="#666666" points="1379.5,-62 1379.5,-62 1526.5,-62 1526.5,-62 1379.5,-62"/>
<polygon fill="#666666" stroke="#666666" points="1379.5,-32 1379.5,-32 1439.5,-32 1439.5,-32 1379.5,-32"/>
<polygon fill="#666666" stroke="#666666" points="1439.5,-32 1439.5,-32 1526.5,-32 1526.5,-32 1439.5,-32"/>
<polygon fill="none" stroke="#666666" points="1379,-15 1379,-101 1526,-101 1526,-15 1379,-15"/>
</a>
</g>
</g>
<!-- Node1&#45;&gt;Node11 -->
<g id="edge10_Node000001_Node000011" class="edge">
<title>Node1&#45;&gt;Node11</title>
<g id="a_edge10_Node000001_Node000011"><a xlink:title=" ">
<path fill="none" stroke="#63b8ff" d="M1177.1,-180.59C1232.06,-167.52 1308.13,-146.07 1370.5,-116 1379.4,-111.71 1388.4,-106.5 1397.02,-101"/>
<polygon fill="none" stroke="#63b8ff" points="1176.03,-177.25 1167.09,-182.93 1177.62,-184.06 1176.03,-177.25"/>
</a>
</g>
</g>
<!-- Node12 -->
<g id="Node000012" class="node">
<title>Node12</title>
<g id="a_Node000012"><a xlink:href="../../d7/d02/classAlaris_1_1Host_1_1Application_1_1Cli_1_1Settings_1_1StrategyEvaluateSettings.html" target="_top" xlink:title="Settings for strategy evaluate command.">
<polygon fill="white" stroke="transparent" points="1684.5,-101 1544.5,-101 1544.5,-15 1684.5,-15 1684.5,-101"/>
<text text-anchor="start" x="1549.5" y="-89" font-family="Helvetica,sans-Serif" font-size="10.00">Alaris.Host.Application.</text>
<text text-anchor="start" x="1549.5" y="-78" font-family="Helvetica,sans-Serif" font-size="10.00">Cli.Settings.StrategyEvaluate</text>
<text text-anchor="start" x="1596" y="-67" font-family="Helvetica,sans-Serif" font-size="10.00">Settings</text>
<text text-anchor="start" x="1569.5" y="-52" font-family="Helvetica,sans-Serif" font-size="10.00">+</text>
<text text-anchor="start" x="1601.5" y="-52" font-family="Helvetica,sans-Serif" font-size="10.00">Symbol</text>
<text text-anchor="start" x="1569.5" y="-37" font-family="Helvetica,sans-Serif" font-size="10.00">+</text>
<text text-anchor="start" x="1601.5" y="-37" font-family="Helvetica,sans-Serif" font-size="10.00">Detailed</text>
<text text-anchor="start" x="1612.5" y="-22" font-family="Helvetica,sans-Serif" font-size="10.00"> </text>
<polygon fill="#666666" stroke="#666666" points="1544.5,-62 1544.5,-62 1684.5,-62 1684.5,-62 1544.5,-62"/>
<polygon fill="#666666" stroke="#666666" points="1544.5,-32 1544.5,-32 1599.5,-32 1599.5,-32 1544.5,-32"/>
<polygon fill="#666666" stroke="#666666" points="1599.5,-32 1599.5,-32 1684.5,-32 1684.5,-32 1599.5,-32"/>
<polygon fill="none" stroke="#666666" points="1544.5,-15 1544.5,-101 1684.5,-101 1684.5,-15 1544.5,-15"/>
</a>
</g>
</g>
<!-- Node1&#45;&gt;Node12 -->
<g id="edge11_Node000001_Node000012" class="edge">
<title>Node1&#45;&gt;Node12</title>
<g id="a_edge11_Node000001_Node000012"><a xlink:title=" ">
<path fill="none" stroke="#63b8ff" d="M1177.36,-192.19C1265.72,-185.43 1416.6,-166.84 1535.5,-116 1544.83,-112.01 1554.13,-106.76 1562.89,-101.06"/>
<polygon fill="none" stroke="#63b8ff" points="1176.88,-188.71 1167.16,-192.93 1177.39,-195.69 1176.88,-188.71"/>
</a>
</g>
</g>
<!-- Node13 -->
<g id="Node000013" class="node">
<title>Node13</title>
<g id="a_Node000013"><a xlink:href="../../de/d00/classAlaris_1_1Host_1_1Application_1_1Cli_1_1Settings_1_1StrategyInfoSettings.html" target="_top" xlink:title="Settings for strategy info command. Component ID: CLse005A.">
<polygon fill="white" stroke="transparent" points="1856.5,-88 1702.5,-88 1702.5,-28 1856.5,-28 1856.5,-88"/>
<text text-anchor="start" x="1707.5" y="-76" font-family="Helvetica,sans-Serif" font-size="10.00">Alaris.Host.Application.</text>
<text text-anchor="start" x="1707.5" y="-65" font-family="Helvetica,sans-Serif" font-size="10.00">Cli.Settings.StrategyInfoSettings</text>
<text text-anchor="start" x="1733.5" y="-50" font-family="Helvetica,sans-Serif" font-size="10.00">+</text>
<text text-anchor="start" x="1771.5" y="-50" font-family="Helvetica,sans-Serif" font-size="10.00">Name</text>
<text text-anchor="start" x="1777.5" y="-35" font-family="Helvetica,sans-Serif" font-size="10.00"> </text>
<polygon fill="#666666" stroke="#666666" points="1702.5,-60 1702.5,-60 1856.5,-60 1856.5,-60 1702.5,-60"/>
<polygon fill="#666666" stroke="#666666" points="1702.5,-45 1702.5,-45 1769.5,-45 1769.5,-45 1702.5,-45"/>
<polygon fill="#666666" stroke="#666666" points="1769.5,-45 1769.5,-45 1856.5,-45 1856.5,-45 1769.5,-45"/>
<polygon fill="none" stroke="#666666" points="1702.5,-28 1702.5,-88 1856.5,-88 1856.5,-28 1702.5,-28"/>
</a>
</g>
</g>
<!-- Node1&#45;&gt;Node13 -->
<g id="edge12_Node000001_Node000013" class="edge">
<title>Node1&#45;&gt;Node13</title>
<g id="a_edge12_Node000001_Node000013"><a xlink:title=" ">
<path fill="none" stroke="#63b8ff" d="M1177.38,-196.45C1291.7,-194.85 1516.72,-182.55 1693.5,-116 1711.1,-109.37 1728.73,-98.59 1743.41,-88.18"/>
<polygon fill="none" stroke="#63b8ff" points="1177.29,-192.95 1167.33,-196.56 1177.37,-199.95 1177.29,-192.95"/>
</a>
</g>
</g>
<!-- Node14 -->
<g id="Node000014" class="node">
<title>Node14</title>
<g id="a_Node000014"><a xlink:href="../../d1/d00/classAlaris_1_1Host_1_1Application_1_1Cli_1_1Settings_1_1TradeSignalsSettings.html" target="_top" xlink:title="Settings for trade signals command.">
<polygon fill="white" stroke="transparent" points="2032.5,-95.5 1874.5,-95.5 1874.5,-20.5 2032.5,-20.5 2032.5,-95.5"/>
<text text-anchor="start" x="1879.5" y="-83" font-family="Helvetica,sans-Serif" font-size="10.00">Alaris.Host.Application.</text>
<text text-anchor="start" x="1879.5" y="-72" font-family="Helvetica,sans-Serif" font-size="10.00">Cli.Settings.TradeSignalsSettings</text>
<text text-anchor="start" x="1899" y="-57" font-family="Helvetica,sans-Serif" font-size="10.00">+</text>
<text text-anchor="start" x="1930.5" y="-57" font-family="Helvetica,sans-Serif" font-size="10.00">PendingOnly</text>
<text text-anchor="start" x="1899" y="-42" font-family="Helvetica,sans-Serif" font-size="10.00">+</text>
<text text-anchor="start" x="1930.5" y="-42" font-family="Helvetica,sans-Serif" font-size="10.00">Symbol</text>
<text text-anchor="start" x="1951.5" y="-27" font-family="Helvetica,sans-Serif" font-size="10.00"> </text>
<polygon fill="#666666" stroke="#666666" points="1874.5,-67 1874.5,-67 2032.5,-67 2032.5,-67 1874.5,-67"/>
<polygon fill="#666666" stroke="#666666" points="1874.5,-37 1874.5,-37 1928.5,-37 1928.5,-37 1874.5,-37"/>
<polygon fill="#666666" stroke="#666666" points="1928.5,-37 1928.5,-37 2032.5,-37 2032.5,-37 1928.5,-37"/>
<polygon fill="none" stroke="#666666" points="1874.5,-20.5 1874.5,-95.5 2032.5,-95.5 2032.5,-20.5 1874.5,-20.5"/>
</a>
</g>
</g>
<!-- Node1&#45;&gt;Node14 -->
<g id="edge13_Node000001_Node000014" class="edge">
<title>Node1&#45;&gt;Node14</title>
<g id="a_edge13_Node000001_Node000014"><a xlink:title=" ">
<path fill="none" stroke="#63b8ff" d="M1177.26,-192.64C1342.88,-184.38 1739.66,-160.47 1865.5,-116 1879.4,-111.09 1893.32,-103.58 1905.84,-95.6"/>
<polygon fill="none" stroke="#63b8ff" points="1176.98,-189.15 1167.16,-193.13 1177.32,-196.14 1176.98,-189.15"/>
</a>
</g>
</g>
<!-- Node15 -->
<g id="Node000015" class="node">
<title>Node15</title>
<g id="a_Node000015"><a xlink:href="../../db/d02/classAlaris_1_1Host_1_1Application_1_1Cli_1_1Settings_1_1TradeStatusSettings.html" target="_top" xlink:title="Settings for trade status command. Component ID: CLse004A.">
<polygon fill="white" stroke="transparent" points="2204.5,-88 2050.5,-88 2050.5,-28 2204.5,-28 2204.5,-88"/>
<text text-anchor="start" x="2055.5" y="-76" font-family="Helvetica,sans-Serif" font-size="10.00">Alaris.Host.Application.</text>
<text text-anchor="start" x="2055.5" y="-65" font-family="Helvetica,sans-Serif" font-size="10.00">Cli.Settings.TradeStatusSettings</text>
<text text-anchor="start" x="2073" y="-50" font-family="Helvetica,sans-Serif" font-size="10.00">+</text>
<text text-anchor="start" x="2102.5" y="-50" font-family="Helvetica,sans-Serif" font-size="10.00">PositionsOnly</text>
<text text-anchor="start" x="2125.5" y="-35" font-family="Helvetica,sans-Serif" font-size="10.00"> </text>
<polygon fill="#666666" stroke="#666666" points="2050.5,-60 2050.5,-60 2204.5,-60 2204.5,-60 2050.5,-60"/>
<polygon fill="#666666" stroke="#666666" points="2050.5,-45 2050.5,-45 2100.5,-45 2100.5,-45 2050.5,-45"/>
<polygon fill="#666666" stroke="#666666" points="2100.5,-45 2100.5,-45 2204.5,-45 2204.5,-45 2100.5,-45"/>
<polygon fill="none" stroke="#666666" points="2050.5,-28 2050.5,-88 2204.5,-88 2204.5,-28 2050.5,-28"/>
</a>
</g>
</g>
<!-- Node1&#45;&gt;Node15 -->
<g id="edge14_Node000001_Node000015" class="edge">
<title>Node1&#45;&gt;Node15</title>
<g id="a_edge14_Node000001_Node000015"><a xlink:title=" ">
<path fill="none" stroke="#63b8ff" d="M1177.12,-194.41C1369.28,-189.53 1882.1,-171.53 2041.5,-116 2059.6,-109.7 2077.59,-98.7 2092.41,-88.04"/>
<polygon fill="none" stroke="#63b8ff" points="1177.03,-190.91 1167.12,-194.66 1177.2,-197.91 1177.03,-190.91"/>
</a>
</g>
</g>
<!-- Node2 -->
<g id="Node000002" class="node">
<title>Node2</title>
<g id="a_Node000002"><a xlink:title=" ">
<polygon fill="white" stroke="transparent" points="1149.5,-327 1057.5,-327 1057.5,-278 1149.5,-278 1149.5,-327"/>
<text text-anchor="start" x="1062.5" y="-314.5" font-family="Helvetica,sans-Serif" font-size="10.00">CommandSettings</text>
<text text-anchor="start" x="1101.5" y="-299.5" font-family="Helvetica,sans-Serif" font-size="10.00"> </text>
<text text-anchor="start" x="1101.5" y="-284.5" font-family="Helvetica,sans-Serif" font-size="10.00"> </text>
<polygon fill="#666666" stroke="#666666" points="1057.5,-309.5 1057.5,-309.5 1149.5,-309.5 1149.5,-309.5 1057.5,-309.5"/>
<polygon fill="#666666" stroke="#666666" points="1057.5,-294.5 1057.5,-294.5 1149.5,-294.5 1149.5,-294.5 1057.5,-294.5"/>
<polygon fill="none" stroke="#666666" points="1057.5,-278 1057.5,-327 1149.5,-327 1149.5,-278 1057.5,-278"/>
</a>
</g>
</g>
<!-- Node2&#45;&gt;Node1 -->
<g id="edge1_Node000001_Node000002" class="edge">
<title>Node2&#45;&gt;Node1</title>
<g id="a_edge1_Node000001_Node000002"><a xlink:title=" ">
<path fill="none" stroke="#63b8ff" d="M1103.5,-267.62C1103.5,-259.56 1103.5,-250.84 1103.5,-242.39"/>
<polygon fill="none" stroke="#63b8ff" points="1100,-267.75 1103.5,-277.76 1107,-267.76 1100,-267.75"/>
</a>
</g>
</g>
</g>
</svg>

<g id="navigator" transform="translate(0 0)" fill="#404254">
  <rect fill="#f2f5e9" fill-opacity="0.5" stroke="#606060" stroke-width=".5" x="0" y="0" width="60" height="60"/>
  <use id="zoomplus" xlink:href="#zoomPlus" x="17" y="9" onmousedown="handleZoom(evt,'in')"/>
  <use id="zoomminus" xlink:href="#zoomMin" x="42" y="9" onmousedown="handleZoom(evt,'out')"/>
  <use id="reset" xlink:href="#resetDef" x="30" y="36" onmousedown="handleReset()"/>
   <use id="arrowup" xlink:href="#arrowUp" x="0" y="0" onmousedown="handlePan(0,-1)"/>
  <use id="arrowright" xlink:href="#arrowRight" x="0" y="0" onmousedown="handlePan(1,0)"/>
  <use id="arrowdown" xlink:href="#arrowDown" x="0" y="0" onmousedown="handlePan(0,1)"/>
  <use id="arrowleft" xlink:href="#arrowLeft" x="0" y="0" onmousedown="handlePan(-1,0)"/>
</g>
<svg viewBox="0 0 15 15" width="100%" height="30px" preserveAspectRatio="xMaxYMin meet">
 <g id="arrow_out" transform="scale(0.3 0.3)">
  <a xlink:href="classAlaris_1_1Host_1_1Application_1_1Cli_1_1Infrastructure_1_1CLif004A__inherit__graph_org.svg" target="_base">
   <rect id="button" ry="5" rx="5" y="6" x="6" height="38" width="38"
        fill="#f2f5e9" fill-opacity="0.5" stroke="#606060" stroke-width="1.0"/>
   <path id="arrow"
     d="M 11.500037,31.436501 C 11.940474,20.09759 22.043105,11.32322 32.158766,21.979434 L 37.068811,17.246167 C 37.068811,17.246167 37.088388,32 37.088388,32 L 22.160133,31.978069 C 22.160133,31.978069 26.997745,27.140456 26.997745,27.140456 C 18.528582,18.264221 13.291696,25.230495 11.500037,31.436501 z"
     style="fill:#404040;"/>
  </a>
 </g>
</svg>

<style type='text/css'>
<![CDATA[
[data-mouse-over-selected='false'] { opacity: 0.7; }
[data-mouse-over-selected='true']  { opacity: 1.0; }
]]>
</style>
<script type="application/ecmascript"><![CDATA[
document.addEventListener('DOMContentLoaded', (event) => {
  highlightEdges();
  highlightAdjacentNodes();
});
]]></script>
</svg>
