<?xml version="1.0" encoding="UTF-8" standalone="no"?>
<!DOCTYPE svg PUBLIC "-//W3C//DTD SVG 1.1//EN"
 "http://www.w3.org/Graphics/SVG/1.1/DTD/svg11.dtd">
<!-- Generated by graphviz version 2.43.0 (0)
 -->
<!-- Title: Alaris.Infrastructure.Events.Infrastructure.EVIF002A Pages: 1 -->
<svg width="170pt" height="243pt"
 viewBox="0.00 0.00 170.00 243.00" xmlns="http://www.w3.org/2000/svg" xmlns:xlink="http://www.w3.org/1999/xlink">
<g id="graph0" class="graph" transform="scale(1 1) rotate(0) translate(4 239)">
<title>Alaris.Infrastructure.Events.Infrastructure.EVIF002A</title>
<!-- Node1 -->
<g id="Node000001" class="node">
<title>Node1</title>
<g id="a_Node000001"><a xlink:title="In&#45;memory implementation of EVCR004A for development and testing. NOT suitable for production use &#45; a...">
<polygon fill="#999999" stroke="transparent" points="162,-105 0,-105 0,0 162,0 162,-105"/>
<text text-anchor="start" x="19.5" y="-92.5" font-family="Helvetica,sans-Serif" font-size="10.00">Alaris.Infrastructure.Events.</text>
<text text-anchor="start" x="28" y="-81.5" font-family="Helvetica,sans-Serif" font-size="10.00">Infrastructure.EVIF002A</text>
<text text-anchor="start" x="5.5" y="-66.5" font-family="Helvetica,sans-Serif" font-size="10.00">&#45;</text>
<text text-anchor="start" x="15" y="-66.5" font-family="Helvetica,sans-Serif" font-size="10.00">_entries</text>
<text text-anchor="start" x="4" y="-51.5" font-family="Helvetica,sans-Serif" font-size="10.00">+</text>
<text text-anchor="start" x="15" y="-51.5" font-family="Helvetica,sans-Serif" font-size="10.00">LogAsync()</text>
<text text-anchor="start" x="4" y="-36.5" font-family="Helvetica,sans-Serif" font-size="10.00">+</text>
<text text-anchor="start" x="15" y="-36.5" font-family="Helvetica,sans-Serif" font-size="10.00">GetEntriesForEntityAsync()</text>
<text text-anchor="start" x="4" y="-21.5" font-family="Helvetica,sans-Serif" font-size="10.00">+</text>
<text text-anchor="start" x="15" y="-21.5" font-family="Helvetica,sans-Serif" font-size="10.00">GetEntriesByInitiatorAsync()</text>
<text text-anchor="start" x="4" y="-6.5" font-family="Helvetica,sans-Serif" font-size="10.00">+</text>
<text text-anchor="start" x="15" y="-6.5" font-family="Helvetica,sans-Serif" font-size="10.00">GetEntriesByTimeRangeAsync()</text>
<polygon fill="#666666" stroke="#666666" points="0,-76.5 0,-76.5 162,-76.5 162,-76.5 0,-76.5"/>
<polygon fill="#666666" stroke="#666666" points="0,-61.5 0,-61.5 13,-61.5 13,-61.5 0,-61.5"/>
<polygon fill="#666666" stroke="#666666" points="13,-61.5 13,-61.5 162,-61.5 162,-61.5 13,-61.5"/>
<polygon fill="none" stroke="#666666" points="0,0 0,-105 162,-105 162,0 0,0"/>
</a>
</g>
</g>
<!-- Node2 -->
<g id="Node000002" class="node">
<title>Node2</title>
<g id="a_Node000002"><a xlink:href="../../d8/d03/interfaceAlaris_1_1Infrastructure_1_1Events_1_1Core_1_1EVCR004A.html" target="_top" xlink:title="Interface for writing immutable audit logs. Audit logs provide a human&#45;readable trail of all system a...">
<polygon fill="white" stroke="transparent" points="162,-235 0,-235 0,-141 162,-141 162,-235"/>
<text text-anchor="start" x="55" y="-223" font-family="Helvetica,sans-Serif" font-size="10.00">EVCR004A</text>
<text text-anchor="start" x="79" y="-208" font-family="Helvetica,sans-Serif" font-size="10.00"> </text>
<text text-anchor="start" x="4" y="-193" font-family="Helvetica,sans-Serif" font-size="10.00">+</text>
<text text-anchor="start" x="15" y="-193" font-family="Helvetica,sans-Serif" font-size="10.00">LogAsync()</text>
<text text-anchor="start" x="4" y="-178" font-family="Helvetica,sans-Serif" font-size="10.00">+</text>
<text text-anchor="start" x="15" y="-178" font-family="Helvetica,sans-Serif" font-size="10.00">GetEntriesForEntityAsync()</text>
<text text-anchor="start" x="4" y="-163" font-family="Helvetica,sans-Serif" font-size="10.00">+</text>
<text text-anchor="start" x="15" y="-163" font-family="Helvetica,sans-Serif" font-size="10.00">GetEntriesByInitiatorAsync()</text>
<text text-anchor="start" x="4" y="-148" font-family="Helvetica,sans-Serif" font-size="10.00">+</text>
<text text-anchor="start" x="15" y="-148" font-family="Helvetica,sans-Serif" font-size="10.00">GetEntriesByTimeRangeAsync()</text>
<polygon fill="#666666" stroke="#666666" points="0,-218 0,-218 162,-218 162,-218 0,-218"/>
<polygon fill="#666666" stroke="#666666" points="0,-203 0,-203 162,-203 162,-203 0,-203"/>
<polygon fill="none" stroke="#666666" points="0,-141 0,-235 162,-235 162,-141 0,-141"/>
</a>
</g>
</g>
<!-- Node2&#45;&gt;Node1 -->
<g id="edge1_Node000001_Node000002" class="edge">
<title>Node2&#45;&gt;Node1</title>
<g id="a_edge1_Node000001_Node000002"><a xlink:title=" ">
<path fill="none" stroke="#63b8ff" d="M81,-130.57C81,-122.16 81,-113.52 81,-105.22"/>
<polygon fill="none" stroke="#63b8ff" points="77.5,-130.68 81,-140.68 84.5,-130.68 77.5,-130.68"/>
</a>
</g>
</g>
</g>
</svg>
