<?xml version="1.0" encoding="UTF-8" standalone="no"?>
<!DOCTYPE svg PUBLIC "-//W3C//DTD SVG 1.1//EN"
 "http://www.w3.org/Graphics/SVG/1.1/DTD/svg11.dtd">
<!-- Generated by graphviz version 2.43.0 (0)
 -->
<!-- Title: Alaris.Host.Application.Command.BacktestViewSettings Pages: 1 -->
<svg width="163pt" height="168pt"
 viewBox="0.00 0.00 163.00 168.00" xmlns="http://www.w3.org/2000/svg" xmlns:xlink="http://www.w3.org/1999/xlink">
<g id="graph0" class="graph" transform="scale(1 1) rotate(0) translate(4 164)">
<title>Alaris.Host.Application.Command.BacktestViewSettings</title>
<!-- Node1 -->
<g id="Node000001" class="node">
<title>Node1</title>
<g id="a_Node000001"><a xlink:title="Settings for backtest view command.">
<polygon fill="#999999" stroke="transparent" points="155,-75 0,-75 0,0 155,0 155,-75"/>
<text text-anchor="start" x="5.5" y="-62.5" font-family="Helvetica,sans-Serif" font-size="10.00">Alaris.Host.Application.</text>
<text text-anchor="start" x="5.5" y="-51.5" font-family="Helvetica,sans-Serif" font-size="10.00">Command.BacktestViewSettings</text>
<text text-anchor="start" x="27" y="-36.5" font-family="Helvetica,sans-Serif" font-size="10.00">+</text>
<text text-anchor="start" x="60.5" y="-36.5" font-family="Helvetica,sans-Serif" font-size="10.00">SessionId</text>
<text text-anchor="start" x="27" y="-21.5" font-family="Helvetica,sans-Serif" font-size="10.00">+</text>
<text text-anchor="start" x="60.5" y="-21.5" font-family="Helvetica,sans-Serif" font-size="10.00">ShowLogs</text>
<text text-anchor="start" x="76" y="-6.5" font-family="Helvetica,sans-Serif" font-size="10.00"> </text>
<polygon fill="#666666" stroke="#666666" points="0.5,-46.5 0.5,-46.5 155.5,-46.5 155.5,-46.5 0.5,-46.5"/>
<polygon fill="#666666" stroke="#666666" points="0.5,-16.5 0.5,-16.5 58.5,-16.5 58.5,-16.5 0.5,-16.5"/>
<polygon fill="#666666" stroke="#666666" points="58.5,-16.5 58.5,-16.5 155.5,-16.5 155.5,-16.5 58.5,-16.5"/>
<polygon fill="none" stroke="#666666" points="0,0 0,-75 155,-75 155,0 0,0"/>
</a>
</g>
</g>
<!-- Node2 -->
<g id="Node000002" class="node">
<title>Node2</title>
<g id="a_Node000002"><a xlink:title=" ">
<polygon fill="white" stroke="transparent" points="123.5,-160 31.5,-160 31.5,-111 123.5,-111 123.5,-160"/>
<text text-anchor="start" x="36.5" y="-147.5" font-family="Helvetica,sans-Serif" font-size="10.00">CommandSettings</text>
<text text-anchor="start" x="75.5" y="-132.5" font-family="Helvetica,sans-Serif" font-size="10.00"> </text>
<text text-anchor="start" x="75.5" y="-117.5" font-family="Helvetica,sans-Serif" font-size="10.00"> </text>
<polygon fill="#666666" stroke="#666666" points="31.5,-142.5 31.5,-142.5 123.5,-142.5 123.5,-142.5 31.5,-142.5"/>
<polygon fill="#666666" stroke="#666666" points="31.5,-127.5 31.5,-127.5 123.5,-127.5 123.5,-127.5 31.5,-127.5"/>
<polygon fill="none" stroke="#666666" points="31.5,-111 31.5,-160 123.5,-160 123.5,-111 31.5,-111"/>
</a>
</g>
</g>
<!-- Node2&#45;&gt;Node1 -->
<g id="edge1_Node000001_Node000002" class="edge">
<title>Node2&#45;&gt;Node1</title>
<g id="a_edge1_Node000001_Node000002"><a xlink:title=" ">
<path fill="none" stroke="#63b8ff" d="M77.5,-100.68C77.5,-92.38 77.5,-83.46 77.5,-75.04"/>
<polygon fill="none" stroke="#63b8ff" points="74,-100.77 77.5,-110.77 81,-100.77 74,-100.77"/>
</a>
</g>
</g>
</g>
</svg>
