<?xml version="1.0" encoding="UTF-8" standalone="no"?>
<!DOCTYPE svg PUBLIC "-//W3C//DTD SVG 1.1//EN"
 "http://www.w3.org/Graphics/SVG/1.1/DTD/svg11.dtd">
<!-- Generated by graphviz version 2.43.0 (0)
 -->
<!-- Title: Alaris.Strategy.Bridge.STBR001A Pages: 1 -->
<svg width="224pt" height="427pt"
 viewBox="0.00 0.00 224.00 427.00" xmlns="http://www.w3.org/2000/svg" xmlns:xlink="http://www.w3.org/1999/xlink">
<g id="graph0" class="graph" transform="scale(1 1) rotate(0) translate(4 423)">
<title>Alaris.Strategy.Bridge.STBR001A</title>
<!-- Node1 -->
<g id="Node000001" class="node">
<title>Node1</title>
<g id="a_Node000001"><a xlink:title="Unified pricing engine that automatically selects between Alaris native engines based on interest rat...">
<polygon fill="#999999" stroke="transparent" points="204.5,-304 47.5,-304 47.5,0 204.5,0 204.5,-304"/>
<text text-anchor="start" x="53" y="-292" font-family="Helvetica,sans-Serif" font-size="10.00">Alaris.Strategy.Bridge.STBR001A</text>
<text text-anchor="start" x="55" y="-277" font-family="Helvetica,sans-Serif" font-size="10.00">&#45;</text>
<text text-anchor="start" x="66" y="-277" font-family="Helvetica,sans-Serif" font-size="10.00">_logger</text>
<text text-anchor="start" x="55" y="-262" font-family="Helvetica,sans-Serif" font-size="10.00">&#45;</text>
<text text-anchor="start" x="66" y="-262" font-family="Helvetica,sans-Serif" font-size="10.00">_nativeEngine</text>
<text text-anchor="start" x="55" y="-247" font-family="Helvetica,sans-Serif" font-size="10.00">&#45;</text>
<text text-anchor="start" x="66" y="-247" font-family="Helvetica,sans-Serif" font-size="10.00">_disposed</text>
<text text-anchor="start" x="55" y="-232" font-family="Helvetica,sans-Serif" font-size="10.00">&#45;</text>
<text text-anchor="start" x="66" y="-232" font-family="Helvetica,sans-Serif" font-size="10.00">LogPricingOption</text>
<text text-anchor="start" x="55" y="-217" font-family="Helvetica,sans-Serif" font-size="10.00">&#45;</text>
<text text-anchor="start" x="66" y="-217" font-family="Helvetica,sans-Serif" font-size="10.00">LogPricingSTPR001A</text>
<text text-anchor="start" x="55" y="-202" font-family="Helvetica,sans-Serif" font-size="10.00">&#45;</text>
<text text-anchor="start" x="66" y="-202" font-family="Helvetica,sans-Serif" font-size="10.00">LogImpliedVolatilityCalculated</text>
<text text-anchor="start" x="55" y="-187" font-family="Helvetica,sans-Serif" font-size="10.00">&#45;</text>
<text text-anchor="start" x="66" y="-187" font-family="Helvetica,sans-Serif" font-size="10.00">LogErrorPricing</text>
<text text-anchor="start" x="53.5" y="-172" font-family="Helvetica,sans-Serif" font-size="10.00">+</text>
<text text-anchor="start" x="66" y="-172" font-family="Helvetica,sans-Serif" font-size="10.00">STBR001A()</text>
<text text-anchor="start" x="53.5" y="-157" font-family="Helvetica,sans-Serif" font-size="10.00">+</text>
<text text-anchor="start" x="66" y="-157" font-family="Helvetica,sans-Serif" font-size="10.00">PriceOption()</text>
<text text-anchor="start" x="53.5" y="-142" font-family="Helvetica,sans-Serif" font-size="10.00">+</text>
<text text-anchor="start" x="66" y="-142" font-family="Helvetica,sans-Serif" font-size="10.00">PriceSTPR001A()</text>
<text text-anchor="start" x="53.5" y="-127" font-family="Helvetica,sans-Serif" font-size="10.00">+</text>
<text text-anchor="start" x="66" y="-127" font-family="Helvetica,sans-Serif" font-size="10.00">CalculateImpliedVolatility()</text>
<text text-anchor="start" x="53.5" y="-112" font-family="Helvetica,sans-Serif" font-size="10.00">+</text>
<text text-anchor="start" x="66" y="-112" font-family="Helvetica,sans-Serif" font-size="10.00">Dispose()</text>
<text text-anchor="start" x="53.5" y="-97" font-family="Helvetica,sans-Serif" font-size="10.00">+</text>
<text text-anchor="start" x="66" y="-97" font-family="Helvetica,sans-Serif" font-size="10.00">DetermineRegime()</text>
<text text-anchor="start" x="55" y="-82" font-family="Helvetica,sans-Serif" font-size="10.00">&#45;</text>
<text text-anchor="start" x="66" y="-82" font-family="Helvetica,sans-Serif" font-size="10.00">CalculateMaxProfit()</text>
<text text-anchor="start" x="55" y="-67" font-family="Helvetica,sans-Serif" font-size="10.00">&#45;</text>
<text text-anchor="start" x="66" y="-67" font-family="Helvetica,sans-Serif" font-size="10.00">CalculateBreakEven()</text>
<text text-anchor="start" x="55" y="-52" font-family="Helvetica,sans-Serif" font-size="10.00">&#45;</text>
<text text-anchor="start" x="66" y="-52" font-family="Helvetica,sans-Serif" font-size="10.00">SafeLog()</text>
<text text-anchor="start" x="55" y="-37" font-family="Helvetica,sans-Serif" font-size="10.00">&#45;</text>
<text text-anchor="start" x="66" y="-37" font-family="Helvetica,sans-Serif" font-size="10.00">CreateSTDT003A()</text>
<text text-anchor="start" x="55" y="-22" font-family="Helvetica,sans-Serif" font-size="10.00">&#45;</text>
<text text-anchor="start" x="66" y="-22" font-family="Helvetica,sans-Serif" font-size="10.00">BuildSTPR001APricing()</text>
<text text-anchor="start" x="55" y="-7" font-family="Helvetica,sans-Serif" font-size="10.00">&#45;</text>
<text text-anchor="start" x="66" y="-7" font-family="Helvetica,sans-Serif" font-size="10.00">CalculateDaysToExpiry()</text>
<polygon fill="#666666" stroke="#666666" points="48,-287 48,-287 205,-287 205,-287 48,-287"/>
<polygon fill="#666666" stroke="#666666" points="48,-182 48,-182 64,-182 64,-182 48,-182"/>
<polygon fill="#666666" stroke="#666666" points="64,-182 64,-182 205,-182 205,-182 64,-182"/>
<polygon fill="none" stroke="#666666" points="47.5,0 47.5,-304 204.5,-304 204.5,0 47.5,0"/>
</a>
</g>
</g>
<!-- Node2 -->
<g id="Node000002" class="node">
<title>Node2</title>
<g id="a_Node000002"><a xlink:href="../../d9/d02/interfaceAlaris_1_1Strategy_1_1Bridge_1_1STBR002A.html" target="_top" xlink:title="Interface for pricing options using advanced models including negative rates. Implementations use the...">
<polygon fill="white" stroke="transparent" points="136,-419 0,-419 0,-340 136,-340 136,-419"/>
<text text-anchor="start" x="43" y="-406.5" font-family="Helvetica,sans-Serif" font-size="10.00">STBR002A</text>
<text text-anchor="start" x="66" y="-391.5" font-family="Helvetica,sans-Serif" font-size="10.00"> </text>
<text text-anchor="start" x="4" y="-376.5" font-family="Helvetica,sans-Serif" font-size="10.00">+</text>
<text text-anchor="start" x="15" y="-376.5" font-family="Helvetica,sans-Serif" font-size="10.00">PriceOption()</text>
<text text-anchor="start" x="4" y="-361.5" font-family="Helvetica,sans-Serif" font-size="10.00">+</text>
<text text-anchor="start" x="15" y="-361.5" font-family="Helvetica,sans-Serif" font-size="10.00">PriceSTPR001A()</text>
<text text-anchor="start" x="4" y="-346.5" font-family="Helvetica,sans-Serif" font-size="10.00">+</text>
<text text-anchor="start" x="15" y="-346.5" font-family="Helvetica,sans-Serif" font-size="10.00">CalculateImpliedVolatility()</text>
<polygon fill="#666666" stroke="#666666" points="0,-401.5 0,-401.5 136,-401.5 136,-401.5 0,-401.5"/>
<polygon fill="#666666" stroke="#666666" points="0,-386.5 0,-386.5 136,-386.5 136,-386.5 0,-386.5"/>
<polygon fill="none" stroke="#666666" points="0,-340 0,-419 136,-419 136,-340 0,-340"/>
</a>
</g>
</g>
<!-- Node2&#45;&gt;Node1 -->
<g id="edge1_Node000001_Node000002" class="edge">
<title>Node2&#45;&gt;Node1</title>
<g id="a_edge1_Node000001_Node000002"><a xlink:title=" ">
<path fill="none" stroke="#63b8ff" d="M80.43,-330.19C82.49,-322.15 84.73,-313.46 87.06,-304.39"/>
<polygon fill="none" stroke="#63b8ff" points="77.01,-329.43 77.9,-339.99 83.79,-331.18 77.01,-329.43"/>
</a>
</g>
</g>
<!-- Node3 -->
<g id="Node000003" class="node">
<title>Node3</title>
<g id="a_Node000003"><a xlink:title=" ">
<polygon fill="white" stroke="transparent" points="216,-404 154,-404 154,-355 216,-355 216,-404"/>
<text text-anchor="start" x="159" y="-391.5" font-family="Helvetica,sans-Serif" font-size="10.00">IDisposable</text>
<text text-anchor="start" x="183" y="-376.5" font-family="Helvetica,sans-Serif" font-size="10.00"> </text>
<text text-anchor="start" x="183" y="-361.5" font-family="Helvetica,sans-Serif" font-size="10.00"> </text>
<polygon fill="#666666" stroke="#666666" points="154,-386.5 154,-386.5 216,-386.5 216,-386.5 154,-386.5"/>
<polygon fill="#666666" stroke="#666666" points="154,-371.5 154,-371.5 216,-371.5 216,-371.5 154,-371.5"/>
<polygon fill="none" stroke="#666666" points="154,-355 154,-404 216,-404 216,-355 154,-355"/>
</a>
</g>
</g>
<!-- Node3&#45;&gt;Node1 -->
<g id="edge2_Node000001_Node000003" class="edge">
<title>Node3&#45;&gt;Node1</title>
<g id="a_edge2_Node000001_Node000003"><a xlink:title=" ">
<path fill="none" stroke="#63b8ff" d="M176.18,-344.79C173.14,-333.16 169.51,-319.28 165.61,-304.37"/>
<polygon fill="none" stroke="#63b8ff" points="172.88,-346.01 178.8,-354.79 179.65,-344.23 172.88,-346.01"/>
</a>
</g>
</g>
</g>
</svg>
