<?xml version="1.0" encoding="UTF-8" standalone="no"?>
<!DOCTYPE svg PUBLIC "-//W3C//DTD SVG 1.1//EN"
 "http://www.w3.org/Graphics/SVG/1.1/DTD/svg11.dtd">
<!-- Generated by graphviz version 2.43.0 (0)
 -->
<!-- Title: Alaris.Infrastructure.Data.Provider.DTpr003A Pages: 1 -->
<svg width="545pt" height="563pt"
 viewBox="0.00 0.00 545.00 563.00" xmlns="http://www.w3.org/2000/svg" xmlns:xlink="http://www.w3.org/1999/xlink">
<g id="graph0" class="graph" transform="scale(1 1) rotate(0) translate(4 559)">
<title>Alaris.Infrastructure.Data.Provider.DTpr003A</title>
<!-- Node1 -->
<g id="Node000001" class="node">
<title>Node1</title>
<g id="a_Node000001"><a xlink:title="Interface for market data providers (Polygon, IBKR, etc.).">
<polygon fill="#999999" stroke="transparent" points="352,-555 185,-555 185,-450 352,-450 352,-555"/>
<text text-anchor="start" x="212.5" y="-542.5" font-family="Helvetica,sans-Serif" font-size="10.00">Alaris.Infrastructure.Data.</text>
<text text-anchor="start" x="227.5" y="-531.5" font-family="Helvetica,sans-Serif" font-size="10.00">Provider.DTpr003A</text>
<text text-anchor="start" x="267" y="-516.5" font-family="Helvetica,sans-Serif" font-size="10.00"> </text>
<text text-anchor="start" x="189.5" y="-501.5" font-family="Helvetica,sans-Serif" font-size="10.00">+</text>
<text text-anchor="start" x="200.5" y="-501.5" font-family="Helvetica,sans-Serif" font-size="10.00">GetHistoricalBarsAsync()</text>
<text text-anchor="start" x="189.5" y="-486.5" font-family="Helvetica,sans-Serif" font-size="10.00">+</text>
<text text-anchor="start" x="200.5" y="-486.5" font-family="Helvetica,sans-Serif" font-size="10.00">GetOptionChainAsync()</text>
<text text-anchor="start" x="189.5" y="-471.5" font-family="Helvetica,sans-Serif" font-size="10.00">+</text>
<text text-anchor="start" x="200.5" y="-471.5" font-family="Helvetica,sans-Serif" font-size="10.00">GetSpotPriceAsync()</text>
<text text-anchor="start" x="189.5" y="-456.5" font-family="Helvetica,sans-Serif" font-size="10.00">+</text>
<text text-anchor="start" x="200.5" y="-456.5" font-family="Helvetica,sans-Serif" font-size="10.00">GetAverageVolume30DayAsync()</text>
<polygon fill="#666666" stroke="#666666" points="185.5,-526.5 185.5,-526.5 352.5,-526.5 352.5,-526.5 185.5,-526.5"/>
<polygon fill="#666666" stroke="#666666" points="185.5,-511.5 185.5,-511.5 352.5,-511.5 352.5,-511.5 185.5,-511.5"/>
<polygon fill="none" stroke="#666666" points="185,-450 185,-555 352,-555 352,-450 185,-450"/>
</a>
</g>
</g>
<!-- Node2 -->
<g id="Node000002" class="node">
<title>Node2</title>
<g id="a_Node000002"><a xlink:href="../../d7/d00/classAlaris_1_1Infrastructure_1_1Data_1_1Provider_1_1Polygon_1_1PolygonApiClient.html" target="_top" xlink:title="Polygon.io REST API client for market data retrieval. Component ID: DTpr001A.">
<polygon fill="white" stroke="transparent" points="167,-414 0,-414 0,-178 167,-178 167,-414"/>
<text text-anchor="start" x="8" y="-402" font-family="Helvetica,sans-Serif" font-size="10.00">Alaris.Infrastructure.Data.</text>
<text text-anchor="start" x="8" y="-391" font-family="Helvetica,sans-Serif" font-size="10.00">Provider.Polygon.PolygonApiClient</text>
<text text-anchor="start" x="6" y="-376" font-family="Helvetica,sans-Serif" font-size="10.00">&#45;</text>
<text text-anchor="start" x="15.5" y="-376" font-family="Helvetica,sans-Serif" font-size="10.00">_api</text>
<text text-anchor="start" x="6" y="-361" font-family="Helvetica,sans-Serif" font-size="10.00">&#45;</text>
<text text-anchor="start" x="15.5" y="-361" font-family="Helvetica,sans-Serif" font-size="10.00">_logger</text>
<text text-anchor="start" x="6" y="-346" font-family="Helvetica,sans-Serif" font-size="10.00">&#45;</text>
<text text-anchor="start" x="15.5" y="-346" font-family="Helvetica,sans-Serif" font-size="10.00">_apiKey</text>
<text text-anchor="start" x="6" y="-331" font-family="Helvetica,sans-Serif" font-size="10.00">&#45;</text>
<text text-anchor="start" x="15.5" y="-331" font-family="Helvetica,sans-Serif" font-size="10.00">underlying</text>
<text text-anchor="start" x="6" y="-316" font-family="Helvetica,sans-Serif" font-size="10.00">&#45;</text>
<text text-anchor="start" x="15.5" y="-316" font-family="Helvetica,sans-Serif" font-size="10.00">strike</text>
<text text-anchor="start" x="6" y="-301" font-family="Helvetica,sans-Serif" font-size="10.00">&#45;</text>
<text text-anchor="start" x="15.5" y="-301" font-family="Helvetica,sans-Serif" font-size="10.00">expiration</text>
<text text-anchor="start" x="4.5" y="-286" font-family="Helvetica,sans-Serif" font-size="10.00">+</text>
<text text-anchor="start" x="15.5" y="-286" font-family="Helvetica,sans-Serif" font-size="10.00">PolygonApiClient()</text>
<text text-anchor="start" x="4.5" y="-271" font-family="Helvetica,sans-Serif" font-size="10.00">+</text>
<text text-anchor="start" x="15.5" y="-271" font-family="Helvetica,sans-Serif" font-size="10.00">GetHistoricalBarsAsync()</text>
<text text-anchor="start" x="4.5" y="-256" font-family="Helvetica,sans-Serif" font-size="10.00">+</text>
<text text-anchor="start" x="15.5" y="-256" font-family="Helvetica,sans-Serif" font-size="10.00">GetOptionChainAsync()</text>
<text text-anchor="start" x="4.5" y="-241" font-family="Helvetica,sans-Serif" font-size="10.00">+</text>
<text text-anchor="start" x="15.5" y="-241" font-family="Helvetica,sans-Serif" font-size="10.00">GetHistoricalOptionChain</text>
<text text-anchor="start" x="15.5" y="-230" font-family="Helvetica,sans-Serif" font-size="10.00">Async()</text>
<text text-anchor="start" x="4.5" y="-215" font-family="Helvetica,sans-Serif" font-size="10.00">+</text>
<text text-anchor="start" x="15.5" y="-215" font-family="Helvetica,sans-Serif" font-size="10.00">GetSpotPriceAsync()</text>
<text text-anchor="start" x="4.5" y="-200" font-family="Helvetica,sans-Serif" font-size="10.00">+</text>
<text text-anchor="start" x="15.5" y="-200" font-family="Helvetica,sans-Serif" font-size="10.00">GetAverageVolume30DayAsync()</text>
<text text-anchor="start" x="6" y="-185" font-family="Helvetica,sans-Serif" font-size="10.00">&#45;</text>
<text text-anchor="start" x="15.5" y="-185" font-family="Helvetica,sans-Serif" font-size="10.00">ParseOptionTicker()</text>
<polygon fill="#666666" stroke="#666666" points="0.5,-386 0.5,-386 167.5,-386 167.5,-386 0.5,-386"/>
<polygon fill="#666666" stroke="#666666" points="0.5,-296 0.5,-296 13.5,-296 13.5,-296 0.5,-296"/>
<polygon fill="#666666" stroke="#666666" points="13.5,-296 13.5,-296 167.5,-296 167.5,-296 13.5,-296"/>
<polygon fill="none" stroke="#666666" points="0,-178 0,-414 167,-414 167,-178 0,-178"/>
</a>
</g>
</g>
<!-- Node1&#45;&gt;Node2 -->
<g id="edge1_Node000001_Node000002" class="edge">
<title>Node1&#45;&gt;Node2</title>
<g id="a_edge1_Node000001_Node000002"><a xlink:title=" ">
<path fill="none" stroke="#63b8ff" d="M204.49,-442.83C194.89,-433.4 185.27,-423.59 176.5,-414 173.35,-410.55 170.18,-407.01 167.01,-403.41"/>
<polygon fill="none" stroke="#63b8ff" points="202.2,-445.49 211.81,-449.95 207.08,-440.47 202.2,-445.49"/>
</a>
</g>
</g>
<!-- Node3 -->
<g id="Node000003" class="node">
<title>Node3</title>
<g id="a_Node000003"><a xlink:title=" ">
<polygon fill="white" stroke="transparent" points="352,-348.5 185,-348.5 185,-243.5 352,-243.5 352,-348.5"/>
<text text-anchor="start" x="202" y="-336" font-family="Helvetica,sans-Serif" font-size="10.00">Alaris.Test.Integration.</text>
<text text-anchor="start" x="202" y="-325" font-family="Helvetica,sans-Serif" font-size="10.00">BridgeTestMarketDataProvider</text>
<text text-anchor="start" x="267" y="-310" font-family="Helvetica,sans-Serif" font-size="10.00"> </text>
<text text-anchor="start" x="189.5" y="-295" font-family="Helvetica,sans-Serif" font-size="10.00">+</text>
<text text-anchor="start" x="200.5" y="-295" font-family="Helvetica,sans-Serif" font-size="10.00">GetSpotPriceAsync()</text>
<text text-anchor="start" x="189.5" y="-280" font-family="Helvetica,sans-Serif" font-size="10.00">+</text>
<text text-anchor="start" x="200.5" y="-280" font-family="Helvetica,sans-Serif" font-size="10.00">GetHistoricalBarsAsync()</text>
<text text-anchor="start" x="189.5" y="-265" font-family="Helvetica,sans-Serif" font-size="10.00">+</text>
<text text-anchor="start" x="200.5" y="-265" font-family="Helvetica,sans-Serif" font-size="10.00">GetOptionChainAsync()</text>
<text text-anchor="start" x="189.5" y="-250" font-family="Helvetica,sans-Serif" font-size="10.00">+</text>
<text text-anchor="start" x="200.5" y="-250" font-family="Helvetica,sans-Serif" font-size="10.00">GetAverageVolume30DayAsync()</text>
<polygon fill="#666666" stroke="#666666" points="185.5,-320 185.5,-320 352.5,-320 352.5,-320 185.5,-320"/>
<polygon fill="#666666" stroke="#666666" points="185.5,-305 185.5,-305 352.5,-305 352.5,-305 185.5,-305"/>
<polygon fill="none" stroke="#666666" points="185,-243.5 185,-348.5 352,-348.5 352,-243.5 185,-243.5"/>
</a>
</g>
</g>
<!-- Node1&#45;&gt;Node3 -->
<g id="edge2_Node000001_Node000003" class="edge">
<title>Node1&#45;&gt;Node3</title>
<g id="a_edge2_Node000001_Node000003"><a xlink:title=" ">
<path fill="none" stroke="#63b8ff" d="M268.5,-439.83C268.5,-410.7 268.5,-376.32 268.5,-348.59"/>
<polygon fill="none" stroke="#63b8ff" points="265,-439.9 268.5,-449.9 272,-439.9 265,-439.9"/>
</a>
</g>
</g>
<!-- Node5 -->
<g id="Node000005" class="node">
<title>Node5</title>
<g id="a_Node000005"><a xlink:title=" ">
<polygon fill="white" stroke="transparent" points="537,-348.5 370,-348.5 370,-243.5 537,-243.5 537,-348.5"/>
<text text-anchor="start" x="391.5" y="-336" font-family="Helvetica,sans-Serif" font-size="10.00">Alaris.Test.Unit.MockMarket</text>
<text text-anchor="start" x="425" y="-325" font-family="Helvetica,sans-Serif" font-size="10.00">DataProvider</text>
<text text-anchor="start" x="452" y="-310" font-family="Helvetica,sans-Serif" font-size="10.00"> </text>
<text text-anchor="start" x="374.5" y="-295" font-family="Helvetica,sans-Serif" font-size="10.00">+</text>
<text text-anchor="start" x="385.5" y="-295" font-family="Helvetica,sans-Serif" font-size="10.00">GetHistoricalBarsAsync()</text>
<text text-anchor="start" x="374.5" y="-280" font-family="Helvetica,sans-Serif" font-size="10.00">+</text>
<text text-anchor="start" x="385.5" y="-280" font-family="Helvetica,sans-Serif" font-size="10.00">GetOptionChainAsync()</text>
<text text-anchor="start" x="374.5" y="-265" font-family="Helvetica,sans-Serif" font-size="10.00">+</text>
<text text-anchor="start" x="385.5" y="-265" font-family="Helvetica,sans-Serif" font-size="10.00">GetSpotPriceAsync()</text>
<text text-anchor="start" x="374.5" y="-250" font-family="Helvetica,sans-Serif" font-size="10.00">+</text>
<text text-anchor="start" x="385.5" y="-250" font-family="Helvetica,sans-Serif" font-size="10.00">GetAverageVolume30DayAsync()</text>
<polygon fill="#666666" stroke="#666666" points="370.5,-320 370.5,-320 537.5,-320 537.5,-320 370.5,-320"/>
<polygon fill="#666666" stroke="#666666" points="370.5,-305 370.5,-305 537.5,-305 537.5,-305 370.5,-305"/>
<polygon fill="none" stroke="#666666" points="370,-243.5 370,-348.5 537,-348.5 537,-243.5 370,-243.5"/>
</a>
</g>
</g>
<!-- Node1&#45;&gt;Node5 -->
<g id="edge4_Node000001_Node000005" class="edge">
<title>Node1&#45;&gt;Node5</title>
<g id="a_edge4_Node000001_Node000005"><a xlink:title=" ">
<path fill="none" stroke="#63b8ff" d="M333.68,-442.54C343.24,-433.22 352.79,-423.51 361.5,-414 380.25,-393.51 399.48,-369.59 415.47,-348.75"/>
<polygon fill="none" stroke="#63b8ff" points="331.14,-440.13 326.38,-449.59 336,-445.16 331.14,-440.13"/>
</a>
</g>
</g>
<!-- Node4 -->
<g id="Node000004" class="node">
<title>Node4</title>
<g id="a_Node000004"><a xlink:title=" ">
<polygon fill="white" stroke="transparent" points="352,-142 185,-142 185,0 352,0 352,-142"/>
<text text-anchor="start" x="202" y="-130" font-family="Helvetica,sans-Serif" font-size="10.00">Alaris.Test.Integration.</text>
<text text-anchor="start" x="202" y="-119" font-family="Helvetica,sans-Serif" font-size="10.00">BridgeTestMarketDataProvider</text>
<text text-anchor="start" x="246" y="-108" font-family="Helvetica,sans-Serif" font-size="10.00">WithDelay</text>
<text text-anchor="start" x="191" y="-93" font-family="Helvetica,sans-Serif" font-size="10.00">&#45;</text>
<text text-anchor="start" x="200.5" y="-93" font-family="Helvetica,sans-Serif" font-size="10.00">_delay</text>
<text text-anchor="start" x="189.5" y="-78" font-family="Helvetica,sans-Serif" font-size="10.00">+</text>
<text text-anchor="start" x="200.5" y="-78" font-family="Helvetica,sans-Serif" font-size="10.00">BridgeTestMarketDataProvider</text>
<text text-anchor="start" x="200.5" y="-67" font-family="Helvetica,sans-Serif" font-size="10.00">WithDelay()</text>
<text text-anchor="start" x="189.5" y="-52" font-family="Helvetica,sans-Serif" font-size="10.00">+</text>
<text text-anchor="start" x="200.5" y="-52" font-family="Helvetica,sans-Serif" font-size="10.00">GetSpotPriceAsync()</text>
<text text-anchor="start" x="189.5" y="-37" font-family="Helvetica,sans-Serif" font-size="10.00">+</text>
<text text-anchor="start" x="200.5" y="-37" font-family="Helvetica,sans-Serif" font-size="10.00">GetHistoricalBarsAsync()</text>
<text text-anchor="start" x="189.5" y="-22" font-family="Helvetica,sans-Serif" font-size="10.00">+</text>
<text text-anchor="start" x="200.5" y="-22" font-family="Helvetica,sans-Serif" font-size="10.00">GetOptionChainAsync()</text>
<text text-anchor="start" x="189.5" y="-7" font-family="Helvetica,sans-Serif" font-size="10.00">+</text>
<text text-anchor="start" x="200.5" y="-7" font-family="Helvetica,sans-Serif" font-size="10.00">GetAverageVolume30DayAsync()</text>
<polygon fill="#666666" stroke="#666666" points="185.5,-103 185.5,-103 352.5,-103 352.5,-103 185.5,-103"/>
<polygon fill="#666666" stroke="#666666" points="185.5,-88 185.5,-88 198.5,-88 198.5,-88 185.5,-88"/>
<polygon fill="#666666" stroke="#666666" points="198.5,-88 198.5,-88 352.5,-88 352.5,-88 198.5,-88"/>
<polygon fill="none" stroke="#666666" points="185,0 185,-142 352,-142 352,0 185,0"/>
</a>
</g>
</g>
<!-- Node3&#45;&gt;Node4 -->
<g id="edge3_Node000003_Node000004" class="edge">
<title>Node3&#45;&gt;Node4</title>
<g id="a_edge3_Node000003_Node000004"><a xlink:title=" ">
<path fill="none" stroke="#63b8ff" d="M268.5,-233.12C268.5,-204.85 268.5,-171.22 268.5,-142.02"/>
<polygon fill="none" stroke="#63b8ff" points="265,-233.28 268.5,-243.28 272,-233.28 265,-233.28"/>
</a>
</g>
</g>
</g>
</svg>
