<?xml version="1.0" encoding="UTF-8" standalone="no"?>
<!DOCTYPE svg PUBLIC "-//W3C//DTD SVG 1.1//EN"
 "http://www.w3.org/Graphics/SVG/1.1/DTD/svg11.dtd">
<!-- Generated by graphviz version 2.43.0 (0)
 -->
<!-- Title: Alaris.Infrastructure.Data.Quality.DTqc002A Pages: 1 -->
<!--zoomable 209 -->

<svg id="main" version="1.1" xmlns="http://www.w3.org/2000/svg" xmlns:xlink="http://www.w3.org/1999/xlink" xml:space="preserve" onload="init(evt)">
<style type="text/css"><![CDATA[
.node, .edge {opacity: 0.7;}
.node.selected, .edge.selected {opacity: 1;}
.edge:hover path { stroke: red; }
.edge:hover polygon { stroke: red; fill: red; }
]]></style>

<defs>
  <circle id="rim" cx="0" cy="0" r="7"/>
  <circle id="rim2" cx="0" cy="0" r="3.5"/>
  <g id="zoomPlus">
    <use xlink:href="#rim" fill="#404040"><set attributeName="fill" to="#808080" begin="zoomplus.mouseover" end="zoomplus.mouseout"/></use>
    <path d="M-4,0h8M0,-4v8" fill="none" stroke="white" stroke-width="1.5" pointer-events="none"/>
  </g>
  <g id="zoomMin">
    <use xlink:href="#rim" fill="#404040"><set attributeName="fill" to="#808080" begin="zoomminus.mouseover" end="zoomminus.mouseout"/></use>
    <path d="M-4,0h8" fill="none" stroke="white" stroke-width="1.5" pointer-events="none"/>
  </g>
  <g id="arrowUp" transform="translate(30 24)">
    <use xlink:href="#rim"/>
    <path pointer-events="none" fill="none" stroke="white" stroke-width="1.5" d="M0,-3.0v7 M-2.5,-0.5L0,-3.0L2.5,-0.5"/>
  </g>
  <g id="arrowRight" transform="rotate(90) translate(36 -43)">
    <use xlink:href="#rim"/>
    <path pointer-events="none" fill="none" stroke="white" stroke-width="1.5" d="M0,-3.0v7 M-2.5,-0.5L0,-3.0L2.5,-0.5"/>
  </g>
  <g id="arrowDown" transform="rotate(180) translate(-30 -48)">
    <use xlink:href="#rim"/>
    <path pointer-events="none" fill="none" stroke="white" stroke-width="1.5" d="M0,-3.0v7 M-2.5,-0.5L0,-3.0L2.5,-0.5"/>
  </g>
  <g id="arrowLeft" transform="rotate(270) translate(-36 17)">
    <use xlink:href="#rim"/>
    <path pointer-events="none" fill="none" stroke="white" stroke-width="1.5" d="M0,-3.0v7 M-2.5,-0.5L0,-3.0L2.5,-0.5"/>
  </g>
  <g id="resetDef">
    <use xlink:href="#rim2" fill="#404040"><set attributeName="fill" to="#808080" begin="reset.mouseover" end="reset.mouseout"/></use>
  </g>
</defs>
<script type="application/ecmascript">
var viewWidth = 966;
var viewHeight = 209;
var sectionId = 'dynsection-0';
</script>
<script type="application/ecmascript" xlink:href="../../svg.min.js"/>
<svg id="graph" class="graph">
<g id="viewport">
<title>Alaris.Infrastructure.Data.Quality.DTqc002A</title>
<!-- Node1 -->
<g id="Node000001" class="node">
<title>Node1</title>
<g id="a_Node000001"><a xlink:title="Interface for data quality validators.">
<polygon fill="#999999" stroke="transparent" points="548.5,-201 425.5,-201 425.5,-141 548.5,-141 548.5,-201"/>
<text text-anchor="start" x="431" y="-189" font-family="Helvetica,sans-Serif" font-size="10.00">Alaris.Infrastructure.Data.</text>
<text text-anchor="start" x="448" y="-178" font-family="Helvetica,sans-Serif" font-size="10.00">Quality.DTqc002A</text>
<text text-anchor="start" x="441" y="-163" font-family="Helvetica,sans-Serif" font-size="10.00">+</text>
<text text-anchor="start" x="463" y="-163" font-family="Helvetica,sans-Serif" font-size="10.00">ComponentId</text>
<text text-anchor="start" x="441" y="-148" font-family="Helvetica,sans-Serif" font-size="10.00">+</text>
<text text-anchor="start" x="463" y="-148" font-family="Helvetica,sans-Serif" font-size="10.00">Validate()</text>
<polygon fill="#666666" stroke="#666666" points="426,-173 426,-173 549,-173 549,-173 426,-173"/>
<polygon fill="#666666" stroke="#666666" points="426,-158 426,-158 461,-158 461,-158 426,-158"/>
<polygon fill="#666666" stroke="#666666" points="461,-158 461,-158 549,-158 549,-158 461,-158"/>
<polygon fill="none" stroke="#666666" points="425.5,-141 425.5,-201 548.5,-201 548.5,-141 425.5,-141"/>
</a>
</g>
</g>
<!-- Node2 -->
<g id="Node000002" class="node">
<title>Node2</title>
<g id="a_Node000002"><a xlink:href="../../d7/d01/classAlaris_1_1Infrastructure_1_1Data_1_1Quality_1_1EarningsDateValidator.html" target="_top" xlink:title="Validates earnings date accuracy and consistency. Component ID: DTqc004A.">
<polygon fill="white" stroke="transparent" points="140,-105 0,-105 0,0 140,0 140,-105"/>
<text text-anchor="start" x="5" y="-92.5" font-family="Helvetica,sans-Serif" font-size="10.00">Alaris.Infrastructure.Data.</text>
<text text-anchor="start" x="5" y="-81.5" font-family="Helvetica,sans-Serif" font-size="10.00">Quality.EarningsDateValidator</text>
<text text-anchor="start" x="8.5" y="-66.5" font-family="Helvetica,sans-Serif" font-size="10.00">+</text>
<text text-anchor="start" x="24" y="-66.5" font-family="Helvetica,sans-Serif" font-size="10.00">ComponentId</text>
<text text-anchor="start" x="10" y="-51.5" font-family="Helvetica,sans-Serif" font-size="10.00">&#45;</text>
<text text-anchor="start" x="24" y="-51.5" font-family="Helvetica,sans-Serif" font-size="10.00">_logger</text>
<text text-anchor="start" x="10" y="-36.5" font-family="Helvetica,sans-Serif" font-size="10.00">&#45;</text>
<text text-anchor="start" x="24" y="-36.5" font-family="Helvetica,sans-Serif" font-size="10.00">_timeProvider</text>
<text text-anchor="start" x="8.5" y="-21.5" font-family="Helvetica,sans-Serif" font-size="10.00">+</text>
<text text-anchor="start" x="24" y="-21.5" font-family="Helvetica,sans-Serif" font-size="10.00">EarningsDateValidator()</text>
<text text-anchor="start" x="8.5" y="-6.5" font-family="Helvetica,sans-Serif" font-size="10.00">+</text>
<text text-anchor="start" x="24" y="-6.5" font-family="Helvetica,sans-Serif" font-size="10.00">Validate()</text>
<polygon fill="#666666" stroke="#666666" points="0,-76.5 0,-76.5 140,-76.5 140,-76.5 0,-76.5"/>
<polygon fill="#666666" stroke="#666666" points="0,-31.5 0,-31.5 22,-31.5 22,-31.5 0,-31.5"/>
<polygon fill="#666666" stroke="#666666" points="22,-31.5 22,-31.5 140,-31.5 140,-31.5 22,-31.5"/>
<polygon fill="none" stroke="#666666" points="0,0 0,-105 140,-105 140,0 0,0"/>
</a>
</g>
</g>
<!-- Node1&#45;&gt;Node2 -->
<g id="edge1_Node000001_Node000002" class="edge">
<title>Node1&#45;&gt;Node2</title>
<g id="a_edge1_Node000001_Node000002"><a xlink:title=" ">
<path fill="none" stroke="#63b8ff" d="M415.42,-164.33C345.4,-156.93 236.8,-140.46 149,-105 146.12,-103.84 143.22,-102.56 140.34,-101.2"/>
<polygon fill="none" stroke="#63b8ff" points="415.16,-167.82 425.46,-165.35 415.87,-160.85 415.16,-167.82"/>
</a>
</g>
</g>
<!-- Node3 -->
<g id="Node000003" class="node">
<title>Node3</title>
<g id="a_Node000003"><a xlink:href="../../d6/d01/classAlaris_1_1Infrastructure_1_1Data_1_1Quality_1_1IvArbitrageValidator.html" target="_top" xlink:title="Validates IV arbitrage conditions (put&#45;call parity, calendar spreads). Component ID: DTqc002A.">
<polygon fill="white" stroke="transparent" points="286,-97.5 158,-97.5 158,-7.5 286,-7.5 286,-97.5"/>
<text text-anchor="start" x="163" y="-85.5" font-family="Helvetica,sans-Serif" font-size="10.00">Alaris.Infrastructure.Data.</text>
<text text-anchor="start" x="163" y="-74.5" font-family="Helvetica,sans-Serif" font-size="10.00">Quality.IvArbitrageValidator</text>
<text text-anchor="start" x="166.5" y="-59.5" font-family="Helvetica,sans-Serif" font-size="10.00">+</text>
<text text-anchor="start" x="182" y="-59.5" font-family="Helvetica,sans-Serif" font-size="10.00">ComponentId</text>
<text text-anchor="start" x="168" y="-44.5" font-family="Helvetica,sans-Serif" font-size="10.00">&#45;</text>
<text text-anchor="start" x="182" y="-44.5" font-family="Helvetica,sans-Serif" font-size="10.00">_logger</text>
<text text-anchor="start" x="166.5" y="-29.5" font-family="Helvetica,sans-Serif" font-size="10.00">+</text>
<text text-anchor="start" x="182" y="-29.5" font-family="Helvetica,sans-Serif" font-size="10.00">IvArbitrageValidator()</text>
<text text-anchor="start" x="166.5" y="-14.5" font-family="Helvetica,sans-Serif" font-size="10.00">+</text>
<text text-anchor="start" x="182" y="-14.5" font-family="Helvetica,sans-Serif" font-size="10.00">Validate()</text>
<polygon fill="#666666" stroke="#666666" points="158,-69.5 158,-69.5 286,-69.5 286,-69.5 158,-69.5"/>
<polygon fill="#666666" stroke="#666666" points="158,-39.5 158,-39.5 180,-39.5 180,-39.5 158,-39.5"/>
<polygon fill="#666666" stroke="#666666" points="180,-39.5 180,-39.5 286,-39.5 286,-39.5 180,-39.5"/>
<polygon fill="none" stroke="#666666" points="158,-7.5 158,-97.5 286,-97.5 286,-7.5 158,-7.5"/>
</a>
</g>
</g>
<!-- Node1&#45;&gt;Node3 -->
<g id="edge2_Node000001_Node000003" class="edge">
<title>Node1&#45;&gt;Node3</title>
<g id="a_edge2_Node000001_Node000003"><a xlink:title=" ">
<path fill="none" stroke="#63b8ff" d="M415.38,-151.11C378.4,-140.04 333.15,-124.4 295,-105 290.58,-102.75 286.12,-100.26 281.7,-97.62"/>
<polygon fill="none" stroke="#63b8ff" points="414.5,-154.5 425.08,-153.97 416.48,-147.79 414.5,-154.5"/>
</a>
</g>
</g>
<!-- Node4 -->
<g id="Node000004" class="node">
<title>Node4</title>
<g id="a_Node000004"><a xlink:href="../../db/d03/classAlaris_1_1Infrastructure_1_1Data_1_1Quality_1_1PriceReasonablenessValidator.html" target="_top" xlink:title="Validates price reasonableness and data freshness. Component ID: DTqc001A.">
<polygon fill="white" stroke="transparent" points="480,-105 304,-105 304,0 480,0 480,-105"/>
<text text-anchor="start" x="309" y="-92.5" font-family="Helvetica,sans-Serif" font-size="10.00">Alaris.Infrastructure.Data.</text>
<text text-anchor="start" x="309" y="-81.5" font-family="Helvetica,sans-Serif" font-size="10.00">Quality.PriceReasonablenessValidator</text>
<text text-anchor="start" x="312.5" y="-66.5" font-family="Helvetica,sans-Serif" font-size="10.00">+</text>
<text text-anchor="start" x="328" y="-66.5" font-family="Helvetica,sans-Serif" font-size="10.00">ComponentId</text>
<text text-anchor="start" x="314" y="-51.5" font-family="Helvetica,sans-Serif" font-size="10.00">&#45;</text>
<text text-anchor="start" x="328" y="-51.5" font-family="Helvetica,sans-Serif" font-size="10.00">_logger</text>
<text text-anchor="start" x="314" y="-36.5" font-family="Helvetica,sans-Serif" font-size="10.00">&#45;</text>
<text text-anchor="start" x="328" y="-36.5" font-family="Helvetica,sans-Serif" font-size="10.00">_timeProvider</text>
<text text-anchor="start" x="312.5" y="-21.5" font-family="Helvetica,sans-Serif" font-size="10.00">+</text>
<text text-anchor="start" x="328" y="-21.5" font-family="Helvetica,sans-Serif" font-size="10.00">PriceReasonablenessValidator()</text>
<text text-anchor="start" x="312.5" y="-6.5" font-family="Helvetica,sans-Serif" font-size="10.00">+</text>
<text text-anchor="start" x="328" y="-6.5" font-family="Helvetica,sans-Serif" font-size="10.00">Validate()</text>
<polygon fill="#666666" stroke="#666666" points="304,-76.5 304,-76.5 480,-76.5 480,-76.5 304,-76.5"/>
<polygon fill="#666666" stroke="#666666" points="304,-31.5 304,-31.5 326,-31.5 326,-31.5 304,-31.5"/>
<polygon fill="#666666" stroke="#666666" points="326,-31.5 326,-31.5 480,-31.5 480,-31.5 326,-31.5"/>
<polygon fill="none" stroke="#666666" points="304,0 304,-105 480,-105 480,0 304,0"/>
</a>
</g>
</g>
<!-- Node1&#45;&gt;Node4 -->
<g id="edge3_Node000001_Node000004" class="edge">
<title>Node1&#45;&gt;Node4</title>
<g id="a_edge3_Node000001_Node000004"><a xlink:title=" ">
<path fill="none" stroke="#63b8ff" d="M456.87,-133.05C449.69,-124.24 441.89,-114.68 434.27,-105.34"/>
<polygon fill="none" stroke="#63b8ff" points="454.24,-135.36 463.27,-140.9 459.67,-130.94 454.24,-135.36"/>
</a>
</g>
</g>
<!-- Node5 -->
<g id="Node000005" class="node">
<title>Node5</title>
<g id="a_Node000005"><a xlink:href="../../dc/d00/classAlaris_1_1Infrastructure_1_1Data_1_1Quality_1_1VolumeOpenInterestValidator.html" target="_top" xlink:title="Validates volume and open interest for liquidity requirements. Component ID: DTqc003A.">
<polygon fill="white" stroke="transparent" points="668,-97.5 498,-97.5 498,-7.5 668,-7.5 668,-97.5"/>
<text text-anchor="start" x="503" y="-85.5" font-family="Helvetica,sans-Serif" font-size="10.00">Alaris.Infrastructure.Data.</text>
<text text-anchor="start" x="503" y="-74.5" font-family="Helvetica,sans-Serif" font-size="10.00">Quality.VolumeOpenInterestValidator</text>
<text text-anchor="start" x="506.5" y="-59.5" font-family="Helvetica,sans-Serif" font-size="10.00">+</text>
<text text-anchor="start" x="522" y="-59.5" font-family="Helvetica,sans-Serif" font-size="10.00">ComponentId</text>
<text text-anchor="start" x="508" y="-44.5" font-family="Helvetica,sans-Serif" font-size="10.00">&#45;</text>
<text text-anchor="start" x="522" y="-44.5" font-family="Helvetica,sans-Serif" font-size="10.00">_logger</text>
<text text-anchor="start" x="506.5" y="-29.5" font-family="Helvetica,sans-Serif" font-size="10.00">+</text>
<text text-anchor="start" x="522" y="-29.5" font-family="Helvetica,sans-Serif" font-size="10.00">VolumeOpenInterestValidator()</text>
<text text-anchor="start" x="506.5" y="-14.5" font-family="Helvetica,sans-Serif" font-size="10.00">+</text>
<text text-anchor="start" x="522" y="-14.5" font-family="Helvetica,sans-Serif" font-size="10.00">Validate()</text>
<polygon fill="#666666" stroke="#666666" points="498,-69.5 498,-69.5 668,-69.5 668,-69.5 498,-69.5"/>
<polygon fill="#666666" stroke="#666666" points="498,-39.5 498,-39.5 520,-39.5 520,-39.5 498,-39.5"/>
<polygon fill="#666666" stroke="#666666" points="520,-39.5 520,-39.5 668,-39.5 668,-39.5 520,-39.5"/>
<polygon fill="none" stroke="#666666" points="498,-7.5 498,-97.5 668,-97.5 668,-7.5 498,-7.5"/>
</a>
</g>
</g>
<!-- Node1&#45;&gt;Node5 -->
<g id="edge4_Node000001_Node000005" class="edge">
<title>Node1&#45;&gt;Node5</title>
<g id="a_edge4_Node000001_Node000005"><a xlink:title=" ">
<path fill="none" stroke="#63b8ff" d="M517.52,-132.97C526.77,-121.74 537.03,-109.29 546.63,-97.64"/>
<polygon fill="none" stroke="#63b8ff" points="514.64,-130.96 510.98,-140.9 520.04,-135.41 514.64,-130.96"/>
</a>
</g>
</g>
<!-- Node6 -->
<g id="Node000006" class="node">
<title>Node6</title>
<g id="a_Node000006"><a xlink:title=" ">
<polygon fill="white" stroke="transparent" points="809.5,-82.5 686.5,-82.5 686.5,-22.5 809.5,-22.5 809.5,-82.5"/>
<text text-anchor="start" x="692" y="-70.5" font-family="Helvetica,sans-Serif" font-size="10.00">Alaris.Test.Integration.</text>
<text text-anchor="start" x="692" y="-59.5" font-family="Helvetica,sans-Serif" font-size="10.00">BridgeTestFailingValidator</text>
<text text-anchor="start" x="702" y="-44.5" font-family="Helvetica,sans-Serif" font-size="10.00">+</text>
<text text-anchor="start" x="724" y="-44.5" font-family="Helvetica,sans-Serif" font-size="10.00">ComponentId</text>
<text text-anchor="start" x="702" y="-29.5" font-family="Helvetica,sans-Serif" font-size="10.00">+</text>
<text text-anchor="start" x="724" y="-29.5" font-family="Helvetica,sans-Serif" font-size="10.00">Validate()</text>
<polygon fill="#666666" stroke="#666666" points="687,-54.5 687,-54.5 810,-54.5 810,-54.5 687,-54.5"/>
<polygon fill="#666666" stroke="#666666" points="687,-39.5 687,-39.5 722,-39.5 722,-39.5 687,-39.5"/>
<polygon fill="#666666" stroke="#666666" points="722,-39.5 722,-39.5 810,-39.5 810,-39.5 722,-39.5"/>
<polygon fill="none" stroke="#666666" points="686.5,-22.5 686.5,-82.5 809.5,-82.5 809.5,-22.5 686.5,-22.5"/>
</a>
</g>
</g>
<!-- Node1&#45;&gt;Node6 -->
<g id="edge5_Node000001_Node000006" class="edge">
<title>Node1&#45;&gt;Node6</title>
<g id="a_edge5_Node000001_Node000006"><a xlink:title=" ">
<path fill="none" stroke="#63b8ff" d="M558.39,-151.09C594.93,-140.05 639.5,-124.45 677,-105 689.03,-98.76 701.28,-90.63 712.14,-82.69"/>
<polygon fill="none" stroke="#63b8ff" points="557.39,-147.74 548.8,-153.94 559.38,-154.45 557.39,-147.74"/>
</a>
</g>
</g>
<!-- Node7 -->
<g id="Node000007" class="node">
<title>Node7</title>
<g id="a_Node000007"><a xlink:title=" ">
<polygon fill="white" stroke="transparent" points="958,-82.5 828,-82.5 828,-22.5 958,-22.5 958,-82.5"/>
<text text-anchor="start" x="833" y="-70.5" font-family="Helvetica,sans-Serif" font-size="10.00">Alaris.Test.Integration.</text>
<text text-anchor="start" x="833" y="-59.5" font-family="Helvetica,sans-Serif" font-size="10.00">BridgeTestPassingValidator</text>
<text text-anchor="start" x="845" y="-44.5" font-family="Helvetica,sans-Serif" font-size="10.00">+</text>
<text text-anchor="start" x="869" y="-44.5" font-family="Helvetica,sans-Serif" font-size="10.00">ComponentId</text>
<text text-anchor="start" x="845" y="-29.5" font-family="Helvetica,sans-Serif" font-size="10.00">+</text>
<text text-anchor="start" x="869" y="-29.5" font-family="Helvetica,sans-Serif" font-size="10.00">Validate()</text>
<polygon fill="#666666" stroke="#666666" points="828,-54.5 828,-54.5 958,-54.5 958,-54.5 828,-54.5"/>
<polygon fill="#666666" stroke="#666666" points="828,-39.5 828,-39.5 867,-39.5 867,-39.5 828,-39.5"/>
<polygon fill="#666666" stroke="#666666" points="867,-39.5 867,-39.5 958,-39.5 958,-39.5 867,-39.5"/>
<polygon fill="none" stroke="#666666" points="828,-22.5 828,-82.5 958,-82.5 958,-22.5 828,-22.5"/>
</a>
</g>
</g>
<!-- Node1&#45;&gt;Node7 -->
<g id="edge6_Node000001_Node000007" class="edge">
<title>Node1&#45;&gt;Node7</title>
<g id="a_edge6_Node000001_Node000007"><a xlink:title=" ">
<path fill="none" stroke="#63b8ff" d="M558.91,-164.55C627.9,-157.35 733.87,-141.06 819,-105 832.4,-99.32 845.83,-90.97 857.5,-82.64"/>
<polygon fill="none" stroke="#63b8ff" points="558.18,-161.1 548.58,-165.59 558.88,-168.07 558.18,-161.1"/>
</a>
</g>
</g>
</g>
</svg>

<g id="navigator" transform="translate(0 0)" fill="#404254">
  <rect fill="#f2f5e9" fill-opacity="0.5" stroke="#606060" stroke-width=".5" x="0" y="0" width="60" height="60"/>
  <use id="zoomplus" xlink:href="#zoomPlus" x="17" y="9" onmousedown="handleZoom(evt,'in')"/>
  <use id="zoomminus" xlink:href="#zoomMin" x="42" y="9" onmousedown="handleZoom(evt,'out')"/>
  <use id="reset" xlink:href="#resetDef" x="30" y="36" onmousedown="handleReset()"/>
   <use id="arrowup" xlink:href="#arrowUp" x="0" y="0" onmousedown="handlePan(0,-1)"/>
  <use id="arrowright" xlink:href="#arrowRight" x="0" y="0" onmousedown="handlePan(1,0)"/>
  <use id="arrowdown" xlink:href="#arrowDown" x="0" y="0" onmousedown="handlePan(0,1)"/>
  <use id="arrowleft" xlink:href="#arrowLeft" x="0" y="0" onmousedown="handlePan(-1,0)"/>
</g>
<svg viewBox="0 0 15 15" width="100%" height="30px" preserveAspectRatio="xMaxYMin meet">
 <g id="arrow_out" transform="scale(0.3 0.3)">
  <a xlink:href="interfaceAlaris_1_1Infrastructure_1_1Data_1_1Quality_1_1DTqc002A__inherit__graph_org.svg" target="_base">
   <rect id="button" ry="5" rx="5" y="6" x="6" height="38" width="38"
        fill="#f2f5e9" fill-opacity="0.5" stroke="#606060" stroke-width="1.0"/>
   <path id="arrow"
     d="M 11.500037,31.436501 C 11.940474,20.09759 22.043105,11.32322 32.158766,21.979434 L 37.068811,17.246167 C 37.068811,17.246167 37.088388,32 37.088388,32 L 22.160133,31.978069 C 22.160133,31.978069 26.997745,27.140456 26.997745,27.140456 C 18.528582,18.264221 13.291696,25.230495 11.500037,31.436501 z"
     style="fill:#404040;"/>
  </a>
 </g>
</svg>

<style type='text/css'>
<![CDATA[
[data-mouse-over-selected='false'] { opacity: 0.7; }
[data-mouse-over-selected='true']  { opacity: 1.0; }
]]>
</style>
<script type="application/ecmascript"><![CDATA[
document.addEventListener('DOMContentLoaded', (event) => {
  highlightEdges();
  highlightAdjacentNodes();
});
]]></script>
</svg>
