<?xml version="1.0" encoding="UTF-8" standalone="no"?>
<!DOCTYPE svg PUBLIC "-//W3C//DTD SVG 1.1//EN"
 "http://www.w3.org/Graphics/SVG/1.1/DTD/svg11.dtd">
<!-- Generated by graphviz version 2.43.0 (0)
 -->
<!-- Title: Alaris.Infrastructure.Data.Provider.DTpr003A Pages: 1 -->
<!--zoomable 563 -->

<svg id="main" version="1.1" xmlns="http://www.w3.org/2000/svg" xmlns:xlink="http://www.w3.org/1999/xlink" xml:space="preserve" onload="init(evt)">
<style type="text/css"><![CDATA[
.node, .edge {opacity: 0.7;}
.node.selected, .edge.selected {opacity: 1;}
.edge:hover path { stroke: red; }
.edge:hover polygon { stroke: red; fill: red; }
]]></style>

<defs>
  <circle id="rim" cx="0" cy="0" r="7"/>
  <circle id="rim2" cx="0" cy="0" r="3.5"/>
  <g id="zoomPlus">
    <use xlink:href="#rim" fill="#404040"><set attributeName="fill" to="#808080" begin="zoomplus.mouseover" end="zoomplus.mouseout"/></use>
    <path d="M-4,0h8M0,-4v8" fill="none" stroke="white" stroke-width="1.5" pointer-events="none"/>
  </g>
  <g id="zoomMin">
    <use xlink:href="#rim" fill="#404040"><set attributeName="fill" to="#808080" begin="zoomminus.mouseover" end="zoomminus.mouseout"/></use>
    <path d="M-4,0h8" fill="none" stroke="white" stroke-width="1.5" pointer-events="none"/>
  </g>
  <g id="arrowUp" transform="translate(30 24)">
    <use xlink:href="#rim"/>
    <path pointer-events="none" fill="none" stroke="white" stroke-width="1.5" d="M0,-3.0v7 M-2.5,-0.5L0,-3.0L2.5,-0.5"/>
  </g>
  <g id="arrowRight" transform="rotate(90) translate(36 -43)">
    <use xlink:href="#rim"/>
    <path pointer-events="none" fill="none" stroke="white" stroke-width="1.5" d="M0,-3.0v7 M-2.5,-0.5L0,-3.0L2.5,-0.5"/>
  </g>
  <g id="arrowDown" transform="rotate(180) translate(-30 -48)">
    <use xlink:href="#rim"/>
    <path pointer-events="none" fill="none" stroke="white" stroke-width="1.5" d="M0,-3.0v7 M-2.5,-0.5L0,-3.0L2.5,-0.5"/>
  </g>
  <g id="arrowLeft" transform="rotate(270) translate(-36 17)">
    <use xlink:href="#rim"/>
    <path pointer-events="none" fill="none" stroke="white" stroke-width="1.5" d="M0,-3.0v7 M-2.5,-0.5L0,-3.0L2.5,-0.5"/>
  </g>
  <g id="resetDef">
    <use xlink:href="#rim2" fill="#404040"><set attributeName="fill" to="#808080" begin="reset.mouseover" end="reset.mouseout"/></use>
  </g>
</defs>
<script type="application/ecmascript">
var viewWidth = 545;
var viewHeight = 563;
var sectionId = 'dynsection-0';
</script>
<script type="application/ecmascript" xlink:href="../../svg.min.js"/>
<svg id="graph" class="graph">
<g id="viewport">
<title>Alaris.Infrastructure.Data.Provider.DTpr003A</title>
<!-- Node1 -->
<g id="Node000001" class="node">
<title>Node1</title>
<g id="a_Node000001"><a xlink:title="Interface for market data providers (Polygon, IBKR, etc.).">
<polygon fill="#999999" stroke="transparent" points="352,-555 185,-555 185,-450 352,-450 352,-555"/>
<text text-anchor="start" x="212.5" y="-542.5" font-family="Helvetica,sans-Serif" font-size="10.00">Alaris.Infrastructure.Data.</text>
<text text-anchor="start" x="227.5" y="-531.5" font-family="Helvetica,sans-Serif" font-size="10.00">Provider.DTpr003A</text>
<text text-anchor="start" x="267" y="-516.5" font-family="Helvetica,sans-Serif" font-size="10.00"> </text>
<text text-anchor="start" x="189.5" y="-501.5" font-family="Helvetica,sans-Serif" font-size="10.00">+</text>
<text text-anchor="start" x="200.5" y="-501.5" font-family="Helvetica,sans-Serif" font-size="10.00">GetHistoricalBarsAsync()</text>
<text text-anchor="start" x="189.5" y="-486.5" font-family="Helvetica,sans-Serif" font-size="10.00">+</text>
<text text-anchor="start" x="200.5" y="-486.5" font-family="Helvetica,sans-Serif" font-size="10.00">GetOptionChainAsync()</text>
<text text-anchor="start" x="189.5" y="-471.5" font-family="Helvetica,sans-Serif" font-size="10.00">+</text>
<text text-anchor="start" x="200.5" y="-471.5" font-family="Helvetica,sans-Serif" font-size="10.00">GetSpotPriceAsync()</text>
<text text-anchor="start" x="189.5" y="-456.5" font-family="Helvetica,sans-Serif" font-size="10.00">+</text>
<text text-anchor="start" x="200.5" y="-456.5" font-family="Helvetica,sans-Serif" font-size="10.00">GetAverageVolume30DayAsync()</text>
<polygon fill="#666666" stroke="#666666" points="185.5,-526.5 185.5,-526.5 352.5,-526.5 352.5,-526.5 185.5,-526.5"/>
<polygon fill="#666666" stroke="#666666" points="185.5,-511.5 185.5,-511.5 352.5,-511.5 352.5,-511.5 185.5,-511.5"/>
<polygon fill="none" stroke="#666666" points="185,-450 185,-555 352,-555 352,-450 185,-450"/>
</a>
</g>
</g>
<!-- Node2 -->
<g id="Node000002" class="node">
<title>Node2</title>
<g id="a_Node000002"><a xlink:href="../../d7/d00/classAlaris_1_1Infrastructure_1_1Data_1_1Provider_1_1Polygon_1_1PolygonApiClient.html" target="_top" xlink:title="Polygon.io REST API client for market data retrieval. Component ID: DTpr001A.">
<polygon fill="white" stroke="transparent" points="167,-414 0,-414 0,-178 167,-178 167,-414"/>
<text text-anchor="start" x="8" y="-402" font-family="Helvetica,sans-Serif" font-size="10.00">Alaris.Infrastructure.Data.</text>
<text text-anchor="start" x="8" y="-391" font-family="Helvetica,sans-Serif" font-size="10.00">Provider.Polygon.PolygonApiClient</text>
<text text-anchor="start" x="6" y="-376" font-family="Helvetica,sans-Serif" font-size="10.00">&#45;</text>
<text text-anchor="start" x="15.5" y="-376" font-family="Helvetica,sans-Serif" font-size="10.00">_api</text>
<text text-anchor="start" x="6" y="-361" font-family="Helvetica,sans-Serif" font-size="10.00">&#45;</text>
<text text-anchor="start" x="15.5" y="-361" font-family="Helvetica,sans-Serif" font-size="10.00">_logger</text>
<text text-anchor="start" x="6" y="-346" font-family="Helvetica,sans-Serif" font-size="10.00">&#45;</text>
<text text-anchor="start" x="15.5" y="-346" font-family="Helvetica,sans-Serif" font-size="10.00">_apiKey</text>
<text text-anchor="start" x="6" y="-331" font-family="Helvetica,sans-Serif" font-size="10.00">&#45;</text>
<text text-anchor="start" x="15.5" y="-331" font-family="Helvetica,sans-Serif" font-size="10.00">underlying</text>
<text text-anchor="start" x="6" y="-316" font-family="Helvetica,sans-Serif" font-size="10.00">&#45;</text>
<text text-anchor="start" x="15.5" y="-316" font-family="Helvetica,sans-Serif" font-size="10.00">strike</text>
<text text-anchor="start" x="6" y="-301" font-family="Helvetica,sans-Serif" font-size="10.00">&#45;</text>
<text text-anchor="start" x="15.5" y="-301" font-family="Helvetica,sans-Serif" font-size="10.00">expiration</text>
<text text-anchor="start" x="4.5" y="-286" font-family="Helvetica,sans-Serif" font-size="10.00">+</text>
<text text-anchor="start" x="15.5" y="-286" font-family="Helvetica,sans-Serif" font-size="10.00">PolygonApiClient()</text>
<text text-anchor="start" x="4.5" y="-271" font-family="Helvetica,sans-Serif" font-size="10.00">+</text>
<text text-anchor="start" x="15.5" y="-271" font-family="Helvetica,sans-Serif" font-size="10.00">GetHistoricalBarsAsync()</text>
<text text-anchor="start" x="4.5" y="-256" font-family="Helvetica,sans-Serif" font-size="10.00">+</text>
<text text-anchor="start" x="15.5" y="-256" font-family="Helvetica,sans-Serif" font-size="10.00">GetOptionChainAsync()</text>
<text text-anchor="start" x="4.5" y="-241" font-family="Helvetica,sans-Serif" font-size="10.00">+</text>
<text text-anchor="start" x="15.5" y="-241" font-family="Helvetica,sans-Serif" font-size="10.00">GetHistoricalOptionChain</text>
<text text-anchor="start" x="15.5" y="-230" font-family="Helvetica,sans-Serif" font-size="10.00">Async()</text>
<text text-anchor="start" x="4.5" y="-215" font-family="Helvetica,sans-Serif" font-size="10.00">+</text>
<text text-anchor="start" x="15.5" y="-215" font-family="Helvetica,sans-Serif" font-size="10.00">GetSpotPriceAsync()</text>
<text text-anchor="start" x="4.5" y="-200" font-family="Helvetica,sans-Serif" font-size="10.00">+</text>
<text text-anchor="start" x="15.5" y="-200" font-family="Helvetica,sans-Serif" font-size="10.00">GetAverageVolume30DayAsync()</text>
<text text-anchor="start" x="6" y="-185" font-family="Helvetica,sans-Serif" font-size="10.00">&#45;</text>
<text text-anchor="start" x="15.5" y="-185" font-family="Helvetica,sans-Serif" font-size="10.00">ParseOptionTicker()</text>
<polygon fill="#666666" stroke="#666666" points="0.5,-386 0.5,-386 167.5,-386 167.5,-386 0.5,-386"/>
<polygon fill="#666666" stroke="#666666" points="0.5,-296 0.5,-296 13.5,-296 13.5,-296 0.5,-296"/>
<polygon fill="#666666" stroke="#666666" points="13.5,-296 13.5,-296 167.5,-296 167.5,-296 13.5,-296"/>
<polygon fill="none" stroke="#666666" points="0,-178 0,-414 167,-414 167,-178 0,-178"/>
</a>
</g>
</g>
<!-- Node1&#45;&gt;Node2 -->
<g id="edge1_Node000001_Node000002" class="edge">
<title>Node1&#45;&gt;Node2</title>
<g id="a_edge1_Node000001_Node000002"><a xlink:title=" ">
<path fill="none" stroke="#63b8ff" d="M204.49,-442.83C194.89,-433.4 185.27,-423.59 176.5,-414 173.35,-410.55 170.18,-407.01 167.01,-403.41"/>
<polygon fill="none" stroke="#63b8ff" points="202.2,-445.49 211.81,-449.95 207.08,-440.47 202.2,-445.49"/>
</a>
</g>
</g>
<!-- Node3 -->
<g id="Node000003" class="node">
<title>Node3</title>
<g id="a_Node000003"><a xlink:title=" ">
<polygon fill="white" stroke="transparent" points="352,-348.5 185,-348.5 185,-243.5 352,-243.5 352,-348.5"/>
<text text-anchor="start" x="202" y="-336" font-family="Helvetica,sans-Serif" font-size="10.00">Alaris.Test.Integration.</text>
<text text-anchor="start" x="202" y="-325" font-family="Helvetica,sans-Serif" font-size="10.00">BridgeTestMarketDataProvider</text>
<text text-anchor="start" x="267" y="-310" font-family="Helvetica,sans-Serif" font-size="10.00"> </text>
<text text-anchor="start" x="189.5" y="-295" font-family="Helvetica,sans-Serif" font-size="10.00">+</text>
<text text-anchor="start" x="200.5" y="-295" font-family="Helvetica,sans-Serif" font-size="10.00">GetSpotPriceAsync()</text>
<text text-anchor="start" x="189.5" y="-280" font-family="Helvetica,sans-Serif" font-size="10.00">+</text>
<text text-anchor="start" x="200.5" y="-280" font-family="Helvetica,sans-Serif" font-size="10.00">GetHistoricalBarsAsync()</text>
<text text-anchor="start" x="189.5" y="-265" font-family="Helvetica,sans-Serif" font-size="10.00">+</text>
<text text-anchor="start" x="200.5" y="-265" font-family="Helvetica,sans-Serif" font-size="10.00">GetOptionChainAsync()</text>
<text text-anchor="start" x="189.5" y="-250" font-family="Helvetica,sans-Serif" font-size="10.00">+</text>
<text text-anchor="start" x="200.5" y="-250" font-family="Helvetica,sans-Serif" font-size="10.00">GetAverageVolume30DayAsync()</text>
<polygon fill="#666666" stroke="#666666" points="185.5,-320 185.5,-320 352.5,-320 352.5,-320 185.5,-320"/>
<polygon fill="#666666" stroke="#666666" points="185.5,-305 185.5,-305 352.5,-305 352.5,-305 185.5,-305"/>
<polygon fill="none" stroke="#666666" points="185,-243.5 185,-348.5 352,-348.5 352,-243.5 185,-243.5"/>
</a>
</g>
</g>
<!-- Node1&#45;&gt;Node3 -->
<g id="edge2_Node000001_Node000003" class="edge">
<title>Node1&#45;&gt;Node3</title>
<g id="a_edge2_Node000001_Node000003"><a xlink:title=" ">
<path fill="none" stroke="#63b8ff" d="M268.5,-439.83C268.5,-410.7 268.5,-376.32 268.5,-348.59"/>
<polygon fill="none" stroke="#63b8ff" points="265,-439.9 268.5,-449.9 272,-439.9 265,-439.9"/>
</a>
</g>
</g>
<!-- Node5 -->
<g id="Node000005" class="node">
<title>Node5</title>
<g id="a_Node000005"><a xlink:title=" ">
<polygon fill="white" stroke="transparent" points="537,-348.5 370,-348.5 370,-243.5 537,-243.5 537,-348.5"/>
<text text-anchor="start" x="391.5" y="-336" font-family="Helvetica,sans-Serif" font-size="10.00">Alaris.Test.Unit.MockMarket</text>
<text text-anchor="start" x="425" y="-325" font-family="Helvetica,sans-Serif" font-size="10.00">DataProvider</text>
<text text-anchor="start" x="452" y="-310" font-family="Helvetica,sans-Serif" font-size="10.00"> </text>
<text text-anchor="start" x="374.5" y="-295" font-family="Helvetica,sans-Serif" font-size="10.00">+</text>
<text text-anchor="start" x="385.5" y="-295" font-family="Helvetica,sans-Serif" font-size="10.00">GetHistoricalBarsAsync()</text>
<text text-anchor="start" x="374.5" y="-280" font-family="Helvetica,sans-Serif" font-size="10.00">+</text>
<text text-anchor="start" x="385.5" y="-280" font-family="Helvetica,sans-Serif" font-size="10.00">GetOptionChainAsync()</text>
<text text-anchor="start" x="374.5" y="-265" font-family="Helvetica,sans-Serif" font-size="10.00">+</text>
<text text-anchor="start" x="385.5" y="-265" font-family="Helvetica,sans-Serif" font-size="10.00">GetSpotPriceAsync()</text>
<text text-anchor="start" x="374.5" y="-250" font-family="Helvetica,sans-Serif" font-size="10.00">+</text>
<text text-anchor="start" x="385.5" y="-250" font-family="Helvetica,sans-Serif" font-size="10.00">GetAverageVolume30DayAsync()</text>
<polygon fill="#666666" stroke="#666666" points="370.5,-320 370.5,-320 537.5,-320 537.5,-320 370.5,-320"/>
<polygon fill="#666666" stroke="#666666" points="370.5,-305 370.5,-305 537.5,-305 537.5,-305 370.5,-305"/>
<polygon fill="none" stroke="#666666" points="370,-243.5 370,-348.5 537,-348.5 537,-243.5 370,-243.5"/>
</a>
</g>
</g>
<!-- Node1&#45;&gt;Node5 -->
<g id="edge4_Node000001_Node000005" class="edge">
<title>Node1&#45;&gt;Node5</title>
<g id="a_edge4_Node000001_Node000005"><a xlink:title=" ">
<path fill="none" stroke="#63b8ff" d="M333.68,-442.54C343.24,-433.22 352.79,-423.51 361.5,-414 380.25,-393.51 399.48,-369.59 415.47,-348.75"/>
<polygon fill="none" stroke="#63b8ff" points="331.14,-440.13 326.38,-449.59 336,-445.16 331.14,-440.13"/>
</a>
</g>
</g>
<!-- Node4 -->
<g id="Node000004" class="node">
<title>Node4</title>
<g id="a_Node000004"><a xlink:title=" ">
<polygon fill="white" stroke="transparent" points="352,-142 185,-142 185,0 352,0 352,-142"/>
<text text-anchor="start" x="202" y="-130" font-family="Helvetica,sans-Serif" font-size="10.00">Alaris.Test.Integration.</text>
<text text-anchor="start" x="202" y="-119" font-family="Helvetica,sans-Serif" font-size="10.00">BridgeTestMarketDataProvider</text>
<text text-anchor="start" x="246" y="-108" font-family="Helvetica,sans-Serif" font-size="10.00">WithDelay</text>
<text text-anchor="start" x="191" y="-93" font-family="Helvetica,sans-Serif" font-size="10.00">&#45;</text>
<text text-anchor="start" x="200.5" y="-93" font-family="Helvetica,sans-Serif" font-size="10.00">_delay</text>
<text text-anchor="start" x="189.5" y="-78" font-family="Helvetica,sans-Serif" font-size="10.00">+</text>
<text text-anchor="start" x="200.5" y="-78" font-family="Helvetica,sans-Serif" font-size="10.00">BridgeTestMarketDataProvider</text>
<text text-anchor="start" x="200.5" y="-67" font-family="Helvetica,sans-Serif" font-size="10.00">WithDelay()</text>
<text text-anchor="start" x="189.5" y="-52" font-family="Helvetica,sans-Serif" font-size="10.00">+</text>
<text text-anchor="start" x="200.5" y="-52" font-family="Helvetica,sans-Serif" font-size="10.00">GetSpotPriceAsync()</text>
<text text-anchor="start" x="189.5" y="-37" font-family="Helvetica,sans-Serif" font-size="10.00">+</text>
<text text-anchor="start" x="200.5" y="-37" font-family="Helvetica,sans-Serif" font-size="10.00">GetHistoricalBarsAsync()</text>
<text text-anchor="start" x="189.5" y="-22" font-family="Helvetica,sans-Serif" font-size="10.00">+</text>
<text text-anchor="start" x="200.5" y="-22" font-family="Helvetica,sans-Serif" font-size="10.00">GetOptionChainAsync()</text>
<text text-anchor="start" x="189.5" y="-7" font-family="Helvetica,sans-Serif" font-size="10.00">+</text>
<text text-anchor="start" x="200.5" y="-7" font-family="Helvetica,sans-Serif" font-size="10.00">GetAverageVolume30DayAsync()</text>
<polygon fill="#666666" stroke="#666666" points="185.5,-103 185.5,-103 352.5,-103 352.5,-103 185.5,-103"/>
<polygon fill="#666666" stroke="#666666" points="185.5,-88 185.5,-88 198.5,-88 198.5,-88 185.5,-88"/>
<polygon fill="#666666" stroke="#666666" points="198.5,-88 198.5,-88 352.5,-88 352.5,-88 198.5,-88"/>
<polygon fill="none" stroke="#666666" points="185,0 185,-142 352,-142 352,0 185,0"/>
</a>
</g>
</g>
<!-- Node3&#45;&gt;Node4 -->
<g id="edge3_Node000003_Node000004" class="edge">
<title>Node3&#45;&gt;Node4</title>
<g id="a_edge3_Node000003_Node000004"><a xlink:title=" ">
<path fill="none" stroke="#63b8ff" d="M268.5,-233.12C268.5,-204.85 268.5,-171.22 268.5,-142.02"/>
<polygon fill="none" stroke="#63b8ff" points="265,-233.28 268.5,-243.28 272,-233.28 265,-233.28"/>
</a>
</g>
</g>
</g>
</svg>

<g id="navigator" transform="translate(0 0)" fill="#404254">
  <rect fill="#f2f5e9" fill-opacity="0.5" stroke="#606060" stroke-width=".5" x="0" y="0" width="60" height="60"/>
  <use id="zoomplus" xlink:href="#zoomPlus" x="17" y="9" onmousedown="handleZoom(evt,'in')"/>
  <use id="zoomminus" xlink:href="#zoomMin" x="42" y="9" onmousedown="handleZoom(evt,'out')"/>
  <use id="reset" xlink:href="#resetDef" x="30" y="36" onmousedown="handleReset()"/>
   <use id="arrowup" xlink:href="#arrowUp" x="0" y="0" onmousedown="handlePan(0,-1)"/>
  <use id="arrowright" xlink:href="#arrowRight" x="0" y="0" onmousedown="handlePan(1,0)"/>
  <use id="arrowdown" xlink:href="#arrowDown" x="0" y="0" onmousedown="handlePan(0,1)"/>
  <use id="arrowleft" xlink:href="#arrowLeft" x="0" y="0" onmousedown="handlePan(-1,0)"/>
</g>
<svg viewBox="0 0 15 15" width="100%" height="30px" preserveAspectRatio="xMaxYMin meet">
 <g id="arrow_out" transform="scale(0.3 0.3)">
  <a xlink:href="interfaceAlaris_1_1Infrastructure_1_1Data_1_1Provider_1_1DTpr003A__inherit__graph_org.svg" target="_base">
   <rect id="button" ry="5" rx="5" y="6" x="6" height="38" width="38"
        fill="#f2f5e9" fill-opacity="0.5" stroke="#606060" stroke-width="1.0"/>
   <path id="arrow"
     d="M 11.500037,31.436501 C 11.940474,20.09759 22.043105,11.32322 32.158766,21.979434 L 37.068811,17.246167 C 37.068811,17.246167 37.088388,32 37.088388,32 L 22.160133,31.978069 C 22.160133,31.978069 26.997745,27.140456 26.997745,27.140456 C 18.528582,18.264221 13.291696,25.230495 11.500037,31.436501 z"
     style="fill:#404040;"/>
  </a>
 </g>
</svg>

<style type='text/css'>
<![CDATA[
[data-mouse-over-selected='false'] { opacity: 0.7; }
[data-mouse-over-selected='true']  { opacity: 1.0; }
]]>
</style>
<script type="application/ecmascript"><![CDATA[
document.addEventListener('DOMContentLoaded', (event) => {
  highlightEdges();
  highlightAdjacentNodes();
});
]]></script>
</svg>
