<?xml version="1.0" encoding="UTF-8" standalone="no"?>
<!DOCTYPE svg PUBLIC "-//W3C//DTD SVG 1.1//EN"
 "http://www.w3.org/Graphics/SVG/1.1/DTD/svg11.dtd">
<!-- Generated by graphviz version 2.43.0 (0)
 -->
<!-- Title: Alaris.Infrastructure.Data.Quality.VolumeOpenInterestValidator Pages: 1 -->
<svg width="178pt" height="183pt"
 viewBox="0.00 0.00 178.00 183.00" xmlns="http://www.w3.org/2000/svg" xmlns:xlink="http://www.w3.org/1999/xlink">

<svg id="main" version="1.1" xmlns="http://www.w3.org/2000/svg" xmlns:xlink="http://www.w3.org/1999/xlink" xml:space="preserve" onload="init(evt)">
<style type="text/css"><![CDATA[
.node, .edge {opacity: 0.7;}
.node.selected, .edge.selected {opacity: 1;}
.edge:hover path { stroke: red; }
.edge:hover polygon { stroke: red; fill: red; }
]]></style>
<script type="application/ecmascript" xlink:href="../../svg.min.js"/>
<svg id="graph" class="graph">
<g id="graph0" class="graph" transform="scale(1 1) rotate(0) translate(4 179)">
<title>Alaris.Infrastructure.Data.Quality.VolumeOpenInterestValidator</title>
<!-- Node1 -->
<g id="Node000001" class="node">
<title>Node1</title>
<g id="a_Node000001"><a xlink:title="Validates volume and open interest for liquidity requirements. Component ID: DTqc003A.">
<polygon fill="#999999" stroke="transparent" points="170,-90 0,-90 0,0 170,0 170,-90"/>
<text text-anchor="start" x="5" y="-78" font-family="Helvetica,sans-Serif" font-size="10.00">Alaris.Infrastructure.Data.</text>
<text text-anchor="start" x="5" y="-67" font-family="Helvetica,sans-Serif" font-size="10.00">Quality.VolumeOpenInterestValidator</text>
<text text-anchor="start" x="8.5" y="-52" font-family="Helvetica,sans-Serif" font-size="10.00">+</text>
<text text-anchor="start" x="24" y="-52" font-family="Helvetica,sans-Serif" font-size="10.00">ComponentId</text>
<text text-anchor="start" x="10" y="-37" font-family="Helvetica,sans-Serif" font-size="10.00">&#45;</text>
<text text-anchor="start" x="24" y="-37" font-family="Helvetica,sans-Serif" font-size="10.00">_logger</text>
<text text-anchor="start" x="8.5" y="-22" font-family="Helvetica,sans-Serif" font-size="10.00">+</text>
<text text-anchor="start" x="24" y="-22" font-family="Helvetica,sans-Serif" font-size="10.00">VolumeOpenInterestValidator()</text>
<text text-anchor="start" x="8.5" y="-7" font-family="Helvetica,sans-Serif" font-size="10.00">+</text>
<text text-anchor="start" x="24" y="-7" font-family="Helvetica,sans-Serif" font-size="10.00">Validate()</text>
<polygon fill="#666666" stroke="#666666" points="0,-62 0,-62 170,-62 170,-62 0,-62"/>
<polygon fill="#666666" stroke="#666666" points="0,-32 0,-32 22,-32 22,-32 0,-32"/>
<polygon fill="#666666" stroke="#666666" points="22,-32 22,-32 170,-32 170,-32 22,-32"/>
<polygon fill="none" stroke="#666666" points="0,0 0,-90 170,-90 170,0 0,0"/>
</a>
</g>
</g>
<!-- Node2 -->
<g id="Node000002" class="node">
<title>Node2</title>
<g id="a_Node000002"><a xlink:href="../../df/d00/interfaceAlaris_1_1Infrastructure_1_1Data_1_1Quality_1_1DTqc002A.html" target="_top" xlink:title="Interface for data quality validators.">
<polygon fill="white" stroke="transparent" points="124,-175 46,-175 46,-126 124,-126 124,-175"/>
<text text-anchor="start" x="61.5" y="-162.5" font-family="Helvetica,sans-Serif" font-size="10.00">DTqc002A</text>
<text text-anchor="start" x="50" y="-147.5" font-family="Helvetica,sans-Serif" font-size="10.00">+</text>
<text text-anchor="start" x="61" y="-147.5" font-family="Helvetica,sans-Serif" font-size="10.00">ComponentId</text>
<text text-anchor="start" x="50" y="-132.5" font-family="Helvetica,sans-Serif" font-size="10.00">+</text>
<text text-anchor="start" x="61" y="-132.5" font-family="Helvetica,sans-Serif" font-size="10.00">Validate()</text>
<polygon fill="#666666" stroke="#666666" points="46,-157.5 46,-157.5 124,-157.5 124,-157.5 46,-157.5"/>
<polygon fill="#666666" stroke="#666666" points="46,-142.5 46,-142.5 59,-142.5 59,-142.5 46,-142.5"/>
<polygon fill="#666666" stroke="#666666" points="59,-142.5 59,-142.5 124,-142.5 124,-142.5 59,-142.5"/>
<polygon fill="none" stroke="#666666" points="46,-126 46,-175 124,-175 124,-126 46,-126"/>
</a>
</g>
</g>
<!-- Node2&#45;&gt;Node1 -->
<g id="edge1_Node000001_Node000002" class="edge">
<title>Node2&#45;&gt;Node1</title>
<g id="a_edge1_Node000001_Node000002"><a xlink:title=" ">
<path fill="none" stroke="#63b8ff" d="M85,-115.62C85,-107.56 85,-98.84 85,-90.39"/>
<polygon fill="none" stroke="#63b8ff" points="81.5,-115.75 85,-125.76 88.5,-115.76 81.5,-115.75"/>
</a>
</g>
</g>
</g>
</svg>
</svg>

<style type='text/css'>
<![CDATA[
[data-mouse-over-selected='false'] { opacity: 0.7; }
[data-mouse-over-selected='true']  { opacity: 1.0; }
]]>
</style>
<script type="application/ecmascript"><![CDATA[
document.addEventListener('DOMContentLoaded', (event) => {
  highlightEdges();
  highlightAdjacentNodes();
});
]]></script>
</svg>
