<?xml version="1.0" encoding="UTF-8" standalone="no"?>
<!DOCTYPE svg PUBLIC "-//W3C//DTD SVG 1.1//EN"
 "http://www.w3.org/Graphics/SVG/1.1/DTD/svg11.dtd">
<!-- Generated by graphviz version 2.43.0 (0)
 -->
<!-- Title: Alaris.Core.TermStructure.IVolatilitySurface Pages: 1 -->
<svg width="135pt" height="113pt"
 viewBox="0.00 0.00 135.00 113.00" xmlns="http://www.w3.org/2000/svg" xmlns:xlink="http://www.w3.org/1999/xlink">
<g id="graph0" class="graph" transform="scale(1 1) rotate(0) translate(4 109)">
<title>Alaris.Core.TermStructure.IVolatilitySurface</title>
<!-- Node1 -->
<g id="Node000001" class="node">
<title>Node1</title>
<g id="a_Node000001"><a xlink:title="Interface for Black volatility term structures (volatility surfaces). Replaces QuantLib BlackVolTermS...">
<polygon fill="#999999" stroke="transparent" points="127,-105 0,-105 0,0 127,0 127,-105"/>
<text text-anchor="start" x="5.5" y="-92.5" font-family="Helvetica,sans-Serif" font-size="10.00">Alaris.Core.TermStructure.</text>
<text text-anchor="start" x="26.5" y="-81.5" font-family="Helvetica,sans-Serif" font-size="10.00">IVolatilitySurface</text>
<text text-anchor="start" x="14" y="-66.5" font-family="Helvetica,sans-Serif" font-size="10.00">+</text>
<text text-anchor="start" x="34.5" y="-66.5" font-family="Helvetica,sans-Serif" font-size="10.00">ReferenceDate</text>
<text text-anchor="start" x="14" y="-51.5" font-family="Helvetica,sans-Serif" font-size="10.00">+</text>
<text text-anchor="start" x="34.5" y="-51.5" font-family="Helvetica,sans-Serif" font-size="10.00">DayCounter</text>
<text text-anchor="start" x="14" y="-36.5" font-family="Helvetica,sans-Serif" font-size="10.00">+</text>
<text text-anchor="start" x="34.5" y="-36.5" font-family="Helvetica,sans-Serif" font-size="10.00">BlackVol()</text>
<text text-anchor="start" x="14" y="-21.5" font-family="Helvetica,sans-Serif" font-size="10.00">+</text>
<text text-anchor="start" x="34.5" y="-21.5" font-family="Helvetica,sans-Serif" font-size="10.00">BlackVariance()</text>
<text text-anchor="start" x="14" y="-6.5" font-family="Helvetica,sans-Serif" font-size="10.00">+</text>
<text text-anchor="start" x="34.5" y="-6.5" font-family="Helvetica,sans-Serif" font-size="10.00">BlackVol()</text>
<polygon fill="#666666" stroke="#666666" points="0.5,-76.5 0.5,-76.5 127.5,-76.5 127.5,-76.5 0.5,-76.5"/>
<polygon fill="#666666" stroke="#666666" points="0.5,-46.5 0.5,-46.5 32.5,-46.5 32.5,-46.5 0.5,-46.5"/>
<polygon fill="#666666" stroke="#666666" points="32.5,-46.5 32.5,-46.5 127.5,-46.5 127.5,-46.5 32.5,-46.5"/>
<polygon fill="none" stroke="#666666" points="0,0 0,-105 127,-105 127,0 0,0"/>
</a>
</g>
</g>
</g>
</svg>
