<?xml version="1.0" encoding="UTF-8" standalone="no"?>
<!DOCTYPE svg PUBLIC "-//W3C//DTD SVG 1.1//EN"
 "http://www.w3.org/Graphics/SVG/1.1/DTD/svg11.dtd">
<!-- Generated by graphviz version 2.43.0 (0)
 -->
<!-- Title: Alaris.Strategy.Risk.STMG001A Pages: 1 -->
<svg width="190pt" height="359pt"
 viewBox="0.00 0.00 190.00 359.00" xmlns="http://www.w3.org/2000/svg" xmlns:xlink="http://www.w3.org/1999/xlink">

<svg id="main" version="1.1" xmlns="http://www.w3.org/2000/svg" xmlns:xlink="http://www.w3.org/1999/xlink" xml:space="preserve" onload="init(evt)">
<style type="text/css"><![CDATA[
.node, .edge {opacity: 0.7;}
.node.selected, .edge.selected {opacity: 1;}
.edge:hover path { stroke: red; }
.edge:hover polygon { stroke: red; fill: red; }
]]></style>
<script type="application/ecmascript" xlink:href="../../svg.min.js"/>
<svg id="graph" class="graph">
<g id="graph0" class="graph" transform="scale(1 1) rotate(0) translate(4 355)">
<title>Alaris.Strategy.Risk.STMG001A</title>
<!-- Node1 -->
<g id="Node000001" class="node">
<title>Node1</title>
<g id="a_Node000001"><a xlink:title="Provides maturity&#45;based position filtering to avoid near&#45;expiry regime.">
<polygon fill="#999999" stroke="transparent" points="182,-214 0,-214 0,0 182,0 182,-214"/>
<text text-anchor="start" x="20.5" y="-202" font-family="Helvetica,sans-Serif" font-size="10.00">Alaris.Strategy.Risk.STMG001A</text>
<text text-anchor="start" x="4" y="-187" font-family="Helvetica,sans-Serif" font-size="10.00">+</text>
<text text-anchor="start" x="15" y="-187" font-family="Helvetica,sans-Serif" font-size="10.00">DefaultMinEntryMaturity</text>
<text text-anchor="start" x="4" y="-172" font-family="Helvetica,sans-Serif" font-size="10.00">+</text>
<text text-anchor="start" x="15" y="-172" font-family="Helvetica,sans-Serif" font-size="10.00">DefaultForceExitMaturity</text>
<text text-anchor="start" x="4" y="-157" font-family="Helvetica,sans-Serif" font-size="10.00">+</text>
<text text-anchor="start" x="15" y="-157" font-family="Helvetica,sans-Serif" font-size="10.00">NearExpiryThreshold</text>
<text text-anchor="start" x="5.5" y="-142" font-family="Helvetica,sans-Serif" font-size="10.00">&#45;</text>
<text text-anchor="start" x="15" y="-142" font-family="Helvetica,sans-Serif" font-size="10.00">_minEntryMaturity</text>
<text text-anchor="start" x="5.5" y="-127" font-family="Helvetica,sans-Serif" font-size="10.00">&#45;</text>
<text text-anchor="start" x="15" y="-127" font-family="Helvetica,sans-Serif" font-size="10.00">_forceExitMaturity</text>
<text text-anchor="start" x="5.5" y="-112" font-family="Helvetica,sans-Serif" font-size="10.00">&#45;</text>
<text text-anchor="start" x="15" y="-112" font-family="Helvetica,sans-Serif" font-size="10.00">_logger</text>
<text text-anchor="start" x="4" y="-97" font-family="Helvetica,sans-Serif" font-size="10.00">+</text>
<text text-anchor="start" x="15" y="-97" font-family="Helvetica,sans-Serif" font-size="10.00">STMG001A()</text>
<text text-anchor="start" x="4" y="-82" font-family="Helvetica,sans-Serif" font-size="10.00">+</text>
<text text-anchor="start" x="15" y="-82" font-family="Helvetica,sans-Serif" font-size="10.00">STMG001A()</text>
<text text-anchor="start" x="4" y="-67" font-family="Helvetica,sans-Serif" font-size="10.00">+</text>
<text text-anchor="start" x="15" y="-67" font-family="Helvetica,sans-Serif" font-size="10.00">EvaluateEntry()</text>
<text text-anchor="start" x="4" y="-52" font-family="Helvetica,sans-Serif" font-size="10.00">+</text>
<text text-anchor="start" x="15" y="-52" font-family="Helvetica,sans-Serif" font-size="10.00">EvaluateExit()</text>
<text text-anchor="start" x="4" y="-37" font-family="Helvetica,sans-Serif" font-size="10.00">+</text>
<text text-anchor="start" x="15" y="-37" font-family="Helvetica,sans-Serif" font-size="10.00">CalculateTimeToExpiry()</text>
<text text-anchor="start" x="4" y="-22" font-family="Helvetica,sans-Serif" font-size="10.00">+</text>
<text text-anchor="start" x="15" y="-22" font-family="Helvetica,sans-Serif" font-size="10.00">CalculateTimeToExpiryApproximate()</text>
<text text-anchor="start" x="5.5" y="-7" font-family="Helvetica,sans-Serif" font-size="10.00">&#45;</text>
<text text-anchor="start" x="15" y="-7" font-family="Helvetica,sans-Serif" font-size="10.00">SafeLog()</text>
<polygon fill="#666666" stroke="#666666" points="0,-197 0,-197 182,-197 182,-197 0,-197"/>
<polygon fill="#666666" stroke="#666666" points="0,-107 0,-107 13,-107 13,-107 0,-107"/>
<polygon fill="#666666" stroke="#666666" points="13,-107 13,-107 182,-107 182,-107 13,-107"/>
<polygon fill="none" stroke="#666666" points="0,0 0,-214 182,-214 182,0 0,0"/>
</a>
</g>
</g>
<!-- Node2 -->
<g id="Node000002" class="node">
<title>Node2</title>
<g id="a_Node000002"><a xlink:href="../../d4/d03/interfaceAlaris_1_1Strategy_1_1Calendar_1_1ITradingCalendar.html" target="_top" xlink:title="Interface for trading calendar operations.">
<polygon fill="white" stroke="transparent" points="162.5,-351 19.5,-351 19.5,-261 162.5,-261 162.5,-351"/>
<text text-anchor="start" x="37.5" y="-339" font-family="Helvetica,sans-Serif" font-size="10.00">Alaris.Strategy.Calendar.</text>
<text text-anchor="start" x="54" y="-328" font-family="Helvetica,sans-Serif" font-size="10.00">ITradingCalendar</text>
<text text-anchor="start" x="89.5" y="-313" font-family="Helvetica,sans-Serif" font-size="10.00"> </text>
<text text-anchor="start" x="24" y="-298" font-family="Helvetica,sans-Serif" font-size="10.00">+</text>
<text text-anchor="start" x="35" y="-298" font-family="Helvetica,sans-Serif" font-size="10.00">GetBusinessDaysBetween()</text>
<text text-anchor="start" x="24" y="-283" font-family="Helvetica,sans-Serif" font-size="10.00">+</text>
<text text-anchor="start" x="35" y="-283" font-family="Helvetica,sans-Serif" font-size="10.00">IsBusinessDay()</text>
<text text-anchor="start" x="24" y="-268" font-family="Helvetica,sans-Serif" font-size="10.00">+</text>
<text text-anchor="start" x="35" y="-268" font-family="Helvetica,sans-Serif" font-size="10.00">GetTimeToExpiryInYears()</text>
<polygon fill="#666666" stroke="#666666" points="20,-323 20,-323 163,-323 163,-323 20,-323"/>
<polygon fill="#666666" stroke="#666666" points="20,-308 20,-308 163,-308 163,-308 20,-308"/>
<polygon fill="none" stroke="#666666" points="19.5,-261 19.5,-351 162.5,-351 162.5,-261 19.5,-261"/>
</a>
</g>
</g>
<!-- Node2&#45;&gt;Node1 -->
<g id="edge1_Node000001_Node000002" class="edge">
<title>Node2&#45;&gt;Node1</title>
<g id="a_edge1_Node000001_Node000002"><a xlink:title=" ">
<path fill="none" stroke="#63b8ff" d="M91,-260.79C91,-250.24 91,-238.48 91,-226.3"/>
<polygon fill="none" stroke="#63b8ff" points="91,-226.01 87,-220.01 91,-214.01 95,-220.01 91,-226.01"/>
</a>
</g>
<text text-anchor="middle" x="115.5" y="-235" font-family="Helvetica,sans-Serif" font-size="10.00" fill="grey"> &#45;_calendar</text>
</g>
</g>
</svg>
</svg>

<style type='text/css'>
<![CDATA[
[data-mouse-over-selected='false'] { opacity: 0.7; }
[data-mouse-over-selected='true']  { opacity: 1.0; }
]]>
</style>
<script type="application/ecmascript"><![CDATA[
document.addEventListener('DOMContentLoaded', (event) => {
  highlightEdges();
  highlightAdjacentNodes();
});
]]></script>
</svg>
