<?xml version="1.0" encoding="UTF-8" standalone="no"?>
<!DOCTYPE svg PUBLIC "-//W3C//DTD SVG 1.1//EN"
 "http://www.w3.org/Graphics/SVG/1.1/DTD/svg11.dtd">
<!-- Generated by graphviz version 2.43.0 (0)
 -->
<!-- Title: Alaris.Host.Application.Cli.Dashboard.CLdb001A Pages: 1 -->
<!--zoomable 486 -->

<svg id="main" version="1.1" xmlns="http://www.w3.org/2000/svg" xmlns:xlink="http://www.w3.org/1999/xlink" xml:space="preserve" onload="init(evt)">
<style type="text/css"><![CDATA[
.node, .edge {opacity: 0.7;}
.node.selected, .edge.selected {opacity: 1;}
.edge:hover path { stroke: red; }
.edge:hover polygon { stroke: red; fill: red; }
]]></style>

<defs>
  <circle id="rim" cx="0" cy="0" r="7"/>
  <circle id="rim2" cx="0" cy="0" r="3.5"/>
  <g id="zoomPlus">
    <use xlink:href="#rim" fill="#404040"><set attributeName="fill" to="#808080" begin="zoomplus.mouseover" end="zoomplus.mouseout"/></use>
    <path d="M-4,0h8M0,-4v8" fill="none" stroke="white" stroke-width="1.5" pointer-events="none"/>
  </g>
  <g id="zoomMin">
    <use xlink:href="#rim" fill="#404040"><set attributeName="fill" to="#808080" begin="zoomminus.mouseover" end="zoomminus.mouseout"/></use>
    <path d="M-4,0h8" fill="none" stroke="white" stroke-width="1.5" pointer-events="none"/>
  </g>
  <g id="arrowUp" transform="translate(30 24)">
    <use xlink:href="#rim"/>
    <path pointer-events="none" fill="none" stroke="white" stroke-width="1.5" d="M0,-3.0v7 M-2.5,-0.5L0,-3.0L2.5,-0.5"/>
  </g>
  <g id="arrowRight" transform="rotate(90) translate(36 -43)">
    <use xlink:href="#rim"/>
    <path pointer-events="none" fill="none" stroke="white" stroke-width="1.5" d="M0,-3.0v7 M-2.5,-0.5L0,-3.0L2.5,-0.5"/>
  </g>
  <g id="arrowDown" transform="rotate(180) translate(-30 -48)">
    <use xlink:href="#rim"/>
    <path pointer-events="none" fill="none" stroke="white" stroke-width="1.5" d="M0,-3.0v7 M-2.5,-0.5L0,-3.0L2.5,-0.5"/>
  </g>
  <g id="arrowLeft" transform="rotate(270) translate(-36 17)">
    <use xlink:href="#rim"/>
    <path pointer-events="none" fill="none" stroke="white" stroke-width="1.5" d="M0,-3.0v7 M-2.5,-0.5L0,-3.0L2.5,-0.5"/>
  </g>
  <g id="resetDef">
    <use xlink:href="#rim2" fill="#404040"><set attributeName="fill" to="#808080" begin="reset.mouseover" end="reset.mouseout"/></use>
  </g>
</defs>
<script type="application/ecmascript">
var viewWidth = 340;
var viewHeight = 486;
var sectionId = 'dynsection-1';
</script>
<script type="application/ecmascript" xlink:href="../../svg.min.js"/>
<svg id="graph" class="graph">
<g id="viewport">
<title>Alaris.Host.Application.Cli.Dashboard.CLdb001A</title>
<!-- Node1 -->
<g id="Node000001" class="node">
<title>Node1</title>
<g id="a_Node000001"><a xlink:title="Renders a live dashboard for algorithm monitoring. Uses Spectre.Console Live display for smooth updat...">
<polygon fill="#999999" stroke="transparent" points="198,-240 76,-240 76,0 198,0 198,-240"/>
<text text-anchor="start" x="81" y="-228" font-family="Helvetica,sans-Serif" font-size="10.00">Alaris.Host.Application.</text>
<text text-anchor="start" x="81" y="-217" font-family="Helvetica,sans-Serif" font-size="10.00">Cli.Dashboard.CLdb001A</text>
<text text-anchor="start" x="85.5" y="-202" font-family="Helvetica,sans-Serif" font-size="10.00">&#45;</text>
<text text-anchor="start" x="99" y="-202" font-family="Helvetica,sans-Serif" font-size="10.00">_equityHistory</text>
<text text-anchor="start" x="85.5" y="-187" font-family="Helvetica,sans-Serif" font-size="10.00">&#45;</text>
<text text-anchor="start" x="99" y="-187" font-family="Helvetica,sans-Serif" font-size="10.00">_trades</text>
<text text-anchor="start" x="85.5" y="-172" font-family="Helvetica,sans-Serif" font-size="10.00">&#45;</text>
<text text-anchor="start" x="99" y="-172" font-family="Helvetica,sans-Serif" font-size="10.00">_lock</text>
<text text-anchor="start" x="84" y="-157" font-family="Helvetica,sans-Serif" font-size="10.00">+</text>
<text text-anchor="start" x="99" y="-157" font-family="Helvetica,sans-Serif" font-size="10.00">CLdb001A()</text>
<text text-anchor="start" x="84" y="-142" font-family="Helvetica,sans-Serif" font-size="10.00">+</text>
<text text-anchor="start" x="99" y="-142" font-family="Helvetica,sans-Serif" font-size="10.00">RunAsync()</text>
<text text-anchor="start" x="84" y="-127" font-family="Helvetica,sans-Serif" font-size="10.00">+</text>
<text text-anchor="start" x="99" y="-127" font-family="Helvetica,sans-Serif" font-size="10.00">Dispose()</text>
<text text-anchor="start" x="85.5" y="-112" font-family="Helvetica,sans-Serif" font-size="10.00">&#45;</text>
<text text-anchor="start" x="99" y="-112" font-family="Helvetica,sans-Serif" font-size="10.00">OnEquityChanged()</text>
<text text-anchor="start" x="85.5" y="-97" font-family="Helvetica,sans-Serif" font-size="10.00">&#45;</text>
<text text-anchor="start" x="99" y="-97" font-family="Helvetica,sans-Serif" font-size="10.00">OnTradeExecuted()</text>
<text text-anchor="start" x="85.5" y="-82" font-family="Helvetica,sans-Serif" font-size="10.00">&#45;</text>
<text text-anchor="start" x="99" y="-82" font-family="Helvetica,sans-Serif" font-size="10.00">OnStatusChanged()</text>
<text text-anchor="start" x="85.5" y="-67" font-family="Helvetica,sans-Serif" font-size="10.00">&#45;</text>
<text text-anchor="start" x="99" y="-67" font-family="Helvetica,sans-Serif" font-size="10.00">BuildDashboard()</text>
<text text-anchor="start" x="85.5" y="-52" font-family="Helvetica,sans-Serif" font-size="10.00">&#45;</text>
<text text-anchor="start" x="99" y="-52" font-family="Helvetica,sans-Serif" font-size="10.00">BuildStatusBar()</text>
<text text-anchor="start" x="85.5" y="-37" font-family="Helvetica,sans-Serif" font-size="10.00">&#45;</text>
<text text-anchor="start" x="99" y="-37" font-family="Helvetica,sans-Serif" font-size="10.00">BuildEquityPanel()</text>
<text text-anchor="start" x="85.5" y="-22" font-family="Helvetica,sans-Serif" font-size="10.00">&#45;</text>
<text text-anchor="start" x="99" y="-22" font-family="Helvetica,sans-Serif" font-size="10.00">BuildMetricsPanel()</text>
<text text-anchor="start" x="85.5" y="-7" font-family="Helvetica,sans-Serif" font-size="10.00">&#45;</text>
<text text-anchor="start" x="99" y="-7" font-family="Helvetica,sans-Serif" font-size="10.00">BuildTradesPanel()</text>
<polygon fill="#666666" stroke="#666666" points="76,-212 76,-212 198,-212 198,-212 76,-212"/>
<polygon fill="#666666" stroke="#666666" points="76,-167 76,-167 97,-167 97,-167 76,-167"/>
<polygon fill="#666666" stroke="#666666" points="97,-167 97,-167 198,-167 198,-167 97,-167"/>
<polygon fill="none" stroke="#666666" points="76,0 76,-240 198,-240 198,0 76,0"/>
</a>
</g>
</g>
<!-- Node2 -->
<g id="Node000002" class="node">
<title>Node2</title>
<g id="a_Node000002"><a xlink:title=" ">
<polygon fill="white" stroke="transparent" points="62,-364 0,-364 0,-315 62,-315 62,-364"/>
<text text-anchor="start" x="5" y="-351.5" font-family="Helvetica,sans-Serif" font-size="10.00">IDisposable</text>
<text text-anchor="start" x="29" y="-336.5" font-family="Helvetica,sans-Serif" font-size="10.00"> </text>
<text text-anchor="start" x="29" y="-321.5" font-family="Helvetica,sans-Serif" font-size="10.00"> </text>
<polygon fill="#666666" stroke="#666666" points="0,-346.5 0,-346.5 62,-346.5 62,-346.5 0,-346.5"/>
<polygon fill="#666666" stroke="#666666" points="0,-331.5 0,-331.5 62,-331.5 62,-331.5 0,-331.5"/>
<polygon fill="none" stroke="#666666" points="0,-315 0,-364 62,-364 62,-315 0,-315"/>
</a>
</g>
</g>
<!-- Node2&#45;&gt;Node1 -->
<g id="edge1_Node000001_Node000002" class="edge">
<title>Node2&#45;&gt;Node1</title>
<g id="a_edge1_Node000001_Node000002"><a xlink:title=" ">
<path fill="none" stroke="#63b8ff" d="M47.11,-305.44C55.85,-287.52 67.24,-264.15 78.96,-240.1"/>
<polygon fill="none" stroke="#63b8ff" points="43.78,-304.29 42.55,-314.81 50.07,-307.35 43.78,-304.29"/>
</a>
</g>
</g>
<!-- Node3 -->
<g id="Node000003" class="node">
<title>Node3</title>
<g id="a_Node000003"><a xlink:href="../../df/d02/interfaceAlaris_1_1Host_1_1Application_1_1Cli_1_1Monitor_1_1CLmn001A.html" target="_top" xlink:title="Interface for monitoring algorithm execution (backtest or live). Provides observable streams of equit...">
<polygon fill="white" stroke="transparent" points="193.5,-384.5 80.5,-384.5 80.5,-294.5 193.5,-294.5 193.5,-384.5"/>
<text text-anchor="start" x="86" y="-372.5" font-family="Helvetica,sans-Serif" font-size="10.00">Alaris.Host.Application.</text>
<text text-anchor="start" x="88" y="-361.5" font-family="Helvetica,sans-Serif" font-size="10.00">Cli.Monitor.CLmn001A</text>
<text text-anchor="start" x="94.5" y="-346.5" font-family="Helvetica,sans-Serif" font-size="10.00">+</text>
<text text-anchor="start" x="115" y="-346.5" font-family="Helvetica,sans-Serif" font-size="10.00">IsRunning</text>
<text text-anchor="start" x="94.5" y="-331.5" font-family="Helvetica,sans-Serif" font-size="10.00">+</text>
<text text-anchor="start" x="115" y="-331.5" font-family="Helvetica,sans-Serif" font-size="10.00">Mode</text>
<text text-anchor="start" x="94.5" y="-316.5" font-family="Helvetica,sans-Serif" font-size="10.00">+</text>
<text text-anchor="start" x="115" y="-316.5" font-family="Helvetica,sans-Serif" font-size="10.00">StartAsync()</text>
<text text-anchor="start" x="94.5" y="-301.5" font-family="Helvetica,sans-Serif" font-size="10.00">+</text>
<text text-anchor="start" x="115" y="-301.5" font-family="Helvetica,sans-Serif" font-size="10.00">StopAsync()</text>
<polygon fill="#666666" stroke="#666666" points="81,-356.5 81,-356.5 194,-356.5 194,-356.5 81,-356.5"/>
<polygon fill="#666666" stroke="#666666" points="81,-326.5 81,-326.5 113,-326.5 113,-326.5 81,-326.5"/>
<polygon fill="#666666" stroke="#666666" points="113,-326.5 113,-326.5 194,-326.5 194,-326.5 113,-326.5"/>
<polygon fill="none" stroke="#666666" points="80.5,-294.5 80.5,-384.5 193.5,-384.5 193.5,-294.5 80.5,-294.5"/>
</a>
</g>
</g>
<!-- Node3&#45;&gt;Node1 -->
<g id="edge2_Node000001_Node000003" class="edge">
<title>Node3&#45;&gt;Node1</title>
<g id="a_edge2_Node000001_Node000003"><a xlink:title=" ">
<path fill="none" stroke="#63b8ff" d="M137,-294.49C137,-281.85 137,-267.38 137,-252.31"/>
<polygon fill="none" stroke="#63b8ff" points="137,-252.12 133,-246.12 137,-240.12 141,-246.12 137,-252.12"/>
</a>
</g>
<text text-anchor="middle" x="159" y="-261" font-family="Helvetica,sans-Serif" font-size="10.00" fill="grey"> &#45;_monitor</text>
</g>
<!-- Node4 -->
<g id="Node000004" class="node">
<title>Node4</title>
<g id="a_Node000004"><a xlink:href="../../df/d01/classAlaris_1_1Host_1_1Application_1_1Cli_1_1Monitor_1_1StatusUpdate.html" target="_top" xlink:title="Algorithm status update.">
<polygon fill="white" stroke="transparent" points="332,-392 212,-392 212,-287 332,-287 332,-392"/>
<text text-anchor="start" x="217" y="-379.5" font-family="Helvetica,sans-Serif" font-size="10.00">Alaris.Host.Application.</text>
<text text-anchor="start" x="217" y="-368.5" font-family="Helvetica,sans-Serif" font-size="10.00">Cli.Monitor.StatusUpdate</text>
<text text-anchor="start" x="218.5" y="-353.5" font-family="Helvetica,sans-Serif" font-size="10.00">+</text>
<text text-anchor="start" x="232" y="-353.5" font-family="Helvetica,sans-Serif" font-size="10.00">Timestamp</text>
<text text-anchor="start" x="218.5" y="-338.5" font-family="Helvetica,sans-Serif" font-size="10.00">+</text>
<text text-anchor="start" x="232" y="-338.5" font-family="Helvetica,sans-Serif" font-size="10.00">Status</text>
<text text-anchor="start" x="218.5" y="-323.5" font-family="Helvetica,sans-Serif" font-size="10.00">+</text>
<text text-anchor="start" x="232" y="-323.5" font-family="Helvetica,sans-Serif" font-size="10.00">ProgressPercent</text>
<text text-anchor="start" x="218.5" y="-308.5" font-family="Helvetica,sans-Serif" font-size="10.00">+</text>
<text text-anchor="start" x="232" y="-308.5" font-family="Helvetica,sans-Serif" font-size="10.00">EstimatedRemaining</text>
<text text-anchor="start" x="218.5" y="-293.5" font-family="Helvetica,sans-Serif" font-size="10.00">+</text>
<text text-anchor="start" x="232" y="-293.5" font-family="Helvetica,sans-Serif" font-size="10.00">StatusUpdate()</text>
<polygon fill="#666666" stroke="#666666" points="212,-363.5 212,-363.5 332,-363.5 332,-363.5 212,-363.5"/>
<polygon fill="#666666" stroke="#666666" points="212,-303.5 212,-303.5 230,-303.5 230,-303.5 212,-303.5"/>
<polygon fill="#666666" stroke="#666666" points="230,-303.5 230,-303.5 332,-303.5 332,-303.5 230,-303.5"/>
<polygon fill="none" stroke="#666666" points="212,-287 212,-392 332,-392 332,-287 212,-287"/>
</a>
</g>
</g>
<!-- Node4&#45;&gt;Node1 -->
<g id="edge3_Node000001_Node000004" class="edge">
<title>Node4&#45;&gt;Node1</title>
<g id="a_edge3_Node000001_Node000004"><a xlink:title=" ">
<path fill="none" stroke="#63b8ff" d="M240.01,-286.96C229.32,-269.73 216.97,-249.83 204.61,-229.93"/>
<polygon fill="none" stroke="#63b8ff" points="204.49,-229.73 197.92,-226.74 198.16,-219.53 204.72,-222.52 204.49,-229.73"/>
</a>
</g>
<text text-anchor="middle" x="256" y="-261" font-family="Helvetica,sans-Serif" font-size="10.00" fill="grey"> &#45;_lastStatus</text>
</g>
<!-- Node5 -->
<g id="Node000005" class="node">
<title>Node5</title>
<g id="a_Node000005"><a xlink:title=" ">
<polygon fill="white" stroke="transparent" points="300,-478 244,-478 244,-429 300,-429 300,-478"/>
<text text-anchor="start" x="249" y="-465.5" font-family="Helvetica,sans-Serif" font-size="10.00">EventArgs</text>
<text text-anchor="start" x="270" y="-450.5" font-family="Helvetica,sans-Serif" font-size="10.00"> </text>
<text text-anchor="start" x="270" y="-435.5" font-family="Helvetica,sans-Serif" font-size="10.00"> </text>
<polygon fill="#666666" stroke="#666666" points="244,-460.5 244,-460.5 300,-460.5 300,-460.5 244,-460.5"/>
<polygon fill="#666666" stroke="#666666" points="244,-445.5 244,-445.5 300,-445.5 300,-445.5 244,-445.5"/>
<polygon fill="none" stroke="#666666" points="244,-429 244,-478 300,-478 300,-429 244,-429"/>
</a>
</g>
</g>
<!-- Node5&#45;&gt;Node4 -->
<g id="edge4_Node000004_Node000005" class="edge">
<title>Node5&#45;&gt;Node4</title>
<g id="a_edge4_Node000004_Node000005"><a xlink:title=" ">
<path fill="none" stroke="#63b8ff" d="M272,-418.7C272,-410.38 272,-401.28 272,-392.33"/>
<polygon fill="none" stroke="#63b8ff" points="268.5,-418.75 272,-428.75 275.5,-418.75 268.5,-418.75"/>
</a>
</g>
</g>
</g>
</svg>

<g id="navigator" transform="translate(0 0)" fill="#404254">
  <rect fill="#f2f5e9" fill-opacity="0.5" stroke="#606060" stroke-width=".5" x="0" y="0" width="60" height="60"/>
  <use id="zoomplus" xlink:href="#zoomPlus" x="17" y="9" onmousedown="handleZoom(evt,'in')"/>
  <use id="zoomminus" xlink:href="#zoomMin" x="42" y="9" onmousedown="handleZoom(evt,'out')"/>
  <use id="reset" xlink:href="#resetDef" x="30" y="36" onmousedown="handleReset()"/>
   <use id="arrowup" xlink:href="#arrowUp" x="0" y="0" onmousedown="handlePan(0,-1)"/>
  <use id="arrowright" xlink:href="#arrowRight" x="0" y="0" onmousedown="handlePan(1,0)"/>
  <use id="arrowdown" xlink:href="#arrowDown" x="0" y="0" onmousedown="handlePan(0,1)"/>
  <use id="arrowleft" xlink:href="#arrowLeft" x="0" y="0" onmousedown="handlePan(-1,0)"/>
</g>
<svg viewBox="0 0 15 15" width="100%" height="30px" preserveAspectRatio="xMaxYMin meet">
 <g id="arrow_out" transform="scale(0.3 0.3)">
  <a xlink:href="classAlaris_1_1Host_1_1Application_1_1Cli_1_1Dashboard_1_1CLdb001A__coll__graph_org.svg" target="_base">
   <rect id="button" ry="5" rx="5" y="6" x="6" height="38" width="38"
        fill="#f2f5e9" fill-opacity="0.5" stroke="#606060" stroke-width="1.0"/>
   <path id="arrow"
     d="M 11.500037,31.436501 C 11.940474,20.09759 22.043105,11.32322 32.158766,21.979434 L 37.068811,17.246167 C 37.068811,17.246167 37.088388,32 37.088388,32 L 22.160133,31.978069 C 22.160133,31.978069 26.997745,27.140456 26.997745,27.140456 C 18.528582,18.264221 13.291696,25.230495 11.500037,31.436501 z"
     style="fill:#404040;"/>
  </a>
 </g>
</svg>

<style type='text/css'>
<![CDATA[
[data-mouse-over-selected='false'] { opacity: 0.7; }
[data-mouse-over-selected='true']  { opacity: 1.0; }
]]>
</style>
<script type="application/ecmascript"><![CDATA[
document.addEventListener('DOMContentLoaded', (event) => {
  highlightEdges();
  highlightAdjacentNodes();
});
]]></script>
</svg>
