<?xml version="1.0" encoding="UTF-8" standalone="no"?>
<!DOCTYPE svg PUBLIC "-//W3C//DTD SVG 1.1//EN"
 "http://www.w3.org/Graphics/SVG/1.1/DTD/svg11.dtd">
<!-- Generated by graphviz version 2.43.0 (0)
 -->
<!-- Title: Alaris.Core.Math.CRGQ001A.Schemes Pages: 1 -->
<svg width="141pt" height="128pt"
 viewBox="0.00 0.00 141.00 128.00" xmlns="http://www.w3.org/2000/svg" xmlns:xlink="http://www.w3.org/1999/xlink">
<g id="graph0" class="graph" transform="scale(1 1) rotate(0) translate(4 124)">
<title>Alaris.Core.Math.CRGQ001A.Schemes</title>
<!-- Node1 -->
<g id="Node000001" class="node">
<title>Node1</title>
<g id="a_Node000001"><a xlink:title="Pre&#45;computed Gauss&#45;Legendre nodes and weights for common orders.">
<polygon fill="#999999" stroke="transparent" points="133,-120 0,-120 0,0 133,0 133,-120"/>
<text text-anchor="start" x="5.5" y="-108" font-family="Helvetica,sans-Serif" font-size="10.00">Alaris.Core.Math.CRGQ001</text>
<text text-anchor="start" x="41" y="-97" font-family="Helvetica,sans-Serif" font-size="10.00">A.Schemes</text>
<text text-anchor="start" x="65" y="-82" font-family="Helvetica,sans-Serif" font-size="10.00"> </text>
<text text-anchor="start" x="22" y="-67" font-family="Helvetica,sans-Serif" font-size="10.00">+</text>
<text text-anchor="start" x="50.5" y="-67" font-family="Helvetica,sans-Serif" font-size="10.00">readonly()</text>
<text text-anchor="start" x="22" y="-52" font-family="Helvetica,sans-Serif" font-size="10.00">+</text>
<text text-anchor="start" x="50.5" y="-52" font-family="Helvetica,sans-Serif" font-size="10.00">readonly()</text>
<text text-anchor="start" x="22" y="-37" font-family="Helvetica,sans-Serif" font-size="10.00">+</text>
<text text-anchor="start" x="50.5" y="-37" font-family="Helvetica,sans-Serif" font-size="10.00">readonly()</text>
<text text-anchor="start" x="22" y="-22" font-family="Helvetica,sans-Serif" font-size="10.00">+</text>
<text text-anchor="start" x="50.5" y="-22" font-family="Helvetica,sans-Serif" font-size="10.00">readonly()</text>
<text text-anchor="start" x="22" y="-7" font-family="Helvetica,sans-Serif" font-size="10.00">+</text>
<text text-anchor="start" x="50.5" y="-7" font-family="Helvetica,sans-Serif" font-size="10.00">readonly()</text>
<polygon fill="#666666" stroke="#666666" points="0.5,-92 0.5,-92 133.5,-92 133.5,-92 0.5,-92"/>
<polygon fill="#666666" stroke="#666666" points="0.5,-77 0.5,-77 133.5,-77 133.5,-77 0.5,-77"/>
<polygon fill="none" stroke="#666666" points="0,0 0,-120 133,-120 133,0 0,0"/>
</a>
</g>
</g>
</g>
</svg>
