<?xml version="1.0" encoding="UTF-8" standalone="no"?>
<!DOCTYPE svg PUBLIC "-//W3C//DTD SVG 1.1//EN"
 "http://www.w3.org/Graphics/SVG/1.1/DTD/svg11.dtd">
<!-- Generated by graphviz version 2.43.0 (0)
 -->
<!-- Title: Alaris.Strategy.STCT001A Pages: 1 -->
<!--zoomable 969 -->

<svg id="main" version="1.1" xmlns="http://www.w3.org/2000/svg" xmlns:xlink="http://www.w3.org/1999/xlink" xml:space="preserve" onload="init(evt)">
<style type="text/css"><![CDATA[
.node, .edge {opacity: 0.7;}
.node.selected, .edge.selected {opacity: 1;}
.edge:hover path { stroke: red; }
.edge:hover polygon { stroke: red; fill: red; }
]]></style>

<defs>
  <circle id="rim" cx="0" cy="0" r="7"/>
  <circle id="rim2" cx="0" cy="0" r="3.5"/>
  <g id="zoomPlus">
    <use xlink:href="#rim" fill="#404040"><set attributeName="fill" to="#808080" begin="zoomplus.mouseover" end="zoomplus.mouseout"/></use>
    <path d="M-4,0h8M0,-4v8" fill="none" stroke="white" stroke-width="1.5" pointer-events="none"/>
  </g>
  <g id="zoomMin">
    <use xlink:href="#rim" fill="#404040"><set attributeName="fill" to="#808080" begin="zoomminus.mouseover" end="zoomminus.mouseout"/></use>
    <path d="M-4,0h8" fill="none" stroke="white" stroke-width="1.5" pointer-events="none"/>
  </g>
  <g id="arrowUp" transform="translate(30 24)">
    <use xlink:href="#rim"/>
    <path pointer-events="none" fill="none" stroke="white" stroke-width="1.5" d="M0,-3.0v7 M-2.5,-0.5L0,-3.0L2.5,-0.5"/>
  </g>
  <g id="arrowRight" transform="rotate(90) translate(36 -43)">
    <use xlink:href="#rim"/>
    <path pointer-events="none" fill="none" stroke="white" stroke-width="1.5" d="M0,-3.0v7 M-2.5,-0.5L0,-3.0L2.5,-0.5"/>
  </g>
  <g id="arrowDown" transform="rotate(180) translate(-30 -48)">
    <use xlink:href="#rim"/>
    <path pointer-events="none" fill="none" stroke="white" stroke-width="1.5" d="M0,-3.0v7 M-2.5,-0.5L0,-3.0L2.5,-0.5"/>
  </g>
  <g id="arrowLeft" transform="rotate(270) translate(-36 17)">
    <use xlink:href="#rim"/>
    <path pointer-events="none" fill="none" stroke="white" stroke-width="1.5" d="M0,-3.0v7 M-2.5,-0.5L0,-3.0L2.5,-0.5"/>
  </g>
  <g id="resetDef">
    <use xlink:href="#rim2" fill="#404040"><set attributeName="fill" to="#808080" begin="reset.mouseover" end="reset.mouseout"/></use>
  </g>
</defs>
<script type="application/ecmascript">
var viewWidth = 773;
var viewHeight = 969;
var sectionId = 'dynsection-0';
</script>
<script type="application/ecmascript" xlink:href="../../svg.min.js"/>
<svg id="graph" class="graph">
<g id="viewport">
<title>Alaris.Strategy.STCT001A</title>
<!-- Node1 -->
<g id="Node000001" class="node">
<title>Node1</title>
<g id="a_Node000001"><a xlink:title="Main control class for the earnings volatility calendar spread strategy. Orchestrates signal generati...">
<polygon fill="#999999" stroke="transparent" points="589,-184 437,-184 437,0 589,0 589,-184"/>
<text text-anchor="start" x="455.5" y="-172" font-family="Helvetica,sans-Serif" font-size="10.00">Alaris.Strategy.STCT001A</text>
<text text-anchor="start" x="442.5" y="-157" font-family="Helvetica,sans-Serif" font-size="10.00">&#45;</text>
<text text-anchor="start" x="452" y="-157" font-family="Helvetica,sans-Serif" font-size="10.00">_logger</text>
<text text-anchor="start" x="442.5" y="-142" font-family="Helvetica,sans-Serif" font-size="10.00">&#45;</text>
<text text-anchor="start" x="452" y="-142" font-family="Helvetica,sans-Serif" font-size="10.00">LogEvaluatingOpportunity</text>
<text text-anchor="start" x="442.5" y="-127" font-family="Helvetica,sans-Serif" font-size="10.00">&#45;</text>
<text text-anchor="start" x="452" y="-127" font-family="Helvetica,sans-Serif" font-size="10.00">LogSTCR004AAvoid</text>
<text text-anchor="start" x="442.5" y="-112" font-family="Helvetica,sans-Serif" font-size="10.00">&#45;</text>
<text text-anchor="start" x="452" y="-112" font-family="Helvetica,sans-Serif" font-size="10.00">LogOpportunityEvaluated</text>
<text text-anchor="start" x="442.5" y="-97" font-family="Helvetica,sans-Serif" font-size="10.00">&#45;</text>
<text text-anchor="start" x="452" y="-97" font-family="Helvetica,sans-Serif" font-size="10.00">LogErrorEvaluatingOpportunity</text>
<text text-anchor="start" x="441" y="-82" font-family="Helvetica,sans-Serif" font-size="10.00">+</text>
<text text-anchor="start" x="452" y="-82" font-family="Helvetica,sans-Serif" font-size="10.00">STCT001A()</text>
<text text-anchor="start" x="441" y="-67" font-family="Helvetica,sans-Serif" font-size="10.00">+</text>
<text text-anchor="start" x="452" y="-67" font-family="Helvetica,sans-Serif" font-size="10.00">EvaluateOpportunity()</text>
<text text-anchor="start" x="442.5" y="-52" font-family="Helvetica,sans-Serif" font-size="10.00">&#45;</text>
<text text-anchor="start" x="452" y="-52" font-family="Helvetica,sans-Serif" font-size="10.00">CreateSpreadParameters()</text>
<text text-anchor="start" x="442.5" y="-37" font-family="Helvetica,sans-Serif" font-size="10.00">&#45;</text>
<text text-anchor="start" x="452" y="-37" font-family="Helvetica,sans-Serif" font-size="10.00">FindFrontMonthExpiry()</text>
<text text-anchor="start" x="442.5" y="-22" font-family="Helvetica,sans-Serif" font-size="10.00">&#45;</text>
<text text-anchor="start" x="452" y="-22" font-family="Helvetica,sans-Serif" font-size="10.00">FindBackMonthExpiry()</text>
<text text-anchor="start" x="442.5" y="-7" font-family="Helvetica,sans-Serif" font-size="10.00">&#45;</text>
<text text-anchor="start" x="452" y="-7" font-family="Helvetica,sans-Serif" font-size="10.00">SafeLog()</text>
<polygon fill="#666666" stroke="#666666" points="437,-167 437,-167 589,-167 589,-167 437,-167"/>
<polygon fill="#666666" stroke="#666666" points="437,-92 437,-92 450,-92 450,-92 437,-92"/>
<polygon fill="#666666" stroke="#666666" points="450,-92 450,-92 589,-92 589,-92 450,-92"/>
<polygon fill="none" stroke="#666666" points="437,0 437,-184 589,-184 589,0 437,0"/>
</a>
</g>
</g>
<!-- Node2 -->
<g id="Node000002" class="node">
<title>Node2</title>
<g id="a_Node000002"><a xlink:href="../../dd/d01/classAlaris_1_1Strategy_1_1Core_1_1STCR001A.html" target="_top" xlink:title="Generates trading signals for earnings calendar spread opportunities. Implements the strategy from At...">
<polygon fill="white" stroke="transparent" points="416.5,-640 253.5,-640 253.5,-231 416.5,-231 416.5,-640"/>
<text text-anchor="start" x="265" y="-627.5" font-family="Helvetica,sans-Serif" font-size="10.00">Alaris.Strategy.Core.STCR001A</text>
<text text-anchor="start" x="259.5" y="-612.5" font-family="Helvetica,sans-Serif" font-size="10.00">&#45;</text>
<text text-anchor="start" x="269" y="-612.5" font-family="Helvetica,sans-Serif" font-size="10.00">_logger</text>
<text text-anchor="start" x="259.5" y="-597.5" font-family="Helvetica,sans-Serif" font-size="10.00">&#45;</text>
<text text-anchor="start" x="269" y="-597.5" font-family="Helvetica,sans-Serif" font-size="10.00">priceHistory</text>
<text text-anchor="start" x="259.5" y="-582.5" font-family="Helvetica,sans-Serif" font-size="10.00">&#45;</text>
<text text-anchor="start" x="269" y="-582.5" font-family="Helvetica,sans-Serif" font-size="10.00">LogGeneratingSTCR004A</text>
<text text-anchor="start" x="259.5" y="-567.5" font-family="Helvetica,sans-Serif" font-size="10.00">&#45;</text>
<text text-anchor="start" x="269" y="-567.5" font-family="Helvetica,sans-Serif" font-size="10.00">LogInsufficientPriceHistory</text>
<text text-anchor="start" x="259.5" y="-552.5" font-family="Helvetica,sans-Serif" font-size="10.00">&#45;</text>
<text text-anchor="start" x="269" y="-552.5" font-family="Helvetica,sans-Serif" font-size="10.00">LogNoOptionData</text>
<text text-anchor="start" x="259.5" y="-537.5" font-family="Helvetica,sans-Serif" font-size="10.00">&#45;</text>
<text text-anchor="start" x="269" y="-537.5" font-family="Helvetica,sans-Serif" font-size="10.00">LogInsufficientSTTM001A</text>
<text text-anchor="start" x="259.5" y="-522.5" font-family="Helvetica,sans-Serif" font-size="10.00">&#45;</text>
<text text-anchor="start" x="269" y="-522.5" font-family="Helvetica,sans-Serif" font-size="10.00">LogSTCR004AGenerated</text>
<text text-anchor="start" x="259.5" y="-507.5" font-family="Helvetica,sans-Serif" font-size="10.00">&#45;</text>
<text text-anchor="start" x="269" y="-507.5" font-family="Helvetica,sans-Serif" font-size="10.00">LogErrorGeneratingSTCR004A</text>
<text text-anchor="start" x="259.5" y="-492.5" font-family="Helvetica,sans-Serif" font-size="10.00">&#45;</text>
<text text-anchor="start" x="269" y="-492.5" font-family="Helvetica,sans-Serif" font-size="10.00">LogLeungSantoliMetrics</text>
<text text-anchor="start" x="259.5" y="-477.5" font-family="Helvetica,sans-Serif" font-size="10.00">&#45;</text>
<text text-anchor="start" x="269" y="-477.5" font-family="Helvetica,sans-Serif" font-size="10.00">MinIvRvRatio</text>
<text text-anchor="start" x="259.5" y="-462.5" font-family="Helvetica,sans-Serif" font-size="10.00">&#45;</text>
<text text-anchor="start" x="269" y="-462.5" font-family="Helvetica,sans-Serif" font-size="10.00">MaxTermSlope</text>
<text text-anchor="start" x="259.5" y="-447.5" font-family="Helvetica,sans-Serif" font-size="10.00">&#45;</text>
<text text-anchor="start" x="269" y="-447.5" font-family="Helvetica,sans-Serif" font-size="10.00">MinAverageVolume</text>
<text text-anchor="start" x="258" y="-432.5" font-family="Helvetica,sans-Serif" font-size="10.00">+</text>
<text text-anchor="start" x="269" y="-432.5" font-family="Helvetica,sans-Serif" font-size="10.00">STCR001A()</text>
<text text-anchor="start" x="258" y="-417.5" font-family="Helvetica,sans-Serif" font-size="10.00">+</text>
<text text-anchor="start" x="269" y="-417.5" font-family="Helvetica,sans-Serif" font-size="10.00">Generate()</text>
<text text-anchor="start" x="258" y="-402.5" font-family="Helvetica,sans-Serif" font-size="10.00">+</text>
<text text-anchor="start" x="269" y="-402.5" font-family="Helvetica,sans-Serif" font-size="10.00">Generate()</text>
<text text-anchor="start" x="259.5" y="-387.5" font-family="Helvetica,sans-Serif" font-size="10.00">&#45;</text>
<text text-anchor="start" x="269" y="-387.5" font-family="Helvetica,sans-Serif" font-size="10.00">FetchMarketData()</text>
<text text-anchor="start" x="259.5" y="-372.5" font-family="Helvetica,sans-Serif" font-size="10.00">&#45;</text>
<text text-anchor="start" x="269" y="-372.5" font-family="Helvetica,sans-Serif" font-size="10.00">CalculateSTCR004AMetrics()</text>
<text text-anchor="start" x="259.5" y="-357.5" font-family="Helvetica,sans-Serif" font-size="10.00">&#45;</text>
<text text-anchor="start" x="269" y="-357.5" font-family="Helvetica,sans-Serif" font-size="10.00">CalculateLeungSantoliMetrics()</text>
<text text-anchor="start" x="259.5" y="-342.5" font-family="Helvetica,sans-Serif" font-size="10.00">&#45;</text>
<text text-anchor="start" x="269" y="-342.5" font-family="Helvetica,sans-Serif" font-size="10.00">TryCalibrateFromHistory()</text>
<text text-anchor="start" x="259.5" y="-327.5" font-family="Helvetica,sans-Serif" font-size="10.00">&#45;</text>
<text text-anchor="start" x="269" y="-327.5" font-family="Helvetica,sans-Serif" font-size="10.00">TryCalibrateFromTermStructure()</text>
<text text-anchor="start" x="259.5" y="-312.5" font-family="Helvetica,sans-Serif" font-size="10.00">&#45;</text>
<text text-anchor="start" x="269" y="-312.5" font-family="Helvetica,sans-Serif" font-size="10.00">ExtractSTTM001APoints()</text>
<text text-anchor="start" x="259.5" y="-297.5" font-family="Helvetica,sans-Serif" font-size="10.00">&#45;</text>
<text text-anchor="start" x="269" y="-297.5" font-family="Helvetica,sans-Serif" font-size="10.00">CalculateExpectedMove()</text>
<text text-anchor="start" x="259.5" y="-282.5" font-family="Helvetica,sans-Serif" font-size="10.00">&#45;</text>
<text text-anchor="start" x="269" y="-282.5" font-family="Helvetica,sans-Serif" font-size="10.00">CalculateVolatilitySpread()</text>
<text text-anchor="start" x="259.5" y="-267.5" font-family="Helvetica,sans-Serif" font-size="10.00">&#45;</text>
<text text-anchor="start" x="269" y="-267.5" font-family="Helvetica,sans-Serif" font-size="10.00">SafeLog()</text>
<text text-anchor="start" x="259.5" y="-252.5" font-family="Helvetica,sans-Serif" font-size="10.00">&#45;</text>
<text text-anchor="start" x="269" y="-252.5" font-family="Helvetica,sans-Serif" font-size="10.00">ComputeTheoreticalMetrics()</text>
<text text-anchor="start" x="259.5" y="-237.5" font-family="Helvetica,sans-Serif" font-size="10.00">&#45;</text>
<text text-anchor="start" x="269" y="-237.5" font-family="Helvetica,sans-Serif" font-size="10.00">HasValidIVData()</text>
<polygon fill="#666666" stroke="#666666" points="254,-622.5 254,-622.5 417,-622.5 417,-622.5 254,-622.5"/>
<polygon fill="#666666" stroke="#666666" points="254,-442.5 254,-442.5 267,-442.5 267,-442.5 254,-442.5"/>
<polygon fill="#666666" stroke="#666666" points="267,-442.5 267,-442.5 417,-442.5 417,-442.5 267,-442.5"/>
<polygon fill="none" stroke="#666666" points="253.5,-231 253.5,-640 416.5,-640 416.5,-231 253.5,-231"/>
</a>
</g>
</g>
<!-- Node2&#45;&gt;Node1 -->
<g id="edge1_Node000001_Node000002" class="edge">
<title>Node2&#45;&gt;Node1</title>
<g id="a_edge1_Node000001_Node000002"><a xlink:title=" ">
<path fill="none" stroke="#63b8ff" d="M413.42,-230.99C418.44,-221.06 423.64,-211.35 429,-202 430.43,-199.51 431.91,-197.01 433.43,-194.51"/>
<polygon fill="none" stroke="#63b8ff" points="433.5,-194.4 433.33,-187.19 439.91,-184.25 440.09,-191.46 433.5,-194.4"/>
</a>
</g>
<text text-anchor="middle" x="469" y="-205" font-family="Helvetica,sans-Serif" font-size="10.00" fill="grey"> &#45;_signalGenerator</text>
</g>
<!-- Node3 -->
<g id="Node000003" class="node">
<title>Node3</title>
<g id="a_Node000003"><a xlink:href="../../d0/d02/interfaceAlaris_1_1Strategy_1_1Bridge_1_1STDT001A.html" target="_top" xlink:title="Interface for accessing market data including option chains and historical prices....">
<polygon fill="white" stroke="transparent" points="156,-886 0,-886 0,-762 156,-762 156,-886"/>
<text text-anchor="start" x="5" y="-874" font-family="Helvetica,sans-Serif" font-size="10.00">Alaris.Strategy.Bridge.STDT001A</text>
<text text-anchor="start" x="76" y="-859" font-family="Helvetica,sans-Serif" font-size="10.00"> </text>
<text text-anchor="start" x="6" y="-844" font-family="Helvetica,sans-Serif" font-size="10.00">+</text>
<text text-anchor="start" x="19" y="-844" font-family="Helvetica,sans-Serif" font-size="10.00">GetSTDT002A()</text>
<text text-anchor="start" x="6" y="-829" font-family="Helvetica,sans-Serif" font-size="10.00">+</text>
<text text-anchor="start" x="19" y="-829" font-family="Helvetica,sans-Serif" font-size="10.00">GetHistoricalPrices()</text>
<text text-anchor="start" x="6" y="-814" font-family="Helvetica,sans-Serif" font-size="10.00">+</text>
<text text-anchor="start" x="19" y="-814" font-family="Helvetica,sans-Serif" font-size="10.00">GetCurrentPrice()</text>
<text text-anchor="start" x="6" y="-799" font-family="Helvetica,sans-Serif" font-size="10.00">+</text>
<text text-anchor="start" x="19" y="-799" font-family="Helvetica,sans-Serif" font-size="10.00">GetEarningsDates()</text>
<text text-anchor="start" x="6" y="-784" font-family="Helvetica,sans-Serif" font-size="10.00">+</text>
<text text-anchor="start" x="19" y="-784" font-family="Helvetica,sans-Serif" font-size="10.00">GetHistoricalEarningsDates()</text>
<text text-anchor="start" x="6" y="-769" font-family="Helvetica,sans-Serif" font-size="10.00">+</text>
<text text-anchor="start" x="19" y="-769" font-family="Helvetica,sans-Serif" font-size="10.00">IsDataAvailable()</text>
<polygon fill="#666666" stroke="#666666" points="0,-869 0,-869 156,-869 156,-869 0,-869"/>
<polygon fill="#666666" stroke="#666666" points="0,-854 0,-854 156,-854 156,-854 0,-854"/>
<polygon fill="none" stroke="#666666" points="0,-762 0,-886 156,-886 156,-762 0,-762"/>
</a>
</g>
</g>
<!-- Node3&#45;&gt;Node2 -->
<g id="edge2_Node000002_Node000003" class="edge">
<title>Node3&#45;&gt;Node2</title>
<g id="a_edge2_Node000002_Node000003"><a xlink:title=" ">
<path fill="none" stroke="#63b8ff" d="M116.63,-761.84C131.59,-738.35 148.96,-711.34 165,-687 191.15,-647.32 220.04,-604.42 246.46,-565.52"/>
<polygon fill="none" stroke="#63b8ff" points="246.74,-565.12 246.8,-557.91 253.48,-555.2 253.42,-562.41 246.74,-565.12"/>
</a>
</g>
<text text-anchor="middle" x="215.5" y="-661" font-family="Helvetica,sans-Serif" font-size="10.00" fill="grey"> &#45;_marketData</text>
</g>
<!-- Node4 -->
<g id="Node000004" class="node">
<title>Node4</title>
<g id="a_Node000004"><a xlink:href="../../d7/d02/classAlaris_1_1Strategy_1_1Core_1_1STCR003A.html" target="_top" xlink:title="Implements the Yang&#45;Zhang (2000) realized volatility estimator. This estimator is an efficient method...">
<polygon fill="white" stroke="transparent" points="325.5,-891.5 174.5,-891.5 174.5,-756.5 325.5,-756.5 325.5,-891.5"/>
<text text-anchor="start" x="180" y="-879" font-family="Helvetica,sans-Serif" font-size="10.00">Alaris.Strategy.Core.STCR003A</text>
<text text-anchor="start" x="180.5" y="-864" font-family="Helvetica,sans-Serif" font-size="10.00">&#45;</text>
<text text-anchor="start" x="190" y="-864" font-family="Helvetica,sans-Serif" font-size="10.00">TradingDaysPerYear</text>
<text text-anchor="start" x="179" y="-849" font-family="Helvetica,sans-Serif" font-size="10.00">+</text>
<text text-anchor="start" x="190" y="-849" font-family="Helvetica,sans-Serif" font-size="10.00">Calculate()</text>
<text text-anchor="start" x="179" y="-834" font-family="Helvetica,sans-Serif" font-size="10.00">+</text>
<text text-anchor="start" x="190" y="-834" font-family="Helvetica,sans-Serif" font-size="10.00">CalculateRolling()</text>
<text text-anchor="start" x="180.5" y="-819" font-family="Helvetica,sans-Serif" font-size="10.00">&#45;</text>
<text text-anchor="start" x="190" y="-819" font-family="Helvetica,sans-Serif" font-size="10.00">CalculateLogReturnsInPlace()</text>
<text text-anchor="start" x="180.5" y="-804" font-family="Helvetica,sans-Serif" font-size="10.00">&#45;</text>
<text text-anchor="start" x="190" y="-804" font-family="Helvetica,sans-Serif" font-size="10.00">CalculateSTCR003AVariance</text>
<text text-anchor="start" x="190" y="-793" font-family="Helvetica,sans-Serif" font-size="10.00">FromSpan()</text>
<text text-anchor="start" x="180.5" y="-778" font-family="Helvetica,sans-Serif" font-size="10.00">&#45;</text>
<text text-anchor="start" x="190" y="-778" font-family="Helvetica,sans-Serif" font-size="10.00">VarianceFromSpan()</text>
<text text-anchor="start" x="180.5" y="-763" font-family="Helvetica,sans-Serif" font-size="10.00">&#45;</text>
<text text-anchor="start" x="190" y="-763" font-family="Helvetica,sans-Serif" font-size="10.00">AverageFromSpan()</text>
<polygon fill="#666666" stroke="#666666" points="175,-874 175,-874 326,-874 326,-874 175,-874"/>
<polygon fill="#666666" stroke="#666666" points="175,-859 175,-859 188,-859 188,-859 175,-859"/>
<polygon fill="#666666" stroke="#666666" points="188,-859 188,-859 326,-859 326,-859 188,-859"/>
<polygon fill="none" stroke="#666666" points="174.5,-756.5 174.5,-891.5 325.5,-891.5 325.5,-756.5 174.5,-756.5"/>
</a>
</g>
</g>
<!-- Node4&#45;&gt;Node2 -->
<g id="edge3_Node000002_Node000004" class="edge">
<title>Node4&#45;&gt;Node2</title>
<g id="a_edge3_Node000002_Node000004"><a xlink:title=" ">
<path fill="none" stroke="#63b8ff" d="M264.71,-756.12C271.23,-726.45 279.31,-689.72 287.64,-651.83"/>
<polygon fill="none" stroke="#63b8ff" points="287.66,-651.76 285.04,-645.04 290.24,-640.04 292.85,-646.76 287.66,-651.76"/>
</a>
</g>
<text text-anchor="middle" x="315" y="-661" font-family="Helvetica,sans-Serif" font-size="10.00" fill="grey"> &#45;_yangZhang</text>
</g>
<!-- Node5 -->
<g id="Node000005" class="node">
<title>Node5</title>
<g id="a_Node000005"><a xlink:href="../../df/d01/classAlaris_1_1Strategy_1_1Core_1_1STTM001A.html" target="_top" xlink:title="Analyzes the term structure of implied volatility. Used to identify inverted term structures that sig...">
<polygon fill="white" stroke="transparent" points="498.5,-856 343.5,-856 343.5,-792 498.5,-792 498.5,-856"/>
<text text-anchor="start" x="351.5" y="-844" font-family="Helvetica,sans-Serif" font-size="10.00">Alaris.Strategy.Core.STTM001A</text>
<text text-anchor="start" x="419.5" y="-829" font-family="Helvetica,sans-Serif" font-size="10.00"> </text>
<text text-anchor="start" x="348" y="-814" font-family="Helvetica,sans-Serif" font-size="10.00">+</text>
<text text-anchor="start" x="359" y="-814" font-family="Helvetica,sans-Serif" font-size="10.00">Analyze()</text>
<text text-anchor="start" x="349.5" y="-799" font-family="Helvetica,sans-Serif" font-size="10.00">&#45;</text>
<text text-anchor="start" x="359" y="-799" font-family="Helvetica,sans-Serif" font-size="10.00">CalculateRSquaredOptimized()</text>
<polygon fill="#666666" stroke="#666666" points="344,-839 344,-839 499,-839 499,-839 344,-839"/>
<polygon fill="#666666" stroke="#666666" points="344,-824 344,-824 499,-824 499,-824 344,-824"/>
<polygon fill="none" stroke="#666666" points="343.5,-792 343.5,-856 498.5,-856 498.5,-792 343.5,-792"/>
</a>
</g>
</g>
<!-- Node5&#45;&gt;Node2 -->
<g id="edge4_Node000002_Node000005" class="edge">
<title>Node5&#45;&gt;Node2</title>
<g id="a_edge4_Node000002_Node000005"><a xlink:title=" ">
<path fill="none" stroke="#63b8ff" d="M414.04,-791.7C406.92,-759.74 395.22,-707.12 382.96,-652.06"/>
<polygon fill="none" stroke="#63b8ff" points="382.95,-651.99 377.74,-647 380.34,-640.28 385.55,-645.26 382.95,-651.99"/>
</a>
</g>
<text text-anchor="middle" x="421" y="-661" font-family="Helvetica,sans-Serif" font-size="10.00" fill="grey"> &#45;_termAnalyzer</text>
</g>
<!-- Node6 -->
<g id="Node000006" class="node">
<title>Node6</title>
<g id="a_Node000006"><a xlink:href="../../dd/d02/classAlaris_1_1Strategy_1_1Core_1_1STIV005A.html" target="_top" xlink:title="Calibrates earnings jump volatility (sigma_e) from historical earnings announcement data....">
<polygon fill="white" stroke="transparent" points="663,-961 517,-961 517,-687 663,-687 663,-961"/>
<text text-anchor="start" x="522" y="-949" font-family="Helvetica,sans-Serif" font-size="10.00">Alaris.Strategy.Core.STIV005A</text>
<text text-anchor="start" x="526" y="-934" font-family="Helvetica,sans-Serif" font-size="10.00">&#45;</text>
<text text-anchor="start" x="539" y="-934" font-family="Helvetica,sans-Serif" font-size="10.00">_logger</text>
<text text-anchor="start" x="526" y="-919" font-family="Helvetica,sans-Serif" font-size="10.00">&#45;</text>
<text text-anchor="start" x="539" y="-919" font-family="Helvetica,sans-Serif" font-size="10.00">MinHistoricalSamples</text>
<text text-anchor="start" x="526" y="-904" font-family="Helvetica,sans-Serif" font-size="10.00">&#45;</text>
<text text-anchor="start" x="539" y="-904" font-family="Helvetica,sans-Serif" font-size="10.00">DefaultLookbackQuarters</text>
<text text-anchor="start" x="526" y="-889" font-family="Helvetica,sans-Serif" font-size="10.00">&#45;</text>
<text text-anchor="start" x="539" y="-889" font-family="Helvetica,sans-Serif" font-size="10.00">MaxSigmaE</text>
<text text-anchor="start" x="526" y="-874" font-family="Helvetica,sans-Serif" font-size="10.00">&#45;</text>
<text text-anchor="start" x="539" y="-874" font-family="Helvetica,sans-Serif" font-size="10.00">MinSigmaE</text>
<text text-anchor="start" x="526" y="-859" font-family="Helvetica,sans-Serif" font-size="10.00">&#45;</text>
<text text-anchor="start" x="539" y="-859" font-family="Helvetica,sans-Serif" font-size="10.00">LogCalibrating</text>
<text text-anchor="start" x="526" y="-844" font-family="Helvetica,sans-Serif" font-size="10.00">&#45;</text>
<text text-anchor="start" x="539" y="-844" font-family="Helvetica,sans-Serif" font-size="10.00">LogCalibrationResult</text>
<text text-anchor="start" x="526" y="-829" font-family="Helvetica,sans-Serif" font-size="10.00">&#45;</text>
<text text-anchor="start" x="539" y="-829" font-family="Helvetica,sans-Serif" font-size="10.00">LogInsufficientData</text>
<text text-anchor="start" x="524.5" y="-814" font-family="Helvetica,sans-Serif" font-size="10.00">+</text>
<text text-anchor="start" x="539" y="-814" font-family="Helvetica,sans-Serif" font-size="10.00">STIV005A()</text>
<text text-anchor="start" x="524.5" y="-799" font-family="Helvetica,sans-Serif" font-size="10.00">+</text>
<text text-anchor="start" x="539" y="-799" font-family="Helvetica,sans-Serif" font-size="10.00">CalibrateFromMoves()</text>
<text text-anchor="start" x="524.5" y="-784" font-family="Helvetica,sans-Serif" font-size="10.00">+</text>
<text text-anchor="start" x="539" y="-784" font-family="Helvetica,sans-Serif" font-size="10.00">Calibrate()</text>
<text text-anchor="start" x="524.5" y="-769" font-family="Helvetica,sans-Serif" font-size="10.00">+</text>
<text text-anchor="start" x="539" y="-769" font-family="Helvetica,sans-Serif" font-size="10.00">STTM001AEstimator()</text>
<text text-anchor="start" x="524.5" y="-754" font-family="Helvetica,sans-Serif" font-size="10.00">+</text>
<text text-anchor="start" x="539" y="-754" font-family="Helvetica,sans-Serif" font-size="10.00">BaseVolatilityEstimator()</text>
<text text-anchor="start" x="526" y="-739" font-family="Helvetica,sans-Serif" font-size="10.00">&#45;</text>
<text text-anchor="start" x="539" y="-739" font-family="Helvetica,sans-Serif" font-size="10.00">ExtractReturns()</text>
<text text-anchor="start" x="526" y="-724" font-family="Helvetica,sans-Serif" font-size="10.00">&#45;</text>
<text text-anchor="start" x="539" y="-724" font-family="Helvetica,sans-Serif" font-size="10.00">ComputeCalibration()</text>
<text text-anchor="start" x="526" y="-709" font-family="Helvetica,sans-Serif" font-size="10.00">&#45;</text>
<text text-anchor="start" x="539" y="-709" font-family="Helvetica,sans-Serif" font-size="10.00">SafeLog()</text>
<text text-anchor="start" x="526" y="-694" font-family="Helvetica,sans-Serif" font-size="10.00">&#45;</text>
<text text-anchor="start" x="539" y="-694" font-family="Helvetica,sans-Serif" font-size="10.00">ComputeMedian()</text>
<polygon fill="#666666" stroke="#666666" points="517,-944 517,-944 663,-944 663,-944 517,-944"/>
<polygon fill="#666666" stroke="#666666" points="517,-824 517,-824 537,-824 537,-824 517,-824"/>
<polygon fill="#666666" stroke="#666666" points="537,-824 537,-824 663,-824 663,-824 537,-824"/>
<polygon fill="none" stroke="#666666" points="517,-687 517,-961 663,-961 663,-687 517,-687"/>
</a>
</g>
</g>
<!-- Node6&#45;&gt;Node2 -->
<g id="edge5_Node000002_Node000006" class="edge">
<title>Node6&#45;&gt;Node2</title>
<g id="a_edge5_Node000002_Node000006"><a xlink:title=" ">
<path fill="none" stroke="#63b8ff" d="M516.86,-696.44C513.98,-693.18 511.02,-690.02 508,-687 490.38,-669.37 481.76,-670.15 460,-658 444.73,-649.47 437,-652.73 425,-640 424.82,-639.81 424.64,-639.61 424.45,-639.42"/>
<polygon fill="none" stroke="#63b8ff" points="424.44,-639.41 417.48,-637.56 416.5,-630.41 423.47,-632.26 424.44,-639.41"/>
</a>
</g>
<text text-anchor="middle" x="528.5" y="-661" font-family="Helvetica,sans-Serif" font-size="10.00" fill="grey"> &#45;_earningsCalibrator</text>
</g>
<!-- Node7 -->
<g id="Node000007" class="node">
<title>Node7</title>
<g id="a_Node000007"><a xlink:href="../../d9/d02/interfaceAlaris_1_1Strategy_1_1Bridge_1_1STBR002A.html" target="_top" xlink:title="Interface for pricing options using advanced models including negative rates. Implementations use the...">
<polygon fill="white" stroke="transparent" points="591.5,-475 434.5,-475 434.5,-396 591.5,-396 591.5,-475"/>
<text text-anchor="start" x="440" y="-462.5" font-family="Helvetica,sans-Serif" font-size="10.00">Alaris.Strategy.Bridge.STBR002A</text>
<text text-anchor="start" x="511.5" y="-447.5" font-family="Helvetica,sans-Serif" font-size="10.00"> </text>
<text text-anchor="start" x="444" y="-432.5" font-family="Helvetica,sans-Serif" font-size="10.00">+</text>
<text text-anchor="start" x="460" y="-432.5" font-family="Helvetica,sans-Serif" font-size="10.00">PriceOption()</text>
<text text-anchor="start" x="444" y="-417.5" font-family="Helvetica,sans-Serif" font-size="10.00">+</text>
<text text-anchor="start" x="460" y="-417.5" font-family="Helvetica,sans-Serif" font-size="10.00">PriceSTPR001A()</text>
<text text-anchor="start" x="444" y="-402.5" font-family="Helvetica,sans-Serif" font-size="10.00">+</text>
<text text-anchor="start" x="460" y="-402.5" font-family="Helvetica,sans-Serif" font-size="10.00">CalculateImpliedVolatility()</text>
<polygon fill="#666666" stroke="#666666" points="435,-457.5 435,-457.5 592,-457.5 592,-457.5 435,-457.5"/>
<polygon fill="#666666" stroke="#666666" points="435,-442.5 435,-442.5 592,-442.5 592,-442.5 435,-442.5"/>
<polygon fill="none" stroke="#666666" points="434.5,-396 434.5,-475 591.5,-475 591.5,-396 434.5,-396"/>
</a>
</g>
</g>
<!-- Node7&#45;&gt;Node1 -->
<g id="edge6_Node000001_Node000007" class="edge">
<title>Node7&#45;&gt;Node1</title>
<g id="a_edge6_Node000001_Node000007"><a xlink:title=" ">
<path fill="none" stroke="#63b8ff" d="M513,-395.99C513,-347.96 513,-263.95 513,-196.56"/>
<polygon fill="none" stroke="#63b8ff" points="513,-196.18 509,-190.18 513,-184.18 517,-190.18 513,-196.18"/>
</a>
</g>
<text text-anchor="middle" x="548" y="-205" font-family="Helvetica,sans-Serif" font-size="10.00" fill="grey"> &#45;_pricingEngine</text>
</g>
<!-- Node8 -->
<g id="Node000008" class="node">
<title>Node8</title>
<g id="a_Node000008"><a xlink:href="../../d2/d00/classAlaris_1_1Strategy_1_1Risk_1_1STRK001A.html" target="_top" xlink:title="Implements Kelly Criterion position sizing for options strategies. Uses fractional Kelly (typically 2...">
<polygon fill="white" stroke="transparent" points="764.5,-557.5 609.5,-557.5 609.5,-313.5 764.5,-313.5 764.5,-557.5"/>
<text text-anchor="start" x="618" y="-545.5" font-family="Helvetica,sans-Serif" font-size="10.00">Alaris.Strategy.Risk.STRK001A</text>
<text text-anchor="start" x="615.5" y="-530.5" font-family="Helvetica,sans-Serif" font-size="10.00">&#45;</text>
<text text-anchor="start" x="625" y="-530.5" font-family="Helvetica,sans-Serif" font-size="10.00">_logger</text>
<text text-anchor="start" x="615.5" y="-515.5" font-family="Helvetica,sans-Serif" font-size="10.00">&#45;</text>
<text text-anchor="start" x="625" y="-515.5" font-family="Helvetica,sans-Serif" font-size="10.00">LogInsufficientTradeHistory</text>
<text text-anchor="start" x="615.5" y="-500.5" font-family="Helvetica,sans-Serif" font-size="10.00">&#45;</text>
<text text-anchor="start" x="625" y="-500.5" font-family="Helvetica,sans-Serif" font-size="10.00">LogInvalidWinRate</text>
<text text-anchor="start" x="615.5" y="-485.5" font-family="Helvetica,sans-Serif" font-size="10.00">&#45;</text>
<text text-anchor="start" x="625" y="-485.5" font-family="Helvetica,sans-Serif" font-size="10.00">LogInvalidAverageWinLoss</text>
<text text-anchor="start" x="615.5" y="-470.5" font-family="Helvetica,sans-Serif" font-size="10.00">&#45;</text>
<text text-anchor="start" x="625" y="-470.5" font-family="Helvetica,sans-Serif" font-size="10.00">LogPositionCalculated</text>
<text text-anchor="start" x="615.5" y="-455.5" font-family="Helvetica,sans-Serif" font-size="10.00">&#45;</text>
<text text-anchor="start" x="625" y="-455.5" font-family="Helvetica,sans-Serif" font-size="10.00">LogErrorCalculatingPosition</text>
<text text-anchor="start" x="615.5" y="-440.5" font-family="Helvetica,sans-Serif" font-size="10.00">&#45;</text>
<text text-anchor="start" x="625" y="-440.5" font-family="Helvetica,sans-Serif" font-size="10.00">FractionalKelly</text>
<text text-anchor="start" x="615.5" y="-425.5" font-family="Helvetica,sans-Serif" font-size="10.00">&#45;</text>
<text text-anchor="start" x="625" y="-425.5" font-family="Helvetica,sans-Serif" font-size="10.00">MaxAllocation</text>
<text text-anchor="start" x="615.5" y="-410.5" font-family="Helvetica,sans-Serif" font-size="10.00">&#45;</text>
<text text-anchor="start" x="625" y="-410.5" font-family="Helvetica,sans-Serif" font-size="10.00">ContractMultiplier</text>
<text text-anchor="start" x="614" y="-395.5" font-family="Helvetica,sans-Serif" font-size="10.00">+</text>
<text text-anchor="start" x="625" y="-395.5" font-family="Helvetica,sans-Serif" font-size="10.00">STRK001A()</text>
<text text-anchor="start" x="614" y="-380.5" font-family="Helvetica,sans-Serif" font-size="10.00">+</text>
<text text-anchor="start" x="625" y="-380.5" font-family="Helvetica,sans-Serif" font-size="10.00">CalculateFromHistory()</text>
<text text-anchor="start" x="614" y="-365.5" font-family="Helvetica,sans-Serif" font-size="10.00">+</text>
<text text-anchor="start" x="625" y="-365.5" font-family="Helvetica,sans-Serif" font-size="10.00">CalculateNetOfCostKelly()</text>
<text text-anchor="start" x="615.5" y="-350.5" font-family="Helvetica,sans-Serif" font-size="10.00">&#45;</text>
<text text-anchor="start" x="625" y="-350.5" font-family="Helvetica,sans-Serif" font-size="10.00">SafeLog()</text>
<text text-anchor="start" x="615.5" y="-335.5" font-family="Helvetica,sans-Serif" font-size="10.00">&#45;</text>
<text text-anchor="start" x="625" y="-335.5" font-family="Helvetica,sans-Serif" font-size="10.00">AdjustForSTCR004AStrength()</text>
<text text-anchor="start" x="615.5" y="-320.5" font-family="Helvetica,sans-Serif" font-size="10.00">&#45;</text>
<text text-anchor="start" x="625" y="-320.5" font-family="Helvetica,sans-Serif" font-size="10.00">GetMinimumPosition()</text>
<polygon fill="#666666" stroke="#666666" points="610,-540.5 610,-540.5 765,-540.5 765,-540.5 610,-540.5"/>
<polygon fill="#666666" stroke="#666666" points="610,-405.5 610,-405.5 623,-405.5 623,-405.5 610,-405.5"/>
<polygon fill="#666666" stroke="#666666" points="623,-405.5 623,-405.5 765,-405.5 765,-405.5 623,-405.5"/>
<polygon fill="none" stroke="#666666" points="609.5,-313.5 609.5,-557.5 764.5,-557.5 764.5,-313.5 609.5,-313.5"/>
</a>
</g>
</g>
<!-- Node8&#45;&gt;Node1 -->
<g id="edge7_Node000001_Node000008" class="edge">
<title>Node8&#45;&gt;Node1</title>
<g id="a_edge7_Node000001_Node000008"><a xlink:title=" ">
<path fill="none" stroke="#63b8ff" d="M641.2,-313.32C625.69,-276.68 607.14,-236.92 587,-202 585.58,-199.53 584.12,-197.05 582.63,-194.56"/>
<polygon fill="none" stroke="#63b8ff" points="582.6,-194.51 576.07,-191.47 576.36,-184.26 582.9,-187.31 582.6,-194.51"/>
</a>
</g>
<text text-anchor="middle" x="624" y="-205" font-family="Helvetica,sans-Serif" font-size="10.00" fill="grey"> &#45;_positionSizer</text>
</g>
</g>
</svg>

<g id="navigator" transform="translate(0 0)" fill="#404254">
  <rect fill="#f2f5e9" fill-opacity="0.5" stroke="#606060" stroke-width=".5" x="0" y="0" width="60" height="60"/>
  <use id="zoomplus" xlink:href="#zoomPlus" x="17" y="9" onmousedown="handleZoom(evt,'in')"/>
  <use id="zoomminus" xlink:href="#zoomMin" x="42" y="9" onmousedown="handleZoom(evt,'out')"/>
  <use id="reset" xlink:href="#resetDef" x="30" y="36" onmousedown="handleReset()"/>
   <use id="arrowup" xlink:href="#arrowUp" x="0" y="0" onmousedown="handlePan(0,-1)"/>
  <use id="arrowright" xlink:href="#arrowRight" x="0" y="0" onmousedown="handlePan(1,0)"/>
  <use id="arrowdown" xlink:href="#arrowDown" x="0" y="0" onmousedown="handlePan(0,1)"/>
  <use id="arrowleft" xlink:href="#arrowLeft" x="0" y="0" onmousedown="handlePan(-1,0)"/>
</g>
<svg viewBox="0 0 15 15" width="100%" height="30px" preserveAspectRatio="xMaxYMin meet">
 <g id="arrow_out" transform="scale(0.3 0.3)">
  <a xlink:href="classAlaris_1_1Strategy_1_1STCT001A__coll__graph_org.svg" target="_base">
   <rect id="button" ry="5" rx="5" y="6" x="6" height="38" width="38"
        fill="#f2f5e9" fill-opacity="0.5" stroke="#606060" stroke-width="1.0"/>
   <path id="arrow"
     d="M 11.500037,31.436501 C 11.940474,20.09759 22.043105,11.32322 32.158766,21.979434 L 37.068811,17.246167 C 37.068811,17.246167 37.088388,32 37.088388,32 L 22.160133,31.978069 C 22.160133,31.978069 26.997745,27.140456 26.997745,27.140456 C 18.528582,18.264221 13.291696,25.230495 11.500037,31.436501 z"
     style="fill:#404040;"/>
  </a>
 </g>
</svg>

<style type='text/css'>
<![CDATA[
[data-mouse-over-selected='false'] { opacity: 0.7; }
[data-mouse-over-selected='true']  { opacity: 1.0; }
]]>
</style>
<script type="application/ecmascript"><![CDATA[
document.addEventListener('DOMContentLoaded', (event) => {
  highlightEdges();
  highlightAdjacentNodes();
});
]]></script>
</svg>
