<?xml version="1.0" encoding="UTF-8" standalone="no"?>
<!DOCTYPE svg PUBLIC "-//W3C//DTD SVG 1.1//EN"
 "http://www.w3.org/Graphics/SVG/1.1/DTD/svg11.dtd">
<!-- Generated by graphviz version 2.43.0 (0)
 -->
<!-- Title: Alaris.Infrastructure.Data.Provider.Nasdaq.NasdaqEarningsProvider Pages: 1 -->
<!--zoomable 453 -->

<svg id="main" version="1.1" xmlns="http://www.w3.org/2000/svg" xmlns:xlink="http://www.w3.org/1999/xlink" xml:space="preserve" onload="init(evt)">
<style type="text/css"><![CDATA[
.node, .edge {opacity: 0.7;}
.node.selected, .edge.selected {opacity: 1;}
.edge:hover path { stroke: red; }
.edge:hover polygon { stroke: red; fill: red; }
]]></style>

<defs>
  <circle id="rim" cx="0" cy="0" r="7"/>
  <circle id="rim2" cx="0" cy="0" r="3.5"/>
  <g id="zoomPlus">
    <use xlink:href="#rim" fill="#404040"><set attributeName="fill" to="#808080" begin="zoomplus.mouseover" end="zoomplus.mouseout"/></use>
    <path d="M-4,0h8M0,-4v8" fill="none" stroke="white" stroke-width="1.5" pointer-events="none"/>
  </g>
  <g id="zoomMin">
    <use xlink:href="#rim" fill="#404040"><set attributeName="fill" to="#808080" begin="zoomminus.mouseover" end="zoomminus.mouseout"/></use>
    <path d="M-4,0h8" fill="none" stroke="white" stroke-width="1.5" pointer-events="none"/>
  </g>
  <g id="arrowUp" transform="translate(30 24)">
    <use xlink:href="#rim"/>
    <path pointer-events="none" fill="none" stroke="white" stroke-width="1.5" d="M0,-3.0v7 M-2.5,-0.5L0,-3.0L2.5,-0.5"/>
  </g>
  <g id="arrowRight" transform="rotate(90) translate(36 -43)">
    <use xlink:href="#rim"/>
    <path pointer-events="none" fill="none" stroke="white" stroke-width="1.5" d="M0,-3.0v7 M-2.5,-0.5L0,-3.0L2.5,-0.5"/>
  </g>
  <g id="arrowDown" transform="rotate(180) translate(-30 -48)">
    <use xlink:href="#rim"/>
    <path pointer-events="none" fill="none" stroke="white" stroke-width="1.5" d="M0,-3.0v7 M-2.5,-0.5L0,-3.0L2.5,-0.5"/>
  </g>
  <g id="arrowLeft" transform="rotate(270) translate(-36 17)">
    <use xlink:href="#rim"/>
    <path pointer-events="none" fill="none" stroke="white" stroke-width="1.5" d="M0,-3.0v7 M-2.5,-0.5L0,-3.0L2.5,-0.5"/>
  </g>
  <g id="resetDef">
    <use xlink:href="#rim2" fill="#404040"><set attributeName="fill" to="#808080" begin="reset.mouseover" end="reset.mouseout"/></use>
  </g>
</defs>
<script type="application/ecmascript">
var viewWidth = 202;
var viewHeight = 453;
var sectionId = 'dynsection-0';
</script>
<script type="application/ecmascript" xlink:href="../../svg.min.js"/>
<svg id="graph" class="graph">
<g id="viewport">
<title>Alaris.Infrastructure.Data.Provider.Nasdaq.NasdaqEarningsProvider</title>
<!-- Node1 -->
<g id="Node000001" class="node">
<title>Node1</title>
<g id="a_Node000001"><a xlink:title="NASDAQ public API earnings calendar provider. Component ID: DTea001C.">
<polygon fill="#999999" stroke="transparent" points="194,-300 0,-300 0,0 194,0 194,-300"/>
<text text-anchor="start" x="5" y="-288" font-family="Helvetica,sans-Serif" font-size="10.00">Alaris.Infrastructure.Data.</text>
<text text-anchor="start" x="5" y="-277" font-family="Helvetica,sans-Serif" font-size="10.00">Provider.Nasdaq.NasdaqEarningsProvider</text>
<text text-anchor="start" x="12.5" y="-262" font-family="Helvetica,sans-Serif" font-size="10.00">&#45;</text>
<text text-anchor="start" x="29" y="-262" font-family="Helvetica,sans-Serif" font-size="10.00">_api</text>
<text text-anchor="start" x="12.5" y="-247" font-family="Helvetica,sans-Serif" font-size="10.00">&#45;</text>
<text text-anchor="start" x="29" y="-247" font-family="Helvetica,sans-Serif" font-size="10.00">_logger</text>
<text text-anchor="start" x="12.5" y="-232" font-family="Helvetica,sans-Serif" font-size="10.00">&#45;</text>
<text text-anchor="start" x="29" y="-232" font-family="Helvetica,sans-Serif" font-size="10.00">_cacheDataPath</text>
<text text-anchor="start" x="12.5" y="-217" font-family="Helvetica,sans-Serif" font-size="10.00">&#45;</text>
<text text-anchor="start" x="29" y="-217" font-family="Helvetica,sans-Serif" font-size="10.00">_cacheOnlyMode</text>
<text text-anchor="start" x="12.5" y="-202" font-family="Helvetica,sans-Serif" font-size="10.00">&#45;</text>
<text text-anchor="start" x="29" y="-202" font-family="Helvetica,sans-Serif" font-size="10.00">JsonOptions</text>
<text text-anchor="start" x="11" y="-187" font-family="Helvetica,sans-Serif" font-size="10.00">+</text>
<text text-anchor="start" x="29" y="-187" font-family="Helvetica,sans-Serif" font-size="10.00">NasdaqEarningsProvider()</text>
<text text-anchor="start" x="11" y="-172" font-family="Helvetica,sans-Serif" font-size="10.00">+</text>
<text text-anchor="start" x="29" y="-172" font-family="Helvetica,sans-Serif" font-size="10.00">EnableCacheOnlyMode()</text>
<text text-anchor="start" x="11" y="-157" font-family="Helvetica,sans-Serif" font-size="10.00">+</text>
<text text-anchor="start" x="29" y="-157" font-family="Helvetica,sans-Serif" font-size="10.00">GetUpcomingEarningsAsync()</text>
<text text-anchor="start" x="11" y="-142" font-family="Helvetica,sans-Serif" font-size="10.00">+</text>
<text text-anchor="start" x="29" y="-142" font-family="Helvetica,sans-Serif" font-size="10.00">GetHistoricalEarningsAsync()</text>
<text text-anchor="start" x="11" y="-127" font-family="Helvetica,sans-Serif" font-size="10.00">+</text>
<text text-anchor="start" x="29" y="-127" font-family="Helvetica,sans-Serif" font-size="10.00">GetHistoricalEarningsAsync()</text>
<text text-anchor="start" x="11" y="-112" font-family="Helvetica,sans-Serif" font-size="10.00">+</text>
<text text-anchor="start" x="29" y="-112" font-family="Helvetica,sans-Serif" font-size="10.00">GetSymbolsWithEarningsAsync()</text>
<text text-anchor="start" x="11" y="-97" font-family="Helvetica,sans-Serif" font-size="10.00">+</text>
<text text-anchor="start" x="29" y="-97" font-family="Helvetica,sans-Serif" font-size="10.00">SaveToCacheAsync()</text>
<text text-anchor="start" x="11" y="-82" font-family="Helvetica,sans-Serif" font-size="10.00">+</text>
<text text-anchor="start" x="29" y="-82" font-family="Helvetica,sans-Serif" font-size="10.00">FetchAndCacheAsync()</text>
<text text-anchor="start" x="12.5" y="-67" font-family="Helvetica,sans-Serif" font-size="10.00">&#45;</text>
<text text-anchor="start" x="29" y="-67" font-family="Helvetica,sans-Serif" font-size="10.00">GetEarningsInDateRangeAsync()</text>
<text text-anchor="start" x="12.5" y="-52" font-family="Helvetica,sans-Serif" font-size="10.00">&#45;</text>
<text text-anchor="start" x="29" y="-52" font-family="Helvetica,sans-Serif" font-size="10.00">GetEarningsForDateAsync()</text>
<text text-anchor="start" x="12.5" y="-37" font-family="Helvetica,sans-Serif" font-size="10.00">&#45;</text>
<text text-anchor="start" x="29" y="-37" font-family="Helvetica,sans-Serif" font-size="10.00">LoadFromCacheAsync()</text>
<text text-anchor="start" x="12.5" y="-22" font-family="Helvetica,sans-Serif" font-size="10.00">&#45;</text>
<text text-anchor="start" x="29" y="-22" font-family="Helvetica,sans-Serif" font-size="10.00">MapToEarningsEvent()</text>
<text text-anchor="start" x="12.5" y="-7" font-family="Helvetica,sans-Serif" font-size="10.00">&#45;</text>
<text text-anchor="start" x="29" y="-7" font-family="Helvetica,sans-Serif" font-size="10.00">ParseDecimal()</text>
<polygon fill="#666666" stroke="#666666" points="0,-272 0,-272 194,-272 194,-272 0,-272"/>
<polygon fill="#666666" stroke="#666666" points="0,-197 0,-197 27,-197 27,-197 0,-197"/>
<polygon fill="#666666" stroke="#666666" points="27,-197 27,-197 194,-197 194,-197 27,-197"/>
<polygon fill="none" stroke="#666666" points="0,0 0,-300 194,-300 194,0 0,0"/>
</a>
</g>
</g>
<!-- Node2 -->
<g id="Node000002" class="node">
<title>Node2</title>
<g id="a_Node000002"><a xlink:href="../../da/d01/interfaceAlaris_1_1Infrastructure_1_1Data_1_1Provider_1_1DTpr004A.html" target="_top" xlink:title="Interface for earnings calendar providers.">
<polygon fill="white" stroke="transparent" points="180,-445 14,-445 14,-336 180,-336 180,-445"/>
<text text-anchor="start" x="74.5" y="-432.5" font-family="Helvetica,sans-Serif" font-size="10.00">DTpr004A</text>
<text text-anchor="start" x="95" y="-417.5" font-family="Helvetica,sans-Serif" font-size="10.00"> </text>
<text text-anchor="start" x="18" y="-402.5" font-family="Helvetica,sans-Serif" font-size="10.00">+</text>
<text text-anchor="start" x="29" y="-402.5" font-family="Helvetica,sans-Serif" font-size="10.00">GetUpcomingEarningsAsync()</text>
<text text-anchor="start" x="18" y="-387.5" font-family="Helvetica,sans-Serif" font-size="10.00">+</text>
<text text-anchor="start" x="29" y="-387.5" font-family="Helvetica,sans-Serif" font-size="10.00">GetHistoricalEarningsAsync()</text>
<text text-anchor="start" x="18" y="-372.5" font-family="Helvetica,sans-Serif" font-size="10.00">+</text>
<text text-anchor="start" x="29" y="-372.5" font-family="Helvetica,sans-Serif" font-size="10.00">GetHistoricalEarningsAsync()</text>
<text text-anchor="start" x="18" y="-357.5" font-family="Helvetica,sans-Serif" font-size="10.00">+</text>
<text text-anchor="start" x="29" y="-357.5" font-family="Helvetica,sans-Serif" font-size="10.00">GetSymbolsWithEarningsAsync()</text>
<text text-anchor="start" x="18" y="-342.5" font-family="Helvetica,sans-Serif" font-size="10.00">+</text>
<text text-anchor="start" x="29" y="-342.5" font-family="Helvetica,sans-Serif" font-size="10.00">EnableCacheOnlyMode()</text>
<polygon fill="#666666" stroke="#666666" points="14,-427.5 14,-427.5 180,-427.5 180,-427.5 14,-427.5"/>
<polygon fill="#666666" stroke="#666666" points="14,-412.5 14,-412.5 180,-412.5 180,-412.5 14,-412.5"/>
<polygon fill="none" stroke="#666666" points="14,-336 14,-445 180,-445 180,-336 14,-336"/>
</a>
</g>
</g>
<!-- Node2&#45;&gt;Node1 -->
<g id="edge1_Node000001_Node000002" class="edge">
<title>Node2&#45;&gt;Node1</title>
<g id="a_edge1_Node000001_Node000002"><a xlink:title=" ">
<path fill="none" stroke="#63b8ff" d="M97,-325.92C97,-317.78 97,-309.19 97,-300.37"/>
<polygon fill="none" stroke="#63b8ff" points="93.5,-325.98 97,-335.98 100.5,-325.98 93.5,-325.98"/>
</a>
</g>
</g>
</g>
</svg>

<g id="navigator" transform="translate(0 0)" fill="#404254">
  <rect fill="#f2f5e9" fill-opacity="0.5" stroke="#606060" stroke-width=".5" x="0" y="0" width="60" height="60"/>
  <use id="zoomplus" xlink:href="#zoomPlus" x="17" y="9" onmousedown="handleZoom(evt,'in')"/>
  <use id="zoomminus" xlink:href="#zoomMin" x="42" y="9" onmousedown="handleZoom(evt,'out')"/>
  <use id="reset" xlink:href="#resetDef" x="30" y="36" onmousedown="handleReset()"/>
   <use id="arrowup" xlink:href="#arrowUp" x="0" y="0" onmousedown="handlePan(0,-1)"/>
  <use id="arrowright" xlink:href="#arrowRight" x="0" y="0" onmousedown="handlePan(1,0)"/>
  <use id="arrowdown" xlink:href="#arrowDown" x="0" y="0" onmousedown="handlePan(0,1)"/>
  <use id="arrowleft" xlink:href="#arrowLeft" x="0" y="0" onmousedown="handlePan(-1,0)"/>
</g>
<svg viewBox="0 0 15 15" width="100%" height="30px" preserveAspectRatio="xMaxYMin meet">
 <g id="arrow_out" transform="scale(0.3 0.3)">
  <a xlink:href="classAlaris_1_1Infrastructure_1_1Data_1_1Provider_1_1Nasdaq_1_1NasdaqEarningsProvider__inherit__graph_org.svg" target="_base">
   <rect id="button" ry="5" rx="5" y="6" x="6" height="38" width="38"
        fill="#f2f5e9" fill-opacity="0.5" stroke="#606060" stroke-width="1.0"/>
   <path id="arrow"
     d="M 11.500037,31.436501 C 11.940474,20.09759 22.043105,11.32322 32.158766,21.979434 L 37.068811,17.246167 C 37.068811,17.246167 37.088388,32 37.088388,32 L 22.160133,31.978069 C 22.160133,31.978069 26.997745,27.140456 26.997745,27.140456 C 18.528582,18.264221 13.291696,25.230495 11.500037,31.436501 z"
     style="fill:#404040;"/>
  </a>
 </g>
</svg>

<style type='text/css'>
<![CDATA[
[data-mouse-over-selected='false'] { opacity: 0.7; }
[data-mouse-over-selected='true']  { opacity: 1.0; }
]]>
</style>
<script type="application/ecmascript"><![CDATA[
document.addEventListener('DOMContentLoaded', (event) => {
  highlightEdges();
  highlightAdjacentNodes();
});
]]></script>
</svg>
