<?xml version="1.0" encoding="UTF-8" standalone="no"?>
<!DOCTYPE svg PUBLIC "-//W3C//DTD SVG 1.1//EN"
 "http://www.w3.org/Graphics/SVG/1.1/DTD/svg11.dtd">
<!-- Generated by graphviz version 2.43.0 (0)
 -->
<!-- Title: Alaris.Core.Time.CRTM006A Pages: 1 -->
<svg width="147pt" height="382pt"
 viewBox="0.00 0.00 147.00 382.00" xmlns="http://www.w3.org/2000/svg" xmlns:xlink="http://www.w3.org/1999/xlink">

<svg id="main" version="1.1" xmlns="http://www.w3.org/2000/svg" xmlns:xlink="http://www.w3.org/1999/xlink" xml:space="preserve" onload="init(evt)">
<style type="text/css"><![CDATA[
.node, .edge {opacity: 0.7;}
.node.selected, .edge.selected {opacity: 1;}
.edge:hover path { stroke: red; }
.edge:hover polygon { stroke: red; fill: red; }
]]></style>
<script type="application/ecmascript" xlink:href="../../svg.min.js"/>
<svg id="graph" class="graph">
<g id="graph0" class="graph" transform="scale(1 1) rotate(0) translate(4 378)">
<title>Alaris.Core.Time.CRTM006A</title>
<!-- Node1 -->
<g id="Node000001" class="node">
<title>Node1</title>
<g id="a_Node000001"><a xlink:title="Represents a time period with a length and unit. Matches QuantLib Period semantics.">
<polygon fill="#999999" stroke="transparent" points="139,-289 0,-289 0,0 139,0 139,-289"/>
<text text-anchor="start" x="5.5" y="-276.5" font-family="Helvetica,sans-Serif" font-size="10.00">Alaris.Core.Time.CRTM006A</text>
<text text-anchor="start" x="17" y="-261.5" font-family="Helvetica,sans-Serif" font-size="10.00">+</text>
<text text-anchor="start" x="40.5" y="-261.5" font-family="Helvetica,sans-Serif" font-size="10.00">Length</text>
<text text-anchor="start" x="17" y="-246.5" font-family="Helvetica,sans-Serif" font-size="10.00">+</text>
<text text-anchor="start" x="40.5" y="-246.5" font-family="Helvetica,sans-Serif" font-size="10.00">Unit</text>
<text text-anchor="start" x="17" y="-231.5" font-family="Helvetica,sans-Serif" font-size="10.00">+</text>
<text text-anchor="start" x="40.5" y="-231.5" font-family="Helvetica,sans-Serif" font-size="10.00">CRTM006A()</text>
<text text-anchor="start" x="17" y="-216.5" font-family="Helvetica,sans-Serif" font-size="10.00">+</text>
<text text-anchor="start" x="40.5" y="-216.5" font-family="Helvetica,sans-Serif" font-size="10.00">Equals()</text>
<text text-anchor="start" x="17" y="-201.5" font-family="Helvetica,sans-Serif" font-size="10.00">+</text>
<text text-anchor="start" x="40.5" y="-201.5" font-family="Helvetica,sans-Serif" font-size="10.00">Equals()</text>
<text text-anchor="start" x="17" y="-186.5" font-family="Helvetica,sans-Serif" font-size="10.00">+</text>
<text text-anchor="start" x="40.5" y="-186.5" font-family="Helvetica,sans-Serif" font-size="10.00">GetHashCode()</text>
<text text-anchor="start" x="17" y="-171.5" font-family="Helvetica,sans-Serif" font-size="10.00">+</text>
<text text-anchor="start" x="40.5" y="-171.5" font-family="Helvetica,sans-Serif" font-size="10.00">ToString()</text>
<text text-anchor="start" x="17" y="-156.5" font-family="Helvetica,sans-Serif" font-size="10.00">+</text>
<text text-anchor="start" x="40.5" y="-156.5" font-family="Helvetica,sans-Serif" font-size="10.00">Days()</text>
<text text-anchor="start" x="17" y="-141.5" font-family="Helvetica,sans-Serif" font-size="10.00">+</text>
<text text-anchor="start" x="40.5" y="-141.5" font-family="Helvetica,sans-Serif" font-size="10.00">Weeks()</text>
<text text-anchor="start" x="17" y="-126.5" font-family="Helvetica,sans-Serif" font-size="10.00">+</text>
<text text-anchor="start" x="40.5" y="-126.5" font-family="Helvetica,sans-Serif" font-size="10.00">Months()</text>
<text text-anchor="start" x="17" y="-111.5" font-family="Helvetica,sans-Serif" font-size="10.00">+</text>
<text text-anchor="start" x="40.5" y="-111.5" font-family="Helvetica,sans-Serif" font-size="10.00">Years()</text>
<text text-anchor="start" x="17" y="-96.5" font-family="Helvetica,sans-Serif" font-size="10.00">+</text>
<text text-anchor="start" x="40.5" y="-96.5" font-family="Helvetica,sans-Serif" font-size="10.00">operator&#45;()</text>
<text text-anchor="start" x="17" y="-81.5" font-family="Helvetica,sans-Serif" font-size="10.00">+</text>
<text text-anchor="start" x="40.5" y="-81.5" font-family="Helvetica,sans-Serif" font-size="10.00">Negate()</text>
<text text-anchor="start" x="17" y="-66.5" font-family="Helvetica,sans-Serif" font-size="10.00">+</text>
<text text-anchor="start" x="40.5" y="-66.5" font-family="Helvetica,sans-Serif" font-size="10.00">operator*()</text>
<text text-anchor="start" x="17" y="-51.5" font-family="Helvetica,sans-Serif" font-size="10.00">+</text>
<text text-anchor="start" x="40.5" y="-51.5" font-family="Helvetica,sans-Serif" font-size="10.00">operator*()</text>
<text text-anchor="start" x="17" y="-36.5" font-family="Helvetica,sans-Serif" font-size="10.00">+</text>
<text text-anchor="start" x="40.5" y="-36.5" font-family="Helvetica,sans-Serif" font-size="10.00">Multiply()</text>
<text text-anchor="start" x="17" y="-21.5" font-family="Helvetica,sans-Serif" font-size="10.00">+</text>
<text text-anchor="start" x="40.5" y="-21.5" font-family="Helvetica,sans-Serif" font-size="10.00">operator==()</text>
<text text-anchor="start" x="17" y="-6.5" font-family="Helvetica,sans-Serif" font-size="10.00">+</text>
<text text-anchor="start" x="40.5" y="-6.5" font-family="Helvetica,sans-Serif" font-size="10.00">operator!=()</text>
<polygon fill="#666666" stroke="#666666" points="0.5,-271.5 0.5,-271.5 139.5,-271.5 139.5,-271.5 0.5,-271.5"/>
<polygon fill="#666666" stroke="#666666" points="0.5,-241.5 0.5,-241.5 38.5,-241.5 38.5,-241.5 0.5,-241.5"/>
<polygon fill="#666666" stroke="#666666" points="38.5,-241.5 38.5,-241.5 139.5,-241.5 139.5,-241.5 38.5,-241.5"/>
<polygon fill="none" stroke="#666666" points="0,0 0,-289 139,-289 139,0 0,0"/>
</a>
</g>
</g>
<!-- Node2 -->
<g id="Node000002" class="node">
<title>Node2</title>
<g id="a_Node000002"><a xlink:title=" ">
<polygon fill="white" stroke="transparent" points="132.5,-374 6.5,-374 6.5,-325 132.5,-325 132.5,-374"/>
<text text-anchor="start" x="11.5" y="-361.5" font-family="Helvetica,sans-Serif" font-size="10.00">IEquatable&lt; CRTM006A &gt;</text>
<text text-anchor="start" x="67.5" y="-346.5" font-family="Helvetica,sans-Serif" font-size="10.00"> </text>
<text text-anchor="start" x="67.5" y="-331.5" font-family="Helvetica,sans-Serif" font-size="10.00"> </text>
<polygon fill="#666666" stroke="#666666" points="6.5,-356.5 6.5,-356.5 132.5,-356.5 132.5,-356.5 6.5,-356.5"/>
<polygon fill="#666666" stroke="#666666" points="6.5,-341.5 6.5,-341.5 132.5,-341.5 132.5,-341.5 6.5,-341.5"/>
<polygon fill="none" stroke="#666666" points="6.5,-325 6.5,-374 132.5,-374 132.5,-325 6.5,-325"/>
</a>
</g>
</g>
<!-- Node2&#45;&gt;Node1 -->
<g id="edge1_Node000001_Node000002" class="edge">
<title>Node2&#45;&gt;Node1</title>
<g id="a_edge1_Node000001_Node000002"><a xlink:title=" ">
<path fill="none" stroke="#63b8ff" d="M69.5,-314.66C69.5,-307 69.5,-298.4 69.5,-289.24"/>
<polygon fill="none" stroke="#63b8ff" points="66,-314.82 69.5,-324.82 73,-314.82 66,-314.82"/>
</a>
</g>
</g>
</g>
</svg>
</svg>

<style type='text/css'>
<![CDATA[
[data-mouse-over-selected='false'] { opacity: 0.7; }
[data-mouse-over-selected='true']  { opacity: 1.0; }
]]>
</style>
<script type="application/ecmascript"><![CDATA[
document.addEventListener('DOMContentLoaded', (event) => {
  highlightEdges();
  highlightAdjacentNodes();
});
]]></script>
</svg>
