<?xml version="1.0" encoding="UTF-8" standalone="no"?>
<!DOCTYPE svg PUBLIC "-//W3C//DTD SVG 1.1//EN"
 "http://www.w3.org/Graphics/SVG/1.1/DTD/svg11.dtd">
<!-- Generated by graphviz version 2.43.0 (0)
 -->
<!-- Title: Alaris.Strategy.Hedge.STHD001A Pages: 1 -->
<svg width="166pt" height="248pt"
 viewBox="0.00 0.00 166.00 248.00" xmlns="http://www.w3.org/2000/svg" xmlns:xlink="http://www.w3.org/1999/xlink">
<g id="graph0" class="graph" transform="scale(1 1) rotate(0) translate(4 244)">
<title>Alaris.Strategy.Hedge.STHD001A</title>
<!-- Node1 -->
<g id="Node000001" class="node">
<title>Node1</title>
<g id="a_Node000001"><a xlink:title="Analyses the correlation between front&#45;month and back&#45;month implied volatility changes to assess cale...">
<polygon fill="#999999" stroke="transparent" points="158,-240 0,-240 0,0 158,0 158,-240"/>
<text text-anchor="start" x="5" y="-228" font-family="Helvetica,sans-Serif" font-size="10.00">Alaris.Strategy.Hedge.STHD001A</text>
<text text-anchor="start" x="6" y="-213" font-family="Helvetica,sans-Serif" font-size="10.00">+</text>
<text text-anchor="start" x="19" y="-213" font-family="Helvetica,sans-Serif" font-size="10.00">DefaultMaxCorrelation</text>
<text text-anchor="start" x="6" y="-198" font-family="Helvetica,sans-Serif" font-size="10.00">+</text>
<text text-anchor="start" x="19" y="-198" font-family="Helvetica,sans-Serif" font-size="10.00">DefaultMinimumObservations</text>
<text text-anchor="start" x="7.5" y="-183" font-family="Helvetica,sans-Serif" font-size="10.00">&#45;</text>
<text text-anchor="start" x="19" y="-183" font-family="Helvetica,sans-Serif" font-size="10.00">_logger</text>
<text text-anchor="start" x="7.5" y="-168" font-family="Helvetica,sans-Serif" font-size="10.00">&#45;</text>
<text text-anchor="start" x="19" y="-168" font-family="Helvetica,sans-Serif" font-size="10.00">_maxAcceptableCorrelation</text>
<text text-anchor="start" x="7.5" y="-153" font-family="Helvetica,sans-Serif" font-size="10.00">&#45;</text>
<text text-anchor="start" x="19" y="-153" font-family="Helvetica,sans-Serif" font-size="10.00">_minimumObservations</text>
<text text-anchor="start" x="7.5" y="-138" font-family="Helvetica,sans-Serif" font-size="10.00">&#45;</text>
<text text-anchor="start" x="19" y="-138" font-family="Helvetica,sans-Serif" font-size="10.00">LogCorrelationResult</text>
<text text-anchor="start" x="7.5" y="-123" font-family="Helvetica,sans-Serif" font-size="10.00">&#45;</text>
<text text-anchor="start" x="19" y="-123" font-family="Helvetica,sans-Serif" font-size="10.00">LogInsufficientData</text>
<text text-anchor="start" x="6" y="-108" font-family="Helvetica,sans-Serif" font-size="10.00">+</text>
<text text-anchor="start" x="19" y="-108" font-family="Helvetica,sans-Serif" font-size="10.00">STHD001A()</text>
<text text-anchor="start" x="6" y="-93" font-family="Helvetica,sans-Serif" font-size="10.00">+</text>
<text text-anchor="start" x="19" y="-93" font-family="Helvetica,sans-Serif" font-size="10.00">Analyse()</text>
<text text-anchor="start" x="6" y="-78" font-family="Helvetica,sans-Serif" font-size="10.00">+</text>
<text text-anchor="start" x="19" y="-78" font-family="Helvetica,sans-Serif" font-size="10.00">AnalyseFromLevels()</text>
<text text-anchor="start" x="6" y="-63" font-family="Helvetica,sans-Serif" font-size="10.00">+</text>
<text text-anchor="start" x="19" y="-63" font-family="Helvetica,sans-Serif" font-size="10.00">GetConditionalCorrelation</text>
<text text-anchor="start" x="19" y="-52" font-family="Helvetica,sans-Serif" font-size="10.00">Threshold()</text>
<text text-anchor="start" x="7.5" y="-37" font-family="Helvetica,sans-Serif" font-size="10.00">&#45;</text>
<text text-anchor="start" x="19" y="-37" font-family="Helvetica,sans-Serif" font-size="10.00">SafeLog()</text>
<text text-anchor="start" x="7.5" y="-22" font-family="Helvetica,sans-Serif" font-size="10.00">&#45;</text>
<text text-anchor="start" x="19" y="-22" font-family="Helvetica,sans-Serif" font-size="10.00">ComputeChanges()</text>
<text text-anchor="start" x="7.5" y="-7" font-family="Helvetica,sans-Serif" font-size="10.00">&#45;</text>
<text text-anchor="start" x="19" y="-7" font-family="Helvetica,sans-Serif" font-size="10.00">DetermineInterpretation()</text>
<polygon fill="#666666" stroke="#666666" points="0,-223 0,-223 158,-223 158,-223 0,-223"/>
<polygon fill="#666666" stroke="#666666" points="0,-118 0,-118 17,-118 17,-118 0,-118"/>
<polygon fill="#666666" stroke="#666666" points="17,-118 17,-118 158,-118 158,-118 17,-118"/>
<polygon fill="none" stroke="#666666" points="0,0 0,-240 158,-240 158,0 0,0"/>
</a>
</g>
</g>
</g>
</svg>
