<?xml version="1.0" encoding="UTF-8" standalone="no"?>
<!DOCTYPE svg PUBLIC "-//W3C//DTD SVG 1.1//EN"
 "http://www.w3.org/Graphics/SVG/1.1/DTD/svg11.dtd">
<!-- Generated by graphviz version 2.43.0 (0)
 -->
<!-- Title: Alaris.Strategy.Core.STIV003A Pages: 1 -->
<svg width="320pt" height="374pt"
 viewBox="0.00 0.00 319.50 374.00" xmlns="http://www.w3.org/2000/svg" xmlns:xlink="http://www.w3.org/1999/xlink">
<g id="graph0" class="graph" transform="scale(1 1) rotate(0) translate(4 370)">
<title>Alaris.Strategy.Core.STIV003A</title>
<!-- Node1 -->
<g id="Node000001" class="node">
<title>Node1</title>
<g id="a_Node000001"><a xlink:title="Selects the optimal IV model based on market conditions, fit metrics, and regime. Implements automati...">
<polygon fill="#999999" stroke="transparent" points="231,-199 85,-199 85,0 231,0 231,-199"/>
<text text-anchor="start" x="90" y="-186.5" font-family="Helvetica,sans-Serif" font-size="10.00">Alaris.Strategy.Core.STIV003A</text>
<text text-anchor="start" x="156" y="-171.5" font-family="Helvetica,sans-Serif" font-size="10.00"> </text>
<text text-anchor="start" x="90.5" y="-156.5" font-family="Helvetica,sans-Serif" font-size="10.00">+</text>
<text text-anchor="start" x="103" y="-156.5" font-family="Helvetica,sans-Serif" font-size="10.00">STIV003A()</text>
<text text-anchor="start" x="90.5" y="-141.5" font-family="Helvetica,sans-Serif" font-size="10.00">+</text>
<text text-anchor="start" x="103" y="-141.5" font-family="Helvetica,sans-Serif" font-size="10.00">SelectBestModel()</text>
<text text-anchor="start" x="92" y="-126.5" font-family="Helvetica,sans-Serif" font-size="10.00">&#45;</text>
<text text-anchor="start" x="103" y="-126.5" font-family="Helvetica,sans-Serif" font-size="10.00">EvaluateModel()</text>
<text text-anchor="start" x="92" y="-111.5" font-family="Helvetica,sans-Serif" font-size="10.00">&#45;</text>
<text text-anchor="start" x="103" y="-111.5" font-family="Helvetica,sans-Serif" font-size="10.00">GetCandidateModels()</text>
<text text-anchor="start" x="92" y="-96.5" font-family="Helvetica,sans-Serif" font-size="10.00">&#45;</text>
<text text-anchor="start" x="103" y="-96.5" font-family="Helvetica,sans-Serif" font-size="10.00">ComputeFitMetrics()</text>
<text text-anchor="start" x="92" y="-81.5" font-family="Helvetica,sans-Serif" font-size="10.00">&#45;</text>
<text text-anchor="start" x="103" y="-81.5" font-family="Helvetica,sans-Serif" font-size="10.00">ComputeModelIVs()</text>
<text text-anchor="start" x="92" y="-66.5" font-family="Helvetica,sans-Serif" font-size="10.00">&#45;</text>
<text text-anchor="start" x="103" y="-66.5" font-family="Helvetica,sans-Serif" font-size="10.00">GetModelComplexity()</text>
<text text-anchor="start" x="92" y="-51.5" font-family="Helvetica,sans-Serif" font-size="10.00">&#45;</text>
<text text-anchor="start" x="103" y="-51.5" font-family="Helvetica,sans-Serif" font-size="10.00">ComputeAIC()</text>
<text text-anchor="start" x="92" y="-36.5" font-family="Helvetica,sans-Serif" font-size="10.00">&#45;</text>
<text text-anchor="start" x="103" y="-36.5" font-family="Helvetica,sans-Serif" font-size="10.00">ComputeBIC()</text>
<text text-anchor="start" x="92" y="-21.5" font-family="Helvetica,sans-Serif" font-size="10.00">&#45;</text>
<text text-anchor="start" x="103" y="-21.5" font-family="Helvetica,sans-Serif" font-size="10.00">ComputeCompositeScore()</text>
<text text-anchor="start" x="92" y="-6.5" font-family="Helvetica,sans-Serif" font-size="10.00">&#45;</text>
<text text-anchor="start" x="103" y="-6.5" font-family="Helvetica,sans-Serif" font-size="10.00">GenerateSelectionReason()</text>
<polygon fill="#666666" stroke="#666666" points="85,-181.5 85,-181.5 231,-181.5 231,-181.5 85,-181.5"/>
<polygon fill="#666666" stroke="#666666" points="85,-166.5 85,-166.5 231,-166.5 231,-166.5 85,-166.5"/>
<polygon fill="none" stroke="#666666" points="85,0 85,-199 231,-199 231,0 85,0"/>
</a>
</g>
</g>
<!-- Node2 -->
<g id="Node000002" class="node">
<title>Node2</title>
<g id="a_Node000002"><a xlink:href="../../d2/d00/classAlaris_1_1Strategy_1_1Core_1_1MartingaleValidator.html" target="_top" xlink:title="Validates martingale conditions for calibrated models. Ensures risk&#45;neutral pricing consistency.">
<polygon fill="white" stroke="transparent" points="152,-366 0,-366 0,-246 152,-246 152,-366"/>
<text text-anchor="start" x="8" y="-354" font-family="Helvetica,sans-Serif" font-size="10.00">Alaris.Strategy.Core.Martingale</text>
<text text-anchor="start" x="57" y="-343" font-family="Helvetica,sans-Serif" font-size="10.00">Validator</text>
<text text-anchor="start" x="5.5" y="-328" font-family="Helvetica,sans-Serif" font-size="10.00">&#45;</text>
<text text-anchor="start" x="15" y="-328" font-family="Helvetica,sans-Serif" font-size="10.00">DriftTolerance</text>
<text text-anchor="start" x="4" y="-313" font-family="Helvetica,sans-Serif" font-size="10.00">+</text>
<text text-anchor="start" x="15" y="-313" font-family="Helvetica,sans-Serif" font-size="10.00">Validate()</text>
<text text-anchor="start" x="4" y="-298" font-family="Helvetica,sans-Serif" font-size="10.00">+</text>
<text text-anchor="start" x="15" y="-298" font-family="Helvetica,sans-Serif" font-size="10.00">ComputeJumpCompensation()</text>
<text text-anchor="start" x="5.5" y="-283" font-family="Helvetica,sans-Serif" font-size="10.00">&#45;</text>
<text text-anchor="start" x="15" y="-283" font-family="Helvetica,sans-Serif" font-size="10.00">ValidateLeungSantoli()</text>
<text text-anchor="start" x="5.5" y="-268" font-family="Helvetica,sans-Serif" font-size="10.00">&#45;</text>
<text text-anchor="start" x="15" y="-268" font-family="Helvetica,sans-Serif" font-size="10.00">ValidateHeston()</text>
<text text-anchor="start" x="5.5" y="-253" font-family="Helvetica,sans-Serif" font-size="10.00">&#45;</text>
<text text-anchor="start" x="15" y="-253" font-family="Helvetica,sans-Serif" font-size="10.00">ValidateKou()</text>
<polygon fill="#666666" stroke="#666666" points="0,-338 0,-338 152,-338 152,-338 0,-338"/>
<polygon fill="#666666" stroke="#666666" points="0,-323 0,-323 13,-323 13,-323 0,-323"/>
<polygon fill="#666666" stroke="#666666" points="13,-323 13,-323 152,-323 152,-323 13,-323"/>
<polygon fill="none" stroke="#666666" points="0,-246 0,-366 152,-366 152,-246 0,-246"/>
</a>
</g>
</g>
<!-- Node2&#45;&gt;Node1 -->
<g id="edge1_Node000001_Node000002" class="edge">
<title>Node2&#45;&gt;Node1</title>
<g id="a_edge1_Node000001_Node000002"><a xlink:title=" ">
<path fill="none" stroke="#63b8ff" d="M99.72,-245.85C104.21,-234.65 109.04,-222.61 113.93,-210.42"/>
<polygon fill="none" stroke="#63b8ff" points="113.96,-210.34 112.48,-203.28 118.42,-199.2 119.9,-206.26 113.96,-210.34"/>
</a>
</g>
<text text-anchor="middle" x="157" y="-220" font-family="Helvetica,sans-Serif" font-size="10.00" fill="grey"> &#45;_martingaleValidator</text>
</g>
<!-- Node3 -->
<g id="Node000003" class="node">
<title>Node3</title>
<g id="a_Node000003"><a xlink:href="../../d0/d00/classAlaris_1_1Strategy_1_1Core_1_1RegimeModelConfig.html" target="_top" xlink:title="Configuration for regime&#45;based model behavior.">
<polygon fill="white" stroke="transparent" points="311.5,-366 170.5,-366 170.5,-246 311.5,-246 311.5,-366"/>
<text text-anchor="start" x="179.5" y="-354" font-family="Helvetica,sans-Serif" font-size="10.00">Alaris.Strategy.Core.Regime</text>
<text text-anchor="start" x="214" y="-343" font-family="Helvetica,sans-Serif" font-size="10.00">ModelConfig</text>
<text text-anchor="start" x="175" y="-328" font-family="Helvetica,sans-Serif" font-size="10.00">+</text>
<text text-anchor="start" x="186" y="-328" font-family="Helvetica,sans-Serif" font-size="10.00">AutoSwitch</text>
<text text-anchor="start" x="175" y="-313" font-family="Helvetica,sans-Serif" font-size="10.00">+</text>
<text text-anchor="start" x="186" y="-313" font-family="Helvetica,sans-Serif" font-size="10.00">MinConfidence</text>
<text text-anchor="start" x="175" y="-298" font-family="Helvetica,sans-Serif" font-size="10.00">+</text>
<text text-anchor="start" x="186" y="-298" font-family="Helvetica,sans-Serif" font-size="10.00">AugmentWithEarningsJump</text>
<text text-anchor="start" x="175" y="-283" font-family="Helvetica,sans-Serif" font-size="10.00">+</text>
<text text-anchor="start" x="186" y="-283" font-family="Helvetica,sans-Serif" font-size="10.00">TransitionSmoothing</text>
<text text-anchor="start" x="175" y="-268" font-family="Helvetica,sans-Serif" font-size="10.00">+</text>
<text text-anchor="start" x="186" y="-268" font-family="Helvetica,sans-Serif" font-size="10.00">Default</text>
<text text-anchor="start" x="239.5" y="-253" font-family="Helvetica,sans-Serif" font-size="10.00"> </text>
<polygon fill="#666666" stroke="#666666" points="171,-338 171,-338 312,-338 312,-338 171,-338"/>
<polygon fill="#666666" stroke="#666666" points="171,-263 171,-263 184,-263 184,-263 171,-263"/>
<polygon fill="#666666" stroke="#666666" points="184,-263 184,-263 312,-263 312,-263 184,-263"/>
<polygon fill="none" stroke="#666666" points="170.5,-246 170.5,-366 311.5,-366 311.5,-246 170.5,-246"/>
</a>
</g>
</g>
<!-- Node3&#45;&gt;Node1 -->
<g id="edge2_Node000001_Node000003" class="edge">
<title>Node3&#45;&gt;Node1</title>
<g id="a_edge2_Node000001_Node000003"><a xlink:title=" ">
<path fill="none" stroke="#63b8ff" d="M219.19,-245.68C215.53,-236.07 211.71,-226.24 208,-217 207.12,-214.82 206.23,-212.61 205.33,-210.4"/>
<polygon fill="none" stroke="#63b8ff" points="205.29,-210.3 199.31,-206.27 200.74,-199.2 206.72,-203.23 205.29,-210.3"/>
</a>
</g>
<text text-anchor="middle" x="230" y="-220" font-family="Helvetica,sans-Serif" font-size="10.00" fill="grey"> &#45;_config</text>
</g>
</g>
</svg>
