<?xml version="1.0" encoding="UTF-8" standalone="no"?>
<!DOCTYPE svg PUBLIC "-//W3C//DTD SVG 1.1//EN"
 "http://www.w3.org/Graphics/SVG/1.1/DTD/svg11.dtd">
<!-- Generated by graphviz version 2.43.0 (0)
 -->
<!-- Title: Alaris.Host.Application.Cli.Settings.StrategyInfoSettings Pages: 1 -->
<svg width="162pt" height="268pt"
 viewBox="0.00 0.00 162.00 268.00" xmlns="http://www.w3.org/2000/svg" xmlns:xlink="http://www.w3.org/1999/xlink">

<svg id="main" version="1.1" xmlns="http://www.w3.org/2000/svg" xmlns:xlink="http://www.w3.org/1999/xlink" xml:space="preserve" onload="init(evt)">
<style type="text/css"><![CDATA[
.node, .edge {opacity: 0.7;}
.node.selected, .edge.selected {opacity: 1;}
.edge:hover path { stroke: red; }
.edge:hover polygon { stroke: red; fill: red; }
]]></style>
<script type="application/ecmascript" xlink:href="../../svg.min.js"/>
<svg id="graph" class="graph">
<g id="graph0" class="graph" transform="scale(1 1) rotate(0) translate(4 264)">
<title>Alaris.Host.Application.Cli.Settings.StrategyInfoSettings</title>
<!-- Node1 -->
<g id="Node000001" class="node">
<title>Node1</title>
<g id="a_Node000001"><a xlink:title="Settings for strategy info command. Component ID: CLse005A.">
<polygon fill="#999999" stroke="transparent" points="154,-60 0,-60 0,0 154,0 154,-60"/>
<text text-anchor="start" x="5" y="-48" font-family="Helvetica,sans-Serif" font-size="10.00">Alaris.Host.Application.</text>
<text text-anchor="start" x="5" y="-37" font-family="Helvetica,sans-Serif" font-size="10.00">Cli.Settings.StrategyInfoSettings</text>
<text text-anchor="start" x="31" y="-22" font-family="Helvetica,sans-Serif" font-size="10.00">+</text>
<text text-anchor="start" x="69" y="-22" font-family="Helvetica,sans-Serif" font-size="10.00">Name</text>
<text text-anchor="start" x="75" y="-7" font-family="Helvetica,sans-Serif" font-size="10.00"> </text>
<polygon fill="#666666" stroke="#666666" points="0,-32 0,-32 154,-32 154,-32 0,-32"/>
<polygon fill="#666666" stroke="#666666" points="0,-17 0,-17 67,-17 67,-17 0,-17"/>
<polygon fill="#666666" stroke="#666666" points="67,-17 67,-17 154,-17 154,-17 67,-17"/>
<polygon fill="none" stroke="#666666" points="0,0 0,-60 154,-60 154,0 0,0"/>
</a>
</g>
</g>
<!-- Node2 -->
<g id="Node000002" class="node">
<title>Node2</title>
<g id="a_Node000002"><a xlink:href="../../d4/d03/classAlaris_1_1Host_1_1Application_1_1Cli_1_1Infrastructure_1_1CLif004A.html" target="_top" xlink:title="Global settings inherited by all CLI commands. Component ID: CLif004A.">
<polygon fill="white" stroke="transparent" points="112,-175 42,-175 42,-96 112,-96 112,-175"/>
<text text-anchor="start" x="56.5" y="-162.5" font-family="Helvetica,sans-Serif" font-size="10.00">CLif004A</text>
<text text-anchor="start" x="46" y="-147.5" font-family="Helvetica,sans-Serif" font-size="10.00">+</text>
<text text-anchor="start" x="57" y="-147.5" font-family="Helvetica,sans-Serif" font-size="10.00">Verbose</text>
<text text-anchor="start" x="46" y="-132.5" font-family="Helvetica,sans-Serif" font-size="10.00">+</text>
<text text-anchor="start" x="57" y="-132.5" font-family="Helvetica,sans-Serif" font-size="10.00">JsonOutput</text>
<text text-anchor="start" x="46" y="-117.5" font-family="Helvetica,sans-Serif" font-size="10.00">+</text>
<text text-anchor="start" x="57" y="-117.5" font-family="Helvetica,sans-Serif" font-size="10.00">NoColor</text>
<text text-anchor="start" x="75" y="-102.5" font-family="Helvetica,sans-Serif" font-size="10.00"> </text>
<polygon fill="#666666" stroke="#666666" points="42,-157.5 42,-157.5 112,-157.5 112,-157.5 42,-157.5"/>
<polygon fill="#666666" stroke="#666666" points="42,-112.5 42,-112.5 55,-112.5 55,-112.5 42,-112.5"/>
<polygon fill="#666666" stroke="#666666" points="55,-112.5 55,-112.5 112,-112.5 112,-112.5 55,-112.5"/>
<polygon fill="none" stroke="#666666" points="42,-96 42,-175 112,-175 112,-96 42,-96"/>
</a>
</g>
</g>
<!-- Node2&#45;&gt;Node1 -->
<g id="edge1_Node000001_Node000002" class="edge">
<title>Node2&#45;&gt;Node1</title>
<g id="a_edge1_Node000001_Node000002"><a xlink:title=" ">
<path fill="none" stroke="#63b8ff" d="M77,-85.8C77,-77.04 77,-68.17 77,-60.19"/>
<polygon fill="none" stroke="#63b8ff" points="73.5,-85.96 77,-95.96 80.5,-85.96 73.5,-85.96"/>
</a>
</g>
</g>
<!-- Node3 -->
<g id="Node000003" class="node">
<title>Node3</title>
<g id="a_Node000003"><a xlink:title=" ">
<polygon fill="white" stroke="transparent" points="123,-260 31,-260 31,-211 123,-211 123,-260"/>
<text text-anchor="start" x="36" y="-247.5" font-family="Helvetica,sans-Serif" font-size="10.00">CommandSettings</text>
<text text-anchor="start" x="75" y="-232.5" font-family="Helvetica,sans-Serif" font-size="10.00"> </text>
<text text-anchor="start" x="75" y="-217.5" font-family="Helvetica,sans-Serif" font-size="10.00"> </text>
<polygon fill="#666666" stroke="#666666" points="31,-242.5 31,-242.5 123,-242.5 123,-242.5 31,-242.5"/>
<polygon fill="#666666" stroke="#666666" points="31,-227.5 31,-227.5 123,-227.5 123,-227.5 31,-227.5"/>
<polygon fill="none" stroke="#666666" points="31,-211 31,-260 123,-260 123,-211 31,-211"/>
</a>
</g>
</g>
<!-- Node3&#45;&gt;Node2 -->
<g id="edge2_Node000002_Node000003" class="edge">
<title>Node3&#45;&gt;Node2</title>
<g id="a_edge2_Node000002_Node000003"><a xlink:title=" ">
<path fill="none" stroke="#63b8ff" d="M77,-200.52C77,-192.38 77,-183.63 77,-175.29"/>
<polygon fill="none" stroke="#63b8ff" points="73.5,-200.78 77,-210.78 80.5,-200.78 73.5,-200.78"/>
</a>
</g>
</g>
</g>
</svg>
</svg>

<style type='text/css'>
<![CDATA[
[data-mouse-over-selected='false'] { opacity: 0.7; }
[data-mouse-over-selected='true']  { opacity: 1.0; }
]]>
</style>
<script type="application/ecmascript"><![CDATA[
document.addEventListener('DOMContentLoaded', (event) => {
  highlightEdges();
  highlightAdjacentNodes();
});
]]></script>
</svg>
