<?xml version="1.0" encoding="UTF-8" standalone="no"?>
<!DOCTYPE svg PUBLIC "-//W3C//DTD SVG 1.1//EN"
 "http://www.w3.org/Graphics/SVG/1.1/DTD/svg11.dtd">
<!-- Generated by graphviz version 2.43.0 (0)
 -->
<!-- Title: Alaris.Host.Application.Cli.Commands.Strategy.CLst001A Pages: 1 -->
<svg width="169pt" height="153pt"
 viewBox="0.00 0.00 169.00 153.00" xmlns="http://www.w3.org/2000/svg" xmlns:xlink="http://www.w3.org/1999/xlink">
<g id="graph0" class="graph" transform="scale(1 1) rotate(0) translate(4 149)">
<title>Alaris.Host.Application.Cli.Commands.Strategy.CLst001A</title>
<!-- Node1 -->
<g id="Node000001" class="node">
<title>Node1</title>
<g id="a_Node000001"><a xlink:title="Lists available trading strategies. Component ID: CLst001A.">
<polygon fill="#999999" stroke="transparent" points="161,-60 0,-60 0,0 161,0 161,-60"/>
<text text-anchor="start" x="5.5" y="-48" font-family="Helvetica,sans-Serif" font-size="10.00">Alaris.Host.Application.</text>
<text text-anchor="start" x="5.5" y="-37" font-family="Helvetica,sans-Serif" font-size="10.00">Cli.Commands.Strategy.CLst001A</text>
<text text-anchor="start" x="79" y="-22" font-family="Helvetica,sans-Serif" font-size="10.00"> </text>
<text text-anchor="start" x="29" y="-7" font-family="Helvetica,sans-Serif" font-size="10.00">+</text>
<text text-anchor="start" x="64.5" y="-7" font-family="Helvetica,sans-Serif" font-size="10.00">Execute()</text>
<polygon fill="#666666" stroke="#666666" points="0.5,-32 0.5,-32 161.5,-32 161.5,-32 0.5,-32"/>
<polygon fill="#666666" stroke="#666666" points="0.5,-17 0.5,-17 161.5,-17 161.5,-17 0.5,-17"/>
<polygon fill="none" stroke="#666666" points="0,0 0,-60 161,-60 161,0 0,0"/>
</a>
</g>
</g>
<!-- Node2 -->
<g id="Node000002" class="node">
<title>Node2</title>
<g id="a_Node000002"><a xlink:title=" ">
<polygon fill="white" stroke="transparent" points="137,-145 24,-145 24,-96 137,-96 137,-145"/>
<text text-anchor="start" x="29.5" y="-132.5" font-family="Helvetica,sans-Serif" font-size="10.00">Command&lt; CLif004A &gt;</text>
<text text-anchor="start" x="79" y="-117.5" font-family="Helvetica,sans-Serif" font-size="10.00"> </text>
<text text-anchor="start" x="79" y="-102.5" font-family="Helvetica,sans-Serif" font-size="10.00"> </text>
<polygon fill="#666666" stroke="#666666" points="24.5,-127.5 24.5,-127.5 137.5,-127.5 137.5,-127.5 24.5,-127.5"/>
<polygon fill="#666666" stroke="#666666" points="24.5,-112.5 24.5,-112.5 137.5,-112.5 137.5,-112.5 24.5,-112.5"/>
<polygon fill="none" stroke="#666666" points="24,-96 24,-145 137,-145 137,-96 24,-96"/>
</a>
</g>
</g>
<!-- Node2&#45;&gt;Node1 -->
<g id="edge1_Node000001_Node000002" class="edge">
<title>Node2&#45;&gt;Node1</title>
<g id="a_edge1_Node000001_Node000002"><a xlink:title=" ">
<path fill="none" stroke="#63b8ff" d="M80.5,-85.55C80.5,-77.18 80.5,-68.28 80.5,-60.16"/>
<polygon fill="none" stroke="#63b8ff" points="77,-85.78 80.5,-95.78 84,-85.78 77,-85.78"/>
</a>
</g>
</g>
</g>
</svg>
