<?xml version="1.0" encoding="UTF-8" standalone="no"?>
<!DOCTYPE svg PUBLIC "-//W3C//DTD SVG 1.1//EN"
 "http://www.w3.org/Graphics/SVG/1.1/DTD/svg11.dtd">
<!-- Generated by graphviz version 2.43.0 (0)
 -->
<!-- Title: Alaris.Core.Time.ITimeProvider Pages: 1 -->
<svg width="156pt" height="147pt"
 viewBox="0.00 0.00 156.00 147.00" xmlns="http://www.w3.org/2000/svg" xmlns:xlink="http://www.w3.org/1999/xlink">
<g id="graph0" class="graph" transform="scale(1 1) rotate(0) translate(4 143)">
<title>Alaris.Core.Time.ITimeProvider</title>
<!-- Node1 -->
<g id="Node000001" class="node">
<title>Node1</title>
<g id="a_Node000001"><a xlink:title="Provides time&#45;aware operations supporting both live and backtest modes.">
<polygon fill="#999999" stroke="transparent" points="148,-139 0,-139 0,0 148,0 148,-139"/>
<text text-anchor="start" x="5" y="-126.5" font-family="Helvetica,sans-Serif" font-size="10.00">Alaris.Core.Time.ITimeProvider</text>
<text text-anchor="start" x="21" y="-111.5" font-family="Helvetica,sans-Serif" font-size="10.00">+</text>
<text text-anchor="start" x="49" y="-111.5" font-family="Helvetica,sans-Serif" font-size="10.00">Now</text>
<text text-anchor="start" x="21" y="-96.5" font-family="Helvetica,sans-Serif" font-size="10.00">+</text>
<text text-anchor="start" x="49" y="-96.5" font-family="Helvetica,sans-Serif" font-size="10.00">Today</text>
<text text-anchor="start" x="21" y="-81.5" font-family="Helvetica,sans-Serif" font-size="10.00">+</text>
<text text-anchor="start" x="49" y="-81.5" font-family="Helvetica,sans-Serif" font-size="10.00">ZonedNow</text>
<text text-anchor="start" x="21" y="-66.5" font-family="Helvetica,sans-Serif" font-size="10.00">+</text>
<text text-anchor="start" x="49" y="-66.5" font-family="Helvetica,sans-Serif" font-size="10.00">TimeZone</text>
<text text-anchor="start" x="21" y="-51.5" font-family="Helvetica,sans-Serif" font-size="10.00">+</text>
<text text-anchor="start" x="49" y="-51.5" font-family="Helvetica,sans-Serif" font-size="10.00">ToInstant()</text>
<text text-anchor="start" x="21" y="-36.5" font-family="Helvetica,sans-Serif" font-size="10.00">+</text>
<text text-anchor="start" x="49" y="-36.5" font-family="Helvetica,sans-Serif" font-size="10.00">ToDateTime()</text>
<text text-anchor="start" x="21" y="-21.5" font-family="Helvetica,sans-Serif" font-size="10.00">+</text>
<text text-anchor="start" x="49" y="-21.5" font-family="Helvetica,sans-Serif" font-size="10.00">ToLocalDate()</text>
<text text-anchor="start" x="21" y="-6.5" font-family="Helvetica,sans-Serif" font-size="10.00">+</text>
<text text-anchor="start" x="49" y="-6.5" font-family="Helvetica,sans-Serif" font-size="10.00">ToDateTime()</text>
<polygon fill="#666666" stroke="#666666" points="0,-121.5 0,-121.5 148,-121.5 148,-121.5 0,-121.5"/>
<polygon fill="#666666" stroke="#666666" points="0,-61.5 0,-61.5 47,-61.5 47,-61.5 0,-61.5"/>
<polygon fill="#666666" stroke="#666666" points="47,-61.5 47,-61.5 148,-61.5 148,-61.5 47,-61.5"/>
<polygon fill="none" stroke="#666666" points="0,0 0,-139 148,-139 148,0 0,0"/>
</a>
</g>
</g>
</g>
</svg>
