<?xml version="1.0" encoding="UTF-8" standalone="no"?>
<!DOCTYPE svg PUBLIC "-//W3C//DTD SVG 1.1//EN"
 "http://www.w3.org/Graphics/SVG/1.1/DTD/svg11.dtd">
<!-- Generated by graphviz version 2.43.0 (0)
 -->
<!-- Title: Alaris.Strategy.Core.Numerical.STPR010A Pages: 1 -->
<svg width="156pt" height="98pt"
 viewBox="0.00 0.00 156.00 98.00" xmlns="http://www.w3.org/2000/svg" xmlns:xlink="http://www.w3.org/1999/xlink">
<g id="graph0" class="graph" transform="scale(1 1) rotate(0) translate(4 94)">
<title>Alaris.Strategy.Core.Numerical.STPR010A</title>
<!-- Node1 -->
<g id="Node000001" class="node">
<title>Node1</title>
<g id="a_Node000001"><a xlink:title="AVX2&#45;accelerated option chain batch pricing for high&#45;throughput Greeks computation....">
<polygon fill="#999999" stroke="transparent" points="148,-90 0,-90 0,0 148,0 148,-90"/>
<text text-anchor="start" x="5" y="-78" font-family="Helvetica,sans-Serif" font-size="10.00">Alaris.Strategy.Core.Numerical.</text>
<text text-anchor="start" x="49" y="-67" font-family="Helvetica,sans-Serif" font-size="10.00">STPR010A</text>
<text text-anchor="start" x="72" y="-52" font-family="Helvetica,sans-Serif" font-size="10.00"> </text>
<text text-anchor="start" x="10.5" y="-37" font-family="Helvetica,sans-Serif" font-size="10.00">+</text>
<text text-anchor="start" x="28" y="-37" font-family="Helvetica,sans-Serif" font-size="10.00">ComputeChainGreeks()</text>
<text text-anchor="start" x="10.5" y="-22" font-family="Helvetica,sans-Serif" font-size="10.00">+</text>
<text text-anchor="start" x="28" y="-22" font-family="Helvetica,sans-Serif" font-size="10.00">ComputeChainPrices()</text>
<text text-anchor="start" x="10.5" y="-7" font-family="Helvetica,sans-Serif" font-size="10.00">+</text>
<text text-anchor="start" x="28" y="-7" font-family="Helvetica,sans-Serif" font-size="10.00">ComputeChainDeltas()</text>
<polygon fill="#666666" stroke="#666666" points="0,-62 0,-62 148,-62 148,-62 0,-62"/>
<polygon fill="#666666" stroke="#666666" points="0,-47 0,-47 148,-47 148,-47 0,-47"/>
<polygon fill="none" stroke="#666666" points="0,0 0,-90 148,-90 148,0 0,0"/>
</a>
</g>
</g>
</g>
</svg>
