<?xml version="1.0" encoding="UTF-8" standalone="no"?>
<!DOCTYPE svg PUBLIC "-//W3C//DTD SVG 1.1//EN"
 "http://www.w3.org/Graphics/SVG/1.1/DTD/svg11.dtd">
<!-- Generated by graphviz version 2.43.0 (0)
 -->
<!-- Title: Alaris.Core.Time.ITimeProvider Pages: 1 -->
<svg width="280pt" height="423pt"
 viewBox="0.00 0.00 279.50 423.00" xmlns="http://www.w3.org/2000/svg" xmlns:xlink="http://www.w3.org/1999/xlink">

<svg id="main" version="1.1" xmlns="http://www.w3.org/2000/svg" xmlns:xlink="http://www.w3.org/1999/xlink" xml:space="preserve" onload="init(evt)">
<style type="text/css"><![CDATA[
.node, .edge {opacity: 0.7;}
.node.selected, .edge.selected {opacity: 1;}
.edge:hover path { stroke: red; }
.edge:hover polygon { stroke: red; fill: red; }
]]></style>
<script type="application/ecmascript" xlink:href="../../svg.min.js"/>
<svg id="graph" class="graph">
<g id="graph0" class="graph" transform="scale(1 1) rotate(0) translate(4 419)">
<title>Alaris.Core.Time.ITimeProvider</title>
<!-- Node1 -->
<g id="Node000001" class="node">
<title>Node1</title>
<g id="a_Node000001"><a xlink:title="Provides time&#45;aware operations supporting both live and backtest modes.">
<polygon fill="#999999" stroke="transparent" points="209,-415 61,-415 61,-276 209,-276 209,-415"/>
<text text-anchor="start" x="66" y="-402.5" font-family="Helvetica,sans-Serif" font-size="10.00">Alaris.Core.Time.ITimeProvider</text>
<text text-anchor="start" x="82" y="-387.5" font-family="Helvetica,sans-Serif" font-size="10.00">+</text>
<text text-anchor="start" x="110" y="-387.5" font-family="Helvetica,sans-Serif" font-size="10.00">Now</text>
<text text-anchor="start" x="82" y="-372.5" font-family="Helvetica,sans-Serif" font-size="10.00">+</text>
<text text-anchor="start" x="110" y="-372.5" font-family="Helvetica,sans-Serif" font-size="10.00">Today</text>
<text text-anchor="start" x="82" y="-357.5" font-family="Helvetica,sans-Serif" font-size="10.00">+</text>
<text text-anchor="start" x="110" y="-357.5" font-family="Helvetica,sans-Serif" font-size="10.00">ZonedNow</text>
<text text-anchor="start" x="82" y="-342.5" font-family="Helvetica,sans-Serif" font-size="10.00">+</text>
<text text-anchor="start" x="110" y="-342.5" font-family="Helvetica,sans-Serif" font-size="10.00">TimeZone</text>
<text text-anchor="start" x="82" y="-327.5" font-family="Helvetica,sans-Serif" font-size="10.00">+</text>
<text text-anchor="start" x="110" y="-327.5" font-family="Helvetica,sans-Serif" font-size="10.00">ToInstant()</text>
<text text-anchor="start" x="82" y="-312.5" font-family="Helvetica,sans-Serif" font-size="10.00">+</text>
<text text-anchor="start" x="110" y="-312.5" font-family="Helvetica,sans-Serif" font-size="10.00">ToDateTime()</text>
<text text-anchor="start" x="82" y="-297.5" font-family="Helvetica,sans-Serif" font-size="10.00">+</text>
<text text-anchor="start" x="110" y="-297.5" font-family="Helvetica,sans-Serif" font-size="10.00">ToLocalDate()</text>
<text text-anchor="start" x="82" y="-282.5" font-family="Helvetica,sans-Serif" font-size="10.00">+</text>
<text text-anchor="start" x="110" y="-282.5" font-family="Helvetica,sans-Serif" font-size="10.00">ToDateTime()</text>
<polygon fill="#666666" stroke="#666666" points="61,-397.5 61,-397.5 209,-397.5 209,-397.5 61,-397.5"/>
<polygon fill="#666666" stroke="#666666" points="61,-337.5 61,-337.5 108,-337.5 108,-337.5 61,-337.5"/>
<polygon fill="#666666" stroke="#666666" points="108,-337.5 108,-337.5 209,-337.5 209,-337.5 108,-337.5"/>
<polygon fill="none" stroke="#666666" points="61,-276 61,-415 209,-415 209,-276 61,-276"/>
</a>
</g>
</g>
<!-- Node2 -->
<g id="Node000002" class="node">
<title>Node2</title>
<g id="a_Node000002"><a xlink:href="../../d8/d03/classAlaris_1_1Core_1_1Time_1_1BacktestTimeProvider.html" target="_top" xlink:title="Time provider for backtesting using simulated time from LEAN algorithm.">
<polygon fill="white" stroke="transparent" points="126,-240 0,-240 0,0 126,0 126,-240"/>
<text text-anchor="start" x="5" y="-228" font-family="Helvetica,sans-Serif" font-size="10.00">Alaris.Core.Time.Backtest</text>
<text text-anchor="start" x="34" y="-217" font-family="Helvetica,sans-Serif" font-size="10.00">TimeProvider</text>
<text text-anchor="start" x="5" y="-202" font-family="Helvetica,sans-Serif" font-size="10.00">+</text>
<text text-anchor="start" x="17" y="-202" font-family="Helvetica,sans-Serif" font-size="10.00">Now</text>
<text text-anchor="start" x="5" y="-187" font-family="Helvetica,sans-Serif" font-size="10.00">+</text>
<text text-anchor="start" x="17" y="-187" font-family="Helvetica,sans-Serif" font-size="10.00">Today</text>
<text text-anchor="start" x="5" y="-172" font-family="Helvetica,sans-Serif" font-size="10.00">+</text>
<text text-anchor="start" x="17" y="-172" font-family="Helvetica,sans-Serif" font-size="10.00">ZonedNow</text>
<text text-anchor="start" x="5" y="-157" font-family="Helvetica,sans-Serif" font-size="10.00">+</text>
<text text-anchor="start" x="17" y="-157" font-family="Helvetica,sans-Serif" font-size="10.00">TimeZone</text>
<text text-anchor="start" x="6.5" y="-142" font-family="Helvetica,sans-Serif" font-size="10.00">&#45;</text>
<text text-anchor="start" x="17" y="-142" font-family="Helvetica,sans-Serif" font-size="10.00">_timeSource</text>
<text text-anchor="start" x="6.5" y="-127" font-family="Helvetica,sans-Serif" font-size="10.00">&#45;</text>
<text text-anchor="start" x="17" y="-127" font-family="Helvetica,sans-Serif" font-size="10.00">NyseTimeZone</text>
<text text-anchor="start" x="5" y="-112" font-family="Helvetica,sans-Serif" font-size="10.00">+</text>
<text text-anchor="start" x="17" y="-112" font-family="Helvetica,sans-Serif" font-size="10.00">BacktestTimeProvider()</text>
<text text-anchor="start" x="5" y="-97" font-family="Helvetica,sans-Serif" font-size="10.00">+</text>
<text text-anchor="start" x="17" y="-97" font-family="Helvetica,sans-Serif" font-size="10.00">BacktestTimeProvider()</text>
<text text-anchor="start" x="5" y="-82" font-family="Helvetica,sans-Serif" font-size="10.00">+</text>
<text text-anchor="start" x="17" y="-82" font-family="Helvetica,sans-Serif" font-size="10.00">BacktestTimeProvider()</text>
<text text-anchor="start" x="5" y="-67" font-family="Helvetica,sans-Serif" font-size="10.00">+</text>
<text text-anchor="start" x="17" y="-67" font-family="Helvetica,sans-Serif" font-size="10.00">ToInstant()</text>
<text text-anchor="start" x="5" y="-52" font-family="Helvetica,sans-Serif" font-size="10.00">+</text>
<text text-anchor="start" x="17" y="-52" font-family="Helvetica,sans-Serif" font-size="10.00">ToDateTime()</text>
<text text-anchor="start" x="5" y="-37" font-family="Helvetica,sans-Serif" font-size="10.00">+</text>
<text text-anchor="start" x="17" y="-37" font-family="Helvetica,sans-Serif" font-size="10.00">ToLocalDate()</text>
<text text-anchor="start" x="5" y="-22" font-family="Helvetica,sans-Serif" font-size="10.00">+</text>
<text text-anchor="start" x="17" y="-22" font-family="Helvetica,sans-Serif" font-size="10.00">ToDateTime()</text>
<text text-anchor="start" x="5" y="-7" font-family="Helvetica,sans-Serif" font-size="10.00">+</text>
<text text-anchor="start" x="17" y="-7" font-family="Helvetica,sans-Serif" font-size="10.00">WithTimeSource()</text>
<polygon fill="#666666" stroke="#666666" points="0,-212 0,-212 126,-212 126,-212 0,-212"/>
<polygon fill="#666666" stroke="#666666" points="0,-122 0,-122 15,-122 15,-122 0,-122"/>
<polygon fill="#666666" stroke="#666666" points="15,-122 15,-122 126,-122 126,-122 15,-122"/>
<polygon fill="none" stroke="#666666" points="0,0 0,-240 126,-240 126,0 0,0"/>
</a>
</g>
</g>
<!-- Node1&#45;&gt;Node2 -->
<g id="edge1_Node000001_Node000002" class="edge">
<title>Node1&#45;&gt;Node2</title>
<g id="a_edge1_Node000001_Node000002"><a xlink:title=" ">
<path fill="none" stroke="#63b8ff" d="M109.75,-266.13C107.03,-257.67 104.21,-248.93 101.38,-240.12"/>
<polygon fill="none" stroke="#63b8ff" points="106.51,-267.48 112.91,-275.92 113.17,-265.33 106.51,-267.48"/>
</a>
</g>
</g>
<!-- Node3 -->
<g id="Node000003" class="node">
<title>Node3</title>
<g id="a_Node000003"><a xlink:href="../../d6/d03/classAlaris_1_1Core_1_1Time_1_1LiveTimeProvider.html" target="_top" xlink:title="Time provider for live trading using the system clock.">
<polygon fill="white" stroke="transparent" points="271.5,-225 144.5,-225 144.5,-15 271.5,-15 271.5,-225"/>
<text text-anchor="start" x="150" y="-213" font-family="Helvetica,sans-Serif" font-size="10.00">Alaris.Core.Time.LiveTime</text>
<text text-anchor="start" x="190" y="-202" font-family="Helvetica,sans-Serif" font-size="10.00">Provider</text>
<text text-anchor="start" x="155.5" y="-187" font-family="Helvetica,sans-Serif" font-size="10.00">+</text>
<text text-anchor="start" x="173" y="-187" font-family="Helvetica,sans-Serif" font-size="10.00">Now</text>
<text text-anchor="start" x="155.5" y="-172" font-family="Helvetica,sans-Serif" font-size="10.00">+</text>
<text text-anchor="start" x="173" y="-172" font-family="Helvetica,sans-Serif" font-size="10.00">Today</text>
<text text-anchor="start" x="155.5" y="-157" font-family="Helvetica,sans-Serif" font-size="10.00">+</text>
<text text-anchor="start" x="173" y="-157" font-family="Helvetica,sans-Serif" font-size="10.00">ZonedNow</text>
<text text-anchor="start" x="155.5" y="-142" font-family="Helvetica,sans-Serif" font-size="10.00">+</text>
<text text-anchor="start" x="173" y="-142" font-family="Helvetica,sans-Serif" font-size="10.00">TimeZone</text>
<text text-anchor="start" x="157" y="-127" font-family="Helvetica,sans-Serif" font-size="10.00">&#45;</text>
<text text-anchor="start" x="173" y="-127" font-family="Helvetica,sans-Serif" font-size="10.00">_clock</text>
<text text-anchor="start" x="157" y="-112" font-family="Helvetica,sans-Serif" font-size="10.00">&#45;</text>
<text text-anchor="start" x="173" y="-112" font-family="Helvetica,sans-Serif" font-size="10.00">NyseTimeZone</text>
<text text-anchor="start" x="155.5" y="-97" font-family="Helvetica,sans-Serif" font-size="10.00">+</text>
<text text-anchor="start" x="173" y="-97" font-family="Helvetica,sans-Serif" font-size="10.00">LiveTimeProvider()</text>
<text text-anchor="start" x="155.5" y="-82" font-family="Helvetica,sans-Serif" font-size="10.00">+</text>
<text text-anchor="start" x="173" y="-82" font-family="Helvetica,sans-Serif" font-size="10.00">LiveTimeProvider()</text>
<text text-anchor="start" x="155.5" y="-67" font-family="Helvetica,sans-Serif" font-size="10.00">+</text>
<text text-anchor="start" x="173" y="-67" font-family="Helvetica,sans-Serif" font-size="10.00">ToInstant()</text>
<text text-anchor="start" x="155.5" y="-52" font-family="Helvetica,sans-Serif" font-size="10.00">+</text>
<text text-anchor="start" x="173" y="-52" font-family="Helvetica,sans-Serif" font-size="10.00">ToDateTime()</text>
<text text-anchor="start" x="155.5" y="-37" font-family="Helvetica,sans-Serif" font-size="10.00">+</text>
<text text-anchor="start" x="173" y="-37" font-family="Helvetica,sans-Serif" font-size="10.00">ToLocalDate()</text>
<text text-anchor="start" x="155.5" y="-22" font-family="Helvetica,sans-Serif" font-size="10.00">+</text>
<text text-anchor="start" x="173" y="-22" font-family="Helvetica,sans-Serif" font-size="10.00">ToDateTime()</text>
<polygon fill="#666666" stroke="#666666" points="145,-197 145,-197 272,-197 272,-197 145,-197"/>
<polygon fill="#666666" stroke="#666666" points="145,-107 145,-107 171,-107 171,-107 145,-107"/>
<polygon fill="#666666" stroke="#666666" points="171,-107 171,-107 272,-107 272,-107 171,-107"/>
<polygon fill="none" stroke="#666666" points="144.5,-15 144.5,-225 271.5,-225 271.5,-15 144.5,-15"/>
</a>
</g>
</g>
<!-- Node1&#45;&gt;Node3 -->
<g id="edge2_Node000001_Node000003" class="edge">
<title>Node1&#45;&gt;Node3</title>
<g id="a_edge2_Node000001_Node000003"><a xlink:title=" ">
<path fill="none" stroke="#63b8ff" d="M160.52,-266.38C164.86,-253.08 169.43,-239.08 173.95,-225.24"/>
<polygon fill="none" stroke="#63b8ff" points="157.18,-265.33 157.4,-275.92 163.83,-267.5 157.18,-265.33"/>
</a>
</g>
</g>
</g>
</svg>
</svg>

<style type='text/css'>
<![CDATA[
[data-mouse-over-selected='false'] { opacity: 0.7; }
[data-mouse-over-selected='true']  { opacity: 1.0; }
]]>
</style>
<script type="application/ecmascript"><![CDATA[
document.addEventListener('DOMContentLoaded', (event) => {
  highlightEdges();
  highlightAdjacentNodes();
});
]]></script>
</svg>
