<?xml version="1.0" encoding="UTF-8" standalone="no"?>
<!DOCTYPE svg PUBLIC "-//W3C//DTD SVG 1.1//EN"
 "http://www.w3.org/Graphics/SVG/1.1/DTD/svg11.dtd">
<!-- Generated by graphviz version 2.43.0 (0)
 -->
<!-- Title: Alaris.Infrastructure.Events.Core.EVCR004A Pages: 1 -->
<svg width="350pt" height="449pt"
 viewBox="0.00 0.00 350.00 449.00" xmlns="http://www.w3.org/2000/svg" xmlns:xlink="http://www.w3.org/1999/xlink">
<g id="graph0" class="graph" transform="scale(1 1) rotate(0) translate(4 445)">
<title>Alaris.Infrastructure.Events.Core.EVCR004A</title>
<!-- Node1 -->
<g id="Node000001" class="node">
<title>Node1</title>
<g id="a_Node000001"><a xlink:title="Interface for writing immutable audit logs. Audit logs provide a human&#45;readable trail of all system a...">
<polygon fill="#999999" stroke="transparent" points="252,-441 90,-441 90,-336 252,-336 252,-441"/>
<text text-anchor="start" x="109.5" y="-428.5" font-family="Helvetica,sans-Serif" font-size="10.00">Alaris.Infrastructure.Events.</text>
<text text-anchor="start" x="133" y="-417.5" font-family="Helvetica,sans-Serif" font-size="10.00">Core.EVCR004A</text>
<text text-anchor="start" x="169" y="-402.5" font-family="Helvetica,sans-Serif" font-size="10.00"> </text>
<text text-anchor="start" x="94" y="-387.5" font-family="Helvetica,sans-Serif" font-size="10.00">+</text>
<text text-anchor="start" x="105" y="-387.5" font-family="Helvetica,sans-Serif" font-size="10.00">LogAsync()</text>
<text text-anchor="start" x="94" y="-372.5" font-family="Helvetica,sans-Serif" font-size="10.00">+</text>
<text text-anchor="start" x="105" y="-372.5" font-family="Helvetica,sans-Serif" font-size="10.00">GetEntriesForEntityAsync()</text>
<text text-anchor="start" x="94" y="-357.5" font-family="Helvetica,sans-Serif" font-size="10.00">+</text>
<text text-anchor="start" x="105" y="-357.5" font-family="Helvetica,sans-Serif" font-size="10.00">GetEntriesByInitiatorAsync()</text>
<text text-anchor="start" x="94" y="-342.5" font-family="Helvetica,sans-Serif" font-size="10.00">+</text>
<text text-anchor="start" x="105" y="-342.5" font-family="Helvetica,sans-Serif" font-size="10.00">GetEntriesByTimeRangeAsync()</text>
<polygon fill="#666666" stroke="#666666" points="90,-412.5 90,-412.5 252,-412.5 252,-412.5 90,-412.5"/>
<polygon fill="#666666" stroke="#666666" points="90,-397.5 90,-397.5 252,-397.5 252,-397.5 90,-397.5"/>
<polygon fill="none" stroke="#666666" points="90,-336 90,-441 252,-441 252,-336 90,-336"/>
</a>
</g>
</g>
<!-- Node2 -->
<g id="Node000002" class="node">
<title>Node2</title>
<g id="a_Node000002"><a xlink:href="../../de/d00/classAlaris_1_1Infrastructure_1_1Events_1_1Infrastructure_1_1EVIF002A.html" target="_top" xlink:title="In&#45;memory implementation of EVCR004A for development and testing. NOT suitable for production use &#45; a...">
<polygon fill="white" stroke="transparent" points="162,-202.5 0,-202.5 0,-97.5 162,-97.5 162,-202.5"/>
<text text-anchor="start" x="19.5" y="-190" font-family="Helvetica,sans-Serif" font-size="10.00">Alaris.Infrastructure.Events.</text>
<text text-anchor="start" x="28" y="-179" font-family="Helvetica,sans-Serif" font-size="10.00">Infrastructure.EVIF002A</text>
<text text-anchor="start" x="5.5" y="-164" font-family="Helvetica,sans-Serif" font-size="10.00">&#45;</text>
<text text-anchor="start" x="15" y="-164" font-family="Helvetica,sans-Serif" font-size="10.00">_entries</text>
<text text-anchor="start" x="4" y="-149" font-family="Helvetica,sans-Serif" font-size="10.00">+</text>
<text text-anchor="start" x="15" y="-149" font-family="Helvetica,sans-Serif" font-size="10.00">LogAsync()</text>
<text text-anchor="start" x="4" y="-134" font-family="Helvetica,sans-Serif" font-size="10.00">+</text>
<text text-anchor="start" x="15" y="-134" font-family="Helvetica,sans-Serif" font-size="10.00">GetEntriesForEntityAsync()</text>
<text text-anchor="start" x="4" y="-119" font-family="Helvetica,sans-Serif" font-size="10.00">+</text>
<text text-anchor="start" x="15" y="-119" font-family="Helvetica,sans-Serif" font-size="10.00">GetEntriesByInitiatorAsync()</text>
<text text-anchor="start" x="4" y="-104" font-family="Helvetica,sans-Serif" font-size="10.00">+</text>
<text text-anchor="start" x="15" y="-104" font-family="Helvetica,sans-Serif" font-size="10.00">GetEntriesByTimeRangeAsync()</text>
<polygon fill="#666666" stroke="#666666" points="0,-174 0,-174 162,-174 162,-174 0,-174"/>
<polygon fill="#666666" stroke="#666666" points="0,-159 0,-159 13,-159 13,-159 0,-159"/>
<polygon fill="#666666" stroke="#666666" points="13,-159 13,-159 162,-159 162,-159 13,-159"/>
<polygon fill="none" stroke="#666666" points="0,-97.5 0,-202.5 162,-202.5 162,-97.5 0,-97.5"/>
</a>
</g>
</g>
<!-- Node1&#45;&gt;Node2 -->
<g id="edge1_Node000001_Node000002" class="edge">
<title>Node1&#45;&gt;Node2</title>
<g id="a_edge1_Node000001_Node000002"><a xlink:title=" ">
<path fill="none" stroke="#63b8ff" d="M147.75,-326.4C133.18,-288.12 114.61,-239.31 100.75,-202.91"/>
<polygon fill="none" stroke="#63b8ff" points="144.53,-327.79 151.36,-335.89 151.07,-325.3 144.53,-327.79"/>
</a>
</g>
</g>
<!-- Node3 -->
<g id="Node000003" class="node">
<title>Node3</title>
<g id="a_Node000003"><a xlink:href="../../dc/d03/classAlaris_1_1Infrastructure_1_1Events_1_1Infrastructure_1_1EVIF002B.html" target="_top" xlink:title="File&#45;based persistent implementation of EVCR004A for production use.">
<polygon fill="white" stroke="transparent" points="342,-300 180,-300 180,0 342,0 342,-300"/>
<text text-anchor="start" x="199.5" y="-288" font-family="Helvetica,sans-Serif" font-size="10.00">Alaris.Infrastructure.Events.</text>
<text text-anchor="start" x="208" y="-277" font-family="Helvetica,sans-Serif" font-size="10.00">Infrastructure.EVIF002B</text>
<text text-anchor="start" x="185.5" y="-262" font-family="Helvetica,sans-Serif" font-size="10.00">&#45;</text>
<text text-anchor="start" x="195" y="-262" font-family="Helvetica,sans-Serif" font-size="10.00">_storagePath</text>
<text text-anchor="start" x="185.5" y="-247" font-family="Helvetica,sans-Serif" font-size="10.00">&#45;</text>
<text text-anchor="start" x="195" y="-247" font-family="Helvetica,sans-Serif" font-size="10.00">_writeSemaphore</text>
<text text-anchor="start" x="185.5" y="-232" font-family="Helvetica,sans-Serif" font-size="10.00">&#45;</text>
<text text-anchor="start" x="195" y="-232" font-family="Helvetica,sans-Serif" font-size="10.00">_readSemaphore</text>
<text text-anchor="start" x="185.5" y="-217" font-family="Helvetica,sans-Serif" font-size="10.00">&#45;</text>
<text text-anchor="start" x="195" y="-217" font-family="Helvetica,sans-Serif" font-size="10.00">_disposed</text>
<text text-anchor="start" x="185.5" y="-202" font-family="Helvetica,sans-Serif" font-size="10.00">&#45;</text>
<text text-anchor="start" x="195" y="-202" font-family="Helvetica,sans-Serif" font-size="10.00">HeaderSize</text>
<text text-anchor="start" x="185.5" y="-187" font-family="Helvetica,sans-Serif" font-size="10.00">&#45;</text>
<text text-anchor="start" x="195" y="-187" font-family="Helvetica,sans-Serif" font-size="10.00">MaxRecordSize</text>
<text text-anchor="start" x="184" y="-172" font-family="Helvetica,sans-Serif" font-size="10.00">+</text>
<text text-anchor="start" x="195" y="-172" font-family="Helvetica,sans-Serif" font-size="10.00">EVIF002B()</text>
<text text-anchor="start" x="184" y="-157" font-family="Helvetica,sans-Serif" font-size="10.00">+</text>
<text text-anchor="start" x="195" y="-157" font-family="Helvetica,sans-Serif" font-size="10.00">LogAsync()</text>
<text text-anchor="start" x="184" y="-142" font-family="Helvetica,sans-Serif" font-size="10.00">+</text>
<text text-anchor="start" x="195" y="-142" font-family="Helvetica,sans-Serif" font-size="10.00">GetEntriesForEntityAsync()</text>
<text text-anchor="start" x="184" y="-127" font-family="Helvetica,sans-Serif" font-size="10.00">+</text>
<text text-anchor="start" x="195" y="-127" font-family="Helvetica,sans-Serif" font-size="10.00">GetEntriesByInitiatorAsync()</text>
<text text-anchor="start" x="184" y="-112" font-family="Helvetica,sans-Serif" font-size="10.00">+</text>
<text text-anchor="start" x="195" y="-112" font-family="Helvetica,sans-Serif" font-size="10.00">GetEntriesByTimeRangeAsync()</text>
<text text-anchor="start" x="184" y="-97" font-family="Helvetica,sans-Serif" font-size="10.00">+</text>
<text text-anchor="start" x="195" y="-97" font-family="Helvetica,sans-Serif" font-size="10.00">Dispose()</text>
<text text-anchor="start" x="185.5" y="-82" font-family="Helvetica,sans-Serif" font-size="10.00">&#45;</text>
<text text-anchor="start" x="195" y="-82" font-family="Helvetica,sans-Serif" font-size="10.00">GetLogPathForDate()</text>
<text text-anchor="start" x="185.5" y="-67" font-family="Helvetica,sans-Serif" font-size="10.00">&#45;</text>
<text text-anchor="start" x="195" y="-67" font-family="Helvetica,sans-Serif" font-size="10.00">GetLogFilesInRange()</text>
<text text-anchor="start" x="185.5" y="-52" font-family="Helvetica,sans-Serif" font-size="10.00">&#45;</text>
<text text-anchor="start" x="195" y="-52" font-family="Helvetica,sans-Serif" font-size="10.00">ReadAllEntriesAsync()</text>
<text text-anchor="start" x="185.5" y="-37" font-family="Helvetica,sans-Serif" font-size="10.00">&#45;</text>
<text text-anchor="start" x="195" y="-37" font-family="Helvetica,sans-Serif" font-size="10.00">SerializeAuditEntry()</text>
<text text-anchor="start" x="185.5" y="-22" font-family="Helvetica,sans-Serif" font-size="10.00">&#45;</text>
<text text-anchor="start" x="195" y="-22" font-family="Helvetica,sans-Serif" font-size="10.00">DeserializeAuditEntry()</text>
<text text-anchor="start" x="185.5" y="-7" font-family="Helvetica,sans-Serif" font-size="10.00">&#45;</text>
<text text-anchor="start" x="195" y="-7" font-family="Helvetica,sans-Serif" font-size="10.00">ReadEntriesFromFileAsync()</text>
<polygon fill="#666666" stroke="#666666" points="180,-272 180,-272 342,-272 342,-272 180,-272"/>
<polygon fill="#666666" stroke="#666666" points="180,-182 180,-182 193,-182 193,-182 180,-182"/>
<polygon fill="#666666" stroke="#666666" points="193,-182 193,-182 342,-182 342,-182 193,-182"/>
<polygon fill="none" stroke="#666666" points="180,0 180,-300 342,-300 342,0 180,0"/>
</a>
</g>
</g>
<!-- Node1&#45;&gt;Node3 -->
<g id="edge2_Node000001_Node000003" class="edge">
<title>Node1&#45;&gt;Node3</title>
<g id="a_edge2_Node000001_Node000003"><a xlink:title=" ">
<path fill="none" stroke="#63b8ff" d="M194.27,-326.35C197.45,-318.01 200.81,-309.17 204.27,-300.07"/>
<polygon fill="none" stroke="#63b8ff" points="190.93,-325.3 190.64,-335.89 197.47,-327.79 190.93,-325.3"/>
</a>
</g>
</g>
</g>
</svg>
