<?xml version="1.0" encoding="UTF-8" standalone="no"?>
<!DOCTYPE svg PUBLIC "-//W3C//DTD SVG 1.1//EN"
 "http://www.w3.org/Graphics/SVG/1.1/DTD/svg11.dtd">
<!-- Generated by graphviz version 2.43.0 (0)
 -->
<!-- Title: Alaris.Core.TermStructure.IVolatilitySurface Pages: 1 -->
<svg width="135pt" height="299pt"
 viewBox="0.00 0.00 135.00 299.00" xmlns="http://www.w3.org/2000/svg" xmlns:xlink="http://www.w3.org/1999/xlink">
<g id="graph0" class="graph" transform="scale(1 1) rotate(0) translate(4 295)">
<title>Alaris.Core.TermStructure.IVolatilitySurface</title>
<!-- Node1 -->
<g id="Node000001" class="node">
<title>Node1</title>
<g id="a_Node000001"><a xlink:title="Interface for Black volatility term structures (volatility surfaces). Replaces QuantLib BlackVolTermS...">
<polygon fill="#999999" stroke="transparent" points="127,-291 0,-291 0,-186 127,-186 127,-291"/>
<text text-anchor="start" x="5.5" y="-278.5" font-family="Helvetica,sans-Serif" font-size="10.00">Alaris.Core.TermStructure.</text>
<text text-anchor="start" x="26.5" y="-267.5" font-family="Helvetica,sans-Serif" font-size="10.00">IVolatilitySurface</text>
<text text-anchor="start" x="14" y="-252.5" font-family="Helvetica,sans-Serif" font-size="10.00">+</text>
<text text-anchor="start" x="34.5" y="-252.5" font-family="Helvetica,sans-Serif" font-size="10.00">ReferenceDate</text>
<text text-anchor="start" x="14" y="-237.5" font-family="Helvetica,sans-Serif" font-size="10.00">+</text>
<text text-anchor="start" x="34.5" y="-237.5" font-family="Helvetica,sans-Serif" font-size="10.00">DayCounter</text>
<text text-anchor="start" x="14" y="-222.5" font-family="Helvetica,sans-Serif" font-size="10.00">+</text>
<text text-anchor="start" x="34.5" y="-222.5" font-family="Helvetica,sans-Serif" font-size="10.00">BlackVol()</text>
<text text-anchor="start" x="14" y="-207.5" font-family="Helvetica,sans-Serif" font-size="10.00">+</text>
<text text-anchor="start" x="34.5" y="-207.5" font-family="Helvetica,sans-Serif" font-size="10.00">BlackVariance()</text>
<text text-anchor="start" x="14" y="-192.5" font-family="Helvetica,sans-Serif" font-size="10.00">+</text>
<text text-anchor="start" x="34.5" y="-192.5" font-family="Helvetica,sans-Serif" font-size="10.00">BlackVol()</text>
<polygon fill="#666666" stroke="#666666" points="0.5,-262.5 0.5,-262.5 127.5,-262.5 127.5,-262.5 0.5,-262.5"/>
<polygon fill="#666666" stroke="#666666" points="0.5,-232.5 0.5,-232.5 32.5,-232.5 32.5,-232.5 0.5,-232.5"/>
<polygon fill="#666666" stroke="#666666" points="32.5,-232.5 32.5,-232.5 127.5,-232.5 127.5,-232.5 32.5,-232.5"/>
<polygon fill="none" stroke="#666666" points="0,-186 0,-291 127,-291 127,-186 0,-186"/>
</a>
</g>
</g>
<!-- Node2 -->
<g id="Node000002" class="node">
<title>Node2</title>
<g id="a_Node000002"><a xlink:href="../../dc/d00/classAlaris_1_1Core_1_1TermStructure_1_1CRTS002AFlatVol.html" target="_top" xlink:title="Flat Black volatility surface with constant volatility. Replaces QuantLib BlackConstantVol.">
<polygon fill="white" stroke="transparent" points="127,-150 0,-150 0,0 127,0 127,-150"/>
<text text-anchor="start" x="5.5" y="-138" font-family="Helvetica,sans-Serif" font-size="10.00">Alaris.Core.TermStructure.</text>
<text text-anchor="start" x="23" y="-127" font-family="Helvetica,sans-Serif" font-size="10.00">CRTS002AFlatVol</text>
<text text-anchor="start" x="9.5" y="-112" font-family="Helvetica,sans-Serif" font-size="10.00">+</text>
<text text-anchor="start" x="25.5" y="-112" font-family="Helvetica,sans-Serif" font-size="10.00">ReferenceDate</text>
<text text-anchor="start" x="9.5" y="-97" font-family="Helvetica,sans-Serif" font-size="10.00">+</text>
<text text-anchor="start" x="25.5" y="-97" font-family="Helvetica,sans-Serif" font-size="10.00">DayCounter</text>
<text text-anchor="start" x="9.5" y="-82" font-family="Helvetica,sans-Serif" font-size="10.00">+</text>
<text text-anchor="start" x="25.5" y="-82" font-family="Helvetica,sans-Serif" font-size="10.00">Volatility</text>
<text text-anchor="start" x="11" y="-67" font-family="Helvetica,sans-Serif" font-size="10.00">&#45;</text>
<text text-anchor="start" x="25.5" y="-67" font-family="Helvetica,sans-Serif" font-size="10.00">_volatility</text>
<text text-anchor="start" x="9.5" y="-52" font-family="Helvetica,sans-Serif" font-size="10.00">+</text>
<text text-anchor="start" x="25.5" y="-52" font-family="Helvetica,sans-Serif" font-size="10.00">CRTS002AFlatVol()</text>
<text text-anchor="start" x="9.5" y="-37" font-family="Helvetica,sans-Serif" font-size="10.00">+</text>
<text text-anchor="start" x="25.5" y="-37" font-family="Helvetica,sans-Serif" font-size="10.00">BlackVol()</text>
<text text-anchor="start" x="9.5" y="-22" font-family="Helvetica,sans-Serif" font-size="10.00">+</text>
<text text-anchor="start" x="25.5" y="-22" font-family="Helvetica,sans-Serif" font-size="10.00">BlackVariance()</text>
<text text-anchor="start" x="9.5" y="-7" font-family="Helvetica,sans-Serif" font-size="10.00">+</text>
<text text-anchor="start" x="25.5" y="-7" font-family="Helvetica,sans-Serif" font-size="10.00">BlackVol()</text>
<polygon fill="#666666" stroke="#666666" points="0.5,-122 0.5,-122 127.5,-122 127.5,-122 0.5,-122"/>
<polygon fill="#666666" stroke="#666666" points="0.5,-62 0.5,-62 23.5,-62 23.5,-62 0.5,-62"/>
<polygon fill="#666666" stroke="#666666" points="23.5,-62 23.5,-62 127.5,-62 127.5,-62 23.5,-62"/>
<polygon fill="none" stroke="#666666" points="0,0 0,-150 127,-150 127,0 0,0"/>
</a>
</g>
</g>
<!-- Node1&#45;&gt;Node2 -->
<g id="edge1_Node000001_Node000002" class="edge">
<title>Node1&#45;&gt;Node2</title>
<g id="a_edge1_Node000001_Node000002"><a xlink:title=" ">
<path fill="none" stroke="#63b8ff" d="M63.5,-175.83C63.5,-167.39 63.5,-158.65 63.5,-150.01"/>
<polygon fill="none" stroke="#63b8ff" points="60,-175.96 63.5,-185.96 67,-175.96 60,-175.96"/>
</a>
</g>
</g>
</g>
</svg>
