<?xml version="1.0" encoding="UTF-8" standalone="no"?>
<!DOCTYPE svg PUBLIC "-//W3C//DTD SVG 1.1//EN"
 "http://www.w3.org/Graphics/SVG/1.1/DTD/svg11.dtd">
<!-- Generated by graphviz version 2.43.0 (0)
 -->
<!-- Title: Alaris.Core.Time.CRTM005A Pages: 1 -->
<svg width="288pt" height="577pt"
 viewBox="0.00 0.00 287.50 577.00" xmlns="http://www.w3.org/2000/svg" xmlns:xlink="http://www.w3.org/1999/xlink">
<g id="graph0" class="graph" transform="scale(1 1) rotate(0) translate(4 573)">
<title>Alaris.Core.Time.CRTM005A</title>
<!-- Node1 -->
<g id="Node000001" class="node">
<title>Node1</title>
<g id="a_Node000001"><a xlink:title="High&#45;performance date type with serial number representation. Matches QuantLib Date semantics for bin...">
<polygon fill="#999999" stroke="transparent" points="206.5,-484 67.5,-484 67.5,0 206.5,0 206.5,-484"/>
<text text-anchor="start" x="73" y="-472" font-family="Helvetica,sans-Serif" font-size="10.00">Alaris.Core.Time.CRTM005A</text>
<text text-anchor="start" x="84" y="-457" font-family="Helvetica,sans-Serif" font-size="10.00">+</text>
<text text-anchor="start" x="107" y="-457" font-family="Helvetica,sans-Serif" font-size="10.00">SerialNumber</text>
<text text-anchor="start" x="84" y="-442" font-family="Helvetica,sans-Serif" font-size="10.00">+</text>
<text text-anchor="start" x="107" y="-442" font-family="Helvetica,sans-Serif" font-size="10.00">Day</text>
<text text-anchor="start" x="84" y="-427" font-family="Helvetica,sans-Serif" font-size="10.00">+</text>
<text text-anchor="start" x="107" y="-427" font-family="Helvetica,sans-Serif" font-size="10.00">Month</text>
<text text-anchor="start" x="84" y="-412" font-family="Helvetica,sans-Serif" font-size="10.00">+</text>
<text text-anchor="start" x="107" y="-412" font-family="Helvetica,sans-Serif" font-size="10.00">Year</text>
<text text-anchor="start" x="84" y="-397" font-family="Helvetica,sans-Serif" font-size="10.00">+</text>
<text text-anchor="start" x="107" y="-397" font-family="Helvetica,sans-Serif" font-size="10.00">DayOfWeek</text>
<text text-anchor="start" x="84" y="-382" font-family="Helvetica,sans-Serif" font-size="10.00">+</text>
<text text-anchor="start" x="107" y="-382" font-family="Helvetica,sans-Serif" font-size="10.00">DayOfYear</text>
<text text-anchor="start" x="85.5" y="-367" font-family="Helvetica,sans-Serif" font-size="10.00">&#45;</text>
<text text-anchor="start" x="107" y="-367" font-family="Helvetica,sans-Serif" font-size="10.00">Epoch</text>
<text text-anchor="start" x="84" y="-352" font-family="Helvetica,sans-Serif" font-size="10.00">+</text>
<text text-anchor="start" x="107" y="-352" font-family="Helvetica,sans-Serif" font-size="10.00">CRTM005A()</text>
<text text-anchor="start" x="84" y="-337" font-family="Helvetica,sans-Serif" font-size="10.00">+</text>
<text text-anchor="start" x="107" y="-337" font-family="Helvetica,sans-Serif" font-size="10.00">CRTM005A()</text>
<text text-anchor="start" x="84" y="-322" font-family="Helvetica,sans-Serif" font-size="10.00">+</text>
<text text-anchor="start" x="107" y="-322" font-family="Helvetica,sans-Serif" font-size="10.00">CRTM005A()</text>
<text text-anchor="start" x="84" y="-307" font-family="Helvetica,sans-Serif" font-size="10.00">+</text>
<text text-anchor="start" x="107" y="-307" font-family="Helvetica,sans-Serif" font-size="10.00">ToDateTime()</text>
<text text-anchor="start" x="84" y="-292" font-family="Helvetica,sans-Serif" font-size="10.00">+</text>
<text text-anchor="start" x="107" y="-292" font-family="Helvetica,sans-Serif" font-size="10.00">AddDays()</text>
<text text-anchor="start" x="84" y="-277" font-family="Helvetica,sans-Serif" font-size="10.00">+</text>
<text text-anchor="start" x="107" y="-277" font-family="Helvetica,sans-Serif" font-size="10.00">AddMonths()</text>
<text text-anchor="start" x="84" y="-262" font-family="Helvetica,sans-Serif" font-size="10.00">+</text>
<text text-anchor="start" x="107" y="-262" font-family="Helvetica,sans-Serif" font-size="10.00">AddYears()</text>
<text text-anchor="start" x="84" y="-247" font-family="Helvetica,sans-Serif" font-size="10.00">+</text>
<text text-anchor="start" x="107" y="-247" font-family="Helvetica,sans-Serif" font-size="10.00">Equals()</text>
<text text-anchor="start" x="84" y="-232" font-family="Helvetica,sans-Serif" font-size="10.00">+</text>
<text text-anchor="start" x="107" y="-232" font-family="Helvetica,sans-Serif" font-size="10.00">Equals()</text>
<text text-anchor="start" x="84" y="-217" font-family="Helvetica,sans-Serif" font-size="10.00">+</text>
<text text-anchor="start" x="107" y="-217" font-family="Helvetica,sans-Serif" font-size="10.00">GetHashCode()</text>
<text text-anchor="start" x="84" y="-202" font-family="Helvetica,sans-Serif" font-size="10.00">+</text>
<text text-anchor="start" x="107" y="-202" font-family="Helvetica,sans-Serif" font-size="10.00">CompareTo()</text>
<text text-anchor="start" x="84" y="-187" font-family="Helvetica,sans-Serif" font-size="10.00">+</text>
<text text-anchor="start" x="107" y="-187" font-family="Helvetica,sans-Serif" font-size="10.00">ToString()</text>
<text text-anchor="start" x="84" y="-172" font-family="Helvetica,sans-Serif" font-size="10.00">+</text>
<text text-anchor="start" x="107" y="-172" font-family="Helvetica,sans-Serif" font-size="10.00">ToIsoString()</text>
<text text-anchor="start" x="84" y="-157" font-family="Helvetica,sans-Serif" font-size="10.00">+</text>
<text text-anchor="start" x="107" y="-157" font-family="Helvetica,sans-Serif" font-size="10.00">FromDateTime()</text>
<text text-anchor="start" x="84" y="-142" font-family="Helvetica,sans-Serif" font-size="10.00">+</text>
<text text-anchor="start" x="107" y="-142" font-family="Helvetica,sans-Serif" font-size="10.00">operator&#45;()</text>
<text text-anchor="start" x="84" y="-127" font-family="Helvetica,sans-Serif" font-size="10.00">+</text>
<text text-anchor="start" x="107" y="-127" font-family="Helvetica,sans-Serif" font-size="10.00">operator+()</text>
<text text-anchor="start" x="84" y="-112" font-family="Helvetica,sans-Serif" font-size="10.00">+</text>
<text text-anchor="start" x="107" y="-112" font-family="Helvetica,sans-Serif" font-size="10.00">Add()</text>
<text text-anchor="start" x="84" y="-97" font-family="Helvetica,sans-Serif" font-size="10.00">+</text>
<text text-anchor="start" x="107" y="-97" font-family="Helvetica,sans-Serif" font-size="10.00">Subtract()</text>
<text text-anchor="start" x="84" y="-82" font-family="Helvetica,sans-Serif" font-size="10.00">+</text>
<text text-anchor="start" x="107" y="-82" font-family="Helvetica,sans-Serif" font-size="10.00">operator==()</text>
<text text-anchor="start" x="84" y="-67" font-family="Helvetica,sans-Serif" font-size="10.00">+</text>
<text text-anchor="start" x="107" y="-67" font-family="Helvetica,sans-Serif" font-size="10.00">operator!=()</text>
<text text-anchor="start" x="84" y="-52" font-family="Helvetica,sans-Serif" font-size="10.00">+</text>
<text text-anchor="start" x="107" y="-52" font-family="Helvetica,sans-Serif" font-size="10.00">operator&lt;()</text>
<text text-anchor="start" x="84" y="-37" font-family="Helvetica,sans-Serif" font-size="10.00">+</text>
<text text-anchor="start" x="107" y="-37" font-family="Helvetica,sans-Serif" font-size="10.00">operator&lt;=()</text>
<text text-anchor="start" x="84" y="-22" font-family="Helvetica,sans-Serif" font-size="10.00">+</text>
<text text-anchor="start" x="107" y="-22" font-family="Helvetica,sans-Serif" font-size="10.00">operator&gt;()</text>
<text text-anchor="start" x="84" y="-7" font-family="Helvetica,sans-Serif" font-size="10.00">+</text>
<text text-anchor="start" x="107" y="-7" font-family="Helvetica,sans-Serif" font-size="10.00">operator&gt;=()</text>
<polygon fill="#666666" stroke="#666666" points="68,-467 68,-467 207,-467 207,-467 68,-467"/>
<polygon fill="#666666" stroke="#666666" points="68,-362 68,-362 105,-362 105,-362 68,-362"/>
<polygon fill="#666666" stroke="#666666" points="105,-362 105,-362 207,-362 207,-362 105,-362"/>
<polygon fill="none" stroke="#666666" points="67.5,0 67.5,-484 206.5,-484 206.5,0 67.5,0"/>
</a>
</g>
</g>
<!-- Node2 -->
<g id="Node000002" class="node">
<title>Node2</title>
<g id="a_Node000002"><a xlink:title=" ">
<polygon fill="white" stroke="transparent" points="126,-569 0,-569 0,-520 126,-520 126,-569"/>
<text text-anchor="start" x="5" y="-556.5" font-family="Helvetica,sans-Serif" font-size="10.00">IEquatable&lt; CRTM005A &gt;</text>
<text text-anchor="start" x="61" y="-541.5" font-family="Helvetica,sans-Serif" font-size="10.00"> </text>
<text text-anchor="start" x="61" y="-526.5" font-family="Helvetica,sans-Serif" font-size="10.00"> </text>
<polygon fill="#666666" stroke="#666666" points="0,-551.5 0,-551.5 126,-551.5 126,-551.5 0,-551.5"/>
<polygon fill="#666666" stroke="#666666" points="0,-536.5 0,-536.5 126,-536.5 126,-536.5 0,-536.5"/>
<polygon fill="none" stroke="#666666" points="0,-520 0,-569 126,-569 126,-520 0,-520"/>
</a>
</g>
</g>
<!-- Node2&#45;&gt;Node1 -->
<g id="edge1_Node000001_Node000002" class="edge">
<title>Node2&#45;&gt;Node1</title>
<g id="a_edge1_Node000001_Node000002"><a xlink:title=" ">
<path fill="none" stroke="#63b8ff" d="M71.22,-510.13C73.11,-502.44 75.27,-493.69 77.61,-484.15"/>
<polygon fill="none" stroke="#63b8ff" points="67.8,-509.37 68.81,-519.92 74.6,-511.05 67.8,-509.37"/>
</a>
</g>
</g>
<!-- Node3 -->
<g id="Node000003" class="node">
<title>Node3</title>
<g id="a_Node000003"><a xlink:title=" ">
<polygon fill="white" stroke="transparent" points="279.5,-569 144.5,-569 144.5,-520 279.5,-520 279.5,-569"/>
<text text-anchor="start" x="150" y="-556.5" font-family="Helvetica,sans-Serif" font-size="10.00">IComparable&lt; CRTM005A &gt;</text>
<text text-anchor="start" x="210.5" y="-541.5" font-family="Helvetica,sans-Serif" font-size="10.00"> </text>
<text text-anchor="start" x="210.5" y="-526.5" font-family="Helvetica,sans-Serif" font-size="10.00"> </text>
<polygon fill="#666666" stroke="#666666" points="145,-551.5 145,-551.5 280,-551.5 280,-551.5 145,-551.5"/>
<polygon fill="#666666" stroke="#666666" points="145,-536.5 145,-536.5 280,-536.5 280,-536.5 145,-536.5"/>
<polygon fill="none" stroke="#666666" points="144.5,-520 144.5,-569 279.5,-569 279.5,-520 144.5,-520"/>
</a>
</g>
</g>
<!-- Node3&#45;&gt;Node1 -->
<g id="edge2_Node000001_Node000003" class="edge">
<title>Node3&#45;&gt;Node1</title>
<g id="a_edge2_Node000001_Node000003"><a xlink:title=" ">
<path fill="none" stroke="#63b8ff" d="M203.67,-510.13C201.75,-502.44 199.57,-493.69 197.19,-484.15"/>
<polygon fill="none" stroke="#63b8ff" points="200.3,-511.07 206.11,-519.92 207.09,-509.37 200.3,-511.07"/>
</a>
</g>
</g>
</g>
</svg>
