<?xml version="1.0" encoding="UTF-8" standalone="no"?>
<!DOCTYPE svg PUBLIC "-//W3C//DTD SVG 1.1//EN"
 "http://www.w3.org/Graphics/SVG/1.1/DTD/svg11.dtd">
<!-- Generated by graphviz version 2.43.0 (0)
 -->
<!-- Title: Alaris.Core.Pricing.CREN003A Pages: 1 -->
<svg width="155pt" height="427pt"
 viewBox="0.00 0.00 155.00 427.00" xmlns="http://www.w3.org/2000/svg" xmlns:xlink="http://www.w3.org/1999/xlink">
<g id="graph0" class="graph" transform="scale(1 1) rotate(0) translate(4 423)">
<title>Alaris.Core.Pricing.CREN003A</title>
<!-- Node1 -->
<g id="Node000001" class="node">
<title>Node1</title>
<g id="a_Node000001"><a xlink:title="Unified American option pricing engine. Automatically selects the appropriate method based on rate re...">
<polygon fill="#999999" stroke="transparent" points="147,-259 0,-259 0,0 147,0 147,-259"/>
<text text-anchor="start" x="5.5" y="-246.5" font-family="Helvetica,sans-Serif" font-size="10.00">Alaris.Core.Pricing.CREN003A</text>
<text text-anchor="start" x="11" y="-231.5" font-family="Helvetica,sans-Serif" font-size="10.00">&#45;</text>
<text text-anchor="start" x="25.5" y="-231.5" font-family="Helvetica,sans-Serif" font-size="10.00">_spectralEngine</text>
<text text-anchor="start" x="11" y="-216.5" font-family="Helvetica,sans-Serif" font-size="10.00">&#45;</text>
<text text-anchor="start" x="25.5" y="-216.5" font-family="Helvetica,sans-Serif" font-size="10.00">_fdEngine</text>
<text text-anchor="start" x="11" y="-201.5" font-family="Helvetica,sans-Serif" font-size="10.00">&#45;</text>
<text text-anchor="start" x="25.5" y="-201.5" font-family="Helvetica,sans-Serif" font-size="10.00">_nearExpiryHandler</text>
<text text-anchor="start" x="11" y="-186.5" font-family="Helvetica,sans-Serif" font-size="10.00">&#45;</text>
<text text-anchor="start" x="25.5" y="-186.5" font-family="Helvetica,sans-Serif" font-size="10.00">_enforceInvariants</text>
<text text-anchor="start" x="9.5" y="-171.5" font-family="Helvetica,sans-Serif" font-size="10.00">+</text>
<text text-anchor="start" x="25.5" y="-171.5" font-family="Helvetica,sans-Serif" font-size="10.00">CREN003A()</text>
<text text-anchor="start" x="9.5" y="-156.5" font-family="Helvetica,sans-Serif" font-size="10.00">+</text>
<text text-anchor="start" x="25.5" y="-156.5" font-family="Helvetica,sans-Serif" font-size="10.00">CREN003A()</text>
<text text-anchor="start" x="9.5" y="-141.5" font-family="Helvetica,sans-Serif" font-size="10.00">+</text>
<text text-anchor="start" x="25.5" y="-141.5" font-family="Helvetica,sans-Serif" font-size="10.00">Price()</text>
<text text-anchor="start" x="9.5" y="-126.5" font-family="Helvetica,sans-Serif" font-size="10.00">+</text>
<text text-anchor="start" x="25.5" y="-126.5" font-family="Helvetica,sans-Serif" font-size="10.00">Delta()</text>
<text text-anchor="start" x="9.5" y="-111.5" font-family="Helvetica,sans-Serif" font-size="10.00">+</text>
<text text-anchor="start" x="25.5" y="-111.5" font-family="Helvetica,sans-Serif" font-size="10.00">Gamma()</text>
<text text-anchor="start" x="9.5" y="-96.5" font-family="Helvetica,sans-Serif" font-size="10.00">+</text>
<text text-anchor="start" x="25.5" y="-96.5" font-family="Helvetica,sans-Serif" font-size="10.00">Theta()</text>
<text text-anchor="start" x="9.5" y="-81.5" font-family="Helvetica,sans-Serif" font-size="10.00">+</text>
<text text-anchor="start" x="25.5" y="-81.5" font-family="Helvetica,sans-Serif" font-size="10.00">Vega()</text>
<text text-anchor="start" x="9.5" y="-66.5" font-family="Helvetica,sans-Serif" font-size="10.00">+</text>
<text text-anchor="start" x="25.5" y="-66.5" font-family="Helvetica,sans-Serif" font-size="10.00">Rho()</text>
<text text-anchor="start" x="9.5" y="-51.5" font-family="Helvetica,sans-Serif" font-size="10.00">+</text>
<text text-anchor="start" x="25.5" y="-51.5" font-family="Helvetica,sans-Serif" font-size="10.00">PriceWithDetails()</text>
<text text-anchor="start" x="11" y="-36.5" font-family="Helvetica,sans-Serif" font-size="10.00">&#45;</text>
<text text-anchor="start" x="25.5" y="-36.5" font-family="Helvetica,sans-Serif" font-size="10.00">EnforceInvariants()</text>
<text text-anchor="start" x="11" y="-21.5" font-family="Helvetica,sans-Serif" font-size="10.00">&#45;</text>
<text text-anchor="start" x="25.5" y="-21.5" font-family="Helvetica,sans-Serif" font-size="10.00">BlackScholesEuropean()</text>
<text text-anchor="start" x="11" y="-6.5" font-family="Helvetica,sans-Serif" font-size="10.00">&#45;</text>
<text text-anchor="start" x="25.5" y="-6.5" font-family="Helvetica,sans-Serif" font-size="10.00">ValidateParameters()</text>
<polygon fill="#666666" stroke="#666666" points="0.5,-241.5 0.5,-241.5 147.5,-241.5 147.5,-241.5 0.5,-241.5"/>
<polygon fill="#666666" stroke="#666666" points="0.5,-181.5 0.5,-181.5 23.5,-181.5 23.5,-181.5 0.5,-181.5"/>
<polygon fill="#666666" stroke="#666666" points="23.5,-181.5 23.5,-181.5 147.5,-181.5 147.5,-181.5 23.5,-181.5"/>
<polygon fill="none" stroke="#666666" points="0,0 0,-259 147,-259 147,0 0,0"/>
</a>
</g>
</g>
<!-- Node2 -->
<g id="Node000002" class="node">
<title>Node2</title>
<g id="a_Node000002"><a xlink:href="../../d9/d01/interfaceAlaris_1_1Core_1_1Pricing_1_1IAmericanOptionEngine.html" target="_top" xlink:title="Interface for American option pricing engines.">
<polygon fill="white" stroke="transparent" points="130,-419 17,-419 17,-295 130,-295 130,-419"/>
<text text-anchor="start" x="22.5" y="-407" font-family="Helvetica,sans-Serif" font-size="10.00">IAmericanOptionEngine</text>
<text text-anchor="start" x="72" y="-392" font-family="Helvetica,sans-Serif" font-size="10.00"> </text>
<text text-anchor="start" x="34.5" y="-377" font-family="Helvetica,sans-Serif" font-size="10.00">+</text>
<text text-anchor="start" x="58.5" y="-377" font-family="Helvetica,sans-Serif" font-size="10.00">Price()</text>
<text text-anchor="start" x="34.5" y="-362" font-family="Helvetica,sans-Serif" font-size="10.00">+</text>
<text text-anchor="start" x="58.5" y="-362" font-family="Helvetica,sans-Serif" font-size="10.00">Delta()</text>
<text text-anchor="start" x="34.5" y="-347" font-family="Helvetica,sans-Serif" font-size="10.00">+</text>
<text text-anchor="start" x="58.5" y="-347" font-family="Helvetica,sans-Serif" font-size="10.00">Gamma()</text>
<text text-anchor="start" x="34.5" y="-332" font-family="Helvetica,sans-Serif" font-size="10.00">+</text>
<text text-anchor="start" x="58.5" y="-332" font-family="Helvetica,sans-Serif" font-size="10.00">Vega()</text>
<text text-anchor="start" x="34.5" y="-317" font-family="Helvetica,sans-Serif" font-size="10.00">+</text>
<text text-anchor="start" x="58.5" y="-317" font-family="Helvetica,sans-Serif" font-size="10.00">Theta()</text>
<text text-anchor="start" x="34.5" y="-302" font-family="Helvetica,sans-Serif" font-size="10.00">+</text>
<text text-anchor="start" x="58.5" y="-302" font-family="Helvetica,sans-Serif" font-size="10.00">Rho()</text>
<polygon fill="#666666" stroke="#666666" points="17.5,-402 17.5,-402 130.5,-402 130.5,-402 17.5,-402"/>
<polygon fill="#666666" stroke="#666666" points="17.5,-387 17.5,-387 130.5,-387 130.5,-387 17.5,-387"/>
<polygon fill="none" stroke="#666666" points="17,-295 17,-419 130,-419 130,-295 17,-295"/>
</a>
</g>
</g>
<!-- Node2&#45;&gt;Node1 -->
<g id="edge1_Node000001_Node000002" class="edge">
<title>Node2&#45;&gt;Node1</title>
<g id="a_edge1_Node000001_Node000002"><a xlink:title=" ">
<path fill="none" stroke="#63b8ff" d="M73.5,-284.77C73.5,-276.56 73.5,-268 73.5,-259.32"/>
<polygon fill="none" stroke="#63b8ff" points="70,-284.98 73.5,-294.98 77,-284.98 70,-284.98"/>
</a>
</g>
</g>
</g>
</svg>
