<?xml version="1.0" encoding="UTF-8" standalone="no"?>
<!DOCTYPE svg PUBLIC "-//W3C//DTD SVG 1.1//EN"
 "http://www.w3.org/Graphics/SVG/1.1/DTD/svg11.dtd">
<!-- Generated by graphviz version 2.43.0 (0)
 -->
<!-- Title: src/Alaris.Test Pages: 1 -->
<!--zoomable 126 -->

<svg id="main" version="1.1" xmlns="http://www.w3.org/2000/svg" xmlns:xlink="http://www.w3.org/1999/xlink" xml:space="preserve" onload="init(evt)">
<style type="text/css"><![CDATA[
.node, .edge {opacity: 0.7;}
.node.selected, .edge.selected {opacity: 1;}
.edge:hover path { stroke: red; }
.edge:hover polygon { stroke: red; fill: red; }
]]></style>

<defs>
  <circle id="rim" cx="0" cy="0" r="7"/>
  <circle id="rim2" cx="0" cy="0" r="3.5"/>
  <g id="zoomPlus">
    <use xlink:href="#rim" fill="#404040"><set attributeName="fill" to="#808080" begin="zoomplus.mouseover" end="zoomplus.mouseout"/></use>
    <path d="M-4,0h8M0,-4v8" fill="none" stroke="white" stroke-width="1.5" pointer-events="none"/>
  </g>
  <g id="zoomMin">
    <use xlink:href="#rim" fill="#404040"><set attributeName="fill" to="#808080" begin="zoomminus.mouseover" end="zoomminus.mouseout"/></use>
    <path d="M-4,0h8" fill="none" stroke="white" stroke-width="1.5" pointer-events="none"/>
  </g>
  <g id="arrowUp" transform="translate(30 24)">
    <use xlink:href="#rim"/>
    <path pointer-events="none" fill="none" stroke="white" stroke-width="1.5" d="M0,-3.0v7 M-2.5,-0.5L0,-3.0L2.5,-0.5"/>
  </g>
  <g id="arrowRight" transform="rotate(90) translate(36 -43)">
    <use xlink:href="#rim"/>
    <path pointer-events="none" fill="none" stroke="white" stroke-width="1.5" d="M0,-3.0v7 M-2.5,-0.5L0,-3.0L2.5,-0.5"/>
  </g>
  <g id="arrowDown" transform="rotate(180) translate(-30 -48)">
    <use xlink:href="#rim"/>
    <path pointer-events="none" fill="none" stroke="white" stroke-width="1.5" d="M0,-3.0v7 M-2.5,-0.5L0,-3.0L2.5,-0.5"/>
  </g>
  <g id="arrowLeft" transform="rotate(270) translate(-36 17)">
    <use xlink:href="#rim"/>
    <path pointer-events="none" fill="none" stroke="white" stroke-width="1.5" d="M0,-3.0v7 M-2.5,-0.5L0,-3.0L2.5,-0.5"/>
  </g>
  <g id="resetDef">
    <use xlink:href="#rim2" fill="#404040"><set attributeName="fill" to="#808080" begin="reset.mouseover" end="reset.mouseout"/></use>
  </g>
</defs>
<script type="application/ecmascript">
var viewWidth = 825;
var viewHeight = 126;
var sectionId = 'dynsection-0';
</script>
<script type="application/ecmascript" xlink:href="svg.min.js"/>
<svg id="graph" class="graph">
<g id="viewport">
<title>src/Alaris.Test</title>
<g id="clust1" class="cluster">
<title>clusterdir_68267d1309a1af8e8297ef4c3efbcdba</title>
<g id="a_clust1"><a xlink:href="dir_68267d1309a1af8e8297ef4c3efbcdba.html" target="_top" xlink:title="src">
<polygon fill="#edf0f7" stroke="#404040" stroke-dasharray="5,2" points="8,-8 8,-110 809,-110 809,-8 8,-8"/>
<text text-anchor="middle" x="408.5" y="-98" font-family="Helvetica,sans-Serif" font-size="10.00">src</text>
</a>
</g>
</g>
<g id="clust2" class="cluster">
<title>clusterdir_ee5b694e383261ce753e25a339c4fdf4</title>
<g id="a_clust2"><a xlink:href="dir_ee5b694e383261ce753e25a339c4fdf4.html" target="_top">
<polygon fill="#edf0f7" stroke="#404040" stroke-width="2" points="16,-16 16,-83 801,-83 801,-16 16,-16"/>
</a>
</g>
</g>
<g id="clust3" class="cluster">
<title>clusterdir_f9f954232aa7ff0ac2a3e045dc138e05</title>
<g id="a_clust3"><a xlink:href="dir_f9f954232aa7ff0ac2a3e045dc138e05.html" target="_top">
<polygon fill="#dfe5f1" stroke="#404040" points="335,-24 335,-75 793,-75 793,-24 335,-24"/>
</a>
</g>
</g>
<g id="clust4" class="cluster">
<title>clusterdir_5624ef88f7bec0078dab8c44689c3730</title>
<g id="a_clust4"><a xlink:href="dir_5624ef88f7bec0078dab8c44689c3730.html" target="_top">
<polygon fill="#d0d9ea" stroke="#404040" points="389,-32 389,-67 785,-67 785,-32 389,-32"/>
</a>
</g>
</g>
<!-- dir_ee5b694e383261ce753e25a339c4fdf4 -->
<g id="node1" class="node">
<title>dir_ee5b694e383261ce753e25a339c4fdf4</title>
<text text-anchor="middle" x="294" y="-47" font-family="Helvetica,sans-Serif" font-size="10.00">Alaris.Test</text>
</g>
<!-- dir_ca20c4d7b57a14821518c49067bba6c0 -->
<g id="node2" class="node">
<title>dir_ca20c4d7b57a14821518c49067bba6c0</title>
<g id="a_node2"><a xlink:href="dir_ca20c4d7b57a14821518c49067bba6c0.html" target="_top" xlink:title="Backtest">
<polygon fill="#dfe5f1" stroke="#404040" points="244,-59 188,-59 188,-40 244,-40 244,-59"/>
<text text-anchor="middle" x="216" y="-47" font-family="Helvetica,sans-Serif" font-size="10.00">Backtest</text>
</a>
</g>
</g>
<!-- dir_cf82e46f756193ffe9d6598bd08e06f1 -->
<g id="node3" class="node">
<title>dir_cf82e46f756193ffe9d6598bd08e06f1</title>
<g id="a_node3"><a xlink:href="dir_cf82e46f756193ffe9d6598bd08e06f1.html" target="_top" xlink:title="Benchmark">
<polygon fill="#dfe5f1" stroke="#404040" points="170,-59 104,-59 104,-40 170,-40 170,-59"/>
<text text-anchor="middle" x="137" y="-47" font-family="Helvetica,sans-Serif" font-size="10.00">Benchmark</text>
</a>
</g>
</g>
<!-- dir_e529cbcdcb540209d4656457154ccd6e -->
<g id="node4" class="node">
<title>dir_e529cbcdcb540209d4656457154ccd6e</title>
<g id="a_node4"><a xlink:href="dir_e529cbcdcb540209d4656457154ccd6e.html" target="_top" xlink:title="Integration">
<polygon fill="#dfe5f1" stroke="#404040" points="86,-59 24,-59 24,-40 86,-40 86,-59"/>
<text text-anchor="middle" x="55" y="-47" font-family="Helvetica,sans-Serif" font-size="10.00">Integration</text>
</a>
</g>
</g>
<!-- dir_f9f954232aa7ff0ac2a3e045dc138e05 -->
<g id="node5" class="node">
<title>dir_f9f954232aa7ff0ac2a3e045dc138e05</title>
<text text-anchor="middle" x="361" y="-47" font-family="Helvetica,sans-Serif" font-size="10.00">Unit</text>
</g>
<!-- dir_5624ef88f7bec0078dab8c44689c3730 -->
<g id="node6" class="node">
<title>dir_5624ef88f7bec0078dab8c44689c3730</title>
<text text-anchor="middle" x="758" y="-47" font-family="Helvetica,sans-Serif" font-size="10.00">Core</text>
</g>
<!-- dir_54d50a437341a6879d14f49ac88a0e1e -->
<g id="node7" class="node">
<title>dir_54d50a437341a6879d14f49ac88a0e1e</title>
<g id="a_node7"><a xlink:href="dir_54d50a437341a6879d14f49ac88a0e1e.html" target="_top" xlink:title="Math">
<polygon fill="#c1cde4" stroke="#404040" points="721,-59 683,-59 683,-40 721,-40 721,-59"/>
<text text-anchor="middle" x="702" y="-47" font-family="Helvetica,sans-Serif" font-size="10.00">Math</text>
</a>
</g>
</g>
<!-- dir_bb9c5856cacb6c6b767607afa07a0aa2 -->
<g id="node8" class="node">
<title>dir_bb9c5856cacb6c6b767607afa07a0aa2</title>
<g id="a_node8"><a xlink:href="dir_bb9c5856cacb6c6b767607afa07a0aa2.html" target="_top" xlink:title="Options">
<polygon fill="#c1cde4" stroke="#404040" points="665,-59 615,-59 615,-40 665,-40 665,-59"/>
<text text-anchor="middle" x="640" y="-47" font-family="Helvetica,sans-Serif" font-size="10.00">Options</text>
</a>
</g>
</g>
<!-- dir_9cea07d93628749d45e47226680e4747 -->
<g id="node9" class="node">
<title>dir_9cea07d93628749d45e47226680e4747</title>
<g id="a_node9"><a xlink:href="dir_9cea07d93628749d45e47226680e4747.html" target="_top" xlink:title="Pricing">
<polygon fill="#c1cde4" stroke="#404040" points="596.5,-59 549.5,-59 549.5,-40 596.5,-40 596.5,-59"/>
<text text-anchor="middle" x="573" y="-47" font-family="Helvetica,sans-Serif" font-size="10.00">Pricing</text>
</a>
</g>
</g>
<!-- dir_a6d310dd484f2e833d75df81e5971cda -->
<g id="node10" class="node">
<title>dir_a6d310dd484f2e833d75df81e5971cda</title>
<g id="a_node10"><a xlink:href="dir_a6d310dd484f2e833d75df81e5971cda.html" target="_top" xlink:title="TermStructure">
<polygon fill="#c1cde4" stroke="#404040" points="531,-59 453,-59 453,-40 531,-40 531,-59"/>
<text text-anchor="middle" x="492" y="-47" font-family="Helvetica,sans-Serif" font-size="10.00">TermStructure</text>
</a>
</g>
</g>
<!-- dir_07c6f0edeeac21f16e18b65895df4001 -->
<g id="node11" class="node">
<title>dir_07c6f0edeeac21f16e18b65895df4001</title>
<g id="a_node11"><a xlink:href="dir_07c6f0edeeac21f16e18b65895df4001.html" target="_top" xlink:title="Time">
<polygon fill="#c1cde4" stroke="#404040" points="435,-59 397,-59 397,-40 435,-40 435,-59"/>
<text text-anchor="middle" x="416" y="-47" font-family="Helvetica,sans-Serif" font-size="10.00">Time</text>
</a>
</g>
</g>
</g>
</svg>

<g id="navigator" transform="translate(0 0)" fill="#404254">
  <rect fill="#f2f5e9" fill-opacity="0.5" stroke="#606060" stroke-width=".5" x="0" y="0" width="60" height="60"/>
  <use id="zoomplus" xlink:href="#zoomPlus" x="17" y="9" onmousedown="handleZoom(evt,'in')"/>
  <use id="zoomminus" xlink:href="#zoomMin" x="42" y="9" onmousedown="handleZoom(evt,'out')"/>
  <use id="reset" xlink:href="#resetDef" x="30" y="36" onmousedown="handleReset()"/>
   <use id="arrowup" xlink:href="#arrowUp" x="0" y="0" onmousedown="handlePan(0,-1)"/>
  <use id="arrowright" xlink:href="#arrowRight" x="0" y="0" onmousedown="handlePan(1,0)"/>
  <use id="arrowdown" xlink:href="#arrowDown" x="0" y="0" onmousedown="handlePan(0,1)"/>
  <use id="arrowleft" xlink:href="#arrowLeft" x="0" y="0" onmousedown="handlePan(-1,0)"/>
</g>
<svg viewBox="0 0 15 15" width="100%" height="30px" preserveAspectRatio="xMaxYMin meet">
 <g id="arrow_out" transform="scale(0.3 0.3)">
  <a xlink:href="dir_ee5b694e383261ce753e25a339c4fdf4_dep_org.svg" target="_base">
   <rect id="button" ry="5" rx="5" y="6" x="6" height="38" width="38"
        fill="#f2f5e9" fill-opacity="0.5" stroke="#606060" stroke-width="1.0"/>
   <path id="arrow"
     d="M 11.500037,31.436501 C 11.940474,20.09759 22.043105,11.32322 32.158766,21.979434 L 37.068811,17.246167 C 37.068811,17.246167 37.088388,32 37.088388,32 L 22.160133,31.978069 C 22.160133,31.978069 26.997745,27.140456 26.997745,27.140456 C 18.528582,18.264221 13.291696,25.230495 11.500037,31.436501 z"
     style="fill:#404040;"/>
  </a>
 </g>
</svg>

<style type='text/css'>
<![CDATA[
[data-mouse-over-selected='false'] { opacity: 0.7; }
[data-mouse-over-selected='true']  { opacity: 1.0; }
]]>
</style>
<script type="application/ecmascript"><![CDATA[
document.addEventListener('DOMContentLoaded', (event) => {
  highlightEdges();
  highlightAdjacentNodes();
});
]]></script>
</svg>
