<?xml version="1.0" encoding="UTF-8" standalone="no"?>
<!DOCTYPE svg PUBLIC "-//W3C//DTD SVG 1.1//EN"
 "http://www.w3.org/Graphics/SVG/1.1/DTD/svg11.dtd">
<!-- Generated by graphviz version 2.43.0 (0)
 -->
<!-- Title: src/Alaris.Host/Application/Cli Pages: 1 -->
<!--zoomable 110 -->

<svg id="main" version="1.1" xmlns="http://www.w3.org/2000/svg" xmlns:xlink="http://www.w3.org/1999/xlink" xml:space="preserve" onload="init(evt)">
<style type="text/css"><![CDATA[
.node, .edge {opacity: 0.7;}
.node.selected, .edge.selected {opacity: 1;}
.edge:hover path { stroke: red; }
.edge:hover polygon { stroke: red; fill: red; }
]]></style>

<defs>
  <circle id="rim" cx="0" cy="0" r="7"/>
  <circle id="rim2" cx="0" cy="0" r="3.5"/>
  <g id="zoomPlus">
    <use xlink:href="#rim" fill="#404040"><set attributeName="fill" to="#808080" begin="zoomplus.mouseover" end="zoomplus.mouseout"/></use>
    <path d="M-4,0h8M0,-4v8" fill="none" stroke="white" stroke-width="1.5" pointer-events="none"/>
  </g>
  <g id="zoomMin">
    <use xlink:href="#rim" fill="#404040"><set attributeName="fill" to="#808080" begin="zoomminus.mouseover" end="zoomminus.mouseout"/></use>
    <path d="M-4,0h8" fill="none" stroke="white" stroke-width="1.5" pointer-events="none"/>
  </g>
  <g id="arrowUp" transform="translate(30 24)">
    <use xlink:href="#rim"/>
    <path pointer-events="none" fill="none" stroke="white" stroke-width="1.5" d="M0,-3.0v7 M-2.5,-0.5L0,-3.0L2.5,-0.5"/>
  </g>
  <g id="arrowRight" transform="rotate(90) translate(36 -43)">
    <use xlink:href="#rim"/>
    <path pointer-events="none" fill="none" stroke="white" stroke-width="1.5" d="M0,-3.0v7 M-2.5,-0.5L0,-3.0L2.5,-0.5"/>
  </g>
  <g id="arrowDown" transform="rotate(180) translate(-30 -48)">
    <use xlink:href="#rim"/>
    <path pointer-events="none" fill="none" stroke="white" stroke-width="1.5" d="M0,-3.0v7 M-2.5,-0.5L0,-3.0L2.5,-0.5"/>
  </g>
  <g id="arrowLeft" transform="rotate(270) translate(-36 17)">
    <use xlink:href="#rim"/>
    <path pointer-events="none" fill="none" stroke="white" stroke-width="1.5" d="M0,-3.0v7 M-2.5,-0.5L0,-3.0L2.5,-0.5"/>
  </g>
  <g id="resetDef">
    <use xlink:href="#rim2" fill="#404040"><set attributeName="fill" to="#808080" begin="reset.mouseover" end="reset.mouseout"/></use>
  </g>
</defs>
<script type="application/ecmascript">
var viewWidth = 826;
var viewHeight = 110;
var sectionId = 'dynsection-0';
</script>
<script type="application/ecmascript" xlink:href="svg.min.js"/>
<svg id="graph" class="graph">
<g id="viewport">
<title>src/Alaris.Host/Application/Cli</title>
<g id="clust1" class="cluster">
<title>clusterdir_49a551c3f401c960c7deb77a76d691e8</title>
<g id="a_clust1"><a xlink:href="dir_49a551c3f401c960c7deb77a76d691e8.html" target="_top" xlink:title="Application">
<polygon fill="#edf0f7" stroke="#7f7f7f" stroke-dasharray="5,2" points="8,-8 8,-94 810,-94 810,-8 8,-8"/>
<text text-anchor="middle" x="409" y="-82" font-family="Helvetica,sans-Serif" font-size="10.00">Application</text>
</a>
</g>
</g>
<g id="clust2" class="cluster">
<title>clusterdir_ec727a252fafef7f51483b5791cb20b1</title>
<g id="a_clust2"><a xlink:href="dir_ec727a252fafef7f51483b5791cb20b1.html" target="_top">
<polygon fill="#edf0f7" stroke="#404040" stroke-width="2" points="16,-16 16,-67 802,-67 802,-16 16,-16"/>
</a>
</g>
</g>
<g id="clust3" class="cluster">
<title>clusterdir_00d12de1aee25cc9793f567850ccfe1d</title>
<g id="a_clust3"><a xlink:href="dir_00d12de1aee25cc9793f567850ccfe1d.html" target="_top">
<polygon fill="#dfe5f1" stroke="#404040" points="376,-24 376,-59 794,-59 794,-24 376,-24"/>
</a>
</g>
</g>
<!-- dir_ec727a252fafef7f51483b5791cb20b1 -->
<g id="node1" class="node">
<title>dir_ec727a252fafef7f51483b5791cb20b1</title>
<text text-anchor="middle" x="352" y="-39" font-family="Helvetica,sans-Serif" font-size="10.00">Cli</text>
</g>
<!-- dir_00d12de1aee25cc9793f567850ccfe1d -->
<g id="node2" class="node">
<title>dir_00d12de1aee25cc9793f567850ccfe1d</title>
<text text-anchor="middle" x="752" y="-39" font-family="Helvetica,sans-Serif" font-size="10.00">Commands</text>
</g>
<!-- dir_e50164a49e856b23d10d166a63d80214 -->
<g id="node3" class="node">
<title>dir_e50164a49e856b23d10d166a63d80214</title>
<g id="a_node3"><a xlink:href="dir_e50164a49e856b23d10d166a63d80214.html" target="_top" xlink:title="Backtest">
<polygon fill="#d0d9ea" stroke="#404040" points="700,-51 644,-51 644,-32 700,-32 700,-51"/>
<text text-anchor="middle" x="672" y="-39" font-family="Helvetica,sans-Serif" font-size="10.00">Backtest</text>
</a>
</g>
</g>
<!-- dir_3f712e3b3ed57731781d3f9b24c53b92 -->
<g id="node4" class="node">
<title>dir_3f712e3b3ed57731781d3f9b24c53b92</title>
<g id="a_node4"><a xlink:href="dir_3f712e3b3ed57731781d3f9b24c53b92.html" target="_top" xlink:title="Data">
<polygon fill="#d0d9ea" stroke="#404040" points="626,-51 588,-51 588,-32 626,-32 626,-51"/>
<text text-anchor="middle" x="607" y="-39" font-family="Helvetica,sans-Serif" font-size="10.00">Data</text>
</a>
</g>
</g>
<!-- dir_ed17a587bde58ee161fc391214e95770 -->
<g id="node5" class="node">
<title>dir_ed17a587bde58ee161fc391214e95770</title>
<g id="a_node5"><a xlink:href="dir_ed17a587bde58ee161fc391214e95770.html" target="_top" xlink:title="Earnings">
<polygon fill="#d0d9ea" stroke="#404040" points="569.5,-51 514.5,-51 514.5,-32 569.5,-32 569.5,-51"/>
<text text-anchor="middle" x="542" y="-39" font-family="Helvetica,sans-Serif" font-size="10.00">Earnings</text>
</a>
</g>
</g>
<!-- dir_846d6f69a9c06dfea5bd4c334fef72b9 -->
<g id="node6" class="node">
<title>dir_846d6f69a9c06dfea5bd4c334fef72b9</title>
<g id="a_node6"><a xlink:href="dir_846d6f69a9c06dfea5bd4c334fef72b9.html" target="_top" xlink:title="Strategy">
<polygon fill="#d0d9ea" stroke="#404040" points="496.5,-51 443.5,-51 443.5,-32 496.5,-32 496.5,-51"/>
<text text-anchor="middle" x="470" y="-39" font-family="Helvetica,sans-Serif" font-size="10.00">Strategy</text>
</a>
</g>
</g>
<!-- dir_703a7820832a3fa98eecdddd78088aa6 -->
<g id="node7" class="node">
<title>dir_703a7820832a3fa98eecdddd78088aa6</title>
<g id="a_node7"><a xlink:href="dir_703a7820832a3fa98eecdddd78088aa6.html" target="_top" xlink:title="Trade">
<polygon fill="#d0d9ea" stroke="#404040" points="425.5,-51 384.5,-51 384.5,-32 425.5,-32 425.5,-51"/>
<text text-anchor="middle" x="405" y="-39" font-family="Helvetica,sans-Serif" font-size="10.00">Trade</text>
</a>
</g>
</g>
<!-- dir_f507f10abe792f84fbde6ae59b5db107 -->
<g id="node8" class="node">
<title>dir_f507f10abe792f84fbde6ae59b5db107</title>
<g id="a_node8"><a xlink:href="dir_f507f10abe792f84fbde6ae59b5db107.html" target="_top" xlink:title="Dashboard">
<polygon fill="#dfe5f1" stroke="#404040" points="319,-51 255,-51 255,-32 319,-32 319,-51"/>
<text text-anchor="middle" x="287" y="-39" font-family="Helvetica,sans-Serif" font-size="10.00">Dashboard</text>
</a>
</g>
</g>
<!-- dir_f501b866940a3e92f9e5f72843a36744 -->
<g id="node9" class="node">
<title>dir_f501b866940a3e92f9e5f72843a36744</title>
<g id="a_node9"><a xlink:href="dir_f501b866940a3e92f9e5f72843a36744.html" target="_top" xlink:title="Infrastructure">
<polygon fill="#dfe5f1" stroke="#404040" points="237,-51 163,-51 163,-32 237,-32 237,-51"/>
<text text-anchor="middle" x="200" y="-39" font-family="Helvetica,sans-Serif" font-size="10.00">Infrastructure</text>
</a>
</g>
</g>
<!-- dir_9b2eadbfd961fe3f38c4f206e2c387a5 -->
<g id="node10" class="node">
<title>dir_9b2eadbfd961fe3f38c4f206e2c387a5</title>
<g id="a_node10"><a xlink:href="dir_9b2eadbfd961fe3f38c4f206e2c387a5.html" target="_top" xlink:title="Monitor">
<polygon fill="#dfe5f1" stroke="#404040" points="144.5,-51 95.5,-51 95.5,-32 144.5,-32 144.5,-51"/>
<text text-anchor="middle" x="120" y="-39" font-family="Helvetica,sans-Serif" font-size="10.00">Monitor</text>
</a>
</g>
</g>
<!-- dir_3d9dd1cc697c6532d9d351b33862c42e -->
<g id="node11" class="node">
<title>dir_3d9dd1cc697c6532d9d351b33862c42e</title>
<g id="a_node11"><a xlink:href="dir_3d9dd1cc697c6532d9d351b33862c42e.html" target="_top" xlink:title="Settings">
<polygon fill="#dfe5f1" stroke="#404040" points="77.5,-51 24.5,-51 24.5,-32 77.5,-32 77.5,-51"/>
<text text-anchor="middle" x="51" y="-39" font-family="Helvetica,sans-Serif" font-size="10.00">Settings</text>
</a>
</g>
</g>
</g>
</svg>

<g id="navigator" transform="translate(0 0)" fill="#404254">
  <rect fill="#f2f5e9" fill-opacity="0.5" stroke="#606060" stroke-width=".5" x="0" y="0" width="60" height="60"/>
  <use id="zoomplus" xlink:href="#zoomPlus" x="17" y="9" onmousedown="handleZoom(evt,'in')"/>
  <use id="zoomminus" xlink:href="#zoomMin" x="42" y="9" onmousedown="handleZoom(evt,'out')"/>
  <use id="reset" xlink:href="#resetDef" x="30" y="36" onmousedown="handleReset()"/>
   <use id="arrowup" xlink:href="#arrowUp" x="0" y="0" onmousedown="handlePan(0,-1)"/>
  <use id="arrowright" xlink:href="#arrowRight" x="0" y="0" onmousedown="handlePan(1,0)"/>
  <use id="arrowdown" xlink:href="#arrowDown" x="0" y="0" onmousedown="handlePan(0,1)"/>
  <use id="arrowleft" xlink:href="#arrowLeft" x="0" y="0" onmousedown="handlePan(-1,0)"/>
</g>
<svg viewBox="0 0 15 15" width="100%" height="30px" preserveAspectRatio="xMaxYMin meet">
 <g id="arrow_out" transform="scale(0.3 0.3)">
  <a xlink:href="dir_ec727a252fafef7f51483b5791cb20b1_dep_org.svg" target="_base">
   <rect id="button" ry="5" rx="5" y="6" x="6" height="38" width="38"
        fill="#f2f5e9" fill-opacity="0.5" stroke="#606060" stroke-width="1.0"/>
   <path id="arrow"
     d="M 11.500037,31.436501 C 11.940474,20.09759 22.043105,11.32322 32.158766,21.979434 L 37.068811,17.246167 C 37.068811,17.246167 37.088388,32 37.088388,32 L 22.160133,31.978069 C 22.160133,31.978069 26.997745,27.140456 26.997745,27.140456 C 18.528582,18.264221 13.291696,25.230495 11.500037,31.436501 z"
     style="fill:#404040;"/>
  </a>
 </g>
</svg>

<style type='text/css'>
<![CDATA[
[data-mouse-over-selected='false'] { opacity: 0.7; }
[data-mouse-over-selected='true']  { opacity: 1.0; }
]]>
</style>
<script type="application/ecmascript"><![CDATA[
document.addEventListener('DOMContentLoaded', (event) => {
  highlightEdges();
  highlightAdjacentNodes();
});
]]></script>
</svg>
