<?xml version="1.0" encoding="UTF-8" standalone="no"?>
<!DOCTYPE svg PUBLIC "-//W3C//DTD SVG 1.1//EN"
 "http://www.w3.org/Graphics/SVG/1.1/DTD/svg11.dtd">
<!-- Generated by graphviz version 2.43.0 (0)
 -->
<!-- Title: src/Alaris.Core Pages: 1 -->
<!--zoomable 94 -->

<svg id="main" version="1.1" xmlns="http://www.w3.org/2000/svg" xmlns:xlink="http://www.w3.org/1999/xlink" xml:space="preserve" onload="init(evt)">
<style type="text/css"><![CDATA[
.node, .edge {opacity: 0.7;}
.node.selected, .edge.selected {opacity: 1;}
.edge:hover path { stroke: red; }
.edge:hover polygon { stroke: red; fill: red; }
]]></style>

<defs>
  <circle id="rim" cx="0" cy="0" r="7"/>
  <circle id="rim2" cx="0" cy="0" r="3.5"/>
  <g id="zoomPlus">
    <use xlink:href="#rim" fill="#404040"><set attributeName="fill" to="#808080" begin="zoomplus.mouseover" end="zoomplus.mouseout"/></use>
    <path d="M-4,0h8M0,-4v8" fill="none" stroke="white" stroke-width="1.5" pointer-events="none"/>
  </g>
  <g id="zoomMin">
    <use xlink:href="#rim" fill="#404040"><set attributeName="fill" to="#808080" begin="zoomminus.mouseover" end="zoomminus.mouseout"/></use>
    <path d="M-4,0h8" fill="none" stroke="white" stroke-width="1.5" pointer-events="none"/>
  </g>
  <g id="arrowUp" transform="translate(30 24)">
    <use xlink:href="#rim"/>
    <path pointer-events="none" fill="none" stroke="white" stroke-width="1.5" d="M0,-3.0v7 M-2.5,-0.5L0,-3.0L2.5,-0.5"/>
  </g>
  <g id="arrowRight" transform="rotate(90) translate(36 -43)">
    <use xlink:href="#rim"/>
    <path pointer-events="none" fill="none" stroke="white" stroke-width="1.5" d="M0,-3.0v7 M-2.5,-0.5L0,-3.0L2.5,-0.5"/>
  </g>
  <g id="arrowDown" transform="rotate(180) translate(-30 -48)">
    <use xlink:href="#rim"/>
    <path pointer-events="none" fill="none" stroke="white" stroke-width="1.5" d="M0,-3.0v7 M-2.5,-0.5L0,-3.0L2.5,-0.5"/>
  </g>
  <g id="arrowLeft" transform="rotate(270) translate(-36 17)">
    <use xlink:href="#rim"/>
    <path pointer-events="none" fill="none" stroke="white" stroke-width="1.5" d="M0,-3.0v7 M-2.5,-0.5L0,-3.0L2.5,-0.5"/>
  </g>
  <g id="resetDef">
    <use xlink:href="#rim2" fill="#404040"><set attributeName="fill" to="#808080" begin="reset.mouseover" end="reset.mouseout"/></use>
  </g>
</defs>
<script type="application/ecmascript">
var viewWidth = 823;
var viewHeight = 94;
var sectionId = 'dynsection-0';
</script>
<script type="application/ecmascript" xlink:href="svg.min.js"/>
<svg id="graph" class="graph">
<g id="viewport">
<title>src/Alaris.Core</title>
<g id="clust1" class="cluster">
<title>clusterdir_68267d1309a1af8e8297ef4c3efbcdba</title>
<g id="a_clust1"><a xlink:href="dir_68267d1309a1af8e8297ef4c3efbcdba.html" target="_top" xlink:title="src">
<polygon fill="#edf0f7" stroke="#404040" stroke-dasharray="5,2" points="8,-8 8,-78 807,-78 807,-8 8,-8"/>
<text text-anchor="middle" x="407.5" y="-66" font-family="Helvetica,sans-Serif" font-size="10.00">src</text>
</a>
</g>
</g>
<g id="clust2" class="cluster">
<title>clusterdir_3f0af40d3bde820bffacf37548a69098</title>
<g id="a_clust2"><a xlink:href="dir_3f0af40d3bde820bffacf37548a69098.html" target="_top">
<polygon fill="#edf0f7" stroke="#404040" stroke-width="2" points="16,-16 16,-51 799,-51 799,-16 16,-16"/>
</a>
</g>
</g>
<!-- dir_3f0af40d3bde820bffacf37548a69098 -->
<g id="node1" class="node">
<title>dir_3f0af40d3bde820bffacf37548a69098</title>
<text text-anchor="middle" x="758" y="-31" font-family="Helvetica,sans-Serif" font-size="10.00">Alaris.Core</text>
</g>
<!-- dir_ea6331ed00d4ff795b0e52bfb706bd49 -->
<g id="node2" class="node">
<title>dir_ea6331ed00d4ff795b0e52bfb706bd49</title>
<g id="a_node2"><a xlink:href="dir_ea6331ed00d4ff795b0e52bfb706bd49.html" target="_top" xlink:title="HotPath">
<polygon fill="#dfe5f1" stroke="#404040" points="707.5,-43 654.5,-43 654.5,-24 707.5,-24 707.5,-43"/>
<text text-anchor="middle" x="681" y="-31" font-family="Helvetica,sans-Serif" font-size="10.00">HotPath</text>
</a>
</g>
</g>
<!-- dir_29e61f6566321dcfd519d0a3e338fafe -->
<g id="node3" class="node">
<title>dir_29e61f6566321dcfd519d0a3e338fafe</title>
<g id="a_node3"><a xlink:href="dir_29e61f6566321dcfd519d0a3e338fafe.html" target="_top" xlink:title="Math">
<polygon fill="#dfe5f1" stroke="#404040" points="636,-43 598,-43 598,-24 636,-24 636,-43"/>
<text text-anchor="middle" x="617" y="-31" font-family="Helvetica,sans-Serif" font-size="10.00">Math</text>
</a>
</g>
</g>
<!-- dir_cbe88ffddd08a3fd906b1e561981ee36 -->
<g id="node4" class="node">
<title>dir_cbe88ffddd08a3fd906b1e561981ee36</title>
<g id="a_node4"><a xlink:href="dir_cbe88ffddd08a3fd906b1e561981ee36.html" target="_top" xlink:title="Model">
<polygon fill="#dfe5f1" stroke="#404040" points="579.5,-43 536.5,-43 536.5,-24 579.5,-24 579.5,-43"/>
<text text-anchor="middle" x="558" y="-31" font-family="Helvetica,sans-Serif" font-size="10.00">Model</text>
</a>
</g>
</g>
<!-- dir_3510761234de64ffbace84d91ff16ff3 -->
<g id="node5" class="node">
<title>dir_3510761234de64ffbace84d91ff16ff3</title>
<g id="a_node5"><a xlink:href="dir_3510761234de64ffbace84d91ff16ff3.html" target="_top" xlink:title="Options">
<polygon fill="#dfe5f1" stroke="#404040" points="518,-43 468,-43 468,-24 518,-24 518,-43"/>
<text text-anchor="middle" x="493" y="-31" font-family="Helvetica,sans-Serif" font-size="10.00">Options</text>
</a>
</g>
</g>
<!-- dir_848d7f482e14003210257618739db462 -->
<g id="node6" class="node">
<title>dir_848d7f482e14003210257618739db462</title>
<g id="a_node6"><a xlink:href="dir_848d7f482e14003210257618739db462.html" target="_top" xlink:title="Pooling">
<polygon fill="#dfe5f1" stroke="#404040" points="449.5,-43 400.5,-43 400.5,-24 449.5,-24 449.5,-43"/>
<text text-anchor="middle" x="425" y="-31" font-family="Helvetica,sans-Serif" font-size="10.00">Pooling</text>
</a>
</g>
</g>
<!-- dir_87e52d0ebf091a97d476117bed125a21 -->
<g id="node7" class="node">
<title>dir_87e52d0ebf091a97d476117bed125a21</title>
<g id="a_node7"><a xlink:href="dir_87e52d0ebf091a97d476117bed125a21.html" target="_top" xlink:title="Pricing">
<polygon fill="#dfe5f1" stroke="#404040" points="382.5,-43 335.5,-43 335.5,-24 382.5,-24 382.5,-43"/>
<text text-anchor="middle" x="359" y="-31" font-family="Helvetica,sans-Serif" font-size="10.00">Pricing</text>
</a>
</g>
</g>
<!-- dir_d9086b0897efd596ebeb6bb8a91b7576 -->
<g id="node8" class="node">
<title>dir_d9086b0897efd596ebeb6bb8a91b7576</title>
<g id="a_node8"><a xlink:href="dir_d9086b0897efd596ebeb6bb8a91b7576.html" target="_top" xlink:title="TermStructure">
<polygon fill="#dfe5f1" stroke="#404040" points="317,-43 239,-43 239,-24 317,-24 317,-43"/>
<text text-anchor="middle" x="278" y="-31" font-family="Helvetica,sans-Serif" font-size="10.00">TermStructure</text>
</a>
</g>
</g>
<!-- dir_a527b2a45d754f2f700a3c283bbf6121 -->
<g id="node9" class="node">
<title>dir_a527b2a45d754f2f700a3c283bbf6121</title>
<g id="a_node9"><a xlink:href="dir_a527b2a45d754f2f700a3c283bbf6121.html" target="_top" xlink:title="Time">
<polygon fill="#dfe5f1" stroke="#404040" points="221,-43 183,-43 183,-24 221,-24 221,-43"/>
<text text-anchor="middle" x="202" y="-31" font-family="Helvetica,sans-Serif" font-size="10.00">Time</text>
</a>
</g>
</g>
<!-- dir_b8c7631c5ae6ab10421aa55afa818f65 -->
<g id="node10" class="node">
<title>dir_b8c7631c5ae6ab10421aa55afa818f65</title>
<g id="a_node10"><a xlink:href="dir_b8c7631c5ae6ab10421aa55afa818f65.html" target="_top" xlink:title="Validation">
<polygon fill="#dfe5f1" stroke="#404040" points="164.5,-43 105.5,-43 105.5,-24 164.5,-24 164.5,-43"/>
<text text-anchor="middle" x="135" y="-31" font-family="Helvetica,sans-Serif" font-size="10.00">Validation</text>
</a>
</g>
</g>
<!-- dir_6128a7483af118abc7049ae3ef51cef7 -->
<g id="node11" class="node">
<title>dir_6128a7483af118abc7049ae3ef51cef7</title>
<g id="a_node11"><a xlink:href="dir_6128a7483af118abc7049ae3ef51cef7.html" target="_top" xlink:title="Vectorized">
<polygon fill="#dfe5f1" stroke="#404040" points="87.5,-43 24.5,-43 24.5,-24 87.5,-24 87.5,-43"/>
<text text-anchor="middle" x="56" y="-31" font-family="Helvetica,sans-Serif" font-size="10.00">Vectorized</text>
</a>
</g>
</g>
</g>
</svg>

<g id="navigator" transform="translate(0 0)" fill="#404254">
  <rect fill="#f2f5e9" fill-opacity="0.5" stroke="#606060" stroke-width=".5" x="0" y="0" width="60" height="60"/>
  <use id="zoomplus" xlink:href="#zoomPlus" x="17" y="9" onmousedown="handleZoom(evt,'in')"/>
  <use id="zoomminus" xlink:href="#zoomMin" x="42" y="9" onmousedown="handleZoom(evt,'out')"/>
  <use id="reset" xlink:href="#resetDef" x="30" y="36" onmousedown="handleReset()"/>
   <use id="arrowup" xlink:href="#arrowUp" x="0" y="0" onmousedown="handlePan(0,-1)"/>
  <use id="arrowright" xlink:href="#arrowRight" x="0" y="0" onmousedown="handlePan(1,0)"/>
  <use id="arrowdown" xlink:href="#arrowDown" x="0" y="0" onmousedown="handlePan(0,1)"/>
  <use id="arrowleft" xlink:href="#arrowLeft" x="0" y="0" onmousedown="handlePan(-1,0)"/>
</g>
<svg viewBox="0 0 15 15" width="100%" height="30px" preserveAspectRatio="xMaxYMin meet">
 <g id="arrow_out" transform="scale(0.3 0.3)">
  <a xlink:href="dir_3f0af40d3bde820bffacf37548a69098_dep_org.svg" target="_base">
   <rect id="button" ry="5" rx="5" y="6" x="6" height="38" width="38"
        fill="#f2f5e9" fill-opacity="0.5" stroke="#606060" stroke-width="1.0"/>
   <path id="arrow"
     d="M 11.500037,31.436501 C 11.940474,20.09759 22.043105,11.32322 32.158766,21.979434 L 37.068811,17.246167 C 37.068811,17.246167 37.088388,32 37.088388,32 L 22.160133,31.978069 C 22.160133,31.978069 26.997745,27.140456 26.997745,27.140456 C 18.528582,18.264221 13.291696,25.230495 11.500037,31.436501 z"
     style="fill:#404040;"/>
  </a>
 </g>
</svg>

<style type='text/css'>
<![CDATA[
[data-mouse-over-selected='false'] { opacity: 0.7; }
[data-mouse-over-selected='true']  { opacity: 1.0; }
]]>
</style>
<script type="application/ecmascript"><![CDATA[
document.addEventListener('DOMContentLoaded', (event) => {
  highlightEdges();
  highlightAdjacentNodes();
});
]]></script>
</svg>
