<?xml version="1.0" encoding="UTF-8" standalone="no"?>
<!DOCTYPE svg PUBLIC "-//W3C//DTD SVG 1.1//EN"
 "http://www.w3.org/Graphics/SVG/1.1/DTD/svg11.dtd">
<!-- Generated by graphviz version 2.43.0 (0)
 -->
<!-- Title: src/Alaris.Host/Application Pages: 1 -->
<!--zoomable 126 -->

<svg id="main" version="1.1" xmlns="http://www.w3.org/2000/svg" xmlns:xlink="http://www.w3.org/1999/xlink" xml:space="preserve" onload="init(evt)">
<style type="text/css"><![CDATA[
.node, .edge {opacity: 0.7;}
.node.selected, .edge.selected {opacity: 1;}
.edge:hover path { stroke: red; }
.edge:hover polygon { stroke: red; fill: red; }
]]></style>

<defs>
  <circle id="rim" cx="0" cy="0" r="7"/>
  <circle id="rim2" cx="0" cy="0" r="3.5"/>
  <g id="zoomPlus">
    <use xlink:href="#rim" fill="#404040"><set attributeName="fill" to="#808080" begin="zoomplus.mouseover" end="zoomplus.mouseout"/></use>
    <path d="M-4,0h8M0,-4v8" fill="none" stroke="white" stroke-width="1.5" pointer-events="none"/>
  </g>
  <g id="zoomMin">
    <use xlink:href="#rim" fill="#404040"><set attributeName="fill" to="#808080" begin="zoomminus.mouseover" end="zoomminus.mouseout"/></use>
    <path d="M-4,0h8" fill="none" stroke="white" stroke-width="1.5" pointer-events="none"/>
  </g>
  <g id="arrowUp" transform="translate(30 24)">
    <use xlink:href="#rim"/>
    <path pointer-events="none" fill="none" stroke="white" stroke-width="1.5" d="M0,-3.0v7 M-2.5,-0.5L0,-3.0L2.5,-0.5"/>
  </g>
  <g id="arrowRight" transform="rotate(90) translate(36 -43)">
    <use xlink:href="#rim"/>
    <path pointer-events="none" fill="none" stroke="white" stroke-width="1.5" d="M0,-3.0v7 M-2.5,-0.5L0,-3.0L2.5,-0.5"/>
  </g>
  <g id="arrowDown" transform="rotate(180) translate(-30 -48)">
    <use xlink:href="#rim"/>
    <path pointer-events="none" fill="none" stroke="white" stroke-width="1.5" d="M0,-3.0v7 M-2.5,-0.5L0,-3.0L2.5,-0.5"/>
  </g>
  <g id="arrowLeft" transform="rotate(270) translate(-36 17)">
    <use xlink:href="#rim"/>
    <path pointer-events="none" fill="none" stroke="white" stroke-width="1.5" d="M0,-3.0v7 M-2.5,-0.5L0,-3.0L2.5,-0.5"/>
  </g>
  <g id="resetDef">
    <use xlink:href="#rim2" fill="#404040"><set attributeName="fill" to="#808080" begin="reset.mouseover" end="reset.mouseout"/></use>
  </g>
</defs>
<script type="application/ecmascript">
var viewWidth = 1215;
var viewHeight = 126;
var sectionId = 'dynsection-0';
</script>
<script type="application/ecmascript" xlink:href="svg.min.js"/>
<svg id="graph" class="graph">
<g id="viewport">
<title>src/Alaris.Host/Application</title>
<g id="clust1" class="cluster">
<title>clusterdir_4ea4199504730f18efca9caa8db3e15c</title>
<g id="a_clust1"><a xlink:href="dir_4ea4199504730f18efca9caa8db3e15c.html" target="_top" xlink:title="Alaris.Host">
<polygon fill="#edf0f7" stroke="#7f7f7f" stroke-dasharray="5,2" points="8,-8 8,-110 1199,-110 1199,-8 8,-8"/>
<text text-anchor="middle" x="603.5" y="-98" font-family="Helvetica,sans-Serif" font-size="10.00">Alaris.Host</text>
</a>
</g>
</g>
<g id="clust2" class="cluster">
<title>clusterdir_49a551c3f401c960c7deb77a76d691e8</title>
<g id="a_clust2"><a xlink:href="dir_49a551c3f401c960c7deb77a76d691e8.html" target="_top">
<polygon fill="#edf0f7" stroke="#404040" stroke-width="2" points="16,-16 16,-83 1191,-83 1191,-16 16,-16"/>
</a>
</g>
</g>
<g id="clust3" class="cluster">
<title>clusterdir_ec727a252fafef7f51483b5791cb20b1</title>
<g id="a_clust3"><a xlink:href="dir_ec727a252fafef7f51483b5791cb20b1.html" target="_top">
<polygon fill="#dfe5f1" stroke="#404040" points="397,-24 397,-75 1183,-75 1183,-24 397,-24"/>
</a>
</g>
</g>
<g id="clust4" class="cluster">
<title>clusterdir_00d12de1aee25cc9793f567850ccfe1d</title>
<g id="a_clust4"><a xlink:href="dir_00d12de1aee25cc9793f567850ccfe1d.html" target="_top">
<polygon fill="#d0d9ea" stroke="#404040" points="757,-32 757,-67 1175,-67 1175,-32 757,-32"/>
</a>
</g>
</g>
<!-- dir_49a551c3f401c960c7deb77a76d691e8 -->
<g id="node1" class="node">
<title>dir_49a551c3f401c960c7deb77a76d691e8</title>
<text text-anchor="middle" x="355" y="-47" font-family="Helvetica,sans-Serif" font-size="10.00">Application</text>
</g>
<!-- dir_ec727a252fafef7f51483b5791cb20b1 -->
<g id="node2" class="node">
<title>dir_ec727a252fafef7f51483b5791cb20b1</title>
<text text-anchor="middle" x="733" y="-47" font-family="Helvetica,sans-Serif" font-size="10.00">Cli</text>
</g>
<!-- dir_00d12de1aee25cc9793f567850ccfe1d -->
<g id="node3" class="node">
<title>dir_00d12de1aee25cc9793f567850ccfe1d</title>
<text text-anchor="middle" x="1133" y="-47" font-family="Helvetica,sans-Serif" font-size="10.00">Commands</text>
</g>
<!-- dir_e50164a49e856b23d10d166a63d80214 -->
<g id="node4" class="node">
<title>dir_e50164a49e856b23d10d166a63d80214</title>
<g id="a_node4"><a xlink:href="dir_e50164a49e856b23d10d166a63d80214.html" target="_top" xlink:title="Backtest">
<polygon fill="#c1cde4" stroke="#404040" points="1081,-59 1025,-59 1025,-40 1081,-40 1081,-59"/>
<text text-anchor="middle" x="1053" y="-47" font-family="Helvetica,sans-Serif" font-size="10.00">Backtest</text>
</a>
</g>
</g>
<!-- dir_3f712e3b3ed57731781d3f9b24c53b92 -->
<g id="node5" class="node">
<title>dir_3f712e3b3ed57731781d3f9b24c53b92</title>
<g id="a_node5"><a xlink:href="dir_3f712e3b3ed57731781d3f9b24c53b92.html" target="_top" xlink:title="Data">
<polygon fill="#c1cde4" stroke="#404040" points="1007,-59 969,-59 969,-40 1007,-40 1007,-59"/>
<text text-anchor="middle" x="988" y="-47" font-family="Helvetica,sans-Serif" font-size="10.00">Data</text>
</a>
</g>
</g>
<!-- dir_ed17a587bde58ee161fc391214e95770 -->
<g id="node6" class="node">
<title>dir_ed17a587bde58ee161fc391214e95770</title>
<g id="a_node6"><a xlink:href="dir_ed17a587bde58ee161fc391214e95770.html" target="_top" xlink:title="Earnings">
<polygon fill="#c1cde4" stroke="#404040" points="950.5,-59 895.5,-59 895.5,-40 950.5,-40 950.5,-59"/>
<text text-anchor="middle" x="923" y="-47" font-family="Helvetica,sans-Serif" font-size="10.00">Earnings</text>
</a>
</g>
</g>
<!-- dir_846d6f69a9c06dfea5bd4c334fef72b9 -->
<g id="node7" class="node">
<title>dir_846d6f69a9c06dfea5bd4c334fef72b9</title>
<g id="a_node7"><a xlink:href="dir_846d6f69a9c06dfea5bd4c334fef72b9.html" target="_top" xlink:title="Strategy">
<polygon fill="#c1cde4" stroke="#404040" points="877.5,-59 824.5,-59 824.5,-40 877.5,-40 877.5,-59"/>
<text text-anchor="middle" x="851" y="-47" font-family="Helvetica,sans-Serif" font-size="10.00">Strategy</text>
</a>
</g>
</g>
<!-- dir_703a7820832a3fa98eecdddd78088aa6 -->
<g id="node8" class="node">
<title>dir_703a7820832a3fa98eecdddd78088aa6</title>
<g id="a_node8"><a xlink:href="dir_703a7820832a3fa98eecdddd78088aa6.html" target="_top" xlink:title="Trade">
<polygon fill="#c1cde4" stroke="#404040" points="806.5,-59 765.5,-59 765.5,-40 806.5,-40 806.5,-59"/>
<text text-anchor="middle" x="786" y="-47" font-family="Helvetica,sans-Serif" font-size="10.00">Trade</text>
</a>
</g>
</g>
<!-- dir_f507f10abe792f84fbde6ae59b5db107 -->
<g id="node9" class="node">
<title>dir_f507f10abe792f84fbde6ae59b5db107</title>
<g id="a_node9"><a xlink:href="dir_f507f10abe792f84fbde6ae59b5db107.html" target="_top" xlink:title="Dashboard">
<polygon fill="#d0d9ea" stroke="#404040" points="700,-59 636,-59 636,-40 700,-40 700,-59"/>
<text text-anchor="middle" x="668" y="-47" font-family="Helvetica,sans-Serif" font-size="10.00">Dashboard</text>
</a>
</g>
</g>
<!-- dir_f501b866940a3e92f9e5f72843a36744 -->
<g id="node10" class="node">
<title>dir_f501b866940a3e92f9e5f72843a36744</title>
<g id="a_node10"><a xlink:href="dir_f501b866940a3e92f9e5f72843a36744.html" target="_top" xlink:title="Infrastructure">
<polygon fill="#d0d9ea" stroke="#404040" points="618,-59 544,-59 544,-40 618,-40 618,-59"/>
<text text-anchor="middle" x="581" y="-47" font-family="Helvetica,sans-Serif" font-size="10.00">Infrastructure</text>
</a>
</g>
</g>
<!-- dir_9b2eadbfd961fe3f38c4f206e2c387a5 -->
<g id="node11" class="node">
<title>dir_9b2eadbfd961fe3f38c4f206e2c387a5</title>
<g id="a_node11"><a xlink:href="dir_9b2eadbfd961fe3f38c4f206e2c387a5.html" target="_top" xlink:title="Monitor">
<polygon fill="#d0d9ea" stroke="#404040" points="525.5,-59 476.5,-59 476.5,-40 525.5,-40 525.5,-59"/>
<text text-anchor="middle" x="501" y="-47" font-family="Helvetica,sans-Serif" font-size="10.00">Monitor</text>
</a>
</g>
</g>
<!-- dir_3d9dd1cc697c6532d9d351b33862c42e -->
<g id="node12" class="node">
<title>dir_3d9dd1cc697c6532d9d351b33862c42e</title>
<g id="a_node12"><a xlink:href="dir_3d9dd1cc697c6532d9d351b33862c42e.html" target="_top" xlink:title="Settings">
<polygon fill="#d0d9ea" stroke="#404040" points="458.5,-59 405.5,-59 405.5,-40 458.5,-40 458.5,-59"/>
<text text-anchor="middle" x="432" y="-47" font-family="Helvetica,sans-Serif" font-size="10.00">Settings</text>
</a>
</g>
</g>
<!-- dir_60b58d6f0cb512fca91bab3a0c807b13 -->
<g id="node13" class="node">
<title>dir_60b58d6f0cb512fca91bab3a0c807b13</title>
<g id="a_node13"><a xlink:href="dir_60b58d6f0cb512fca91bab3a0c807b13.html" target="_top" xlink:title="Command">
<polygon fill="#dfe5f1" stroke="#404040" points="304,-59 242,-59 242,-40 304,-40 304,-59"/>
<text text-anchor="middle" x="273" y="-47" font-family="Helvetica,sans-Serif" font-size="10.00">Command</text>
</a>
</g>
</g>
<!-- dir_97bfc824a91ab30b28957cf5aef6613b -->
<g id="node14" class="node">
<title>dir_97bfc824a91ab30b28957cf5aef6613b</title>
<g id="a_node14"><a xlink:href="dir_97bfc824a91ab30b28957cf5aef6613b.html" target="_top" xlink:title="Model">
<polygon fill="#dfe5f1" stroke="#404040" points="223.5,-59 180.5,-59 180.5,-40 223.5,-40 223.5,-59"/>
<text text-anchor="middle" x="202" y="-47" font-family="Helvetica,sans-Serif" font-size="10.00">Model</text>
</a>
</g>
</g>
<!-- dir_f28ea4b84e56ec244fa186ebe40027fb -->
<g id="node15" class="node">
<title>dir_f28ea4b84e56ec244fa186ebe40027fb</title>
<g id="a_node15"><a xlink:href="dir_f28ea4b84e56ec244fa186ebe40027fb.html" target="_top" xlink:title="Serialization">
<polygon fill="#dfe5f1" stroke="#404040" points="162,-59 92,-59 92,-40 162,-40 162,-59"/>
<text text-anchor="middle" x="127" y="-47" font-family="Helvetica,sans-Serif" font-size="10.00">Serialization</text>
</a>
</g>
</g>
<!-- dir_93358f525d949aa8c01e5818f3cf535b -->
<g id="node16" class="node">
<title>dir_93358f525d949aa8c01e5818f3cf535b</title>
<g id="a_node16"><a xlink:href="dir_93358f525d949aa8c01e5818f3cf535b.html" target="_top" xlink:title="Service">
<polygon fill="#dfe5f1" stroke="#404040" points="74,-59 24,-59 24,-40 74,-40 74,-59"/>
<text text-anchor="middle" x="49" y="-47" font-family="Helvetica,sans-Serif" font-size="10.00">Service</text>
</a>
</g>
</g>
</g>
</svg>

<g id="navigator" transform="translate(0 0)" fill="#404254">
  <rect fill="#f2f5e9" fill-opacity="0.5" stroke="#606060" stroke-width=".5" x="0" y="0" width="60" height="60"/>
  <use id="zoomplus" xlink:href="#zoomPlus" x="17" y="9" onmousedown="handleZoom(evt,'in')"/>
  <use id="zoomminus" xlink:href="#zoomMin" x="42" y="9" onmousedown="handleZoom(evt,'out')"/>
  <use id="reset" xlink:href="#resetDef" x="30" y="36" onmousedown="handleReset()"/>
   <use id="arrowup" xlink:href="#arrowUp" x="0" y="0" onmousedown="handlePan(0,-1)"/>
  <use id="arrowright" xlink:href="#arrowRight" x="0" y="0" onmousedown="handlePan(1,0)"/>
  <use id="arrowdown" xlink:href="#arrowDown" x="0" y="0" onmousedown="handlePan(0,1)"/>
  <use id="arrowleft" xlink:href="#arrowLeft" x="0" y="0" onmousedown="handlePan(-1,0)"/>
</g>
<svg viewBox="0 0 15 15" width="100%" height="30px" preserveAspectRatio="xMaxYMin meet">
 <g id="arrow_out" transform="scale(0.3 0.3)">
  <a xlink:href="dir_49a551c3f401c960c7deb77a76d691e8_dep_org.svg" target="_base">
   <rect id="button" ry="5" rx="5" y="6" x="6" height="38" width="38"
        fill="#f2f5e9" fill-opacity="0.5" stroke="#606060" stroke-width="1.0"/>
   <path id="arrow"
     d="M 11.500037,31.436501 C 11.940474,20.09759 22.043105,11.32322 32.158766,21.979434 L 37.068811,17.246167 C 37.068811,17.246167 37.088388,32 37.088388,32 L 22.160133,31.978069 C 22.160133,31.978069 26.997745,27.140456 26.997745,27.140456 C 18.528582,18.264221 13.291696,25.230495 11.500037,31.436501 z"
     style="fill:#404040;"/>
  </a>
 </g>
</svg>

<style type='text/css'>
<![CDATA[
[data-mouse-over-selected='false'] { opacity: 0.7; }
[data-mouse-over-selected='true']  { opacity: 1.0; }
]]>
</style>
<script type="application/ecmascript"><![CDATA[
document.addEventListener('DOMContentLoaded', (event) => {
  highlightEdges();
  highlightAdjacentNodes();
});
]]></script>
</svg>
