<?xml version="1.0" encoding="UTF-8" standalone="no"?>
<!DOCTYPE svg PUBLIC "-//W3C//DTD SVG 1.1//EN"
 "http://www.w3.org/Graphics/SVG/1.1/DTD/svg11.dtd">
<!-- Generated by graphviz version 2.43.0 (0)
 -->
<!-- Title: src/Alaris.Infrastructure Pages: 1 -->
<!--zoomable 126 -->

<svg id="main" version="1.1" xmlns="http://www.w3.org/2000/svg" xmlns:xlink="http://www.w3.org/1999/xlink" xml:space="preserve" onload="init(evt)">
<style type="text/css"><![CDATA[
.node, .edge {opacity: 0.7;}
.node.selected, .edge.selected {opacity: 1;}
.edge:hover path { stroke: red; }
.edge:hover polygon { stroke: red; fill: red; }
]]></style>

<defs>
  <circle id="rim" cx="0" cy="0" r="7"/>
  <circle id="rim2" cx="0" cy="0" r="3.5"/>
  <g id="zoomPlus">
    <use xlink:href="#rim" fill="#404040"><set attributeName="fill" to="#808080" begin="zoomplus.mouseover" end="zoomplus.mouseout"/></use>
    <path d="M-4,0h8M0,-4v8" fill="none" stroke="white" stroke-width="1.5" pointer-events="none"/>
  </g>
  <g id="zoomMin">
    <use xlink:href="#rim" fill="#404040"><set attributeName="fill" to="#808080" begin="zoomminus.mouseover" end="zoomminus.mouseout"/></use>
    <path d="M-4,0h8" fill="none" stroke="white" stroke-width="1.5" pointer-events="none"/>
  </g>
  <g id="arrowUp" transform="translate(30 24)">
    <use xlink:href="#rim"/>
    <path pointer-events="none" fill="none" stroke="white" stroke-width="1.5" d="M0,-3.0v7 M-2.5,-0.5L0,-3.0L2.5,-0.5"/>
  </g>
  <g id="arrowRight" transform="rotate(90) translate(36 -43)">
    <use xlink:href="#rim"/>
    <path pointer-events="none" fill="none" stroke="white" stroke-width="1.5" d="M0,-3.0v7 M-2.5,-0.5L0,-3.0L2.5,-0.5"/>
  </g>
  <g id="arrowDown" transform="rotate(180) translate(-30 -48)">
    <use xlink:href="#rim"/>
    <path pointer-events="none" fill="none" stroke="white" stroke-width="1.5" d="M0,-3.0v7 M-2.5,-0.5L0,-3.0L2.5,-0.5"/>
  </g>
  <g id="arrowLeft" transform="rotate(270) translate(-36 17)">
    <use xlink:href="#rim"/>
    <path pointer-events="none" fill="none" stroke="white" stroke-width="1.5" d="M0,-3.0v7 M-2.5,-0.5L0,-3.0L2.5,-0.5"/>
  </g>
  <g id="resetDef">
    <use xlink:href="#rim2" fill="#404040"><set attributeName="fill" to="#808080" begin="reset.mouseover" end="reset.mouseout"/></use>
  </g>
</defs>
<script type="application/ecmascript">
var viewWidth = 1560;
var viewHeight = 126;
var sectionId = 'dynsection-0';
</script>
<script type="application/ecmascript" xlink:href="svg.min.js"/>
<svg id="graph" class="graph">
<g id="viewport">
<title>src/Alaris.Infrastructure</title>
<g id="clust1" class="cluster">
<title>clusterdir_68267d1309a1af8e8297ef4c3efbcdba</title>
<g id="a_clust1"><a xlink:href="dir_68267d1309a1af8e8297ef4c3efbcdba.html" target="_top" xlink:title="src">
<polygon fill="#edf0f7" stroke="#404040" stroke-dasharray="5,2" points="8,-8 8,-110 1544,-110 1544,-8 8,-8"/>
<text text-anchor="middle" x="776" y="-98" font-family="Helvetica,sans-Serif" font-size="10.00">src</text>
</a>
</g>
</g>
<g id="clust2" class="cluster">
<title>clusterdir_aa34d9347a57d442676b274def2f648c</title>
<g id="a_clust2"><a xlink:href="dir_aa34d9347a57d442676b274def2f648c.html" target="_top">
<polygon fill="#edf0f7" stroke="#404040" stroke-width="2" points="16,-16 16,-83 1536,-83 1536,-16 16,-16"/>
</a>
</g>
</g>
<g id="clust3" class="cluster">
<title>clusterdir_74643265eeced7ab97661c2039c1a392</title>
<g id="a_clust3"><a xlink:href="dir_74643265eeced7ab97661c2039c1a392.html" target="_top">
<polygon fill="#dfe5f1" stroke="#404040" points="912,-24 912,-75 1528,-75 1528,-24 912,-24"/>
</a>
</g>
</g>
<g id="clust4" class="cluster">
<title>clusterdir_c92c657926a578347b8e72ef8d4cb363</title>
<g id="a_clust4"><a xlink:href="dir_c92c657926a578347b8e72ef8d4cb363.html" target="_top">
<polygon fill="#d0d9ea" stroke="#404040" points="1391,-32 1391,-67 1520,-67 1520,-32 1391,-32"/>
</a>
</g>
</g>
<g id="clust5" class="cluster">
<title>clusterdir_6a666e964929058cf8b33dea7e42c5b7</title>
<g id="a_clust5"><a xlink:href="dir_6a666e964929058cf8b33dea7e42c5b7.html" target="_top">
<polygon fill="#d0d9ea" stroke="#404040" points="1245,-32 1245,-67 1383,-67 1383,-32 1245,-32"/>
</a>
</g>
</g>
<g id="clust6" class="cluster">
<title>clusterdir_f8fb4e9e932b238310b71efdb1a11bed</title>
<g id="a_clust6"><a xlink:href="dir_f8fb4e9e932b238310b71efdb1a11bed.html" target="_top">
<polygon fill="#dfe5f1" stroke="#404040" points="536,-32 536,-67 904,-67 904,-32 536,-32"/>
</a>
</g>
</g>
<g id="clust7" class="cluster">
<title>clusterdir_91f302e85b9db8d3aedc7b7879cf17cf</title>
<g id="a_clust7"><a xlink:href="dir_91f302e85b9db8d3aedc7b7879cf17cf.html" target="_top">
<polygon fill="#dfe5f1" stroke="#404040" points="228,-32 228,-67 528,-67 528,-32 228,-32"/>
</a>
</g>
</g>
<!-- dir_aa34d9347a57d442676b274def2f648c -->
<g id="node1" class="node">
<title>dir_aa34d9347a57d442676b274def2f648c</title>
<text text-anchor="middle" x="167" y="-47" font-family="Helvetica,sans-Serif" font-size="10.00">Alaris.Infrastructure</text>
</g>
<!-- dir_89e129e72e595784289a8ed56ec32082 -->
<g id="node2" class="node">
<title>dir_89e129e72e595784289a8ed56ec32082</title>
<g id="a_node2"><a xlink:href="dir_89e129e72e595784289a8ed56ec32082.html" target="_top" xlink:title="Configuration">
<polygon fill="#dfe5f1" stroke="#404040" points="98,-59 24,-59 24,-40 98,-40 98,-59"/>
<text text-anchor="middle" x="61" y="-47" font-family="Helvetica,sans-Serif" font-size="10.00">Configuration</text>
</a>
</g>
</g>
<!-- dir_74643265eeced7ab97661c2039c1a392 -->
<g id="node3" class="node">
<title>dir_74643265eeced7ab97661c2039c1a392</title>
<text text-anchor="middle" x="1216" y="-47" font-family="Helvetica,sans-Serif" font-size="10.00">Data</text>
</g>
<!-- dir_2aff059a12401e0b34eb0125528ccfee -->
<g id="node4" class="node">
<title>dir_2aff059a12401e0b34eb0125528ccfee</title>
<g id="a_node4"><a xlink:href="dir_2aff059a12401e0b34eb0125528ccfee.html" target="_top" xlink:title="Bridge">
<polygon fill="#d0d9ea" stroke="#404040" points="1179,-59 1135,-59 1135,-40 1179,-40 1179,-59"/>
<text text-anchor="middle" x="1157" y="-47" font-family="Helvetica,sans-Serif" font-size="10.00">Bridge</text>
</a>
</g>
</g>
<!-- dir_c92c657926a578347b8e72ef8d4cb363 -->
<g id="node5" class="node">
<title>dir_c92c657926a578347b8e72ef8d4cb363</title>
<text text-anchor="middle" x="1494" y="-47" font-family="Helvetica,sans-Serif" font-size="10.00">Http</text>
</g>
<!-- dir_8c79d499507e6d060eaab432c732a0b3 -->
<g id="node6" class="node">
<title>dir_8c79d499507e6d060eaab432c732a0b3</title>
<g id="a_node6"><a xlink:href="dir_8c79d499507e6d060eaab432c732a0b3.html" target="_top" xlink:title="Contracts">
<polygon fill="#c1cde4" stroke="#404040" points="1458.5,-59 1399.5,-59 1399.5,-40 1458.5,-40 1458.5,-59"/>
<text text-anchor="middle" x="1429" y="-47" font-family="Helvetica,sans-Serif" font-size="10.00">Contracts</text>
</a>
</g>
</g>
<!-- dir_bae54a53c4de45a9cbd3115a425213b0 -->
<g id="node7" class="node">
<title>dir_bae54a53c4de45a9cbd3115a425213b0</title>
<g id="a_node7"><a xlink:href="dir_bae54a53c4de45a9cbd3115a425213b0.html" target="_top" xlink:title="Model">
<polygon fill="#d0d9ea" stroke="#404040" points="1116.5,-59 1073.5,-59 1073.5,-40 1116.5,-40 1116.5,-59"/>
<text text-anchor="middle" x="1095" y="-47" font-family="Helvetica,sans-Serif" font-size="10.00">Model</text>
</a>
</g>
</g>
<!-- dir_6a666e964929058cf8b33dea7e42c5b7 -->
<g id="node8" class="node">
<title>dir_6a666e964929058cf8b33dea7e42c5b7</title>
<text text-anchor="middle" x="1348" y="-47" font-family="Helvetica,sans-Serif" font-size="10.00">Provider</text>
</g>
<!-- dir_e08f7a19c516ed343ed8efefa17a1da5 -->
<g id="node9" class="node">
<title>dir_e08f7a19c516ed343ed8efefa17a1da5</title>
<g id="a_node9"><a xlink:href="dir_e08f7a19c516ed343ed8efefa17a1da5.html" target="_top" xlink:title="Nasdaq">
<polygon fill="#c1cde4" stroke="#404040" points="1303,-59 1253,-59 1253,-40 1303,-40 1303,-59"/>
<text text-anchor="middle" x="1278" y="-47" font-family="Helvetica,sans-Serif" font-size="10.00">Nasdaq</text>
</a>
</g>
</g>
<!-- dir_6e8948c3b27d323761e717c32a7fcd09 -->
<g id="node10" class="node">
<title>dir_6e8948c3b27d323761e717c32a7fcd09</title>
<g id="a_node10"><a xlink:href="dir_6e8948c3b27d323761e717c32a7fcd09.html" target="_top" xlink:title="Quality">
<polygon fill="#d0d9ea" stroke="#404040" points="1055.5,-59 1008.5,-59 1008.5,-40 1055.5,-40 1055.5,-59"/>
<text text-anchor="middle" x="1032" y="-47" font-family="Helvetica,sans-Serif" font-size="10.00">Quality</text>
</a>
</g>
</g>
<!-- dir_da6375750f3b957e4b3ada625107af5f -->
<g id="node11" class="node">
<title>dir_da6375750f3b957e4b3ada625107af5f</title>
<g id="a_node11"><a xlink:href="dir_da6375750f3b957e4b3ada625107af5f.html" target="_top" xlink:title="Serialization">
<polygon fill="#d0d9ea" stroke="#404040" points="990,-59 920,-59 920,-40 990,-40 990,-59"/>
<text text-anchor="middle" x="955" y="-47" font-family="Helvetica,sans-Serif" font-size="10.00">Serialization</text>
</a>
</g>
</g>
<!-- dir_f8fb4e9e932b238310b71efdb1a11bed -->
<g id="node12" class="node">
<title>dir_f8fb4e9e932b238310b71efdb1a11bed</title>
<text text-anchor="middle" x="872" y="-47" font-family="Helvetica,sans-Serif" font-size="10.00">Events</text>
</g>
<!-- dir_485c6efab2d3f5e4d264d9513e8a5adf -->
<g id="node13" class="node">
<title>dir_485c6efab2d3f5e4d264d9513e8a5adf</title>
<g id="a_node13"><a xlink:href="dir_485c6efab2d3f5e4d264d9513e8a5adf.html" target="_top" xlink:title="Core">
<polygon fill="#d0d9ea" stroke="#404040" points="830,-59 792,-59 792,-40 830,-40 830,-59"/>
<text text-anchor="middle" x="811" y="-47" font-family="Helvetica,sans-Serif" font-size="10.00">Core</text>
</a>
</g>
</g>
<!-- dir_94ed1063af2c787d0cbc126aee0a9790 -->
<g id="node14" class="node">
<title>dir_94ed1063af2c787d0cbc126aee0a9790</title>
<g id="a_node14"><a xlink:href="dir_94ed1063af2c787d0cbc126aee0a9790.html" target="_top" xlink:title="Domain">
<polygon fill="#d0d9ea" stroke="#404040" points="774,-59 724,-59 724,-40 774,-40 774,-59"/>
<text text-anchor="middle" x="749" y="-47" font-family="Helvetica,sans-Serif" font-size="10.00">Domain</text>
</a>
</g>
</g>
<!-- dir_01095a36afefd88b447d4a03a28c966b -->
<g id="node15" class="node">
<title>dir_01095a36afefd88b447d4a03a28c966b</title>
<g id="a_node15"><a xlink:href="dir_01095a36afefd88b447d4a03a28c966b.html" target="_top" xlink:title="Infrastructure">
<polygon fill="#d0d9ea" stroke="#404040" points="706,-59 632,-59 632,-40 706,-40 706,-59"/>
<text text-anchor="middle" x="669" y="-47" font-family="Helvetica,sans-Serif" font-size="10.00">Infrastructure</text>
</a>
</g>
</g>
<!-- dir_47d8e1503b34d142ee7de054e324da09 -->
<g id="node16" class="node">
<title>dir_47d8e1503b34d142ee7de054e324da09</title>
<g id="a_node16"><a xlink:href="dir_47d8e1503b34d142ee7de054e324da09.html" target="_top" xlink:title="Serialization">
<polygon fill="#d0d9ea" stroke="#404040" points="614,-59 544,-59 544,-40 614,-40 614,-59"/>
<text text-anchor="middle" x="579" y="-47" font-family="Helvetica,sans-Serif" font-size="10.00">Serialization</text>
</a>
</g>
</g>
<!-- dir_91f302e85b9db8d3aedc7b7879cf17cf -->
<g id="node17" class="node">
<title>dir_91f302e85b9db8d3aedc7b7879cf17cf</title>
<text text-anchor="middle" x="493" y="-47" font-family="Helvetica,sans-Serif" font-size="10.00">Protocol</text>
</g>
<!-- dir_88703d95069d5d9d910acbc96253e618 -->
<g id="node18" class="node">
<title>dir_88703d95069d5d9d910acbc96253e618</title>
<g id="a_node18"><a xlink:href="dir_88703d95069d5d9d910acbc96253e618.html" target="_top" xlink:title="Buffers">
<polygon fill="#d0d9ea" stroke="#404040" points="448,-59 400,-59 400,-40 448,-40 448,-59"/>
<text text-anchor="middle" x="424" y="-47" font-family="Helvetica,sans-Serif" font-size="10.00">Buffers</text>
</a>
</g>
</g>
<!-- dir_7ebec3a3127a436a647a3674406db413 -->
<g id="node19" class="node">
<title>dir_7ebec3a3127a436a647a3674406db413</title>
<g id="a_node19"><a xlink:href="dir_7ebec3a3127a436a647a3674406db413.html" target="_top" xlink:title="Serialization">
<polygon fill="#d0d9ea" stroke="#404040" points="382,-59 312,-59 312,-40 382,-40 382,-59"/>
<text text-anchor="middle" x="347" y="-47" font-family="Helvetica,sans-Serif" font-size="10.00">Serialization</text>
</a>
</g>
</g>
<!-- dir_7144361ed7d8db4c1ae1c0e47cd00248 -->
<g id="node20" class="node">
<title>dir_7144361ed7d8db4c1ae1c0e47cd00248</title>
<g id="a_node20"><a xlink:href="dir_7144361ed7d8db4c1ae1c0e47cd00248.html" target="_top" xlink:title="Workflow">
<polygon fill="#d0d9ea" stroke="#404040" points="293.5,-59 236.5,-59 236.5,-40 293.5,-40 293.5,-59"/>
<text text-anchor="middle" x="265" y="-47" font-family="Helvetica,sans-Serif" font-size="10.00">Workflow</text>
</a>
</g>
</g>
</g>
</svg>

<g id="navigator" transform="translate(0 0)" fill="#404254">
  <rect fill="#f2f5e9" fill-opacity="0.5" stroke="#606060" stroke-width=".5" x="0" y="0" width="60" height="60"/>
  <use id="zoomplus" xlink:href="#zoomPlus" x="17" y="9" onmousedown="handleZoom(evt,'in')"/>
  <use id="zoomminus" xlink:href="#zoomMin" x="42" y="9" onmousedown="handleZoom(evt,'out')"/>
  <use id="reset" xlink:href="#resetDef" x="30" y="36" onmousedown="handleReset()"/>
   <use id="arrowup" xlink:href="#arrowUp" x="0" y="0" onmousedown="handlePan(0,-1)"/>
  <use id="arrowright" xlink:href="#arrowRight" x="0" y="0" onmousedown="handlePan(1,0)"/>
  <use id="arrowdown" xlink:href="#arrowDown" x="0" y="0" onmousedown="handlePan(0,1)"/>
  <use id="arrowleft" xlink:href="#arrowLeft" x="0" y="0" onmousedown="handlePan(-1,0)"/>
</g>
<svg viewBox="0 0 15 15" width="100%" height="30px" preserveAspectRatio="xMaxYMin meet">
 <g id="arrow_out" transform="scale(0.3 0.3)">
  <a xlink:href="dir_aa34d9347a57d442676b274def2f648c_dep_org.svg" target="_base">
   <rect id="button" ry="5" rx="5" y="6" x="6" height="38" width="38"
        fill="#f2f5e9" fill-opacity="0.5" stroke="#606060" stroke-width="1.0"/>
   <path id="arrow"
     d="M 11.500037,31.436501 C 11.940474,20.09759 22.043105,11.32322 32.158766,21.979434 L 37.068811,17.246167 C 37.068811,17.246167 37.088388,32 37.088388,32 L 22.160133,31.978069 C 22.160133,31.978069 26.997745,27.140456 26.997745,27.140456 C 18.528582,18.264221 13.291696,25.230495 11.500037,31.436501 z"
     style="fill:#404040;"/>
  </a>
 </g>
</svg>

<style type='text/css'>
<![CDATA[
[data-mouse-over-selected='false'] { opacity: 0.7; }
[data-mouse-over-selected='true']  { opacity: 1.0; }
]]>
</style>
<script type="application/ecmascript"><![CDATA[
document.addEventListener('DOMContentLoaded', (event) => {
  highlightEdges();
  highlightAdjacentNodes();
});
]]></script>
</svg>
