<?xml version="1.0" encoding="UTF-8" standalone="no"?>
<!DOCTYPE svg PUBLIC "-//W3C//DTD SVG 1.1//EN"
 "http://www.w3.org/Graphics/SVG/1.1/DTD/svg11.dtd">
<!-- Generated by graphviz version 2.43.0 (0)
 -->
<!-- Title: Graphical Class Hierarchy Pages: 1 -->
<svg width="273pt" height="470pt"
 viewBox="0.00 0.00 273.00 470.00" xmlns="http://www.w3.org/2000/svg" xmlns:xlink="http://www.w3.org/1999/xlink">
<g id="graph0" class="graph" transform="scale(1 1) rotate(0) translate(4 466)">
<title>Graphical Class Hierarchy</title>
<!-- Node0 -->
<g id="Node000000" class="node">
<title>Node0</title>
<g id="a_Node000000"><a xlink:title=" ">
<polygon fill="#e0e0e0" stroke="#999999" points="62,-240.5 0,-240.5 0,-221.5 62,-221.5 62,-240.5"/>
<text text-anchor="middle" x="31" y="-228.5" font-family="Helvetica,sans-Serif" font-size="10.00">Command</text>
</a>
</g>
</g>
<!-- Node1 -->
<g id="Node000001" class="node">
<title>Node1</title>
<g id="a_Node000001"><a xlink:href="da/d00/classAlaris_1_1Host_1_1Application_1_1Cli_1_1Commands_1_1CLvr001A.html" target="_top" xlink:title="Displays version and system information. Component ID: CLvr001A.">
<polygon fill="white" stroke="#666666" points="245.5,-462 117.5,-462 117.5,-432 245.5,-432 245.5,-462"/>
<text text-anchor="start" x="125.5" y="-450" font-family="Helvetica,sans-Serif" font-size="10.00">Alaris.Host.Application.</text>
<text text-anchor="middle" x="181.5" y="-439" font-family="Helvetica,sans-Serif" font-size="10.00">Cli.Commands.CLvr001A</text>
</a>
</g>
</g>
<!-- Node0&#45;&gt;Node1 -->
<g id="edge57_Node000000_Node000001" class="edge">
<title>Node0&#45;&gt;Node1</title>
<g id="a_edge57_Node000000_Node000001"><a xlink:title=" ">
<path fill="none" stroke="#63b8ff" d="M33.03,-251.07C36.13,-289.94 48.52,-375.84 98,-423 103.51,-428.25 110.09,-432.36 117.11,-435.58"/>
<polygon fill="#63b8ff" stroke="#63b8ff" points="36.49,-250.35 32.34,-240.61 29.51,-250.82 36.49,-250.35"/>
</a>
</g>
</g>
<!-- Node2 -->
<g id="Node000002" class="node">
<title>Node2</title>
<g id="a_Node000002"><a xlink:href="d7/d02/classAlaris_1_1Host_1_1Application_1_1Cli_1_1Commands_1_1Strategy_1_1CLst001A.html" target="_top" xlink:title="Lists available trading strategies. Component ID: CLst001A.">
<polygon fill="white" stroke="#666666" points="265,-414 98,-414 98,-384 265,-384 265,-414"/>
<text text-anchor="start" x="106" y="-402" font-family="Helvetica,sans-Serif" font-size="10.00">Alaris.Host.Application.</text>
<text text-anchor="middle" x="181.5" y="-391" font-family="Helvetica,sans-Serif" font-size="10.00">Cli.Commands.Strategy.CLst001A</text>
</a>
</g>
</g>
<!-- Node0&#45;&gt;Node2 -->
<g id="edge58_Node000000_Node000002" class="edge">
<title>Node0&#45;&gt;Node2</title>
<g id="a_edge58_Node000000_Node000002"><a xlink:title=" ">
<path fill="none" stroke="#63b8ff" d="M35.6,-250.74C42.29,-281.78 59.62,-341.87 98,-375 101.95,-378.41 106.37,-381.34 111.04,-383.85"/>
<polygon fill="#63b8ff" stroke="#63b8ff" points="38.99,-249.84 33.59,-240.72 32.12,-251.21 38.99,-249.84"/>
</a>
</g>
</g>
<!-- Node3 -->
<g id="Node000003" class="node">
<title>Node3</title>
<g id="a_Node000003"><a xlink:href="d2/d03/classAlaris_1_1Host_1_1Application_1_1Cli_1_1Commands_1_1Strategy_1_1CLst002A.html" target="_top" xlink:title="Shows strategy parameters and thresholds. Component ID: CLst002A.">
<polygon fill="white" stroke="#666666" points="265,-366 98,-366 98,-336 265,-336 265,-366"/>
<text text-anchor="start" x="106" y="-354" font-family="Helvetica,sans-Serif" font-size="10.00">Alaris.Host.Application.</text>
<text text-anchor="middle" x="181.5" y="-343" font-family="Helvetica,sans-Serif" font-size="10.00">Cli.Commands.Strategy.CLst002A</text>
</a>
</g>
</g>
<!-- Node0&#45;&gt;Node3 -->
<g id="edge59_Node000000_Node000003" class="edge">
<title>Node0&#45;&gt;Node3</title>
<g id="a_edge59_Node000000_Node000003"><a xlink:title=" ">
<path fill="none" stroke="#63b8ff" d="M40.05,-249.71C50.36,-271.47 70.26,-306.95 98,-327 102.72,-330.41 107.91,-333.33 113.32,-335.85"/>
<polygon fill="#63b8ff" stroke="#63b8ff" points="43.2,-248.18 35.88,-240.52 36.83,-251.07 43.2,-248.18"/>
</a>
</g>
</g>
<!-- Node4 -->
<g id="Node000004" class="node">
<title>Node4</title>
<g id="a_Node000004"><a xlink:href="d4/d02/classAlaris_1_1Host_1_1Application_1_1Cli_1_1Commands_1_1Strategy_1_1CLst003A.html" target="_top" xlink:title="Evaluates a single symbol for trading signals. Component ID: CLst003A.">
<polygon fill="white" stroke="#666666" points="265,-318 98,-318 98,-288 265,-288 265,-318"/>
<text text-anchor="start" x="106" y="-306" font-family="Helvetica,sans-Serif" font-size="10.00">Alaris.Host.Application.</text>
<text text-anchor="middle" x="181.5" y="-295" font-family="Helvetica,sans-Serif" font-size="10.00">Cli.Commands.Strategy.CLst003A</text>
</a>
</g>
</g>
<!-- Node0&#45;&gt;Node4 -->
<g id="edge60_Node000000_Node000004" class="edge">
<title>Node0&#45;&gt;Node4</title>
<g id="a_edge60_Node000000_Node000004"><a xlink:title=" ">
<path fill="none" stroke="#63b8ff" d="M50.82,-247.42C63.44,-257.71 80.84,-270.59 98,-279 104.83,-282.35 112.21,-285.32 119.66,-287.92"/>
<polygon fill="#63b8ff" stroke="#63b8ff" points="52.82,-244.53 42.91,-240.79 48.32,-249.89 52.82,-244.53"/>
</a>
</g>
</g>
<!-- Node5 -->
<g id="Node000005" class="node">
<title>Node5</title>
<g id="a_Node000005"><a xlink:href="d6/d02/classAlaris_1_1Host_1_1Application_1_1Cli_1_1Commands_1_1Trade_1_1CLtr002A.html" target="_top" xlink:title="Shows current trading state and positions. Component ID: CLtr002A.">
<polygon fill="white" stroke="#666666" points="258.5,-270 104.5,-270 104.5,-240 258.5,-240 258.5,-270"/>
<text text-anchor="start" x="112.5" y="-258" font-family="Helvetica,sans-Serif" font-size="10.00">Alaris.Host.Application.</text>
<text text-anchor="middle" x="181.5" y="-247" font-family="Helvetica,sans-Serif" font-size="10.00">Cli.Commands.Trade.CLtr002A</text>
</a>
</g>
</g>
<!-- Node0&#45;&gt;Node5 -->
<g id="edge61_Node000000_Node000005" class="edge">
<title>Node0&#45;&gt;Node5</title>
<g id="a_edge61_Node000000_Node000005"><a xlink:title=" ">
<path fill="none" stroke="#63b8ff" d="M72.09,-237.48C82.14,-239.1 93.25,-240.9 104.42,-242.7"/>
<polygon fill="#63b8ff" stroke="#63b8ff" points="72.48,-234 62.05,-235.86 71.36,-240.91 72.48,-234"/>
</a>
</g>
</g>
<!-- Node6 -->
<g id="Node000006" class="node">
<title>Node6</title>
<g id="a_Node000006"><a xlink:href="dc/d02/classAlaris_1_1Host_1_1Application_1_1Cli_1_1Commands_1_1Trade_1_1CLtr003A.html" target="_top" xlink:title="Shows pending and active trading signals. Component ID: CLtr003A.">
<polygon fill="white" stroke="#666666" points="258.5,-222 104.5,-222 104.5,-192 258.5,-192 258.5,-222"/>
<text text-anchor="start" x="112.5" y="-210" font-family="Helvetica,sans-Serif" font-size="10.00">Alaris.Host.Application.</text>
<text text-anchor="middle" x="181.5" y="-199" font-family="Helvetica,sans-Serif" font-size="10.00">Cli.Commands.Trade.CLtr003A</text>
</a>
</g>
</g>
<!-- Node0&#45;&gt;Node6 -->
<g id="edge62_Node000000_Node000006" class="edge">
<title>Node0&#45;&gt;Node6</title>
<g id="a_edge62_Node000000_Node000006"><a xlink:title=" ">
<path fill="none" stroke="#63b8ff" d="M72.09,-224.52C82.14,-222.9 93.25,-221.1 104.42,-219.3"/>
<polygon fill="#63b8ff" stroke="#63b8ff" points="71.36,-221.09 62.05,-226.14 72.48,-228 71.36,-221.09"/>
</a>
</g>
</g>
<!-- Node7 -->
<g id="Node000007" class="node">
<title>Node7</title>
<g id="a_Node000007"><a xlink:href="de/d00/classAlaris_1_1Host_1_1Application_1_1Command_1_1APcm001A.html" target="_top" xlink:title="Alaris Run Command &#45; executes algorithm in specified mode. Component ID: APcm001A.">
<polygon fill="white" stroke="#666666" points="241,-174 122,-174 122,-144 241,-144 241,-174"/>
<text text-anchor="start" x="130" y="-162" font-family="Helvetica,sans-Serif" font-size="10.00">Alaris.Host.Application.</text>
<text text-anchor="middle" x="181.5" y="-151" font-family="Helvetica,sans-Serif" font-size="10.00">Command.APcm001A</text>
</a>
</g>
</g>
<!-- Node0&#45;&gt;Node7 -->
<g id="edge63_Node000000_Node000007" class="edge">
<title>Node0&#45;&gt;Node7</title>
<g id="a_edge63_Node000000_Node000007"><a xlink:title=" ">
<path fill="none" stroke="#63b8ff" d="M50.82,-214.58C63.44,-204.29 80.84,-191.41 98,-183 105.5,-179.32 113.67,-176.1 121.85,-173.32"/>
<polygon fill="#63b8ff" stroke="#63b8ff" points="48.32,-212.11 42.91,-221.21 52.82,-217.47 48.32,-212.11"/>
</a>
</g>
</g>
<!-- Node8 -->
<g id="Node000008" class="node">
<title>Node8</title>
<g id="a_Node000008"><a xlink:href="d6/d02/classAlaris_1_1Host_1_1Application_1_1Command_1_1APcm002A.html" target="_top" xlink:title="APcm002A: Configuration management command for Alaris.">
<polygon fill="white" stroke="#666666" points="241,-126 122,-126 122,-96 241,-96 241,-126"/>
<text text-anchor="start" x="130" y="-114" font-family="Helvetica,sans-Serif" font-size="10.00">Alaris.Host.Application.</text>
<text text-anchor="middle" x="181.5" y="-103" font-family="Helvetica,sans-Serif" font-size="10.00">Command.APcm002A</text>
</a>
</g>
</g>
<!-- Node0&#45;&gt;Node8 -->
<g id="edge64_Node000000_Node000008" class="edge">
<title>Node0&#45;&gt;Node8</title>
<g id="a_edge64_Node000000_Node000008"><a xlink:title=" ">
<path fill="none" stroke="#63b8ff" d="M40.05,-212.29C50.36,-190.53 70.26,-155.05 98,-135 105.13,-129.84 113.36,-125.79 121.8,-122.61"/>
<polygon fill="#63b8ff" stroke="#63b8ff" points="36.83,-210.93 35.88,-221.48 43.2,-213.82 36.83,-210.93"/>
</a>
</g>
</g>
<!-- Node9 -->
<g id="Node000009" class="node">
<title>Node9</title>
<g id="a_Node000009"><a xlink:href="da/d03/classAlaris_1_1Host_1_1Application_1_1Command_1_1APcm003A.html" target="_top" xlink:title="Alaris Data Command &#45; download and manage market data. Component ID: APcm003A.">
<polygon fill="white" stroke="#666666" points="241,-78 122,-78 122,-48 241,-48 241,-78"/>
<text text-anchor="start" x="130" y="-66" font-family="Helvetica,sans-Serif" font-size="10.00">Alaris.Host.Application.</text>
<text text-anchor="middle" x="181.5" y="-55" font-family="Helvetica,sans-Serif" font-size="10.00">Command.APcm003A</text>
</a>
</g>
</g>
<!-- Node0&#45;&gt;Node9 -->
<g id="edge65_Node000000_Node000009" class="edge">
<title>Node0&#45;&gt;Node9</title>
<g id="a_edge65_Node000000_Node000009"><a xlink:title=" ">
<path fill="none" stroke="#63b8ff" d="M35.6,-211.26C42.29,-180.22 59.62,-120.13 98,-87 104.89,-81.05 113.18,-76.58 121.81,-73.21"/>
<polygon fill="#63b8ff" stroke="#63b8ff" points="32.12,-210.79 33.59,-221.28 38.99,-212.16 32.12,-210.79"/>
</a>
</g>
</g>
<!-- Node10 -->
<g id="Node000010" class="node">
<title>Node10</title>
<g id="a_Node000010"><a xlink:href="de/d00/classAlaris_1_1Host_1_1Application_1_1Command_1_1APcm004A.html" target="_top" xlink:title="Alaris Universe Command &#45; generate and manage universe files. Component ID: APcm004A.">
<polygon fill="white" stroke="#666666" points="241,-30 122,-30 122,0 241,0 241,-30"/>
<text text-anchor="start" x="130" y="-18" font-family="Helvetica,sans-Serif" font-size="10.00">Alaris.Host.Application.</text>
<text text-anchor="middle" x="181.5" y="-7" font-family="Helvetica,sans-Serif" font-size="10.00">Command.APcm004A</text>
</a>
</g>
</g>
<!-- Node0&#45;&gt;Node10 -->
<g id="edge66_Node000000_Node000010" class="edge">
<title>Node0&#45;&gt;Node10</title>
<g id="a_edge66_Node000000_Node000010"><a xlink:title=" ">
<path fill="none" stroke="#63b8ff" d="M33.03,-210.93C36.13,-172.06 48.52,-86.16 98,-39 104.69,-32.62 112.99,-27.92 121.71,-24.47"/>
<polygon fill="#63b8ff" stroke="#63b8ff" points="29.51,-211.18 32.34,-221.39 36.49,-211.65 29.51,-211.18"/>
</a>
</g>
</g>
</g>
</svg>
