<?xml version="1.0" encoding="UTF-8" standalone="no"?>
<!DOCTYPE svg PUBLIC "-//W3C//DTD SVG 1.1//EN"
 "http://www.w3.org/Graphics/SVG/1.1/DTD/svg11.dtd">
<!-- Generated by graphviz version 2.43.0 (0)
 -->
<!-- Title: Graphical Class Hierarchy Pages: 1 -->
<svg width="323pt" height="662pt"
 viewBox="0.00 0.00 323.00 662.00" xmlns="http://www.w3.org/2000/svg" xmlns:xlink="http://www.w3.org/1999/xlink">
<g id="graph0" class="graph" transform="scale(1 1) rotate(0) translate(4 658)">
<title>Graphical Class Hierarchy</title>
<!-- Node0 -->
<g id="Node000000" class="node">
<title>Node0</title>
<g id="a_Node000000"><a xlink:title=" ">
<polygon fill="#e0e0e0" stroke="#999999" points="89,-336.5 0,-336.5 0,-317.5 89,-317.5 89,-336.5"/>
<text text-anchor="middle" x="44.5" y="-324.5" font-family="Helvetica,sans-Serif" font-size="10.00">AsyncCommand</text>
</a>
</g>
</g>
<!-- Node1 -->
<g id="Node000001" class="node">
<title>Node1</title>
<g id="a_Node000001"><a xlink:href="d0/d02/classAlaris_1_1Host_1_1Application_1_1Cli_1_1Commands_1_1Backtest_1_1CLbt002A.html" target="_top" xlink:title="Analyzes backtest results for a session. Component ID: CLbt002A.">
<polygon fill="white" stroke="#666666" points="305,-654 135,-654 135,-624 305,-624 305,-654"/>
<text text-anchor="start" x="143" y="-642" font-family="Helvetica,sans-Serif" font-size="10.00">Alaris.Host.Application.</text>
<text text-anchor="middle" x="220" y="-631" font-family="Helvetica,sans-Serif" font-size="10.00">Cli.Commands.Backtest.CLbt002A</text>
</a>
</g>
</g>
<!-- Node0&#45;&gt;Node1 -->
<g id="edge43_Node000000_Node000001" class="edge">
<title>Node0&#45;&gt;Node1</title>
<g id="a_edge43_Node000000_Node000001"><a xlink:title=" ">
<path fill="none" stroke="#63b8ff" d="M44.69,-346.81C43.71,-398.75 48.57,-540.04 125,-615 128.49,-618.42 132.39,-621.37 136.57,-623.92"/>
<polygon fill="#63b8ff" stroke="#63b8ff" points="48.19,-346.72 44.98,-336.62 41.2,-346.52 48.19,-346.72"/>
</a>
</g>
</g>
<!-- Node2 -->
<g id="Node000002" class="node">
<title>Node2</title>
<g id="a_Node000002"><a xlink:href="dd/d01/classAlaris_1_1Host_1_1Application_1_1Cli_1_1Commands_1_1Backtest_1_1CLbt003A.html" target="_top" xlink:title="Lists previous backtest sessions. Component ID: CLbt003A.">
<polygon fill="white" stroke="#666666" points="305,-606 135,-606 135,-576 305,-576 305,-606"/>
<text text-anchor="start" x="143" y="-594" font-family="Helvetica,sans-Serif" font-size="10.00">Alaris.Host.Application.</text>
<text text-anchor="middle" x="220" y="-583" font-family="Helvetica,sans-Serif" font-size="10.00">Cli.Commands.Backtest.CLbt003A</text>
</a>
</g>
</g>
<!-- Node0&#45;&gt;Node2 -->
<g id="edge44_Node000000_Node000002" class="edge">
<title>Node0&#45;&gt;Node2</title>
<g id="a_edge44_Node000000_Node000002"><a xlink:title=" ">
<path fill="none" stroke="#63b8ff" d="M46,-347.16C48.27,-393.23 60.48,-506.84 125,-567 128.7,-570.45 132.82,-573.41 137.21,-575.97"/>
<polygon fill="#63b8ff" stroke="#63b8ff" points="49.49,-346.84 45.61,-336.98 42.49,-347.11 49.49,-346.84"/>
</a>
</g>
</g>
<!-- Node3 -->
<g id="Node000003" class="node">
<title>Node3</title>
<g id="a_Node000003"><a xlink:href="d0/d03/classAlaris_1_1Host_1_1Application_1_1Cli_1_1Commands_1_1Data_1_1CLdt001A.html" target="_top" xlink:title="Downloads market data (prices, options, rates) for a session. Component ID: CLdt001A.">
<polygon fill="white" stroke="#666666" points="296,-558 144,-558 144,-528 296,-528 296,-558"/>
<text text-anchor="start" x="152" y="-546" font-family="Helvetica,sans-Serif" font-size="10.00">Alaris.Host.Application.</text>
<text text-anchor="middle" x="220" y="-535" font-family="Helvetica,sans-Serif" font-size="10.00">Cli.Commands.Data.CLdt001A</text>
</a>
</g>
</g>
<!-- Node0&#45;&gt;Node3 -->
<g id="edge45_Node000000_Node000003" class="edge">
<title>Node0&#45;&gt;Node3</title>
<g id="a_edge45_Node000000_Node000003"><a xlink:title=" ">
<path fill="none" stroke="#63b8ff" d="M47.85,-346.8C53.58,-385.84 71.9,-472.98 125,-519 130.6,-523.85 137.05,-527.75 143.9,-530.87"/>
<polygon fill="#63b8ff" stroke="#63b8ff" points="51.3,-346.17 46.51,-336.73 44.36,-347.1 51.3,-346.17"/>
</a>
</g>
</g>
<!-- Node4 -->
<g id="Node000004" class="node">
<title>Node4</title>
<g id="a_Node000004"><a xlink:href="d4/d03/classAlaris_1_1Host_1_1Application_1_1Cli_1_1Commands_1_1Data_1_1CLdt002A.html" target="_top" xlink:title="Shows data coverage and freshness for sessions. Component ID: CLdt002A.">
<polygon fill="white" stroke="#666666" points="296,-510 144,-510 144,-480 296,-480 296,-510"/>
<text text-anchor="start" x="152" y="-498" font-family="Helvetica,sans-Serif" font-size="10.00">Alaris.Host.Application.</text>
<text text-anchor="middle" x="220" y="-487" font-family="Helvetica,sans-Serif" font-size="10.00">Cli.Commands.Data.CLdt002A</text>
</a>
</g>
</g>
<!-- Node0&#45;&gt;Node4 -->
<g id="edge46_Node000000_Node000004" class="edge">
<title>Node0&#45;&gt;Node4</title>
<g id="a_edge46_Node000000_Node000004"><a xlink:title=" ">
<path fill="none" stroke="#63b8ff" d="M50.78,-346.54C60.26,-377.76 83.17,-438.66 125,-471 130.73,-475.43 137.19,-479.05 143.96,-482"/>
<polygon fill="#63b8ff" stroke="#63b8ff" points="54.12,-345.47 47.98,-336.83 47.39,-347.41 54.12,-345.47"/>
</a>
</g>
</g>
<!-- Node5 -->
<g id="Node000005" class="node">
<title>Node5</title>
<g id="a_Node000005"><a xlink:href="d9/d02/classAlaris_1_1Host_1_1Application_1_1Cli_1_1Commands_1_1Data_1_1CLdt003A.html" target="_top" xlink:title="Validates data quality for a session. Component ID: CLdt003A.">
<polygon fill="white" stroke="#666666" points="296,-462 144,-462 144,-432 296,-432 296,-462"/>
<text text-anchor="start" x="152" y="-450" font-family="Helvetica,sans-Serif" font-size="10.00">Alaris.Host.Application.</text>
<text text-anchor="middle" x="220" y="-439" font-family="Helvetica,sans-Serif" font-size="10.00">Cli.Commands.Data.CLdt003A</text>
</a>
</g>
</g>
<!-- Node0&#45;&gt;Node5 -->
<g id="edge47_Node000000_Node000005" class="edge">
<title>Node0&#45;&gt;Node5</title>
<g id="a_edge47_Node000000_Node000005"><a xlink:title=" ">
<path fill="none" stroke="#63b8ff" d="M55.7,-345.28C68.85,-367.13 93.79,-403.23 125,-423 130.83,-426.69 137.21,-429.82 143.81,-432.47"/>
<polygon fill="#63b8ff" stroke="#63b8ff" points="58.71,-343.49 50.65,-336.61 52.66,-347.01 58.71,-343.49"/>
</a>
</g>
</g>
<!-- Node6 -->
<g id="Node000006" class="node">
<title>Node6</title>
<g id="a_Node000006"><a xlink:href="d5/d02/classAlaris_1_1Host_1_1Application_1_1Cli_1_1Commands_1_1Earnings_1_1CLer002A.html" target="_top" xlink:title="Shows upcoming earnings announcements from cached data. Component ID: CLer002A.">
<polygon fill="white" stroke="#666666" points="305,-414 135,-414 135,-384 305,-384 305,-414"/>
<text text-anchor="start" x="143" y="-402" font-family="Helvetica,sans-Serif" font-size="10.00">Alaris.Host.Application.</text>
<text text-anchor="middle" x="220" y="-391" font-family="Helvetica,sans-Serif" font-size="10.00">Cli.Commands.Earnings.CLer002A</text>
</a>
</g>
</g>
<!-- Node0&#45;&gt;Node6 -->
<g id="edge48_Node000000_Node000006" class="edge">
<title>Node0&#45;&gt;Node6</title>
<g id="a_edge48_Node000000_Node000006"><a xlink:title=" ">
<path fill="none" stroke="#63b8ff" d="M66.98,-342.35C82.48,-352.82 104.24,-366.31 125,-375 133,-378.35 141.59,-381.32 150.2,-383.94"/>
<polygon fill="#63b8ff" stroke="#63b8ff" points="68.86,-339.4 58.64,-336.6 64.89,-345.16 68.86,-339.4"/>
</a>
</g>
</g>
<!-- Node7 -->
<g id="Node000007" class="node">
<title>Node7</title>
<g id="a_Node000007"><a xlink:href="dd/d00/classAlaris_1_1Host_1_1Application_1_1Cli_1_1Commands_1_1Earnings_1_1CLer003A.html" target="_top" xlink:title="Checks earnings data coverage for a session. Component ID: CLer003A.">
<polygon fill="white" stroke="#666666" points="305,-366 135,-366 135,-336 305,-336 305,-366"/>
<text text-anchor="start" x="143" y="-354" font-family="Helvetica,sans-Serif" font-size="10.00">Alaris.Host.Application.</text>
<text text-anchor="middle" x="220" y="-343" font-family="Helvetica,sans-Serif" font-size="10.00">Cli.Commands.Earnings.CLer003A</text>
</a>
</g>
</g>
<!-- Node0&#45;&gt;Node7 -->
<g id="edge49_Node000000_Node000007" class="edge">
<title>Node0&#45;&gt;Node7</title>
<g id="a_edge49_Node000000_Node000007"><a xlink:title=" ">
<path fill="none" stroke="#63b8ff" d="M99.39,-334.45C110.7,-336.02 122.88,-337.7 134.99,-339.38"/>
<polygon fill="#63b8ff" stroke="#63b8ff" points="99.67,-330.96 89.28,-333.06 98.71,-337.89 99.67,-330.96"/>
</a>
</g>
</g>
<!-- Node8 -->
<g id="Node000008" class="node">
<title>Node8</title>
<g id="a_Node000008"><a xlink:href="d5/d00/classAlaris_1_1Host_1_1Application_1_1Command_1_1BacktestCreateCommand.html" target="_top" xlink:title="Creates a new backtest session.">
<polygon fill="white" stroke="#666666" points="309,-318 131,-318 131,-288 309,-288 309,-318"/>
<text text-anchor="start" x="139" y="-306" font-family="Helvetica,sans-Serif" font-size="10.00">Alaris.Host.Application.</text>
<text text-anchor="middle" x="220" y="-295" font-family="Helvetica,sans-Serif" font-size="10.00">Command.BacktestCreateCommand</text>
</a>
</g>
</g>
<!-- Node0&#45;&gt;Node8 -->
<g id="edge50_Node000000_Node000008" class="edge">
<title>Node0&#45;&gt;Node8</title>
<g id="a_edge50_Node000000_Node000008"><a xlink:title=" ">
<path fill="none" stroke="#63b8ff" d="M99.44,-319.54C109.46,-318.15 120.16,-316.67 130.89,-315.19"/>
<polygon fill="#63b8ff" stroke="#63b8ff" points="98.71,-316.11 89.28,-320.94 99.67,-323.04 98.71,-316.11"/>
</a>
</g>
</g>
<!-- Node9 -->
<g id="Node000009" class="node">
<title>Node9</title>
<g id="a_Node000009"><a xlink:href="d4/d02/classAlaris_1_1Host_1_1Application_1_1Command_1_1BacktestDeleteCommand.html" target="_top" xlink:title="Deletes a backtest session and all its data.">
<polygon fill="white" stroke="#666666" points="308.5,-270 131.5,-270 131.5,-240 308.5,-240 308.5,-270"/>
<text text-anchor="start" x="139.5" y="-258" font-family="Helvetica,sans-Serif" font-size="10.00">Alaris.Host.Application.</text>
<text text-anchor="middle" x="220" y="-247" font-family="Helvetica,sans-Serif" font-size="10.00">Command.BacktestDeleteCommand</text>
</a>
</g>
</g>
<!-- Node0&#45;&gt;Node9 -->
<g id="edge51_Node000000_Node000009" class="edge">
<title>Node0&#45;&gt;Node9</title>
<g id="a_edge51_Node000000_Node000009"><a xlink:title=" ">
<path fill="none" stroke="#63b8ff" d="M66.98,-311.65C82.48,-301.18 104.24,-287.69 125,-279 133,-275.65 141.59,-272.68 150.2,-270.06"/>
<polygon fill="#63b8ff" stroke="#63b8ff" points="64.89,-308.84 58.64,-317.4 68.86,-314.6 64.89,-308.84"/>
</a>
</g>
</g>
<!-- Node10 -->
<g id="Node000010" class="node">
<title>Node10</title>
<g id="a_Node000010"><a xlink:href="d6/d00/classAlaris_1_1Host_1_1Application_1_1Command_1_1BacktestListCommand.html" target="_top" xlink:title="Lists all backtest sessions.">
<polygon fill="white" stroke="#666666" points="302,-222 138,-222 138,-192 302,-192 302,-222"/>
<text text-anchor="start" x="146" y="-210" font-family="Helvetica,sans-Serif" font-size="10.00">Alaris.Host.Application.</text>
<text text-anchor="middle" x="220" y="-199" font-family="Helvetica,sans-Serif" font-size="10.00">Command.BacktestListCommand</text>
</a>
</g>
</g>
<!-- Node0&#45;&gt;Node10 -->
<g id="edge52_Node000000_Node000010" class="edge">
<title>Node0&#45;&gt;Node10</title>
<g id="a_edge52_Node000000_Node000010"><a xlink:title=" ">
<path fill="none" stroke="#63b8ff" d="M55.7,-308.72C68.85,-286.87 93.79,-250.77 125,-231 130.41,-227.58 136.28,-224.64 142.36,-222.12"/>
<polygon fill="#63b8ff" stroke="#63b8ff" points="52.66,-306.99 50.65,-317.39 58.71,-310.51 52.66,-306.99"/>
</a>
</g>
</g>
<!-- Node11 -->
<g id="Node000011" class="node">
<title>Node11</title>
<g id="a_Node000011"><a xlink:href="df/d01/classAlaris_1_1Host_1_1Application_1_1Command_1_1BacktestPrepareCommand.html" target="_top" xlink:title=" ">
<polygon fill="white" stroke="#666666" points="311,-174 129,-174 129,-144 311,-144 311,-174"/>
<text text-anchor="start" x="137" y="-162" font-family="Helvetica,sans-Serif" font-size="10.00">Alaris.Host.Application.</text>
<text text-anchor="middle" x="220" y="-151" font-family="Helvetica,sans-Serif" font-size="10.00">Command.BacktestPrepareCommand</text>
</a>
</g>
</g>
<!-- Node0&#45;&gt;Node11 -->
<g id="edge53_Node000000_Node000011" class="edge">
<title>Node0&#45;&gt;Node11</title>
<g id="a_edge53_Node000000_Node000011"><a xlink:title=" ">
<path fill="none" stroke="#63b8ff" d="M50.78,-307.46C60.26,-276.24 83.17,-215.34 125,-183 129.4,-179.6 134.22,-176.68 139.29,-174.17"/>
<polygon fill="#63b8ff" stroke="#63b8ff" points="47.39,-306.59 47.98,-317.17 54.12,-308.53 47.39,-306.59"/>
</a>
</g>
</g>
<!-- Node12 -->
<g id="Node000012" class="node">
<title>Node12</title>
<g id="a_Node000012"><a xlink:href="d2/d00/classAlaris_1_1Host_1_1Application_1_1Command_1_1BacktestRunCommand.html" target="_top" xlink:title="Runs a backtest session.">
<polygon fill="white" stroke="#666666" points="303.5,-126 136.5,-126 136.5,-96 303.5,-96 303.5,-126"/>
<text text-anchor="start" x="144.5" y="-114" font-family="Helvetica,sans-Serif" font-size="10.00">Alaris.Host.Application.</text>
<text text-anchor="middle" x="220" y="-103" font-family="Helvetica,sans-Serif" font-size="10.00">Command.BacktestRunCommand</text>
</a>
</g>
</g>
<!-- Node0&#45;&gt;Node12 -->
<g id="edge54_Node000000_Node000012" class="edge">
<title>Node0&#45;&gt;Node12</title>
<g id="a_edge54_Node000000_Node000012"><a xlink:title=" ">
<path fill="none" stroke="#63b8ff" d="M47.85,-307.2C53.58,-268.16 71.9,-181.02 125,-135 128.95,-131.58 133.31,-128.64 137.95,-126.1"/>
<polygon fill="#63b8ff" stroke="#63b8ff" points="44.36,-306.9 46.51,-317.27 51.3,-307.83 44.36,-306.9"/>
</a>
</g>
</g>
<!-- Node13 -->
<g id="Node000013" class="node">
<title>Node13</title>
<g id="a_Node000013"><a xlink:href="d0/d03/classAlaris_1_1Host_1_1Application_1_1Command_1_1BacktestViewCommand.html" target="_top" xlink:title="Views details of a backtest session.">
<polygon fill="white" stroke="#666666" points="305,-78 135,-78 135,-48 305,-48 305,-78"/>
<text text-anchor="start" x="143" y="-66" font-family="Helvetica,sans-Serif" font-size="10.00">Alaris.Host.Application.</text>
<text text-anchor="middle" x="220" y="-55" font-family="Helvetica,sans-Serif" font-size="10.00">Command.BacktestViewCommand</text>
</a>
</g>
</g>
<!-- Node0&#45;&gt;Node13 -->
<g id="edge55_Node000000_Node000013" class="edge">
<title>Node0&#45;&gt;Node13</title>
<g id="a_edge55_Node000000_Node000013"><a xlink:title=" ">
<path fill="none" stroke="#63b8ff" d="M46,-306.84C48.27,-260.77 60.48,-147.16 125,-87 128.7,-83.55 132.82,-80.59 137.21,-78.03"/>
<polygon fill="#63b8ff" stroke="#63b8ff" points="42.49,-306.89 45.61,-317.02 49.49,-307.16 42.49,-306.89"/>
</a>
</g>
</g>
<!-- Node14 -->
<g id="Node000014" class="node">
<title>Node14</title>
<g id="a_Node000014"><a xlink:href="d0/d02/classAlaris_1_1Host_1_1Application_1_1Command_1_1BootstrapEarningsCommand.html" target="_top" xlink:title="Downloads earnings calendar to cache files for backtesting. Component ID: APcm006A.">
<polygon fill="white" stroke="#666666" points="315,-30 125,-30 125,0 315,0 315,-30"/>
<text text-anchor="start" x="133" y="-18" font-family="Helvetica,sans-Serif" font-size="10.00">Alaris.Host.Application.</text>
<text text-anchor="middle" x="220" y="-7" font-family="Helvetica,sans-Serif" font-size="10.00">Command.BootstrapEarningsCommand</text>
</a>
</g>
</g>
<!-- Node0&#45;&gt;Node14 -->
<g id="edge56_Node000000_Node000014" class="edge">
<title>Node0&#45;&gt;Node14</title>
<g id="a_edge56_Node000000_Node000014"><a xlink:title=" ">
<path fill="none" stroke="#63b8ff" d="M44.69,-307.19C43.71,-255.25 48.57,-113.96 125,-39 128.49,-35.58 132.39,-32.63 136.57,-30.08"/>
<polygon fill="#63b8ff" stroke="#63b8ff" points="41.2,-307.48 44.98,-317.38 48.19,-307.28 41.2,-307.48"/>
</a>
</g>
</g>
</g>
</svg>
