<?xml version="1.0" encoding="UTF-8" standalone="no"?>
<!DOCTYPE svg PUBLIC "-//W3C//DTD SVG 1.1//EN"
 "http://www.w3.org/Graphics/SVG/1.1/DTD/svg11.dtd">
<!-- Generated by graphviz version 2.43.0 (0)
 -->
<!-- Title: Graphical Class Hierarchy Pages: 1 -->
<svg width="232pt" height="134pt"
 viewBox="0.00 0.00 232.00 134.00" xmlns="http://www.w3.org/2000/svg" xmlns:xlink="http://www.w3.org/1999/xlink">
<g id="graph0" class="graph" transform="scale(1 1) rotate(0) translate(4 130)">
<title>Graphical Class Hierarchy</title>
<!-- Node0 -->
<g id="Node000000" class="node">
<title>Node0</title>
<g id="a_Node000000"><a xlink:title=" ">
<polygon fill="#e0e0e0" stroke="#999999" points="62,-72.5 0,-72.5 0,-53.5 62,-53.5 62,-72.5"/>
<text text-anchor="middle" x="31" y="-60.5" font-family="Helvetica,sans-Serif" font-size="10.00">EventArgs</text>
</a>
</g>
</g>
<!-- Node1 -->
<g id="Node000001" class="node">
<title>Node1</title>
<g id="a_Node000001"><a xlink:href="d9/d02/classAlaris_1_1Host_1_1Application_1_1Cli_1_1Monitor_1_1EquityUpdate.html" target="_top" xlink:title="Equity value update event.">
<polygon fill="white" stroke="#666666" points="223.5,-126 98.5,-126 98.5,-96 223.5,-96 223.5,-126"/>
<text text-anchor="start" x="106.5" y="-114" font-family="Helvetica,sans-Serif" font-size="10.00">Alaris.Host.Application.</text>
<text text-anchor="middle" x="161" y="-103" font-family="Helvetica,sans-Serif" font-size="10.00">Cli.Monitor.EquityUpdate</text>
</a>
</g>
</g>
<!-- Node0&#45;&gt;Node1 -->
<g id="edge92_Node000000_Node000001" class="edge">
<title>Node0&#45;&gt;Node1</title>
<g id="a_edge92_Node000000_Node000001"><a xlink:title=" ">
<path fill="none" stroke="#63b8ff" d="M67.28,-76.23C83.57,-82.34 102.98,-89.62 119.83,-95.94"/>
<polygon fill="#63b8ff" stroke="#63b8ff" points="68.19,-72.83 57.6,-72.6 65.73,-79.39 68.19,-72.83"/>
</a>
</g>
</g>
<!-- Node2 -->
<g id="Node000002" class="node">
<title>Node2</title>
<g id="a_Node000002"><a xlink:href="df/d01/classAlaris_1_1Host_1_1Application_1_1Cli_1_1Monitor_1_1StatusUpdate.html" target="_top" xlink:title="Algorithm status update.">
<polygon fill="white" stroke="#666666" points="224,-78 98,-78 98,-48 224,-48 224,-78"/>
<text text-anchor="start" x="106" y="-66" font-family="Helvetica,sans-Serif" font-size="10.00">Alaris.Host.Application.</text>
<text text-anchor="middle" x="161" y="-55" font-family="Helvetica,sans-Serif" font-size="10.00">Cli.Monitor.StatusUpdate</text>
</a>
</g>
</g>
<!-- Node0&#45;&gt;Node2 -->
<g id="edge93_Node000000_Node000002" class="edge">
<title>Node0&#45;&gt;Node2</title>
<g id="a_edge93_Node000000_Node000002"><a xlink:title=" ">
<path fill="none" stroke="#63b8ff" d="M72.05,-63C80.27,-63 89.11,-63 97.91,-63"/>
<polygon fill="#63b8ff" stroke="#63b8ff" points="72.01,-59.5 62.01,-63 72.01,-66.5 72.01,-59.5"/>
</a>
</g>
</g>
<!-- Node3 -->
<g id="Node000003" class="node">
<title>Node3</title>
<g id="a_Node000003"><a xlink:href="d4/d00/classAlaris_1_1Host_1_1Application_1_1Cli_1_1Monitor_1_1TradeUpdate.html" target="_top" xlink:title="Trade execution event.">
<polygon fill="white" stroke="#666666" points="222,-30 100,-30 100,0 222,0 222,-30"/>
<text text-anchor="start" x="108" y="-18" font-family="Helvetica,sans-Serif" font-size="10.00">Alaris.Host.Application.</text>
<text text-anchor="middle" x="161" y="-7" font-family="Helvetica,sans-Serif" font-size="10.00">Cli.Monitor.TradeUpdate</text>
</a>
</g>
</g>
<!-- Node0&#45;&gt;Node3 -->
<g id="edge94_Node000000_Node000003" class="edge">
<title>Node0&#45;&gt;Node3</title>
<g id="a_edge94_Node000000_Node000003"><a xlink:title=" ">
<path fill="none" stroke="#63b8ff" d="M67.28,-49.77C83.57,-43.66 102.98,-36.38 119.83,-30.06"/>
<polygon fill="#63b8ff" stroke="#63b8ff" points="65.73,-46.61 57.6,-53.4 68.19,-53.17 65.73,-46.61"/>
</a>
</g>
</g>
</g>
</svg>
