<?xml version="1.0" encoding="UTF-8" standalone="no"?>
<!DOCTYPE svg PUBLIC "-//W3C//DTD SVG 1.1//EN"
 "http://www.w3.org/Graphics/SVG/1.1/DTD/svg11.dtd">
<!-- Generated by graphviz version 2.43.0 (0)
 -->
<!-- Title: Graphical Class Hierarchy Pages: 1 -->
<svg width="532pt" height="872pt"
 viewBox="0.00 0.00 532.00 871.50" xmlns="http://www.w3.org/2000/svg" xmlns:xlink="http://www.w3.org/1999/xlink">
<g id="graph0" class="graph" transform="scale(1 1) rotate(0) translate(4 867.5)">
<title>Graphical Class Hierarchy</title>
<!-- Node0 -->
<g id="Node000000" class="node">
<title>Node0</title>
<g id="a_Node000000"><a xlink:title=" ">
<polygon fill="#e0e0e0" stroke="#999999" points="98,-288.5 0,-288.5 0,-269.5 98,-269.5 98,-288.5"/>
<text text-anchor="middle" x="49" y="-276.5" font-family="Helvetica,sans-Serif" font-size="10.00">CommandSettings</text>
</a>
</g>
</g>
<!-- Node1 -->
<g id="Node000001" class="node">
<title>Node1</title>
<g id="a_Node000001"><a xlink:href="d4/d03/classAlaris_1_1Host_1_1Application_1_1Cli_1_1Infrastructure_1_1CLif004A.html" target="_top" xlink:title="Global settings inherited by all CLI commands. Component ID: CLif004A.">
<polygon fill="white" stroke="#666666" points="291,-558 158,-558 158,-528 291,-528 291,-558"/>
<text text-anchor="start" x="166" y="-546" font-family="Helvetica,sans-Serif" font-size="10.00">Alaris.Host.Application.</text>
<text text-anchor="middle" x="224.5" y="-535" font-family="Helvetica,sans-Serif" font-size="10.00">Cli.Infrastructure.CLif004A</text>
</a>
</g>
</g>
<!-- Node0&#45;&gt;Node1 -->
<g id="edge67_Node000000_Node000001" class="edge">
<title>Node0&#45;&gt;Node1</title>
<g id="a_edge67_Node000000_Node000001"><a xlink:title=" ">
<path fill="none" stroke="#63b8ff" d="M50.96,-299.14C54.27,-345.15 68.97,-458.65 134,-519 140.84,-525.35 149.17,-530.05 157.97,-533.53"/>
<polygon fill="#63b8ff" stroke="#63b8ff" points="54.44,-298.74 50.34,-288.97 47.46,-299.16 54.44,-298.74"/>
</a>
</g>
</g>
<!-- Node15 -->
<g id="Node000015" class="node">
<title>Node15</title>
<g id="a_Node000015"><a xlink:href="d8/d03/classAlaris_1_1Host_1_1Application_1_1Command_1_1BacktestCreateSettings.html" target="_top" xlink:title="Settings for backtest create command.">
<polygon fill="white" stroke="#666666" points="309,-510 140,-510 140,-480 309,-480 309,-510"/>
<text text-anchor="start" x="148" y="-498" font-family="Helvetica,sans-Serif" font-size="10.00">Alaris.Host.Application.</text>
<text text-anchor="middle" x="224.5" y="-487" font-family="Helvetica,sans-Serif" font-size="10.00">Command.BacktestCreateSettings</text>
</a>
</g>
</g>
<!-- Node0&#45;&gt;Node15 -->
<g id="edge81_Node000000_Node000015" class="edge">
<title>Node0&#45;&gt;Node15</title>
<g id="a_edge81_Node000000_Node000015"><a xlink:title=" ">
<path fill="none" stroke="#63b8ff" d="M52.9,-298.77C59.67,-337.76 80.27,-424.8 134,-471 138.03,-474.46 142.5,-477.43 147.24,-479.97"/>
<polygon fill="#63b8ff" stroke="#63b8ff" points="56.32,-298.02 51.27,-288.71 49.41,-299.14 56.32,-298.02"/>
</a>
</g>
</g>
<!-- Node16 -->
<g id="Node000016" class="node">
<title>Node16</title>
<g id="a_Node000016"><a xlink:href="d0/d03/classAlaris_1_1Host_1_1Application_1_1Command_1_1BacktestDeleteSettings.html" target="_top" xlink:title="Settings for backtest delete command.">
<polygon fill="white" stroke="#666666" points="308.5,-462 140.5,-462 140.5,-432 308.5,-432 308.5,-462"/>
<text text-anchor="start" x="148.5" y="-450" font-family="Helvetica,sans-Serif" font-size="10.00">Alaris.Host.Application.</text>
<text text-anchor="middle" x="224.5" y="-439" font-family="Helvetica,sans-Serif" font-size="10.00">Command.BacktestDeleteSettings</text>
</a>
</g>
</g>
<!-- Node0&#45;&gt;Node16 -->
<g id="edge82_Node000000_Node000016" class="edge">
<title>Node0&#45;&gt;Node16</title>
<g id="a_edge82_Node000000_Node000016"><a xlink:title=" ">
<path fill="none" stroke="#63b8ff" d="M55.95,-298.5C66.49,-329.66 91.41,-390.47 134,-423 138.47,-426.42 143.4,-429.35 148.56,-431.87"/>
<polygon fill="#63b8ff" stroke="#63b8ff" points="59.23,-297.25 52.82,-288.81 52.57,-299.4 59.23,-297.25"/>
</a>
</g>
</g>
<!-- Node17 -->
<g id="Node000017" class="node">
<title>Node17</title>
<g id="a_Node000017"><a xlink:href="d6/d00/classAlaris_1_1Host_1_1Application_1_1Command_1_1BacktestListSettings.html" target="_top" xlink:title="Settings for backtest list command.">
<polygon fill="white" stroke="#666666" points="302,-414 147,-414 147,-384 302,-384 302,-414"/>
<text text-anchor="start" x="155" y="-402" font-family="Helvetica,sans-Serif" font-size="10.00">Alaris.Host.Application.</text>
<text text-anchor="middle" x="224.5" y="-391" font-family="Helvetica,sans-Serif" font-size="10.00">Command.BacktestListSettings</text>
</a>
</g>
</g>
<!-- Node0&#45;&gt;Node17 -->
<g id="edge83_Node000000_Node000017" class="edge">
<title>Node0&#45;&gt;Node17</title>
<g id="a_edge83_Node000000_Node000017"><a xlink:title=" ">
<path fill="none" stroke="#63b8ff" d="M61.07,-297.2C75.26,-318.98 101.9,-355.01 134,-375 139.46,-378.4 145.4,-381.33 151.54,-383.84"/>
<polygon fill="#63b8ff" stroke="#63b8ff" points="63.91,-295.15 55.61,-288.57 57.99,-298.89 63.91,-295.15"/>
</a>
</g>
</g>
<!-- Node18 -->
<g id="Node000018" class="node">
<title>Node18</title>
<g id="a_Node000018"><a xlink:href="dd/d00/classAlaris_1_1Host_1_1Application_1_1Command_1_1BacktestPrepareSettings.html" target="_top" xlink:title=" ">
<polygon fill="white" stroke="#666666" points="311,-366 138,-366 138,-336 311,-336 311,-366"/>
<text text-anchor="start" x="146" y="-354" font-family="Helvetica,sans-Serif" font-size="10.00">Alaris.Host.Application.</text>
<text text-anchor="middle" x="224.5" y="-343" font-family="Helvetica,sans-Serif" font-size="10.00">Command.BacktestPrepareSettings</text>
</a>
</g>
</g>
<!-- Node0&#45;&gt;Node18 -->
<g id="edge84_Node000000_Node000018" class="edge">
<title>Node0&#45;&gt;Node18</title>
<g id="a_edge84_Node000000_Node000018"><a xlink:title=" ">
<path fill="none" stroke="#63b8ff" d="M72.7,-294.11C89.15,-304.52 112.25,-318.04 134,-327 142.03,-330.31 150.66,-333.29 159.27,-335.93"/>
<polygon fill="#63b8ff" stroke="#63b8ff" points="74.59,-291.16 64.29,-288.69 70.8,-297.05 74.59,-291.16"/>
</a>
</g>
</g>
<!-- Node19 -->
<g id="Node000019" class="node">
<title>Node19</title>
<g id="a_Node000019"><a xlink:href="d9/d01/classAlaris_1_1Host_1_1Application_1_1Command_1_1BacktestRunSettings.html" target="_top" xlink:title="Settings for backtest run command.">
<polygon fill="white" stroke="#666666" points="303.5,-318 145.5,-318 145.5,-288 303.5,-288 303.5,-318"/>
<text text-anchor="start" x="153.5" y="-306" font-family="Helvetica,sans-Serif" font-size="10.00">Alaris.Host.Application.</text>
<text text-anchor="middle" x="224.5" y="-295" font-family="Helvetica,sans-Serif" font-size="10.00">Command.BacktestRunSettings</text>
</a>
</g>
</g>
<!-- Node0&#45;&gt;Node19 -->
<g id="edge85_Node000000_Node000019" class="edge">
<title>Node0&#45;&gt;Node19</title>
<g id="a_edge85_Node000000_Node000019"><a xlink:title=" ">
<path fill="none" stroke="#63b8ff" d="M108.46,-287.09C120.25,-288.72 132.83,-290.46 145.17,-292.16"/>
<polygon fill="#63b8ff" stroke="#63b8ff" points="108.71,-283.59 98.33,-285.69 107.76,-290.52 108.71,-283.59"/>
</a>
</g>
</g>
<!-- Node20 -->
<g id="Node000020" class="node">
<title>Node20</title>
<g id="a_Node000020"><a xlink:href="d2/d01/classAlaris_1_1Host_1_1Application_1_1Command_1_1BacktestViewSettings.html" target="_top" xlink:title="Settings for backtest view command.">
<polygon fill="white" stroke="#666666" points="305,-270 144,-270 144,-240 305,-240 305,-270"/>
<text text-anchor="start" x="152" y="-258" font-family="Helvetica,sans-Serif" font-size="10.00">Alaris.Host.Application.</text>
<text text-anchor="middle" x="224.5" y="-247" font-family="Helvetica,sans-Serif" font-size="10.00">Command.BacktestViewSettings</text>
</a>
</g>
</g>
<!-- Node0&#45;&gt;Node20 -->
<g id="edge86_Node000000_Node000020" class="edge">
<title>Node0&#45;&gt;Node20</title>
<g id="a_edge86_Node000000_Node000020"><a xlink:title=" ">
<path fill="none" stroke="#63b8ff" d="M108.53,-270.9C119.88,-269.33 131.95,-267.66 143.85,-266.02"/>
<polygon fill="#63b8ff" stroke="#63b8ff" points="107.76,-267.48 98.33,-272.31 108.71,-274.41 107.76,-267.48"/>
</a>
</g>
</g>
<!-- Node21 -->
<g id="Node000021" class="node">
<title>Node21</title>
<g id="a_Node000021"><a xlink:href="dc/d02/classAlaris_1_1Host_1_1Application_1_1Command_1_1BootstrapEarningsSettings.html" target="_top" xlink:title="Settings for bootstrap earnings command.">
<polygon fill="white" stroke="#666666" points="315,-222 134,-222 134,-192 315,-192 315,-222"/>
<text text-anchor="start" x="142" y="-210" font-family="Helvetica,sans-Serif" font-size="10.00">Alaris.Host.Application.</text>
<text text-anchor="middle" x="224.5" y="-199" font-family="Helvetica,sans-Serif" font-size="10.00">Command.BootstrapEarningsSettings</text>
</a>
</g>
</g>
<!-- Node0&#45;&gt;Node21 -->
<g id="edge87_Node000000_Node000021" class="edge">
<title>Node0&#45;&gt;Node21</title>
<g id="a_edge87_Node000000_Node000021"><a xlink:title=" ">
<path fill="none" stroke="#63b8ff" d="M72.7,-263.89C89.15,-253.48 112.25,-239.96 134,-231 142.03,-227.69 150.66,-224.71 159.27,-222.07"/>
<polygon fill="#63b8ff" stroke="#63b8ff" points="70.8,-260.95 64.29,-269.31 74.59,-266.84 70.8,-260.95"/>
</a>
</g>
</g>
<!-- Node22 -->
<g id="Node000022" class="node">
<title>Node22</title>
<g id="a_Node000022"><a xlink:href="de/d02/classAlaris_1_1Host_1_1Application_1_1Command_1_1ConfigSettings.html" target="_top" xlink:title="Settings for the config command.">
<polygon fill="white" stroke="#666666" points="289,-174 160,-174 160,-144 289,-144 289,-174"/>
<text text-anchor="start" x="168" y="-162" font-family="Helvetica,sans-Serif" font-size="10.00">Alaris.Host.Application.</text>
<text text-anchor="middle" x="224.5" y="-151" font-family="Helvetica,sans-Serif" font-size="10.00">Command.ConfigSettings</text>
</a>
</g>
</g>
<!-- Node0&#45;&gt;Node22 -->
<g id="edge88_Node000000_Node000022" class="edge">
<title>Node0&#45;&gt;Node22</title>
<g id="a_edge88_Node000000_Node000022"><a xlink:title=" ">
<path fill="none" stroke="#63b8ff" d="M61.07,-260.8C75.26,-239.02 101.9,-202.99 134,-183 141.92,-178.07 150.85,-174.14 159.91,-171.01"/>
<polygon fill="#63b8ff" stroke="#63b8ff" points="57.99,-259.11 55.61,-269.43 63.91,-262.85 57.99,-259.11"/>
</a>
</g>
</g>
<!-- Node23 -->
<g id="Node000023" class="node">
<title>Node23</title>
<g id="a_Node000023"><a xlink:href="d4/d02/classAlaris_1_1Host_1_1Application_1_1Command_1_1DataSettings.html" target="_top" xlink:title="Data Command settings.">
<polygon fill="white" stroke="#666666" points="285.5,-126 163.5,-126 163.5,-96 285.5,-96 285.5,-126"/>
<text text-anchor="start" x="171.5" y="-114" font-family="Helvetica,sans-Serif" font-size="10.00">Alaris.Host.Application.</text>
<text text-anchor="middle" x="224.5" y="-103" font-family="Helvetica,sans-Serif" font-size="10.00">Command.DataSettings</text>
</a>
</g>
</g>
<!-- Node0&#45;&gt;Node23 -->
<g id="edge89_Node000000_Node000023" class="edge">
<title>Node0&#45;&gt;Node23</title>
<g id="a_edge89_Node000000_Node000023"><a xlink:title=" ">
<path fill="none" stroke="#63b8ff" d="M55.95,-259.5C66.49,-228.34 91.41,-167.53 134,-135 142.57,-128.46 152.78,-123.69 163.19,-120.23"/>
<polygon fill="#63b8ff" stroke="#63b8ff" points="52.57,-258.6 52.82,-269.19 59.23,-260.75 52.57,-258.6"/>
</a>
</g>
</g>
<!-- Node24 -->
<g id="Node000024" class="node">
<title>Node24</title>
<g id="a_Node000024"><a xlink:href="d0/d03/classAlaris_1_1Host_1_1Application_1_1Command_1_1RunSettings.html" target="_top" xlink:title="Run Command settings.">
<polygon fill="white" stroke="#666666" points="284,-78 165,-78 165,-48 284,-48 284,-78"/>
<text text-anchor="start" x="173" y="-66" font-family="Helvetica,sans-Serif" font-size="10.00">Alaris.Host.Application.</text>
<text text-anchor="middle" x="224.5" y="-55" font-family="Helvetica,sans-Serif" font-size="10.00">Command.RunSettings</text>
</a>
</g>
</g>
<!-- Node0&#45;&gt;Node24 -->
<g id="edge90_Node000000_Node000024" class="edge">
<title>Node0&#45;&gt;Node24</title>
<g id="a_edge90_Node000000_Node000024"><a xlink:title=" ">
<path fill="none" stroke="#63b8ff" d="M52.9,-259.23C59.67,-220.24 80.27,-133.2 134,-87 142.78,-79.45 153.7,-74.25 164.87,-70.67"/>
<polygon fill="#63b8ff" stroke="#63b8ff" points="49.41,-258.86 51.27,-269.29 56.32,-259.98 49.41,-258.86"/>
</a>
</g>
</g>
<!-- Node25 -->
<g id="Node000025" class="node">
<title>Node25</title>
<g id="a_Node000025"><a xlink:href="d1/d00/classAlaris_1_1Host_1_1Application_1_1Command_1_1UniverseSettings.html" target="_top" xlink:title="Universe command settings.">
<polygon fill="white" stroke="#666666" points="294.5,-30 154.5,-30 154.5,0 294.5,0 294.5,-30"/>
<text text-anchor="start" x="162.5" y="-18" font-family="Helvetica,sans-Serif" font-size="10.00">Alaris.Host.Application.</text>
<text text-anchor="middle" x="224.5" y="-7" font-family="Helvetica,sans-Serif" font-size="10.00">Command.UniverseSettings</text>
</a>
</g>
</g>
<!-- Node0&#45;&gt;Node25 -->
<g id="edge91_Node000000_Node000025" class="edge">
<title>Node0&#45;&gt;Node25</title>
<g id="a_edge91_Node000000_Node000025"><a xlink:title=" ">
<path fill="none" stroke="#63b8ff" d="M50.96,-258.86C54.27,-212.85 68.97,-99.35 134,-39 139.9,-33.53 146.9,-29.28 154.36,-25.98"/>
<polygon fill="#63b8ff" stroke="#63b8ff" points="47.46,-258.84 50.34,-269.03 54.44,-259.26 47.46,-258.84"/>
</a>
</g>
</g>
<!-- Node2 -->
<g id="Node000002" class="node">
<title>Node2</title>
<g id="a_Node000002"><a xlink:href="d0/d02/classAlaris_1_1Host_1_1Application_1_1Cli_1_1Settings_1_1BacktestAnalyzeSettings.html" target="_top" xlink:title="Settings for backtest analyze command.">
<polygon fill="white" stroke="#666666" points="510,-863.5 365,-863.5 365,-822.5 510,-822.5 510,-863.5"/>
<text text-anchor="start" x="373" y="-851.5" font-family="Helvetica,sans-Serif" font-size="10.00">Alaris.Host.Application.</text>
<text text-anchor="start" x="373" y="-840.5" font-family="Helvetica,sans-Serif" font-size="10.00">Cli.Settings.BacktestAnalyze</text>
<text text-anchor="middle" x="437.5" y="-829.5" font-family="Helvetica,sans-Serif" font-size="10.00">Settings</text>
</a>
</g>
</g>
<!-- Node1&#45;&gt;Node2 -->
<g id="edge68_Node000001_Node000002" class="edge">
<title>Node1&#45;&gt;Node2</title>
<g id="a_edge68_Node000001_Node000002"><a xlink:title=" ">
<path fill="none" stroke="#63b8ff" d="M230.34,-568.19C241.77,-621.08 275.41,-744.46 351,-813 355.2,-816.8 359.9,-820.13 364.89,-823.04"/>
<polygon fill="#63b8ff" stroke="#63b8ff" points="233.74,-567.38 228.28,-558.3 226.89,-568.81 233.74,-567.38"/>
</a>
</g>
</g>
<!-- Node3 -->
<g id="Node000003" class="node">
<title>Node3</title>
<g id="a_Node000003"><a xlink:href="d5/d03/classAlaris_1_1Host_1_1Application_1_1Cli_1_1Settings_1_1BacktestListSettings.html" target="_top" xlink:title="Settings for backtest list command.">
<polygon fill="white" stroke="#666666" points="518,-804 357,-804 357,-774 518,-774 518,-804"/>
<text text-anchor="start" x="365" y="-792" font-family="Helvetica,sans-Serif" font-size="10.00">Alaris.Host.Application.</text>
<text text-anchor="middle" x="437.5" y="-781" font-family="Helvetica,sans-Serif" font-size="10.00">Cli.Settings.BacktestListSettings</text>
</a>
</g>
</g>
<!-- Node1&#45;&gt;Node3 -->
<g id="edge69_Node000001_Node000003" class="edge">
<title>Node1&#45;&gt;Node3</title>
<g id="a_edge69_Node000001_Node000003"><a xlink:title=" ">
<path fill="none" stroke="#63b8ff" d="M232.56,-567.82C246.94,-613.86 284.09,-712.54 351,-765 355.37,-768.42 360.2,-771.36 365.27,-773.88"/>
<polygon fill="#63b8ff" stroke="#63b8ff" points="235.85,-566.63 229.61,-558.07 229.15,-568.66 235.85,-566.63"/>
</a>
</g>
</g>
<!-- Node4 -->
<g id="Node000004" class="node">
<title>Node4</title>
<g id="a_Node000004"><a xlink:href="dc/d00/classAlaris_1_1Host_1_1Application_1_1Cli_1_1Settings_1_1BacktestRunSettings.html" target="_top" xlink:title="Settings for backtest run command. Component ID: CLse003A.">
<polygon fill="white" stroke="#666666" points="519.5,-756 355.5,-756 355.5,-726 519.5,-726 519.5,-756"/>
<text text-anchor="start" x="363.5" y="-744" font-family="Helvetica,sans-Serif" font-size="10.00">Alaris.Host.Application.</text>
<text text-anchor="middle" x="437.5" y="-733" font-family="Helvetica,sans-Serif" font-size="10.00">Cli.Settings.BacktestRunSettings</text>
</a>
</g>
</g>
<!-- Node1&#45;&gt;Node4 -->
<g id="edge70_Node000001_Node000004" class="edge">
<title>Node1&#45;&gt;Node4</title>
<g id="a_edge70_Node000001_Node000004"><a xlink:title=" ">
<path fill="none" stroke="#63b8ff" d="M236.49,-567.49C254.74,-605.35 294.94,-677.84 351,-717 355.93,-720.44 361.34,-723.39 366.97,-725.92"/>
<polygon fill="#63b8ff" stroke="#63b8ff" points="239.55,-565.77 232.12,-558.21 233.21,-568.75 239.55,-565.77"/>
</a>
</g>
</g>
<!-- Node5 -->
<g id="Node000005" class="node">
<title>Node5</title>
<g id="a_Node000005"><a xlink:href="da/d02/classAlaris_1_1Host_1_1Application_1_1Cli_1_1Settings_1_1DataBootstrapSettings.html" target="_top" xlink:title="Settings for data bootstrap command. Component ID: CLse001A.">
<polygon fill="white" stroke="#666666" points="522.5,-708 352.5,-708 352.5,-678 522.5,-678 522.5,-708"/>
<text text-anchor="start" x="360.5" y="-696" font-family="Helvetica,sans-Serif" font-size="10.00">Alaris.Host.Application.</text>
<text text-anchor="middle" x="437.5" y="-685" font-family="Helvetica,sans-Serif" font-size="10.00">Cli.Settings.DataBootstrapSettings</text>
</a>
</g>
</g>
<!-- Node1&#45;&gt;Node5 -->
<g id="edge71_Node000001_Node000005" class="edge">
<title>Node1&#45;&gt;Node5</title>
<g id="a_edge71_Node000001_Node000005"><a xlink:title=" ">
<path fill="none" stroke="#63b8ff" d="M242.65,-566.47C264.63,-594.89 305.39,-642.24 351,-669 356.85,-672.43 363.22,-675.39 369.75,-677.95"/>
<polygon fill="#63b8ff" stroke="#63b8ff" points="245.28,-564.15 236.45,-558.31 239.71,-568.39 245.28,-564.15"/>
</a>
</g>
</g>
<!-- Node6 -->
<g id="Node000006" class="node">
<title>Node6</title>
<g id="a_Node000006"><a xlink:href="d6/d00/classAlaris_1_1Host_1_1Application_1_1Cli_1_1Settings_1_1DataStatusSettings.html" target="_top" xlink:title="Settings for data status command.">
<polygon fill="white" stroke="#666666" points="515.5,-660 359.5,-660 359.5,-630 515.5,-630 515.5,-660"/>
<text text-anchor="start" x="367.5" y="-648" font-family="Helvetica,sans-Serif" font-size="10.00">Alaris.Host.Application.</text>
<text text-anchor="middle" x="437.5" y="-637" font-family="Helvetica,sans-Serif" font-size="10.00">Cli.Settings.DataStatusSettings</text>
</a>
</g>
</g>
<!-- Node1&#45;&gt;Node6 -->
<g id="edge72_Node000001_Node000006" class="edge">
<title>Node1&#45;&gt;Node6</title>
<g id="a_edge72_Node000001_Node000006"><a xlink:title=" ">
<path fill="none" stroke="#63b8ff" d="M253.98,-563.97C278.61,-581.29 315.72,-605.46 351,-621 358.48,-624.29 366.52,-627.25 374.58,-629.87"/>
<polygon fill="#63b8ff" stroke="#63b8ff" points="255.99,-561.1 245.81,-558.16 251.93,-566.81 255.99,-561.1"/>
</a>
</g>
</g>
<!-- Node7 -->
<g id="Node000007" class="node">
<title>Node7</title>
<g id="a_Node000007"><a xlink:href="d0/d01/classAlaris_1_1Host_1_1Application_1_1Cli_1_1Settings_1_1DataValidateSettings.html" target="_top" xlink:title="Settings for data validate command.">
<polygon fill="white" stroke="#666666" points="518.5,-612 356.5,-612 356.5,-582 518.5,-582 518.5,-612"/>
<text text-anchor="start" x="364.5" y="-600" font-family="Helvetica,sans-Serif" font-size="10.00">Alaris.Host.Application.</text>
<text text-anchor="middle" x="437.5" y="-589" font-family="Helvetica,sans-Serif" font-size="10.00">Cli.Settings.DataValidateSettings</text>
</a>
</g>
</g>
<!-- Node1&#45;&gt;Node7 -->
<g id="edge73_Node000001_Node000007" class="edge">
<title>Node1&#45;&gt;Node7</title>
<g id="a_edge73_Node000001_Node000007"><a xlink:title=" ">
<path fill="none" stroke="#63b8ff" d="M294.04,-560.54C321.03,-567.45 351.71,-575.3 377.67,-581.95"/>
<polygon fill="#63b8ff" stroke="#63b8ff" points="294.83,-557.13 284.28,-558.04 293.1,-563.91 294.83,-557.13"/>
</a>
</g>
</g>
<!-- Node8 -->
<g id="Node000008" class="node">
<title>Node8</title>
<g id="a_Node000008"><a xlink:href="de/d00/classAlaris_1_1Host_1_1Application_1_1Cli_1_1Settings_1_1EarningsBootstrapSettings.html" target="_top" xlink:title="Settings for earnings bootstrap command. Component ID: CLse002A.">
<polygon fill="white" stroke="#666666" points="513,-563.5 362,-563.5 362,-522.5 513,-522.5 513,-563.5"/>
<text text-anchor="start" x="370" y="-551.5" font-family="Helvetica,sans-Serif" font-size="10.00">Alaris.Host.Application.</text>
<text text-anchor="start" x="370" y="-540.5" font-family="Helvetica,sans-Serif" font-size="10.00">Cli.Settings.EarningsBootstrap</text>
<text text-anchor="middle" x="437.5" y="-529.5" font-family="Helvetica,sans-Serif" font-size="10.00">Settings</text>
</a>
</g>
</g>
<!-- Node1&#45;&gt;Node8 -->
<g id="edge74_Node000001_Node000008" class="edge">
<title>Node1&#45;&gt;Node8</title>
<g id="a_edge74_Node000001_Node000008"><a xlink:title=" ">
<path fill="none" stroke="#63b8ff" d="M301.24,-543C320.92,-543 342.1,-543 361.72,-543"/>
<polygon fill="#63b8ff" stroke="#63b8ff" points="301.11,-539.5 291.11,-543 301.11,-546.5 301.11,-539.5"/>
</a>
</g>
</g>
<!-- Node9 -->
<g id="Node000009" class="node">
<title>Node9</title>
<g id="a_Node000009"><a xlink:href="d1/d03/classAlaris_1_1Host_1_1Application_1_1Cli_1_1Settings_1_1EarningsCheckSettings.html" target="_top" xlink:title="Settings for earnings check command.">
<polygon fill="white" stroke="#666666" points="524,-504 351,-504 351,-474 524,-474 524,-504"/>
<text text-anchor="start" x="359" y="-492" font-family="Helvetica,sans-Serif" font-size="10.00">Alaris.Host.Application.</text>
<text text-anchor="middle" x="437.5" y="-481" font-family="Helvetica,sans-Serif" font-size="10.00">Cli.Settings.EarningsCheckSettings</text>
</a>
</g>
</g>
<!-- Node1&#45;&gt;Node9 -->
<g id="edge75_Node000001_Node000009" class="edge">
<title>Node1&#45;&gt;Node9</title>
<g id="a_edge75_Node000001_Node000009"><a xlink:title=" ">
<path fill="none" stroke="#63b8ff" d="M294.04,-525.46C321.03,-518.55 351.71,-510.7 377.67,-504.05"/>
<polygon fill="#63b8ff" stroke="#63b8ff" points="293.1,-522.09 284.28,-527.96 294.83,-528.87 293.1,-522.09"/>
</a>
</g>
</g>
<!-- Node10 -->
<g id="Node000010" class="node">
<title>Node10</title>
<g id="a_Node000010"><a xlink:href="d2/d03/classAlaris_1_1Host_1_1Application_1_1Cli_1_1Settings_1_1EarningsUpcomingSettings.html" target="_top" xlink:title="Settings for earnings upcoming command.">
<polygon fill="white" stroke="#666666" points="514,-455.5 361,-455.5 361,-414.5 514,-414.5 514,-455.5"/>
<text text-anchor="start" x="369" y="-443.5" font-family="Helvetica,sans-Serif" font-size="10.00">Alaris.Host.Application.</text>
<text text-anchor="start" x="369" y="-432.5" font-family="Helvetica,sans-Serif" font-size="10.00">Cli.Settings.EarningsUpcoming</text>
<text text-anchor="middle" x="437.5" y="-421.5" font-family="Helvetica,sans-Serif" font-size="10.00">Settings</text>
</a>
</g>
</g>
<!-- Node1&#45;&gt;Node10 -->
<g id="edge76_Node000001_Node000010" class="edge">
<title>Node1&#45;&gt;Node10</title>
<g id="a_edge76_Node000001_Node000010"><a xlink:title=" ">
<path fill="none" stroke="#63b8ff" d="M300.49,-527.43C305.61,-525.01 310.51,-522.22 315,-519 338.44,-502.18 328.22,-482.69 351,-465 355.47,-461.53 360.38,-458.44 365.51,-455.69"/>
<polygon fill="#63b8ff" stroke="#63b8ff" points="298.95,-524.28 291.09,-531.39 301.66,-530.73 298.95,-524.28"/>
</a>
</g>
</g>
<!-- Node11 -->
<g id="Node000011" class="node">
<title>Node11</title>
<g id="a_Node000011"><a xlink:href="d7/d02/classAlaris_1_1Host_1_1Application_1_1Cli_1_1Settings_1_1StrategyEvaluateSettings.html" target="_top" xlink:title="Settings for strategy evaluate command.">
<polygon fill="white" stroke="#666666" points="510.5,-396.5 364.5,-396.5 364.5,-355.5 510.5,-355.5 510.5,-396.5"/>
<text text-anchor="start" x="372.5" y="-384.5" font-family="Helvetica,sans-Serif" font-size="10.00">Alaris.Host.Application.</text>
<text text-anchor="start" x="372.5" y="-373.5" font-family="Helvetica,sans-Serif" font-size="10.00">Cli.Settings.StrategyEvaluate</text>
<text text-anchor="middle" x="437.5" y="-362.5" font-family="Helvetica,sans-Serif" font-size="10.00">Settings</text>
</a>
</g>
</g>
<!-- Node1&#45;&gt;Node11 -->
<g id="edge77_Node000001_Node000011" class="edge">
<title>Node1&#45;&gt;Node11</title>
<g id="a_edge77_Node000001_Node000011"><a xlink:title=" ">
<path fill="none" stroke="#63b8ff" d="M300.41,-529.42C305.72,-526.56 310.68,-523.13 315,-519 353.13,-482.6 314.27,-443.81 351,-406 354.95,-401.94 359.47,-398.42 364.34,-395.39"/>
<polygon fill="#63b8ff" stroke="#63b8ff" points="298.78,-526.32 291.19,-533.7 301.73,-532.66 298.78,-526.32"/>
</a>
</g>
</g>
<!-- Node12 -->
<g id="Node000012" class="node">
<title>Node12</title>
<g id="a_Node000012"><a xlink:href="de/d00/classAlaris_1_1Host_1_1Application_1_1Cli_1_1Settings_1_1StrategyInfoSettings.html" target="_top" xlink:title="Settings for strategy info command. Component ID: CLse005A.">
<polygon fill="white" stroke="#666666" points="517.5,-337 357.5,-337 357.5,-307 517.5,-307 517.5,-337"/>
<text text-anchor="start" x="365.5" y="-325" font-family="Helvetica,sans-Serif" font-size="10.00">Alaris.Host.Application.</text>
<text text-anchor="middle" x="437.5" y="-314" font-family="Helvetica,sans-Serif" font-size="10.00">Cli.Settings.StrategyInfoSettings</text>
</a>
</g>
</g>
<!-- Node1&#45;&gt;Node12 -->
<g id="edge78_Node000001_Node000012" class="edge">
<title>Node1&#45;&gt;Node12</title>
<g id="a_edge78_Node000001_Node000012"><a xlink:title=" ">
<path fill="none" stroke="#63b8ff" d="M300.62,-530.04C305.93,-527.05 310.82,-523.42 315,-519 368.67,-462.26 297.97,-404.34 351,-347 354.57,-343.14 358.7,-339.86 363.18,-337.08"/>
<polygon fill="#63b8ff" stroke="#63b8ff" points="298.85,-527.01 291.34,-534.49 301.87,-533.32 298.85,-527.01"/>
</a>
</g>
</g>
<!-- Node13 -->
<g id="Node000013" class="node">
<title>Node13</title>
<g id="a_Node000013"><a xlink:href="d1/d00/classAlaris_1_1Host_1_1Application_1_1Cli_1_1Settings_1_1TradeSignalsSettings.html" target="_top" xlink:title="Settings for trade signals command.">
<polygon fill="white" stroke="#666666" points="519.5,-289 355.5,-289 355.5,-259 519.5,-259 519.5,-289"/>
<text text-anchor="start" x="363.5" y="-277" font-family="Helvetica,sans-Serif" font-size="10.00">Alaris.Host.Application.</text>
<text text-anchor="middle" x="437.5" y="-266" font-family="Helvetica,sans-Serif" font-size="10.00">Cli.Settings.TradeSignalsSettings</text>
</a>
</g>
</g>
<!-- Node1&#45;&gt;Node13 -->
<g id="edge79_Node000001_Node000013" class="edge">
<title>Node1&#45;&gt;Node13</title>
<g id="a_edge79_Node000001_Node000013"><a xlink:title=" ">
<path fill="none" stroke="#63b8ff" d="M300.57,-530.4C305.93,-527.34 310.85,-523.59 315,-519 381.75,-445.18 284.69,-372.2 351,-298 354.08,-294.55 357.62,-291.58 361.45,-289.03"/>
<polygon fill="#63b8ff" stroke="#63b8ff" points="298.66,-527.43 291.17,-534.93 301.7,-533.74 298.66,-527.43"/>
</a>
</g>
</g>
<!-- Node14 -->
<g id="Node000014" class="node">
<title>Node14</title>
<g id="a_Node000014"><a xlink:href="db/d02/classAlaris_1_1Host_1_1Application_1_1Cli_1_1Settings_1_1TradeStatusSettings.html" target="_top" xlink:title="Settings for trade status command. Component ID: CLse004A.">
<polygon fill="white" stroke="#666666" points="517.5,-241 357.5,-241 357.5,-211 517.5,-211 517.5,-241"/>
<text text-anchor="start" x="365.5" y="-229" font-family="Helvetica,sans-Serif" font-size="10.00">Alaris.Host.Application.</text>
<text text-anchor="middle" x="437.5" y="-218" font-family="Helvetica,sans-Serif" font-size="10.00">Cli.Settings.TradeStatusSettings</text>
</a>
</g>
</g>
<!-- Node1&#45;&gt;Node14 -->
<g id="edge80_Node000001_Node000014" class="edge">
<title>Node1&#45;&gt;Node14</title>
<g id="a_edge80_Node000001_Node000014"><a xlink:title=" ">
<path fill="none" stroke="#63b8ff" d="M300.71,-530.53C306.04,-527.44 310.92,-523.65 315,-519 394.62,-428.39 271.91,-341.07 351,-250 353.93,-246.62 357.3,-243.71 360.96,-241.18"/>
<polygon fill="#63b8ff" stroke="#63b8ff" points="298.81,-527.56 291.35,-535.09 301.87,-533.85 298.81,-527.56"/>
</a>
</g>
</g>
</g>
</svg>
