<?xml version="1.0" encoding="UTF-8" standalone="no"?>
<!DOCTYPE svg PUBLIC "-//W3C//DTD SVG 1.1//EN"
 "http://www.w3.org/Graphics/SVG/1.1/DTD/svg11.dtd">
<!-- Generated by graphviz version 2.43.0 (0)
 -->
<!-- Title: Graphical Class Hierarchy Pages: 1 -->
<svg width="355pt" height="182pt"
 viewBox="0.00 0.00 355.00 182.00" xmlns="http://www.w3.org/2000/svg" xmlns:xlink="http://www.w3.org/1999/xlink">
<g id="graph0" class="graph" transform="scale(1 1) rotate(0) translate(4 178)">
<title>Graphical Class Hierarchy</title>
<!-- Node0 -->
<g id="Node000000" class="node">
<title>Node0</title>
<g id="a_Node000000"><a xlink:href="df/d00/interfaceAlaris_1_1Infrastructure_1_1Data_1_1Quality_1_1DTqc002A.html" target="_top" xlink:title="Interface for data quality validators.">
<polygon fill="white" stroke="#666666" points="129,-102 0,-102 0,-72 129,-72 129,-102"/>
<text text-anchor="start" x="8" y="-90" font-family="Helvetica,sans-Serif" font-size="10.00">Alaris.Infrastructure.Data.</text>
<text text-anchor="middle" x="64.5" y="-79" font-family="Helvetica,sans-Serif" font-size="10.00">Quality.DTqc002A</text>
</a>
</g>
</g>
<!-- Node1 -->
<g id="Node000001" class="node">
<title>Node1</title>
<g id="a_Node000001"><a xlink:href="d7/d01/classAlaris_1_1Infrastructure_1_1Data_1_1Quality_1_1EarningsDateValidator.html" target="_top" xlink:title="Validates earnings date accuracy and consistency. Component ID: DTqc004A.">
<polygon fill="white" stroke="#666666" points="329,-174 183,-174 183,-144 329,-144 329,-174"/>
<text text-anchor="start" x="191" y="-162" font-family="Helvetica,sans-Serif" font-size="10.00">Alaris.Infrastructure.Data.</text>
<text text-anchor="middle" x="256" y="-151" font-family="Helvetica,sans-Serif" font-size="10.00">Quality.EarningsDateValidator</text>
</a>
</g>
</g>
<!-- Node0&#45;&gt;Node1 -->
<g id="edge36_Node000000_Node000001" class="edge">
<title>Node0&#45;&gt;Node1</title>
<g id="a_edge36_Node000000_Node000001"><a xlink:title=" ">
<path fill="none" stroke="#63b8ff" d="M102.14,-106.73C120.63,-116.15 143.62,-127.07 165,-135 173.79,-138.26 183.22,-141.28 192.55,-143.99"/>
<polygon fill="#63b8ff" stroke="#63b8ff" points="103.68,-103.59 93.19,-102.11 100.47,-109.81 103.68,-103.59"/>
</a>
</g>
</g>
<!-- Node2 -->
<g id="Node000002" class="node">
<title>Node2</title>
<g id="a_Node000002"><a xlink:href="d6/d01/classAlaris_1_1Infrastructure_1_1Data_1_1Quality_1_1IvArbitrageValidator.html" target="_top" xlink:title="Validates IV arbitrage conditions (put&#45;call parity, calendar spreads). Component ID: DTqc002A.">
<polygon fill="white" stroke="#666666" points="323,-126 189,-126 189,-96 323,-96 323,-126"/>
<text text-anchor="start" x="197" y="-114" font-family="Helvetica,sans-Serif" font-size="10.00">Alaris.Infrastructure.Data.</text>
<text text-anchor="middle" x="256" y="-103" font-family="Helvetica,sans-Serif" font-size="10.00">Quality.IvArbitrageValidator</text>
</a>
</g>
</g>
<!-- Node0&#45;&gt;Node2 -->
<g id="edge37_Node000000_Node000002" class="edge">
<title>Node0&#45;&gt;Node2</title>
<g id="a_edge37_Node000000_Node000002"><a xlink:title=" ">
<path fill="none" stroke="#63b8ff" d="M139.2,-96.33C155.6,-98.41 172.88,-100.6 188.95,-102.63"/>
<polygon fill="#63b8ff" stroke="#63b8ff" points="139.49,-92.84 129.13,-95.06 138.61,-99.79 139.49,-92.84"/>
</a>
</g>
</g>
<!-- Node3 -->
<g id="Node000003" class="node">
<title>Node3</title>
<g id="a_Node000003"><a xlink:href="db/d03/classAlaris_1_1Infrastructure_1_1Data_1_1Quality_1_1PriceReasonablenessValidator.html" target="_top" xlink:title="Validates price reasonableness and data freshness. Component ID: DTqc001A.">
<polygon fill="white" stroke="#666666" points="347,-78 165,-78 165,-48 347,-48 347,-78"/>
<text text-anchor="start" x="173" y="-66" font-family="Helvetica,sans-Serif" font-size="10.00">Alaris.Infrastructure.Data.</text>
<text text-anchor="middle" x="256" y="-55" font-family="Helvetica,sans-Serif" font-size="10.00">Quality.PriceReasonablenessValidator</text>
</a>
</g>
</g>
<!-- Node0&#45;&gt;Node3 -->
<g id="edge38_Node000000_Node000003" class="edge">
<title>Node0&#45;&gt;Node3</title>
<g id="a_edge38_Node000000_Node000003"><a xlink:title=" ">
<path fill="none" stroke="#63b8ff" d="M139.26,-77.66C147.67,-76.59 156.32,-75.5 164.92,-74.41"/>
<polygon fill="#63b8ff" stroke="#63b8ff" points="138.61,-74.21 129.13,-78.94 139.49,-81.16 138.61,-74.21"/>
</a>
</g>
</g>
<!-- Node4 -->
<g id="Node000004" class="node">
<title>Node4</title>
<g id="a_Node000004"><a xlink:href="dc/d00/classAlaris_1_1Infrastructure_1_1Data_1_1Quality_1_1VolumeOpenInterestValidator.html" target="_top" xlink:title="Validates volume and open interest for liquidity requirements. Component ID: DTqc003A.">
<polygon fill="white" stroke="#666666" points="344,-30 168,-30 168,0 344,0 344,-30"/>
<text text-anchor="start" x="176" y="-18" font-family="Helvetica,sans-Serif" font-size="10.00">Alaris.Infrastructure.Data.</text>
<text text-anchor="middle" x="256" y="-7" font-family="Helvetica,sans-Serif" font-size="10.00">Quality.VolumeOpenInterestValidator</text>
</a>
</g>
</g>
<!-- Node0&#45;&gt;Node4 -->
<g id="edge39_Node000000_Node000004" class="edge">
<title>Node0&#45;&gt;Node4</title>
<g id="a_edge39_Node000000_Node000004"><a xlink:title=" ">
<path fill="none" stroke="#63b8ff" d="M102.14,-67.27C120.63,-57.85 143.62,-46.93 165,-39 173.79,-35.74 183.22,-32.72 192.55,-30.01"/>
<polygon fill="#63b8ff" stroke="#63b8ff" points="100.47,-64.19 93.19,-71.89 103.68,-70.41 100.47,-64.19"/>
</a>
</g>
</g>
</g>
</svg>
