<?xml version="1.0" encoding="UTF-8" standalone="no"?>
<!DOCTYPE svg PUBLIC "-//W3C//DTD SVG 1.1//EN"
 "http://www.w3.org/Graphics/SVG/1.1/DTD/svg11.dtd">
<!-- Generated by graphviz version 2.43.0 (0)
 -->
<!-- Title: Graphical Class Hierarchy Pages: 1 -->
<svg width="331pt" height="86pt"
 viewBox="0.00 0.00 331.00 86.00" xmlns="http://www.w3.org/2000/svg" xmlns:xlink="http://www.w3.org/1999/xlink">
<g id="graph0" class="graph" transform="scale(1 1) rotate(0) translate(4 82)">
<title>Graphical Class Hierarchy</title>
<!-- Node0 -->
<g id="Node000000" class="node">
<title>Node0</title>
<g id="a_Node000000"><a xlink:href="d9/d01/interfaceAlaris_1_1Core_1_1Time_1_1ITimeProvider.html" target="_top" xlink:title="Provides time&#45;aware operations supporting both live and backtest modes.">
<polygon fill="white" stroke="#666666" points="154,-48.5 0,-48.5 0,-29.5 154,-29.5 154,-48.5"/>
<text text-anchor="middle" x="77" y="-36.5" font-family="Helvetica,sans-Serif" font-size="10.00">Alaris.Core.Time.ITimeProvider</text>
</a>
</g>
</g>
<!-- Node1 -->
<g id="Node000001" class="node">
<title>Node1</title>
<g id="a_Node000001"><a xlink:href="d8/d03/classAlaris_1_1Core_1_1Time_1_1BacktestTimeProvider.html" target="_top" xlink:title="Time provider for backtesting using simulated time from LEAN algorithm.">
<polygon fill="white" stroke="#666666" points="322.5,-78 190.5,-78 190.5,-48 322.5,-48 322.5,-78"/>
<text text-anchor="start" x="198.5" y="-66" font-family="Helvetica,sans-Serif" font-size="10.00">Alaris.Core.Time.Backtest</text>
<text text-anchor="middle" x="256.5" y="-55" font-family="Helvetica,sans-Serif" font-size="10.00">TimeProvider</text>
</a>
</g>
</g>
<!-- Node0&#45;&gt;Node1 -->
<g id="edge7_Node000000_Node000001" class="edge">
<title>Node0&#45;&gt;Node1</title>
<g id="a_edge7_Node000000_Node000001"><a xlink:title=" ">
<path fill="none" stroke="#63b8ff" d="M158.55,-49.89C169.21,-51.33 180.02,-52.79 190.37,-54.19"/>
<polygon fill="#63b8ff" stroke="#63b8ff" points="158.79,-46.39 148.41,-48.52 157.85,-53.33 158.79,-46.39"/>
</a>
</g>
</g>
<!-- Node2 -->
<g id="Node000002" class="node">
<title>Node2</title>
<g id="a_Node000002"><a xlink:href="d6/d03/classAlaris_1_1Core_1_1Time_1_1LiveTimeProvider.html" target="_top" xlink:title="Time provider for live trading using the system clock.">
<polygon fill="white" stroke="#666666" points="323,-30 190,-30 190,0 323,0 323,-30"/>
<text text-anchor="start" x="198" y="-18" font-family="Helvetica,sans-Serif" font-size="10.00">Alaris.Core.Time.LiveTime</text>
<text text-anchor="middle" x="256.5" y="-7" font-family="Helvetica,sans-Serif" font-size="10.00">Provider</text>
</a>
</g>
</g>
<!-- Node0&#45;&gt;Node2 -->
<g id="edge8_Node000000_Node000002" class="edge">
<title>Node0&#45;&gt;Node2</title>
<g id="a_edge8_Node000000_Node000002"><a xlink:title=" ">
<path fill="none" stroke="#63b8ff" d="M158.41,-28.13C168.91,-26.71 179.57,-25.27 189.8,-23.88"/>
<polygon fill="#63b8ff" stroke="#63b8ff" points="157.85,-24.67 148.41,-29.48 158.79,-31.61 157.85,-24.67"/>
</a>
</g>
</g>
</g>
</svg>
