<?xml version="1.0" encoding="UTF-8" standalone="no"?>
<!DOCTYPE svg PUBLIC "-//W3C//DTD SVG 1.1//EN"
 "http://www.w3.org/Graphics/SVG/1.1/DTD/svg11.dtd">
<!-- Generated by graphviz version 2.43.0 (0)
 -->
<!-- Title: Graphical Class Hierarchy Pages: 1 -->
<svg width="262pt" height="161pt"
 viewBox="0.00 0.00 262.00 161.00" xmlns="http://www.w3.org/2000/svg" xmlns:xlink="http://www.w3.org/1999/xlink">
<g id="graph0" class="graph" transform="scale(1 1) rotate(0) translate(4 157)">
<title>Graphical Class Hierarchy</title>
<!-- Node0 -->
<g id="Node000000" class="node">
<title>Node0</title>
<g id="a_Node000000"><a xlink:title=" ">
<polygon fill="#e0e0e0" stroke="#999999" points="72,-153 0,-153 0,-134 72,-134 72,-153"/>
<text text-anchor="middle" x="36" y="-141" font-family="Helvetica,sans-Serif" font-size="10.00">IComparable</text>
</a>
</g>
</g>
<!-- Node1 -->
<g id="Node000001" class="node">
<title>Node1</title>
<g id="a_Node000001"><a xlink:href="d4/d02/structAlaris_1_1Core_1_1Time_1_1CRTM005A.html" target="_top" xlink:title="High&#45;performance date type with serial number representation. Matches QuantLib Date semantics for bin...">
<polygon fill="white" stroke="#666666" points="253.5,-153 108.5,-153 108.5,-134 253.5,-134 253.5,-153"/>
<text text-anchor="middle" x="181" y="-141" font-family="Helvetica,sans-Serif" font-size="10.00">Alaris.Core.Time.CRTM005A</text>
</a>
</g>
</g>
<!-- Node0&#45;&gt;Node1 -->
<g id="edge97_Node000000_Node000001" class="edge">
<title>Node0&#45;&gt;Node1</title>
<g id="a_edge97_Node000000_Node000001"><a xlink:title=" ">
<path fill="none" stroke="#63b8ff" d="M82.51,-143.5C90.8,-143.5 99.62,-143.5 108.45,-143.5"/>
<polygon fill="#63b8ff" stroke="#63b8ff" points="82.35,-140 72.35,-143.5 82.35,-147 82.35,-140"/>
</a>
</g>
</g>
<!-- Node2 -->
<g id="Node000002" class="node">
<title>Node2</title>
<g id="a_Node000002"><a xlink:title=" ">
<polygon fill="#e0e0e0" stroke="#999999" points="67.5,-86 4.5,-86 4.5,-67 67.5,-67 67.5,-86"/>
<text text-anchor="middle" x="36" y="-74" font-family="Helvetica,sans-Serif" font-size="10.00">IEquatable</text>
</a>
</g>
</g>
<!-- Node2&#45;&gt;Node1 -->
<g id="edge100_Node000002_Node000001" class="edge">
<title>Node2&#45;&gt;Node1</title>
<g id="a_edge100_Node000002_Node000001"><a xlink:title=" ">
<path fill="none" stroke="#63b8ff" d="M56.98,-92.7C70.64,-103.08 89.55,-116.12 108,-124.5 116.24,-128.24 125.36,-131.36 134.26,-133.91"/>
<polygon fill="#63b8ff" stroke="#63b8ff" points="58.86,-89.72 48.82,-86.34 54.55,-95.25 58.86,-89.72"/>
</a>
</g>
</g>
<!-- Node3 -->
<g id="Node000003" class="node">
<title>Node3</title>
<g id="a_Node000003"><a xlink:href="d7/d03/structAlaris_1_1Core_1_1Options_1_1AmericanExercise.html" target="_top" xlink:title="American exercise specification. Replaces QuantLib AmericanExercise.">
<polygon fill="white" stroke="#666666" points="254,-115.5 108,-115.5 108,-85.5 254,-85.5 254,-115.5"/>
<text text-anchor="start" x="116" y="-103.5" font-family="Helvetica,sans-Serif" font-size="10.00">Alaris.Core.Options.American</text>
<text text-anchor="middle" x="181" y="-92.5" font-family="Helvetica,sans-Serif" font-size="10.00">Exercise</text>
</a>
</g>
</g>
<!-- Node2&#45;&gt;Node3 -->
<g id="edge98_Node000002_Node000003" class="edge">
<title>Node2&#45;&gt;Node3</title>
<g id="a_edge98_Node000002_Node000003"><a xlink:title=" ">
<path fill="none" stroke="#63b8ff" d="M77.6,-83.31C87.11,-84.91 97.52,-86.66 107.94,-88.41"/>
<polygon fill="#63b8ff" stroke="#63b8ff" points="78.12,-79.85 67.68,-81.65 76.96,-86.76 78.12,-79.85"/>
</a>
</g>
</g>
<!-- Node4 -->
<g id="Node000004" class="node">
<title>Node4</title>
<g id="a_Node000004"><a xlink:href="d4/d01/structAlaris_1_1Core_1_1Options_1_1VanillaPayoff.html" target="_top" xlink:title="Plain vanilla option payoff (European/American style). Replaces QuantLib PlainVanillaPayoff.">
<polygon fill="white" stroke="#666666" points="248,-67.5 114,-67.5 114,-37.5 248,-37.5 248,-67.5"/>
<text text-anchor="start" x="122" y="-55.5" font-family="Helvetica,sans-Serif" font-size="10.00">Alaris.Core.Options.Vanilla</text>
<text text-anchor="middle" x="181" y="-44.5" font-family="Helvetica,sans-Serif" font-size="10.00">Payoff</text>
</a>
</g>
</g>
<!-- Node2&#45;&gt;Node4 -->
<g id="edge99_Node000002_Node000004" class="edge">
<title>Node2&#45;&gt;Node4</title>
<g id="a_edge99_Node000002_Node000004"><a xlink:title=" ">
<path fill="none" stroke="#63b8ff" d="M77.64,-69.68C88.92,-67.79 101.47,-65.68 113.81,-63.61"/>
<polygon fill="#63b8ff" stroke="#63b8ff" points="76.96,-66.24 67.68,-71.35 78.12,-73.15 76.96,-66.24"/>
</a>
</g>
</g>
<!-- Node5 -->
<g id="Node000005" class="node">
<title>Node5</title>
<g id="a_Node000005"><a xlink:href="d6/d01/structAlaris_1_1Core_1_1Time_1_1CRTM006A.html" target="_top" xlink:title="Represents a time period with a length and unit. Matches QuantLib Period semantics.">
<polygon fill="white" stroke="#666666" points="253.5,-19 108.5,-19 108.5,0 253.5,0 253.5,-19"/>
<text text-anchor="middle" x="181" y="-7" font-family="Helvetica,sans-Serif" font-size="10.00">Alaris.Core.Time.CRTM006A</text>
</a>
</g>
</g>
<!-- Node2&#45;&gt;Node5 -->
<g id="edge101_Node000002_Node000005" class="edge">
<title>Node2&#45;&gt;Node5</title>
<g id="a_edge101_Node000002_Node000005"><a xlink:title=" ">
<path fill="none" stroke="#63b8ff" d="M56.98,-60.3C70.64,-49.92 89.55,-36.88 108,-28.5 116.24,-24.76 125.36,-21.64 134.26,-19.09"/>
<polygon fill="#63b8ff" stroke="#63b8ff" points="54.55,-57.75 48.82,-66.66 58.86,-63.28 54.55,-57.75"/>
</a>
</g>
</g>
</g>
</svg>
