<?xml version="1.0" encoding="UTF-8" standalone="no"?>
<!DOCTYPE svg PUBLIC "-//W3C//DTD SVG 1.1//EN"
 "http://www.w3.org/Graphics/SVG/1.1/DTD/svg11.dtd">
<!-- Generated by graphviz version 2.43.0 (0)
 -->
<!-- Title: Graphical Class Hierarchy Pages: 1 -->
<svg width="331pt" height="134pt"
 viewBox="0.00 0.00 331.00 134.00" xmlns="http://www.w3.org/2000/svg" xmlns:xlink="http://www.w3.org/1999/xlink">
<g id="graph0" class="graph" transform="scale(1 1) rotate(0) translate(4 130)">
<title>Graphical Class Hierarchy</title>
<!-- Node0 -->
<g id="Node000000" class="node">
<title>Node0</title>
<g id="a_Node000000"><a xlink:href="d8/d01/interfaceAlaris_1_1Core_1_1Time_1_1IDayCounter.html" target="_top" xlink:title="Interface for day count conventions.">
<polygon fill="white" stroke="#666666" points="149,-72.5 0,-72.5 0,-53.5 149,-53.5 149,-72.5"/>
<text text-anchor="middle" x="74.5" y="-60.5" font-family="Helvetica,sans-Serif" font-size="10.00">Alaris.Core.Time.IDayCounter</text>
</a>
</g>
</g>
<!-- Node1 -->
<g id="Node000001" class="node">
<title>Node1</title>
<g id="a_Node000001"><a xlink:href="d7/d01/classAlaris_1_1Core_1_1Time_1_1CRTM007AActual360.html" target="_top" xlink:title="Actual/360 day count convention. Common for money market instruments.">
<polygon fill="white" stroke="#666666" points="323,-126 185,-126 185,-96 323,-96 323,-126"/>
<text text-anchor="start" x="193" y="-114" font-family="Helvetica,sans-Serif" font-size="10.00">Alaris.Core.Time.CRTM007</text>
<text text-anchor="middle" x="254" y="-103" font-family="Helvetica,sans-Serif" font-size="10.00">AActual360</text>
</a>
</g>
</g>
<!-- Node0&#45;&gt;Node1 -->
<g id="edge4_Node000000_Node000001" class="edge">
<title>Node0&#45;&gt;Node1</title>
<g id="a_edge4_Node000000_Node000001"><a xlink:title=" ">
<path fill="none" stroke="#63b8ff" d="M120.94,-75.29C144.21,-81.58 172.72,-89.29 197.3,-95.94"/>
<polygon fill="#63b8ff" stroke="#63b8ff" points="121.56,-71.83 110.99,-72.6 119.73,-78.59 121.56,-71.83"/>
</a>
</g>
</g>
<!-- Node2 -->
<g id="Node000002" class="node">
<title>Node2</title>
<g id="a_Node000002"><a xlink:href="da/d02/classAlaris_1_1Core_1_1Time_1_1CRTM007AActual365Fixed.html" target="_top" xlink:title="Actual/365 Fixed day count convention. This is the most common convention for equity options.">
<polygon fill="white" stroke="#666666" points="323,-78 185,-78 185,-48 323,-48 323,-78"/>
<text text-anchor="start" x="193" y="-66" font-family="Helvetica,sans-Serif" font-size="10.00">Alaris.Core.Time.CRTM007</text>
<text text-anchor="middle" x="254" y="-55" font-family="Helvetica,sans-Serif" font-size="10.00">AActual365Fixed</text>
</a>
</g>
</g>
<!-- Node0&#45;&gt;Node2 -->
<g id="edge5_Node000000_Node000002" class="edge">
<title>Node0&#45;&gt;Node2</title>
<g id="a_edge5_Node000000_Node000002"><a xlink:title=" ">
<path fill="none" stroke="#63b8ff" d="M159.27,-63C167.85,-63 176.5,-63 184.89,-63"/>
<polygon fill="#63b8ff" stroke="#63b8ff" points="159.23,-59.5 149.23,-63 159.23,-66.5 159.23,-59.5"/>
</a>
</g>
</g>
<!-- Node3 -->
<g id="Node000003" class="node">
<title>Node3</title>
<g id="a_Node000003"><a xlink:href="d7/d03/classAlaris_1_1Core_1_1Time_1_1CRTM007AThirty360.html" target="_top" xlink:title="30/360 (ISDA) day count convention. Used for some corporate bonds.">
<polygon fill="white" stroke="#666666" points="323,-30 185,-30 185,0 323,0 323,-30"/>
<text text-anchor="start" x="193" y="-18" font-family="Helvetica,sans-Serif" font-size="10.00">Alaris.Core.Time.CRTM007</text>
<text text-anchor="middle" x="254" y="-7" font-family="Helvetica,sans-Serif" font-size="10.00">AThirty360</text>
</a>
</g>
</g>
<!-- Node0&#45;&gt;Node3 -->
<g id="edge6_Node000000_Node000003" class="edge">
<title>Node0&#45;&gt;Node3</title>
<g id="a_edge6_Node000000_Node000003"><a xlink:title=" ">
<path fill="none" stroke="#63b8ff" d="M120.94,-50.71C144.21,-44.42 172.72,-36.71 197.3,-30.06"/>
<polygon fill="#63b8ff" stroke="#63b8ff" points="119.73,-47.41 110.99,-53.4 121.56,-54.17 119.73,-47.41"/>
</a>
</g>
</g>
</g>
</svg>
