<?xml version="1.0" encoding="UTF-8" standalone="no"?>
<!DOCTYPE svg PUBLIC "-//W3C//DTD SVG 1.1//EN"
 "http://www.w3.org/Graphics/SVG/1.1/DTD/svg11.dtd">
<!-- Generated by graphviz version 2.43.0 (0)
 -->
<!-- Title: Graphical Class Hierarchy Pages: 1 -->
<svg width="582pt" height="882pt"
 viewBox="0.00 0.00 582.00 882.00" xmlns="http://www.w3.org/2000/svg" xmlns:xlink="http://www.w3.org/1999/xlink">
<g id="graph0" class="graph" transform="scale(1 1) rotate(0) translate(4 878)">
<title>Graphical Class Hierarchy</title>
<!-- Node0 -->
<g id="Node000000" class="node">
<title>Node0</title>
<g id="a_Node000000"><a xlink:href="df/d02/interfaceAlaris_1_1Host_1_1Application_1_1Cli_1_1Monitor_1_1CLmn001A.html" target="_top" xlink:title="Interface for monitoring algorithm execution (backtest or live). Provides observable streams of equit...">
<polygon fill="white" stroke="#666666" points="141,-874 22,-874 22,-844 141,-844 141,-874"/>
<text text-anchor="start" x="30" y="-862" font-family="Helvetica,sans-Serif" font-size="10.00">Alaris.Host.Application.</text>
<text text-anchor="middle" x="81.5" y="-851" font-family="Helvetica,sans-Serif" font-size="10.00">Cli.Monitor.CLmn001A</text>
</a>
</g>
</g>
<!-- Node1 -->
<g id="Node000001" class="node">
<title>Node1</title>
<g id="a_Node000001"><a xlink:href="d0/d03/classAlaris_1_1Host_1_1Application_1_1Cli_1_1Monitor_1_1CLmn002A.html" target="_top" xlink:title="Monitors a LEAN backtest in progress and publishes events. Component ID: CLmn002A.">
<polygon fill="white" stroke="#666666" points="340,-874 221,-874 221,-844 340,-844 340,-874"/>
<text text-anchor="start" x="229" y="-862" font-family="Helvetica,sans-Serif" font-size="10.00">Alaris.Host.Application.</text>
<text text-anchor="middle" x="280.5" y="-851" font-family="Helvetica,sans-Serif" font-size="10.00">Cli.Monitor.CLmn002A</text>
</a>
</g>
</g>
<!-- Node0&#45;&gt;Node1 -->
<g id="edge9_Node000000_Node000001" class="edge">
<title>Node0&#45;&gt;Node1</title>
<g id="a_edge9_Node000000_Node000001"><a xlink:title=" ">
<path fill="none" stroke="#63b8ff" d="M151.31,-859C173.98,-859 198.97,-859 220.81,-859"/>
<polygon fill="#63b8ff" stroke="#63b8ff" points="151.07,-855.5 141.07,-859 151.07,-862.5 151.07,-855.5"/>
</a>
</g>
</g>
<!-- Node9 -->
<g id="Node000009" class="node">
<title>Node9</title>
<g id="a_Node000009"><a xlink:href="dd/d03/interfaceAlaris_1_1Infrastructure_1_1Events_1_1Core_1_1EVCR002A.html" target="_top" xlink:title="Interface for storing and retrieving events. Implementations must ensure events are never modified or...">
<polygon fill="white" stroke="#666666" points="151,-126 12,-126 12,-96 151,-96 151,-126"/>
<text text-anchor="start" x="20" y="-114" font-family="Helvetica,sans-Serif" font-size="10.00">Alaris.Infrastructure.Events.</text>
<text text-anchor="middle" x="81.5" y="-103" font-family="Helvetica,sans-Serif" font-size="10.00">Core.EVCR002A</text>
</a>
</g>
</g>
<!-- Node10 -->
<g id="Node000010" class="node">
<title>Node10</title>
<g id="a_Node000010"><a xlink:href="d5/d01/classAlaris_1_1Infrastructure_1_1Events_1_1Infrastructure_1_1EVIF001A.html" target="_top" xlink:title="In&#45;memory implementation of EVCR002A for development and testing. NOT suitable for production use &#45; e...">
<polygon fill="white" stroke="#666666" points="350,-78 211,-78 211,-48 350,-48 350,-78"/>
<text text-anchor="start" x="219" y="-66" font-family="Helvetica,sans-Serif" font-size="10.00">Alaris.Infrastructure.Events.</text>
<text text-anchor="middle" x="280.5" y="-55" font-family="Helvetica,sans-Serif" font-size="10.00">Infrastructure.EVIF001A</text>
</a>
</g>
</g>
<!-- Node9&#45;&gt;Node10 -->
<g id="edge10_Node000009_Node000010" class="edge">
<title>Node9&#45;&gt;Node10</title>
<g id="a_edge10_Node000009_Node000010"><a xlink:title=" ">
<path fill="none" stroke="#63b8ff" d="M154.08,-93.56C175.01,-88.46 197.68,-82.93 217.93,-78"/>
<polygon fill="#63b8ff" stroke="#63b8ff" points="153.18,-90.18 144.29,-95.94 154.84,-96.98 153.18,-90.18"/>
</a>
</g>
</g>
<!-- Node8 -->
<g id="Node000008" class="node">
<title>Node8</title>
<g id="a_Node000008"><a xlink:href="dd/d01/classAlaris_1_1Infrastructure_1_1Events_1_1Infrastructure_1_1EVIF001B.html" target="_top" xlink:title="File&#45;based persistent implementation of EVCR002A for production use.">
<polygon fill="white" stroke="#666666" points="350,-174 211,-174 211,-144 350,-144 350,-174"/>
<text text-anchor="start" x="219" y="-162" font-family="Helvetica,sans-Serif" font-size="10.00">Alaris.Infrastructure.Events.</text>
<text text-anchor="middle" x="280.5" y="-151" font-family="Helvetica,sans-Serif" font-size="10.00">Infrastructure.EVIF001B</text>
</a>
</g>
</g>
<!-- Node9&#45;&gt;Node8 -->
<g id="edge11_Node000009_Node000008" class="edge">
<title>Node9&#45;&gt;Node8</title>
<g id="a_edge11_Node000009_Node000008"><a xlink:title=" ">
<path fill="none" stroke="#63b8ff" d="M154.08,-128.44C175.01,-133.54 197.68,-139.07 217.93,-144"/>
<polygon fill="#63b8ff" stroke="#63b8ff" points="154.84,-125.02 144.29,-126.06 153.18,-131.82 154.84,-125.02"/>
</a>
</g>
</g>
<!-- Node12 -->
<g id="Node000012" class="node">
<title>Node12</title>
<g id="a_Node000012"><a xlink:href="d8/d03/interfaceAlaris_1_1Infrastructure_1_1Events_1_1Core_1_1EVCR004A.html" target="_top" xlink:title="Interface for writing immutable audit logs. Audit logs provide a human&#45;readable trail of all system a...">
<polygon fill="white" stroke="#666666" points="151,-78 12,-78 12,-48 151,-48 151,-78"/>
<text text-anchor="start" x="20" y="-66" font-family="Helvetica,sans-Serif" font-size="10.00">Alaris.Infrastructure.Events.</text>
<text text-anchor="middle" x="81.5" y="-55" font-family="Helvetica,sans-Serif" font-size="10.00">Core.EVCR004A</text>
</a>
</g>
</g>
<!-- Node13 -->
<g id="Node000013" class="node">
<title>Node13</title>
<g id="a_Node000013"><a xlink:href="de/d00/classAlaris_1_1Infrastructure_1_1Events_1_1Infrastructure_1_1EVIF002A.html" target="_top" xlink:title="In&#45;memory implementation of EVCR004A for development and testing. NOT suitable for production use &#45; a...">
<polygon fill="white" stroke="#666666" points="350,-30 211,-30 211,0 350,0 350,-30"/>
<text text-anchor="start" x="219" y="-18" font-family="Helvetica,sans-Serif" font-size="10.00">Alaris.Infrastructure.Events.</text>
<text text-anchor="middle" x="280.5" y="-7" font-family="Helvetica,sans-Serif" font-size="10.00">Infrastructure.EVIF002A</text>
</a>
</g>
</g>
<!-- Node12&#45;&gt;Node13 -->
<g id="edge12_Node000012_Node000013" class="edge">
<title>Node12&#45;&gt;Node13</title>
<g id="a_edge12_Node000012_Node000013"><a xlink:title=" ">
<path fill="none" stroke="#63b8ff" d="M154.08,-45.56C175.01,-40.46 197.68,-34.93 217.93,-30"/>
<polygon fill="#63b8ff" stroke="#63b8ff" points="153.18,-42.18 144.29,-47.94 154.84,-48.98 153.18,-42.18"/>
</a>
</g>
</g>
<!-- Node11 -->
<g id="Node000011" class="node">
<title>Node11</title>
<g id="a_Node000011"><a xlink:href="dc/d03/classAlaris_1_1Infrastructure_1_1Events_1_1Infrastructure_1_1EVIF002B.html" target="_top" xlink:title="File&#45;based persistent implementation of EVCR004A for production use.">
<polygon fill="white" stroke="#666666" points="350,-126 211,-126 211,-96 350,-96 350,-126"/>
<text text-anchor="start" x="219" y="-114" font-family="Helvetica,sans-Serif" font-size="10.00">Alaris.Infrastructure.Events.</text>
<text text-anchor="middle" x="280.5" y="-103" font-family="Helvetica,sans-Serif" font-size="10.00">Infrastructure.EVIF002B</text>
</a>
</g>
</g>
<!-- Node12&#45;&gt;Node11 -->
<g id="edge13_Node000012_Node000011" class="edge">
<title>Node12&#45;&gt;Node11</title>
<g id="a_edge13_Node000012_Node000011"><a xlink:title=" ">
<path fill="none" stroke="#63b8ff" d="M154.08,-80.44C175.01,-85.54 197.68,-91.07 217.93,-96"/>
<polygon fill="#63b8ff" stroke="#63b8ff" points="154.84,-77.02 144.29,-78.06 153.18,-83.82 154.84,-77.02"/>
</a>
</g>
</g>
<!-- Node2 -->
<g id="Node000002" class="node">
<title>Node2</title>
<g id="a_Node000002"><a xlink:title=" ">
<polygon fill="#e0e0e0" stroke="#999999" points="115.5,-494.5 47.5,-494.5 47.5,-475.5 115.5,-475.5 115.5,-494.5"/>
<text text-anchor="middle" x="81.5" y="-482.5" font-family="Helvetica,sans-Serif" font-size="10.00">IDisposable</text>
</a>
</g>
</g>
<!-- Node2&#45;&gt;Node1 -->
<g id="edge15_Node000002_Node000001" class="edge">
<title>Node2&#45;&gt;Node1</title>
<g id="a_edge15_Node000002_Node000001"><a xlink:title=" ">
<path fill="none" stroke="#63b8ff" d="M83.04,-504.98C85.75,-564.28 101.98,-741 199,-835 205.18,-840.99 212.79,-845.49 220.83,-848.87"/>
<polygon fill="#63b8ff" stroke="#63b8ff" points="86.53,-504.61 82.66,-494.74 79.53,-504.87 86.53,-504.61"/>
</a>
</g>
</g>
<!-- Node2&#45;&gt;Node8 -->
<g id="edge20_Node000002_Node000008" class="edge">
<title>Node2&#45;&gt;Node8</title>
<g id="a_edge20_Node000002_Node000008"><a xlink:title=" ">
<path fill="none" stroke="#63b8ff" d="M84.22,-465.31C89.96,-411.77 113.27,-262.26 199,-183 202.75,-179.54 206.98,-176.57 211.48,-174.03"/>
<polygon fill="#63b8ff" stroke="#63b8ff" points="80.71,-465.19 83.22,-475.48 87.68,-465.87 80.71,-465.19"/>
</a>
</g>
</g>
<!-- Node2&#45;&gt;Node11 -->
<g id="edge21_Node000002_Node000011" class="edge">
<title>Node2&#45;&gt;Node11</title>
<g id="a_edge21_Node000002_Node000011"><a xlink:title=" ">
<path fill="none" stroke="#63b8ff" d="M88.38,-465.72C110.26,-394.15 186.42,-147.19 199,-135 202.56,-131.55 206.6,-128.59 210.92,-126.06"/>
<polygon fill="#63b8ff" stroke="#63b8ff" points="85.02,-464.71 85.45,-475.3 91.72,-466.76 85.02,-464.71"/>
</a>
</g>
</g>
<!-- Node3 -->
<g id="Node000003" class="node">
<title>Node3</title>
<g id="a_Node000003"><a xlink:href="df/d02/classAlaris_1_1Host_1_1Application_1_1Cli_1_1Dashboard_1_1CLdb001A.html" target="_top" xlink:title="Renders a live dashboard for algorithm monitoring. Uses Spectre.Console Live display for smooth updat...">
<polygon fill="white" stroke="#666666" points="344.5,-596 216.5,-596 216.5,-566 344.5,-566 344.5,-596"/>
<text text-anchor="start" x="224.5" y="-584" font-family="Helvetica,sans-Serif" font-size="10.00">Alaris.Host.Application.</text>
<text text-anchor="middle" x="280.5" y="-573" font-family="Helvetica,sans-Serif" font-size="10.00">Cli.Dashboard.CLdb001A</text>
</a>
</g>
</g>
<!-- Node2&#45;&gt;Node3 -->
<g id="edge14_Node000002_Node000003" class="edge">
<title>Node2&#45;&gt;Node3</title>
<g id="a_edge14_Node000002_Node000003"><a xlink:title=" ">
<path fill="none" stroke="#63b8ff" d="M103.69,-500.49C126.34,-516.46 163.76,-541.19 199,-557 206.32,-560.28 214.21,-563.26 222.09,-565.92"/>
<polygon fill="#63b8ff" stroke="#63b8ff" points="105.66,-497.6 95.49,-494.63 101.59,-503.29 105.66,-497.6"/>
</a>
</g>
</g>
<!-- Node4 -->
<g id="Node000004" class="node">
<title>Node4</title>
<g id="a_Node000004"><a xlink:href="d1/d02/classAlaris_1_1Host_1_1Application_1_1Service_1_1APsv002A.html" target="_top" xlink:title="Service for downloading and preparing session data. Component ID: APsv002A.">
<polygon fill="white" stroke="#666666" points="340,-548 221,-548 221,-518 340,-518 340,-548"/>
<text text-anchor="start" x="229" y="-536" font-family="Helvetica,sans-Serif" font-size="10.00">Alaris.Host.Application.</text>
<text text-anchor="middle" x="280.5" y="-525" font-family="Helvetica,sans-Serif" font-size="10.00">Service.APsv002A</text>
</a>
</g>
</g>
<!-- Node2&#45;&gt;Node4 -->
<g id="edge16_Node000002_Node000004" class="edge">
<title>Node2&#45;&gt;Node4</title>
<g id="a_edge16_Node000002_Node000004"><a xlink:title=" ">
<path fill="none" stroke="#63b8ff" d="M125.77,-495.54C153.65,-502.34 190.26,-511.26 220.76,-518.69"/>
<polygon fill="#63b8ff" stroke="#63b8ff" points="126.46,-492.11 115.92,-493.14 124.81,-498.91 126.46,-492.11"/>
</a>
</g>
</g>
<!-- Node5 -->
<g id="Node000005" class="node">
<title>Node5</title>
<g id="a_Node000005"><a xlink:href="de/d02/classAlaris_1_1Host_1_1Application_1_1Service_1_1APsv002B.html" target="_top" xlink:title="Screener service that uses Polygon API to find tradeable stocks. Component ID: APsv002B.">
<polygon fill="white" stroke="#666666" points="340,-500 221,-500 221,-470 340,-470 340,-500"/>
<text text-anchor="start" x="229" y="-488" font-family="Helvetica,sans-Serif" font-size="10.00">Alaris.Host.Application.</text>
<text text-anchor="middle" x="280.5" y="-477" font-family="Helvetica,sans-Serif" font-size="10.00">Service.APsv002B</text>
</a>
</g>
</g>
<!-- Node2&#45;&gt;Node5 -->
<g id="edge17_Node000002_Node000005" class="edge">
<title>Node2&#45;&gt;Node5</title>
<g id="a_edge17_Node000002_Node000005"><a xlink:title=" ">
<path fill="none" stroke="#63b8ff" d="M126.14,-485C153.97,-485 190.4,-485 220.76,-485"/>
<polygon fill="#63b8ff" stroke="#63b8ff" points="125.92,-481.5 115.92,-485 125.92,-488.5 125.92,-481.5"/>
</a>
</g>
</g>
<!-- Node6 -->
<g id="Node000006" class="node">
<title>Node6</title>
<g id="a_Node000006"><a xlink:href="dc/d02/interfaceAlaris_1_1Infrastructure_1_1Data_1_1Provider_1_1DTpr002A.html" target="_top" xlink:title="Interface for execution quote providers (IBKR snapshots).">
<polygon fill="white" stroke="#666666" points="345,-452 216,-452 216,-422 345,-422 345,-452"/>
<text text-anchor="start" x="224" y="-440" font-family="Helvetica,sans-Serif" font-size="10.00">Alaris.Infrastructure.Data.</text>
<text text-anchor="middle" x="280.5" y="-429" font-family="Helvetica,sans-Serif" font-size="10.00">Provider.DTpr002A</text>
</a>
</g>
</g>
<!-- Node2&#45;&gt;Node6 -->
<g id="edge18_Node000002_Node000006" class="edge">
<title>Node2&#45;&gt;Node6</title>
<g id="a_edge18_Node000002_Node000006"><a xlink:title=" ">
<path fill="none" stroke="#63b8ff" d="M125.81,-474.45C152.73,-467.89 187.77,-459.35 217.59,-452.08"/>
<polygon fill="#63b8ff" stroke="#63b8ff" points="124.81,-471.09 115.92,-476.86 126.46,-477.89 124.81,-471.09"/>
</a>
</g>
</g>
<!-- Node14 -->
<g id="Node000014" class="node">
<title>Node14</title>
<g id="a_Node000014"><a xlink:href="d4/d03/structAlaris_1_1Infrastructure_1_1Protocol_1_1Buffers_1_1PooledBuffer.html" target="_top" xlink:title="Disposable wrapper for a pooled byte array buffer.">
<polygon fill="white" stroke="#666666" points="352.5,-404 208.5,-404 208.5,-374 352.5,-374 352.5,-404"/>
<text text-anchor="start" x="216.5" y="-392" font-family="Helvetica,sans-Serif" font-size="10.00">Alaris.Infrastructure.Protocol.</text>
<text text-anchor="middle" x="280.5" y="-381" font-family="Helvetica,sans-Serif" font-size="10.00">Buffers.PooledBuffer</text>
</a>
</g>
</g>
<!-- Node2&#45;&gt;Node14 -->
<g id="edge22_Node000002_Node000014" class="edge">
<title>Node2&#45;&gt;Node14</title>
<g id="a_edge22_Node000002_Node000014"><a xlink:title=" ">
<path fill="none" stroke="#63b8ff" d="M103.69,-469.51C126.34,-453.54 163.76,-428.81 199,-413 206.32,-409.72 214.21,-406.74 222.09,-404.08"/>
<polygon fill="#63b8ff" stroke="#63b8ff" points="101.59,-466.71 95.49,-475.37 105.66,-472.4 101.59,-466.71"/>
</a>
</g>
</g>
<!-- Node15 -->
<g id="Node000015" class="node">
<title>Node15</title>
<g id="a_Node000015"><a xlink:href="dd/d03/classAlaris_1_1Strategy_1_1Bridge_1_1STBR001A.html" target="_top" xlink:title="Unified pricing engine that automatically selects between Alaris native engines based on interest rat...">
<polygon fill="white" stroke="#666666" points="362,-211.5 199,-211.5 199,-192.5 362,-192.5 362,-211.5"/>
<text text-anchor="middle" x="280.5" y="-199.5" font-family="Helvetica,sans-Serif" font-size="10.00">Alaris.Strategy.Bridge.STBR001A</text>
</a>
</g>
</g>
<!-- Node2&#45;&gt;Node15 -->
<g id="edge23_Node000002_Node000015" class="edge">
<title>Node2&#45;&gt;Node15</title>
<g id="a_edge23_Node000002_Node000015"><a xlink:title=" ">
<path fill="none" stroke="#63b8ff" d="M85.17,-465.24C92.94,-415.9 120.19,-286.51 199,-221 203.64,-217.14 208.92,-214.04 214.51,-211.55"/>
<polygon fill="#63b8ff" stroke="#63b8ff" points="81.7,-464.85 83.7,-475.25 88.62,-465.87 81.7,-464.85"/>
</a>
</g>
</g>
<!-- Node17 -->
<g id="Node000017" class="node">
<title>Node17</title>
<g id="a_Node000017"><a xlink:href="df/d01/classAlaris_1_1Test_1_1Integration_1_1DTbr001ATests.html" target="_top" xlink:title="Integration tests for AlarisDataBridge (DTbr001A). Uses mock providers to test data aggregation and v...">
<polygon fill="white" stroke="#666666" points="338,-356 223,-356 223,-326 338,-326 338,-356"/>
<text text-anchor="start" x="231" y="-344" font-family="Helvetica,sans-Serif" font-size="10.00">Alaris.Test.Integration.</text>
<text text-anchor="middle" x="280.5" y="-333" font-family="Helvetica,sans-Serif" font-size="10.00">DTbr001ATests</text>
</a>
</g>
</g>
<!-- Node2&#45;&gt;Node17 -->
<g id="edge24_Node000002_Node000017" class="edge">
<title>Node2&#45;&gt;Node17</title>
<g id="a_edge24_Node000002_Node000017"><a xlink:title=" ">
<path fill="none" stroke="#63b8ff" d="M95.16,-467.02C114.56,-440.79 154.13,-392.2 199,-365 206.36,-360.54 214.6,-356.86 222.93,-353.84"/>
<polygon fill="#63b8ff" stroke="#63b8ff" points="92.2,-465.14 89.17,-475.29 97.87,-469.25 92.2,-465.14"/>
</a>
</g>
</g>
<!-- Node18 -->
<g id="Node000018" class="node">
<title>Node18</title>
<g id="a_Node000018"><a xlink:href="dd/d02/classAlaris_1_1Test_1_1Unit_1_1DTqc001ATests.html" target="_top" xlink:title="Unit tests for PriceReasonablenessValidator (DTqc001A). Validates price data quality rules.">
<polygon fill="white" stroke="#666666" points="344,-308 217,-308 217,-278 344,-278 344,-308"/>
<text text-anchor="start" x="225" y="-296" font-family="Helvetica,sans-Serif" font-size="10.00">Alaris.Test.Unit.DTqc001</text>
<text text-anchor="middle" x="280.5" y="-285" font-family="Helvetica,sans-Serif" font-size="10.00">ATests</text>
</a>
</g>
</g>
<!-- Node2&#45;&gt;Node18 -->
<g id="edge25_Node000002_Node000018" class="edge">
<title>Node2&#45;&gt;Node18</title>
<g id="a_edge25_Node000002_Node000018"><a xlink:title=" ">
<path fill="none" stroke="#63b8ff" d="M90.55,-465.82C106.19,-430.89 144.04,-356.83 199,-317 204.43,-313.06 210.51,-309.77 216.83,-307.01"/>
<polygon fill="#63b8ff" stroke="#63b8ff" points="87.19,-464.76 86.41,-475.33 93.61,-467.55 87.19,-464.76"/>
</a>
</g>
</g>
<!-- Node19 -->
<g id="Node000019" class="node">
<title>Node19</title>
<g id="a_Node000019"><a xlink:href="d6/d03/classAlaris_1_1Test_1_1Unit_1_1DTqc002AValidatorTests.html" target="_top" xlink:title="Unit tests for IvArbitrageValidator (DTqc002A interface test).">
<polygon fill="white" stroke="#666666" points="344,-260 217,-260 217,-230 344,-230 344,-260"/>
<text text-anchor="start" x="225" y="-248" font-family="Helvetica,sans-Serif" font-size="10.00">Alaris.Test.Unit.DTqc002</text>
<text text-anchor="middle" x="280.5" y="-237" font-family="Helvetica,sans-Serif" font-size="10.00">AValidatorTests</text>
</a>
</g>
</g>
<!-- Node2&#45;&gt;Node19 -->
<g id="edge26_Node000002_Node000019" class="edge">
<title>Node2&#45;&gt;Node19</title>
<g id="a_edge26_Node000002_Node000019"><a xlink:title=" ">
<path fill="none" stroke="#63b8ff" d="M87.53,-465.41C99.42,-423.05 133.33,-322.43 199,-269 204.32,-264.67 210.39,-261.13 216.78,-258.22"/>
<polygon fill="#63b8ff" stroke="#63b8ff" points="84.14,-464.51 84.92,-475.08 90.9,-466.34 84.14,-464.51"/>
</a>
</g>
</g>
<!-- Node20 -->
<g id="Node000020" class="node">
<title>Node20</title>
<g id="a_Node000020"><a xlink:href="d8/d01/classAlaris_1_1Test_1_1Unit_1_1DTqc003ATests.html" target="_top" xlink:title="Unit tests for VolumeOpenInterestValidator (DTqc003A). Validates volume and liquidity rules.">
<polygon fill="white" stroke="#666666" points="344,-826 217,-826 217,-796 344,-796 344,-826"/>
<text text-anchor="start" x="225" y="-814" font-family="Helvetica,sans-Serif" font-size="10.00">Alaris.Test.Unit.DTqc003</text>
<text text-anchor="middle" x="280.5" y="-803" font-family="Helvetica,sans-Serif" font-size="10.00">ATests</text>
</a>
</g>
</g>
<!-- Node2&#45;&gt;Node20 -->
<g id="edge27_Node000002_Node000020" class="edge">
<title>Node2&#45;&gt;Node20</title>
<g id="a_edge27_Node000002_Node000020"><a xlink:title=" ">
<path fill="none" stroke="#63b8ff" d="M84.22,-504.69C89.96,-558.23 113.27,-707.74 199,-787 204.14,-791.75 210.18,-795.57 216.61,-798.63"/>
<polygon fill="#63b8ff" stroke="#63b8ff" points="87.68,-504.13 83.22,-494.52 80.71,-504.81 87.68,-504.13"/>
</a>
</g>
</g>
<!-- Node21 -->
<g id="Node000021" class="node">
<title>Node21</title>
<g id="a_Node000021"><a xlink:href="dd/d00/classAlaris_1_1Test_1_1Unit_1_1DTqc004ATests.html" target="_top" xlink:title="Unit tests for EarningsDateValidator (DTqc004A). Validates earnings date accuracy rules.">
<polygon fill="white" stroke="#666666" points="344,-778 217,-778 217,-748 344,-748 344,-778"/>
<text text-anchor="start" x="225" y="-766" font-family="Helvetica,sans-Serif" font-size="10.00">Alaris.Test.Unit.DTqc004</text>
<text text-anchor="middle" x="280.5" y="-755" font-family="Helvetica,sans-Serif" font-size="10.00">ATests</text>
</a>
</g>
</g>
<!-- Node2&#45;&gt;Node21 -->
<g id="edge28_Node000002_Node000021" class="edge">
<title>Node2&#45;&gt;Node21</title>
<g id="a_edge28_Node000002_Node000021"><a xlink:title=" ">
<path fill="none" stroke="#63b8ff" d="M85.76,-504.38C94.76,-551.73 124.41,-674.2 199,-739 204.28,-743.59 210.42,-747.3 216.89,-750.31"/>
<polygon fill="#63b8ff" stroke="#63b8ff" points="89.2,-503.72 83.98,-494.5 82.31,-504.97 89.2,-503.72"/>
</a>
</g>
</g>
<!-- Node22 -->
<g id="Node000022" class="node">
<title>Node22</title>
<g id="a_Node000022"><a xlink:href="d6/d01/classAlaris_1_1Test_1_1Unit_1_1STBR001ATests.html" target="_top" xlink:title="Unit tests for the STBR001A component. Tests regime detection, pricing accuracy, and calendar spread ...">
<polygon fill="white" stroke="#666666" points="345.5,-730 215.5,-730 215.5,-700 345.5,-700 345.5,-730"/>
<text text-anchor="start" x="223.5" y="-718" font-family="Helvetica,sans-Serif" font-size="10.00">Alaris.Test.Unit.STBR001</text>
<text text-anchor="middle" x="280.5" y="-707" font-family="Helvetica,sans-Serif" font-size="10.00">ATests</text>
</a>
</g>
</g>
<!-- Node2&#45;&gt;Node22 -->
<g id="edge29_Node000002_Node000022" class="edge">
<title>Node2&#45;&gt;Node22</title>
<g id="a_edge29_Node000002_Node000022"><a xlink:title=" ">
<path fill="none" stroke="#63b8ff" d="M88.06,-504.52C100.71,-545.41 135.59,-640.46 199,-691 203.9,-694.91 209.43,-698.18 215.24,-700.92"/>
<polygon fill="#63b8ff" stroke="#63b8ff" points="91.41,-503.5 85.19,-494.92 84.7,-505.51 91.41,-503.5"/>
</a>
</g>
</g>
<!-- Node23 -->
<g id="Node000023" class="node">
<title>Node23</title>
<g id="a_Node000023"><a xlink:href="d5/d03/classAlaris_1_1Test_1_1Unit_1_1STUN001ATests.html" target="_top" xlink:title="Unit tests for STUN001A earnings universe selection model. Tests the earnings provider integration an...">
<polygon fill="white" stroke="#666666" points="346,-682 215,-682 215,-652 346,-652 346,-682"/>
<text text-anchor="start" x="223" y="-670" font-family="Helvetica,sans-Serif" font-size="10.00">Alaris.Test.Unit.STUN001</text>
<text text-anchor="middle" x="280.5" y="-659" font-family="Helvetica,sans-Serif" font-size="10.00">ATests</text>
</a>
</g>
</g>
<!-- Node2&#45;&gt;Node23 -->
<g id="edge30_Node000002_Node000023" class="edge">
<title>Node2&#45;&gt;Node23</title>
<g id="a_edge30_Node000002_Node000023"><a xlink:title=" ">
<path fill="none" stroke="#63b8ff" d="M91.33,-503.98C107.75,-537.2 146.19,-605.88 199,-643 203.89,-646.44 209.28,-649.39 214.88,-651.92"/>
<polygon fill="#63b8ff" stroke="#63b8ff" points="94.44,-502.37 86.95,-494.88 88.13,-505.41 94.44,-502.37"/>
</a>
</g>
</g>
<!-- Node24 -->
<g id="Node000024" class="node">
<title>Node24</title>
<g id="a_Node000024"><a xlink:href="d2/d02/classAlaris_1_1Test_1_1Unit_1_1TSUN033A.html" target="_top" xlink:title="TSUN033A: Unit tests for persistent event stores (EVIF001B, EVIF002B).">
<polygon fill="white" stroke="#666666" points="349,-633.5 212,-633.5 212,-614.5 349,-614.5 349,-633.5"/>
<text text-anchor="middle" x="280.5" y="-621.5" font-family="Helvetica,sans-Serif" font-size="10.00">Alaris.Test.Unit.TSUN033A</text>
</a>
</g>
</g>
<!-- Node2&#45;&gt;Node24 -->
<g id="edge31_Node000002_Node000024" class="edge">
<title>Node2&#45;&gt;Node24</title>
<g id="a_edge31_Node000002_Node000024"><a xlink:title=" ">
<path fill="none" stroke="#63b8ff" d="M94.68,-502.93C113.72,-529.5 153.14,-578.98 199,-605 205.87,-608.9 213.5,-612 221.26,-614.46"/>
<polygon fill="#63b8ff" stroke="#63b8ff" points="97.42,-500.74 88.82,-494.56 91.69,-504.76 97.42,-500.74"/>
</a>
</g>
</g>
<!-- Node7 -->
<g id="Node000007" class="node">
<title>Node7</title>
<g id="a_Node000007"><a xlink:href="dd/d01/classAlaris_1_1Infrastructure_1_1Data_1_1Provider_1_1InteractiveBrokersSnapshotProvider.html" target="_top" xlink:title="Interactive Brokers implementation of execution quote provider. Component: DTib005A | Category: Data ...">
<polygon fill="white" stroke="#666666" points="574,-457.5 398,-457.5 398,-416.5 574,-416.5 574,-457.5"/>
<text text-anchor="start" x="406" y="-445.5" font-family="Helvetica,sans-Serif" font-size="10.00">Alaris.Infrastructure.Data.</text>
<text text-anchor="start" x="406" y="-434.5" font-family="Helvetica,sans-Serif" font-size="10.00">Provider.InteractiveBrokersSnapshot</text>
<text text-anchor="middle" x="486" y="-423.5" font-family="Helvetica,sans-Serif" font-size="10.00">Provider</text>
</a>
</g>
</g>
<!-- Node6&#45;&gt;Node7 -->
<g id="edge19_Node000006_Node000007" class="edge">
<title>Node6&#45;&gt;Node7</title>
<g id="a_edge19_Node000006_Node000007"><a xlink:title=" ">
<path fill="none" stroke="#63b8ff" d="M355.39,-437C369.13,-437 383.6,-437 397.69,-437"/>
<polygon fill="#63b8ff" stroke="#63b8ff" points="355.05,-433.5 345.05,-437 355.05,-440.5 355.05,-433.5"/>
</a>
</g>
</g>
<!-- Node16 -->
<g id="Node000016" class="node">
<title>Node16</title>
<g id="a_Node000016"><a xlink:href="d9/d02/interfaceAlaris_1_1Strategy_1_1Bridge_1_1STBR002A.html" target="_top" xlink:title="Interface for pricing options using advanced models including negative rates. Implementations use the...">
<polygon fill="white" stroke="#666666" points="163,-211.5 0,-211.5 0,-192.5 163,-192.5 163,-211.5"/>
<text text-anchor="middle" x="81.5" y="-199.5" font-family="Helvetica,sans-Serif" font-size="10.00">Alaris.Strategy.Bridge.STBR002A</text>
</a>
</g>
</g>
<!-- Node16&#45;&gt;Node15 -->
<g id="edge32_Node000016_Node000015" class="edge">
<title>Node16&#45;&gt;Node15</title>
<g id="a_edge32_Node000016_Node000015"><a xlink:title=" ">
<path fill="none" stroke="#63b8ff" d="M173.22,-202C181.8,-202 190.45,-202 198.93,-202"/>
<polygon fill="#63b8ff" stroke="#63b8ff" points="173.2,-198.5 163.2,-202 173.2,-205.5 173.2,-198.5"/>
</a>
</g>
</g>
</g>
</svg>
