<?xml version="1.0" encoding="UTF-8" standalone="no"?>
<!DOCTYPE svg PUBLIC "-//W3C//DTD SVG 1.1//EN"
 "http://www.w3.org/Graphics/SVG/1.1/DTD/svg11.dtd">
<!-- Generated by graphviz version 2.43.0 (0)
 -->
<!-- Title: Alaris.Strategy.Core.STIV002A Pages: 1 -->
<svg width="184pt" height="479pt"
 viewBox="0.00 0.00 184.00 479.00" xmlns="http://www.w3.org/2000/svg" xmlns:xlink="http://www.w3.org/1999/xlink">
<g id="graph0" class="graph" transform="scale(1 1) rotate(0) translate(4 475)">
<title>Alaris.Strategy.Core.STIV002A</title>
<!-- Node1 -->
<g id="Node000001" class="node">
<title>Node1</title>
<g id="a_Node000001"><a xlink:title="Implements the Kou (2002) double&#45;exponential jump&#45;diffusion model for implied volatility....">
<polygon fill="#999999" stroke="transparent" points="176,-229 0,-229 0,0 176,0 176,-229"/>
<text text-anchor="start" x="20" y="-216.5" font-family="Helvetica,sans-Serif" font-size="10.00">Alaris.Strategy.Core.STIV002A</text>
<text text-anchor="start" x="4" y="-201.5" font-family="Helvetica,sans-Serif" font-size="10.00">+</text>
<text text-anchor="start" x="15" y="-201.5" font-family="Helvetica,sans-Serif" font-size="10.00">DTE</text>
<text text-anchor="start" x="4" y="-186.5" font-family="Helvetica,sans-Serif" font-size="10.00">+</text>
<text text-anchor="start" x="15" y="-186.5" font-family="Helvetica,sans-Serif" font-size="10.00">Strike</text>
<text text-anchor="start" x="4" y="-171.5" font-family="Helvetica,sans-Serif" font-size="10.00">+</text>
<text text-anchor="start" x="15" y="-171.5" font-family="Helvetica,sans-Serif" font-size="10.00">STIV002A()</text>
<text text-anchor="start" x="4" y="-156.5" font-family="Helvetica,sans-Serif" font-size="10.00">+</text>
<text text-anchor="start" x="15" y="-156.5" font-family="Helvetica,sans-Serif" font-size="10.00">ComputeTheoreticalIV()</text>
<text text-anchor="start" x="4" y="-141.5" font-family="Helvetica,sans-Serif" font-size="10.00">+</text>
<text text-anchor="start" x="15" y="-141.5" font-family="Helvetica,sans-Serif" font-size="10.00">ComputeTheoreticalIVApproximate()</text>
<text text-anchor="start" x="4" y="-126.5" font-family="Helvetica,sans-Serif" font-size="10.00">+</text>
<text text-anchor="start" x="15" y="-126.5" font-family="Helvetica,sans-Serif" font-size="10.00">ComputeSTTM001A()</text>
<text text-anchor="start" x="4" y="-111.5" font-family="Helvetica,sans-Serif" font-size="10.00">+</text>
<text text-anchor="start" x="15" y="-111.5" font-family="Helvetica,sans-Serif" font-size="10.00">ComputeSmile()</text>
<text text-anchor="start" x="4" y="-96.5" font-family="Helvetica,sans-Serif" font-size="10.00">+</text>
<text text-anchor="start" x="15" y="-96.5" font-family="Helvetica,sans-Serif" font-size="10.00">Calibrate()</text>
<text text-anchor="start" x="5.5" y="-81.5" font-family="Helvetica,sans-Serif" font-size="10.00">&#45;</text>
<text text-anchor="start" x="15" y="-81.5" font-family="Helvetica,sans-Serif" font-size="10.00">ComputeJumpVariance()</text>
<text text-anchor="start" x="5.5" y="-66.5" font-family="Helvetica,sans-Serif" font-size="10.00">&#45;</text>
<text text-anchor="start" x="15" y="-66.5" font-family="Helvetica,sans-Serif" font-size="10.00">ComputeSkewAdjustment()</text>
<text text-anchor="start" x="5.5" y="-51.5" font-family="Helvetica,sans-Serif" font-size="10.00">&#45;</text>
<text text-anchor="start" x="15" y="-51.5" font-family="Helvetica,sans-Serif" font-size="10.00">ComputeJumpSkewness()</text>
<text text-anchor="start" x="5.5" y="-36.5" font-family="Helvetica,sans-Serif" font-size="10.00">&#45;</text>
<text text-anchor="start" x="15" y="-36.5" font-family="Helvetica,sans-Serif" font-size="10.00">CalibrateGridSearch()</text>
<text text-anchor="start" x="5.5" y="-21.5" font-family="Helvetica,sans-Serif" font-size="10.00">&#45;</text>
<text text-anchor="start" x="15" y="-21.5" font-family="Helvetica,sans-Serif" font-size="10.00">ComputeCalibrationError()</text>
<text text-anchor="start" x="5.5" y="-6.5" font-family="Helvetica,sans-Serif" font-size="10.00">&#45;</text>
<text text-anchor="start" x="15" y="-6.5" font-family="Helvetica,sans-Serif" font-size="10.00">ValidateInputs()</text>
<polygon fill="#666666" stroke="#666666" points="0,-211.5 0,-211.5 176,-211.5 176,-211.5 0,-211.5"/>
<polygon fill="#666666" stroke="#666666" points="0,-181.5 0,-181.5 13,-181.5 13,-181.5 0,-181.5"/>
<polygon fill="#666666" stroke="#666666" points="13,-181.5 13,-181.5 176,-181.5 176,-181.5 13,-181.5"/>
<polygon fill="none" stroke="#666666" points="0,0 0,-229 176,-229 176,0 0,0"/>
</a>
</g>
</g>
<!-- Node2 -->
<g id="Node000002" class="node">
<title>Node2</title>
<g id="a_Node000002"><a xlink:href="../../d7/d02/classAlaris_1_1Strategy_1_1Core_1_1KouParameters.html" target="_top" xlink:title="Kou model parameters.">
<polygon fill="white" stroke="transparent" points="152.5,-471 23.5,-471 23.5,-276 152.5,-276 152.5,-471"/>
<text text-anchor="start" x="34.5" y="-458.5" font-family="Helvetica,sans-Serif" font-size="10.00">Alaris.Strategy.Core.Kou</text>
<text text-anchor="start" x="63" y="-447.5" font-family="Helvetica,sans-Serif" font-size="10.00">Parameters</text>
<text text-anchor="start" x="28" y="-432.5" font-family="Helvetica,sans-Serif" font-size="10.00">+</text>
<text text-anchor="start" x="39" y="-432.5" font-family="Helvetica,sans-Serif" font-size="10.00">Sigma</text>
<text text-anchor="start" x="28" y="-417.5" font-family="Helvetica,sans-Serif" font-size="10.00">+</text>
<text text-anchor="start" x="39" y="-417.5" font-family="Helvetica,sans-Serif" font-size="10.00">Lambda</text>
<text text-anchor="start" x="28" y="-402.5" font-family="Helvetica,sans-Serif" font-size="10.00">+</text>
<text text-anchor="start" x="39" y="-402.5" font-family="Helvetica,sans-Serif" font-size="10.00">P</text>
<text text-anchor="start" x="28" y="-387.5" font-family="Helvetica,sans-Serif" font-size="10.00">+</text>
<text text-anchor="start" x="39" y="-387.5" font-family="Helvetica,sans-Serif" font-size="10.00">Eta1</text>
<text text-anchor="start" x="28" y="-372.5" font-family="Helvetica,sans-Serif" font-size="10.00">+</text>
<text text-anchor="start" x="39" y="-372.5" font-family="Helvetica,sans-Serif" font-size="10.00">Eta2</text>
<text text-anchor="start" x="28" y="-357.5" font-family="Helvetica,sans-Serif" font-size="10.00">+</text>
<text text-anchor="start" x="39" y="-357.5" font-family="Helvetica,sans-Serif" font-size="10.00">RiskFreeRate</text>
<text text-anchor="start" x="28" y="-342.5" font-family="Helvetica,sans-Serif" font-size="10.00">+</text>
<text text-anchor="start" x="39" y="-342.5" font-family="Helvetica,sans-Serif" font-size="10.00">DividendYield</text>
<text text-anchor="start" x="28" y="-327.5" font-family="Helvetica,sans-Serif" font-size="10.00">+</text>
<text text-anchor="start" x="39" y="-327.5" font-family="Helvetica,sans-Serif" font-size="10.00">DefaultEquity</text>
<text text-anchor="start" x="28" y="-312.5" font-family="Helvetica,sans-Serif" font-size="10.00">+</text>
<text text-anchor="start" x="39" y="-312.5" font-family="Helvetica,sans-Serif" font-size="10.00">Validate()</text>
<text text-anchor="start" x="28" y="-297.5" font-family="Helvetica,sans-Serif" font-size="10.00">+</text>
<text text-anchor="start" x="39" y="-297.5" font-family="Helvetica,sans-Serif" font-size="10.00">ComputeKappa()</text>
<text text-anchor="start" x="28" y="-282.5" font-family="Helvetica,sans-Serif" font-size="10.00">+</text>
<text text-anchor="start" x="39" y="-282.5" font-family="Helvetica,sans-Serif" font-size="10.00">ComputeMartingaleDrift()</text>
<polygon fill="#666666" stroke="#666666" points="24,-442.5 24,-442.5 153,-442.5 153,-442.5 24,-442.5"/>
<polygon fill="#666666" stroke="#666666" points="24,-322.5 24,-322.5 37,-322.5 37,-322.5 24,-322.5"/>
<polygon fill="#666666" stroke="#666666" points="37,-322.5 37,-322.5 153,-322.5 153,-322.5 37,-322.5"/>
<polygon fill="none" stroke="#666666" points="23.5,-276 23.5,-471 152.5,-471 152.5,-276 23.5,-276"/>
</a>
</g>
</g>
<!-- Node2&#45;&gt;Node1 -->
<g id="edge1_Node000001_Node000002" class="edge">
<title>Node2&#45;&gt;Node1</title>
<g id="a_edge1_Node000001_Node000002"><a xlink:title=" ">
<path fill="none" stroke="#63b8ff" d="M88,-275.71C88,-264.41 88,-252.76 88,-241.14"/>
<polygon fill="none" stroke="#63b8ff" points="88,-241.06 84,-235.06 88,-229.06 92,-235.06 88,-241.06"/>
</a>
</g>
<text text-anchor="middle" x="110" y="-250" font-family="Helvetica,sans-Serif" font-size="10.00" fill="grey"> &#45;_params</text>
</g>
</g>
</svg>
