<?xml version="1.0" encoding="UTF-8" standalone="no"?>
<!DOCTYPE svg PUBLIC "-//W3C//DTD SVG 1.1//EN"
 "http://www.w3.org/Graphics/SVG/1.1/DTD/svg11.dtd">
<!-- Generated by graphviz version 2.43.0 (0)
 -->
<!-- Title: Alaris.Core.Options.AmericanExercise Pages: 1 -->
<svg width="162pt" height="318pt"
 viewBox="0.00 0.00 162.00 318.00" xmlns="http://www.w3.org/2000/svg" xmlns:xlink="http://www.w3.org/1999/xlink">
<g id="graph0" class="graph" transform="scale(1 1) rotate(0) translate(4 314)">
<title>Alaris.Core.Options.AmericanExercise</title>
<!-- Node1 -->
<g id="Node000001" class="node">
<title>Node1</title>
<g id="a_Node000001"><a xlink:title="American exercise specification. Replaces QuantLib AmericanExercise.">
<polygon fill="#999999" stroke="transparent" points="147,-225 7,-225 7,0 147,0 147,-225"/>
<text text-anchor="start" x="12" y="-212.5" font-family="Helvetica,sans-Serif" font-size="10.00">Alaris.Core.Options.American</text>
<text text-anchor="start" x="57.5" y="-201.5" font-family="Helvetica,sans-Serif" font-size="10.00">Exercise</text>
<text text-anchor="start" x="15" y="-186.5" font-family="Helvetica,sans-Serif" font-size="10.00">+</text>
<text text-anchor="start" x="30" y="-186.5" font-family="Helvetica,sans-Serif" font-size="10.00">EarliestDate</text>
<text text-anchor="start" x="15" y="-171.5" font-family="Helvetica,sans-Serif" font-size="10.00">+</text>
<text text-anchor="start" x="30" y="-171.5" font-family="Helvetica,sans-Serif" font-size="10.00">LatestDate</text>
<text text-anchor="start" x="15" y="-156.5" font-family="Helvetica,sans-Serif" font-size="10.00">+</text>
<text text-anchor="start" x="30" y="-156.5" font-family="Helvetica,sans-Serif" font-size="10.00">IsEarlyExerciseAllowed</text>
<text text-anchor="start" x="16.5" y="-141.5" font-family="Helvetica,sans-Serif" font-size="10.00">&#45;</text>
<text text-anchor="start" x="30" y="-141.5" font-family="Helvetica,sans-Serif" font-size="10.00">UnsetSerialNumber</text>
<text text-anchor="start" x="15" y="-126.5" font-family="Helvetica,sans-Serif" font-size="10.00">+</text>
<text text-anchor="start" x="30" y="-126.5" font-family="Helvetica,sans-Serif" font-size="10.00">AmericanExercise()</text>
<text text-anchor="start" x="15" y="-111.5" font-family="Helvetica,sans-Serif" font-size="10.00">+</text>
<text text-anchor="start" x="30" y="-111.5" font-family="Helvetica,sans-Serif" font-size="10.00">AmericanExercise()</text>
<text text-anchor="start" x="15" y="-96.5" font-family="Helvetica,sans-Serif" font-size="10.00">+</text>
<text text-anchor="start" x="30" y="-96.5" font-family="Helvetica,sans-Serif" font-size="10.00">CanExercise()</text>
<text text-anchor="start" x="15" y="-81.5" font-family="Helvetica,sans-Serif" font-size="10.00">+</text>
<text text-anchor="start" x="30" y="-81.5" font-family="Helvetica,sans-Serif" font-size="10.00">Equals()</text>
<text text-anchor="start" x="15" y="-66.5" font-family="Helvetica,sans-Serif" font-size="10.00">+</text>
<text text-anchor="start" x="30" y="-66.5" font-family="Helvetica,sans-Serif" font-size="10.00">Equals()</text>
<text text-anchor="start" x="15" y="-51.5" font-family="Helvetica,sans-Serif" font-size="10.00">+</text>
<text text-anchor="start" x="30" y="-51.5" font-family="Helvetica,sans-Serif" font-size="10.00">GetHashCode()</text>
<text text-anchor="start" x="15" y="-36.5" font-family="Helvetica,sans-Serif" font-size="10.00">+</text>
<text text-anchor="start" x="30" y="-36.5" font-family="Helvetica,sans-Serif" font-size="10.00">ToString()</text>
<text text-anchor="start" x="15" y="-21.5" font-family="Helvetica,sans-Serif" font-size="10.00">+</text>
<text text-anchor="start" x="30" y="-21.5" font-family="Helvetica,sans-Serif" font-size="10.00">operator==()</text>
<text text-anchor="start" x="15" y="-6.5" font-family="Helvetica,sans-Serif" font-size="10.00">+</text>
<text text-anchor="start" x="30" y="-6.5" font-family="Helvetica,sans-Serif" font-size="10.00">operator!=()</text>
<polygon fill="#666666" stroke="#666666" points="7,-196.5 7,-196.5 147,-196.5 147,-196.5 7,-196.5"/>
<polygon fill="#666666" stroke="#666666" points="7,-136.5 7,-136.5 28,-136.5 28,-136.5 7,-136.5"/>
<polygon fill="#666666" stroke="#666666" points="28,-136.5 28,-136.5 147,-136.5 147,-136.5 28,-136.5"/>
<polygon fill="none" stroke="#666666" points="7,0 7,-225 147,-225 147,0 7,0"/>
</a>
</g>
</g>
<!-- Node2 -->
<g id="Node000002" class="node">
<title>Node2</title>
<g id="a_Node000002"><a xlink:title=" ">
<polygon fill="white" stroke="transparent" points="154,-310 0,-310 0,-261 154,-261 154,-310"/>
<text text-anchor="start" x="5" y="-297.5" font-family="Helvetica,sans-Serif" font-size="10.00">IEquatable&lt; AmericanExercise &gt;</text>
<text text-anchor="start" x="75" y="-282.5" font-family="Helvetica,sans-Serif" font-size="10.00"> </text>
<text text-anchor="start" x="75" y="-267.5" font-family="Helvetica,sans-Serif" font-size="10.00"> </text>
<polygon fill="#666666" stroke="#666666" points="0,-292.5 0,-292.5 154,-292.5 154,-292.5 0,-292.5"/>
<polygon fill="#666666" stroke="#666666" points="0,-277.5 0,-277.5 154,-277.5 154,-277.5 0,-277.5"/>
<polygon fill="none" stroke="#666666" points="0,-261 0,-310 154,-310 154,-261 0,-261"/>
</a>
</g>
</g>
<!-- Node2&#45;&gt;Node1 -->
<g id="edge1_Node000001_Node000002" class="edge">
<title>Node2&#45;&gt;Node1</title>
<g id="a_edge1_Node000001_Node000002"><a xlink:title=" ">
<path fill="none" stroke="#63b8ff" d="M77,-250.52C77,-242.85 77,-234.3 77,-225.32"/>
<polygon fill="none" stroke="#63b8ff" points="73.5,-250.72 77,-260.72 80.5,-250.72 73.5,-250.72"/>
</a>
</g>
</g>
</g>
</svg>
