<?xml version="1.0" encoding="UTF-8" standalone="no"?>
<!DOCTYPE svg PUBLIC "-//W3C//DTD SVG 1.1//EN"
 "http://www.w3.org/Graphics/SVG/1.1/DTD/svg11.dtd">
<!-- Generated by graphviz version 2.43.0 (0)
 -->
<!-- Title: Alaris.Host.Application.Command.APcm001A Pages: 1 -->
<svg width="136pt" height="198pt"
 viewBox="0.00 0.00 136.00 198.00" xmlns="http://www.w3.org/2000/svg" xmlns:xlink="http://www.w3.org/1999/xlink">
<g id="graph0" class="graph" transform="scale(1 1) rotate(0) translate(4 194)">
<title>Alaris.Host.Application.Command.APcm001A</title>
<!-- Node1 -->
<g id="Node000001" class="node">
<title>Node1</title>
<g id="a_Node000001"><a xlink:title="Alaris Run Command &#45; executes algorithm in specified mode. Component ID: APcm001A.">
<polygon fill="#999999" stroke="transparent" points="120.5,-105 7.5,-105 7.5,0 120.5,0 120.5,-105"/>
<text text-anchor="start" x="13" y="-92.5" font-family="Helvetica,sans-Serif" font-size="10.00">Alaris.Host.Application.</text>
<text text-anchor="start" x="15.5" y="-81.5" font-family="Helvetica,sans-Serif" font-size="10.00">Command.APcm001A</text>
<text text-anchor="start" x="62.5" y="-66.5" font-family="Helvetica,sans-Serif" font-size="10.00"> </text>
<text text-anchor="start" x="14" y="-51.5" font-family="Helvetica,sans-Serif" font-size="10.00">+</text>
<text text-anchor="start" x="27" y="-51.5" font-family="Helvetica,sans-Serif" font-size="10.00">Execute()</text>
<text text-anchor="start" x="15.5" y="-36.5" font-family="Helvetica,sans-Serif" font-size="10.00">&#45;</text>
<text text-anchor="start" x="27" y="-36.5" font-family="Helvetica,sans-Serif" font-size="10.00">FindConfigPath()</text>
<text text-anchor="start" x="15.5" y="-21.5" font-family="Helvetica,sans-Serif" font-size="10.00">&#45;</text>
<text text-anchor="start" x="27" y="-21.5" font-family="Helvetica,sans-Serif" font-size="10.00">ExecuteLean()</text>
<text text-anchor="start" x="15.5" y="-6.5" font-family="Helvetica,sans-Serif" font-size="10.00">&#45;</text>
<text text-anchor="start" x="27" y="-6.5" font-family="Helvetica,sans-Serif" font-size="10.00">FindLeanLauncher()</text>
<polygon fill="#666666" stroke="#666666" points="8,-76.5 8,-76.5 121,-76.5 121,-76.5 8,-76.5"/>
<polygon fill="#666666" stroke="#666666" points="8,-61.5 8,-61.5 121,-61.5 121,-61.5 8,-61.5"/>
<polygon fill="none" stroke="#666666" points="7.5,0 7.5,-105 120.5,-105 120.5,0 7.5,0"/>
</a>
</g>
</g>
<!-- Node2 -->
<g id="Node000002" class="node">
<title>Node2</title>
<g id="a_Node000002"><a xlink:title=" ">
<polygon fill="white" stroke="transparent" points="128,-190 0,-190 0,-141 128,-141 128,-190"/>
<text text-anchor="start" x="5" y="-177.5" font-family="Helvetica,sans-Serif" font-size="10.00">Command&lt; RunSettings &gt;</text>
<text text-anchor="start" x="62" y="-162.5" font-family="Helvetica,sans-Serif" font-size="10.00"> </text>
<text text-anchor="start" x="62" y="-147.5" font-family="Helvetica,sans-Serif" font-size="10.00"> </text>
<polygon fill="#666666" stroke="#666666" points="0,-172.5 0,-172.5 128,-172.5 128,-172.5 0,-172.5"/>
<polygon fill="#666666" stroke="#666666" points="0,-157.5 0,-157.5 128,-157.5 128,-157.5 0,-157.5"/>
<polygon fill="none" stroke="#666666" points="0,-141 0,-190 128,-190 128,-141 0,-141"/>
</a>
</g>
</g>
<!-- Node2&#45;&gt;Node1 -->
<g id="edge1_Node000001_Node000002" class="edge">
<title>Node2&#45;&gt;Node1</title>
<g id="a_edge1_Node000001_Node000002"><a xlink:title=" ">
<path fill="none" stroke="#63b8ff" d="M64,-130.85C64,-122.79 64,-114 64,-105.32"/>
<polygon fill="none" stroke="#63b8ff" points="60.5,-130.96 64,-140.96 67.5,-130.96 60.5,-130.96"/>
</a>
</g>
</g>
</g>
</svg>
