<?xml version="1.0" encoding="UTF-8" standalone="no"?>
<!DOCTYPE svg PUBLIC "-//W3C//DTD SVG 1.1//EN"
 "http://www.w3.org/Graphics/SVG/1.1/DTD/svg11.dtd">
<!-- Generated by graphviz version 2.43.0 (0)
 -->
<!-- Title: Alaris.Infrastructure.Data.Provider.DTpr005A Pages: 1 -->
<svg width="489pt" height="383pt"
 viewBox="0.00 0.00 489.00 383.00" xmlns="http://www.w3.org/2000/svg" xmlns:xlink="http://www.w3.org/1999/xlink">
<g id="graph0" class="graph" transform="scale(1 1) rotate(0) translate(4 379)">
<title>Alaris.Infrastructure.Data.Provider.DTpr005A</title>
<!-- Node1 -->
<g id="Node000001" class="node">
<title>Node1</title>
<g id="a_Node000001"><a xlink:title="Interface for risk&#45;free rate providers.">
<polygon fill="#999999" stroke="transparent" points="317,-375 180,-375 180,-300 317,-300 317,-375"/>
<text text-anchor="start" x="192.5" y="-362.5" font-family="Helvetica,sans-Serif" font-size="10.00">Alaris.Infrastructure.Data.</text>
<text text-anchor="start" x="207.5" y="-351.5" font-family="Helvetica,sans-Serif" font-size="10.00">Provider.DTpr005A</text>
<text text-anchor="start" x="247" y="-336.5" font-family="Helvetica,sans-Serif" font-size="10.00"> </text>
<text text-anchor="start" x="184.5" y="-321.5" font-family="Helvetica,sans-Serif" font-size="10.00">+</text>
<text text-anchor="start" x="195.5" y="-321.5" font-family="Helvetica,sans-Serif" font-size="10.00">GetCurrentRateAsync()</text>
<text text-anchor="start" x="184.5" y="-306.5" font-family="Helvetica,sans-Serif" font-size="10.00">+</text>
<text text-anchor="start" x="195.5" y="-306.5" font-family="Helvetica,sans-Serif" font-size="10.00">GetHistoricalRatesAsync()</text>
<polygon fill="#666666" stroke="#666666" points="180.5,-346.5 180.5,-346.5 317.5,-346.5 317.5,-346.5 180.5,-346.5"/>
<polygon fill="#666666" stroke="#666666" points="180.5,-331.5 180.5,-331.5 317.5,-331.5 317.5,-331.5 180.5,-331.5"/>
<polygon fill="none" stroke="#666666" points="180,-300 180,-375 317,-375 317,-300 180,-300"/>
</a>
</g>
</g>
<!-- Node2 -->
<g id="Node000002" class="node">
<title>Node2</title>
<g id="a_Node000002"><a xlink:href="../../d1/d03/classAlaris_1_1Infrastructure_1_1Data_1_1Provider_1_1Treasury_1_1TreasuryDirectRateProvider.html" target="_top" xlink:title="Treasury Direct API risk&#45;free rate provider. Component ID: DTrf001A.">
<polygon fill="white" stroke="transparent" points="153,-264 0,-264 0,-133 153,-133 153,-264"/>
<text text-anchor="start" x="5.5" y="-251.5" font-family="Helvetica,sans-Serif" font-size="10.00">Alaris.Infrastructure.Data.</text>
<text text-anchor="start" x="5.5" y="-240.5" font-family="Helvetica,sans-Serif" font-size="10.00">Provider.Treasury.TreasuryDirect</text>
<text text-anchor="start" x="48" y="-229.5" font-family="Helvetica,sans-Serif" font-size="10.00">RateProvider</text>
<text text-anchor="start" x="7.5" y="-214.5" font-family="Helvetica,sans-Serif" font-size="10.00">&#45;</text>
<text text-anchor="start" x="18.5" y="-214.5" font-family="Helvetica,sans-Serif" font-size="10.00">_api</text>
<text text-anchor="start" x="7.5" y="-199.5" font-family="Helvetica,sans-Serif" font-size="10.00">&#45;</text>
<text text-anchor="start" x="18.5" y="-199.5" font-family="Helvetica,sans-Serif" font-size="10.00">_logger</text>
<text text-anchor="start" x="6" y="-184.5" font-family="Helvetica,sans-Serif" font-size="10.00">+</text>
<text text-anchor="start" x="18.5" y="-184.5" font-family="Helvetica,sans-Serif" font-size="10.00">TreasuryDirectRateProvider()</text>
<text text-anchor="start" x="6" y="-169.5" font-family="Helvetica,sans-Serif" font-size="10.00">+</text>
<text text-anchor="start" x="18.5" y="-169.5" font-family="Helvetica,sans-Serif" font-size="10.00">GetCurrentRateAsync()</text>
<text text-anchor="start" x="6" y="-154.5" font-family="Helvetica,sans-Serif" font-size="10.00">+</text>
<text text-anchor="start" x="18.5" y="-154.5" font-family="Helvetica,sans-Serif" font-size="10.00">GetHistoricalRatesAsync()</text>
<text text-anchor="start" x="7.5" y="-139.5" font-family="Helvetica,sans-Serif" font-size="10.00">&#45;</text>
<text text-anchor="start" x="18.5" y="-139.5" font-family="Helvetica,sans-Serif" font-size="10.00">ParseRate()</text>
<polygon fill="#666666" stroke="#666666" points="0.5,-224.5 0.5,-224.5 153.5,-224.5 153.5,-224.5 0.5,-224.5"/>
<polygon fill="#666666" stroke="#666666" points="0.5,-194.5 0.5,-194.5 16.5,-194.5 16.5,-194.5 0.5,-194.5"/>
<polygon fill="#666666" stroke="#666666" points="16.5,-194.5 16.5,-194.5 153.5,-194.5 153.5,-194.5 16.5,-194.5"/>
<polygon fill="none" stroke="#666666" points="0,-133 0,-264 153,-264 153,-133 0,-133"/>
</a>
</g>
</g>
<!-- Node1&#45;&gt;Node2 -->
<g id="edge1_Node000001_Node000002" class="edge">
<title>Node1&#45;&gt;Node2</title>
<g id="a_edge1_Node000001_Node000002"><a xlink:title=" ">
<path fill="none" stroke="#63b8ff" d="M194.43,-293.44C181.37,-283.03 167.16,-271.71 153.27,-260.65"/>
<polygon fill="none" stroke="#63b8ff" points="192.4,-296.29 202.41,-299.79 196.77,-290.82 192.4,-296.29"/>
</a>
</g>
</g>
<!-- Node3 -->
<g id="Node000003" class="node">
<title>Node3</title>
<g id="a_Node000003"><a xlink:title=" ">
<polygon fill="white" stroke="transparent" points="325.5,-236 171.5,-236 171.5,-161 325.5,-161 325.5,-236"/>
<text text-anchor="start" x="176.5" y="-223.5" font-family="Helvetica,sans-Serif" font-size="10.00">Alaris.Test.Integration.</text>
<text text-anchor="start" x="176.5" y="-212.5" font-family="Helvetica,sans-Serif" font-size="10.00">BridgeTestRiskFreeRateProvider</text>
<text text-anchor="start" x="246.5" y="-197.5" font-family="Helvetica,sans-Serif" font-size="10.00"> </text>
<text text-anchor="start" x="179.5" y="-182.5" font-family="Helvetica,sans-Serif" font-size="10.00">+</text>
<text text-anchor="start" x="194.5" y="-182.5" font-family="Helvetica,sans-Serif" font-size="10.00">GetCurrentRateAsync()</text>
<text text-anchor="start" x="179.5" y="-167.5" font-family="Helvetica,sans-Serif" font-size="10.00">+</text>
<text text-anchor="start" x="194.5" y="-167.5" font-family="Helvetica,sans-Serif" font-size="10.00">GetHistoricalRatesAsync()</text>
<polygon fill="#666666" stroke="#666666" points="171.5,-207.5 171.5,-207.5 325.5,-207.5 325.5,-207.5 171.5,-207.5"/>
<polygon fill="#666666" stroke="#666666" points="171.5,-192.5 171.5,-192.5 325.5,-192.5 325.5,-192.5 171.5,-192.5"/>
<polygon fill="none" stroke="#666666" points="171.5,-161 171.5,-236 325.5,-236 325.5,-161 171.5,-161"/>
</a>
</g>
</g>
<!-- Node1&#45;&gt;Node3 -->
<g id="edge2_Node000001_Node000003" class="edge">
<title>Node1&#45;&gt;Node3</title>
<g id="a_edge2_Node000001_Node000003"><a xlink:title=" ">
<path fill="none" stroke="#63b8ff" d="M248.5,-289.3C248.5,-271.96 248.5,-252.61 248.5,-236.31"/>
<polygon fill="none" stroke="#63b8ff" points="245,-289.79 248.5,-299.79 252,-289.79 245,-289.79"/>
</a>
</g>
</g>
<!-- Node5 -->
<g id="Node000005" class="node">
<title>Node5</title>
<g id="a_Node000005"><a xlink:title=" ">
<polygon fill="white" stroke="transparent" points="481,-236 344,-236 344,-161 481,-161 481,-236"/>
<text text-anchor="start" x="355.5" y="-223.5" font-family="Helvetica,sans-Serif" font-size="10.00">Alaris.Test.Unit.MockRisk</text>
<text text-anchor="start" x="374.5" y="-212.5" font-family="Helvetica,sans-Serif" font-size="10.00">FreeRateProvider</text>
<text text-anchor="start" x="411" y="-197.5" font-family="Helvetica,sans-Serif" font-size="10.00"> </text>
<text text-anchor="start" x="348.5" y="-182.5" font-family="Helvetica,sans-Serif" font-size="10.00">+</text>
<text text-anchor="start" x="359.5" y="-182.5" font-family="Helvetica,sans-Serif" font-size="10.00">GetCurrentRateAsync()</text>
<text text-anchor="start" x="348.5" y="-167.5" font-family="Helvetica,sans-Serif" font-size="10.00">+</text>
<text text-anchor="start" x="359.5" y="-167.5" font-family="Helvetica,sans-Serif" font-size="10.00">GetHistoricalRatesAsync()</text>
<polygon fill="#666666" stroke="#666666" points="344.5,-207.5 344.5,-207.5 481.5,-207.5 481.5,-207.5 344.5,-207.5"/>
<polygon fill="#666666" stroke="#666666" points="344.5,-192.5 344.5,-192.5 481.5,-192.5 481.5,-192.5 344.5,-192.5"/>
<polygon fill="none" stroke="#666666" points="344,-161 344,-236 481,-236 481,-161 344,-161"/>
</a>
</g>
</g>
<!-- Node1&#45;&gt;Node5 -->
<g id="edge4_Node000001_Node000005" class="edge">
<title>Node1&#45;&gt;Node5</title>
<g id="a_edge4_Node000001_Node000005"><a xlink:title=" ">
<path fill="none" stroke="#63b8ff" d="M300.38,-293.16C322.36,-274.8 347.7,-253.64 368.71,-236.08"/>
<polygon fill="none" stroke="#63b8ff" points="297.88,-290.69 292.45,-299.79 302.37,-296.06 297.88,-290.69"/>
</a>
</g>
</g>
<!-- Node4 -->
<g id="Node000004" class="node">
<title>Node4</title>
<g id="a_Node000004"><a xlink:title=" ">
<polygon fill="white" stroke="transparent" points="330,-97 167,-97 167,0 330,0 330,-97"/>
<text text-anchor="start" x="177" y="-84.5" font-family="Helvetica,sans-Serif" font-size="10.00">Alaris.Test.Integration.</text>
<text text-anchor="start" x="177" y="-73.5" font-family="Helvetica,sans-Serif" font-size="10.00">BridgeTestRiskFreeRateProvider</text>
<text text-anchor="start" x="226" y="-62.5" font-family="Helvetica,sans-Serif" font-size="10.00">WithDelay</text>
<text text-anchor="start" x="173" y="-47.5" font-family="Helvetica,sans-Serif" font-size="10.00">&#45;</text>
<text text-anchor="start" x="182.5" y="-47.5" font-family="Helvetica,sans-Serif" font-size="10.00">_delay</text>
<text text-anchor="start" x="171.5" y="-32.5" font-family="Helvetica,sans-Serif" font-size="10.00">+</text>
<text text-anchor="start" x="182.5" y="-32.5" font-family="Helvetica,sans-Serif" font-size="10.00">BridgeTestRiskFreeRateProvider</text>
<text text-anchor="start" x="182.5" y="-21.5" font-family="Helvetica,sans-Serif" font-size="10.00">WithDelay()</text>
<text text-anchor="start" x="171.5" y="-6.5" font-family="Helvetica,sans-Serif" font-size="10.00">+</text>
<text text-anchor="start" x="182.5" y="-6.5" font-family="Helvetica,sans-Serif" font-size="10.00">GetCurrentRateAsync()</text>
<polygon fill="#666666" stroke="#666666" points="167.5,-57.5 167.5,-57.5 330.5,-57.5 330.5,-57.5 167.5,-57.5"/>
<polygon fill="#666666" stroke="#666666" points="167.5,-42.5 167.5,-42.5 180.5,-42.5 180.5,-42.5 167.5,-42.5"/>
<polygon fill="#666666" stroke="#666666" points="180.5,-42.5 180.5,-42.5 330.5,-42.5 330.5,-42.5 180.5,-42.5"/>
<polygon fill="none" stroke="#666666" points="167,0 167,-97 330,-97 330,0 167,0"/>
</a>
</g>
</g>
<!-- Node3&#45;&gt;Node4 -->
<g id="edge3_Node000003_Node000004" class="edge">
<title>Node3&#45;&gt;Node4</title>
<g id="a_edge3_Node000003_Node000004"><a xlink:title=" ">
<path fill="none" stroke="#63b8ff" d="M248.5,-150.62C248.5,-133.55 248.5,-114.25 248.5,-97.12"/>
<polygon fill="none" stroke="#63b8ff" points="245,-150.92 248.5,-160.92 252,-150.92 245,-150.92"/>
</a>
</g>
</g>
</g>
</svg>
