<?xml version="1.0" encoding="UTF-8" standalone="no"?>
<!DOCTYPE svg PUBLIC "-//W3C//DTD SVG 1.1//EN"
 "http://www.w3.org/Graphics/SVG/1.1/DTD/svg11.dtd">
<!-- Generated by graphviz version 2.43.0 (0)
 -->
<!-- Title: Alaris.Strategy.Core.STCR001A Pages: 1 -->
<!--zoomable 738 -->

<svg id="main" version="1.1" xmlns="http://www.w3.org/2000/svg" xmlns:xlink="http://www.w3.org/1999/xlink" xml:space="preserve" onload="init(evt)">
<style type="text/css"><![CDATA[
.node, .edge {opacity: 0.7;}
.node.selected, .edge.selected {opacity: 1;}
.edge:hover path { stroke: red; }
.edge:hover polygon { stroke: red; fill: red; }
]]></style>

<defs>
  <circle id="rim" cx="0" cy="0" r="7"/>
  <circle id="rim2" cx="0" cy="0" r="3.5"/>
  <g id="zoomPlus">
    <use xlink:href="#rim" fill="#404040"><set attributeName="fill" to="#808080" begin="zoomplus.mouseover" end="zoomplus.mouseout"/></use>
    <path d="M-4,0h8M0,-4v8" fill="none" stroke="white" stroke-width="1.5" pointer-events="none"/>
  </g>
  <g id="zoomMin">
    <use xlink:href="#rim" fill="#404040"><set attributeName="fill" to="#808080" begin="zoomminus.mouseover" end="zoomminus.mouseout"/></use>
    <path d="M-4,0h8" fill="none" stroke="white" stroke-width="1.5" pointer-events="none"/>
  </g>
  <g id="arrowUp" transform="translate(30 24)">
    <use xlink:href="#rim"/>
    <path pointer-events="none" fill="none" stroke="white" stroke-width="1.5" d="M0,-3.0v7 M-2.5,-0.5L0,-3.0L2.5,-0.5"/>
  </g>
  <g id="arrowRight" transform="rotate(90) translate(36 -43)">
    <use xlink:href="#rim"/>
    <path pointer-events="none" fill="none" stroke="white" stroke-width="1.5" d="M0,-3.0v7 M-2.5,-0.5L0,-3.0L2.5,-0.5"/>
  </g>
  <g id="arrowDown" transform="rotate(180) translate(-30 -48)">
    <use xlink:href="#rim"/>
    <path pointer-events="none" fill="none" stroke="white" stroke-width="1.5" d="M0,-3.0v7 M-2.5,-0.5L0,-3.0L2.5,-0.5"/>
  </g>
  <g id="arrowLeft" transform="rotate(270) translate(-36 17)">
    <use xlink:href="#rim"/>
    <path pointer-events="none" fill="none" stroke="white" stroke-width="1.5" d="M0,-3.0v7 M-2.5,-0.5L0,-3.0L2.5,-0.5"/>
  </g>
  <g id="resetDef">
    <use xlink:href="#rim2" fill="#404040"><set attributeName="fill" to="#808080" begin="reset.mouseover" end="reset.mouseout"/></use>
  </g>
</defs>
<script type="application/ecmascript">
var viewWidth = 671;
var viewHeight = 738;
var sectionId = 'dynsection-0';
</script>
<script type="application/ecmascript" xlink:href="../../svg.min.js"/>
<svg id="graph" class="graph">
<g id="viewport">
<title>Alaris.Strategy.Core.STCR001A</title>
<!-- Node1 -->
<g id="Node000001" class="node">
<title>Node1</title>
<g id="a_Node000001"><a xlink:title="Generates trading signals for earnings calendar spread opportunities. Implements the strategy from At...">
<polygon fill="#999999" stroke="transparent" points="416.5,-409 253.5,-409 253.5,0 416.5,0 416.5,-409"/>
<text text-anchor="start" x="265" y="-396.5" font-family="Helvetica,sans-Serif" font-size="10.00">Alaris.Strategy.Core.STCR001A</text>
<text text-anchor="start" x="259.5" y="-381.5" font-family="Helvetica,sans-Serif" font-size="10.00">&#45;</text>
<text text-anchor="start" x="269" y="-381.5" font-family="Helvetica,sans-Serif" font-size="10.00">_logger</text>
<text text-anchor="start" x="259.5" y="-366.5" font-family="Helvetica,sans-Serif" font-size="10.00">&#45;</text>
<text text-anchor="start" x="269" y="-366.5" font-family="Helvetica,sans-Serif" font-size="10.00">priceHistory</text>
<text text-anchor="start" x="259.5" y="-351.5" font-family="Helvetica,sans-Serif" font-size="10.00">&#45;</text>
<text text-anchor="start" x="269" y="-351.5" font-family="Helvetica,sans-Serif" font-size="10.00">LogGeneratingSTCR004A</text>
<text text-anchor="start" x="259.5" y="-336.5" font-family="Helvetica,sans-Serif" font-size="10.00">&#45;</text>
<text text-anchor="start" x="269" y="-336.5" font-family="Helvetica,sans-Serif" font-size="10.00">LogInsufficientPriceHistory</text>
<text text-anchor="start" x="259.5" y="-321.5" font-family="Helvetica,sans-Serif" font-size="10.00">&#45;</text>
<text text-anchor="start" x="269" y="-321.5" font-family="Helvetica,sans-Serif" font-size="10.00">LogNoOptionData</text>
<text text-anchor="start" x="259.5" y="-306.5" font-family="Helvetica,sans-Serif" font-size="10.00">&#45;</text>
<text text-anchor="start" x="269" y="-306.5" font-family="Helvetica,sans-Serif" font-size="10.00">LogInsufficientSTTM001A</text>
<text text-anchor="start" x="259.5" y="-291.5" font-family="Helvetica,sans-Serif" font-size="10.00">&#45;</text>
<text text-anchor="start" x="269" y="-291.5" font-family="Helvetica,sans-Serif" font-size="10.00">LogSTCR004AGenerated</text>
<text text-anchor="start" x="259.5" y="-276.5" font-family="Helvetica,sans-Serif" font-size="10.00">&#45;</text>
<text text-anchor="start" x="269" y="-276.5" font-family="Helvetica,sans-Serif" font-size="10.00">LogErrorGeneratingSTCR004A</text>
<text text-anchor="start" x="259.5" y="-261.5" font-family="Helvetica,sans-Serif" font-size="10.00">&#45;</text>
<text text-anchor="start" x="269" y="-261.5" font-family="Helvetica,sans-Serif" font-size="10.00">LogLeungSantoliMetrics</text>
<text text-anchor="start" x="259.5" y="-246.5" font-family="Helvetica,sans-Serif" font-size="10.00">&#45;</text>
<text text-anchor="start" x="269" y="-246.5" font-family="Helvetica,sans-Serif" font-size="10.00">MinIvRvRatio</text>
<text text-anchor="start" x="259.5" y="-231.5" font-family="Helvetica,sans-Serif" font-size="10.00">&#45;</text>
<text text-anchor="start" x="269" y="-231.5" font-family="Helvetica,sans-Serif" font-size="10.00">MaxTermSlope</text>
<text text-anchor="start" x="259.5" y="-216.5" font-family="Helvetica,sans-Serif" font-size="10.00">&#45;</text>
<text text-anchor="start" x="269" y="-216.5" font-family="Helvetica,sans-Serif" font-size="10.00">MinAverageVolume</text>
<text text-anchor="start" x="258" y="-201.5" font-family="Helvetica,sans-Serif" font-size="10.00">+</text>
<text text-anchor="start" x="269" y="-201.5" font-family="Helvetica,sans-Serif" font-size="10.00">STCR001A()</text>
<text text-anchor="start" x="258" y="-186.5" font-family="Helvetica,sans-Serif" font-size="10.00">+</text>
<text text-anchor="start" x="269" y="-186.5" font-family="Helvetica,sans-Serif" font-size="10.00">Generate()</text>
<text text-anchor="start" x="258" y="-171.5" font-family="Helvetica,sans-Serif" font-size="10.00">+</text>
<text text-anchor="start" x="269" y="-171.5" font-family="Helvetica,sans-Serif" font-size="10.00">Generate()</text>
<text text-anchor="start" x="259.5" y="-156.5" font-family="Helvetica,sans-Serif" font-size="10.00">&#45;</text>
<text text-anchor="start" x="269" y="-156.5" font-family="Helvetica,sans-Serif" font-size="10.00">FetchMarketData()</text>
<text text-anchor="start" x="259.5" y="-141.5" font-family="Helvetica,sans-Serif" font-size="10.00">&#45;</text>
<text text-anchor="start" x="269" y="-141.5" font-family="Helvetica,sans-Serif" font-size="10.00">CalculateSTCR004AMetrics()</text>
<text text-anchor="start" x="259.5" y="-126.5" font-family="Helvetica,sans-Serif" font-size="10.00">&#45;</text>
<text text-anchor="start" x="269" y="-126.5" font-family="Helvetica,sans-Serif" font-size="10.00">CalculateLeungSantoliMetrics()</text>
<text text-anchor="start" x="259.5" y="-111.5" font-family="Helvetica,sans-Serif" font-size="10.00">&#45;</text>
<text text-anchor="start" x="269" y="-111.5" font-family="Helvetica,sans-Serif" font-size="10.00">TryCalibrateFromHistory()</text>
<text text-anchor="start" x="259.5" y="-96.5" font-family="Helvetica,sans-Serif" font-size="10.00">&#45;</text>
<text text-anchor="start" x="269" y="-96.5" font-family="Helvetica,sans-Serif" font-size="10.00">TryCalibrateFromTermStructure()</text>
<text text-anchor="start" x="259.5" y="-81.5" font-family="Helvetica,sans-Serif" font-size="10.00">&#45;</text>
<text text-anchor="start" x="269" y="-81.5" font-family="Helvetica,sans-Serif" font-size="10.00">ExtractSTTM001APoints()</text>
<text text-anchor="start" x="259.5" y="-66.5" font-family="Helvetica,sans-Serif" font-size="10.00">&#45;</text>
<text text-anchor="start" x="269" y="-66.5" font-family="Helvetica,sans-Serif" font-size="10.00">CalculateExpectedMove()</text>
<text text-anchor="start" x="259.5" y="-51.5" font-family="Helvetica,sans-Serif" font-size="10.00">&#45;</text>
<text text-anchor="start" x="269" y="-51.5" font-family="Helvetica,sans-Serif" font-size="10.00">CalculateVolatilitySpread()</text>
<text text-anchor="start" x="259.5" y="-36.5" font-family="Helvetica,sans-Serif" font-size="10.00">&#45;</text>
<text text-anchor="start" x="269" y="-36.5" font-family="Helvetica,sans-Serif" font-size="10.00">SafeLog()</text>
<text text-anchor="start" x="259.5" y="-21.5" font-family="Helvetica,sans-Serif" font-size="10.00">&#45;</text>
<text text-anchor="start" x="269" y="-21.5" font-family="Helvetica,sans-Serif" font-size="10.00">ComputeTheoreticalMetrics()</text>
<text text-anchor="start" x="259.5" y="-6.5" font-family="Helvetica,sans-Serif" font-size="10.00">&#45;</text>
<text text-anchor="start" x="269" y="-6.5" font-family="Helvetica,sans-Serif" font-size="10.00">HasValidIVData()</text>
<polygon fill="#666666" stroke="#666666" points="254,-391.5 254,-391.5 417,-391.5 417,-391.5 254,-391.5"/>
<polygon fill="#666666" stroke="#666666" points="254,-211.5 254,-211.5 267,-211.5 267,-211.5 254,-211.5"/>
<polygon fill="#666666" stroke="#666666" points="267,-211.5 267,-211.5 417,-211.5 417,-211.5 267,-211.5"/>
<polygon fill="none" stroke="#666666" points="253.5,0 253.5,-409 416.5,-409 416.5,0 253.5,0"/>
</a>
</g>
</g>
<!-- Node2 -->
<g id="Node000002" class="node">
<title>Node2</title>
<g id="a_Node000002"><a xlink:href="../../d0/d02/interfaceAlaris_1_1Strategy_1_1Bridge_1_1STDT001A.html" target="_top" xlink:title="Interface for accessing market data including option chains and historical prices....">
<polygon fill="white" stroke="transparent" points="156,-655 0,-655 0,-531 156,-531 156,-655"/>
<text text-anchor="start" x="5" y="-643" font-family="Helvetica,sans-Serif" font-size="10.00">Alaris.Strategy.Bridge.STDT001A</text>
<text text-anchor="start" x="76" y="-628" font-family="Helvetica,sans-Serif" font-size="10.00"> </text>
<text text-anchor="start" x="6" y="-613" font-family="Helvetica,sans-Serif" font-size="10.00">+</text>
<text text-anchor="start" x="19" y="-613" font-family="Helvetica,sans-Serif" font-size="10.00">GetSTDT002A()</text>
<text text-anchor="start" x="6" y="-598" font-family="Helvetica,sans-Serif" font-size="10.00">+</text>
<text text-anchor="start" x="19" y="-598" font-family="Helvetica,sans-Serif" font-size="10.00">GetHistoricalPrices()</text>
<text text-anchor="start" x="6" y="-583" font-family="Helvetica,sans-Serif" font-size="10.00">+</text>
<text text-anchor="start" x="19" y="-583" font-family="Helvetica,sans-Serif" font-size="10.00">GetCurrentPrice()</text>
<text text-anchor="start" x="6" y="-568" font-family="Helvetica,sans-Serif" font-size="10.00">+</text>
<text text-anchor="start" x="19" y="-568" font-family="Helvetica,sans-Serif" font-size="10.00">GetEarningsDates()</text>
<text text-anchor="start" x="6" y="-553" font-family="Helvetica,sans-Serif" font-size="10.00">+</text>
<text text-anchor="start" x="19" y="-553" font-family="Helvetica,sans-Serif" font-size="10.00">GetHistoricalEarningsDates()</text>
<text text-anchor="start" x="6" y="-538" font-family="Helvetica,sans-Serif" font-size="10.00">+</text>
<text text-anchor="start" x="19" y="-538" font-family="Helvetica,sans-Serif" font-size="10.00">IsDataAvailable()</text>
<polygon fill="#666666" stroke="#666666" points="0,-638 0,-638 156,-638 156,-638 0,-638"/>
<polygon fill="#666666" stroke="#666666" points="0,-623 0,-623 156,-623 156,-623 0,-623"/>
<polygon fill="none" stroke="#666666" points="0,-531 0,-655 156,-655 156,-531 0,-531"/>
</a>
</g>
</g>
<!-- Node2&#45;&gt;Node1 -->
<g id="edge1_Node000001_Node000002" class="edge">
<title>Node2&#45;&gt;Node1</title>
<g id="a_edge1_Node000001_Node000002"><a xlink:title=" ">
<path fill="none" stroke="#63b8ff" d="M116.63,-530.84C131.59,-507.35 148.96,-480.34 165,-456 191.15,-416.32 220.04,-373.42 246.46,-334.52"/>
<polygon fill="none" stroke="#63b8ff" points="246.74,-334.12 246.8,-326.91 253.48,-324.2 253.42,-331.41 246.74,-334.12"/>
</a>
</g>
<text text-anchor="middle" x="215.5" y="-430" font-family="Helvetica,sans-Serif" font-size="10.00" fill="grey"> &#45;_marketData</text>
</g>
<!-- Node3 -->
<g id="Node000003" class="node">
<title>Node3</title>
<g id="a_Node000003"><a xlink:href="../../d7/d02/classAlaris_1_1Strategy_1_1Core_1_1STCR003A.html" target="_top" xlink:title="Implements the Yang&#45;Zhang (2000) realized volatility estimator. This estimator is an efficient method...">
<polygon fill="white" stroke="transparent" points="325.5,-660.5 174.5,-660.5 174.5,-525.5 325.5,-525.5 325.5,-660.5"/>
<text text-anchor="start" x="180" y="-648" font-family="Helvetica,sans-Serif" font-size="10.00">Alaris.Strategy.Core.STCR003A</text>
<text text-anchor="start" x="180.5" y="-633" font-family="Helvetica,sans-Serif" font-size="10.00">&#45;</text>
<text text-anchor="start" x="190" y="-633" font-family="Helvetica,sans-Serif" font-size="10.00">TradingDaysPerYear</text>
<text text-anchor="start" x="179" y="-618" font-family="Helvetica,sans-Serif" font-size="10.00">+</text>
<text text-anchor="start" x="190" y="-618" font-family="Helvetica,sans-Serif" font-size="10.00">Calculate()</text>
<text text-anchor="start" x="179" y="-603" font-family="Helvetica,sans-Serif" font-size="10.00">+</text>
<text text-anchor="start" x="190" y="-603" font-family="Helvetica,sans-Serif" font-size="10.00">CalculateRolling()</text>
<text text-anchor="start" x="180.5" y="-588" font-family="Helvetica,sans-Serif" font-size="10.00">&#45;</text>
<text text-anchor="start" x="190" y="-588" font-family="Helvetica,sans-Serif" font-size="10.00">CalculateLogReturnsInPlace()</text>
<text text-anchor="start" x="180.5" y="-573" font-family="Helvetica,sans-Serif" font-size="10.00">&#45;</text>
<text text-anchor="start" x="190" y="-573" font-family="Helvetica,sans-Serif" font-size="10.00">CalculateSTCR003AVariance</text>
<text text-anchor="start" x="190" y="-562" font-family="Helvetica,sans-Serif" font-size="10.00">FromSpan()</text>
<text text-anchor="start" x="180.5" y="-547" font-family="Helvetica,sans-Serif" font-size="10.00">&#45;</text>
<text text-anchor="start" x="190" y="-547" font-family="Helvetica,sans-Serif" font-size="10.00">VarianceFromSpan()</text>
<text text-anchor="start" x="180.5" y="-532" font-family="Helvetica,sans-Serif" font-size="10.00">&#45;</text>
<text text-anchor="start" x="190" y="-532" font-family="Helvetica,sans-Serif" font-size="10.00">AverageFromSpan()</text>
<polygon fill="#666666" stroke="#666666" points="175,-643 175,-643 326,-643 326,-643 175,-643"/>
<polygon fill="#666666" stroke="#666666" points="175,-628 175,-628 188,-628 188,-628 175,-628"/>
<polygon fill="#666666" stroke="#666666" points="188,-628 188,-628 326,-628 326,-628 188,-628"/>
<polygon fill="none" stroke="#666666" points="174.5,-525.5 174.5,-660.5 325.5,-660.5 325.5,-525.5 174.5,-525.5"/>
</a>
</g>
</g>
<!-- Node3&#45;&gt;Node1 -->
<g id="edge2_Node000001_Node000003" class="edge">
<title>Node3&#45;&gt;Node1</title>
<g id="a_edge2_Node000001_Node000003"><a xlink:title=" ">
<path fill="none" stroke="#63b8ff" d="M264.71,-525.12C271.23,-495.45 279.31,-458.72 287.64,-420.83"/>
<polygon fill="none" stroke="#63b8ff" points="287.66,-420.76 285.04,-414.04 290.24,-409.04 292.85,-415.76 287.66,-420.76"/>
</a>
</g>
<text text-anchor="middle" x="315" y="-430" font-family="Helvetica,sans-Serif" font-size="10.00" fill="grey"> &#45;_yangZhang</text>
</g>
<!-- Node4 -->
<g id="Node000004" class="node">
<title>Node4</title>
<g id="a_Node000004"><a xlink:href="../../df/d01/classAlaris_1_1Strategy_1_1Core_1_1STTM001A.html" target="_top" xlink:title="Analyzes the term structure of implied volatility. Used to identify inverted term structures that sig...">
<polygon fill="white" stroke="transparent" points="498.5,-625 343.5,-625 343.5,-561 498.5,-561 498.5,-625"/>
<text text-anchor="start" x="351.5" y="-613" font-family="Helvetica,sans-Serif" font-size="10.00">Alaris.Strategy.Core.STTM001A</text>
<text text-anchor="start" x="419.5" y="-598" font-family="Helvetica,sans-Serif" font-size="10.00"> </text>
<text text-anchor="start" x="348" y="-583" font-family="Helvetica,sans-Serif" font-size="10.00">+</text>
<text text-anchor="start" x="359" y="-583" font-family="Helvetica,sans-Serif" font-size="10.00">Analyze()</text>
<text text-anchor="start" x="349.5" y="-568" font-family="Helvetica,sans-Serif" font-size="10.00">&#45;</text>
<text text-anchor="start" x="359" y="-568" font-family="Helvetica,sans-Serif" font-size="10.00">CalculateRSquaredOptimized()</text>
<polygon fill="#666666" stroke="#666666" points="344,-608 344,-608 499,-608 499,-608 344,-608"/>
<polygon fill="#666666" stroke="#666666" points="344,-593 344,-593 499,-593 499,-593 344,-593"/>
<polygon fill="none" stroke="#666666" points="343.5,-561 343.5,-625 498.5,-625 498.5,-561 343.5,-561"/>
</a>
</g>
</g>
<!-- Node4&#45;&gt;Node1 -->
<g id="edge3_Node000001_Node000004" class="edge">
<title>Node4&#45;&gt;Node1</title>
<g id="a_edge3_Node000001_Node000004"><a xlink:title=" ">
<path fill="none" stroke="#63b8ff" d="M414.04,-560.7C406.92,-528.74 395.22,-476.12 382.96,-421.06"/>
<polygon fill="none" stroke="#63b8ff" points="382.95,-420.99 377.74,-416 380.34,-409.28 385.55,-414.26 382.95,-420.99"/>
</a>
</g>
<text text-anchor="middle" x="420" y="-430" font-family="Helvetica,sans-Serif" font-size="10.00" fill="grey"> &#45;_termAnalyzer</text>
</g>
<!-- Node5 -->
<g id="Node000005" class="node">
<title>Node5</title>
<g id="a_Node000005"><a xlink:href="../../dd/d02/classAlaris_1_1Strategy_1_1Core_1_1STIV005A.html" target="_top" xlink:title="Calibrates earnings jump volatility (sigma_e) from historical earnings announcement data....">
<polygon fill="white" stroke="transparent" points="663,-730 517,-730 517,-456 663,-456 663,-730"/>
<text text-anchor="start" x="522" y="-718" font-family="Helvetica,sans-Serif" font-size="10.00">Alaris.Strategy.Core.STIV005A</text>
<text text-anchor="start" x="526" y="-703" font-family="Helvetica,sans-Serif" font-size="10.00">&#45;</text>
<text text-anchor="start" x="539" y="-703" font-family="Helvetica,sans-Serif" font-size="10.00">_logger</text>
<text text-anchor="start" x="526" y="-688" font-family="Helvetica,sans-Serif" font-size="10.00">&#45;</text>
<text text-anchor="start" x="539" y="-688" font-family="Helvetica,sans-Serif" font-size="10.00">MinHistoricalSamples</text>
<text text-anchor="start" x="526" y="-673" font-family="Helvetica,sans-Serif" font-size="10.00">&#45;</text>
<text text-anchor="start" x="539" y="-673" font-family="Helvetica,sans-Serif" font-size="10.00">DefaultLookbackQuarters</text>
<text text-anchor="start" x="526" y="-658" font-family="Helvetica,sans-Serif" font-size="10.00">&#45;</text>
<text text-anchor="start" x="539" y="-658" font-family="Helvetica,sans-Serif" font-size="10.00">MaxSigmaE</text>
<text text-anchor="start" x="526" y="-643" font-family="Helvetica,sans-Serif" font-size="10.00">&#45;</text>
<text text-anchor="start" x="539" y="-643" font-family="Helvetica,sans-Serif" font-size="10.00">MinSigmaE</text>
<text text-anchor="start" x="526" y="-628" font-family="Helvetica,sans-Serif" font-size="10.00">&#45;</text>
<text text-anchor="start" x="539" y="-628" font-family="Helvetica,sans-Serif" font-size="10.00">LogCalibrating</text>
<text text-anchor="start" x="526" y="-613" font-family="Helvetica,sans-Serif" font-size="10.00">&#45;</text>
<text text-anchor="start" x="539" y="-613" font-family="Helvetica,sans-Serif" font-size="10.00">LogCalibrationResult</text>
<text text-anchor="start" x="526" y="-598" font-family="Helvetica,sans-Serif" font-size="10.00">&#45;</text>
<text text-anchor="start" x="539" y="-598" font-family="Helvetica,sans-Serif" font-size="10.00">LogInsufficientData</text>
<text text-anchor="start" x="524.5" y="-583" font-family="Helvetica,sans-Serif" font-size="10.00">+</text>
<text text-anchor="start" x="539" y="-583" font-family="Helvetica,sans-Serif" font-size="10.00">STIV005A()</text>
<text text-anchor="start" x="524.5" y="-568" font-family="Helvetica,sans-Serif" font-size="10.00">+</text>
<text text-anchor="start" x="539" y="-568" font-family="Helvetica,sans-Serif" font-size="10.00">CalibrateFromMoves()</text>
<text text-anchor="start" x="524.5" y="-553" font-family="Helvetica,sans-Serif" font-size="10.00">+</text>
<text text-anchor="start" x="539" y="-553" font-family="Helvetica,sans-Serif" font-size="10.00">Calibrate()</text>
<text text-anchor="start" x="524.5" y="-538" font-family="Helvetica,sans-Serif" font-size="10.00">+</text>
<text text-anchor="start" x="539" y="-538" font-family="Helvetica,sans-Serif" font-size="10.00">STTM001AEstimator()</text>
<text text-anchor="start" x="524.5" y="-523" font-family="Helvetica,sans-Serif" font-size="10.00">+</text>
<text text-anchor="start" x="539" y="-523" font-family="Helvetica,sans-Serif" font-size="10.00">BaseVolatilityEstimator()</text>
<text text-anchor="start" x="526" y="-508" font-family="Helvetica,sans-Serif" font-size="10.00">&#45;</text>
<text text-anchor="start" x="539" y="-508" font-family="Helvetica,sans-Serif" font-size="10.00">ExtractReturns()</text>
<text text-anchor="start" x="526" y="-493" font-family="Helvetica,sans-Serif" font-size="10.00">&#45;</text>
<text text-anchor="start" x="539" y="-493" font-family="Helvetica,sans-Serif" font-size="10.00">ComputeCalibration()</text>
<text text-anchor="start" x="526" y="-478" font-family="Helvetica,sans-Serif" font-size="10.00">&#45;</text>
<text text-anchor="start" x="539" y="-478" font-family="Helvetica,sans-Serif" font-size="10.00">SafeLog()</text>
<text text-anchor="start" x="526" y="-463" font-family="Helvetica,sans-Serif" font-size="10.00">&#45;</text>
<text text-anchor="start" x="539" y="-463" font-family="Helvetica,sans-Serif" font-size="10.00">ComputeMedian()</text>
<polygon fill="#666666" stroke="#666666" points="517,-713 517,-713 663,-713 663,-713 517,-713"/>
<polygon fill="#666666" stroke="#666666" points="517,-593 517,-593 537,-593 537,-593 517,-593"/>
<polygon fill="#666666" stroke="#666666" points="537,-593 537,-593 663,-593 663,-593 537,-593"/>
<polygon fill="none" stroke="#666666" points="517,-456 517,-730 663,-730 663,-456 517,-456"/>
</a>
</g>
</g>
<!-- Node5&#45;&gt;Node1 -->
<g id="edge4_Node000001_Node000005" class="edge">
<title>Node5&#45;&gt;Node1</title>
<g id="a_edge4_Node000001_Node000005"><a xlink:title=" ">
<path fill="none" stroke="#63b8ff" d="M516.82,-469.81C513.87,-465.13 510.92,-460.52 508,-456 481.3,-414.66 451.14,-370.26 423.56,-330.48"/>
<polygon fill="none" stroke="#63b8ff" points="423.46,-330.33 416.75,-327.69 416.61,-320.48 423.32,-323.12 423.46,-330.33"/>
</a>
</g>
<text text-anchor="middle" x="539.5" y="-430" font-family="Helvetica,sans-Serif" font-size="10.00" fill="grey"> &#45;_earningsCalibrator</text>
</g>
</g>
</svg>

<g id="navigator" transform="translate(0 0)" fill="#404254">
  <rect fill="#f2f5e9" fill-opacity="0.5" stroke="#606060" stroke-width=".5" x="0" y="0" width="60" height="60"/>
  <use id="zoomplus" xlink:href="#zoomPlus" x="17" y="9" onmousedown="handleZoom(evt,'in')"/>
  <use id="zoomminus" xlink:href="#zoomMin" x="42" y="9" onmousedown="handleZoom(evt,'out')"/>
  <use id="reset" xlink:href="#resetDef" x="30" y="36" onmousedown="handleReset()"/>
   <use id="arrowup" xlink:href="#arrowUp" x="0" y="0" onmousedown="handlePan(0,-1)"/>
  <use id="arrowright" xlink:href="#arrowRight" x="0" y="0" onmousedown="handlePan(1,0)"/>
  <use id="arrowdown" xlink:href="#arrowDown" x="0" y="0" onmousedown="handlePan(0,1)"/>
  <use id="arrowleft" xlink:href="#arrowLeft" x="0" y="0" onmousedown="handlePan(-1,0)"/>
</g>
<svg viewBox="0 0 15 15" width="100%" height="30px" preserveAspectRatio="xMaxYMin meet">
 <g id="arrow_out" transform="scale(0.3 0.3)">
  <a xlink:href="classAlaris_1_1Strategy_1_1Core_1_1STCR001A__coll__graph_org.svg" target="_base">
   <rect id="button" ry="5" rx="5" y="6" x="6" height="38" width="38"
        fill="#f2f5e9" fill-opacity="0.5" stroke="#606060" stroke-width="1.0"/>
   <path id="arrow"
     d="M 11.500037,31.436501 C 11.940474,20.09759 22.043105,11.32322 32.158766,21.979434 L 37.068811,17.246167 C 37.068811,17.246167 37.088388,32 37.088388,32 L 22.160133,31.978069 C 22.160133,31.978069 26.997745,27.140456 26.997745,27.140456 C 18.528582,18.264221 13.291696,25.230495 11.500037,31.436501 z"
     style="fill:#404040;"/>
  </a>
 </g>
</svg>

<style type='text/css'>
<![CDATA[
[data-mouse-over-selected='false'] { opacity: 0.7; }
[data-mouse-over-selected='true']  { opacity: 1.0; }
]]>
</style>
<script type="application/ecmascript"><![CDATA[
document.addEventListener('DOMContentLoaded', (event) => {
  highlightEdges();
  highlightAdjacentNodes();
});
]]></script>
</svg>
