<?xml version="1.0" encoding="UTF-8" standalone="no"?>
<!DOCTYPE svg PUBLIC "-//W3C//DTD SVG 1.1//EN"
 "http://www.w3.org/Graphics/SVG/1.1/DTD/svg11.dtd">
<!-- Generated by graphviz version 2.43.0 (0)
 -->
<!-- Title: Alaris.Infrastructure.Data.Provider.Treasury.TreasuryDirectRateProvider Pages: 1 -->
<svg width="161pt" height="239pt"
 viewBox="0.00 0.00 161.00 239.00" xmlns="http://www.w3.org/2000/svg" xmlns:xlink="http://www.w3.org/1999/xlink">
<g id="graph0" class="graph" transform="scale(1 1) rotate(0) translate(4 235)">
<title>Alaris.Infrastructure.Data.Provider.Treasury.TreasuryDirectRateProvider</title>
<!-- Node1 -->
<g id="Node000001" class="node">
<title>Node1</title>
<g id="a_Node000001"><a xlink:title="Treasury Direct API risk&#45;free rate provider. Component ID: DTrf001A.">
<polygon fill="#999999" stroke="transparent" points="153,-131 0,-131 0,0 153,0 153,-131"/>
<text text-anchor="start" x="5.5" y="-118.5" font-family="Helvetica,sans-Serif" font-size="10.00">Alaris.Infrastructure.Data.</text>
<text text-anchor="start" x="5.5" y="-107.5" font-family="Helvetica,sans-Serif" font-size="10.00">Provider.Treasury.TreasuryDirect</text>
<text text-anchor="start" x="48" y="-96.5" font-family="Helvetica,sans-Serif" font-size="10.00">RateProvider</text>
<text text-anchor="start" x="7.5" y="-81.5" font-family="Helvetica,sans-Serif" font-size="10.00">&#45;</text>
<text text-anchor="start" x="18.5" y="-81.5" font-family="Helvetica,sans-Serif" font-size="10.00">_api</text>
<text text-anchor="start" x="7.5" y="-66.5" font-family="Helvetica,sans-Serif" font-size="10.00">&#45;</text>
<text text-anchor="start" x="18.5" y="-66.5" font-family="Helvetica,sans-Serif" font-size="10.00">_logger</text>
<text text-anchor="start" x="6" y="-51.5" font-family="Helvetica,sans-Serif" font-size="10.00">+</text>
<text text-anchor="start" x="18.5" y="-51.5" font-family="Helvetica,sans-Serif" font-size="10.00">TreasuryDirectRateProvider()</text>
<text text-anchor="start" x="6" y="-36.5" font-family="Helvetica,sans-Serif" font-size="10.00">+</text>
<text text-anchor="start" x="18.5" y="-36.5" font-family="Helvetica,sans-Serif" font-size="10.00">GetCurrentRateAsync()</text>
<text text-anchor="start" x="6" y="-21.5" font-family="Helvetica,sans-Serif" font-size="10.00">+</text>
<text text-anchor="start" x="18.5" y="-21.5" font-family="Helvetica,sans-Serif" font-size="10.00">GetHistoricalRatesAsync()</text>
<text text-anchor="start" x="7.5" y="-6.5" font-family="Helvetica,sans-Serif" font-size="10.00">&#45;</text>
<text text-anchor="start" x="18.5" y="-6.5" font-family="Helvetica,sans-Serif" font-size="10.00">ParseRate()</text>
<polygon fill="#666666" stroke="#666666" points="0.5,-91.5 0.5,-91.5 153.5,-91.5 153.5,-91.5 0.5,-91.5"/>
<polygon fill="#666666" stroke="#666666" points="0.5,-61.5 0.5,-61.5 16.5,-61.5 16.5,-61.5 0.5,-61.5"/>
<polygon fill="#666666" stroke="#666666" points="16.5,-61.5 16.5,-61.5 153.5,-61.5 153.5,-61.5 16.5,-61.5"/>
<polygon fill="none" stroke="#666666" points="0,0 0,-131 153,-131 153,0 0,0"/>
</a>
</g>
</g>
<!-- Node2 -->
<g id="Node000002" class="node">
<title>Node2</title>
<g id="a_Node000002"><a xlink:href="../../d0/d01/interfaceAlaris_1_1Infrastructure_1_1Data_1_1Provider_1_1DTpr005A.html" target="_top" xlink:title="Interface for risk&#45;free rate providers.">
<polygon fill="white" stroke="transparent" points="145,-231 8,-231 8,-167 145,-167 145,-231"/>
<text text-anchor="start" x="54.5" y="-219" font-family="Helvetica,sans-Serif" font-size="10.00">DTpr005A</text>
<text text-anchor="start" x="75" y="-204" font-family="Helvetica,sans-Serif" font-size="10.00"> </text>
<text text-anchor="start" x="12.5" y="-189" font-family="Helvetica,sans-Serif" font-size="10.00">+</text>
<text text-anchor="start" x="23.5" y="-189" font-family="Helvetica,sans-Serif" font-size="10.00">GetCurrentRateAsync()</text>
<text text-anchor="start" x="12.5" y="-174" font-family="Helvetica,sans-Serif" font-size="10.00">+</text>
<text text-anchor="start" x="23.5" y="-174" font-family="Helvetica,sans-Serif" font-size="10.00">GetHistoricalRatesAsync()</text>
<polygon fill="#666666" stroke="#666666" points="8.5,-214 8.5,-214 145.5,-214 145.5,-214 8.5,-214"/>
<polygon fill="#666666" stroke="#666666" points="8.5,-199 8.5,-199 145.5,-199 145.5,-199 8.5,-199"/>
<polygon fill="none" stroke="#666666" points="8,-167 8,-231 145,-231 145,-167 8,-167"/>
</a>
</g>
</g>
<!-- Node2&#45;&gt;Node1 -->
<g id="edge1_Node000001_Node000002" class="edge">
<title>Node2&#45;&gt;Node1</title>
<g id="a_edge1_Node000001_Node000002"><a xlink:title=" ">
<path fill="none" stroke="#63b8ff" d="M76.5,-156.82C76.5,-148.62 76.5,-139.83 76.5,-131.07"/>
<polygon fill="none" stroke="#63b8ff" points="73,-156.84 76.5,-166.84 80,-156.84 73,-156.84"/>
</a>
</g>
</g>
</g>
</svg>
