<?xml version="1.0" encoding="UTF-8" standalone="no"?>
<!DOCTYPE svg PUBLIC "-//W3C//DTD SVG 1.1//EN"
 "http://www.w3.org/Graphics/SVG/1.1/DTD/svg11.dtd">
<!-- Generated by graphviz version 2.43.0 (0)
 -->
<!-- Title: Alaris.Infrastructure.Data.Provider.Polygon.PolygonApiClient Pages: 1 -->
<svg width="340pt" height="381pt"
 viewBox="0.00 0.00 339.50 381.00" xmlns="http://www.w3.org/2000/svg" xmlns:xlink="http://www.w3.org/1999/xlink">
<g id="graph0" class="graph" transform="scale(1 1) rotate(0) translate(4 377)">
<title>Alaris.Infrastructure.Data.Provider.Polygon.PolygonApiClient</title>
<!-- Node1 -->
<g id="Node000001" class="node">
<title>Node1</title>
<g id="a_Node000001"><a xlink:title="Polygon.io REST API client for market data retrieval. Component ID: DTpr001A.">
<polygon fill="#999999" stroke="transparent" points="254,-221 87,-221 87,0 254,0 254,-221"/>
<text text-anchor="start" x="95" y="-208.5" font-family="Helvetica,sans-Serif" font-size="10.00">Alaris.Infrastructure.Data.</text>
<text text-anchor="start" x="95" y="-197.5" font-family="Helvetica,sans-Serif" font-size="10.00">Provider.Polygon.PolygonApiClient</text>
<text text-anchor="start" x="93" y="-182.5" font-family="Helvetica,sans-Serif" font-size="10.00">&#45;</text>
<text text-anchor="start" x="102.5" y="-182.5" font-family="Helvetica,sans-Serif" font-size="10.00">_logger</text>
<text text-anchor="start" x="93" y="-167.5" font-family="Helvetica,sans-Serif" font-size="10.00">&#45;</text>
<text text-anchor="start" x="102.5" y="-167.5" font-family="Helvetica,sans-Serif" font-size="10.00">_apiKey</text>
<text text-anchor="start" x="93" y="-152.5" font-family="Helvetica,sans-Serif" font-size="10.00">&#45;</text>
<text text-anchor="start" x="102.5" y="-152.5" font-family="Helvetica,sans-Serif" font-size="10.00">underlying</text>
<text text-anchor="start" x="93" y="-137.5" font-family="Helvetica,sans-Serif" font-size="10.00">&#45;</text>
<text text-anchor="start" x="102.5" y="-137.5" font-family="Helvetica,sans-Serif" font-size="10.00">strike</text>
<text text-anchor="start" x="93" y="-122.5" font-family="Helvetica,sans-Serif" font-size="10.00">&#45;</text>
<text text-anchor="start" x="102.5" y="-122.5" font-family="Helvetica,sans-Serif" font-size="10.00">expiration</text>
<text text-anchor="start" x="91.5" y="-107.5" font-family="Helvetica,sans-Serif" font-size="10.00">+</text>
<text text-anchor="start" x="102.5" y="-107.5" font-family="Helvetica,sans-Serif" font-size="10.00">PolygonApiClient()</text>
<text text-anchor="start" x="91.5" y="-92.5" font-family="Helvetica,sans-Serif" font-size="10.00">+</text>
<text text-anchor="start" x="102.5" y="-92.5" font-family="Helvetica,sans-Serif" font-size="10.00">GetHistoricalBarsAsync()</text>
<text text-anchor="start" x="91.5" y="-77.5" font-family="Helvetica,sans-Serif" font-size="10.00">+</text>
<text text-anchor="start" x="102.5" y="-77.5" font-family="Helvetica,sans-Serif" font-size="10.00">GetOptionChainAsync()</text>
<text text-anchor="start" x="91.5" y="-62.5" font-family="Helvetica,sans-Serif" font-size="10.00">+</text>
<text text-anchor="start" x="102.5" y="-62.5" font-family="Helvetica,sans-Serif" font-size="10.00">GetHistoricalOptionChain</text>
<text text-anchor="start" x="102.5" y="-51.5" font-family="Helvetica,sans-Serif" font-size="10.00">Async()</text>
<text text-anchor="start" x="91.5" y="-36.5" font-family="Helvetica,sans-Serif" font-size="10.00">+</text>
<text text-anchor="start" x="102.5" y="-36.5" font-family="Helvetica,sans-Serif" font-size="10.00">GetSpotPriceAsync()</text>
<text text-anchor="start" x="91.5" y="-21.5" font-family="Helvetica,sans-Serif" font-size="10.00">+</text>
<text text-anchor="start" x="102.5" y="-21.5" font-family="Helvetica,sans-Serif" font-size="10.00">GetAverageVolume30DayAsync()</text>
<text text-anchor="start" x="93" y="-6.5" font-family="Helvetica,sans-Serif" font-size="10.00">&#45;</text>
<text text-anchor="start" x="102.5" y="-6.5" font-family="Helvetica,sans-Serif" font-size="10.00">ParseOptionTicker()</text>
<polygon fill="#666666" stroke="#666666" points="87.5,-192.5 87.5,-192.5 254.5,-192.5 254.5,-192.5 87.5,-192.5"/>
<polygon fill="#666666" stroke="#666666" points="87.5,-117.5 87.5,-117.5 100.5,-117.5 100.5,-117.5 87.5,-117.5"/>
<polygon fill="#666666" stroke="#666666" points="100.5,-117.5 100.5,-117.5 254.5,-117.5 254.5,-117.5 100.5,-117.5"/>
<polygon fill="none" stroke="#666666" points="87,0 87,-221 254,-221 254,0 87,0"/>
</a>
</g>
</g>
<!-- Node2 -->
<g id="Node000002" class="node">
<title>Node2</title>
<g id="a_Node000002"><a xlink:href="../../d4/d02/interfaceAlaris_1_1Infrastructure_1_1Data_1_1Provider_1_1DTpr003A.html" target="_top" xlink:title="Interface for market data providers (Polygon, IBKR, etc.).">
<polygon fill="white" stroke="transparent" points="167,-367.5 0,-367.5 0,-273.5 167,-273.5 167,-367.5"/>
<text text-anchor="start" x="61.5" y="-355.5" font-family="Helvetica,sans-Serif" font-size="10.00">DTpr003A</text>
<text text-anchor="start" x="82" y="-340.5" font-family="Helvetica,sans-Serif" font-size="10.00"> </text>
<text text-anchor="start" x="4.5" y="-325.5" font-family="Helvetica,sans-Serif" font-size="10.00">+</text>
<text text-anchor="start" x="15.5" y="-325.5" font-family="Helvetica,sans-Serif" font-size="10.00">GetHistoricalBarsAsync()</text>
<text text-anchor="start" x="4.5" y="-310.5" font-family="Helvetica,sans-Serif" font-size="10.00">+</text>
<text text-anchor="start" x="15.5" y="-310.5" font-family="Helvetica,sans-Serif" font-size="10.00">GetOptionChainAsync()</text>
<text text-anchor="start" x="4.5" y="-295.5" font-family="Helvetica,sans-Serif" font-size="10.00">+</text>
<text text-anchor="start" x="15.5" y="-295.5" font-family="Helvetica,sans-Serif" font-size="10.00">GetSpotPriceAsync()</text>
<text text-anchor="start" x="4.5" y="-280.5" font-family="Helvetica,sans-Serif" font-size="10.00">+</text>
<text text-anchor="start" x="15.5" y="-280.5" font-family="Helvetica,sans-Serif" font-size="10.00">GetAverageVolume30DayAsync()</text>
<polygon fill="#666666" stroke="#666666" points="0.5,-350.5 0.5,-350.5 167.5,-350.5 167.5,-350.5 0.5,-350.5"/>
<polygon fill="#666666" stroke="#666666" points="0.5,-335.5 0.5,-335.5 167.5,-335.5 167.5,-335.5 0.5,-335.5"/>
<polygon fill="none" stroke="#666666" points="0,-273.5 0,-367.5 167,-367.5 167,-273.5 0,-273.5"/>
</a>
</g>
</g>
<!-- Node2&#45;&gt;Node1 -->
<g id="edge1_Node000001_Node000002" class="edge">
<title>Node2&#45;&gt;Node1</title>
<g id="a_edge1_Node000001_Node000002"><a xlink:title=" ">
<path fill="none" stroke="#63b8ff" d="M106.74,-263.95C112.28,-250.7 118.38,-236.11 124.55,-221.35"/>
<polygon fill="none" stroke="#63b8ff" points="103.44,-262.76 102.81,-273.34 109.9,-265.46 103.44,-262.76"/>
</a>
</g>
</g>
<!-- Node3 -->
<g id="Node000003" class="node">
<title>Node3</title>
<g id="a_Node000003"><a xlink:href="../../dc/d00/interfaceAlaris_1_1Infrastructure_1_1Data_1_1Http_1_1Contracts_1_1IPolygonApi.html" target="_top" xlink:title="Polygon.io REST API contract. Component ID: DTAP001A.">
<polygon fill="white" stroke="transparent" points="331.5,-373 185.5,-373 185.5,-268 331.5,-268 331.5,-373"/>
<text text-anchor="start" x="198" y="-360.5" font-family="Helvetica,sans-Serif" font-size="10.00">Alaris.Infrastructure.Data.</text>
<text text-anchor="start" x="198" y="-349.5" font-family="Helvetica,sans-Serif" font-size="10.00">Http.Contracts.IPolygonApi</text>
<text text-anchor="start" x="256.5" y="-334.5" font-family="Helvetica,sans-Serif" font-size="10.00"> </text>
<text text-anchor="start" x="189.5" y="-319.5" font-family="Helvetica,sans-Serif" font-size="10.00">+</text>
<text text-anchor="start" x="200.5" y="-319.5" font-family="Helvetica,sans-Serif" font-size="10.00">GetDailyBarsAsync()</text>
<text text-anchor="start" x="189.5" y="-304.5" font-family="Helvetica,sans-Serif" font-size="10.00">+</text>
<text text-anchor="start" x="200.5" y="-304.5" font-family="Helvetica,sans-Serif" font-size="10.00">GetPreviousDayAsync()</text>
<text text-anchor="start" x="189.5" y="-289.5" font-family="Helvetica,sans-Serif" font-size="10.00">+</text>
<text text-anchor="start" x="200.5" y="-289.5" font-family="Helvetica,sans-Serif" font-size="10.00">GetOptionsContractsAsync()</text>
<text text-anchor="start" x="189.5" y="-274.5" font-family="Helvetica,sans-Serif" font-size="10.00">+</text>
<text text-anchor="start" x="200.5" y="-274.5" font-family="Helvetica,sans-Serif" font-size="10.00">GetTickerAggregatesAsync()</text>
<polygon fill="#666666" stroke="#666666" points="185.5,-344.5 185.5,-344.5 331.5,-344.5 331.5,-344.5 185.5,-344.5"/>
<polygon fill="#666666" stroke="#666666" points="185.5,-329.5 185.5,-329.5 331.5,-329.5 331.5,-329.5 185.5,-329.5"/>
<polygon fill="none" stroke="#666666" points="185.5,-268 185.5,-373 331.5,-373 331.5,-268 185.5,-268"/>
</a>
</g>
</g>
<!-- Node3&#45;&gt;Node1 -->
<g id="edge2_Node000001_Node000003" class="edge">
<title>Node3&#45;&gt;Node1</title>
<g id="a_edge2_Node000001_Node000003"><a xlink:title=" ">
<path fill="none" stroke="#63b8ff" d="M236.63,-267.82C232,-256.86 226.92,-244.84 221.69,-232.51"/>
<polygon fill="none" stroke="#63b8ff" points="221.55,-232.15 215.52,-228.19 216.87,-221.1 222.89,-225.07 221.55,-232.15"/>
</a>
</g>
<text text-anchor="middle" x="240" y="-242" font-family="Helvetica,sans-Serif" font-size="10.00" fill="grey"> &#45;_api</text>
</g>
</g>
</svg>
