<?xml version="1.0" encoding="UTF-8" standalone="no"?>
<!DOCTYPE svg PUBLIC "-//W3C//DTD SVG 1.1//EN"
 "http://www.w3.org/Graphics/SVG/1.1/DTD/svg11.dtd">
<!-- Generated by graphviz version 2.43.0 (0)
 -->
<!-- Title: Alaris.Host.Application.Command.BacktestDeleteCommand Pages: 1 -->
<svg width="179pt" height="164pt"
 viewBox="0.00 0.00 179.00 164.00" xmlns="http://www.w3.org/2000/svg" xmlns:xlink="http://www.w3.org/1999/xlink">
<g id="graph0" class="graph" transform="scale(1 1) rotate(0) translate(4 160)">
<title>Alaris.Host.Application.Command.BacktestDeleteCommand</title>
<!-- Node1 -->
<g id="Node000001" class="node">
<title>Node1</title>
<g id="a_Node000001"><a xlink:title="Deletes a backtest session and all its data.">
<polygon fill="#999999" stroke="transparent" points="171,-60 0,-60 0,0 171,0 171,-60"/>
<text text-anchor="start" x="5.5" y="-48" font-family="Helvetica,sans-Serif" font-size="10.00">Alaris.Host.Application.</text>
<text text-anchor="start" x="5.5" y="-37" font-family="Helvetica,sans-Serif" font-size="10.00">Command.BacktestDeleteCommand</text>
<text text-anchor="start" x="84" y="-22" font-family="Helvetica,sans-Serif" font-size="10.00"> </text>
<text text-anchor="start" x="25" y="-7" font-family="Helvetica,sans-Serif" font-size="10.00">+</text>
<text text-anchor="start" x="56.5" y="-7" font-family="Helvetica,sans-Serif" font-size="10.00">ExecuteAsync()</text>
<polygon fill="#666666" stroke="#666666" points="0.5,-32 0.5,-32 171.5,-32 171.5,-32 0.5,-32"/>
<polygon fill="#666666" stroke="#666666" points="0.5,-17 0.5,-17 171.5,-17 171.5,-17 0.5,-17"/>
<polygon fill="none" stroke="#666666" points="0,0 0,-60 171,-60 171,0 0,0"/>
</a>
</g>
</g>
<!-- Node2 -->
<g id="Node000002" class="node">
<title>Node2</title>
<g id="a_Node000002"><a xlink:title=" ">
<polygon fill="white" stroke="transparent" points="165.5,-156 5.5,-156 5.5,-96 165.5,-96 165.5,-156"/>
<text text-anchor="start" x="10.5" y="-144" font-family="Helvetica,sans-Serif" font-size="10.00">AsyncCommand&lt; BacktestDelete</text>
<text text-anchor="start" x="62.5" y="-133" font-family="Helvetica,sans-Serif" font-size="10.00">Settings &gt;</text>
<text text-anchor="start" x="83.5" y="-118" font-family="Helvetica,sans-Serif" font-size="10.00"> </text>
<text text-anchor="start" x="83.5" y="-103" font-family="Helvetica,sans-Serif" font-size="10.00"> </text>
<polygon fill="#666666" stroke="#666666" points="5.5,-128 5.5,-128 165.5,-128 165.5,-128 5.5,-128"/>
<polygon fill="#666666" stroke="#666666" points="5.5,-113 5.5,-113 165.5,-113 165.5,-113 5.5,-113"/>
<polygon fill="none" stroke="#666666" points="5.5,-96 5.5,-156 165.5,-156 165.5,-96 5.5,-96"/>
</a>
</g>
</g>
<!-- Node2&#45;&gt;Node1 -->
<g id="edge1_Node000001_Node000002" class="edge">
<title>Node2&#45;&gt;Node1</title>
<g id="a_edge1_Node000001_Node000002"><a xlink:title=" ">
<path fill="none" stroke="#63b8ff" d="M85.5,-85.63C85.5,-77.11 85.5,-68.25 85.5,-60.21"/>
<polygon fill="none" stroke="#63b8ff" points="82,-85.77 85.5,-95.77 89,-85.77 82,-85.77"/>
</a>
</g>
</g>
</g>
</svg>
