<?xml version="1.0" encoding="UTF-8" standalone="no"?>
<!DOCTYPE svg PUBLIC "-//W3C//DTD SVG 1.1//EN"
 "http://www.w3.org/Graphics/SVG/1.1/DTD/svg11.dtd">
<!-- Generated by graphviz version 2.43.0 (0)
 -->
<!-- Title: Alaris.Strategy.Core.STIV001A Pages: 1 -->
<svg width="184pt" height="535pt"
 viewBox="0.00 0.00 184.00 535.00" xmlns="http://www.w3.org/2000/svg" xmlns:xlink="http://www.w3.org/1999/xlink">
<g id="graph0" class="graph" transform="scale(1 1) rotate(0) translate(4 531)">
<title>Alaris.Strategy.Core.STIV001A</title>
<!-- Node1 -->
<g id="Node000001" class="node">
<title>Node1</title>
<g id="a_Node000001"><a xlink:title="Implements the Heston (1993) stochastic volatility model for implied volatility. Stock price dynamics...">
<polygon fill="#999999" stroke="transparent" points="176,-255 0,-255 0,0 176,0 176,-255"/>
<text text-anchor="start" x="20" y="-242.5" font-family="Helvetica,sans-Serif" font-size="10.00">Alaris.Strategy.Core.STIV001A</text>
<text text-anchor="start" x="4" y="-227.5" font-family="Helvetica,sans-Serif" font-size="10.00">+</text>
<text text-anchor="start" x="15" y="-227.5" font-family="Helvetica,sans-Serif" font-size="10.00">DTE</text>
<text text-anchor="start" x="4" y="-212.5" font-family="Helvetica,sans-Serif" font-size="10.00">+</text>
<text text-anchor="start" x="15" y="-212.5" font-family="Helvetica,sans-Serif" font-size="10.00">Strike</text>
<text text-anchor="start" x="4" y="-197.5" font-family="Helvetica,sans-Serif" font-size="10.00">+</text>
<text text-anchor="start" x="15" y="-197.5" font-family="Helvetica,sans-Serif" font-size="10.00">STIV001A()</text>
<text text-anchor="start" x="4" y="-182.5" font-family="Helvetica,sans-Serif" font-size="10.00">+</text>
<text text-anchor="start" x="15" y="-182.5" font-family="Helvetica,sans-Serif" font-size="10.00">ComputeTheoreticalIV()</text>
<text text-anchor="start" x="4" y="-167.5" font-family="Helvetica,sans-Serif" font-size="10.00">+</text>
<text text-anchor="start" x="15" y="-167.5" font-family="Helvetica,sans-Serif" font-size="10.00">ComputeTheoreticalIVApproximate()</text>
<text text-anchor="start" x="4" y="-152.5" font-family="Helvetica,sans-Serif" font-size="10.00">+</text>
<text text-anchor="start" x="15" y="-152.5" font-family="Helvetica,sans-Serif" font-size="10.00">CharacteristicFunction()</text>
<text text-anchor="start" x="4" y="-137.5" font-family="Helvetica,sans-Serif" font-size="10.00">+</text>
<text text-anchor="start" x="15" y="-137.5" font-family="Helvetica,sans-Serif" font-size="10.00">ComputeSTTM001A()</text>
<text text-anchor="start" x="4" y="-122.5" font-family="Helvetica,sans-Serif" font-size="10.00">+</text>
<text text-anchor="start" x="15" y="-122.5" font-family="Helvetica,sans-Serif" font-size="10.00">ComputeSmile()</text>
<text text-anchor="start" x="4" y="-107.5" font-family="Helvetica,sans-Serif" font-size="10.00">+</text>
<text text-anchor="start" x="15" y="-107.5" font-family="Helvetica,sans-Serif" font-size="10.00">Calibrate()</text>
<text text-anchor="start" x="5.5" y="-92.5" font-family="Helvetica,sans-Serif" font-size="10.00">&#45;</text>
<text text-anchor="start" x="15" y="-92.5" font-family="Helvetica,sans-Serif" font-size="10.00">ComputeExpectedIntegrated</text>
<text text-anchor="start" x="15" y="-81.5" font-family="Helvetica,sans-Serif" font-size="10.00">Variance()</text>
<text text-anchor="start" x="5.5" y="-66.5" font-family="Helvetica,sans-Serif" font-size="10.00">&#45;</text>
<text text-anchor="start" x="15" y="-66.5" font-family="Helvetica,sans-Serif" font-size="10.00">ComputeSkewAdjustment()</text>
<text text-anchor="start" x="5.5" y="-51.5" font-family="Helvetica,sans-Serif" font-size="10.00">&#45;</text>
<text text-anchor="start" x="15" y="-51.5" font-family="Helvetica,sans-Serif" font-size="10.00">ComputeSmileAdjustment()</text>
<text text-anchor="start" x="5.5" y="-36.5" font-family="Helvetica,sans-Serif" font-size="10.00">&#45;</text>
<text text-anchor="start" x="15" y="-36.5" font-family="Helvetica,sans-Serif" font-size="10.00">CalibrateGridSearch()</text>
<text text-anchor="start" x="5.5" y="-21.5" font-family="Helvetica,sans-Serif" font-size="10.00">&#45;</text>
<text text-anchor="start" x="15" y="-21.5" font-family="Helvetica,sans-Serif" font-size="10.00">ComputeCalibrationError()</text>
<text text-anchor="start" x="5.5" y="-6.5" font-family="Helvetica,sans-Serif" font-size="10.00">&#45;</text>
<text text-anchor="start" x="15" y="-6.5" font-family="Helvetica,sans-Serif" font-size="10.00">ValidateInputs()</text>
<polygon fill="#666666" stroke="#666666" points="0,-237.5 0,-237.5 176,-237.5 176,-237.5 0,-237.5"/>
<polygon fill="#666666" stroke="#666666" points="0,-207.5 0,-207.5 13,-207.5 13,-207.5 0,-207.5"/>
<polygon fill="#666666" stroke="#666666" points="13,-207.5 13,-207.5 176,-207.5 176,-207.5 13,-207.5"/>
<polygon fill="none" stroke="#666666" points="0,0 0,-255 176,-255 176,0 0,0"/>
</a>
</g>
</g>
<!-- Node2 -->
<g id="Node000002" class="node">
<title>Node2</title>
<g id="a_Node000002"><a xlink:href="../../d1/d03/classAlaris_1_1Strategy_1_1Core_1_1HestonParameters.html" target="_top" xlink:title="Heston model parameters.">
<polygon fill="white" stroke="transparent" points="154,-527 22,-527 22,-302 154,-302 154,-527"/>
<text text-anchor="start" x="27" y="-514.5" font-family="Helvetica,sans-Serif" font-size="10.00">Alaris.Strategy.Core.Heston</text>
<text text-anchor="start" x="62.5" y="-503.5" font-family="Helvetica,sans-Serif" font-size="10.00">Parameters</text>
<text text-anchor="start" x="26.5" y="-488.5" font-family="Helvetica,sans-Serif" font-size="10.00">+</text>
<text text-anchor="start" x="38" y="-488.5" font-family="Helvetica,sans-Serif" font-size="10.00">V0</text>
<text text-anchor="start" x="26.5" y="-473.5" font-family="Helvetica,sans-Serif" font-size="10.00">+</text>
<text text-anchor="start" x="38" y="-473.5" font-family="Helvetica,sans-Serif" font-size="10.00">Theta</text>
<text text-anchor="start" x="26.5" y="-458.5" font-family="Helvetica,sans-Serif" font-size="10.00">+</text>
<text text-anchor="start" x="38" y="-458.5" font-family="Helvetica,sans-Serif" font-size="10.00">Kappa</text>
<text text-anchor="start" x="26.5" y="-443.5" font-family="Helvetica,sans-Serif" font-size="10.00">+</text>
<text text-anchor="start" x="38" y="-443.5" font-family="Helvetica,sans-Serif" font-size="10.00">SigmaV</text>
<text text-anchor="start" x="26.5" y="-428.5" font-family="Helvetica,sans-Serif" font-size="10.00">+</text>
<text text-anchor="start" x="38" y="-428.5" font-family="Helvetica,sans-Serif" font-size="10.00">Rho</text>
<text text-anchor="start" x="26.5" y="-413.5" font-family="Helvetica,sans-Serif" font-size="10.00">+</text>
<text text-anchor="start" x="38" y="-413.5" font-family="Helvetica,sans-Serif" font-size="10.00">RiskFreeRate</text>
<text text-anchor="start" x="26.5" y="-398.5" font-family="Helvetica,sans-Serif" font-size="10.00">+</text>
<text text-anchor="start" x="38" y="-398.5" font-family="Helvetica,sans-Serif" font-size="10.00">DividendYield</text>
<text text-anchor="start" x="26.5" y="-383.5" font-family="Helvetica,sans-Serif" font-size="10.00">+</text>
<text text-anchor="start" x="38" y="-383.5" font-family="Helvetica,sans-Serif" font-size="10.00">DefaultEquity</text>
<text text-anchor="start" x="26.5" y="-368.5" font-family="Helvetica,sans-Serif" font-size="10.00">+</text>
<text text-anchor="start" x="38" y="-368.5" font-family="Helvetica,sans-Serif" font-size="10.00">HighVolRegime</text>
<text text-anchor="start" x="26.5" y="-353.5" font-family="Helvetica,sans-Serif" font-size="10.00">+</text>
<text text-anchor="start" x="38" y="-353.5" font-family="Helvetica,sans-Serif" font-size="10.00">Validate()</text>
<text text-anchor="start" x="26.5" y="-338.5" font-family="Helvetica,sans-Serif" font-size="10.00">+</text>
<text text-anchor="start" x="38" y="-338.5" font-family="Helvetica,sans-Serif" font-size="10.00">SatisfiesFellerCondition()</text>
<text text-anchor="start" x="26.5" y="-323.5" font-family="Helvetica,sans-Serif" font-size="10.00">+</text>
<text text-anchor="start" x="38" y="-323.5" font-family="Helvetica,sans-Serif" font-size="10.00">ExpectedVariance()</text>
<text text-anchor="start" x="26.5" y="-308.5" font-family="Helvetica,sans-Serif" font-size="10.00">+</text>
<text text-anchor="start" x="38" y="-308.5" font-family="Helvetica,sans-Serif" font-size="10.00">VarianceOfVariance()</text>
<polygon fill="#666666" stroke="#666666" points="22,-498.5 22,-498.5 154,-498.5 154,-498.5 22,-498.5"/>
<polygon fill="#666666" stroke="#666666" points="22,-363.5 22,-363.5 36,-363.5 36,-363.5 22,-363.5"/>
<polygon fill="#666666" stroke="#666666" points="36,-363.5 36,-363.5 154,-363.5 154,-363.5 36,-363.5"/>
<polygon fill="none" stroke="#666666" points="22,-302 22,-527 154,-527 154,-302 22,-302"/>
</a>
</g>
</g>
<!-- Node2&#45;&gt;Node1 -->
<g id="edge1_Node000001_Node000002" class="edge">
<title>Node2&#45;&gt;Node1</title>
<g id="a_edge1_Node000001_Node000002"><a xlink:title=" ">
<path fill="none" stroke="#63b8ff" d="M88,-301.68C88,-290.34 88,-278.72 88,-267.14"/>
<polygon fill="none" stroke="#63b8ff" points="88,-267.1 84,-261.1 88,-255.1 92,-261.1 88,-267.1"/>
</a>
</g>
<text text-anchor="middle" x="110" y="-276" font-family="Helvetica,sans-Serif" font-size="10.00" fill="grey"> &#45;_params</text>
</g>
</g>
</svg>
