<?xml version="1.0" encoding="UTF-8" standalone="no"?>
<!DOCTYPE svg PUBLIC "-//W3C//DTD SVG 1.1//EN"
 "http://www.w3.org/Graphics/SVG/1.1/DTD/svg11.dtd">
<!-- Generated by graphviz version 2.43.0 (0)
 -->
<!-- Title: Alaris.Core.Options.DividendSchedule Pages: 1 -->
<svg width="203pt" height="505pt"
 viewBox="0.00 0.00 203.00 505.00" xmlns="http://www.w3.org/2000/svg" xmlns:xlink="http://www.w3.org/1999/xlink">
<g id="graph0" class="graph" transform="scale(1 1) rotate(0) translate(4 501)">
<title>Alaris.Core.Options.DividendSchedule</title>
<!-- Node1 -->
<g id="Node000001" class="node">
<title>Node1</title>
<g id="a_Node000001"><a xlink:title="Immutable schedule of discrete cash dividends for option pricing.">
<polygon fill="#999999" stroke="transparent" points="139,-225 0,-225 0,0 139,0 139,-225"/>
<text text-anchor="start" x="6.5" y="-212.5" font-family="Helvetica,sans-Serif" font-size="10.00">Alaris.Core.Options.Dividend</text>
<text text-anchor="start" x="49.5" y="-201.5" font-family="Helvetica,sans-Serif" font-size="10.00">Schedule</text>
<text text-anchor="start" x="4.5" y="-186.5" font-family="Helvetica,sans-Serif" font-size="10.00">+</text>
<text text-anchor="start" x="15.5" y="-186.5" font-family="Helvetica,sans-Serif" font-size="10.00">TimeYears</text>
<text text-anchor="start" x="4.5" y="-171.5" font-family="Helvetica,sans-Serif" font-size="10.00">+</text>
<text text-anchor="start" x="15.5" y="-171.5" font-family="Helvetica,sans-Serif" font-size="10.00">Dividends</text>
<text text-anchor="start" x="4.5" y="-156.5" font-family="Helvetica,sans-Serif" font-size="10.00">+</text>
<text text-anchor="start" x="15.5" y="-156.5" font-family="Helvetica,sans-Serif" font-size="10.00">Count</text>
<text text-anchor="start" x="4.5" y="-141.5" font-family="Helvetica,sans-Serif" font-size="10.00">+</text>
<text text-anchor="start" x="15.5" y="-141.5" font-family="Helvetica,sans-Serif" font-size="10.00">HasDividends</text>
<text text-anchor="start" x="6" y="-126.5" font-family="Helvetica,sans-Serif" font-size="10.00">&#45;</text>
<text text-anchor="start" x="15.5" y="-126.5" font-family="Helvetica,sans-Serif" font-size="10.00">_dividends</text>
<text text-anchor="start" x="4.5" y="-111.5" font-family="Helvetica,sans-Serif" font-size="10.00">+</text>
<text text-anchor="start" x="15.5" y="-111.5" font-family="Helvetica,sans-Serif" font-size="10.00">DividendSchedule()</text>
<text text-anchor="start" x="4.5" y="-96.5" font-family="Helvetica,sans-Serif" font-size="10.00">+</text>
<text text-anchor="start" x="15.5" y="-96.5" font-family="Helvetica,sans-Serif" font-size="10.00">DividendSchedule()</text>
<text text-anchor="start" x="4.5" y="-81.5" font-family="Helvetica,sans-Serif" font-size="10.00">+</text>
<text text-anchor="start" x="15.5" y="-81.5" font-family="Helvetica,sans-Serif" font-size="10.00">GetDividendsBetween()</text>
<text text-anchor="start" x="4.5" y="-66.5" font-family="Helvetica,sans-Serif" font-size="10.00">+</text>
<text text-anchor="start" x="15.5" y="-66.5" font-family="Helvetica,sans-Serif" font-size="10.00">ComputePresentValue()</text>
<text text-anchor="start" x="4.5" y="-51.5" font-family="Helvetica,sans-Serif" font-size="10.00">+</text>
<text text-anchor="start" x="15.5" y="-51.5" font-family="Helvetica,sans-Serif" font-size="10.00">AdjustSpotForDividends()</text>
<text text-anchor="start" x="4.5" y="-36.5" font-family="Helvetica,sans-Serif" font-size="10.00">+</text>
<text text-anchor="start" x="15.5" y="-36.5" font-family="Helvetica,sans-Serif" font-size="10.00">GetDividendTimesForGrid()</text>
<text text-anchor="start" x="4.5" y="-21.5" font-family="Helvetica,sans-Serif" font-size="10.00">+</text>
<text text-anchor="start" x="15.5" y="-21.5" font-family="Helvetica,sans-Serif" font-size="10.00">Add()</text>
<text text-anchor="start" x="4.5" y="-6.5" font-family="Helvetica,sans-Serif" font-size="10.00">+</text>
<text text-anchor="start" x="15.5" y="-6.5" font-family="Helvetica,sans-Serif" font-size="10.00">FromContinuousYield()</text>
<polygon fill="#666666" stroke="#666666" points="0.5,-196.5 0.5,-196.5 139.5,-196.5 139.5,-196.5 0.5,-196.5"/>
<polygon fill="#666666" stroke="#666666" points="0.5,-121.5 0.5,-121.5 13.5,-121.5 13.5,-121.5 0.5,-121.5"/>
<polygon fill="#666666" stroke="#666666" points="13.5,-121.5 13.5,-121.5 139.5,-121.5 139.5,-121.5 13.5,-121.5"/>
<polygon fill="none" stroke="#666666" points="0,0 0,-225 139,-225 139,0 0,0"/>
</a>
</g>
</g>
<!-- Node2 -->
<g id="Node000002" class="node">
<title>Node2</title>
<g id="a_Node000002"><a xlink:href="../../d0/d00/classAlaris_1_1Core_1_1Options_1_1DividendSchedule.html" target="_top" xlink:title="Immutable schedule of discrete cash dividends for option pricing.">
<polygon fill="white" stroke="transparent" points="139,-497 0,-497 0,-272 139,-272 139,-497"/>
<text text-anchor="start" x="6.5" y="-484.5" font-family="Helvetica,sans-Serif" font-size="10.00">Alaris.Core.Options.Dividend</text>
<text text-anchor="start" x="49.5" y="-473.5" font-family="Helvetica,sans-Serif" font-size="10.00">Schedule</text>
<text text-anchor="start" x="4.5" y="-458.5" font-family="Helvetica,sans-Serif" font-size="10.00">+</text>
<text text-anchor="start" x="15.5" y="-458.5" font-family="Helvetica,sans-Serif" font-size="10.00">TimeYears</text>
<text text-anchor="start" x="4.5" y="-443.5" font-family="Helvetica,sans-Serif" font-size="10.00">+</text>
<text text-anchor="start" x="15.5" y="-443.5" font-family="Helvetica,sans-Serif" font-size="10.00">Dividends</text>
<text text-anchor="start" x="4.5" y="-428.5" font-family="Helvetica,sans-Serif" font-size="10.00">+</text>
<text text-anchor="start" x="15.5" y="-428.5" font-family="Helvetica,sans-Serif" font-size="10.00">Count</text>
<text text-anchor="start" x="4.5" y="-413.5" font-family="Helvetica,sans-Serif" font-size="10.00">+</text>
<text text-anchor="start" x="15.5" y="-413.5" font-family="Helvetica,sans-Serif" font-size="10.00">HasDividends</text>
<text text-anchor="start" x="6" y="-398.5" font-family="Helvetica,sans-Serif" font-size="10.00">&#45;</text>
<text text-anchor="start" x="15.5" y="-398.5" font-family="Helvetica,sans-Serif" font-size="10.00">_dividends</text>
<text text-anchor="start" x="4.5" y="-383.5" font-family="Helvetica,sans-Serif" font-size="10.00">+</text>
<text text-anchor="start" x="15.5" y="-383.5" font-family="Helvetica,sans-Serif" font-size="10.00">DividendSchedule()</text>
<text text-anchor="start" x="4.5" y="-368.5" font-family="Helvetica,sans-Serif" font-size="10.00">+</text>
<text text-anchor="start" x="15.5" y="-368.5" font-family="Helvetica,sans-Serif" font-size="10.00">DividendSchedule()</text>
<text text-anchor="start" x="4.5" y="-353.5" font-family="Helvetica,sans-Serif" font-size="10.00">+</text>
<text text-anchor="start" x="15.5" y="-353.5" font-family="Helvetica,sans-Serif" font-size="10.00">GetDividendsBetween()</text>
<text text-anchor="start" x="4.5" y="-338.5" font-family="Helvetica,sans-Serif" font-size="10.00">+</text>
<text text-anchor="start" x="15.5" y="-338.5" font-family="Helvetica,sans-Serif" font-size="10.00">ComputePresentValue()</text>
<text text-anchor="start" x="4.5" y="-323.5" font-family="Helvetica,sans-Serif" font-size="10.00">+</text>
<text text-anchor="start" x="15.5" y="-323.5" font-family="Helvetica,sans-Serif" font-size="10.00">AdjustSpotForDividends()</text>
<text text-anchor="start" x="4.5" y="-308.5" font-family="Helvetica,sans-Serif" font-size="10.00">+</text>
<text text-anchor="start" x="15.5" y="-308.5" font-family="Helvetica,sans-Serif" font-size="10.00">GetDividendTimesForGrid()</text>
<text text-anchor="start" x="4.5" y="-293.5" font-family="Helvetica,sans-Serif" font-size="10.00">+</text>
<text text-anchor="start" x="15.5" y="-293.5" font-family="Helvetica,sans-Serif" font-size="10.00">Add()</text>
<text text-anchor="start" x="4.5" y="-278.5" font-family="Helvetica,sans-Serif" font-size="10.00">+</text>
<text text-anchor="start" x="15.5" y="-278.5" font-family="Helvetica,sans-Serif" font-size="10.00">FromContinuousYield()</text>
<polygon fill="#666666" stroke="#666666" points="0.5,-468.5 0.5,-468.5 139.5,-468.5 139.5,-468.5 0.5,-468.5"/>
<polygon fill="#666666" stroke="#666666" points="0.5,-393.5 0.5,-393.5 13.5,-393.5 13.5,-393.5 0.5,-393.5"/>
<polygon fill="#666666" stroke="#666666" points="13.5,-393.5 13.5,-393.5 139.5,-393.5 139.5,-393.5 13.5,-393.5"/>
<polygon fill="none" stroke="#666666" points="0,-272 0,-497 139,-497 139,-272 0,-272"/>
</a>
</g>
</g>
<!-- Node2&#45;&gt;Node1 -->
<g id="edge1_Node000001_Node000002" class="edge">
<title>Node2&#45;&gt;Node1</title>
<g id="a_edge1_Node000001_Node000002"><a xlink:title=" ">
<path fill="none" stroke="#63b8ff" d="M69.5,-271.73C69.5,-260.44 69.5,-248.92 69.5,-237.51"/>
<polygon fill="none" stroke="#63b8ff" points="69.5,-237.18 65.5,-231.18 69.5,-225.18 73.5,-231.18 69.5,-237.18"/>
</a>
</g>
<text text-anchor="middle" x="88.5" y="-246" font-family="Helvetica,sans-Serif" font-size="10.00" fill="grey"> +Empty</text>
</g>
<!-- Node2&#45;&gt;Node2 -->
<g id="edge2_Node000002_Node000002" class="edge">
<title>Node2&#45;&gt;Node2</title>
<g id="a_edge2_Node000002_Node000002"><a xlink:title=" ">
<path fill="none" stroke="#63b8ff" d="M139.17,-407.75C149.79,-404.2 157,-396.45 157,-384.5 157,-377.22 154.32,-371.49 149.83,-367.33"/>
<polygon fill="none" stroke="#63b8ff" points="149.59,-367.2 142.4,-367.7 139.17,-361.25 146.37,-360.75 149.59,-367.2"/>
</a>
</g>
<text text-anchor="middle" x="176" y="-382" font-family="Helvetica,sans-Serif" font-size="10.00" fill="grey"> +Empty</text>
</g>
</g>
</svg>
