<?xml version="1.0" encoding="UTF-8" standalone="no"?>
<!DOCTYPE svg PUBLIC "-//W3C//DTD SVG 1.1//EN"
 "http://www.w3.org/Graphics/SVG/1.1/DTD/svg11.dtd">
<!-- Generated by graphviz version 2.43.0 (0)
 -->
<!-- Title: Alaris.Core.Time.LiveTimeProvider Pages: 1 -->
<svg width="135pt" height="393pt"
 viewBox="0.00 0.00 135.00 393.00" xmlns="http://www.w3.org/2000/svg" xmlns:xlink="http://www.w3.org/1999/xlink">

<svg id="main" version="1.1" xmlns="http://www.w3.org/2000/svg" xmlns:xlink="http://www.w3.org/1999/xlink" xml:space="preserve" onload="init(evt)">
<style type="text/css"><![CDATA[
.node, .edge {opacity: 0.7;}
.node.selected, .edge.selected {opacity: 1;}
.edge:hover path { stroke: red; }
.edge:hover polygon { stroke: red; fill: red; }
]]></style>
<script type="application/ecmascript" xlink:href="../../svg.min.js"/>
<svg id="graph" class="graph">
<g id="graph0" class="graph" transform="scale(1 1) rotate(0) translate(4 389)">
<title>Alaris.Core.Time.LiveTimeProvider</title>
<!-- Node1 -->
<g id="Node000001" class="node">
<title>Node1</title>
<g id="a_Node000001"><a xlink:title="Time provider for live trading using the system clock.">
<polygon fill="#999999" stroke="transparent" points="127,-210 0,-210 0,0 127,0 127,-210"/>
<text text-anchor="start" x="5.5" y="-198" font-family="Helvetica,sans-Serif" font-size="10.00">Alaris.Core.Time.LiveTime</text>
<text text-anchor="start" x="45.5" y="-187" font-family="Helvetica,sans-Serif" font-size="10.00">Provider</text>
<text text-anchor="start" x="11" y="-172" font-family="Helvetica,sans-Serif" font-size="10.00">+</text>
<text text-anchor="start" x="28.5" y="-172" font-family="Helvetica,sans-Serif" font-size="10.00">Now</text>
<text text-anchor="start" x="11" y="-157" font-family="Helvetica,sans-Serif" font-size="10.00">+</text>
<text text-anchor="start" x="28.5" y="-157" font-family="Helvetica,sans-Serif" font-size="10.00">Today</text>
<text text-anchor="start" x="11" y="-142" font-family="Helvetica,sans-Serif" font-size="10.00">+</text>
<text text-anchor="start" x="28.5" y="-142" font-family="Helvetica,sans-Serif" font-size="10.00">ZonedNow</text>
<text text-anchor="start" x="11" y="-127" font-family="Helvetica,sans-Serif" font-size="10.00">+</text>
<text text-anchor="start" x="28.5" y="-127" font-family="Helvetica,sans-Serif" font-size="10.00">TimeZone</text>
<text text-anchor="start" x="12.5" y="-112" font-family="Helvetica,sans-Serif" font-size="10.00">&#45;</text>
<text text-anchor="start" x="28.5" y="-112" font-family="Helvetica,sans-Serif" font-size="10.00">_clock</text>
<text text-anchor="start" x="12.5" y="-97" font-family="Helvetica,sans-Serif" font-size="10.00">&#45;</text>
<text text-anchor="start" x="28.5" y="-97" font-family="Helvetica,sans-Serif" font-size="10.00">NyseTimeZone</text>
<text text-anchor="start" x="11" y="-82" font-family="Helvetica,sans-Serif" font-size="10.00">+</text>
<text text-anchor="start" x="28.5" y="-82" font-family="Helvetica,sans-Serif" font-size="10.00">LiveTimeProvider()</text>
<text text-anchor="start" x="11" y="-67" font-family="Helvetica,sans-Serif" font-size="10.00">+</text>
<text text-anchor="start" x="28.5" y="-67" font-family="Helvetica,sans-Serif" font-size="10.00">LiveTimeProvider()</text>
<text text-anchor="start" x="11" y="-52" font-family="Helvetica,sans-Serif" font-size="10.00">+</text>
<text text-anchor="start" x="28.5" y="-52" font-family="Helvetica,sans-Serif" font-size="10.00">ToInstant()</text>
<text text-anchor="start" x="11" y="-37" font-family="Helvetica,sans-Serif" font-size="10.00">+</text>
<text text-anchor="start" x="28.5" y="-37" font-family="Helvetica,sans-Serif" font-size="10.00">ToDateTime()</text>
<text text-anchor="start" x="11" y="-22" font-family="Helvetica,sans-Serif" font-size="10.00">+</text>
<text text-anchor="start" x="28.5" y="-22" font-family="Helvetica,sans-Serif" font-size="10.00">ToLocalDate()</text>
<text text-anchor="start" x="11" y="-7" font-family="Helvetica,sans-Serif" font-size="10.00">+</text>
<text text-anchor="start" x="28.5" y="-7" font-family="Helvetica,sans-Serif" font-size="10.00">ToDateTime()</text>
<polygon fill="#666666" stroke="#666666" points="0.5,-182 0.5,-182 127.5,-182 127.5,-182 0.5,-182"/>
<polygon fill="#666666" stroke="#666666" points="0.5,-92 0.5,-92 26.5,-92 26.5,-92 0.5,-92"/>
<polygon fill="#666666" stroke="#666666" points="26.5,-92 26.5,-92 127.5,-92 127.5,-92 26.5,-92"/>
<polygon fill="none" stroke="#666666" points="0,0 0,-210 127,-210 127,0 0,0"/>
</a>
</g>
</g>
<!-- Node2 -->
<g id="Node000002" class="node">
<title>Node2</title>
<g id="a_Node000002"><a xlink:href="../../d9/d01/interfaceAlaris_1_1Core_1_1Time_1_1ITimeProvider.html" target="_top" xlink:title="Provides time&#45;aware operations supporting both live and backtest modes.">
<polygon fill="white" stroke="transparent" points="103.5,-385 23.5,-385 23.5,-246 103.5,-246 103.5,-385"/>
<text text-anchor="start" x="33" y="-372.5" font-family="Helvetica,sans-Serif" font-size="10.00">ITimeProvider</text>
<text text-anchor="start" x="27.5" y="-357.5" font-family="Helvetica,sans-Serif" font-size="10.00">+</text>
<text text-anchor="start" x="38.5" y="-357.5" font-family="Helvetica,sans-Serif" font-size="10.00">Now</text>
<text text-anchor="start" x="27.5" y="-342.5" font-family="Helvetica,sans-Serif" font-size="10.00">+</text>
<text text-anchor="start" x="38.5" y="-342.5" font-family="Helvetica,sans-Serif" font-size="10.00">Today</text>
<text text-anchor="start" x="27.5" y="-327.5" font-family="Helvetica,sans-Serif" font-size="10.00">+</text>
<text text-anchor="start" x="38.5" y="-327.5" font-family="Helvetica,sans-Serif" font-size="10.00">ZonedNow</text>
<text text-anchor="start" x="27.5" y="-312.5" font-family="Helvetica,sans-Serif" font-size="10.00">+</text>
<text text-anchor="start" x="38.5" y="-312.5" font-family="Helvetica,sans-Serif" font-size="10.00">TimeZone</text>
<text text-anchor="start" x="27.5" y="-297.5" font-family="Helvetica,sans-Serif" font-size="10.00">+</text>
<text text-anchor="start" x="38.5" y="-297.5" font-family="Helvetica,sans-Serif" font-size="10.00">ToInstant()</text>
<text text-anchor="start" x="27.5" y="-282.5" font-family="Helvetica,sans-Serif" font-size="10.00">+</text>
<text text-anchor="start" x="38.5" y="-282.5" font-family="Helvetica,sans-Serif" font-size="10.00">ToDateTime()</text>
<text text-anchor="start" x="27.5" y="-267.5" font-family="Helvetica,sans-Serif" font-size="10.00">+</text>
<text text-anchor="start" x="38.5" y="-267.5" font-family="Helvetica,sans-Serif" font-size="10.00">ToLocalDate()</text>
<text text-anchor="start" x="27.5" y="-252.5" font-family="Helvetica,sans-Serif" font-size="10.00">+</text>
<text text-anchor="start" x="38.5" y="-252.5" font-family="Helvetica,sans-Serif" font-size="10.00">ToDateTime()</text>
<polygon fill="#666666" stroke="#666666" points="23.5,-367.5 23.5,-367.5 103.5,-367.5 103.5,-367.5 23.5,-367.5"/>
<polygon fill="#666666" stroke="#666666" points="23.5,-307.5 23.5,-307.5 36.5,-307.5 36.5,-307.5 23.5,-307.5"/>
<polygon fill="#666666" stroke="#666666" points="36.5,-307.5 36.5,-307.5 103.5,-307.5 103.5,-307.5 36.5,-307.5"/>
<polygon fill="none" stroke="#666666" points="23.5,-246 23.5,-385 103.5,-385 103.5,-246 23.5,-246"/>
</a>
</g>
</g>
<!-- Node2&#45;&gt;Node1 -->
<g id="edge1_Node000001_Node000002" class="edge">
<title>Node2&#45;&gt;Node1</title>
<g id="a_edge1_Node000001_Node000002"><a xlink:title=" ">
<path fill="none" stroke="#63b8ff" d="M63.5,-235.81C63.5,-227.39 63.5,-218.74 63.5,-210.08"/>
<polygon fill="none" stroke="#63b8ff" points="60,-235.94 63.5,-245.94 67,-235.94 60,-235.94"/>
</a>
</g>
</g>
</g>
</svg>
</svg>

<style type='text/css'>
<![CDATA[
[data-mouse-over-selected='false'] { opacity: 0.7; }
[data-mouse-over-selected='true']  { opacity: 1.0; }
]]>
</style>
<script type="application/ecmascript"><![CDATA[
document.addEventListener('DOMContentLoaded', (event) => {
  highlightEdges();
  highlightAdjacentNodes();
});
]]></script>
</svg>
