<?xml version="1.0" encoding="UTF-8" standalone="no"?>
<!DOCTYPE svg PUBLIC "-//W3C//DTD SVG 1.1//EN"
 "http://www.w3.org/Graphics/SVG/1.1/DTD/svg11.dtd">
<!-- Generated by graphviz version 2.43.0 (0)
 -->
<!-- Title: Alaris.Host.Application.Cli.Settings.EarningsCheckSettings Pages: 1 -->
<svg width="175pt" height="268pt"
 viewBox="0.00 0.00 175.00 268.00" xmlns="http://www.w3.org/2000/svg" xmlns:xlink="http://www.w3.org/1999/xlink">
<g id="graph0" class="graph" transform="scale(1 1) rotate(0) translate(4 264)">
<title>Alaris.Host.Application.Cli.Settings.EarningsCheckSettings</title>
<!-- Node1 -->
<g id="Node000001" class="node">
<title>Node1</title>
<g id="a_Node000001"><a xlink:title="Settings for earnings check command.">
<polygon fill="#999999" stroke="transparent" points="167,-60 0,-60 0,0 167,0 167,-60"/>
<text text-anchor="start" x="5.5" y="-48" font-family="Helvetica,sans-Serif" font-size="10.00">Alaris.Host.Application.</text>
<text text-anchor="start" x="5.5" y="-37" font-family="Helvetica,sans-Serif" font-size="10.00">Cli.Settings.EarningsCheckSettings</text>
<text text-anchor="start" x="30.5" y="-22" font-family="Helvetica,sans-Serif" font-size="10.00">+</text>
<text text-anchor="start" x="67.5" y="-22" font-family="Helvetica,sans-Serif" font-size="10.00">SessionId</text>
<text text-anchor="start" x="82" y="-7" font-family="Helvetica,sans-Serif" font-size="10.00"> </text>
<polygon fill="#666666" stroke="#666666" points="0.5,-32 0.5,-32 167.5,-32 167.5,-32 0.5,-32"/>
<polygon fill="#666666" stroke="#666666" points="0.5,-17 0.5,-17 65.5,-17 65.5,-17 0.5,-17"/>
<polygon fill="#666666" stroke="#666666" points="65.5,-17 65.5,-17 167.5,-17 167.5,-17 65.5,-17"/>
<polygon fill="none" stroke="#666666" points="0,0 0,-60 167,-60 167,0 0,0"/>
</a>
</g>
</g>
<!-- Node2 -->
<g id="Node000002" class="node">
<title>Node2</title>
<g id="a_Node000002"><a xlink:href="../../d4/d03/classAlaris_1_1Host_1_1Application_1_1Cli_1_1Infrastructure_1_1CLif004A.html" target="_top" xlink:title="Global settings inherited by all CLI commands. Component ID: CLif004A.">
<polygon fill="white" stroke="transparent" points="118.5,-175 48.5,-175 48.5,-96 118.5,-96 118.5,-175"/>
<text text-anchor="start" x="63" y="-162.5" font-family="Helvetica,sans-Serif" font-size="10.00">CLif004A</text>
<text text-anchor="start" x="52.5" y="-147.5" font-family="Helvetica,sans-Serif" font-size="10.00">+</text>
<text text-anchor="start" x="63.5" y="-147.5" font-family="Helvetica,sans-Serif" font-size="10.00">Verbose</text>
<text text-anchor="start" x="52.5" y="-132.5" font-family="Helvetica,sans-Serif" font-size="10.00">+</text>
<text text-anchor="start" x="63.5" y="-132.5" font-family="Helvetica,sans-Serif" font-size="10.00">JsonOutput</text>
<text text-anchor="start" x="52.5" y="-117.5" font-family="Helvetica,sans-Serif" font-size="10.00">+</text>
<text text-anchor="start" x="63.5" y="-117.5" font-family="Helvetica,sans-Serif" font-size="10.00">NoColor</text>
<text text-anchor="start" x="81.5" y="-102.5" font-family="Helvetica,sans-Serif" font-size="10.00"> </text>
<polygon fill="#666666" stroke="#666666" points="48.5,-157.5 48.5,-157.5 118.5,-157.5 118.5,-157.5 48.5,-157.5"/>
<polygon fill="#666666" stroke="#666666" points="48.5,-112.5 48.5,-112.5 61.5,-112.5 61.5,-112.5 48.5,-112.5"/>
<polygon fill="#666666" stroke="#666666" points="61.5,-112.5 61.5,-112.5 118.5,-112.5 118.5,-112.5 61.5,-112.5"/>
<polygon fill="none" stroke="#666666" points="48.5,-96 48.5,-175 118.5,-175 118.5,-96 48.5,-96"/>
</a>
</g>
</g>
<!-- Node2&#45;&gt;Node1 -->
<g id="edge1_Node000001_Node000002" class="edge">
<title>Node2&#45;&gt;Node1</title>
<g id="a_edge1_Node000001_Node000002"><a xlink:title=" ">
<path fill="none" stroke="#63b8ff" d="M83.5,-85.8C83.5,-77.04 83.5,-68.17 83.5,-60.19"/>
<polygon fill="none" stroke="#63b8ff" points="80,-85.96 83.5,-95.96 87,-85.96 80,-85.96"/>
</a>
</g>
</g>
<!-- Node3 -->
<g id="Node000003" class="node">
<title>Node3</title>
<g id="a_Node000003"><a xlink:title=" ">
<polygon fill="white" stroke="transparent" points="129.5,-260 37.5,-260 37.5,-211 129.5,-211 129.5,-260"/>
<text text-anchor="start" x="42.5" y="-247.5" font-family="Helvetica,sans-Serif" font-size="10.00">CommandSettings</text>
<text text-anchor="start" x="81.5" y="-232.5" font-family="Helvetica,sans-Serif" font-size="10.00"> </text>
<text text-anchor="start" x="81.5" y="-217.5" font-family="Helvetica,sans-Serif" font-size="10.00"> </text>
<polygon fill="#666666" stroke="#666666" points="37.5,-242.5 37.5,-242.5 129.5,-242.5 129.5,-242.5 37.5,-242.5"/>
<polygon fill="#666666" stroke="#666666" points="37.5,-227.5 37.5,-227.5 129.5,-227.5 129.5,-227.5 37.5,-227.5"/>
<polygon fill="none" stroke="#666666" points="37.5,-211 37.5,-260 129.5,-260 129.5,-211 37.5,-211"/>
</a>
</g>
</g>
<!-- Node3&#45;&gt;Node2 -->
<g id="edge2_Node000002_Node000003" class="edge">
<title>Node3&#45;&gt;Node2</title>
<g id="a_edge2_Node000002_Node000003"><a xlink:title=" ">
<path fill="none" stroke="#63b8ff" d="M83.5,-200.52C83.5,-192.38 83.5,-183.63 83.5,-175.29"/>
<polygon fill="none" stroke="#63b8ff" points="80,-200.78 83.5,-210.78 87,-200.78 80,-200.78"/>
</a>
</g>
</g>
</g>
</svg>
