<?xml version="1.0" encoding="UTF-8" standalone="no"?>
<!DOCTYPE svg PUBLIC "-//W3C//DTD SVG 1.1//EN"
 "http://www.w3.org/Graphics/SVG/1.1/DTD/svg11.dtd">
<!-- Generated by graphviz version 2.43.0 (0)
 -->
<!-- Title: Alaris.Infrastructure.Events.Core.EVCR002A Pages: 1 -->
<svg width="174pt" height="165pt"
 viewBox="0.00 0.00 174.00 165.00" xmlns="http://www.w3.org/2000/svg" xmlns:xlink="http://www.w3.org/1999/xlink">
<g id="graph0" class="graph" transform="scale(1 1) rotate(0) translate(4 161)">
<title>Alaris.Infrastructure.Events.Core.EVCR002A</title>
<!-- Node1 -->
<g id="Node000001" class="node">
<title>Node1</title>
<g id="a_Node000001"><a xlink:title="Interface for storing and retrieving events. Implementations must ensure events are never modified or...">
<polygon fill="#999999" stroke="transparent" points="166,-157 0,-157 0,0 166,0 166,-157"/>
<text text-anchor="start" x="21.5" y="-144.5" font-family="Helvetica,sans-Serif" font-size="10.00">Alaris.Infrastructure.Events.</text>
<text text-anchor="start" x="45" y="-133.5" font-family="Helvetica,sans-Serif" font-size="10.00">Core.EVCR002A</text>
<text text-anchor="start" x="81" y="-118.5" font-family="Helvetica,sans-Serif" font-size="10.00"> </text>
<text text-anchor="start" x="4" y="-103.5" font-family="Helvetica,sans-Serif" font-size="10.00">+</text>
<text text-anchor="start" x="15" y="-103.5" font-family="Helvetica,sans-Serif" font-size="10.00">AppendAsync&lt; TEvent &gt;()</text>
<text text-anchor="start" x="4" y="-88.5" font-family="Helvetica,sans-Serif" font-size="10.00">+</text>
<text text-anchor="start" x="15" y="-88.5" font-family="Helvetica,sans-Serif" font-size="10.00">GetEventsForAggregateAsync()</text>
<text text-anchor="start" x="4" y="-73.5" font-family="Helvetica,sans-Serif" font-size="10.00">+</text>
<text text-anchor="start" x="15" y="-73.5" font-family="Helvetica,sans-Serif" font-size="10.00">GetEventsFromSequenceAsync()</text>
<text text-anchor="start" x="4" y="-58.5" font-family="Helvetica,sans-Serif" font-size="10.00">+</text>
<text text-anchor="start" x="15" y="-58.5" font-family="Helvetica,sans-Serif" font-size="10.00">GetCurrentSequenceNumber</text>
<text text-anchor="start" x="15" y="-47.5" font-family="Helvetica,sans-Serif" font-size="10.00">Async()</text>
<text text-anchor="start" x="4" y="-32.5" font-family="Helvetica,sans-Serif" font-size="10.00">+</text>
<text text-anchor="start" x="15" y="-32.5" font-family="Helvetica,sans-Serif" font-size="10.00">GetEventsByCorrelationId</text>
<text text-anchor="start" x="15" y="-21.5" font-family="Helvetica,sans-Serif" font-size="10.00">Async()</text>
<text text-anchor="start" x="4" y="-6.5" font-family="Helvetica,sans-Serif" font-size="10.00">+</text>
<text text-anchor="start" x="15" y="-6.5" font-family="Helvetica,sans-Serif" font-size="10.00">GetEventsByTimeRangeAsync()</text>
<polygon fill="#666666" stroke="#666666" points="0,-128.5 0,-128.5 166,-128.5 166,-128.5 0,-128.5"/>
<polygon fill="#666666" stroke="#666666" points="0,-113.5 0,-113.5 166,-113.5 166,-113.5 0,-113.5"/>
<polygon fill="none" stroke="#666666" points="0,0 0,-157 166,-157 166,0 0,0"/>
</a>
</g>
</g>
</g>
</svg>
