<?xml version="1.0" encoding="UTF-8" standalone="no"?>
<!DOCTYPE svg PUBLIC "-//W3C//DTD SVG 1.1//EN"
 "http://www.w3.org/Graphics/SVG/1.1/DTD/svg11.dtd">
<!-- Generated by graphviz version 2.43.0 (0)
 -->
<!-- Title: Alaris.Core.TermStructure.CRTS001AFlatForward Pages: 1 -->
<svg width="136pt" height="318pt"
 viewBox="0.00 0.00 136.00 318.00" xmlns="http://www.w3.org/2000/svg" xmlns:xlink="http://www.w3.org/1999/xlink">
<g id="graph0" class="graph" transform="scale(1 1) rotate(0) translate(4 314)">
<title>Alaris.Core.TermStructure.CRTS001AFlatForward</title>
<!-- Node1 -->
<g id="Node000001" class="node">
<title>Node1</title>
<g id="a_Node000001"><a xlink:title="Flat forward yield curve with constant rate. Replaces QuantLib FlatForward.">
<polygon fill="#999999" stroke="transparent" points="128,-165 0,-165 0,0 128,0 128,-165"/>
<text text-anchor="start" x="5.5" y="-152.5" font-family="Helvetica,sans-Serif" font-size="10.00">Alaris.Core.TermStructure.</text>
<text text-anchor="start" x="12.5" y="-141.5" font-family="Helvetica,sans-Serif" font-size="10.00">CRTS001AFlatForward</text>
<text text-anchor="start" x="4" y="-126.5" font-family="Helvetica,sans-Serif" font-size="10.00">+</text>
<text text-anchor="start" x="15" y="-126.5" font-family="Helvetica,sans-Serif" font-size="10.00">ReferenceDate</text>
<text text-anchor="start" x="4" y="-111.5" font-family="Helvetica,sans-Serif" font-size="10.00">+</text>
<text text-anchor="start" x="15" y="-111.5" font-family="Helvetica,sans-Serif" font-size="10.00">DayCounter</text>
<text text-anchor="start" x="4" y="-96.5" font-family="Helvetica,sans-Serif" font-size="10.00">+</text>
<text text-anchor="start" x="15" y="-96.5" font-family="Helvetica,sans-Serif" font-size="10.00">Rate</text>
<text text-anchor="start" x="5.5" y="-81.5" font-family="Helvetica,sans-Serif" font-size="10.00">&#45;</text>
<text text-anchor="start" x="15" y="-81.5" font-family="Helvetica,sans-Serif" font-size="10.00">_rate</text>
<text text-anchor="start" x="4" y="-66.5" font-family="Helvetica,sans-Serif" font-size="10.00">+</text>
<text text-anchor="start" x="15" y="-66.5" font-family="Helvetica,sans-Serif" font-size="10.00">CRTS001AFlatForward()</text>
<text text-anchor="start" x="4" y="-51.5" font-family="Helvetica,sans-Serif" font-size="10.00">+</text>
<text text-anchor="start" x="15" y="-51.5" font-family="Helvetica,sans-Serif" font-size="10.00">DiscountFactor()</text>
<text text-anchor="start" x="4" y="-36.5" font-family="Helvetica,sans-Serif" font-size="10.00">+</text>
<text text-anchor="start" x="15" y="-36.5" font-family="Helvetica,sans-Serif" font-size="10.00">ZeroRate()</text>
<text text-anchor="start" x="4" y="-21.5" font-family="Helvetica,sans-Serif" font-size="10.00">+</text>
<text text-anchor="start" x="15" y="-21.5" font-family="Helvetica,sans-Serif" font-size="10.00">ForwardRate()</text>
<text text-anchor="start" x="4" y="-6.5" font-family="Helvetica,sans-Serif" font-size="10.00">+</text>
<text text-anchor="start" x="15" y="-6.5" font-family="Helvetica,sans-Serif" font-size="10.00">DiscountFactor()</text>
<polygon fill="#666666" stroke="#666666" points="0,-136.5 0,-136.5 128,-136.5 128,-136.5 0,-136.5"/>
<polygon fill="#666666" stroke="#666666" points="0,-76.5 0,-76.5 13,-76.5 13,-76.5 0,-76.5"/>
<polygon fill="#666666" stroke="#666666" points="13,-76.5 13,-76.5 128,-76.5 128,-76.5 13,-76.5"/>
<polygon fill="none" stroke="#666666" points="0,0 0,-165 128,-165 128,0 0,0"/>
</a>
</g>
</g>
<!-- Node2 -->
<g id="Node000002" class="node">
<title>Node2</title>
<g id="a_Node000002"><a xlink:href="../../dc/d02/interfaceAlaris_1_1Core_1_1TermStructure_1_1IYieldCurve.html" target="_top" xlink:title="Interface for yield term structures (discount curves). Replaces QuantLib YieldTermStructure.">
<polygon fill="white" stroke="transparent" points="110,-310 18,-310 18,-201 110,-201 110,-310"/>
<text text-anchor="start" x="38" y="-297.5" font-family="Helvetica,sans-Serif" font-size="10.00">IYieldCurve</text>
<text text-anchor="start" x="22" y="-282.5" font-family="Helvetica,sans-Serif" font-size="10.00">+</text>
<text text-anchor="start" x="33" y="-282.5" font-family="Helvetica,sans-Serif" font-size="10.00">ReferenceDate</text>
<text text-anchor="start" x="22" y="-267.5" font-family="Helvetica,sans-Serif" font-size="10.00">+</text>
<text text-anchor="start" x="33" y="-267.5" font-family="Helvetica,sans-Serif" font-size="10.00">DayCounter</text>
<text text-anchor="start" x="22" y="-252.5" font-family="Helvetica,sans-Serif" font-size="10.00">+</text>
<text text-anchor="start" x="33" y="-252.5" font-family="Helvetica,sans-Serif" font-size="10.00">DiscountFactor()</text>
<text text-anchor="start" x="22" y="-237.5" font-family="Helvetica,sans-Serif" font-size="10.00">+</text>
<text text-anchor="start" x="33" y="-237.5" font-family="Helvetica,sans-Serif" font-size="10.00">ZeroRate()</text>
<text text-anchor="start" x="22" y="-222.5" font-family="Helvetica,sans-Serif" font-size="10.00">+</text>
<text text-anchor="start" x="33" y="-222.5" font-family="Helvetica,sans-Serif" font-size="10.00">ForwardRate()</text>
<text text-anchor="start" x="22" y="-207.5" font-family="Helvetica,sans-Serif" font-size="10.00">+</text>
<text text-anchor="start" x="33" y="-207.5" font-family="Helvetica,sans-Serif" font-size="10.00">DiscountFactor()</text>
<polygon fill="#666666" stroke="#666666" points="18,-292.5 18,-292.5 110,-292.5 110,-292.5 18,-292.5"/>
<polygon fill="#666666" stroke="#666666" points="18,-262.5 18,-262.5 31,-262.5 31,-262.5 18,-262.5"/>
<polygon fill="#666666" stroke="#666666" points="31,-262.5 31,-262.5 110,-262.5 110,-262.5 31,-262.5"/>
<polygon fill="none" stroke="#666666" points="18,-201 18,-310 110,-310 110,-201 18,-201"/>
</a>
</g>
</g>
<!-- Node2&#45;&gt;Node1 -->
<g id="edge1_Node000001_Node000002" class="edge">
<title>Node2&#45;&gt;Node1</title>
<g id="a_edge1_Node000001_Node000002"><a xlink:title=" ">
<path fill="none" stroke="#63b8ff" d="M64,-190.81C64,-182.44 64,-173.76 64,-165.13"/>
<polygon fill="none" stroke="#63b8ff" points="60.5,-190.86 64,-200.86 67.5,-190.86 60.5,-190.86"/>
</a>
</g>
</g>
</g>
</svg>
