<?xml version="1.0" encoding="UTF-8" standalone="no"?>
<!DOCTYPE svg PUBLIC "-//W3C//DTD SVG 1.1//EN"
 "http://www.w3.org/Graphics/SVG/1.1/DTD/svg11.dtd">
<!-- Generated by graphviz version 2.43.0 (0)
 -->
<!-- Title: Alaris.Host.Application.Cli.Commands.Trade.CLtr002A Pages: 1 -->
<svg width="171pt" height="153pt"
 viewBox="0.00 0.00 171.00 153.00" xmlns="http://www.w3.org/2000/svg" xmlns:xlink="http://www.w3.org/1999/xlink">

<svg id="main" version="1.1" xmlns="http://www.w3.org/2000/svg" xmlns:xlink="http://www.w3.org/1999/xlink" xml:space="preserve" onload="init(evt)">
<style type="text/css"><![CDATA[
.node, .edge {opacity: 0.7;}
.node.selected, .edge.selected {opacity: 1;}
.edge:hover path { stroke: red; }
.edge:hover polygon { stroke: red; fill: red; }
]]></style>
<script type="application/ecmascript" xlink:href="../../svg.min.js"/>
<svg id="graph" class="graph">
<g id="graph0" class="graph" transform="scale(1 1) rotate(0) translate(4 149)">
<title>Alaris.Host.Application.Cli.Commands.Trade.CLtr002A</title>
<!-- Node1 -->
<g id="Node000001" class="node">
<title>Node1</title>
<g id="a_Node000001"><a xlink:title="Shows current trading state and positions. Component ID: CLtr002A.">
<polygon fill="#999999" stroke="transparent" points="155.5,-60 7.5,-60 7.5,0 155.5,0 155.5,-60"/>
<text text-anchor="start" x="12.5" y="-48" font-family="Helvetica,sans-Serif" font-size="10.00">Alaris.Host.Application.</text>
<text text-anchor="start" x="12.5" y="-37" font-family="Helvetica,sans-Serif" font-size="10.00">Cli.Commands.Trade.CLtr002A</text>
<text text-anchor="start" x="79.5" y="-22" font-family="Helvetica,sans-Serif" font-size="10.00"> </text>
<text text-anchor="start" x="33" y="-7" font-family="Helvetica,sans-Serif" font-size="10.00">+</text>
<text text-anchor="start" x="65.5" y="-7" font-family="Helvetica,sans-Serif" font-size="10.00">Execute()</text>
<polygon fill="#666666" stroke="#666666" points="7.5,-32 7.5,-32 155.5,-32 155.5,-32 7.5,-32"/>
<polygon fill="#666666" stroke="#666666" points="7.5,-17 7.5,-17 155.5,-17 155.5,-17 7.5,-17"/>
<polygon fill="none" stroke="#666666" points="7.5,0 7.5,-60 155.5,-60 155.5,0 7.5,0"/>
</a>
</g>
</g>
<!-- Node2 -->
<g id="Node000002" class="node">
<title>Node2</title>
<g id="a_Node000002"><a xlink:title=" ">
<polygon fill="white" stroke="transparent" points="163,-145 0,-145 0,-96 163,-96 163,-145"/>
<text text-anchor="start" x="5.5" y="-132.5" font-family="Helvetica,sans-Serif" font-size="10.00">Command&lt; TradeStatusSettings &gt;</text>
<text text-anchor="start" x="80" y="-117.5" font-family="Helvetica,sans-Serif" font-size="10.00"> </text>
<text text-anchor="start" x="80" y="-102.5" font-family="Helvetica,sans-Serif" font-size="10.00"> </text>
<polygon fill="#666666" stroke="#666666" points="0.5,-127.5 0.5,-127.5 163.5,-127.5 163.5,-127.5 0.5,-127.5"/>
<polygon fill="#666666" stroke="#666666" points="0.5,-112.5 0.5,-112.5 163.5,-112.5 163.5,-112.5 0.5,-112.5"/>
<polygon fill="none" stroke="#666666" points="0,-96 0,-145 163,-145 163,-96 0,-96"/>
</a>
</g>
</g>
<!-- Node2&#45;&gt;Node1 -->
<g id="edge1_Node000001_Node000002" class="edge">
<title>Node2&#45;&gt;Node1</title>
<g id="a_edge1_Node000001_Node000002"><a xlink:title=" ">
<path fill="none" stroke="#63b8ff" d="M81.5,-85.55C81.5,-77.18 81.5,-68.28 81.5,-60.16"/>
<polygon fill="none" stroke="#63b8ff" points="78,-85.78 81.5,-95.78 85,-85.78 78,-85.78"/>
</a>
</g>
</g>
</g>
</svg>
</svg>

<style type='text/css'>
<![CDATA[
[data-mouse-over-selected='false'] { opacity: 0.7; }
[data-mouse-over-selected='true']  { opacity: 1.0; }
]]>
</style>
<script type="application/ecmascript"><![CDATA[
document.addEventListener('DOMContentLoaded', (event) => {
  highlightEdges();
  highlightAdjacentNodes();
});
]]></script>
</svg>
