<?xml version="1.0" encoding="UTF-8" standalone="no"?>
<!DOCTYPE svg PUBLIC "-//W3C//DTD SVG 1.1//EN"
 "http://www.w3.org/Graphics/SVG/1.1/DTD/svg11.dtd">
<!-- Generated by graphviz version 2.43.0 (0)
 -->
<!-- Title: Alaris.Infrastructure.Data.Quality.EarningsDateValidator Pages: 1 -->
<svg width="148pt" height="198pt"
 viewBox="0.00 0.00 148.00 198.00" xmlns="http://www.w3.org/2000/svg" xmlns:xlink="http://www.w3.org/1999/xlink">
<g id="graph0" class="graph" transform="scale(1 1) rotate(0) translate(4 194)">
<title>Alaris.Infrastructure.Data.Quality.EarningsDateValidator</title>
<!-- Node1 -->
<g id="Node000001" class="node">
<title>Node1</title>
<g id="a_Node000001"><a xlink:title="Validates earnings date accuracy and consistency. Component ID: DTqc004A.">
<polygon fill="#999999" stroke="transparent" points="140,-105 0,-105 0,0 140,0 140,-105"/>
<text text-anchor="start" x="5" y="-92.5" font-family="Helvetica,sans-Serif" font-size="10.00">Alaris.Infrastructure.Data.</text>
<text text-anchor="start" x="5" y="-81.5" font-family="Helvetica,sans-Serif" font-size="10.00">Quality.EarningsDateValidator</text>
<text text-anchor="start" x="8.5" y="-66.5" font-family="Helvetica,sans-Serif" font-size="10.00">+</text>
<text text-anchor="start" x="24" y="-66.5" font-family="Helvetica,sans-Serif" font-size="10.00">ComponentId</text>
<text text-anchor="start" x="10" y="-51.5" font-family="Helvetica,sans-Serif" font-size="10.00">&#45;</text>
<text text-anchor="start" x="24" y="-51.5" font-family="Helvetica,sans-Serif" font-size="10.00">_logger</text>
<text text-anchor="start" x="10" y="-36.5" font-family="Helvetica,sans-Serif" font-size="10.00">&#45;</text>
<text text-anchor="start" x="24" y="-36.5" font-family="Helvetica,sans-Serif" font-size="10.00">_timeProvider</text>
<text text-anchor="start" x="8.5" y="-21.5" font-family="Helvetica,sans-Serif" font-size="10.00">+</text>
<text text-anchor="start" x="24" y="-21.5" font-family="Helvetica,sans-Serif" font-size="10.00">EarningsDateValidator()</text>
<text text-anchor="start" x="8.5" y="-6.5" font-family="Helvetica,sans-Serif" font-size="10.00">+</text>
<text text-anchor="start" x="24" y="-6.5" font-family="Helvetica,sans-Serif" font-size="10.00">Validate()</text>
<polygon fill="#666666" stroke="#666666" points="0,-76.5 0,-76.5 140,-76.5 140,-76.5 0,-76.5"/>
<polygon fill="#666666" stroke="#666666" points="0,-31.5 0,-31.5 22,-31.5 22,-31.5 0,-31.5"/>
<polygon fill="#666666" stroke="#666666" points="22,-31.5 22,-31.5 140,-31.5 140,-31.5 22,-31.5"/>
<polygon fill="none" stroke="#666666" points="0,0 0,-105 140,-105 140,0 0,0"/>
</a>
</g>
</g>
<!-- Node2 -->
<g id="Node000002" class="node">
<title>Node2</title>
<g id="a_Node000002"><a xlink:href="../../df/d00/interfaceAlaris_1_1Infrastructure_1_1Data_1_1Quality_1_1DTqc002A.html" target="_top" xlink:title="Interface for data quality validators.">
<polygon fill="white" stroke="transparent" points="109,-190 31,-190 31,-141 109,-141 109,-190"/>
<text text-anchor="start" x="46.5" y="-177.5" font-family="Helvetica,sans-Serif" font-size="10.00">DTqc002A</text>
<text text-anchor="start" x="35" y="-162.5" font-family="Helvetica,sans-Serif" font-size="10.00">+</text>
<text text-anchor="start" x="46" y="-162.5" font-family="Helvetica,sans-Serif" font-size="10.00">ComponentId</text>
<text text-anchor="start" x="35" y="-147.5" font-family="Helvetica,sans-Serif" font-size="10.00">+</text>
<text text-anchor="start" x="46" y="-147.5" font-family="Helvetica,sans-Serif" font-size="10.00">Validate()</text>
<polygon fill="#666666" stroke="#666666" points="31,-172.5 31,-172.5 109,-172.5 109,-172.5 31,-172.5"/>
<polygon fill="#666666" stroke="#666666" points="31,-157.5 31,-157.5 44,-157.5 44,-157.5 31,-157.5"/>
<polygon fill="#666666" stroke="#666666" points="44,-157.5 44,-157.5 109,-157.5 109,-157.5 44,-157.5"/>
<polygon fill="none" stroke="#666666" points="31,-141 31,-190 109,-190 109,-141 31,-141"/>
</a>
</g>
</g>
<!-- Node2&#45;&gt;Node1 -->
<g id="edge1_Node000001_Node000002" class="edge">
<title>Node2&#45;&gt;Node1</title>
<g id="a_edge1_Node000001_Node000002"><a xlink:title=" ">
<path fill="none" stroke="#63b8ff" d="M70,-130.85C70,-122.79 70,-114 70,-105.32"/>
<polygon fill="none" stroke="#63b8ff" points="66.5,-130.96 70,-140.96 73.5,-130.96 66.5,-130.96"/>
</a>
</g>
</g>
</g>
</svg>
