<?xml version="1.0" encoding="UTF-8" standalone="no"?>
<!DOCTYPE svg PUBLIC "-//W3C//DTD SVG 1.1//EN"
 "http://www.w3.org/Graphics/SVG/1.1/DTD/svg11.dtd">
<!-- Generated by graphviz version 2.43.0 (0)
 -->
<!-- Title: Alaris.Host.Application.Cli.Monitor.TradeUpdate Pages: 1 -->
<svg width="124pt" height="243pt"
 viewBox="0.00 0.00 124.00 243.00" xmlns="http://www.w3.org/2000/svg" xmlns:xlink="http://www.w3.org/1999/xlink">
<g id="graph0" class="graph" transform="scale(1 1) rotate(0) translate(4 239)">
<title>Alaris.Host.Application.Cli.Monitor.TradeUpdate</title>
<!-- Node1 -->
<g id="Node000001" class="node">
<title>Node1</title>
<g id="a_Node000001"><a xlink:title="Trade execution event.">
<polygon fill="#999999" stroke="transparent" points="116,-150 0,-150 0,0 116,0 116,-150"/>
<text text-anchor="start" x="5" y="-138" font-family="Helvetica,sans-Serif" font-size="10.00">Alaris.Host.Application.</text>
<text text-anchor="start" x="5" y="-127" font-family="Helvetica,sans-Serif" font-size="10.00">Cli.Monitor.TradeUpdate</text>
<text text-anchor="start" x="12.5" y="-112" font-family="Helvetica,sans-Serif" font-size="10.00">+</text>
<text text-anchor="start" x="32" y="-112" font-family="Helvetica,sans-Serif" font-size="10.00">Timestamp</text>
<text text-anchor="start" x="12.5" y="-97" font-family="Helvetica,sans-Serif" font-size="10.00">+</text>
<text text-anchor="start" x="32" y="-97" font-family="Helvetica,sans-Serif" font-size="10.00">Symbol</text>
<text text-anchor="start" x="12.5" y="-82" font-family="Helvetica,sans-Serif" font-size="10.00">+</text>
<text text-anchor="start" x="32" y="-82" font-family="Helvetica,sans-Serif" font-size="10.00">Direction</text>
<text text-anchor="start" x="12.5" y="-67" font-family="Helvetica,sans-Serif" font-size="10.00">+</text>
<text text-anchor="start" x="32" y="-67" font-family="Helvetica,sans-Serif" font-size="10.00">Quantity</text>
<text text-anchor="start" x="12.5" y="-52" font-family="Helvetica,sans-Serif" font-size="10.00">+</text>
<text text-anchor="start" x="32" y="-52" font-family="Helvetica,sans-Serif" font-size="10.00">FillPrice</text>
<text text-anchor="start" x="12.5" y="-37" font-family="Helvetica,sans-Serif" font-size="10.00">+</text>
<text text-anchor="start" x="32" y="-37" font-family="Helvetica,sans-Serif" font-size="10.00">Commission</text>
<text text-anchor="start" x="12.5" y="-22" font-family="Helvetica,sans-Serif" font-size="10.00">+</text>
<text text-anchor="start" x="32" y="-22" font-family="Helvetica,sans-Serif" font-size="10.00">PnL</text>
<text text-anchor="start" x="12.5" y="-7" font-family="Helvetica,sans-Serif" font-size="10.00">+</text>
<text text-anchor="start" x="32" y="-7" font-family="Helvetica,sans-Serif" font-size="10.00">TradeUpdate()</text>
<polygon fill="#666666" stroke="#666666" points="0,-122 0,-122 116,-122 116,-122 0,-122"/>
<polygon fill="#666666" stroke="#666666" points="0,-17 0,-17 30,-17 30,-17 0,-17"/>
<polygon fill="#666666" stroke="#666666" points="30,-17 30,-17 116,-17 116,-17 30,-17"/>
<polygon fill="none" stroke="#666666" points="0,0 0,-150 116,-150 116,0 0,0"/>
</a>
</g>
</g>
<!-- Node2 -->
<g id="Node000002" class="node">
<title>Node2</title>
<g id="a_Node000002"><a xlink:title=" ">
<polygon fill="white" stroke="transparent" points="86,-235 30,-235 30,-186 86,-186 86,-235"/>
<text text-anchor="start" x="35" y="-222.5" font-family="Helvetica,sans-Serif" font-size="10.00">EventArgs</text>
<text text-anchor="start" x="56" y="-207.5" font-family="Helvetica,sans-Serif" font-size="10.00"> </text>
<text text-anchor="start" x="56" y="-192.5" font-family="Helvetica,sans-Serif" font-size="10.00"> </text>
<polygon fill="#666666" stroke="#666666" points="30,-217.5 30,-217.5 86,-217.5 86,-217.5 30,-217.5"/>
<polygon fill="#666666" stroke="#666666" points="30,-202.5 30,-202.5 86,-202.5 86,-202.5 30,-202.5"/>
<polygon fill="none" stroke="#666666" points="30,-186 30,-235 86,-235 86,-186 30,-186"/>
</a>
</g>
</g>
<!-- Node2&#45;&gt;Node1 -->
<g id="edge1_Node000001_Node000002" class="edge">
<title>Node2&#45;&gt;Node1</title>
<g id="a_edge1_Node000001_Node000002"><a xlink:title=" ">
<path fill="none" stroke="#63b8ff" d="M58,-175.69C58,-167.75 58,-158.98 58,-150.03"/>
<polygon fill="none" stroke="#63b8ff" points="54.5,-175.94 58,-185.94 61.5,-175.94 54.5,-175.94"/>
</a>
</g>
</g>
</g>
</svg>
