<?xml version="1.0" encoding="UTF-8" standalone="no"?>
<!DOCTYPE svg PUBLIC "-//W3C//DTD SVG 1.1//EN"
 "http://www.w3.org/Graphics/SVG/1.1/DTD/svg11.dtd">
<!-- Generated by graphviz version 2.43.0 (0)
 -->
<!-- Title: Alaris.Host.Application.Cli.Dashboard.CLdb001A Pages: 1 -->
<svg width="130pt" height="363pt"
 viewBox="0.00 0.00 130.00 363.00" xmlns="http://www.w3.org/2000/svg" xmlns:xlink="http://www.w3.org/1999/xlink">

<svg id="main" version="1.1" xmlns="http://www.w3.org/2000/svg" xmlns:xlink="http://www.w3.org/1999/xlink" xml:space="preserve" onload="init(evt)">
<style type="text/css"><![CDATA[
.node, .edge {opacity: 0.7;}
.node.selected, .edge.selected {opacity: 1;}
.edge:hover path { stroke: red; }
.edge:hover polygon { stroke: red; fill: red; }
]]></style>
<script type="application/ecmascript" xlink:href="../../svg.min.js"/>
<svg id="graph" class="graph">
<g id="graph0" class="graph" transform="scale(1 1) rotate(0) translate(4 359)">
<title>Alaris.Host.Application.Cli.Dashboard.CLdb001A</title>
<!-- Node1 -->
<g id="Node000001" class="node">
<title>Node1</title>
<g id="a_Node000001"><a xlink:title="Renders a live dashboard for algorithm monitoring. Uses Spectre.Console Live display for smooth updat...">
<polygon fill="#999999" stroke="transparent" points="122,-270 0,-270 0,0 122,0 122,-270"/>
<text text-anchor="start" x="5" y="-258" font-family="Helvetica,sans-Serif" font-size="10.00">Alaris.Host.Application.</text>
<text text-anchor="start" x="5" y="-247" font-family="Helvetica,sans-Serif" font-size="10.00">Cli.Dashboard.CLdb001A</text>
<text text-anchor="start" x="9.5" y="-232" font-family="Helvetica,sans-Serif" font-size="10.00">&#45;</text>
<text text-anchor="start" x="23" y="-232" font-family="Helvetica,sans-Serif" font-size="10.00">_monitor</text>
<text text-anchor="start" x="9.5" y="-217" font-family="Helvetica,sans-Serif" font-size="10.00">&#45;</text>
<text text-anchor="start" x="23" y="-217" font-family="Helvetica,sans-Serif" font-size="10.00">_equityHistory</text>
<text text-anchor="start" x="9.5" y="-202" font-family="Helvetica,sans-Serif" font-size="10.00">&#45;</text>
<text text-anchor="start" x="23" y="-202" font-family="Helvetica,sans-Serif" font-size="10.00">_trades</text>
<text text-anchor="start" x="9.5" y="-187" font-family="Helvetica,sans-Serif" font-size="10.00">&#45;</text>
<text text-anchor="start" x="23" y="-187" font-family="Helvetica,sans-Serif" font-size="10.00">_lastStatus</text>
<text text-anchor="start" x="9.5" y="-172" font-family="Helvetica,sans-Serif" font-size="10.00">&#45;</text>
<text text-anchor="start" x="23" y="-172" font-family="Helvetica,sans-Serif" font-size="10.00">_lock</text>
<text text-anchor="start" x="8" y="-157" font-family="Helvetica,sans-Serif" font-size="10.00">+</text>
<text text-anchor="start" x="23" y="-157" font-family="Helvetica,sans-Serif" font-size="10.00">CLdb001A()</text>
<text text-anchor="start" x="8" y="-142" font-family="Helvetica,sans-Serif" font-size="10.00">+</text>
<text text-anchor="start" x="23" y="-142" font-family="Helvetica,sans-Serif" font-size="10.00">RunAsync()</text>
<text text-anchor="start" x="8" y="-127" font-family="Helvetica,sans-Serif" font-size="10.00">+</text>
<text text-anchor="start" x="23" y="-127" font-family="Helvetica,sans-Serif" font-size="10.00">Dispose()</text>
<text text-anchor="start" x="9.5" y="-112" font-family="Helvetica,sans-Serif" font-size="10.00">&#45;</text>
<text text-anchor="start" x="23" y="-112" font-family="Helvetica,sans-Serif" font-size="10.00">OnEquityChanged()</text>
<text text-anchor="start" x="9.5" y="-97" font-family="Helvetica,sans-Serif" font-size="10.00">&#45;</text>
<text text-anchor="start" x="23" y="-97" font-family="Helvetica,sans-Serif" font-size="10.00">OnTradeExecuted()</text>
<text text-anchor="start" x="9.5" y="-82" font-family="Helvetica,sans-Serif" font-size="10.00">&#45;</text>
<text text-anchor="start" x="23" y="-82" font-family="Helvetica,sans-Serif" font-size="10.00">OnStatusChanged()</text>
<text text-anchor="start" x="9.5" y="-67" font-family="Helvetica,sans-Serif" font-size="10.00">&#45;</text>
<text text-anchor="start" x="23" y="-67" font-family="Helvetica,sans-Serif" font-size="10.00">BuildDashboard()</text>
<text text-anchor="start" x="9.5" y="-52" font-family="Helvetica,sans-Serif" font-size="10.00">&#45;</text>
<text text-anchor="start" x="23" y="-52" font-family="Helvetica,sans-Serif" font-size="10.00">BuildStatusBar()</text>
<text text-anchor="start" x="9.5" y="-37" font-family="Helvetica,sans-Serif" font-size="10.00">&#45;</text>
<text text-anchor="start" x="23" y="-37" font-family="Helvetica,sans-Serif" font-size="10.00">BuildEquityPanel()</text>
<text text-anchor="start" x="9.5" y="-22" font-family="Helvetica,sans-Serif" font-size="10.00">&#45;</text>
<text text-anchor="start" x="23" y="-22" font-family="Helvetica,sans-Serif" font-size="10.00">BuildMetricsPanel()</text>
<text text-anchor="start" x="9.5" y="-7" font-family="Helvetica,sans-Serif" font-size="10.00">&#45;</text>
<text text-anchor="start" x="23" y="-7" font-family="Helvetica,sans-Serif" font-size="10.00">BuildTradesPanel()</text>
<polygon fill="#666666" stroke="#666666" points="0,-242 0,-242 122,-242 122,-242 0,-242"/>
<polygon fill="#666666" stroke="#666666" points="0,-167 0,-167 21,-167 21,-167 0,-167"/>
<polygon fill="#666666" stroke="#666666" points="21,-167 21,-167 122,-167 122,-167 21,-167"/>
<polygon fill="none" stroke="#666666" points="0,0 0,-270 122,-270 122,0 0,0"/>
</a>
</g>
</g>
<!-- Node2 -->
<g id="Node000002" class="node">
<title>Node2</title>
<g id="a_Node000002"><a xlink:title=" ">
<polygon fill="white" stroke="transparent" points="92,-355 30,-355 30,-306 92,-306 92,-355"/>
<text text-anchor="start" x="35" y="-342.5" font-family="Helvetica,sans-Serif" font-size="10.00">IDisposable</text>
<text text-anchor="start" x="59" y="-327.5" font-family="Helvetica,sans-Serif" font-size="10.00"> </text>
<text text-anchor="start" x="59" y="-312.5" font-family="Helvetica,sans-Serif" font-size="10.00"> </text>
<polygon fill="#666666" stroke="#666666" points="30,-337.5 30,-337.5 92,-337.5 92,-337.5 30,-337.5"/>
<polygon fill="#666666" stroke="#666666" points="30,-322.5 30,-322.5 92,-322.5 92,-322.5 30,-322.5"/>
<polygon fill="none" stroke="#666666" points="30,-306 30,-355 92,-355 92,-306 30,-306"/>
</a>
</g>
</g>
<!-- Node2&#45;&gt;Node1 -->
<g id="edge1_Node000001_Node000002" class="edge">
<title>Node2&#45;&gt;Node1</title>
<g id="a_edge1_Node000001_Node000002"><a xlink:title=" ">
<path fill="none" stroke="#63b8ff" d="M61,-295.56C61,-287.87 61,-279.25 61,-270.1"/>
<polygon fill="none" stroke="#63b8ff" points="57.5,-295.77 61,-305.77 64.5,-295.77 57.5,-295.77"/>
</a>
</g>
</g>
</g>
</svg>
</svg>

<style type='text/css'>
<![CDATA[
[data-mouse-over-selected='false'] { opacity: 0.7; }
[data-mouse-over-selected='true']  { opacity: 1.0; }
]]>
</style>
<script type="application/ecmascript"><![CDATA[
document.addEventListener('DOMContentLoaded', (event) => {
  highlightEdges();
  highlightAdjacentNodes();
});
]]></script>
</svg>
