<?xml version="1.0" encoding="UTF-8" standalone="no"?>
<!DOCTYPE svg PUBLIC "-//W3C//DTD SVG 1.1//EN"
 "http://www.w3.org/Graphics/SVG/1.1/DTD/svg11.dtd">
<!-- Generated by graphviz version 2.43.0 (0)
 -->
<!-- Title: Alaris.Core.Time.CRTM007AActual360 Pages: 1 -->
<svg width="140pt" height="198pt"
 viewBox="0.00 0.00 140.00 198.00" xmlns="http://www.w3.org/2000/svg" xmlns:xlink="http://www.w3.org/1999/xlink">
<g id="graph0" class="graph" transform="scale(1 1) rotate(0) translate(4 194)">
<title>Alaris.Core.Time.CRTM007AActual360</title>
<!-- Node1 -->
<g id="Node000001" class="node">
<title>Node1</title>
<g id="a_Node000001"><a xlink:title="Actual/360 day count convention. Common for money market instruments.">
<polygon fill="#999999" stroke="transparent" points="132,-90 0,-90 0,0 132,0 132,-90"/>
<text text-anchor="start" x="5" y="-78" font-family="Helvetica,sans-Serif" font-size="10.00">Alaris.Core.Time.CRTM007</text>
<text text-anchor="start" x="40.5" y="-67" font-family="Helvetica,sans-Serif" font-size="10.00">AActual360</text>
<text text-anchor="start" x="17" y="-52" font-family="Helvetica,sans-Serif" font-size="10.00">+</text>
<text text-anchor="start" x="41" y="-52" font-family="Helvetica,sans-Serif" font-size="10.00">Instance</text>
<text text-anchor="start" x="17" y="-37" font-family="Helvetica,sans-Serif" font-size="10.00">+</text>
<text text-anchor="start" x="41" y="-37" font-family="Helvetica,sans-Serif" font-size="10.00">Name</text>
<text text-anchor="start" x="17" y="-22" font-family="Helvetica,sans-Serif" font-size="10.00">+</text>
<text text-anchor="start" x="41" y="-22" font-family="Helvetica,sans-Serif" font-size="10.00">YearFraction()</text>
<text text-anchor="start" x="17" y="-7" font-family="Helvetica,sans-Serif" font-size="10.00">+</text>
<text text-anchor="start" x="41" y="-7" font-family="Helvetica,sans-Serif" font-size="10.00">DayCount()</text>
<polygon fill="#666666" stroke="#666666" points="0,-62 0,-62 132,-62 132,-62 0,-62"/>
<polygon fill="#666666" stroke="#666666" points="0,-32 0,-32 39,-32 39,-32 0,-32"/>
<polygon fill="#666666" stroke="#666666" points="39,-32 39,-32 132,-32 132,-32 39,-32"/>
<polygon fill="none" stroke="#666666" points="0,0 0,-90 132,-90 132,0 0,0"/>
</a>
</g>
</g>
<!-- Node2 -->
<g id="Node000002" class="node">
<title>Node2</title>
<g id="a_Node000002"><a xlink:href="../../d8/d01/interfaceAlaris_1_1Core_1_1Time_1_1IDayCounter.html" target="_top" xlink:title="Interface for day count conventions.">
<polygon fill="white" stroke="transparent" points="106,-190 26,-190 26,-126 106,-126 106,-190"/>
<text text-anchor="start" x="38" y="-178" font-family="Helvetica,sans-Serif" font-size="10.00">IDayCounter</text>
<text text-anchor="start" x="30" y="-163" font-family="Helvetica,sans-Serif" font-size="10.00">+</text>
<text text-anchor="start" x="41" y="-163" font-family="Helvetica,sans-Serif" font-size="10.00">Name</text>
<text text-anchor="start" x="30" y="-148" font-family="Helvetica,sans-Serif" font-size="10.00">+</text>
<text text-anchor="start" x="41" y="-148" font-family="Helvetica,sans-Serif" font-size="10.00">YearFraction()</text>
<text text-anchor="start" x="30" y="-133" font-family="Helvetica,sans-Serif" font-size="10.00">+</text>
<text text-anchor="start" x="41" y="-133" font-family="Helvetica,sans-Serif" font-size="10.00">DayCount()</text>
<polygon fill="#666666" stroke="#666666" points="26,-173 26,-173 106,-173 106,-173 26,-173"/>
<polygon fill="#666666" stroke="#666666" points="26,-158 26,-158 39,-158 39,-158 26,-158"/>
<polygon fill="#666666" stroke="#666666" points="39,-158 39,-158 106,-158 106,-158 39,-158"/>
<polygon fill="none" stroke="#666666" points="26,-126 26,-190 106,-190 106,-126 26,-126"/>
</a>
</g>
</g>
<!-- Node2&#45;&gt;Node1 -->
<g id="edge1_Node000001_Node000002" class="edge">
<title>Node2&#45;&gt;Node1</title>
<g id="a_edge1_Node000001_Node000002"><a xlink:title=" ">
<path fill="none" stroke="#63b8ff" d="M66,-115.6C66,-107.32 66,-98.6 66,-90.23"/>
<polygon fill="none" stroke="#63b8ff" points="62.5,-115.78 66,-125.78 69.5,-115.78 62.5,-115.78"/>
</a>
</g>
</g>
</g>
</svg>
