<?xml version="1.0" encoding="UTF-8" standalone="no"?>
<!DOCTYPE svg PUBLIC "-//W3C//DTD SVG 1.1//EN"
 "http://www.w3.org/Graphics/SVG/1.1/DTD/svg11.dtd">
<!-- Generated by graphviz version 2.43.0 (0)
 -->
<!-- Title: Alaris.Core.Time.IDayCounter Pages: 1 -->
<svg width="440pt" height="198pt"
 viewBox="0.00 0.00 440.00 198.00" xmlns="http://www.w3.org/2000/svg" xmlns:xlink="http://www.w3.org/1999/xlink">

<svg id="main" version="1.1" xmlns="http://www.w3.org/2000/svg" xmlns:xlink="http://www.w3.org/1999/xlink" xml:space="preserve" onload="init(evt)">
<style type="text/css"><![CDATA[
.node, .edge {opacity: 0.7;}
.node.selected, .edge.selected {opacity: 1;}
.edge:hover path { stroke: red; }
.edge:hover polygon { stroke: red; fill: red; }
]]></style>
<script type="application/ecmascript" xlink:href="../../svg.min.js"/>
<svg id="graph" class="graph">
<g id="graph0" class="graph" transform="scale(1 1) rotate(0) translate(4 194)">
<title>Alaris.Core.Time.IDayCounter</title>
<!-- Node1 -->
<g id="Node000001" class="node">
<title>Node1</title>
<g id="a_Node000001"><a xlink:title="Interface for day count conventions.">
<polygon fill="#999999" stroke="transparent" points="287.5,-190 144.5,-190 144.5,-126 287.5,-126 287.5,-190"/>
<text text-anchor="start" x="150" y="-178" font-family="Helvetica,sans-Serif" font-size="10.00">Alaris.Core.Time.IDayCounter</text>
<text text-anchor="start" x="164.5" y="-163" font-family="Helvetica,sans-Serif" font-size="10.00">+</text>
<text text-anchor="start" x="191" y="-163" font-family="Helvetica,sans-Serif" font-size="10.00">Name</text>
<text text-anchor="start" x="164.5" y="-148" font-family="Helvetica,sans-Serif" font-size="10.00">+</text>
<text text-anchor="start" x="191" y="-148" font-family="Helvetica,sans-Serif" font-size="10.00">YearFraction()</text>
<text text-anchor="start" x="164.5" y="-133" font-family="Helvetica,sans-Serif" font-size="10.00">+</text>
<text text-anchor="start" x="191" y="-133" font-family="Helvetica,sans-Serif" font-size="10.00">DayCount()</text>
<polygon fill="#666666" stroke="#666666" points="145,-173 145,-173 288,-173 288,-173 145,-173"/>
<polygon fill="#666666" stroke="#666666" points="145,-158 145,-158 189,-158 189,-158 145,-158"/>
<polygon fill="#666666" stroke="#666666" points="189,-158 189,-158 288,-158 288,-158 189,-158"/>
<polygon fill="none" stroke="#666666" points="144.5,-126 144.5,-190 287.5,-190 287.5,-126 144.5,-126"/>
</a>
</g>
</g>
<!-- Node2 -->
<g id="Node000002" class="node">
<title>Node2</title>
<g id="a_Node000002"><a xlink:href="../../d7/d01/classAlaris_1_1Core_1_1Time_1_1CRTM007AActual360.html" target="_top" xlink:title="Actual/360 day count convention. Common for money market instruments.">
<polygon fill="white" stroke="transparent" points="132,-90 0,-90 0,0 132,0 132,-90"/>
<text text-anchor="start" x="5" y="-78" font-family="Helvetica,sans-Serif" font-size="10.00">Alaris.Core.Time.CRTM007</text>
<text text-anchor="start" x="40.5" y="-67" font-family="Helvetica,sans-Serif" font-size="10.00">AActual360</text>
<text text-anchor="start" x="17" y="-52" font-family="Helvetica,sans-Serif" font-size="10.00">+</text>
<text text-anchor="start" x="41" y="-52" font-family="Helvetica,sans-Serif" font-size="10.00">Instance</text>
<text text-anchor="start" x="17" y="-37" font-family="Helvetica,sans-Serif" font-size="10.00">+</text>
<text text-anchor="start" x="41" y="-37" font-family="Helvetica,sans-Serif" font-size="10.00">Name</text>
<text text-anchor="start" x="17" y="-22" font-family="Helvetica,sans-Serif" font-size="10.00">+</text>
<text text-anchor="start" x="41" y="-22" font-family="Helvetica,sans-Serif" font-size="10.00">YearFraction()</text>
<text text-anchor="start" x="17" y="-7" font-family="Helvetica,sans-Serif" font-size="10.00">+</text>
<text text-anchor="start" x="41" y="-7" font-family="Helvetica,sans-Serif" font-size="10.00">DayCount()</text>
<polygon fill="#666666" stroke="#666666" points="0,-62 0,-62 132,-62 132,-62 0,-62"/>
<polygon fill="#666666" stroke="#666666" points="0,-32 0,-32 39,-32 39,-32 0,-32"/>
<polygon fill="#666666" stroke="#666666" points="39,-32 39,-32 132,-32 132,-32 39,-32"/>
<polygon fill="none" stroke="#666666" points="0,0 0,-90 132,-90 132,0 0,0"/>
</a>
</g>
</g>
<!-- Node1&#45;&gt;Node2 -->
<g id="edge1_Node000001_Node000002" class="edge">
<title>Node1&#45;&gt;Node2</title>
<g id="a_edge1_Node000001_Node000002"><a xlink:title=" ">
<path fill="none" stroke="#63b8ff" d="M165.54,-119.66C152.69,-110.15 138.75,-99.84 125.49,-90.02"/>
<polygon fill="none" stroke="#63b8ff" points="163.7,-122.65 173.82,-125.78 167.86,-117.02 163.7,-122.65"/>
</a>
</g>
</g>
<!-- Node3 -->
<g id="Node000003" class="node">
<title>Node3</title>
<g id="a_Node000003"><a xlink:href="../../da/d02/classAlaris_1_1Core_1_1Time_1_1CRTM007AActual365Fixed.html" target="_top" xlink:title="Actual/365 Fixed day count convention. This is the most common convention for equity options.">
<polygon fill="white" stroke="transparent" points="282,-90 150,-90 150,0 282,0 282,-90"/>
<text text-anchor="start" x="155" y="-78" font-family="Helvetica,sans-Serif" font-size="10.00">Alaris.Core.Time.CRTM007</text>
<text text-anchor="start" x="178.5" y="-67" font-family="Helvetica,sans-Serif" font-size="10.00">AActual365Fixed</text>
<text text-anchor="start" x="167" y="-52" font-family="Helvetica,sans-Serif" font-size="10.00">+</text>
<text text-anchor="start" x="191" y="-52" font-family="Helvetica,sans-Serif" font-size="10.00">Instance</text>
<text text-anchor="start" x="167" y="-37" font-family="Helvetica,sans-Serif" font-size="10.00">+</text>
<text text-anchor="start" x="191" y="-37" font-family="Helvetica,sans-Serif" font-size="10.00">Name</text>
<text text-anchor="start" x="167" y="-22" font-family="Helvetica,sans-Serif" font-size="10.00">+</text>
<text text-anchor="start" x="191" y="-22" font-family="Helvetica,sans-Serif" font-size="10.00">YearFraction()</text>
<text text-anchor="start" x="167" y="-7" font-family="Helvetica,sans-Serif" font-size="10.00">+</text>
<text text-anchor="start" x="191" y="-7" font-family="Helvetica,sans-Serif" font-size="10.00">DayCount()</text>
<polygon fill="#666666" stroke="#666666" points="150,-62 150,-62 282,-62 282,-62 150,-62"/>
<polygon fill="#666666" stroke="#666666" points="150,-32 150,-32 189,-32 189,-32 150,-32"/>
<polygon fill="#666666" stroke="#666666" points="189,-32 189,-32 282,-32 282,-32 189,-32"/>
<polygon fill="none" stroke="#666666" points="150,0 150,-90 282,-90 282,0 150,0"/>
</a>
</g>
</g>
<!-- Node1&#45;&gt;Node3 -->
<g id="edge2_Node000001_Node000003" class="edge">
<title>Node1&#45;&gt;Node3</title>
<g id="a_edge2_Node000001_Node000003"><a xlink:title=" ">
<path fill="none" stroke="#63b8ff" d="M216,-115.6C216,-107.32 216,-98.6 216,-90.23"/>
<polygon fill="none" stroke="#63b8ff" points="212.5,-115.78 216,-125.78 219.5,-115.78 212.5,-115.78"/>
</a>
</g>
</g>
<!-- Node4 -->
<g id="Node000004" class="node">
<title>Node4</title>
<g id="a_Node000004"><a xlink:href="../../d7/d03/classAlaris_1_1Core_1_1Time_1_1CRTM007AThirty360.html" target="_top" xlink:title="30/360 (ISDA) day count convention. Used for some corporate bonds.">
<polygon fill="white" stroke="transparent" points="432,-90 300,-90 300,0 432,0 432,-90"/>
<text text-anchor="start" x="305" y="-78" font-family="Helvetica,sans-Serif" font-size="10.00">Alaris.Core.Time.CRTM007</text>
<text text-anchor="start" x="342.5" y="-67" font-family="Helvetica,sans-Serif" font-size="10.00">AThirty360</text>
<text text-anchor="start" x="317" y="-52" font-family="Helvetica,sans-Serif" font-size="10.00">+</text>
<text text-anchor="start" x="341" y="-52" font-family="Helvetica,sans-Serif" font-size="10.00">Instance</text>
<text text-anchor="start" x="317" y="-37" font-family="Helvetica,sans-Serif" font-size="10.00">+</text>
<text text-anchor="start" x="341" y="-37" font-family="Helvetica,sans-Serif" font-size="10.00">Name</text>
<text text-anchor="start" x="317" y="-22" font-family="Helvetica,sans-Serif" font-size="10.00">+</text>
<text text-anchor="start" x="341" y="-22" font-family="Helvetica,sans-Serif" font-size="10.00">YearFraction()</text>
<text text-anchor="start" x="317" y="-7" font-family="Helvetica,sans-Serif" font-size="10.00">+</text>
<text text-anchor="start" x="341" y="-7" font-family="Helvetica,sans-Serif" font-size="10.00">DayCount()</text>
<polygon fill="#666666" stroke="#666666" points="300,-62 300,-62 432,-62 432,-62 300,-62"/>
<polygon fill="#666666" stroke="#666666" points="300,-32 300,-32 339,-32 339,-32 300,-32"/>
<polygon fill="#666666" stroke="#666666" points="339,-32 339,-32 432,-32 432,-32 339,-32"/>
<polygon fill="none" stroke="#666666" points="300,0 300,-90 432,-90 432,0 300,0"/>
</a>
</g>
</g>
<!-- Node1&#45;&gt;Node4 -->
<g id="edge3_Node000001_Node000004" class="edge">
<title>Node1&#45;&gt;Node4</title>
<g id="a_edge3_Node000001_Node000004"><a xlink:title=" ">
<path fill="none" stroke="#63b8ff" d="M266.46,-119.66C279.31,-110.15 293.25,-99.84 306.51,-90.02"/>
<polygon fill="none" stroke="#63b8ff" points="264.14,-117.02 258.18,-125.78 268.3,-122.65 264.14,-117.02"/>
</a>
</g>
</g>
</g>
</svg>
</svg>

<style type='text/css'>
<![CDATA[
[data-mouse-over-selected='false'] { opacity: 0.7; }
[data-mouse-over-selected='true']  { opacity: 1.0; }
]]>
</style>
<script type="application/ecmascript"><![CDATA[
document.addEventListener('DOMContentLoaded', (event) => {
  highlightEdges();
  highlightAdjacentNodes();
});
]]></script>
</svg>
