<?xml version="1.0" encoding="UTF-8" standalone="no"?>
<!DOCTYPE svg PUBLIC "-//W3C//DTD SVG 1.1//EN"
 "http://www.w3.org/Graphics/SVG/1.1/DTD/svg11.dtd">
<!-- Generated by graphviz version 2.43.0 (0)
 -->
<!-- Title: Alaris.Strategy.Cost.STCS005A Pages: 1 -->
<svg width="158pt" height="337pt"
 viewBox="0.00 0.00 158.00 337.00" xmlns="http://www.w3.org/2000/svg" xmlns:xlink="http://www.w3.org/1999/xlink">
<g id="graph0" class="graph" transform="scale(1 1) rotate(0) translate(4 333)">
<title>Alaris.Strategy.Cost.STCS005A</title>
<!-- Node1 -->
<g id="Node000001" class="node">
<title>Node1</title>
<g id="a_Node000001"><a xlink:title="Implements a constant per&#45;contract fee model for option execution costs.">
<polygon fill="#999999" stroke="transparent" points="150,-229 0,-229 0,0 150,0 150,-229"/>
<text text-anchor="start" x="5" y="-216.5" font-family="Helvetica,sans-Serif" font-size="10.00">Alaris.Strategy.Cost.STCS005A</text>
<text text-anchor="start" x="7" y="-201.5" font-family="Helvetica,sans-Serif" font-size="10.00">+</text>
<text text-anchor="start" x="21" y="-201.5" font-family="Helvetica,sans-Serif" font-size="10.00">DefaultFeePerContract</text>
<text text-anchor="start" x="7" y="-186.5" font-family="Helvetica,sans-Serif" font-size="10.00">+</text>
<text text-anchor="start" x="21" y="-186.5" font-family="Helvetica,sans-Serif" font-size="10.00">DefaultExchangeFee</text>
<text text-anchor="start" x="7" y="-171.5" font-family="Helvetica,sans-Serif" font-size="10.00">+</text>
<text text-anchor="start" x="21" y="-171.5" font-family="Helvetica,sans-Serif" font-size="10.00">DefaultRegulatoryFee</text>
<text text-anchor="start" x="7" y="-156.5" font-family="Helvetica,sans-Serif" font-size="10.00">+</text>
<text text-anchor="start" x="21" y="-156.5" font-family="Helvetica,sans-Serif" font-size="10.00">ModelName</text>
<text text-anchor="start" x="8.5" y="-141.5" font-family="Helvetica,sans-Serif" font-size="10.00">&#45;</text>
<text text-anchor="start" x="21" y="-141.5" font-family="Helvetica,sans-Serif" font-size="10.00">_logger</text>
<text text-anchor="start" x="8.5" y="-126.5" font-family="Helvetica,sans-Serif" font-size="10.00">&#45;</text>
<text text-anchor="start" x="21" y="-126.5" font-family="Helvetica,sans-Serif" font-size="10.00">_feePerContract</text>
<text text-anchor="start" x="8.5" y="-111.5" font-family="Helvetica,sans-Serif" font-size="10.00">&#45;</text>
<text text-anchor="start" x="21" y="-111.5" font-family="Helvetica,sans-Serif" font-size="10.00">_exchangeFeePerContract</text>
<text text-anchor="start" x="8.5" y="-96.5" font-family="Helvetica,sans-Serif" font-size="10.00">&#45;</text>
<text text-anchor="start" x="21" y="-96.5" font-family="Helvetica,sans-Serif" font-size="10.00">_regulatoryFeePerContract</text>
<text text-anchor="start" x="8.5" y="-81.5" font-family="Helvetica,sans-Serif" font-size="10.00">&#45;</text>
<text text-anchor="start" x="21" y="-81.5" font-family="Helvetica,sans-Serif" font-size="10.00">LogCostComputed</text>
<text text-anchor="start" x="8.5" y="-66.5" font-family="Helvetica,sans-Serif" font-size="10.00">&#45;</text>
<text text-anchor="start" x="21" y="-66.5" font-family="Helvetica,sans-Serif" font-size="10.00">LogSpreadCostComputed</text>
<text text-anchor="start" x="7" y="-51.5" font-family="Helvetica,sans-Serif" font-size="10.00">+</text>
<text text-anchor="start" x="21" y="-51.5" font-family="Helvetica,sans-Serif" font-size="10.00">STCS005A()</text>
<text text-anchor="start" x="7" y="-36.5" font-family="Helvetica,sans-Serif" font-size="10.00">+</text>
<text text-anchor="start" x="21" y="-36.5" font-family="Helvetica,sans-Serif" font-size="10.00">ComputeOptionCost()</text>
<text text-anchor="start" x="7" y="-21.5" font-family="Helvetica,sans-Serif" font-size="10.00">+</text>
<text text-anchor="start" x="21" y="-21.5" font-family="Helvetica,sans-Serif" font-size="10.00">ComputeSpreadCost()</text>
<text text-anchor="start" x="8.5" y="-6.5" font-family="Helvetica,sans-Serif" font-size="10.00">&#45;</text>
<text text-anchor="start" x="21" y="-6.5" font-family="Helvetica,sans-Serif" font-size="10.00">SafeLog()</text>
<polygon fill="#666666" stroke="#666666" points="0,-211.5 0,-211.5 150,-211.5 150,-211.5 0,-211.5"/>
<polygon fill="#666666" stroke="#666666" points="0,-61.5 0,-61.5 19,-61.5 19,-61.5 0,-61.5"/>
<polygon fill="#666666" stroke="#666666" points="19,-61.5 19,-61.5 150,-61.5 150,-61.5 19,-61.5"/>
<polygon fill="none" stroke="#666666" points="0,0 0,-229 150,-229 150,0 0,0"/>
</a>
</g>
</g>
<!-- Node2 -->
<g id="Node000002" class="node">
<title>Node2</title>
<g id="a_Node000002"><a xlink:href="../../df/d02/interfaceAlaris_1_1Strategy_1_1Cost_1_1STCS001A.html" target="_top" xlink:title="Defines the contract for execution cost models.">
<polygon fill="white" stroke="transparent" points="133.5,-329 16.5,-329 16.5,-265 133.5,-265 133.5,-329"/>
<text text-anchor="start" x="50.5" y="-317" font-family="Helvetica,sans-Serif" font-size="10.00">STCS001A</text>
<text text-anchor="start" x="21" y="-302" font-family="Helvetica,sans-Serif" font-size="10.00">+</text>
<text text-anchor="start" x="32" y="-302" font-family="Helvetica,sans-Serif" font-size="10.00">ModelName</text>
<text text-anchor="start" x="21" y="-287" font-family="Helvetica,sans-Serif" font-size="10.00">+</text>
<text text-anchor="start" x="32" y="-287" font-family="Helvetica,sans-Serif" font-size="10.00">ComputeOptionCost()</text>
<text text-anchor="start" x="21" y="-272" font-family="Helvetica,sans-Serif" font-size="10.00">+</text>
<text text-anchor="start" x="32" y="-272" font-family="Helvetica,sans-Serif" font-size="10.00">ComputeSpreadCost()</text>
<polygon fill="#666666" stroke="#666666" points="17,-312 17,-312 134,-312 134,-312 17,-312"/>
<polygon fill="#666666" stroke="#666666" points="17,-297 17,-297 30,-297 30,-297 17,-297"/>
<polygon fill="#666666" stroke="#666666" points="30,-297 30,-297 134,-297 134,-297 30,-297"/>
<polygon fill="none" stroke="#666666" points="16.5,-265 16.5,-329 133.5,-329 133.5,-265 16.5,-265"/>
</a>
</g>
</g>
<!-- Node2&#45;&gt;Node1 -->
<g id="edge1_Node000001_Node000002" class="edge">
<title>Node2&#45;&gt;Node1</title>
<g id="a_edge1_Node000001_Node000002"><a xlink:title=" ">
<path fill="none" stroke="#63b8ff" d="M75,-254.89C75,-246.87 75,-238.11 75,-229"/>
<polygon fill="none" stroke="#63b8ff" points="71.5,-254.97 75,-264.97 78.5,-254.97 71.5,-254.97"/>
</a>
</g>
</g>
</g>
</svg>
