<?xml version="1.0" encoding="UTF-8" standalone="no"?>
<!DOCTYPE svg PUBLIC "-//W3C//DTD SVG 1.1//EN"
 "http://www.w3.org/Graphics/SVG/1.1/DTD/svg11.dtd">
<!-- Generated by graphviz version 2.43.0 (0)
 -->
<!-- Title: Alaris.Core.TermStructure.CRTS002AFlatVol Pages: 1 -->
<svg width="135pt" height="288pt"
 viewBox="0.00 0.00 135.00 288.00" xmlns="http://www.w3.org/2000/svg" xmlns:xlink="http://www.w3.org/1999/xlink">

<svg id="main" version="1.1" xmlns="http://www.w3.org/2000/svg" xmlns:xlink="http://www.w3.org/1999/xlink" xml:space="preserve" onload="init(evt)">
<style type="text/css"><![CDATA[
.node, .edge {opacity: 0.7;}
.node.selected, .edge.selected {opacity: 1;}
.edge:hover path { stroke: red; }
.edge:hover polygon { stroke: red; fill: red; }
]]></style>
<script type="application/ecmascript" xlink:href="../../svg.min.js"/>
<svg id="graph" class="graph">
<g id="graph0" class="graph" transform="scale(1 1) rotate(0) translate(4 284)">
<title>Alaris.Core.TermStructure.CRTS002AFlatVol</title>
<!-- Node1 -->
<g id="Node000001" class="node">
<title>Node1</title>
<g id="a_Node000001"><a xlink:title="Flat Black volatility surface with constant volatility. Replaces QuantLib BlackConstantVol.">
<polygon fill="#999999" stroke="transparent" points="127,-150 0,-150 0,0 127,0 127,-150"/>
<text text-anchor="start" x="5.5" y="-138" font-family="Helvetica,sans-Serif" font-size="10.00">Alaris.Core.TermStructure.</text>
<text text-anchor="start" x="23" y="-127" font-family="Helvetica,sans-Serif" font-size="10.00">CRTS002AFlatVol</text>
<text text-anchor="start" x="9.5" y="-112" font-family="Helvetica,sans-Serif" font-size="10.00">+</text>
<text text-anchor="start" x="25.5" y="-112" font-family="Helvetica,sans-Serif" font-size="10.00">ReferenceDate</text>
<text text-anchor="start" x="9.5" y="-97" font-family="Helvetica,sans-Serif" font-size="10.00">+</text>
<text text-anchor="start" x="25.5" y="-97" font-family="Helvetica,sans-Serif" font-size="10.00">DayCounter</text>
<text text-anchor="start" x="9.5" y="-82" font-family="Helvetica,sans-Serif" font-size="10.00">+</text>
<text text-anchor="start" x="25.5" y="-82" font-family="Helvetica,sans-Serif" font-size="10.00">Volatility</text>
<text text-anchor="start" x="11" y="-67" font-family="Helvetica,sans-Serif" font-size="10.00">&#45;</text>
<text text-anchor="start" x="25.5" y="-67" font-family="Helvetica,sans-Serif" font-size="10.00">_volatility</text>
<text text-anchor="start" x="9.5" y="-52" font-family="Helvetica,sans-Serif" font-size="10.00">+</text>
<text text-anchor="start" x="25.5" y="-52" font-family="Helvetica,sans-Serif" font-size="10.00">CRTS002AFlatVol()</text>
<text text-anchor="start" x="9.5" y="-37" font-family="Helvetica,sans-Serif" font-size="10.00">+</text>
<text text-anchor="start" x="25.5" y="-37" font-family="Helvetica,sans-Serif" font-size="10.00">BlackVol()</text>
<text text-anchor="start" x="9.5" y="-22" font-family="Helvetica,sans-Serif" font-size="10.00">+</text>
<text text-anchor="start" x="25.5" y="-22" font-family="Helvetica,sans-Serif" font-size="10.00">BlackVariance()</text>
<text text-anchor="start" x="9.5" y="-7" font-family="Helvetica,sans-Serif" font-size="10.00">+</text>
<text text-anchor="start" x="25.5" y="-7" font-family="Helvetica,sans-Serif" font-size="10.00">BlackVol()</text>
<polygon fill="#666666" stroke="#666666" points="0.5,-122 0.5,-122 127.5,-122 127.5,-122 0.5,-122"/>
<polygon fill="#666666" stroke="#666666" points="0.5,-62 0.5,-62 23.5,-62 23.5,-62 0.5,-62"/>
<polygon fill="#666666" stroke="#666666" points="23.5,-62 23.5,-62 127.5,-62 127.5,-62 23.5,-62"/>
<polygon fill="none" stroke="#666666" points="0,0 0,-150 127,-150 127,0 0,0"/>
</a>
</g>
</g>
<!-- Node2 -->
<g id="Node000002" class="node">
<title>Node2</title>
<g id="a_Node000002"><a xlink:href="../../db/d02/interfaceAlaris_1_1Core_1_1TermStructure_1_1IVolatilitySurface.html" target="_top" xlink:title="Interface for Black volatility term structures (volatility surfaces). Replaces QuantLib BlackVolTermS...">
<polygon fill="white" stroke="transparent" points="107.5,-280 19.5,-280 19.5,-186 107.5,-186 107.5,-280"/>
<text text-anchor="start" x="26" y="-268" font-family="Helvetica,sans-Serif" font-size="10.00">IVolatilitySurface</text>
<text text-anchor="start" x="23.5" y="-253" font-family="Helvetica,sans-Serif" font-size="10.00">+</text>
<text text-anchor="start" x="34.5" y="-253" font-family="Helvetica,sans-Serif" font-size="10.00">ReferenceDate</text>
<text text-anchor="start" x="23.5" y="-238" font-family="Helvetica,sans-Serif" font-size="10.00">+</text>
<text text-anchor="start" x="34.5" y="-238" font-family="Helvetica,sans-Serif" font-size="10.00">DayCounter</text>
<text text-anchor="start" x="23.5" y="-223" font-family="Helvetica,sans-Serif" font-size="10.00">+</text>
<text text-anchor="start" x="34.5" y="-223" font-family="Helvetica,sans-Serif" font-size="10.00">BlackVol()</text>
<text text-anchor="start" x="23.5" y="-208" font-family="Helvetica,sans-Serif" font-size="10.00">+</text>
<text text-anchor="start" x="34.5" y="-208" font-family="Helvetica,sans-Serif" font-size="10.00">BlackVariance()</text>
<text text-anchor="start" x="23.5" y="-193" font-family="Helvetica,sans-Serif" font-size="10.00">+</text>
<text text-anchor="start" x="34.5" y="-193" font-family="Helvetica,sans-Serif" font-size="10.00">BlackVol()</text>
<polygon fill="#666666" stroke="#666666" points="19.5,-263 19.5,-263 107.5,-263 107.5,-263 19.5,-263"/>
<polygon fill="#666666" stroke="#666666" points="19.5,-233 19.5,-233 32.5,-233 32.5,-233 19.5,-233"/>
<polygon fill="#666666" stroke="#666666" points="32.5,-233 32.5,-233 107.5,-233 107.5,-233 32.5,-233"/>
<polygon fill="none" stroke="#666666" points="19.5,-186 19.5,-280 107.5,-280 107.5,-186 19.5,-186"/>
</a>
</g>
</g>
<!-- Node2&#45;&gt;Node1 -->
<g id="edge1_Node000001_Node000002" class="edge">
<title>Node2&#45;&gt;Node1</title>
<g id="a_edge1_Node000001_Node000002"><a xlink:title=" ">
<path fill="none" stroke="#63b8ff" d="M63.5,-175.45C63.5,-167.26 63.5,-158.73 63.5,-150.26"/>
<polygon fill="none" stroke="#63b8ff" points="60,-175.62 63.5,-185.62 67,-175.62 60,-175.62"/>
</a>
</g>
</g>
</g>
</svg>
</svg>

<style type='text/css'>
<![CDATA[
[data-mouse-over-selected='false'] { opacity: 0.7; }
[data-mouse-over-selected='true']  { opacity: 1.0; }
]]>
</style>
<script type="application/ecmascript"><![CDATA[
document.addEventListener('DOMContentLoaded', (event) => {
  highlightEdges();
  highlightAdjacentNodes();
});
]]></script>
</svg>
