<?xml version="1.0" encoding="UTF-8" standalone="no"?>
<!DOCTYPE svg PUBLIC "-//W3C//DTD SVG 1.1//EN"
 "http://www.w3.org/Graphics/SVG/1.1/DTD/svg11.dtd">
<!-- Generated by graphviz version 2.43.0 (0)
 -->
<!-- Title: Alaris.Host.Application.Service.APsv002A Pages: 1 -->
<!--zoomable 803 -->

<svg id="main" version="1.1" xmlns="http://www.w3.org/2000/svg" xmlns:xlink="http://www.w3.org/1999/xlink" xml:space="preserve" onload="init(evt)">
<style type="text/css"><![CDATA[
.node, .edge {opacity: 0.7;}
.node.selected, .edge.selected {opacity: 1;}
.edge:hover path { stroke: red; }
.edge:hover polygon { stroke: red; fill: red; }
]]></style>

<defs>
  <circle id="rim" cx="0" cy="0" r="7"/>
  <circle id="rim2" cx="0" cy="0" r="3.5"/>
  <g id="zoomPlus">
    <use xlink:href="#rim" fill="#404040"><set attributeName="fill" to="#808080" begin="zoomplus.mouseover" end="zoomplus.mouseout"/></use>
    <path d="M-4,0h8M0,-4v8" fill="none" stroke="white" stroke-width="1.5" pointer-events="none"/>
  </g>
  <g id="zoomMin">
    <use xlink:href="#rim" fill="#404040"><set attributeName="fill" to="#808080" begin="zoomminus.mouseover" end="zoomminus.mouseout"/></use>
    <path d="M-4,0h8" fill="none" stroke="white" stroke-width="1.5" pointer-events="none"/>
  </g>
  <g id="arrowUp" transform="translate(30 24)">
    <use xlink:href="#rim"/>
    <path pointer-events="none" fill="none" stroke="white" stroke-width="1.5" d="M0,-3.0v7 M-2.5,-0.5L0,-3.0L2.5,-0.5"/>
  </g>
  <g id="arrowRight" transform="rotate(90) translate(36 -43)">
    <use xlink:href="#rim"/>
    <path pointer-events="none" fill="none" stroke="white" stroke-width="1.5" d="M0,-3.0v7 M-2.5,-0.5L0,-3.0L2.5,-0.5"/>
  </g>
  <g id="arrowDown" transform="rotate(180) translate(-30 -48)">
    <use xlink:href="#rim"/>
    <path pointer-events="none" fill="none" stroke="white" stroke-width="1.5" d="M0,-3.0v7 M-2.5,-0.5L0,-3.0L2.5,-0.5"/>
  </g>
  <g id="arrowLeft" transform="rotate(270) translate(-36 17)">
    <use xlink:href="#rim"/>
    <path pointer-events="none" fill="none" stroke="white" stroke-width="1.5" d="M0,-3.0v7 M-2.5,-0.5L0,-3.0L2.5,-0.5"/>
  </g>
  <g id="resetDef">
    <use xlink:href="#rim2" fill="#404040"><set attributeName="fill" to="#808080" begin="reset.mouseover" end="reset.mouseout"/></use>
  </g>
</defs>
<script type="application/ecmascript">
var viewWidth = 1044;
var viewHeight = 803;
var sectionId = 'dynsection-1';
</script>
<script type="application/ecmascript" xlink:href="../../svg.min.js"/>
<svg id="graph" class="graph">
<g id="viewport">
<title>Alaris.Host.Application.Service.APsv002A</title>
<!-- Node1 -->
<g id="Node000001" class="node">
<title>Node1</title>
<g id="a_Node000001"><a xlink:title="Service for downloading and preparing session data. Component ID: APsv002A.">
<polygon fill="#999999" stroke="transparent" points="445.5,-307 269.5,-307 269.5,0 445.5,0 445.5,-307"/>
<text text-anchor="start" x="306" y="-294.5" font-family="Helvetica,sans-Serif" font-size="10.00">Alaris.Host.Application.</text>
<text text-anchor="start" x="316" y="-283.5" font-family="Helvetica,sans-Serif" font-size="10.00">Service.APsv002A</text>
<text text-anchor="start" x="275" y="-268.5" font-family="Helvetica,sans-Serif" font-size="10.00">&#45;</text>
<text text-anchor="start" x="284.5" y="-268.5" font-family="Helvetica,sans-Serif" font-size="10.00">_logger</text>
<text text-anchor="start" x="275" y="-253.5" font-family="Helvetica,sans-Serif" font-size="10.00">&#45;</text>
<text text-anchor="start" x="284.5" y="-253.5" font-family="Helvetica,sans-Serif" font-size="10.00">JsonOptions</text>
<text text-anchor="start" x="273.5" y="-238.5" font-family="Helvetica,sans-Serif" font-size="10.00">+</text>
<text text-anchor="start" x="284.5" y="-238.5" font-family="Helvetica,sans-Serif" font-size="10.00">APsv002A()</text>
<text text-anchor="start" x="273.5" y="-223.5" font-family="Helvetica,sans-Serif" font-size="10.00">+</text>
<text text-anchor="start" x="284.5" y="-223.5" font-family="Helvetica,sans-Serif" font-size="10.00">DownloadEquityDataAsync()</text>
<text text-anchor="start" x="273.5" y="-208.5" font-family="Helvetica,sans-Serif" font-size="10.00">+</text>
<text text-anchor="start" x="284.5" y="-208.5" font-family="Helvetica,sans-Serif" font-size="10.00">BootstrapEarningsCalendar</text>
<text text-anchor="start" x="284.5" y="-197.5" font-family="Helvetica,sans-Serif" font-size="10.00">Async()</text>
<text text-anchor="start" x="273.5" y="-182.5" font-family="Helvetica,sans-Serif" font-size="10.00">+</text>
<text text-anchor="start" x="284.5" y="-182.5" font-family="Helvetica,sans-Serif" font-size="10.00">BootstrapOptionsDataAsync()</text>
<text text-anchor="start" x="273.5" y="-167.5" font-family="Helvetica,sans-Serif" font-size="10.00">+</text>
<text text-anchor="start" x="284.5" y="-167.5" font-family="Helvetica,sans-Serif" font-size="10.00">BootstrapSessionDataAsync()</text>
<text text-anchor="start" x="273.5" y="-152.5" font-family="Helvetica,sans-Serif" font-size="10.00">+</text>
<text text-anchor="start" x="284.5" y="-152.5" font-family="Helvetica,sans-Serif" font-size="10.00">Dispose()</text>
<text text-anchor="start" x="275" y="-137.5" font-family="Helvetica,sans-Serif" font-size="10.00">&#45;</text>
<text text-anchor="start" x="284.5" y="-137.5" font-family="Helvetica,sans-Serif" font-size="10.00">GenerateMapFileAsync()</text>
<text text-anchor="start" x="275" y="-122.5" font-family="Helvetica,sans-Serif" font-size="10.00">&#45;</text>
<text text-anchor="start" x="284.5" y="-122.5" font-family="Helvetica,sans-Serif" font-size="10.00">GenerateFactorFileAsync()</text>
<text text-anchor="start" x="275" y="-107.5" font-family="Helvetica,sans-Serif" font-size="10.00">&#45;</text>
<text text-anchor="start" x="284.5" y="-107.5" font-family="Helvetica,sans-Serif" font-size="10.00">DownloadPriceDataWithBenchmark</text>
<text text-anchor="start" x="284.5" y="-96.5" font-family="Helvetica,sans-Serif" font-size="10.00">Async()</text>
<text text-anchor="start" x="275" y="-81.5" font-family="Helvetica,sans-Serif" font-size="10.00">&#45;</text>
<text text-anchor="start" x="284.5" y="-81.5" font-family="Helvetica,sans-Serif" font-size="10.00">DownloadInterestRatesAsync()</text>
<text text-anchor="start" x="275" y="-66.5" font-family="Helvetica,sans-Serif" font-size="10.00">&#45;</text>
<text text-anchor="start" x="284.5" y="-66.5" font-family="Helvetica,sans-Serif" font-size="10.00">ComputeOptionsRequiredDates()</text>
<text text-anchor="start" x="275" y="-51.5" font-family="Helvetica,sans-Serif" font-size="10.00">&#45;</text>
<text text-anchor="start" x="284.5" y="-51.5" font-family="Helvetica,sans-Serif" font-size="10.00">CopySystemFiles()</text>
<text text-anchor="start" x="275" y="-36.5" font-family="Helvetica,sans-Serif" font-size="10.00">&#45;</text>
<text text-anchor="start" x="284.5" y="-36.5" font-family="Helvetica,sans-Serif" font-size="10.00">SaveAsLeanZipAsync()</text>
<text text-anchor="start" x="275" y="-21.5" font-family="Helvetica,sans-Serif" font-size="10.00">&#45;</text>
<text text-anchor="start" x="284.5" y="-21.5" font-family="Helvetica,sans-Serif" font-size="10.00">FindLeanDataPath()</text>
<text text-anchor="start" x="275" y="-6.5" font-family="Helvetica,sans-Serif" font-size="10.00">&#45;</text>
<text text-anchor="start" x="284.5" y="-6.5" font-family="Helvetica,sans-Serif" font-size="10.00">CopyDirectory()</text>
<polygon fill="#666666" stroke="#666666" points="269.5,-278.5 269.5,-278.5 445.5,-278.5 445.5,-278.5 269.5,-278.5"/>
<polygon fill="#666666" stroke="#666666" points="269.5,-248.5 269.5,-248.5 282.5,-248.5 282.5,-248.5 269.5,-248.5"/>
<polygon fill="#666666" stroke="#666666" points="282.5,-248.5 282.5,-248.5 445.5,-248.5 445.5,-248.5 282.5,-248.5"/>
<polygon fill="none" stroke="#666666" points="269.5,0 269.5,-307 445.5,-307 445.5,0 269.5,0"/>
</a>
</g>
</g>
<!-- Node2 -->
<g id="Node000002" class="node">
<title>Node2</title>
<g id="a_Node000002"><a xlink:title=" ">
<polygon fill="white" stroke="transparent" points="156.5,-521 94.5,-521 94.5,-472 156.5,-472 156.5,-521"/>
<text text-anchor="start" x="99.5" y="-508.5" font-family="Helvetica,sans-Serif" font-size="10.00">IDisposable</text>
<text text-anchor="start" x="123.5" y="-493.5" font-family="Helvetica,sans-Serif" font-size="10.00"> </text>
<text text-anchor="start" x="123.5" y="-478.5" font-family="Helvetica,sans-Serif" font-size="10.00"> </text>
<polygon fill="#666666" stroke="#666666" points="94.5,-503.5 94.5,-503.5 156.5,-503.5 156.5,-503.5 94.5,-503.5"/>
<polygon fill="#666666" stroke="#666666" points="94.5,-488.5 94.5,-488.5 156.5,-488.5 156.5,-488.5 94.5,-488.5"/>
<polygon fill="none" stroke="#666666" points="94.5,-472 94.5,-521 156.5,-521 156.5,-472 94.5,-472"/>
</a>
</g>
</g>
<!-- Node2&#45;&gt;Node1 -->
<g id="edge1_Node000001_Node000002" class="edge">
<title>Node2&#45;&gt;Node1</title>
<g id="a_edge1_Node000001_Node000002"><a xlink:title=" ">
<path fill="none" stroke="#63b8ff" d="M130.23,-461.91C135.52,-432.04 146.01,-387.97 165.5,-354 192.29,-307.3 232.39,-263.28 269.03,-228.53"/>
<polygon fill="none" stroke="#63b8ff" points="126.77,-461.4 128.58,-471.84 133.67,-462.55 126.77,-461.4"/>
</a>
</g>
</g>
<!-- Node3 -->
<g id="Node000003" class="node">
<title>Node3</title>
<g id="a_Node000003"><a xlink:href="../../d7/d00/classAlaris_1_1Infrastructure_1_1Data_1_1Provider_1_1Polygon_1_1PolygonApiClient.html" target="_top" xlink:title="Polygon.io REST API client for market data retrieval. Component ID: DTpr001A.">
<polygon fill="white" stroke="transparent" points="342,-607 175,-607 175,-386 342,-386 342,-607"/>
<text text-anchor="start" x="183" y="-594.5" font-family="Helvetica,sans-Serif" font-size="10.00">Alaris.Infrastructure.Data.</text>
<text text-anchor="start" x="183" y="-583.5" font-family="Helvetica,sans-Serif" font-size="10.00">Provider.Polygon.PolygonApiClient</text>
<text text-anchor="start" x="181" y="-568.5" font-family="Helvetica,sans-Serif" font-size="10.00">&#45;</text>
<text text-anchor="start" x="190.5" y="-568.5" font-family="Helvetica,sans-Serif" font-size="10.00">_logger</text>
<text text-anchor="start" x="181" y="-553.5" font-family="Helvetica,sans-Serif" font-size="10.00">&#45;</text>
<text text-anchor="start" x="190.5" y="-553.5" font-family="Helvetica,sans-Serif" font-size="10.00">_apiKey</text>
<text text-anchor="start" x="181" y="-538.5" font-family="Helvetica,sans-Serif" font-size="10.00">&#45;</text>
<text text-anchor="start" x="190.5" y="-538.5" font-family="Helvetica,sans-Serif" font-size="10.00">underlying</text>
<text text-anchor="start" x="181" y="-523.5" font-family="Helvetica,sans-Serif" font-size="10.00">&#45;</text>
<text text-anchor="start" x="190.5" y="-523.5" font-family="Helvetica,sans-Serif" font-size="10.00">strike</text>
<text text-anchor="start" x="181" y="-508.5" font-family="Helvetica,sans-Serif" font-size="10.00">&#45;</text>
<text text-anchor="start" x="190.5" y="-508.5" font-family="Helvetica,sans-Serif" font-size="10.00">expiration</text>
<text text-anchor="start" x="179.5" y="-493.5" font-family="Helvetica,sans-Serif" font-size="10.00">+</text>
<text text-anchor="start" x="190.5" y="-493.5" font-family="Helvetica,sans-Serif" font-size="10.00">PolygonApiClient()</text>
<text text-anchor="start" x="179.5" y="-478.5" font-family="Helvetica,sans-Serif" font-size="10.00">+</text>
<text text-anchor="start" x="190.5" y="-478.5" font-family="Helvetica,sans-Serif" font-size="10.00">GetHistoricalBarsAsync()</text>
<text text-anchor="start" x="179.5" y="-463.5" font-family="Helvetica,sans-Serif" font-size="10.00">+</text>
<text text-anchor="start" x="190.5" y="-463.5" font-family="Helvetica,sans-Serif" font-size="10.00">GetOptionChainAsync()</text>
<text text-anchor="start" x="179.5" y="-448.5" font-family="Helvetica,sans-Serif" font-size="10.00">+</text>
<text text-anchor="start" x="190.5" y="-448.5" font-family="Helvetica,sans-Serif" font-size="10.00">GetHistoricalOptionChain</text>
<text text-anchor="start" x="190.5" y="-437.5" font-family="Helvetica,sans-Serif" font-size="10.00">Async()</text>
<text text-anchor="start" x="179.5" y="-422.5" font-family="Helvetica,sans-Serif" font-size="10.00">+</text>
<text text-anchor="start" x="190.5" y="-422.5" font-family="Helvetica,sans-Serif" font-size="10.00">GetSpotPriceAsync()</text>
<text text-anchor="start" x="179.5" y="-407.5" font-family="Helvetica,sans-Serif" font-size="10.00">+</text>
<text text-anchor="start" x="190.5" y="-407.5" font-family="Helvetica,sans-Serif" font-size="10.00">GetAverageVolume30DayAsync()</text>
<text text-anchor="start" x="181" y="-392.5" font-family="Helvetica,sans-Serif" font-size="10.00">&#45;</text>
<text text-anchor="start" x="190.5" y="-392.5" font-family="Helvetica,sans-Serif" font-size="10.00">ParseOptionTicker()</text>
<polygon fill="#666666" stroke="#666666" points="175.5,-578.5 175.5,-578.5 342.5,-578.5 342.5,-578.5 175.5,-578.5"/>
<polygon fill="#666666" stroke="#666666" points="175.5,-503.5 175.5,-503.5 188.5,-503.5 188.5,-503.5 175.5,-503.5"/>
<polygon fill="#666666" stroke="#666666" points="188.5,-503.5 188.5,-503.5 342.5,-503.5 342.5,-503.5 188.5,-503.5"/>
<polygon fill="none" stroke="#666666" points="175,-386 175,-607 342,-607 342,-386 175,-386"/>
</a>
</g>
</g>
<!-- Node3&#45;&gt;Node1 -->
<g id="edge2_Node000001_Node000003" class="edge">
<title>Node3&#45;&gt;Node1</title>
<g id="a_edge2_Node000001_Node000003"><a xlink:title=" ">
<path fill="none" stroke="#63b8ff" d="M290.37,-385.73C296.55,-364.42 303.16,-341.66 309.73,-319.04"/>
<polygon fill="none" stroke="#63b8ff" points="309.81,-318.76 307.64,-311.88 313.16,-307.24 315.33,-314.11 309.81,-318.76"/>
</a>
</g>
<text text-anchor="middle" x="344" y="-328" font-family="Helvetica,sans-Serif" font-size="10.00" fill="grey"> &#45;_polygonClient</text>
</g>
<!-- Node4 -->
<g id="Node000004" class="node">
<title>Node4</title>
<g id="a_Node000004"><a xlink:href="../../d4/d02/interfaceAlaris_1_1Infrastructure_1_1Data_1_1Provider_1_1DTpr003A.html" target="_top" xlink:title="Interface for market data providers (Polygon, IBKR, etc.).">
<polygon fill="white" stroke="transparent" points="167,-787.5 0,-787.5 0,-693.5 167,-693.5 167,-787.5"/>
<text text-anchor="start" x="61.5" y="-775.5" font-family="Helvetica,sans-Serif" font-size="10.00">DTpr003A</text>
<text text-anchor="start" x="82" y="-760.5" font-family="Helvetica,sans-Serif" font-size="10.00"> </text>
<text text-anchor="start" x="4.5" y="-745.5" font-family="Helvetica,sans-Serif" font-size="10.00">+</text>
<text text-anchor="start" x="15.5" y="-745.5" font-family="Helvetica,sans-Serif" font-size="10.00">GetHistoricalBarsAsync()</text>
<text text-anchor="start" x="4.5" y="-730.5" font-family="Helvetica,sans-Serif" font-size="10.00">+</text>
<text text-anchor="start" x="15.5" y="-730.5" font-family="Helvetica,sans-Serif" font-size="10.00">GetOptionChainAsync()</text>
<text text-anchor="start" x="4.5" y="-715.5" font-family="Helvetica,sans-Serif" font-size="10.00">+</text>
<text text-anchor="start" x="15.5" y="-715.5" font-family="Helvetica,sans-Serif" font-size="10.00">GetSpotPriceAsync()</text>
<text text-anchor="start" x="4.5" y="-700.5" font-family="Helvetica,sans-Serif" font-size="10.00">+</text>
<text text-anchor="start" x="15.5" y="-700.5" font-family="Helvetica,sans-Serif" font-size="10.00">GetAverageVolume30DayAsync()</text>
<polygon fill="#666666" stroke="#666666" points="0.5,-770.5 0.5,-770.5 167.5,-770.5 167.5,-770.5 0.5,-770.5"/>
<polygon fill="#666666" stroke="#666666" points="0.5,-755.5 0.5,-755.5 167.5,-755.5 167.5,-755.5 0.5,-755.5"/>
<polygon fill="none" stroke="#666666" points="0,-693.5 0,-787.5 167,-787.5 167,-693.5 0,-693.5"/>
</a>
</g>
</g>
<!-- Node4&#45;&gt;Node3 -->
<g id="edge3_Node000003_Node000004" class="edge">
<title>Node4&#45;&gt;Node3</title>
<g id="a_edge3_Node000003_Node000004"><a xlink:title=" ">
<path fill="none" stroke="#63b8ff" d="M129.5,-685.21C141.52,-670.46 154.26,-654.32 165.5,-639 172.98,-628.81 180.57,-618.05 188.02,-607.2"/>
<polygon fill="none" stroke="#63b8ff" points="126.54,-683.3 122.9,-693.25 131.95,-687.74 126.54,-683.3"/>
</a>
</g>
</g>
<!-- Node5 -->
<g id="Node000005" class="node">
<title>Node5</title>
<g id="a_Node000005"><a xlink:href="../../dc/d00/interfaceAlaris_1_1Infrastructure_1_1Data_1_1Http_1_1Contracts_1_1IPolygonApi.html" target="_top" xlink:title="Polygon.io REST API contract. Component ID: DTAP001A.">
<polygon fill="white" stroke="transparent" points="331.5,-793 185.5,-793 185.5,-688 331.5,-688 331.5,-793"/>
<text text-anchor="start" x="198" y="-780.5" font-family="Helvetica,sans-Serif" font-size="10.00">Alaris.Infrastructure.Data.</text>
<text text-anchor="start" x="198" y="-769.5" font-family="Helvetica,sans-Serif" font-size="10.00">Http.Contracts.IPolygonApi</text>
<text text-anchor="start" x="256.5" y="-754.5" font-family="Helvetica,sans-Serif" font-size="10.00"> </text>
<text text-anchor="start" x="189.5" y="-739.5" font-family="Helvetica,sans-Serif" font-size="10.00">+</text>
<text text-anchor="start" x="200.5" y="-739.5" font-family="Helvetica,sans-Serif" font-size="10.00">GetDailyBarsAsync()</text>
<text text-anchor="start" x="189.5" y="-724.5" font-family="Helvetica,sans-Serif" font-size="10.00">+</text>
<text text-anchor="start" x="200.5" y="-724.5" font-family="Helvetica,sans-Serif" font-size="10.00">GetPreviousDayAsync()</text>
<text text-anchor="start" x="189.5" y="-709.5" font-family="Helvetica,sans-Serif" font-size="10.00">+</text>
<text text-anchor="start" x="200.5" y="-709.5" font-family="Helvetica,sans-Serif" font-size="10.00">GetOptionsContractsAsync()</text>
<text text-anchor="start" x="189.5" y="-694.5" font-family="Helvetica,sans-Serif" font-size="10.00">+</text>
<text text-anchor="start" x="200.5" y="-694.5" font-family="Helvetica,sans-Serif" font-size="10.00">GetTickerAggregatesAsync()</text>
<polygon fill="#666666" stroke="#666666" points="185.5,-764.5 185.5,-764.5 331.5,-764.5 331.5,-764.5 185.5,-764.5"/>
<polygon fill="#666666" stroke="#666666" points="185.5,-749.5 185.5,-749.5 331.5,-749.5 331.5,-749.5 185.5,-749.5"/>
<polygon fill="none" stroke="#666666" points="185.5,-688 185.5,-793 331.5,-793 331.5,-688 185.5,-688"/>
</a>
</g>
</g>
<!-- Node5&#45;&gt;Node3 -->
<g id="edge4_Node000003_Node000005" class="edge">
<title>Node5&#45;&gt;Node3</title>
<g id="a_edge4_Node000003_Node000005"><a xlink:title=" ">
<path fill="none" stroke="#63b8ff" d="M258.5,-687.88C258.5,-667.69 258.5,-643.61 258.5,-619.48"/>
<polygon fill="none" stroke="#63b8ff" points="258.5,-619.27 254.5,-613.27 258.5,-607.27 262.5,-613.27 258.5,-619.27"/>
</a>
</g>
<text text-anchor="middle" x="271" y="-660" font-family="Helvetica,sans-Serif" font-size="10.00" fill="grey"> &#45;_api</text>
</g>
<!-- Node6 -->
<g id="Node000006" class="node">
<title>Node6</title>
<g id="a_Node000006"><a xlink:href="../../d7/d01/classAlaris_1_1Infrastructure_1_1Data_1_1Provider_1_1Nasdaq_1_1NasdaqEarningsProvider.html" target="_top" xlink:title="NASDAQ public API earnings calendar provider. Component ID: DTea001C.">
<polygon fill="white" stroke="transparent" points="553.5,-639 359.5,-639 359.5,-354 553.5,-354 553.5,-639"/>
<text text-anchor="start" x="364.5" y="-626.5" font-family="Helvetica,sans-Serif" font-size="10.00">Alaris.Infrastructure.Data.</text>
<text text-anchor="start" x="364.5" y="-615.5" font-family="Helvetica,sans-Serif" font-size="10.00">Provider.Nasdaq.NasdaqEarningsProvider</text>
<text text-anchor="start" x="372" y="-600.5" font-family="Helvetica,sans-Serif" font-size="10.00">&#45;</text>
<text text-anchor="start" x="388.5" y="-600.5" font-family="Helvetica,sans-Serif" font-size="10.00">_logger</text>
<text text-anchor="start" x="372" y="-585.5" font-family="Helvetica,sans-Serif" font-size="10.00">&#45;</text>
<text text-anchor="start" x="388.5" y="-585.5" font-family="Helvetica,sans-Serif" font-size="10.00">_cacheDataPath</text>
<text text-anchor="start" x="372" y="-570.5" font-family="Helvetica,sans-Serif" font-size="10.00">&#45;</text>
<text text-anchor="start" x="388.5" y="-570.5" font-family="Helvetica,sans-Serif" font-size="10.00">_cacheOnlyMode</text>
<text text-anchor="start" x="372" y="-555.5" font-family="Helvetica,sans-Serif" font-size="10.00">&#45;</text>
<text text-anchor="start" x="388.5" y="-555.5" font-family="Helvetica,sans-Serif" font-size="10.00">JsonOptions</text>
<text text-anchor="start" x="370.5" y="-540.5" font-family="Helvetica,sans-Serif" font-size="10.00">+</text>
<text text-anchor="start" x="388.5" y="-540.5" font-family="Helvetica,sans-Serif" font-size="10.00">NasdaqEarningsProvider()</text>
<text text-anchor="start" x="370.5" y="-525.5" font-family="Helvetica,sans-Serif" font-size="10.00">+</text>
<text text-anchor="start" x="388.5" y="-525.5" font-family="Helvetica,sans-Serif" font-size="10.00">EnableCacheOnlyMode()</text>
<text text-anchor="start" x="370.5" y="-510.5" font-family="Helvetica,sans-Serif" font-size="10.00">+</text>
<text text-anchor="start" x="388.5" y="-510.5" font-family="Helvetica,sans-Serif" font-size="10.00">GetUpcomingEarningsAsync()</text>
<text text-anchor="start" x="370.5" y="-495.5" font-family="Helvetica,sans-Serif" font-size="10.00">+</text>
<text text-anchor="start" x="388.5" y="-495.5" font-family="Helvetica,sans-Serif" font-size="10.00">GetHistoricalEarningsAsync()</text>
<text text-anchor="start" x="370.5" y="-480.5" font-family="Helvetica,sans-Serif" font-size="10.00">+</text>
<text text-anchor="start" x="388.5" y="-480.5" font-family="Helvetica,sans-Serif" font-size="10.00">GetHistoricalEarningsAsync()</text>
<text text-anchor="start" x="370.5" y="-465.5" font-family="Helvetica,sans-Serif" font-size="10.00">+</text>
<text text-anchor="start" x="388.5" y="-465.5" font-family="Helvetica,sans-Serif" font-size="10.00">GetSymbolsWithEarningsAsync()</text>
<text text-anchor="start" x="370.5" y="-450.5" font-family="Helvetica,sans-Serif" font-size="10.00">+</text>
<text text-anchor="start" x="388.5" y="-450.5" font-family="Helvetica,sans-Serif" font-size="10.00">SaveToCacheAsync()</text>
<text text-anchor="start" x="370.5" y="-435.5" font-family="Helvetica,sans-Serif" font-size="10.00">+</text>
<text text-anchor="start" x="388.5" y="-435.5" font-family="Helvetica,sans-Serif" font-size="10.00">FetchAndCacheAsync()</text>
<text text-anchor="start" x="372" y="-420.5" font-family="Helvetica,sans-Serif" font-size="10.00">&#45;</text>
<text text-anchor="start" x="388.5" y="-420.5" font-family="Helvetica,sans-Serif" font-size="10.00">GetEarningsInDateRangeAsync()</text>
<text text-anchor="start" x="372" y="-405.5" font-family="Helvetica,sans-Serif" font-size="10.00">&#45;</text>
<text text-anchor="start" x="388.5" y="-405.5" font-family="Helvetica,sans-Serif" font-size="10.00">GetEarningsForDateAsync()</text>
<text text-anchor="start" x="372" y="-390.5" font-family="Helvetica,sans-Serif" font-size="10.00">&#45;</text>
<text text-anchor="start" x="388.5" y="-390.5" font-family="Helvetica,sans-Serif" font-size="10.00">LoadFromCacheAsync()</text>
<text text-anchor="start" x="372" y="-375.5" font-family="Helvetica,sans-Serif" font-size="10.00">&#45;</text>
<text text-anchor="start" x="388.5" y="-375.5" font-family="Helvetica,sans-Serif" font-size="10.00">MapToEarningsEvent()</text>
<text text-anchor="start" x="372" y="-360.5" font-family="Helvetica,sans-Serif" font-size="10.00">&#45;</text>
<text text-anchor="start" x="388.5" y="-360.5" font-family="Helvetica,sans-Serif" font-size="10.00">ParseDecimal()</text>
<polygon fill="#666666" stroke="#666666" points="359.5,-610.5 359.5,-610.5 553.5,-610.5 553.5,-610.5 359.5,-610.5"/>
<polygon fill="#666666" stroke="#666666" points="359.5,-550.5 359.5,-550.5 386.5,-550.5 386.5,-550.5 359.5,-550.5"/>
<polygon fill="#666666" stroke="#666666" points="386.5,-550.5 386.5,-550.5 553.5,-550.5 553.5,-550.5 386.5,-550.5"/>
<polygon fill="none" stroke="#666666" points="359.5,-354 359.5,-639 553.5,-639 553.5,-354 359.5,-354"/>
</a>
</g>
</g>
<!-- Node6&#45;&gt;Node1 -->
<g id="edge5_Node000001_Node000006" class="edge">
<title>Node6&#45;&gt;Node1</title>
<g id="a_edge5_Node000001_Node000006"><a xlink:title=" ">
<path fill="none" stroke="#63b8ff" d="M415.38,-353.85C412.01,-342.25 408.59,-330.47 405.18,-318.73"/>
<polygon fill="none" stroke="#63b8ff" points="405.12,-318.54 399.61,-313.89 401.78,-307.01 407.29,-311.66 405.12,-318.54"/>
</a>
</g>
<text text-anchor="middle" x="447.5" y="-328" font-family="Helvetica,sans-Serif" font-size="10.00" fill="grey"> &#45;_earningsClient</text>
</g>
<!-- Node7 -->
<g id="Node000007" class="node">
<title>Node7</title>
<g id="a_Node000007"><a xlink:href="../../da/d01/interfaceAlaris_1_1Infrastructure_1_1Data_1_1Provider_1_1DTpr004A.html" target="_top" xlink:title="Interface for earnings calendar providers.">
<polygon fill="white" stroke="transparent" points="515.5,-795 349.5,-795 349.5,-686 515.5,-686 515.5,-795"/>
<text text-anchor="start" x="410" y="-782.5" font-family="Helvetica,sans-Serif" font-size="10.00">DTpr004A</text>
<text text-anchor="start" x="430.5" y="-767.5" font-family="Helvetica,sans-Serif" font-size="10.00"> </text>
<text text-anchor="start" x="353.5" y="-752.5" font-family="Helvetica,sans-Serif" font-size="10.00">+</text>
<text text-anchor="start" x="364.5" y="-752.5" font-family="Helvetica,sans-Serif" font-size="10.00">GetUpcomingEarningsAsync()</text>
<text text-anchor="start" x="353.5" y="-737.5" font-family="Helvetica,sans-Serif" font-size="10.00">+</text>
<text text-anchor="start" x="364.5" y="-737.5" font-family="Helvetica,sans-Serif" font-size="10.00">GetHistoricalEarningsAsync()</text>
<text text-anchor="start" x="353.5" y="-722.5" font-family="Helvetica,sans-Serif" font-size="10.00">+</text>
<text text-anchor="start" x="364.5" y="-722.5" font-family="Helvetica,sans-Serif" font-size="10.00">GetHistoricalEarningsAsync()</text>
<text text-anchor="start" x="353.5" y="-707.5" font-family="Helvetica,sans-Serif" font-size="10.00">+</text>
<text text-anchor="start" x="364.5" y="-707.5" font-family="Helvetica,sans-Serif" font-size="10.00">GetSymbolsWithEarningsAsync()</text>
<text text-anchor="start" x="353.5" y="-692.5" font-family="Helvetica,sans-Serif" font-size="10.00">+</text>
<text text-anchor="start" x="364.5" y="-692.5" font-family="Helvetica,sans-Serif" font-size="10.00">EnableCacheOnlyMode()</text>
<polygon fill="#666666" stroke="#666666" points="349.5,-777.5 349.5,-777.5 515.5,-777.5 515.5,-777.5 349.5,-777.5"/>
<polygon fill="#666666" stroke="#666666" points="349.5,-762.5 349.5,-762.5 515.5,-762.5 515.5,-762.5 349.5,-762.5"/>
<polygon fill="none" stroke="#666666" points="349.5,-686 349.5,-795 515.5,-795 515.5,-686 349.5,-686"/>
</a>
</g>
</g>
<!-- Node7&#45;&gt;Node6 -->
<g id="edge6_Node000006_Node000007" class="edge">
<title>Node7&#45;&gt;Node6</title>
<g id="a_edge6_Node000006_Node000007"><a xlink:title=" ">
<path fill="none" stroke="#63b8ff" d="M438.84,-675.52C439.98,-664.05 441.21,-651.69 442.46,-639.03"/>
<polygon fill="none" stroke="#63b8ff" points="435.33,-675.5 437.83,-685.79 442.3,-676.19 435.33,-675.5"/>
</a>
</g>
</g>
<!-- Node8 -->
<g id="Node000008" class="node">
<title>Node8</title>
<g id="a_Node000008"><a xlink:href="../../df/d00/interfaceAlaris_1_1Infrastructure_1_1Data_1_1Http_1_1Contracts_1_1INasdaqCalendarApi.html" target="_top" xlink:title="NASDAQ public calendar REST API contract. Component ID: DTAP004A.">
<polygon fill="white" stroke="transparent" points="701.5,-770.5 533.5,-770.5 533.5,-710.5 701.5,-710.5 701.5,-770.5"/>
<text text-anchor="start" x="538.5" y="-758.5" font-family="Helvetica,sans-Serif" font-size="10.00">Alaris.Infrastructure.Data.</text>
<text text-anchor="start" x="538.5" y="-747.5" font-family="Helvetica,sans-Serif" font-size="10.00">Http.Contracts.INasdaqCalendarApi</text>
<text text-anchor="start" x="615.5" y="-732.5" font-family="Helvetica,sans-Serif" font-size="10.00"> </text>
<text text-anchor="start" x="552.5" y="-717.5" font-family="Helvetica,sans-Serif" font-size="10.00">+</text>
<text text-anchor="start" x="578.5" y="-717.5" font-family="Helvetica,sans-Serif" font-size="10.00">GetEarningsAsync()</text>
<polygon fill="#666666" stroke="#666666" points="533.5,-742.5 533.5,-742.5 701.5,-742.5 701.5,-742.5 533.5,-742.5"/>
<polygon fill="#666666" stroke="#666666" points="533.5,-727.5 533.5,-727.5 701.5,-727.5 701.5,-727.5 533.5,-727.5"/>
<polygon fill="none" stroke="#666666" points="533.5,-710.5 533.5,-770.5 701.5,-770.5 701.5,-710.5 533.5,-710.5"/>
</a>
</g>
</g>
<!-- Node8&#45;&gt;Node6 -->
<g id="edge7_Node000006_Node000008" class="edge">
<title>Node8&#45;&gt;Node6</title>
<g id="a_edge7_Node000006_Node000008"><a xlink:title=" ">
<path fill="none" stroke="#63b8ff" d="M598.08,-710.31C587.25,-694.03 572.84,-672.37 557.36,-649.1"/>
<polygon fill="none" stroke="#63b8ff" points="557.31,-649.02 550.65,-646.24 550.66,-639.03 557.31,-641.81 557.31,-649.02"/>
</a>
</g>
<text text-anchor="middle" x="583" y="-660" font-family="Helvetica,sans-Serif" font-size="10.00" fill="grey"> &#45;_api</text>
</g>
<!-- Node9 -->
<g id="Node000009" class="node">
<title>Node9</title>
<g id="a_Node000009"><a xlink:href="../../d1/d03/classAlaris_1_1Infrastructure_1_1Data_1_1Provider_1_1Treasury_1_1TreasuryDirectRateProvider.html" target="_top" xlink:title="Treasury Direct API risk&#45;free rate provider. Component ID: DTrf001A.">
<polygon fill="white" stroke="transparent" points="865,-554.5 712,-554.5 712,-438.5 865,-438.5 865,-554.5"/>
<text text-anchor="start" x="717.5" y="-542.5" font-family="Helvetica,sans-Serif" font-size="10.00">Alaris.Infrastructure.Data.</text>
<text text-anchor="start" x="717.5" y="-531.5" font-family="Helvetica,sans-Serif" font-size="10.00">Provider.Treasury.TreasuryDirect</text>
<text text-anchor="start" x="760" y="-520.5" font-family="Helvetica,sans-Serif" font-size="10.00">RateProvider</text>
<text text-anchor="start" x="719.5" y="-505.5" font-family="Helvetica,sans-Serif" font-size="10.00">&#45;</text>
<text text-anchor="start" x="730.5" y="-505.5" font-family="Helvetica,sans-Serif" font-size="10.00">_logger</text>
<text text-anchor="start" x="718" y="-490.5" font-family="Helvetica,sans-Serif" font-size="10.00">+</text>
<text text-anchor="start" x="730.5" y="-490.5" font-family="Helvetica,sans-Serif" font-size="10.00">TreasuryDirectRateProvider()</text>
<text text-anchor="start" x="718" y="-475.5" font-family="Helvetica,sans-Serif" font-size="10.00">+</text>
<text text-anchor="start" x="730.5" y="-475.5" font-family="Helvetica,sans-Serif" font-size="10.00">GetCurrentRateAsync()</text>
<text text-anchor="start" x="718" y="-460.5" font-family="Helvetica,sans-Serif" font-size="10.00">+</text>
<text text-anchor="start" x="730.5" y="-460.5" font-family="Helvetica,sans-Serif" font-size="10.00">GetHistoricalRatesAsync()</text>
<text text-anchor="start" x="719.5" y="-445.5" font-family="Helvetica,sans-Serif" font-size="10.00">&#45;</text>
<text text-anchor="start" x="730.5" y="-445.5" font-family="Helvetica,sans-Serif" font-size="10.00">ParseRate()</text>
<polygon fill="#666666" stroke="#666666" points="712.5,-515.5 712.5,-515.5 865.5,-515.5 865.5,-515.5 712.5,-515.5"/>
<polygon fill="#666666" stroke="#666666" points="712.5,-500.5 712.5,-500.5 728.5,-500.5 728.5,-500.5 712.5,-500.5"/>
<polygon fill="#666666" stroke="#666666" points="728.5,-500.5 728.5,-500.5 865.5,-500.5 865.5,-500.5 728.5,-500.5"/>
<polygon fill="none" stroke="#666666" points="712,-438.5 712,-554.5 865,-554.5 865,-438.5 712,-438.5"/>
</a>
</g>
</g>
<!-- Node9&#45;&gt;Node1 -->
<g id="edge8_Node000001_Node000009" class="edge">
<title>Node9&#45;&gt;Node1</title>
<g id="a_edge8_Node000001_Node000009"><a xlink:title=" ">
<path fill="none" stroke="#63b8ff" d="M716.36,-438.42C644.74,-381.76 534.47,-294.51 455.06,-231.69"/>
<polygon fill="none" stroke="#63b8ff" points="454.95,-231.6 447.76,-231.01 445.54,-224.15 452.72,-224.74 454.95,-231.6"/>
</a>
</g>
<text text-anchor="middle" x="623" y="-328" font-family="Helvetica,sans-Serif" font-size="10.00" fill="grey"> &#45;_treasuryClient</text>
</g>
<!-- Node10 -->
<g id="Node000010" class="node">
<title>Node10</title>
<g id="a_Node000010"><a xlink:href="../../d0/d01/interfaceAlaris_1_1Infrastructure_1_1Data_1_1Provider_1_1DTpr005A.html" target="_top" xlink:title="Interface for risk&#45;free rate providers.">
<polygon fill="white" stroke="transparent" points="857,-772.5 720,-772.5 720,-708.5 857,-708.5 857,-772.5"/>
<text text-anchor="start" x="766.5" y="-760.5" font-family="Helvetica,sans-Serif" font-size="10.00">DTpr005A</text>
<text text-anchor="start" x="787" y="-745.5" font-family="Helvetica,sans-Serif" font-size="10.00"> </text>
<text text-anchor="start" x="724.5" y="-730.5" font-family="Helvetica,sans-Serif" font-size="10.00">+</text>
<text text-anchor="start" x="735.5" y="-730.5" font-family="Helvetica,sans-Serif" font-size="10.00">GetCurrentRateAsync()</text>
<text text-anchor="start" x="724.5" y="-715.5" font-family="Helvetica,sans-Serif" font-size="10.00">+</text>
<text text-anchor="start" x="735.5" y="-715.5" font-family="Helvetica,sans-Serif" font-size="10.00">GetHistoricalRatesAsync()</text>
<polygon fill="#666666" stroke="#666666" points="720.5,-755.5 720.5,-755.5 857.5,-755.5 857.5,-755.5 720.5,-755.5"/>
<polygon fill="#666666" stroke="#666666" points="720.5,-740.5 720.5,-740.5 857.5,-740.5 857.5,-740.5 720.5,-740.5"/>
<polygon fill="none" stroke="#666666" points="720,-708.5 720,-772.5 857,-772.5 857,-708.5 720,-708.5"/>
</a>
</g>
</g>
<!-- Node10&#45;&gt;Node9 -->
<g id="edge9_Node000009_Node000010" class="edge">
<title>Node10&#45;&gt;Node9</title>
<g id="a_edge9_Node000009_Node000010"><a xlink:title=" ">
<path fill="none" stroke="#63b8ff" d="M788.5,-698.3C788.5,-658.85 788.5,-598.99 788.5,-554.89"/>
<polygon fill="none" stroke="#63b8ff" points="785,-698.36 788.5,-708.36 792,-698.36 785,-698.36"/>
</a>
</g>
</g>
<!-- Node11 -->
<g id="Node000011" class="node">
<title>Node11</title>
<g id="a_Node000011"><a xlink:href="../../d3/d03/interfaceAlaris_1_1Infrastructure_1_1Data_1_1Http_1_1Contracts_1_1ITreasuryDirectApi.html" target="_top" xlink:title="Treasury Direct REST API contract. Component ID: DTAP003A.">
<polygon fill="white" stroke="transparent" points="1035.5,-770.5 875.5,-770.5 875.5,-710.5 1035.5,-710.5 1035.5,-770.5"/>
<text text-anchor="start" x="880.5" y="-758.5" font-family="Helvetica,sans-Serif" font-size="10.00">Alaris.Infrastructure.Data.</text>
<text text-anchor="start" x="880.5" y="-747.5" font-family="Helvetica,sans-Serif" font-size="10.00">Http.Contracts.ITreasuryDirectApi</text>
<text text-anchor="start" x="953.5" y="-732.5" font-family="Helvetica,sans-Serif" font-size="10.00"> </text>
<text text-anchor="start" x="887.5" y="-717.5" font-family="Helvetica,sans-Serif" font-size="10.00">+</text>
<text text-anchor="start" x="906.5" y="-717.5" font-family="Helvetica,sans-Serif" font-size="10.00">SearchSecuritiesAsync()</text>
<polygon fill="#666666" stroke="#666666" points="875.5,-742.5 875.5,-742.5 1035.5,-742.5 1035.5,-742.5 875.5,-742.5"/>
<polygon fill="#666666" stroke="#666666" points="875.5,-727.5 875.5,-727.5 1035.5,-727.5 1035.5,-727.5 875.5,-727.5"/>
<polygon fill="none" stroke="#666666" points="875.5,-710.5 875.5,-770.5 1035.5,-770.5 1035.5,-710.5 875.5,-710.5"/>
</a>
</g>
</g>
<!-- Node11&#45;&gt;Node9 -->
<g id="edge10_Node000009_Node000011" class="edge">
<title>Node11&#45;&gt;Node9</title>
<g id="a_edge10_Node000009_Node000011"><a xlink:title=" ">
<path fill="none" stroke="#63b8ff" d="M935.36,-710.31C910.65,-674.51 868.01,-612.71 835.01,-564.9"/>
<polygon fill="none" stroke="#63b8ff" points="834.94,-564.8 828.24,-562.14 828.13,-554.93 834.83,-557.59 834.94,-564.8"/>
</a>
</g>
<text text-anchor="middle" x="919" y="-660" font-family="Helvetica,sans-Serif" font-size="10.00" fill="grey"> &#45;_api</text>
</g>
</g>
</svg>

<g id="navigator" transform="translate(0 0)" fill="#404254">
  <rect fill="#f2f5e9" fill-opacity="0.5" stroke="#606060" stroke-width=".5" x="0" y="0" width="60" height="60"/>
  <use id="zoomplus" xlink:href="#zoomPlus" x="17" y="9" onmousedown="handleZoom(evt,'in')"/>
  <use id="zoomminus" xlink:href="#zoomMin" x="42" y="9" onmousedown="handleZoom(evt,'out')"/>
  <use id="reset" xlink:href="#resetDef" x="30" y="36" onmousedown="handleReset()"/>
   <use id="arrowup" xlink:href="#arrowUp" x="0" y="0" onmousedown="handlePan(0,-1)"/>
  <use id="arrowright" xlink:href="#arrowRight" x="0" y="0" onmousedown="handlePan(1,0)"/>
  <use id="arrowdown" xlink:href="#arrowDown" x="0" y="0" onmousedown="handlePan(0,1)"/>
  <use id="arrowleft" xlink:href="#arrowLeft" x="0" y="0" onmousedown="handlePan(-1,0)"/>
</g>
<svg viewBox="0 0 15 15" width="100%" height="30px" preserveAspectRatio="xMaxYMin meet">
 <g id="arrow_out" transform="scale(0.3 0.3)">
  <a xlink:href="classAlaris_1_1Host_1_1Application_1_1Service_1_1APsv002A__coll__graph_org.svg" target="_base">
   <rect id="button" ry="5" rx="5" y="6" x="6" height="38" width="38"
        fill="#f2f5e9" fill-opacity="0.5" stroke="#606060" stroke-width="1.0"/>
   <path id="arrow"
     d="M 11.500037,31.436501 C 11.940474,20.09759 22.043105,11.32322 32.158766,21.979434 L 37.068811,17.246167 C 37.068811,17.246167 37.088388,32 37.088388,32 L 22.160133,31.978069 C 22.160133,31.978069 26.997745,27.140456 26.997745,27.140456 C 18.528582,18.264221 13.291696,25.230495 11.500037,31.436501 z"
     style="fill:#404040;"/>
  </a>
 </g>
</svg>

<style type='text/css'>
<![CDATA[
[data-mouse-over-selected='false'] { opacity: 0.7; }
[data-mouse-over-selected='true']  { opacity: 1.0; }
]]>
</style>
<script type="application/ecmascript"><![CDATA[
document.addEventListener('DOMContentLoaded', (event) => {
  highlightEdges();
  highlightAdjacentNodes();
});
]]></script>
</svg>
