<?xml version="1.0" encoding="UTF-8" standalone="no"?>
<!DOCTYPE svg PUBLIC "-//W3C//DTD SVG 1.1//EN"
 "http://www.w3.org/Graphics/SVG/1.1/DTD/svg11.dtd">
<!-- Generated by graphviz version 2.43.0 (0)
 -->
<!-- Title: Alaris.Host.Application.Cli.Commands.Earnings.CLer002A Pages: 1 -->
<svg width="183pt" height="164pt"
 viewBox="0.00 0.00 183.00 164.00" xmlns="http://www.w3.org/2000/svg" xmlns:xlink="http://www.w3.org/1999/xlink">
<g id="graph0" class="graph" transform="scale(1 1) rotate(0) translate(4 160)">
<title>Alaris.Host.Application.Cli.Commands.Earnings.CLer002A</title>
<!-- Node1 -->
<g id="Node000001" class="node">
<title>Node1</title>
<g id="a_Node000001"><a xlink:title="Shows upcoming earnings announcements from cached data. Component ID: CLer002A.">
<polygon fill="#999999" stroke="transparent" points="169.5,-60 5.5,-60 5.5,0 169.5,0 169.5,-60"/>
<text text-anchor="start" x="10.5" y="-48" font-family="Helvetica,sans-Serif" font-size="10.00">Alaris.Host.Application.</text>
<text text-anchor="start" x="10.5" y="-37" font-family="Helvetica,sans-Serif" font-size="10.00">Cli.Commands.Earnings.CLer002A</text>
<text text-anchor="start" x="85.5" y="-22" font-family="Helvetica,sans-Serif" font-size="10.00"> </text>
<text text-anchor="start" x="28" y="-7" font-family="Helvetica,sans-Serif" font-size="10.00">+</text>
<text text-anchor="start" x="57.5" y="-7" font-family="Helvetica,sans-Serif" font-size="10.00">ExecuteAsync()</text>
<polygon fill="#666666" stroke="#666666" points="5.5,-32 5.5,-32 169.5,-32 169.5,-32 5.5,-32"/>
<polygon fill="#666666" stroke="#666666" points="5.5,-17 5.5,-17 169.5,-17 169.5,-17 5.5,-17"/>
<polygon fill="none" stroke="#666666" points="5.5,0 5.5,-60 169.5,-60 169.5,0 5.5,0"/>
</a>
</g>
</g>
<!-- Node2 -->
<g id="Node000002" class="node">
<title>Node2</title>
<g id="a_Node000002"><a xlink:title=" ">
<polygon fill="white" stroke="transparent" points="175,-156 0,-156 0,-96 175,-96 175,-156"/>
<text text-anchor="start" x="5.5" y="-144" font-family="Helvetica,sans-Serif" font-size="10.00">AsyncCommand&lt; EarningsUpcoming</text>
<text text-anchor="start" x="65" y="-133" font-family="Helvetica,sans-Serif" font-size="10.00">Settings &gt;</text>
<text text-anchor="start" x="86" y="-118" font-family="Helvetica,sans-Serif" font-size="10.00"> </text>
<text text-anchor="start" x="86" y="-103" font-family="Helvetica,sans-Serif" font-size="10.00"> </text>
<polygon fill="#666666" stroke="#666666" points="0.5,-128 0.5,-128 175.5,-128 175.5,-128 0.5,-128"/>
<polygon fill="#666666" stroke="#666666" points="0.5,-113 0.5,-113 175.5,-113 175.5,-113 0.5,-113"/>
<polygon fill="none" stroke="#666666" points="0,-96 0,-156 175,-156 175,-96 0,-96"/>
</a>
</g>
</g>
<!-- Node2&#45;&gt;Node1 -->
<g id="edge1_Node000001_Node000002" class="edge">
<title>Node2&#45;&gt;Node1</title>
<g id="a_edge1_Node000001_Node000002"><a xlink:title=" ">
<path fill="none" stroke="#63b8ff" d="M87.5,-85.63C87.5,-77.11 87.5,-68.25 87.5,-60.21"/>
<polygon fill="none" stroke="#63b8ff" points="84,-85.77 87.5,-95.77 91,-85.77 84,-85.77"/>
</a>
</g>
</g>
</g>
</svg>
