<?xml version="1.0" encoding="UTF-8" standalone="no"?>
<!DOCTYPE svg PUBLIC "-//W3C//DTD SVG 1.1//EN"
 "http://www.w3.org/Graphics/SVG/1.1/DTD/svg11.dtd">
<!-- Generated by graphviz version 2.43.0 (0)
 -->
<!-- Title: Alaris.Host.Application.Cli.Monitor.CLmn001A Pages: 1 -->
<svg width="133pt" height="389pt"
 viewBox="0.00 0.00 133.00 389.00" xmlns="http://www.w3.org/2000/svg" xmlns:xlink="http://www.w3.org/1999/xlink">

<svg id="main" version="1.1" xmlns="http://www.w3.org/2000/svg" xmlns:xlink="http://www.w3.org/1999/xlink" xml:space="preserve" onload="init(evt)">
<style type="text/css"><![CDATA[
.node, .edge {opacity: 0.7;}
.node.selected, .edge.selected {opacity: 1;}
.edge:hover path { stroke: red; }
.edge:hover polygon { stroke: red; fill: red; }
]]></style>
<script type="application/ecmascript" xlink:href="../../svg.min.js"/>
<svg id="graph" class="graph">
<g id="graph0" class="graph" transform="scale(1 1) rotate(0) translate(4 385)">
<title>Alaris.Host.Application.Cli.Monitor.CLmn001A</title>
<!-- Node1 -->
<g id="Node000001" class="node">
<title>Node1</title>
<g id="a_Node000001"><a xlink:title="Interface for monitoring algorithm execution (backtest or live). Provides observable streams of equit...">
<polygon fill="#999999" stroke="transparent" points="119,-381 6,-381 6,-291 119,-291 119,-381"/>
<text text-anchor="start" x="11.5" y="-369" font-family="Helvetica,sans-Serif" font-size="10.00">Alaris.Host.Application.</text>
<text text-anchor="start" x="13.5" y="-358" font-family="Helvetica,sans-Serif" font-size="10.00">Cli.Monitor.CLmn001A</text>
<text text-anchor="start" x="20" y="-343" font-family="Helvetica,sans-Serif" font-size="10.00">+</text>
<text text-anchor="start" x="40.5" y="-343" font-family="Helvetica,sans-Serif" font-size="10.00">IsRunning</text>
<text text-anchor="start" x="20" y="-328" font-family="Helvetica,sans-Serif" font-size="10.00">+</text>
<text text-anchor="start" x="40.5" y="-328" font-family="Helvetica,sans-Serif" font-size="10.00">Mode</text>
<text text-anchor="start" x="20" y="-313" font-family="Helvetica,sans-Serif" font-size="10.00">+</text>
<text text-anchor="start" x="40.5" y="-313" font-family="Helvetica,sans-Serif" font-size="10.00">StartAsync()</text>
<text text-anchor="start" x="20" y="-298" font-family="Helvetica,sans-Serif" font-size="10.00">+</text>
<text text-anchor="start" x="40.5" y="-298" font-family="Helvetica,sans-Serif" font-size="10.00">StopAsync()</text>
<polygon fill="#666666" stroke="#666666" points="6.5,-353 6.5,-353 119.5,-353 119.5,-353 6.5,-353"/>
<polygon fill="#666666" stroke="#666666" points="6.5,-323 6.5,-323 38.5,-323 38.5,-323 6.5,-323"/>
<polygon fill="#666666" stroke="#666666" points="38.5,-323 38.5,-323 119.5,-323 119.5,-323 38.5,-323"/>
<polygon fill="none" stroke="#666666" points="6,-291 6,-381 119,-381 119,-291 6,-291"/>
</a>
</g>
</g>
<!-- Node2 -->
<g id="Node000002" class="node">
<title>Node2</title>
<g id="a_Node000002"><a xlink:href="../../d0/d03/classAlaris_1_1Host_1_1Application_1_1Cli_1_1Monitor_1_1CLmn002A.html" target="_top" xlink:title="Monitors a LEAN backtest in progress and publishes events. Component ID: CLmn002A.">
<polygon fill="white" stroke="transparent" points="125,-255 0,-255 0,0 125,0 125,-255"/>
<text text-anchor="start" x="11.5" y="-242.5" font-family="Helvetica,sans-Serif" font-size="10.00">Alaris.Host.Application.</text>
<text text-anchor="start" x="13.5" y="-231.5" font-family="Helvetica,sans-Serif" font-size="10.00">Cli.Monitor.CLmn002A</text>
<text text-anchor="start" x="4.5" y="-216.5" font-family="Helvetica,sans-Serif" font-size="10.00">+</text>
<text text-anchor="start" x="15.5" y="-216.5" font-family="Helvetica,sans-Serif" font-size="10.00">IsRunning</text>
<text text-anchor="start" x="4.5" y="-201.5" font-family="Helvetica,sans-Serif" font-size="10.00">+</text>
<text text-anchor="start" x="15.5" y="-201.5" font-family="Helvetica,sans-Serif" font-size="10.00">Mode</text>
<text text-anchor="start" x="6" y="-186.5" font-family="Helvetica,sans-Serif" font-size="10.00">&#45;</text>
<text text-anchor="start" x="15.5" y="-186.5" font-family="Helvetica,sans-Serif" font-size="10.00">_sessionId</text>
<text text-anchor="start" x="6" y="-171.5" font-family="Helvetica,sans-Serif" font-size="10.00">&#45;</text>
<text text-anchor="start" x="15.5" y="-171.5" font-family="Helvetica,sans-Serif" font-size="10.00">_resultsPath</text>
<text text-anchor="start" x="6" y="-156.5" font-family="Helvetica,sans-Serif" font-size="10.00">&#45;</text>
<text text-anchor="start" x="15.5" y="-156.5" font-family="Helvetica,sans-Serif" font-size="10.00">_cts</text>
<text text-anchor="start" x="6" y="-141.5" font-family="Helvetica,sans-Serif" font-size="10.00">&#45;</text>
<text text-anchor="start" x="15.5" y="-141.5" font-family="Helvetica,sans-Serif" font-size="10.00">_monitorTask</text>
<text text-anchor="start" x="6" y="-126.5" font-family="Helvetica,sans-Serif" font-size="10.00">&#45;</text>
<text text-anchor="start" x="15.5" y="-126.5" font-family="Helvetica,sans-Serif" font-size="10.00">_lastEquity</text>
<text text-anchor="start" x="4.5" y="-111.5" font-family="Helvetica,sans-Serif" font-size="10.00">+</text>
<text text-anchor="start" x="15.5" y="-111.5" font-family="Helvetica,sans-Serif" font-size="10.00">CLmn002A()</text>
<text text-anchor="start" x="4.5" y="-96.5" font-family="Helvetica,sans-Serif" font-size="10.00">+</text>
<text text-anchor="start" x="15.5" y="-96.5" font-family="Helvetica,sans-Serif" font-size="10.00">StartAsync()</text>
<text text-anchor="start" x="4.5" y="-81.5" font-family="Helvetica,sans-Serif" font-size="10.00">+</text>
<text text-anchor="start" x="15.5" y="-81.5" font-family="Helvetica,sans-Serif" font-size="10.00">StopAsync()</text>
<text text-anchor="start" x="4.5" y="-66.5" font-family="Helvetica,sans-Serif" font-size="10.00">+</text>
<text text-anchor="start" x="15.5" y="-66.5" font-family="Helvetica,sans-Serif" font-size="10.00">Dispose()</text>
<text text-anchor="start" x="6" y="-51.5" font-family="Helvetica,sans-Serif" font-size="10.00">&#45;</text>
<text text-anchor="start" x="15.5" y="-51.5" font-family="Helvetica,sans-Serif" font-size="10.00">MonitorLoopAsync()</text>
<text text-anchor="start" x="6" y="-36.5" font-family="Helvetica,sans-Serif" font-size="10.00">&#45;</text>
<text text-anchor="start" x="15.5" y="-36.5" font-family="Helvetica,sans-Serif" font-size="10.00">PollResultsAsync()</text>
<text text-anchor="start" x="6" y="-21.5" font-family="Helvetica,sans-Serif" font-size="10.00">&#45;</text>
<text text-anchor="start" x="15.5" y="-21.5" font-family="Helvetica,sans-Serif" font-size="10.00">ParsePerformanceLine()</text>
<text text-anchor="start" x="6" y="-6.5" font-family="Helvetica,sans-Serif" font-size="10.00">&#45;</text>
<text text-anchor="start" x="15.5" y="-6.5" font-family="Helvetica,sans-Serif" font-size="10.00">ParseTradeLine()</text>
<polygon fill="#666666" stroke="#666666" points="0.5,-226.5 0.5,-226.5 125.5,-226.5 125.5,-226.5 0.5,-226.5"/>
<polygon fill="#666666" stroke="#666666" points="0.5,-121.5 0.5,-121.5 13.5,-121.5 13.5,-121.5 0.5,-121.5"/>
<polygon fill="#666666" stroke="#666666" points="13.5,-121.5 13.5,-121.5 125.5,-121.5 125.5,-121.5 13.5,-121.5"/>
<polygon fill="none" stroke="#666666" points="0,0 0,-255 125,-255 125,0 0,0"/>
</a>
</g>
</g>
<!-- Node1&#45;&gt;Node2 -->
<g id="edge1_Node000001_Node000002" class="edge">
<title>Node1&#45;&gt;Node2</title>
<g id="a_edge1_Node000001_Node000002"><a xlink:title=" ">
<path fill="none" stroke="#63b8ff" d="M62.5,-280.92C62.5,-272.75 62.5,-264.05 62.5,-255.1"/>
<polygon fill="none" stroke="#63b8ff" points="59,-280.95 62.5,-290.95 66,-280.95 59,-280.95"/>
</a>
</g>
</g>
</g>
</svg>
</svg>

<style type='text/css'>
<![CDATA[
[data-mouse-over-selected='false'] { opacity: 0.7; }
[data-mouse-over-selected='true']  { opacity: 1.0; }
]]>
</style>
<script type="application/ecmascript"><![CDATA[
document.addEventListener('DOMContentLoaded', (event) => {
  highlightEdges();
  highlightAdjacentNodes();
});
]]></script>
</svg>
