<?xml version="1.0" encoding="UTF-8" standalone="no"?>
<!DOCTYPE svg PUBLIC "-//W3C//DTD SVG 1.1//EN"
 "http://www.w3.org/Graphics/SVG/1.1/DTD/svg11.dtd">
<!-- Generated by graphviz version 2.43.0 (0)
 -->
<!-- Title: Alaris.Infrastructure.Data.Provider.Polygon.PolygonApiClient Pages: 1 -->
<svg width="175pt" height="374pt"
 viewBox="0.00 0.00 175.00 374.00" xmlns="http://www.w3.org/2000/svg" xmlns:xlink="http://www.w3.org/1999/xlink">

<svg id="main" version="1.1" xmlns="http://www.w3.org/2000/svg" xmlns:xlink="http://www.w3.org/1999/xlink" xml:space="preserve" onload="init(evt)">
<style type="text/css"><![CDATA[
.node, .edge {opacity: 0.7;}
.node.selected, .edge.selected {opacity: 1;}
.edge:hover path { stroke: red; }
.edge:hover polygon { stroke: red; fill: red; }
]]></style>
<script type="application/ecmascript" xlink:href="../../svg.min.js"/>
<svg id="graph" class="graph">
<g id="graph0" class="graph" transform="scale(1 1) rotate(0) translate(4 370)">
<title>Alaris.Infrastructure.Data.Provider.Polygon.PolygonApiClient</title>
<!-- Node1 -->
<g id="Node000001" class="node">
<title>Node1</title>
<g id="a_Node000001"><a xlink:title="Polygon.io REST API client for market data retrieval. Component ID: DTpr001A.">
<polygon fill="#999999" stroke="transparent" points="167,-236 0,-236 0,0 167,0 167,-236"/>
<text text-anchor="start" x="8" y="-224" font-family="Helvetica,sans-Serif" font-size="10.00">Alaris.Infrastructure.Data.</text>
<text text-anchor="start" x="8" y="-213" font-family="Helvetica,sans-Serif" font-size="10.00">Provider.Polygon.PolygonApiClient</text>
<text text-anchor="start" x="6" y="-198" font-family="Helvetica,sans-Serif" font-size="10.00">&#45;</text>
<text text-anchor="start" x="15.5" y="-198" font-family="Helvetica,sans-Serif" font-size="10.00">_api</text>
<text text-anchor="start" x="6" y="-183" font-family="Helvetica,sans-Serif" font-size="10.00">&#45;</text>
<text text-anchor="start" x="15.5" y="-183" font-family="Helvetica,sans-Serif" font-size="10.00">_logger</text>
<text text-anchor="start" x="6" y="-168" font-family="Helvetica,sans-Serif" font-size="10.00">&#45;</text>
<text text-anchor="start" x="15.5" y="-168" font-family="Helvetica,sans-Serif" font-size="10.00">_apiKey</text>
<text text-anchor="start" x="6" y="-153" font-family="Helvetica,sans-Serif" font-size="10.00">&#45;</text>
<text text-anchor="start" x="15.5" y="-153" font-family="Helvetica,sans-Serif" font-size="10.00">underlying</text>
<text text-anchor="start" x="6" y="-138" font-family="Helvetica,sans-Serif" font-size="10.00">&#45;</text>
<text text-anchor="start" x="15.5" y="-138" font-family="Helvetica,sans-Serif" font-size="10.00">strike</text>
<text text-anchor="start" x="6" y="-123" font-family="Helvetica,sans-Serif" font-size="10.00">&#45;</text>
<text text-anchor="start" x="15.5" y="-123" font-family="Helvetica,sans-Serif" font-size="10.00">expiration</text>
<text text-anchor="start" x="4.5" y="-108" font-family="Helvetica,sans-Serif" font-size="10.00">+</text>
<text text-anchor="start" x="15.5" y="-108" font-family="Helvetica,sans-Serif" font-size="10.00">PolygonApiClient()</text>
<text text-anchor="start" x="4.5" y="-93" font-family="Helvetica,sans-Serif" font-size="10.00">+</text>
<text text-anchor="start" x="15.5" y="-93" font-family="Helvetica,sans-Serif" font-size="10.00">GetHistoricalBarsAsync()</text>
<text text-anchor="start" x="4.5" y="-78" font-family="Helvetica,sans-Serif" font-size="10.00">+</text>
<text text-anchor="start" x="15.5" y="-78" font-family="Helvetica,sans-Serif" font-size="10.00">GetOptionChainAsync()</text>
<text text-anchor="start" x="4.5" y="-63" font-family="Helvetica,sans-Serif" font-size="10.00">+</text>
<text text-anchor="start" x="15.5" y="-63" font-family="Helvetica,sans-Serif" font-size="10.00">GetHistoricalOptionChain</text>
<text text-anchor="start" x="15.5" y="-52" font-family="Helvetica,sans-Serif" font-size="10.00">Async()</text>
<text text-anchor="start" x="4.5" y="-37" font-family="Helvetica,sans-Serif" font-size="10.00">+</text>
<text text-anchor="start" x="15.5" y="-37" font-family="Helvetica,sans-Serif" font-size="10.00">GetSpotPriceAsync()</text>
<text text-anchor="start" x="4.5" y="-22" font-family="Helvetica,sans-Serif" font-size="10.00">+</text>
<text text-anchor="start" x="15.5" y="-22" font-family="Helvetica,sans-Serif" font-size="10.00">GetAverageVolume30DayAsync()</text>
<text text-anchor="start" x="6" y="-7" font-family="Helvetica,sans-Serif" font-size="10.00">&#45;</text>
<text text-anchor="start" x="15.5" y="-7" font-family="Helvetica,sans-Serif" font-size="10.00">ParseOptionTicker()</text>
<polygon fill="#666666" stroke="#666666" points="0.5,-208 0.5,-208 167.5,-208 167.5,-208 0.5,-208"/>
<polygon fill="#666666" stroke="#666666" points="0.5,-118 0.5,-118 13.5,-118 13.5,-118 0.5,-118"/>
<polygon fill="#666666" stroke="#666666" points="13.5,-118 13.5,-118 167.5,-118 167.5,-118 13.5,-118"/>
<polygon fill="none" stroke="#666666" points="0,0 0,-236 167,-236 167,0 0,0"/>
</a>
</g>
</g>
<!-- Node2 -->
<g id="Node000002" class="node">
<title>Node2</title>
<g id="a_Node000002"><a xlink:href="../../d4/d02/interfaceAlaris_1_1Infrastructure_1_1Data_1_1Provider_1_1DTpr003A.html" target="_top" xlink:title="Interface for market data providers (Polygon, IBKR, etc.).">
<polygon fill="white" stroke="transparent" points="167,-366 0,-366 0,-272 167,-272 167,-366"/>
<text text-anchor="start" x="61.5" y="-354" font-family="Helvetica,sans-Serif" font-size="10.00">DTpr003A</text>
<text text-anchor="start" x="82" y="-339" font-family="Helvetica,sans-Serif" font-size="10.00"> </text>
<text text-anchor="start" x="4.5" y="-324" font-family="Helvetica,sans-Serif" font-size="10.00">+</text>
<text text-anchor="start" x="15.5" y="-324" font-family="Helvetica,sans-Serif" font-size="10.00">GetHistoricalBarsAsync()</text>
<text text-anchor="start" x="4.5" y="-309" font-family="Helvetica,sans-Serif" font-size="10.00">+</text>
<text text-anchor="start" x="15.5" y="-309" font-family="Helvetica,sans-Serif" font-size="10.00">GetOptionChainAsync()</text>
<text text-anchor="start" x="4.5" y="-294" font-family="Helvetica,sans-Serif" font-size="10.00">+</text>
<text text-anchor="start" x="15.5" y="-294" font-family="Helvetica,sans-Serif" font-size="10.00">GetSpotPriceAsync()</text>
<text text-anchor="start" x="4.5" y="-279" font-family="Helvetica,sans-Serif" font-size="10.00">+</text>
<text text-anchor="start" x="15.5" y="-279" font-family="Helvetica,sans-Serif" font-size="10.00">GetAverageVolume30DayAsync()</text>
<polygon fill="#666666" stroke="#666666" points="0.5,-349 0.5,-349 167.5,-349 167.5,-349 0.5,-349"/>
<polygon fill="#666666" stroke="#666666" points="0.5,-334 0.5,-334 167.5,-334 167.5,-334 0.5,-334"/>
<polygon fill="none" stroke="#666666" points="0,-272 0,-366 167,-366 167,-272 0,-272"/>
</a>
</g>
</g>
<!-- Node2&#45;&gt;Node1 -->
<g id="edge1_Node000001_Node000002" class="edge">
<title>Node2&#45;&gt;Node1</title>
<g id="a_edge1_Node000001_Node000002"><a xlink:title=" ">
<path fill="none" stroke="#63b8ff" d="M83.5,-261.83C83.5,-253.71 83.5,-245.1 83.5,-236.31"/>
<polygon fill="none" stroke="#63b8ff" points="80,-261.85 83.5,-271.85 87,-261.85 80,-261.85"/>
</a>
</g>
</g>
</g>
</svg>
</svg>

<style type='text/css'>
<![CDATA[
[data-mouse-over-selected='false'] { opacity: 0.7; }
[data-mouse-over-selected='true']  { opacity: 1.0; }
]]>
</style>
<script type="application/ecmascript"><![CDATA[
document.addEventListener('DOMContentLoaded', (event) => {
  highlightEdges();
  highlightAdjacentNodes();
});
]]></script>
</svg>
