<?xml version="1.0" encoding="UTF-8" standalone="no"?>
<!DOCTYPE svg PUBLIC "-//W3C//DTD SVG 1.1//EN"
 "http://www.w3.org/Graphics/SVG/1.1/DTD/svg11.dtd">
<!-- Generated by graphviz version 2.43.0 (0)
 -->
<!-- Title: Alaris.Strategy.Calendar.ITradingCalendar Pages: 1 -->
<svg width="151pt" height="374pt"
 viewBox="0.00 0.00 151.00 374.00" xmlns="http://www.w3.org/2000/svg" xmlns:xlink="http://www.w3.org/1999/xlink">

<svg id="main" version="1.1" xmlns="http://www.w3.org/2000/svg" xmlns:xlink="http://www.w3.org/1999/xlink" xml:space="preserve" onload="init(evt)">
<style type="text/css"><![CDATA[
.node, .edge {opacity: 0.7;}
.node.selected, .edge.selected {opacity: 1;}
.edge:hover path { stroke: red; }
.edge:hover polygon { stroke: red; fill: red; }
]]></style>
<script type="application/ecmascript" xlink:href="../../svg.min.js"/>
<svg id="graph" class="graph">
<g id="graph0" class="graph" transform="scale(1 1) rotate(0) translate(4 370)">
<title>Alaris.Strategy.Calendar.ITradingCalendar</title>
<!-- Node1 -->
<g id="Node000001" class="node">
<title>Node1</title>
<g id="a_Node000001"><a xlink:title="Interface for trading calendar operations.">
<polygon fill="#999999" stroke="transparent" points="143,-366 0,-366 0,-276 143,-276 143,-366"/>
<text text-anchor="start" x="18" y="-354" font-family="Helvetica,sans-Serif" font-size="10.00">Alaris.Strategy.Calendar.</text>
<text text-anchor="start" x="34.5" y="-343" font-family="Helvetica,sans-Serif" font-size="10.00">ITradingCalendar</text>
<text text-anchor="start" x="70" y="-328" font-family="Helvetica,sans-Serif" font-size="10.00"> </text>
<text text-anchor="start" x="4.5" y="-313" font-family="Helvetica,sans-Serif" font-size="10.00">+</text>
<text text-anchor="start" x="15.5" y="-313" font-family="Helvetica,sans-Serif" font-size="10.00">GetBusinessDaysBetween()</text>
<text text-anchor="start" x="4.5" y="-298" font-family="Helvetica,sans-Serif" font-size="10.00">+</text>
<text text-anchor="start" x="15.5" y="-298" font-family="Helvetica,sans-Serif" font-size="10.00">IsBusinessDay()</text>
<text text-anchor="start" x="4.5" y="-283" font-family="Helvetica,sans-Serif" font-size="10.00">+</text>
<text text-anchor="start" x="15.5" y="-283" font-family="Helvetica,sans-Serif" font-size="10.00">GetTimeToExpiryInYears()</text>
<polygon fill="#666666" stroke="#666666" points="0.5,-338 0.5,-338 143.5,-338 143.5,-338 0.5,-338"/>
<polygon fill="#666666" stroke="#666666" points="0.5,-323 0.5,-323 143.5,-323 143.5,-323 0.5,-323"/>
<polygon fill="none" stroke="#666666" points="0,-276 0,-366 143,-366 143,-276 0,-276"/>
</a>
</g>
</g>
<!-- Node2 -->
<g id="Node000002" class="node">
<title>Node2</title>
<g id="a_Node000002"><a xlink:href="../../dd/d02/classAlaris_1_1Strategy_1_1Calendar_1_1STCL001A.html" target="_top" xlink:title="NYSE trading calendar implementation with native holiday rules. Replaces QuantLib UnitedStates(NYSE) ...">
<polygon fill="white" stroke="transparent" points="143,-240 0,-240 0,0 143,0 143,-240"/>
<text text-anchor="start" x="18" y="-228" font-family="Helvetica,sans-Serif" font-size="10.00">Alaris.Strategy.Calendar.</text>
<text text-anchor="start" x="47.5" y="-217" font-family="Helvetica,sans-Serif" font-size="10.00">STCL001A</text>
<text text-anchor="start" x="4.5" y="-202" font-family="Helvetica,sans-Serif" font-size="10.00">+</text>
<text text-anchor="start" x="15.5" y="-202" font-family="Helvetica,sans-Serif" font-size="10.00">TradingDaysPerYear</text>
<text text-anchor="start" x="6" y="-187" font-family="Helvetica,sans-Serif" font-size="10.00">&#45;</text>
<text text-anchor="start" x="15.5" y="-187" font-family="Helvetica,sans-Serif" font-size="10.00">_holidayCache</text>
<text text-anchor="start" x="6" y="-172" font-family="Helvetica,sans-Serif" font-size="10.00">&#45;</text>
<text text-anchor="start" x="15.5" y="-172" font-family="Helvetica,sans-Serif" font-size="10.00">_cacheLock</text>
<text text-anchor="start" x="4.5" y="-157" font-family="Helvetica,sans-Serif" font-size="10.00">+</text>
<text text-anchor="start" x="15.5" y="-157" font-family="Helvetica,sans-Serif" font-size="10.00">STCL001A()</text>
<text text-anchor="start" x="4.5" y="-142" font-family="Helvetica,sans-Serif" font-size="10.00">+</text>
<text text-anchor="start" x="15.5" y="-142" font-family="Helvetica,sans-Serif" font-size="10.00">GetBusinessDaysBetween()</text>
<text text-anchor="start" x="4.5" y="-127" font-family="Helvetica,sans-Serif" font-size="10.00">+</text>
<text text-anchor="start" x="15.5" y="-127" font-family="Helvetica,sans-Serif" font-size="10.00">IsBusinessDay()</text>
<text text-anchor="start" x="4.5" y="-112" font-family="Helvetica,sans-Serif" font-size="10.00">+</text>
<text text-anchor="start" x="15.5" y="-112" font-family="Helvetica,sans-Serif" font-size="10.00">GetTimeToExpiryInYears()</text>
<text text-anchor="start" x="6" y="-97" font-family="Helvetica,sans-Serif" font-size="10.00">&#45;</text>
<text text-anchor="start" x="15.5" y="-97" font-family="Helvetica,sans-Serif" font-size="10.00">IsNYSEHoliday()</text>
<text text-anchor="start" x="6" y="-82" font-family="Helvetica,sans-Serif" font-size="10.00">&#45;</text>
<text text-anchor="start" x="15.5" y="-82" font-family="Helvetica,sans-Serif" font-size="10.00">GetHolidaysForYear()</text>
<text text-anchor="start" x="6" y="-67" font-family="Helvetica,sans-Serif" font-size="10.00">&#45;</text>
<text text-anchor="start" x="15.5" y="-67" font-family="Helvetica,sans-Serif" font-size="10.00">ComputeNYSEHolidays()</text>
<text text-anchor="start" x="6" y="-52" font-family="Helvetica,sans-Serif" font-size="10.00">&#45;</text>
<text text-anchor="start" x="15.5" y="-52" font-family="Helvetica,sans-Serif" font-size="10.00">AdjustWeekendHoliday()</text>
<text text-anchor="start" x="6" y="-37" font-family="Helvetica,sans-Serif" font-size="10.00">&#45;</text>
<text text-anchor="start" x="15.5" y="-37" font-family="Helvetica,sans-Serif" font-size="10.00">GetNthWeekdayOfMonth()</text>
<text text-anchor="start" x="6" y="-22" font-family="Helvetica,sans-Serif" font-size="10.00">&#45;</text>
<text text-anchor="start" x="15.5" y="-22" font-family="Helvetica,sans-Serif" font-size="10.00">GetLastWeekdayOfMonth()</text>
<text text-anchor="start" x="6" y="-7" font-family="Helvetica,sans-Serif" font-size="10.00">&#45;</text>
<text text-anchor="start" x="15.5" y="-7" font-family="Helvetica,sans-Serif" font-size="10.00">ComputeEasterSunday()</text>
<polygon fill="#666666" stroke="#666666" points="0.5,-212 0.5,-212 143.5,-212 143.5,-212 0.5,-212"/>
<polygon fill="#666666" stroke="#666666" points="0.5,-167 0.5,-167 13.5,-167 13.5,-167 0.5,-167"/>
<polygon fill="#666666" stroke="#666666" points="13.5,-167 13.5,-167 143.5,-167 143.5,-167 13.5,-167"/>
<polygon fill="none" stroke="#666666" points="0,0 0,-240 143,-240 143,0 0,0"/>
</a>
</g>
</g>
<!-- Node1&#45;&gt;Node2 -->
<g id="edge1_Node000001_Node000002" class="edge">
<title>Node1&#45;&gt;Node2</title>
<g id="a_edge1_Node000001_Node000002"><a xlink:title=" ">
<path fill="none" stroke="#63b8ff" d="M71.5,-265.83C71.5,-257.69 71.5,-249.04 71.5,-240.17"/>
<polygon fill="none" stroke="#63b8ff" points="68,-265.84 71.5,-275.84 75,-265.84 68,-265.84"/>
</a>
</g>
</g>
</g>
</svg>
</svg>

<style type='text/css'>
<![CDATA[
[data-mouse-over-selected='false'] { opacity: 0.7; }
[data-mouse-over-selected='true']  { opacity: 1.0; }
]]>
</style>
<script type="application/ecmascript"><![CDATA[
document.addEventListener('DOMContentLoaded', (event) => {
  highlightEdges();
  highlightAdjacentNodes();
});
]]></script>
</svg>
