<?xml version="1.0" encoding="UTF-8" standalone="no"?>
<!DOCTYPE svg PUBLIC "-//W3C//DTD SVG 1.1//EN"
 "http://www.w3.org/Graphics/SVG/1.1/DTD/svg11.dtd">
<!-- Generated by graphviz version 2.43.0 (0)
 -->
<!-- Title: Alaris.Strategy.Bridge.STDT001A Pages: 1 -->
<svg width="332pt" height="438pt"
 viewBox="0.00 0.00 332.00 438.00" xmlns="http://www.w3.org/2000/svg" xmlns:xlink="http://www.w3.org/1999/xlink">

<svg id="main" version="1.1" xmlns="http://www.w3.org/2000/svg" xmlns:xlink="http://www.w3.org/1999/xlink" xml:space="preserve" onload="init(evt)">
<style type="text/css"><![CDATA[
.node, .edge {opacity: 0.7;}
.node.selected, .edge.selected {opacity: 1;}
.edge:hover path { stroke: red; }
.edge:hover polygon { stroke: red; fill: red; }
]]></style>
<script type="application/ecmascript" xlink:href="../../svg.min.js"/>
<svg id="graph" class="graph">
<g id="graph0" class="graph" transform="scale(1 1) rotate(0) translate(4 434)">
<title>Alaris.Strategy.Bridge.STDT001A</title>
<!-- Node1 -->
<g id="Node000001" class="node">
<title>Node1</title>
<g id="a_Node000001"><a xlink:title="Interface for accessing market data including option chains and historical prices....">
<polygon fill="#999999" stroke="transparent" points="242.5,-430 86.5,-430 86.5,-306 242.5,-306 242.5,-430"/>
<text text-anchor="start" x="91.5" y="-418" font-family="Helvetica,sans-Serif" font-size="10.00">Alaris.Strategy.Bridge.STDT001A</text>
<text text-anchor="start" x="162.5" y="-403" font-family="Helvetica,sans-Serif" font-size="10.00"> </text>
<text text-anchor="start" x="92.5" y="-388" font-family="Helvetica,sans-Serif" font-size="10.00">+</text>
<text text-anchor="start" x="105.5" y="-388" font-family="Helvetica,sans-Serif" font-size="10.00">GetSTDT002A()</text>
<text text-anchor="start" x="92.5" y="-373" font-family="Helvetica,sans-Serif" font-size="10.00">+</text>
<text text-anchor="start" x="105.5" y="-373" font-family="Helvetica,sans-Serif" font-size="10.00">GetHistoricalPrices()</text>
<text text-anchor="start" x="92.5" y="-358" font-family="Helvetica,sans-Serif" font-size="10.00">+</text>
<text text-anchor="start" x="105.5" y="-358" font-family="Helvetica,sans-Serif" font-size="10.00">GetCurrentPrice()</text>
<text text-anchor="start" x="92.5" y="-343" font-family="Helvetica,sans-Serif" font-size="10.00">+</text>
<text text-anchor="start" x="105.5" y="-343" font-family="Helvetica,sans-Serif" font-size="10.00">GetEarningsDates()</text>
<text text-anchor="start" x="92.5" y="-328" font-family="Helvetica,sans-Serif" font-size="10.00">+</text>
<text text-anchor="start" x="105.5" y="-328" font-family="Helvetica,sans-Serif" font-size="10.00">GetHistoricalEarningsDates()</text>
<text text-anchor="start" x="92.5" y="-313" font-family="Helvetica,sans-Serif" font-size="10.00">+</text>
<text text-anchor="start" x="105.5" y="-313" font-family="Helvetica,sans-Serif" font-size="10.00">IsDataAvailable()</text>
<polygon fill="#666666" stroke="#666666" points="86.5,-413 86.5,-413 242.5,-413 242.5,-413 86.5,-413"/>
<polygon fill="#666666" stroke="#666666" points="86.5,-398 86.5,-398 242.5,-398 242.5,-398 86.5,-398"/>
<polygon fill="none" stroke="#666666" points="86.5,-306 86.5,-430 242.5,-430 242.5,-306 86.5,-306"/>
</a>
</g>
</g>
<!-- Node2 -->
<g id="Node000002" class="node">
<title>Node2</title>
<g id="a_Node000002"><a xlink:title=" ">
<polygon fill="white" stroke="transparent" points="159,-270 0,-270 0,0 159,0 159,-270"/>
<text text-anchor="start" x="19.5" y="-258" font-family="Helvetica,sans-Serif" font-size="10.00">Alaris.Algorithm.DataBridge</text>
<text text-anchor="start" x="37.5" y="-247" font-family="Helvetica,sans-Serif" font-size="10.00">MarketDataAdapter</text>
<text text-anchor="start" x="6" y="-232" font-family="Helvetica,sans-Serif" font-size="10.00">&#45;</text>
<text text-anchor="start" x="15.5" y="-232" font-family="Helvetica,sans-Serif" font-size="10.00">_bridge</text>
<text text-anchor="start" x="6" y="-217" font-family="Helvetica,sans-Serif" font-size="10.00">&#45;</text>
<text text-anchor="start" x="15.5" y="-217" font-family="Helvetica,sans-Serif" font-size="10.00">_evaluationDate</text>
<text text-anchor="start" x="6" y="-202" font-family="Helvetica,sans-Serif" font-size="10.00">&#45;</text>
<text text-anchor="start" x="15.5" y="-202" font-family="Helvetica,sans-Serif" font-size="10.00">_cachedSymbol</text>
<text text-anchor="start" x="6" y="-187" font-family="Helvetica,sans-Serif" font-size="10.00">&#45;</text>
<text text-anchor="start" x="15.5" y="-187" font-family="Helvetica,sans-Serif" font-size="10.00">_cachedEvaluationDate</text>
<text text-anchor="start" x="6" y="-172" font-family="Helvetica,sans-Serif" font-size="10.00">&#45;</text>
<text text-anchor="start" x="15.5" y="-172" font-family="Helvetica,sans-Serif" font-size="10.00">_cachedSnapshot</text>
<text text-anchor="start" x="4.5" y="-157" font-family="Helvetica,sans-Serif" font-size="10.00">+</text>
<text text-anchor="start" x="15.5" y="-157" font-family="Helvetica,sans-Serif" font-size="10.00">DataBridgeMarketDataAdapter()</text>
<text text-anchor="start" x="4.5" y="-142" font-family="Helvetica,sans-Serif" font-size="10.00">+</text>
<text text-anchor="start" x="15.5" y="-142" font-family="Helvetica,sans-Serif" font-size="10.00">SetEvaluationDate()</text>
<text text-anchor="start" x="4.5" y="-127" font-family="Helvetica,sans-Serif" font-size="10.00">+</text>
<text text-anchor="start" x="15.5" y="-127" font-family="Helvetica,sans-Serif" font-size="10.00">GetSnapshot()</text>
<text text-anchor="start" x="4.5" y="-112" font-family="Helvetica,sans-Serif" font-size="10.00">+</text>
<text text-anchor="start" x="15.5" y="-112" font-family="Helvetica,sans-Serif" font-size="10.00">GetSTDT002A()</text>
<text text-anchor="start" x="4.5" y="-97" font-family="Helvetica,sans-Serif" font-size="10.00">+</text>
<text text-anchor="start" x="15.5" y="-97" font-family="Helvetica,sans-Serif" font-size="10.00">GetHistoricalPrices()</text>
<text text-anchor="start" x="4.5" y="-82" font-family="Helvetica,sans-Serif" font-size="10.00">+</text>
<text text-anchor="start" x="15.5" y="-82" font-family="Helvetica,sans-Serif" font-size="10.00">GetCurrentPrice()</text>
<text text-anchor="start" x="4.5" y="-67" font-family="Helvetica,sans-Serif" font-size="10.00">+</text>
<text text-anchor="start" x="15.5" y="-67" font-family="Helvetica,sans-Serif" font-size="10.00">GetEarningsDates()</text>
<text text-anchor="start" x="4.5" y="-52" font-family="Helvetica,sans-Serif" font-size="10.00">+</text>
<text text-anchor="start" x="15.5" y="-52" font-family="Helvetica,sans-Serif" font-size="10.00">GetHistoricalEarningsDates()</text>
<text text-anchor="start" x="4.5" y="-37" font-family="Helvetica,sans-Serif" font-size="10.00">+</text>
<text text-anchor="start" x="15.5" y="-37" font-family="Helvetica,sans-Serif" font-size="10.00">IsDataAvailable()</text>
<text text-anchor="start" x="6" y="-22" font-family="Helvetica,sans-Serif" font-size="10.00">&#45;</text>
<text text-anchor="start" x="15.5" y="-22" font-family="Helvetica,sans-Serif" font-size="10.00">GetSnapshotInternal()</text>
<text text-anchor="start" x="6" y="-7" font-family="Helvetica,sans-Serif" font-size="10.00">&#45;</text>
<text text-anchor="start" x="15.5" y="-7" font-family="Helvetica,sans-Serif" font-size="10.00">GetSnapshotInternalAsync()</text>
<polygon fill="#666666" stroke="#666666" points="0.5,-242 0.5,-242 159.5,-242 159.5,-242 0.5,-242"/>
<polygon fill="#666666" stroke="#666666" points="0.5,-167 0.5,-167 13.5,-167 13.5,-167 0.5,-167"/>
<polygon fill="#666666" stroke="#666666" points="13.5,-167 13.5,-167 159.5,-167 159.5,-167 13.5,-167"/>
<polygon fill="none" stroke="#666666" points="0,0 0,-270 159,-270 159,0 0,0"/>
</a>
</g>
</g>
<!-- Node1&#45;&gt;Node2 -->
<g id="edge1_Node000001_Node000002" class="edge">
<title>Node1&#45;&gt;Node2</title>
<g id="a_edge1_Node000001_Node000002"><a xlink:title=" ">
<path fill="none" stroke="#63b8ff" d="M138.43,-296.15C135.38,-287.86 132.2,-279.21 128.96,-270.4"/>
<polygon fill="none" stroke="#63b8ff" points="135.21,-297.53 141.94,-305.7 141.78,-295.11 135.21,-297.53"/>
</a>
</g>
</g>
<!-- Node3 -->
<g id="Node000003" class="node">
<title>Node3</title>
<g id="a_Node000003"><a xlink:title=" ">
<polygon fill="white" stroke="transparent" points="324,-202.5 177,-202.5 177,-67.5 324,-67.5 324,-202.5"/>
<text text-anchor="start" x="195" y="-190" font-family="Helvetica,sans-Serif" font-size="10.00">Alaris.Test.Integration.</text>
<text text-anchor="start" x="195" y="-179" font-family="Helvetica,sans-Serif" font-size="10.00">MockMarketDataProvider</text>
<text text-anchor="start" x="249" y="-164" font-family="Helvetica,sans-Serif" font-size="10.00"> </text>
<text text-anchor="start" x="181.5" y="-149" font-family="Helvetica,sans-Serif" font-size="10.00">+</text>
<text text-anchor="start" x="192.5" y="-149" font-family="Helvetica,sans-Serif" font-size="10.00">GetSTDT002A()</text>
<text text-anchor="start" x="181.5" y="-134" font-family="Helvetica,sans-Serif" font-size="10.00">+</text>
<text text-anchor="start" x="192.5" y="-134" font-family="Helvetica,sans-Serif" font-size="10.00">GetHistoricalPrices()</text>
<text text-anchor="start" x="181.5" y="-119" font-family="Helvetica,sans-Serif" font-size="10.00">+</text>
<text text-anchor="start" x="192.5" y="-119" font-family="Helvetica,sans-Serif" font-size="10.00">GetCurrentPrice()</text>
<text text-anchor="start" x="181.5" y="-104" font-family="Helvetica,sans-Serif" font-size="10.00">+</text>
<text text-anchor="start" x="192.5" y="-104" font-family="Helvetica,sans-Serif" font-size="10.00">GetEarningsDates()</text>
<text text-anchor="start" x="181.5" y="-89" font-family="Helvetica,sans-Serif" font-size="10.00">+</text>
<text text-anchor="start" x="192.5" y="-89" font-family="Helvetica,sans-Serif" font-size="10.00">GetHistoricalEarningsDates()</text>
<text text-anchor="start" x="181.5" y="-74" font-family="Helvetica,sans-Serif" font-size="10.00">+</text>
<text text-anchor="start" x="192.5" y="-74" font-family="Helvetica,sans-Serif" font-size="10.00">IsDataAvailable()</text>
<polygon fill="#666666" stroke="#666666" points="177.5,-174 177.5,-174 324.5,-174 324.5,-174 177.5,-174"/>
<polygon fill="#666666" stroke="#666666" points="177.5,-159 177.5,-159 324.5,-159 324.5,-159 177.5,-159"/>
<polygon fill="none" stroke="#666666" points="177,-67.5 177,-202.5 324,-202.5 324,-67.5 177,-67.5"/>
</a>
</g>
</g>
<!-- Node1&#45;&gt;Node3 -->
<g id="edge2_Node000001_Node000003" class="edge">
<title>Node1&#45;&gt;Node3</title>
<g id="a_edge2_Node000001_Node000003"><a xlink:title=" ">
<path fill="none" stroke="#63b8ff" d="M190.85,-296.23C201.91,-266.52 214.71,-232.14 225.61,-202.86"/>
<polygon fill="none" stroke="#63b8ff" points="187.53,-295.11 187.32,-305.7 194.09,-297.55 187.53,-295.11"/>
</a>
</g>
</g>
</g>
</svg>
</svg>

<style type='text/css'>
<![CDATA[
[data-mouse-over-selected='false'] { opacity: 0.7; }
[data-mouse-over-selected='true']  { opacity: 1.0; }
]]>
</style>
<script type="application/ecmascript"><![CDATA[
document.addEventListener('DOMContentLoaded', (event) => {
  highlightEdges();
  highlightAdjacentNodes();
});
]]></script>
</svg>
