<?xml version="1.0" encoding="UTF-8" standalone="no"?>
<!DOCTYPE svg PUBLIC "-//W3C//DTD SVG 1.1//EN"
 "http://www.w3.org/Graphics/SVG/1.1/DTD/svg11.dtd">
<!-- Generated by graphviz version 2.43.0 (0)
 -->
<!-- Title: Alaris.Strategy.Serialization.STsr001A.PricingParamsData Pages: 1 -->
<svg width="148pt" height="248pt"
 viewBox="0.00 0.00 148.00 248.00" xmlns="http://www.w3.org/2000/svg" xmlns:xlink="http://www.w3.org/1999/xlink">
<g id="graph0" class="graph" transform="scale(1 1) rotate(0) translate(4 244)">
<title>Alaris.Strategy.Serialization.STsr001A.PricingParamsData</title>
<!-- Node1 -->
<g id="Node000001" class="node">
<title>Node1</title>
<g id="a_Node000001"><a xlink:title="Struct for binary&#45;encoded pricing parameters (STDT003A equivalent).">
<polygon fill="#999999" stroke="transparent" points="140,-240 0,-240 0,0 140,0 140,-240"/>
<text text-anchor="start" x="5" y="-228" font-family="Helvetica,sans-Serif" font-size="10.00">Alaris.Strategy.Serialization.</text>
<text text-anchor="start" x="5" y="-217" font-family="Helvetica,sans-Serif" font-size="10.00">STsr001A.PricingParamsData</text>
<text text-anchor="start" x="7" y="-202" font-family="Helvetica,sans-Serif" font-size="10.00">+</text>
<text text-anchor="start" x="21" y="-202" font-family="Helvetica,sans-Serif" font-size="10.00">UnderlyingPriceMantissa</text>
<text text-anchor="start" x="7" y="-187" font-family="Helvetica,sans-Serif" font-size="10.00">+</text>
<text text-anchor="start" x="21" y="-187" font-family="Helvetica,sans-Serif" font-size="10.00">StrikeMantissa</text>
<text text-anchor="start" x="7" y="-172" font-family="Helvetica,sans-Serif" font-size="10.00">+</text>
<text text-anchor="start" x="21" y="-172" font-family="Helvetica,sans-Serif" font-size="10.00">ExpiryDays</text>
<text text-anchor="start" x="7" y="-157" font-family="Helvetica,sans-Serif" font-size="10.00">+</text>
<text text-anchor="start" x="21" y="-157" font-family="Helvetica,sans-Serif" font-size="10.00">ValuationDays</text>
<text text-anchor="start" x="7" y="-142" font-family="Helvetica,sans-Serif" font-size="10.00">+</text>
<text text-anchor="start" x="21" y="-142" font-family="Helvetica,sans-Serif" font-size="10.00">ImpliedVolMantissa</text>
<text text-anchor="start" x="7" y="-127" font-family="Helvetica,sans-Serif" font-size="10.00">+</text>
<text text-anchor="start" x="21" y="-127" font-family="Helvetica,sans-Serif" font-size="10.00">RiskFreeRateMantissa</text>
<text text-anchor="start" x="7" y="-112" font-family="Helvetica,sans-Serif" font-size="10.00">+</text>
<text text-anchor="start" x="21" y="-112" font-family="Helvetica,sans-Serif" font-size="10.00">DividendYieldMantissa</text>
<text text-anchor="start" x="7" y="-97" font-family="Helvetica,sans-Serif" font-size="10.00">+</text>
<text text-anchor="start" x="21" y="-97" font-family="Helvetica,sans-Serif" font-size="10.00">OptionType</text>
<text text-anchor="start" x="7" y="-82" font-family="Helvetica,sans-Serif" font-size="10.00">+</text>
<text text-anchor="start" x="21" y="-82" font-family="Helvetica,sans-Serif" font-size="10.00">UnderlyingPrice</text>
<text text-anchor="start" x="7" y="-67" font-family="Helvetica,sans-Serif" font-size="10.00">+</text>
<text text-anchor="start" x="21" y="-67" font-family="Helvetica,sans-Serif" font-size="10.00">Strike</text>
<text text-anchor="start" x="7" y="-52" font-family="Helvetica,sans-Serif" font-size="10.00">+</text>
<text text-anchor="start" x="21" y="-52" font-family="Helvetica,sans-Serif" font-size="10.00">ImpliedVolatility</text>
<text text-anchor="start" x="7" y="-37" font-family="Helvetica,sans-Serif" font-size="10.00">+</text>
<text text-anchor="start" x="21" y="-37" font-family="Helvetica,sans-Serif" font-size="10.00">RiskFreeRate</text>
<text text-anchor="start" x="7" y="-22" font-family="Helvetica,sans-Serif" font-size="10.00">+</text>
<text text-anchor="start" x="21" y="-22" font-family="Helvetica,sans-Serif" font-size="10.00">DividendYield</text>
<text text-anchor="start" x="7" y="-7" font-family="Helvetica,sans-Serif" font-size="10.00">+</text>
<text text-anchor="start" x="21" y="-7" font-family="Helvetica,sans-Serif" font-size="10.00">PricingParamsData()</text>
<polygon fill="#666666" stroke="#666666" points="0,-212 0,-212 140,-212 140,-212 0,-212"/>
<polygon fill="#666666" stroke="#666666" points="0,-17 0,-17 19,-17 19,-17 0,-17"/>
<polygon fill="#666666" stroke="#666666" points="19,-17 19,-17 140,-17 140,-17 19,-17"/>
<polygon fill="none" stroke="#666666" points="0,0 0,-240 140,-240 140,0 0,0"/>
</a>
</g>
</g>
</g>
</svg>
