<?xml version="1.0" encoding="UTF-8" standalone="no"?>
<!DOCTYPE svg PUBLIC "-//W3C//DTD SVG 1.1//EN"
 "http://www.w3.org/Graphics/SVG/1.1/DTD/svg11.dtd">
<!-- Generated by graphviz version 2.43.0 (0)
 -->
<!-- Title: Alaris.Infrastructure.Events.Infrastructure.EVIF001B Pages: 1 -->
<svg width="254pt" height="557pt"
 viewBox="0.00 0.00 254.00 557.00" xmlns="http://www.w3.org/2000/svg" xmlns:xlink="http://www.w3.org/1999/xlink">
<g id="graph0" class="graph" transform="scale(1 1) rotate(0) translate(4 553)">
<title>Alaris.Infrastructure.Events.Infrastructure.EVIF001B</title>
<!-- Node1 -->
<g id="Node000001" class="node">
<title>Node1</title>
<g id="a_Node000001"><a xlink:title="File&#45;based persistent implementation of EVCR002A for production use.">
<polygon fill="#999999" stroke="transparent" points="232,-367 66,-367 66,0 232,0 232,-367"/>
<text text-anchor="start" x="87.5" y="-354.5" font-family="Helvetica,sans-Serif" font-size="10.00">Alaris.Infrastructure.Events.</text>
<text text-anchor="start" x="96" y="-343.5" font-family="Helvetica,sans-Serif" font-size="10.00">Infrastructure.EVIF001B</text>
<text text-anchor="start" x="71.5" y="-328.5" font-family="Helvetica,sans-Serif" font-size="10.00">&#45;</text>
<text text-anchor="start" x="81" y="-328.5" font-family="Helvetica,sans-Serif" font-size="10.00">_eventsPath</text>
<text text-anchor="start" x="71.5" y="-313.5" font-family="Helvetica,sans-Serif" font-size="10.00">&#45;</text>
<text text-anchor="start" x="81" y="-313.5" font-family="Helvetica,sans-Serif" font-size="10.00">_sequencePath</text>
<text text-anchor="start" x="71.5" y="-298.5" font-family="Helvetica,sans-Serif" font-size="10.00">&#45;</text>
<text text-anchor="start" x="81" y="-298.5" font-family="Helvetica,sans-Serif" font-size="10.00">_writeSemaphore</text>
<text text-anchor="start" x="71.5" y="-283.5" font-family="Helvetica,sans-Serif" font-size="10.00">&#45;</text>
<text text-anchor="start" x="81" y="-283.5" font-family="Helvetica,sans-Serif" font-size="10.00">_readSemaphore</text>
<text text-anchor="start" x="71.5" y="-268.5" font-family="Helvetica,sans-Serif" font-size="10.00">&#45;</text>
<text text-anchor="start" x="81" y="-268.5" font-family="Helvetica,sans-Serif" font-size="10.00">_currentSequence</text>
<text text-anchor="start" x="71.5" y="-253.5" font-family="Helvetica,sans-Serif" font-size="10.00">&#45;</text>
<text text-anchor="start" x="81" y="-253.5" font-family="Helvetica,sans-Serif" font-size="10.00">_disposed</text>
<text text-anchor="start" x="71.5" y="-238.5" font-family="Helvetica,sans-Serif" font-size="10.00">&#45;</text>
<text text-anchor="start" x="81" y="-238.5" font-family="Helvetica,sans-Serif" font-size="10.00">HeaderSize</text>
<text text-anchor="start" x="71.5" y="-223.5" font-family="Helvetica,sans-Serif" font-size="10.00">&#45;</text>
<text text-anchor="start" x="81" y="-223.5" font-family="Helvetica,sans-Serif" font-size="10.00">MaxRecordSize</text>
<text text-anchor="start" x="70" y="-208.5" font-family="Helvetica,sans-Serif" font-size="10.00">+</text>
<text text-anchor="start" x="81" y="-208.5" font-family="Helvetica,sans-Serif" font-size="10.00">EVIF001B()</text>
<text text-anchor="start" x="70" y="-193.5" font-family="Helvetica,sans-Serif" font-size="10.00">+</text>
<text text-anchor="start" x="81" y="-193.5" font-family="Helvetica,sans-Serif" font-size="10.00">AppendAsync&lt; TEvent &gt;()</text>
<text text-anchor="start" x="70" y="-178.5" font-family="Helvetica,sans-Serif" font-size="10.00">+</text>
<text text-anchor="start" x="81" y="-178.5" font-family="Helvetica,sans-Serif" font-size="10.00">GetEventsForAggregateAsync()</text>
<text text-anchor="start" x="70" y="-163.5" font-family="Helvetica,sans-Serif" font-size="10.00">+</text>
<text text-anchor="start" x="81" y="-163.5" font-family="Helvetica,sans-Serif" font-size="10.00">GetEventsFromSequenceAsync()</text>
<text text-anchor="start" x="70" y="-148.5" font-family="Helvetica,sans-Serif" font-size="10.00">+</text>
<text text-anchor="start" x="81" y="-148.5" font-family="Helvetica,sans-Serif" font-size="10.00">GetCurrentSequenceNumber</text>
<text text-anchor="start" x="81" y="-137.5" font-family="Helvetica,sans-Serif" font-size="10.00">Async()</text>
<text text-anchor="start" x="70" y="-122.5" font-family="Helvetica,sans-Serif" font-size="10.00">+</text>
<text text-anchor="start" x="81" y="-122.5" font-family="Helvetica,sans-Serif" font-size="10.00">GetEventsByCorrelationId</text>
<text text-anchor="start" x="81" y="-111.5" font-family="Helvetica,sans-Serif" font-size="10.00">Async()</text>
<text text-anchor="start" x="70" y="-96.5" font-family="Helvetica,sans-Serif" font-size="10.00">+</text>
<text text-anchor="start" x="81" y="-96.5" font-family="Helvetica,sans-Serif" font-size="10.00">GetEventsByTimeRangeAsync()</text>
<text text-anchor="start" x="70" y="-81.5" font-family="Helvetica,sans-Serif" font-size="10.00">+</text>
<text text-anchor="start" x="81" y="-81.5" font-family="Helvetica,sans-Serif" font-size="10.00">Dispose()</text>
<text text-anchor="start" x="71.5" y="-66.5" font-family="Helvetica,sans-Serif" font-size="10.00">&#45;</text>
<text text-anchor="start" x="81" y="-66.5" font-family="Helvetica,sans-Serif" font-size="10.00">ReadEventsAsync()</text>
<text text-anchor="start" x="71.5" y="-51.5" font-family="Helvetica,sans-Serif" font-size="10.00">&#45;</text>
<text text-anchor="start" x="81" y="-51.5" font-family="Helvetica,sans-Serif" font-size="10.00">RecoverSequence()</text>
<text text-anchor="start" x="71.5" y="-36.5" font-family="Helvetica,sans-Serif" font-size="10.00">&#45;</text>
<text text-anchor="start" x="81" y="-36.5" font-family="Helvetica,sans-Serif" font-size="10.00">PersistSequence()</text>
<text text-anchor="start" x="71.5" y="-21.5" font-family="Helvetica,sans-Serif" font-size="10.00">&#45;</text>
<text text-anchor="start" x="81" y="-21.5" font-family="Helvetica,sans-Serif" font-size="10.00">SerializeEnvelope()</text>
<text text-anchor="start" x="71.5" y="-6.5" font-family="Helvetica,sans-Serif" font-size="10.00">&#45;</text>
<text text-anchor="start" x="81" y="-6.5" font-family="Helvetica,sans-Serif" font-size="10.00">DeserializeEnvelope()</text>
<polygon fill="#666666" stroke="#666666" points="66,-338.5 66,-338.5 232,-338.5 232,-338.5 66,-338.5"/>
<polygon fill="#666666" stroke="#666666" points="66,-218.5 66,-218.5 79,-218.5 79,-218.5 66,-218.5"/>
<polygon fill="#666666" stroke="#666666" points="79,-218.5 79,-218.5 232,-218.5 232,-218.5 79,-218.5"/>
<polygon fill="none" stroke="#666666" points="66,0 66,-367 232,-367 232,0 66,0"/>
</a>
</g>
</g>
<!-- Node2 -->
<g id="Node000002" class="node">
<title>Node2</title>
<g id="a_Node000002"><a xlink:href="../../dd/d03/interfaceAlaris_1_1Infrastructure_1_1Events_1_1Core_1_1EVCR002A.html" target="_top" xlink:title="Interface for storing and retrieving events. Implementations must ensure events are never modified or...">
<polygon fill="white" stroke="transparent" points="166,-549 0,-549 0,-403 166,-403 166,-549"/>
<text text-anchor="start" x="57" y="-537" font-family="Helvetica,sans-Serif" font-size="10.00">EVCR002A</text>
<text text-anchor="start" x="81" y="-522" font-family="Helvetica,sans-Serif" font-size="10.00"> </text>
<text text-anchor="start" x="4" y="-507" font-family="Helvetica,sans-Serif" font-size="10.00">+</text>
<text text-anchor="start" x="15" y="-507" font-family="Helvetica,sans-Serif" font-size="10.00">AppendAsync&lt; TEvent &gt;()</text>
<text text-anchor="start" x="4" y="-492" font-family="Helvetica,sans-Serif" font-size="10.00">+</text>
<text text-anchor="start" x="15" y="-492" font-family="Helvetica,sans-Serif" font-size="10.00">GetEventsForAggregateAsync()</text>
<text text-anchor="start" x="4" y="-477" font-family="Helvetica,sans-Serif" font-size="10.00">+</text>
<text text-anchor="start" x="15" y="-477" font-family="Helvetica,sans-Serif" font-size="10.00">GetEventsFromSequenceAsync()</text>
<text text-anchor="start" x="4" y="-462" font-family="Helvetica,sans-Serif" font-size="10.00">+</text>
<text text-anchor="start" x="15" y="-462" font-family="Helvetica,sans-Serif" font-size="10.00">GetCurrentSequenceNumber</text>
<text text-anchor="start" x="15" y="-451" font-family="Helvetica,sans-Serif" font-size="10.00">Async()</text>
<text text-anchor="start" x="4" y="-436" font-family="Helvetica,sans-Serif" font-size="10.00">+</text>
<text text-anchor="start" x="15" y="-436" font-family="Helvetica,sans-Serif" font-size="10.00">GetEventsByCorrelationId</text>
<text text-anchor="start" x="15" y="-425" font-family="Helvetica,sans-Serif" font-size="10.00">Async()</text>
<text text-anchor="start" x="4" y="-410" font-family="Helvetica,sans-Serif" font-size="10.00">+</text>
<text text-anchor="start" x="15" y="-410" font-family="Helvetica,sans-Serif" font-size="10.00">GetEventsByTimeRangeAsync()</text>
<polygon fill="#666666" stroke="#666666" points="0,-532 0,-532 166,-532 166,-532 0,-532"/>
<polygon fill="#666666" stroke="#666666" points="0,-517 0,-517 166,-517 166,-517 0,-517"/>
<polygon fill="none" stroke="#666666" points="0,-403 0,-549 166,-549 166,-403 0,-403"/>
</a>
</g>
</g>
<!-- Node2&#45;&gt;Node1 -->
<g id="edge1_Node000001_Node000002" class="edge">
<title>Node2&#45;&gt;Node1</title>
<g id="a_edge1_Node000001_Node000002"><a xlink:title=" ">
<path fill="none" stroke="#63b8ff" d="M101.66,-392.87C103.55,-384.56 105.51,-375.91 107.52,-367.07"/>
<polygon fill="none" stroke="#63b8ff" points="98.2,-392.29 99.4,-402.82 105.03,-393.84 98.2,-392.29"/>
</a>
</g>
</g>
<!-- Node3 -->
<g id="Node000003" class="node">
<title>Node3</title>
<g id="a_Node000003"><a xlink:title=" ">
<polygon fill="white" stroke="transparent" points="246,-500.5 184,-500.5 184,-451.5 246,-451.5 246,-500.5"/>
<text text-anchor="start" x="189" y="-488" font-family="Helvetica,sans-Serif" font-size="10.00">IDisposable</text>
<text text-anchor="start" x="213" y="-473" font-family="Helvetica,sans-Serif" font-size="10.00"> </text>
<text text-anchor="start" x="213" y="-458" font-family="Helvetica,sans-Serif" font-size="10.00"> </text>
<polygon fill="#666666" stroke="#666666" points="184,-483 184,-483 246,-483 246,-483 184,-483"/>
<polygon fill="#666666" stroke="#666666" points="184,-468 184,-468 246,-468 246,-468 184,-468"/>
<polygon fill="none" stroke="#666666" points="184,-451.5 184,-500.5 246,-500.5 246,-451.5 184,-451.5"/>
</a>
</g>
</g>
<!-- Node3&#45;&gt;Node1 -->
<g id="edge2_Node000001_Node000003" class="edge">
<title>Node3&#45;&gt;Node1</title>
<g id="a_edge2_Node000001_Node000003"><a xlink:title=" ">
<path fill="none" stroke="#63b8ff" d="M207.36,-441.38C202.92,-421.85 196.95,-395.54 190.5,-367.18"/>
<polygon fill="none" stroke="#63b8ff" points="203.97,-442.25 209.6,-451.23 210.8,-440.7 203.97,-442.25"/>
</a>
</g>
</g>
</g>
</svg>
