<?xml version="1.0" encoding="UTF-8" standalone="no"?>
<!DOCTYPE svg PUBLIC "-//W3C//DTD SVG 1.1//EN"
 "http://www.w3.org/Graphics/SVG/1.1/DTD/svg11.dtd">
<!-- Generated by graphviz version 2.43.0 (0)
 -->
<!-- Title: Alaris.Strategy.Risk.STRK004A Pages: 1 -->
<svg width="174pt" height="558pt"
 viewBox="0.00 0.00 174.00 558.00" xmlns="http://www.w3.org/2000/svg" xmlns:xlink="http://www.w3.org/1999/xlink">
<g id="graph0" class="graph" transform="scale(1 1) rotate(0) translate(4 554)">
<title>Alaris.Strategy.Risk.STRK004A</title>
<!-- Node1 -->
<g id="Node000001" class="node">
<title>Node1</title>
<g id="a_Node000001"><a xlink:title="Implements priority queue capital allocation for heterogeneous opportunities.">
<polygon fill="#999999" stroke="transparent" points="166,-259 0,-259 0,0 166,0 166,-259"/>
<text text-anchor="start" x="13.5" y="-246.5" font-family="Helvetica,sans-Serif" font-size="10.00">Alaris.Strategy.Risk.STRK004A</text>
<text text-anchor="start" x="5.5" y="-231.5" font-family="Helvetica,sans-Serif" font-size="10.00">&#45;</text>
<text text-anchor="start" x="15" y="-231.5" font-family="Helvetica,sans-Serif" font-size="10.00">_logger</text>
<text text-anchor="start" x="5.5" y="-216.5" font-family="Helvetica,sans-Serif" font-size="10.00">&#45;</text>
<text text-anchor="start" x="15" y="-216.5" font-family="Helvetica,sans-Serif" font-size="10.00">MaxTotalAllocation</text>
<text text-anchor="start" x="5.5" y="-201.5" font-family="Helvetica,sans-Serif" font-size="10.00">&#45;</text>
<text text-anchor="start" x="15" y="-201.5" font-family="Helvetica,sans-Serif" font-size="10.00">MinPriorityImprovementRatio</text>
<text text-anchor="start" x="5.5" y="-186.5" font-family="Helvetica,sans-Serif" font-size="10.00">&#45;</text>
<text text-anchor="start" x="15" y="-186.5" font-family="Helvetica,sans-Serif" font-size="10.00">FractionalKellyMultiplier</text>
<text text-anchor="start" x="5.5" y="-171.5" font-family="Helvetica,sans-Serif" font-size="10.00">&#45;</text>
<text text-anchor="start" x="15" y="-171.5" font-family="Helvetica,sans-Serif" font-size="10.00">LogAllocationDecision</text>
<text text-anchor="start" x="5.5" y="-156.5" font-family="Helvetica,sans-Serif" font-size="10.00">&#45;</text>
<text text-anchor="start" x="15" y="-156.5" font-family="Helvetica,sans-Serif" font-size="10.00">LogDisplacementDecision</text>
<text text-anchor="start" x="5.5" y="-141.5" font-family="Helvetica,sans-Serif" font-size="10.00">&#45;</text>
<text text-anchor="start" x="15" y="-141.5" font-family="Helvetica,sans-Serif" font-size="10.00">LogQueueState</text>
<text text-anchor="start" x="4" y="-126.5" font-family="Helvetica,sans-Serif" font-size="10.00">+</text>
<text text-anchor="start" x="15" y="-126.5" font-family="Helvetica,sans-Serif" font-size="10.00">STRK004A()</text>
<text text-anchor="start" x="4" y="-111.5" font-family="Helvetica,sans-Serif" font-size="10.00">+</text>
<text text-anchor="start" x="15" y="-111.5" font-family="Helvetica,sans-Serif" font-size="10.00">Allocate()</text>
<text text-anchor="start" x="4" y="-96.5" font-family="Helvetica,sans-Serif" font-size="10.00">+</text>
<text text-anchor="start" x="15" y="-96.5" font-family="Helvetica,sans-Serif" font-size="10.00">CalculatePriority()</text>
<text text-anchor="start" x="4" y="-81.5" font-family="Helvetica,sans-Serif" font-size="10.00">+</text>
<text text-anchor="start" x="15" y="-81.5" font-family="Helvetica,sans-Serif" font-size="10.00">RebalancePortfolio()</text>
<text text-anchor="start" x="5.5" y="-66.5" font-family="Helvetica,sans-Serif" font-size="10.00">&#45;</text>
<text text-anchor="start" x="15" y="-66.5" font-family="Helvetica,sans-Serif" font-size="10.00">CalculateQueueBasedAllocation()</text>
<text text-anchor="start" x="5.5" y="-51.5" font-family="Helvetica,sans-Serif" font-size="10.00">&#45;</text>
<text text-anchor="start" x="15" y="-51.5" font-family="Helvetica,sans-Serif" font-size="10.00">EvaluateDisplacement()</text>
<text text-anchor="start" x="5.5" y="-36.5" font-family="Helvetica,sans-Serif" font-size="10.00">&#45;</text>
<text text-anchor="start" x="15" y="-36.5" font-family="Helvetica,sans-Serif" font-size="10.00">SafeLog()</text>
<text text-anchor="start" x="5.5" y="-21.5" font-family="Helvetica,sans-Serif" font-size="10.00">&#45;</text>
<text text-anchor="start" x="15" y="-21.5" font-family="Helvetica,sans-Serif" font-size="10.00">CalculateVariancePenalty()</text>
<text text-anchor="start" x="5.5" y="-6.5" font-family="Helvetica,sans-Serif" font-size="10.00">&#45;</text>
<text text-anchor="start" x="15" y="-6.5" font-family="Helvetica,sans-Serif" font-size="10.00">BuildPriorityQueue()</text>
<polygon fill="#666666" stroke="#666666" points="0,-241.5 0,-241.5 166,-241.5 166,-241.5 0,-241.5"/>
<polygon fill="#666666" stroke="#666666" points="0,-136.5 0,-136.5 13,-136.5 13,-136.5 0,-136.5"/>
<polygon fill="#666666" stroke="#666666" points="13,-136.5 13,-136.5 166,-136.5 166,-136.5 13,-136.5"/>
<polygon fill="none" stroke="#666666" points="0,0 0,-259 166,-259 166,0 0,0"/>
</a>
</g>
</g>
<!-- Node2 -->
<g id="Node000002" class="node">
<title>Node2</title>
<g id="a_Node000002"><a xlink:href="../../d2/d00/classAlaris_1_1Strategy_1_1Risk_1_1STRK001A.html" target="_top" xlink:title="Implements Kelly Criterion position sizing for options strategies. Uses fractional Kelly (typically 2...">
<polygon fill="white" stroke="transparent" points="160.5,-550 5.5,-550 5.5,-306 160.5,-306 160.5,-550"/>
<text text-anchor="start" x="14" y="-538" font-family="Helvetica,sans-Serif" font-size="10.00">Alaris.Strategy.Risk.STRK001A</text>
<text text-anchor="start" x="11.5" y="-523" font-family="Helvetica,sans-Serif" font-size="10.00">&#45;</text>
<text text-anchor="start" x="21" y="-523" font-family="Helvetica,sans-Serif" font-size="10.00">_logger</text>
<text text-anchor="start" x="11.5" y="-508" font-family="Helvetica,sans-Serif" font-size="10.00">&#45;</text>
<text text-anchor="start" x="21" y="-508" font-family="Helvetica,sans-Serif" font-size="10.00">LogInsufficientTradeHistory</text>
<text text-anchor="start" x="11.5" y="-493" font-family="Helvetica,sans-Serif" font-size="10.00">&#45;</text>
<text text-anchor="start" x="21" y="-493" font-family="Helvetica,sans-Serif" font-size="10.00">LogInvalidWinRate</text>
<text text-anchor="start" x="11.5" y="-478" font-family="Helvetica,sans-Serif" font-size="10.00">&#45;</text>
<text text-anchor="start" x="21" y="-478" font-family="Helvetica,sans-Serif" font-size="10.00">LogInvalidAverageWinLoss</text>
<text text-anchor="start" x="11.5" y="-463" font-family="Helvetica,sans-Serif" font-size="10.00">&#45;</text>
<text text-anchor="start" x="21" y="-463" font-family="Helvetica,sans-Serif" font-size="10.00">LogPositionCalculated</text>
<text text-anchor="start" x="11.5" y="-448" font-family="Helvetica,sans-Serif" font-size="10.00">&#45;</text>
<text text-anchor="start" x="21" y="-448" font-family="Helvetica,sans-Serif" font-size="10.00">LogErrorCalculatingPosition</text>
<text text-anchor="start" x="11.5" y="-433" font-family="Helvetica,sans-Serif" font-size="10.00">&#45;</text>
<text text-anchor="start" x="21" y="-433" font-family="Helvetica,sans-Serif" font-size="10.00">FractionalKelly</text>
<text text-anchor="start" x="11.5" y="-418" font-family="Helvetica,sans-Serif" font-size="10.00">&#45;</text>
<text text-anchor="start" x="21" y="-418" font-family="Helvetica,sans-Serif" font-size="10.00">MaxAllocation</text>
<text text-anchor="start" x="11.5" y="-403" font-family="Helvetica,sans-Serif" font-size="10.00">&#45;</text>
<text text-anchor="start" x="21" y="-403" font-family="Helvetica,sans-Serif" font-size="10.00">ContractMultiplier</text>
<text text-anchor="start" x="10" y="-388" font-family="Helvetica,sans-Serif" font-size="10.00">+</text>
<text text-anchor="start" x="21" y="-388" font-family="Helvetica,sans-Serif" font-size="10.00">STRK001A()</text>
<text text-anchor="start" x="10" y="-373" font-family="Helvetica,sans-Serif" font-size="10.00">+</text>
<text text-anchor="start" x="21" y="-373" font-family="Helvetica,sans-Serif" font-size="10.00">CalculateFromHistory()</text>
<text text-anchor="start" x="10" y="-358" font-family="Helvetica,sans-Serif" font-size="10.00">+</text>
<text text-anchor="start" x="21" y="-358" font-family="Helvetica,sans-Serif" font-size="10.00">CalculateNetOfCostKelly()</text>
<text text-anchor="start" x="11.5" y="-343" font-family="Helvetica,sans-Serif" font-size="10.00">&#45;</text>
<text text-anchor="start" x="21" y="-343" font-family="Helvetica,sans-Serif" font-size="10.00">SafeLog()</text>
<text text-anchor="start" x="11.5" y="-328" font-family="Helvetica,sans-Serif" font-size="10.00">&#45;</text>
<text text-anchor="start" x="21" y="-328" font-family="Helvetica,sans-Serif" font-size="10.00">AdjustForSTCR004AStrength()</text>
<text text-anchor="start" x="11.5" y="-313" font-family="Helvetica,sans-Serif" font-size="10.00">&#45;</text>
<text text-anchor="start" x="21" y="-313" font-family="Helvetica,sans-Serif" font-size="10.00">GetMinimumPosition()</text>
<polygon fill="#666666" stroke="#666666" points="6,-533 6,-533 161,-533 161,-533 6,-533"/>
<polygon fill="#666666" stroke="#666666" points="6,-398 6,-398 19,-398 19,-398 6,-398"/>
<polygon fill="#666666" stroke="#666666" points="19,-398 19,-398 161,-398 161,-398 19,-398"/>
<polygon fill="none" stroke="#666666" points="5.5,-306 5.5,-550 160.5,-550 160.5,-306 5.5,-306"/>
</a>
</g>
</g>
<!-- Node2&#45;&gt;Node1 -->
<g id="edge1_Node000001_Node000002" class="edge">
<title>Node2&#45;&gt;Node1</title>
<g id="a_edge1_Node000001_Node000002"><a xlink:title=" ">
<path fill="none" stroke="#63b8ff" d="M83,-305.97C83,-294.57 83,-282.93 83,-271.36"/>
<polygon fill="none" stroke="#63b8ff" points="83,-271.34 79,-265.34 83,-259.34 87,-265.34 83,-271.34"/>
</a>
</g>
<text text-anchor="middle" x="110.5" y="-280" font-family="Helvetica,sans-Serif" font-size="10.00" fill="grey"> &#45;_baseKelly</text>
</g>
</g>
</svg>
