<?xml version="1.0" encoding="UTF-8" standalone="no"?>
<!DOCTYPE svg PUBLIC "-//W3C//DTD SVG 1.1//EN"
 "http://www.w3.org/Graphics/SVG/1.1/DTD/svg11.dtd">
<!-- Generated by graphviz version 2.43.0 (0)
 -->
<!-- Title: Alaris.Host.Application.Command.UniverseSettings Pages: 1 -->
<svg width="142pt" height="213pt"
 viewBox="0.00 0.00 142.00 213.00" xmlns="http://www.w3.org/2000/svg" xmlns:xlink="http://www.w3.org/1999/xlink">

<svg id="main" version="1.1" xmlns="http://www.w3.org/2000/svg" xmlns:xlink="http://www.w3.org/1999/xlink" xml:space="preserve" onload="init(evt)">
<style type="text/css"><![CDATA[
.node, .edge {opacity: 0.7;}
.node.selected, .edge.selected {opacity: 1;}
.edge:hover path { stroke: red; }
.edge:hover polygon { stroke: red; fill: red; }
]]></style>
<script type="application/ecmascript" xlink:href="../../svg.min.js"/>
<svg id="graph" class="graph">
<g id="graph0" class="graph" transform="scale(1 1) rotate(0) translate(4 209)">
<title>Alaris.Host.Application.Command.UniverseSettings</title>
<!-- Node1 -->
<g id="Node000001" class="node">
<title>Node1</title>
<g id="a_Node000001"><a xlink:title="Universe command settings.">
<polygon fill="#999999" stroke="transparent" points="134,-120 0,-120 0,0 134,0 134,-120"/>
<text text-anchor="start" x="5" y="-108" font-family="Helvetica,sans-Serif" font-size="10.00">Alaris.Host.Application.</text>
<text text-anchor="start" x="5" y="-97" font-family="Helvetica,sans-Serif" font-size="10.00">Command.UniverseSettings</text>
<text text-anchor="start" x="14" y="-82" font-family="Helvetica,sans-Serif" font-size="10.00">+</text>
<text text-anchor="start" x="35" y="-82" font-family="Helvetica,sans-Serif" font-size="10.00">Action</text>
<text text-anchor="start" x="14" y="-67" font-family="Helvetica,sans-Serif" font-size="10.00">+</text>
<text text-anchor="start" x="35" y="-67" font-family="Helvetica,sans-Serif" font-size="10.00">FromDate</text>
<text text-anchor="start" x="14" y="-52" font-family="Helvetica,sans-Serif" font-size="10.00">+</text>
<text text-anchor="start" x="35" y="-52" font-family="Helvetica,sans-Serif" font-size="10.00">ToDate</text>
<text text-anchor="start" x="14" y="-37" font-family="Helvetica,sans-Serif" font-size="10.00">+</text>
<text text-anchor="start" x="35" y="-37" font-family="Helvetica,sans-Serif" font-size="10.00">MinDollarVolume</text>
<text text-anchor="start" x="14" y="-22" font-family="Helvetica,sans-Serif" font-size="10.00">+</text>
<text text-anchor="start" x="35" y="-22" font-family="Helvetica,sans-Serif" font-size="10.00">MinPrice</text>
<text text-anchor="start" x="65" y="-7" font-family="Helvetica,sans-Serif" font-size="10.00"> </text>
<polygon fill="#666666" stroke="#666666" points="0,-92 0,-92 134,-92 134,-92 0,-92"/>
<polygon fill="#666666" stroke="#666666" points="0,-17 0,-17 33,-17 33,-17 0,-17"/>
<polygon fill="#666666" stroke="#666666" points="33,-17 33,-17 134,-17 134,-17 33,-17"/>
<polygon fill="none" stroke="#666666" points="0,0 0,-120 134,-120 134,0 0,0"/>
</a>
</g>
</g>
<!-- Node2 -->
<g id="Node000002" class="node">
<title>Node2</title>
<g id="a_Node000002"><a xlink:title=" ">
<polygon fill="white" stroke="transparent" points="113,-205 21,-205 21,-156 113,-156 113,-205"/>
<text text-anchor="start" x="26" y="-192.5" font-family="Helvetica,sans-Serif" font-size="10.00">CommandSettings</text>
<text text-anchor="start" x="65" y="-177.5" font-family="Helvetica,sans-Serif" font-size="10.00"> </text>
<text text-anchor="start" x="65" y="-162.5" font-family="Helvetica,sans-Serif" font-size="10.00"> </text>
<polygon fill="#666666" stroke="#666666" points="21,-187.5 21,-187.5 113,-187.5 113,-187.5 21,-187.5"/>
<polygon fill="#666666" stroke="#666666" points="21,-172.5 21,-172.5 113,-172.5 113,-172.5 21,-172.5"/>
<polygon fill="none" stroke="#666666" points="21,-156 21,-205 113,-205 113,-156 21,-156"/>
</a>
</g>
</g>
<!-- Node2&#45;&gt;Node1 -->
<g id="edge1_Node000001_Node000002" class="edge">
<title>Node2&#45;&gt;Node1</title>
<g id="a_edge1_Node000001_Node000002"><a xlink:title=" ">
<path fill="none" stroke="#63b8ff" d="M67,-145.59C67,-137.71 67,-129.09 67,-120.47"/>
<polygon fill="none" stroke="#63b8ff" points="63.5,-145.8 67,-155.8 70.5,-145.8 63.5,-145.8"/>
</a>
</g>
</g>
</g>
</svg>
</svg>

<style type='text/css'>
<![CDATA[
[data-mouse-over-selected='false'] { opacity: 0.7; }
[data-mouse-over-selected='true']  { opacity: 1.0; }
]]>
</style>
<script type="application/ecmascript"><![CDATA[
document.addEventListener('DOMContentLoaded', (event) => {
  highlightEdges();
  highlightAdjacentNodes();
});
]]></script>
</svg>
