<?xml version="1.0" encoding="UTF-8" standalone="no"?>
<!DOCTYPE svg PUBLIC "-//W3C//DTD SVG 1.1//EN"
 "http://www.w3.org/Graphics/SVG/1.1/DTD/svg11.dtd">
<!-- Generated by graphviz version 2.43.0 (0)
 -->
<!-- Title: Alaris.Host.Application.Cli.Monitor.CLmn002A Pages: 1 -->
<svg width="162pt" height="378pt"
 viewBox="0.00 0.00 162.00 378.00" xmlns="http://www.w3.org/2000/svg" xmlns:xlink="http://www.w3.org/1999/xlink">
<g id="graph0" class="graph" transform="scale(1 1) rotate(0) translate(4 374)">
<title>Alaris.Host.Application.Cli.Monitor.CLmn002A</title>
<!-- Node1 -->
<g id="Node000001" class="node">
<title>Node1</title>
<g id="a_Node000001"><a xlink:title="Monitors a LEAN backtest in progress and publishes events. Component ID: CLmn002A.">
<polygon fill="#999999" stroke="transparent" points="142.5,-255 17.5,-255 17.5,0 142.5,0 142.5,-255"/>
<text text-anchor="start" x="29" y="-242.5" font-family="Helvetica,sans-Serif" font-size="10.00">Alaris.Host.Application.</text>
<text text-anchor="start" x="31" y="-231.5" font-family="Helvetica,sans-Serif" font-size="10.00">Cli.Monitor.CLmn002A</text>
<text text-anchor="start" x="22" y="-216.5" font-family="Helvetica,sans-Serif" font-size="10.00">+</text>
<text text-anchor="start" x="33" y="-216.5" font-family="Helvetica,sans-Serif" font-size="10.00">IsRunning</text>
<text text-anchor="start" x="22" y="-201.5" font-family="Helvetica,sans-Serif" font-size="10.00">+</text>
<text text-anchor="start" x="33" y="-201.5" font-family="Helvetica,sans-Serif" font-size="10.00">Mode</text>
<text text-anchor="start" x="23.5" y="-186.5" font-family="Helvetica,sans-Serif" font-size="10.00">&#45;</text>
<text text-anchor="start" x="33" y="-186.5" font-family="Helvetica,sans-Serif" font-size="10.00">_sessionId</text>
<text text-anchor="start" x="23.5" y="-171.5" font-family="Helvetica,sans-Serif" font-size="10.00">&#45;</text>
<text text-anchor="start" x="33" y="-171.5" font-family="Helvetica,sans-Serif" font-size="10.00">_resultsPath</text>
<text text-anchor="start" x="23.5" y="-156.5" font-family="Helvetica,sans-Serif" font-size="10.00">&#45;</text>
<text text-anchor="start" x="33" y="-156.5" font-family="Helvetica,sans-Serif" font-size="10.00">_cts</text>
<text text-anchor="start" x="23.5" y="-141.5" font-family="Helvetica,sans-Serif" font-size="10.00">&#45;</text>
<text text-anchor="start" x="33" y="-141.5" font-family="Helvetica,sans-Serif" font-size="10.00">_monitorTask</text>
<text text-anchor="start" x="23.5" y="-126.5" font-family="Helvetica,sans-Serif" font-size="10.00">&#45;</text>
<text text-anchor="start" x="33" y="-126.5" font-family="Helvetica,sans-Serif" font-size="10.00">_lastEquity</text>
<text text-anchor="start" x="22" y="-111.5" font-family="Helvetica,sans-Serif" font-size="10.00">+</text>
<text text-anchor="start" x="33" y="-111.5" font-family="Helvetica,sans-Serif" font-size="10.00">CLmn002A()</text>
<text text-anchor="start" x="22" y="-96.5" font-family="Helvetica,sans-Serif" font-size="10.00">+</text>
<text text-anchor="start" x="33" y="-96.5" font-family="Helvetica,sans-Serif" font-size="10.00">StartAsync()</text>
<text text-anchor="start" x="22" y="-81.5" font-family="Helvetica,sans-Serif" font-size="10.00">+</text>
<text text-anchor="start" x="33" y="-81.5" font-family="Helvetica,sans-Serif" font-size="10.00">StopAsync()</text>
<text text-anchor="start" x="22" y="-66.5" font-family="Helvetica,sans-Serif" font-size="10.00">+</text>
<text text-anchor="start" x="33" y="-66.5" font-family="Helvetica,sans-Serif" font-size="10.00">Dispose()</text>
<text text-anchor="start" x="23.5" y="-51.5" font-family="Helvetica,sans-Serif" font-size="10.00">&#45;</text>
<text text-anchor="start" x="33" y="-51.5" font-family="Helvetica,sans-Serif" font-size="10.00">MonitorLoopAsync()</text>
<text text-anchor="start" x="23.5" y="-36.5" font-family="Helvetica,sans-Serif" font-size="10.00">&#45;</text>
<text text-anchor="start" x="33" y="-36.5" font-family="Helvetica,sans-Serif" font-size="10.00">PollResultsAsync()</text>
<text text-anchor="start" x="23.5" y="-21.5" font-family="Helvetica,sans-Serif" font-size="10.00">&#45;</text>
<text text-anchor="start" x="33" y="-21.5" font-family="Helvetica,sans-Serif" font-size="10.00">ParsePerformanceLine()</text>
<text text-anchor="start" x="23.5" y="-6.5" font-family="Helvetica,sans-Serif" font-size="10.00">&#45;</text>
<text text-anchor="start" x="33" y="-6.5" font-family="Helvetica,sans-Serif" font-size="10.00">ParseTradeLine()</text>
<polygon fill="#666666" stroke="#666666" points="18,-226.5 18,-226.5 143,-226.5 143,-226.5 18,-226.5"/>
<polygon fill="#666666" stroke="#666666" points="18,-121.5 18,-121.5 31,-121.5 31,-121.5 18,-121.5"/>
<polygon fill="#666666" stroke="#666666" points="31,-121.5 31,-121.5 143,-121.5 143,-121.5 31,-121.5"/>
<polygon fill="none" stroke="#666666" points="17.5,0 17.5,-255 142.5,-255 142.5,0 17.5,0"/>
</a>
</g>
</g>
<!-- Node2 -->
<g id="Node000002" class="node">
<title>Node2</title>
<g id="a_Node000002"><a xlink:href="../../df/d02/interfaceAlaris_1_1Host_1_1Application_1_1Cli_1_1Monitor_1_1CLmn001A.html" target="_top" xlink:title="Interface for monitoring algorithm execution (backtest or live). Provides observable streams of equit...">
<polygon fill="white" stroke="transparent" points="74,-370 0,-370 0,-291 74,-291 74,-370"/>
<text text-anchor="start" x="12.5" y="-357.5" font-family="Helvetica,sans-Serif" font-size="10.00">CLmn001A</text>
<text text-anchor="start" x="4" y="-342.5" font-family="Helvetica,sans-Serif" font-size="10.00">+</text>
<text text-anchor="start" x="15" y="-342.5" font-family="Helvetica,sans-Serif" font-size="10.00">IsRunning</text>
<text text-anchor="start" x="4" y="-327.5" font-family="Helvetica,sans-Serif" font-size="10.00">+</text>
<text text-anchor="start" x="15" y="-327.5" font-family="Helvetica,sans-Serif" font-size="10.00">Mode</text>
<text text-anchor="start" x="4" y="-312.5" font-family="Helvetica,sans-Serif" font-size="10.00">+</text>
<text text-anchor="start" x="15" y="-312.5" font-family="Helvetica,sans-Serif" font-size="10.00">StartAsync()</text>
<text text-anchor="start" x="4" y="-297.5" font-family="Helvetica,sans-Serif" font-size="10.00">+</text>
<text text-anchor="start" x="15" y="-297.5" font-family="Helvetica,sans-Serif" font-size="10.00">StopAsync()</text>
<polygon fill="#666666" stroke="#666666" points="0,-352.5 0,-352.5 74,-352.5 74,-352.5 0,-352.5"/>
<polygon fill="#666666" stroke="#666666" points="0,-322.5 0,-322.5 13,-322.5 13,-322.5 0,-322.5"/>
<polygon fill="#666666" stroke="#666666" points="13,-322.5 13,-322.5 74,-322.5 74,-322.5 13,-322.5"/>
<polygon fill="none" stroke="#666666" points="0,-291 0,-370 74,-370 74,-291 0,-291"/>
</a>
</g>
</g>
<!-- Node2&#45;&gt;Node1 -->
<g id="edge1_Node000001_Node000002" class="edge">
<title>Node2&#45;&gt;Node1</title>
<g id="a_edge1_Node000001_Node000002"><a xlink:title=" ">
<path fill="none" stroke="#63b8ff" d="M47.39,-280.92C49.11,-272.89 50.96,-264.25 52.87,-255.32"/>
<polygon fill="none" stroke="#63b8ff" points="43.96,-280.23 45.29,-290.75 50.81,-281.7 43.96,-280.23"/>
</a>
</g>
</g>
<!-- Node3 -->
<g id="Node000003" class="node">
<title>Node3</title>
<g id="a_Node000003"><a xlink:title=" ">
<polygon fill="white" stroke="transparent" points="154,-355 92,-355 92,-306 154,-306 154,-355"/>
<text text-anchor="start" x="97" y="-342.5" font-family="Helvetica,sans-Serif" font-size="10.00">IDisposable</text>
<text text-anchor="start" x="121" y="-327.5" font-family="Helvetica,sans-Serif" font-size="10.00"> </text>
<text text-anchor="start" x="121" y="-312.5" font-family="Helvetica,sans-Serif" font-size="10.00"> </text>
<polygon fill="#666666" stroke="#666666" points="92,-337.5 92,-337.5 154,-337.5 154,-337.5 92,-337.5"/>
<polygon fill="#666666" stroke="#666666" points="92,-322.5 92,-322.5 154,-322.5 154,-322.5 92,-322.5"/>
<polygon fill="none" stroke="#666666" points="92,-306 92,-355 154,-355 154,-306 92,-306"/>
</a>
</g>
</g>
<!-- Node3&#45;&gt;Node1 -->
<g id="edge2_Node000001_Node000003" class="edge">
<title>Node3&#45;&gt;Node1</title>
<g id="a_edge2_Node000001_Node000003"><a xlink:title=" ">
<path fill="none" stroke="#63b8ff" d="M115.73,-295.52C113.22,-283.77 110.23,-269.82 107.08,-255.06"/>
<polygon fill="none" stroke="#63b8ff" points="112.38,-296.61 117.9,-305.65 119.23,-295.14 112.38,-296.61"/>
</a>
</g>
</g>
</g>
</svg>
