<?xml version="1.0" encoding="UTF-8" standalone="no"?>
<!DOCTYPE svg PUBLIC "-//W3C//DTD SVG 1.1//EN"
 "http://www.w3.org/Graphics/SVG/1.1/DTD/svg11.dtd">
<!-- Generated by graphviz version 2.43.0 (0)
 -->
<!-- Title: Alaris.Strategy.Cost.STCS006A Pages: 1 -->
<svg width="174pt" height="374pt"
 viewBox="0.00 0.00 174.00 374.00" xmlns="http://www.w3.org/2000/svg" xmlns:xlink="http://www.w3.org/1999/xlink">

<svg id="main" version="1.1" xmlns="http://www.w3.org/2000/svg" xmlns:xlink="http://www.w3.org/1999/xlink" xml:space="preserve" onload="init(evt)">
<style type="text/css"><![CDATA[
.node, .edge {opacity: 0.7;}
.node.selected, .edge.selected {opacity: 1;}
.edge:hover path { stroke: red; }
.edge:hover polygon { stroke: red; fill: red; }
]]></style>
<script type="application/ecmascript" xlink:href="../../svg.min.js"/>
<svg id="graph" class="graph">
<g id="graph0" class="graph" transform="scale(1 1) rotate(0) translate(4 370)">
<title>Alaris.Strategy.Cost.STCS006A</title>
<!-- Node1 -->
<g id="Node000001" class="node">
<title>Node1</title>
<g id="a_Node000001"><a xlink:title="Validates that trading signals survive execution costs.">
<polygon fill="#999999" stroke="transparent" points="166,-255 0,-255 0,0 166,0 166,-255"/>
<text text-anchor="start" x="13" y="-242.5" font-family="Helvetica,sans-Serif" font-size="10.00">Alaris.Strategy.Cost.STCS006A</text>
<text text-anchor="start" x="4" y="-227.5" font-family="Helvetica,sans-Serif" font-size="10.00">+</text>
<text text-anchor="start" x="15" y="-227.5" font-family="Helvetica,sans-Serif" font-size="10.00">DefaultMinimumPostCostRatio</text>
<text text-anchor="start" x="4" y="-212.5" font-family="Helvetica,sans-Serif" font-size="10.00">+</text>
<text text-anchor="start" x="15" y="-212.5" font-family="Helvetica,sans-Serif" font-size="10.00">DefaultMaximumSlippagePercent</text>
<text text-anchor="start" x="4" y="-197.5" font-family="Helvetica,sans-Serif" font-size="10.00">+</text>
<text text-anchor="start" x="15" y="-197.5" font-family="Helvetica,sans-Serif" font-size="10.00">DefaultMaximumExecutionCost</text>
<text text-anchor="start" x="15" y="-186.5" font-family="Helvetica,sans-Serif" font-size="10.00">Percent</text>
<text text-anchor="start" x="5.5" y="-171.5" font-family="Helvetica,sans-Serif" font-size="10.00">&#45;</text>
<text text-anchor="start" x="15" y="-171.5" font-family="Helvetica,sans-Serif" font-size="10.00">_logger</text>
<text text-anchor="start" x="5.5" y="-156.5" font-family="Helvetica,sans-Serif" font-size="10.00">&#45;</text>
<text text-anchor="start" x="15" y="-156.5" font-family="Helvetica,sans-Serif" font-size="10.00">_minimumPostCostIVRVRatio</text>
<text text-anchor="start" x="5.5" y="-141.5" font-family="Helvetica,sans-Serif" font-size="10.00">&#45;</text>
<text text-anchor="start" x="15" y="-141.5" font-family="Helvetica,sans-Serif" font-size="10.00">_maximumSlippagePercent</text>
<text text-anchor="start" x="5.5" y="-126.5" font-family="Helvetica,sans-Serif" font-size="10.00">&#45;</text>
<text text-anchor="start" x="15" y="-126.5" font-family="Helvetica,sans-Serif" font-size="10.00">_maximumExecutionCostPercent</text>
<text text-anchor="start" x="5.5" y="-111.5" font-family="Helvetica,sans-Serif" font-size="10.00">&#45;</text>
<text text-anchor="start" x="15" y="-111.5" font-family="Helvetica,sans-Serif" font-size="10.00">LogValidationResult</text>
<text text-anchor="start" x="5.5" y="-96.5" font-family="Helvetica,sans-Serif" font-size="10.00">&#45;</text>
<text text-anchor="start" x="15" y="-96.5" font-family="Helvetica,sans-Serif" font-size="10.00">LogSlippageWarning</text>
<text text-anchor="start" x="5.5" y="-81.5" font-family="Helvetica,sans-Serif" font-size="10.00">&#45;</text>
<text text-anchor="start" x="15" y="-81.5" font-family="Helvetica,sans-Serif" font-size="10.00">LogValidationError</text>
<text text-anchor="start" x="4" y="-66.5" font-family="Helvetica,sans-Serif" font-size="10.00">+</text>
<text text-anchor="start" x="15" y="-66.5" font-family="Helvetica,sans-Serif" font-size="10.00">STCS006A()</text>
<text text-anchor="start" x="4" y="-51.5" font-family="Helvetica,sans-Serif" font-size="10.00">+</text>
<text text-anchor="start" x="15" y="-51.5" font-family="Helvetica,sans-Serif" font-size="10.00">Validate()</text>
<text text-anchor="start" x="4" y="-36.5" font-family="Helvetica,sans-Serif" font-size="10.00">+</text>
<text text-anchor="start" x="15" y="-36.5" font-family="Helvetica,sans-Serif" font-size="10.00">ValidateBatch()</text>
<text text-anchor="start" x="5.5" y="-21.5" font-family="Helvetica,sans-Serif" font-size="10.00">&#45;</text>
<text text-anchor="start" x="15" y="-21.5" font-family="Helvetica,sans-Serif" font-size="10.00">SafeLog()</text>
<text text-anchor="start" x="5.5" y="-6.5" font-family="Helvetica,sans-Serif" font-size="10.00">&#45;</text>
<text text-anchor="start" x="15" y="-6.5" font-family="Helvetica,sans-Serif" font-size="10.00">ComputePostCostRatio()</text>
<polygon fill="#666666" stroke="#666666" points="0,-237.5 0,-237.5 166,-237.5 166,-237.5 0,-237.5"/>
<polygon fill="#666666" stroke="#666666" points="0,-76.5 0,-76.5 13,-76.5 13,-76.5 0,-76.5"/>
<polygon fill="#666666" stroke="#666666" points="13,-76.5 13,-76.5 166,-76.5 166,-76.5 13,-76.5"/>
<polygon fill="none" stroke="#666666" points="0,0 0,-255 166,-255 166,0 0,0"/>
</a>
</g>
</g>
<!-- Node2 -->
<g id="Node000002" class="node">
<title>Node2</title>
<g id="a_Node000002"><a xlink:href="../../df/d02/interfaceAlaris_1_1Strategy_1_1Cost_1_1STCS001A.html" target="_top" xlink:title="Defines the contract for execution cost models.">
<polygon fill="white" stroke="transparent" points="158,-366 8,-366 8,-302 158,-302 158,-366"/>
<text text-anchor="start" x="13" y="-354" font-family="Helvetica,sans-Serif" font-size="10.00">Alaris.Strategy.Cost.STCS001A</text>
<text text-anchor="start" x="20" y="-339" font-family="Helvetica,sans-Serif" font-size="10.00">+</text>
<text text-anchor="start" x="39" y="-339" font-family="Helvetica,sans-Serif" font-size="10.00">ModelName</text>
<text text-anchor="start" x="20" y="-324" font-family="Helvetica,sans-Serif" font-size="10.00">+</text>
<text text-anchor="start" x="39" y="-324" font-family="Helvetica,sans-Serif" font-size="10.00">ComputeOptionCost()</text>
<text text-anchor="start" x="20" y="-309" font-family="Helvetica,sans-Serif" font-size="10.00">+</text>
<text text-anchor="start" x="39" y="-309" font-family="Helvetica,sans-Serif" font-size="10.00">ComputeSpreadCost()</text>
<polygon fill="#666666" stroke="#666666" points="8,-349 8,-349 158,-349 158,-349 8,-349"/>
<polygon fill="#666666" stroke="#666666" points="8,-334 8,-334 37,-334 37,-334 8,-334"/>
<polygon fill="#666666" stroke="#666666" points="37,-334 37,-334 158,-334 158,-334 37,-334"/>
<polygon fill="none" stroke="#666666" points="8,-302 8,-366 158,-366 158,-302 8,-302"/>
</a>
</g>
</g>
<!-- Node2&#45;&gt;Node1 -->
<g id="edge1_Node000001_Node000002" class="edge">
<title>Node2&#45;&gt;Node1</title>
<g id="a_edge1_Node000001_Node000002"><a xlink:title=" ">
<path fill="none" stroke="#63b8ff" d="M83,-301.94C83,-291.95 83,-280.16 83,-267.5"/>
<polygon fill="none" stroke="#63b8ff" points="83,-267.13 79,-261.13 83,-255.13 87,-261.13 83,-267.13"/>
</a>
</g>
<text text-anchor="middle" x="111.5" y="-276" font-family="Helvetica,sans-Serif" font-size="10.00" fill="grey"> &#45;_costModel</text>
</g>
</g>
</svg>
</svg>

<style type='text/css'>
<![CDATA[
[data-mouse-over-selected='false'] { opacity: 0.7; }
[data-mouse-over-selected='true']  { opacity: 1.0; }
]]>
</style>
<script type="application/ecmascript"><![CDATA[
document.addEventListener('DOMContentLoaded', (event) => {
  highlightEdges();
  highlightAdjacentNodes();
});
]]></script>
</svg>
