<?xml version="1.0" encoding="UTF-8" standalone="no"?>
<!DOCTYPE svg PUBLIC "-//W3C//DTD SVG 1.1//EN"
 "http://www.w3.org/Graphics/SVG/1.1/DTD/svg11.dtd">
<!-- Generated by graphviz version 2.43.0 (0)
 -->
<!-- Title: Alaris.Host.Application.Cli.Commands.Data.CLdt003A Pages: 1 -->
<svg width="156pt" height="164pt"
 viewBox="0.00 0.00 156.00 164.00" xmlns="http://www.w3.org/2000/svg" xmlns:xlink="http://www.w3.org/1999/xlink">
<g id="graph0" class="graph" transform="scale(1 1) rotate(0) translate(4 160)">
<title>Alaris.Host.Application.Cli.Commands.Data.CLdt003A</title>
<!-- Node1 -->
<g id="Node000001" class="node">
<title>Node1</title>
<g id="a_Node000001"><a xlink:title="Validates data quality for a session. Component ID: CLdt003A.">
<polygon fill="#999999" stroke="transparent" points="147,-60 1,-60 1,0 147,0 147,-60"/>
<text text-anchor="start" x="6" y="-48" font-family="Helvetica,sans-Serif" font-size="10.00">Alaris.Host.Application.</text>
<text text-anchor="start" x="6" y="-37" font-family="Helvetica,sans-Serif" font-size="10.00">Cli.Commands.Data.CLdt003A</text>
<text text-anchor="start" x="72" y="-22" font-family="Helvetica,sans-Serif" font-size="10.00"> </text>
<text text-anchor="start" x="19" y="-7" font-family="Helvetica,sans-Serif" font-size="10.00">+</text>
<text text-anchor="start" x="44" y="-7" font-family="Helvetica,sans-Serif" font-size="10.00">ExecuteAsync()</text>
<polygon fill="#666666" stroke="#666666" points="1,-32 1,-32 147,-32 147,-32 1,-32"/>
<polygon fill="#666666" stroke="#666666" points="1,-17 1,-17 147,-17 147,-17 1,-17"/>
<polygon fill="none" stroke="#666666" points="1,0 1,-60 147,-60 147,0 1,0"/>
</a>
</g>
</g>
<!-- Node2 -->
<g id="Node000002" class="node">
<title>Node2</title>
<g id="a_Node000002"><a xlink:title=" ">
<polygon fill="white" stroke="transparent" points="148,-156 0,-156 0,-96 148,-96 148,-156"/>
<text text-anchor="start" x="5" y="-144" font-family="Helvetica,sans-Serif" font-size="10.00">AsyncCommand&lt; DataValidate</text>
<text text-anchor="start" x="51" y="-133" font-family="Helvetica,sans-Serif" font-size="10.00">Settings &gt;</text>
<text text-anchor="start" x="72" y="-118" font-family="Helvetica,sans-Serif" font-size="10.00"> </text>
<text text-anchor="start" x="72" y="-103" font-family="Helvetica,sans-Serif" font-size="10.00"> </text>
<polygon fill="#666666" stroke="#666666" points="0,-128 0,-128 148,-128 148,-128 0,-128"/>
<polygon fill="#666666" stroke="#666666" points="0,-113 0,-113 148,-113 148,-113 0,-113"/>
<polygon fill="none" stroke="#666666" points="0,-96 0,-156 148,-156 148,-96 0,-96"/>
</a>
</g>
</g>
<!-- Node2&#45;&gt;Node1 -->
<g id="edge1_Node000001_Node000002" class="edge">
<title>Node2&#45;&gt;Node1</title>
<g id="a_edge1_Node000001_Node000002"><a xlink:title=" ">
<path fill="none" stroke="#63b8ff" d="M74,-85.63C74,-77.11 74,-68.25 74,-60.21"/>
<polygon fill="none" stroke="#63b8ff" points="70.5,-85.77 74,-95.77 77.5,-85.77 70.5,-85.77"/>
</a>
</g>
</g>
</g>
</svg>
