<?xml version="1.0" encoding="UTF-8" standalone="no"?>
<!DOCTYPE svg PUBLIC "-//W3C//DTD SVG 1.1//EN"
 "http://www.w3.org/Graphics/SVG/1.1/DTD/svg11.dtd">
<!-- Generated by graphviz version 2.43.0 (0)
 -->
<!-- Title: Alaris.Strategy.Hedge.STHD005A Pages: 1 -->
<!--zoomable 530 -->

<svg id="main" version="1.1" xmlns="http://www.w3.org/2000/svg" xmlns:xlink="http://www.w3.org/1999/xlink" xml:space="preserve" onload="init(evt)">
<style type="text/css"><![CDATA[
.node, .edge {opacity: 0.7;}
.node.selected, .edge.selected {opacity: 1;}
.edge:hover path { stroke: red; }
.edge:hover polygon { stroke: red; fill: red; }
]]></style>

<defs>
  <circle id="rim" cx="0" cy="0" r="7"/>
  <circle id="rim2" cx="0" cy="0" r="3.5"/>
  <g id="zoomPlus">
    <use xlink:href="#rim" fill="#404040"><set attributeName="fill" to="#808080" begin="zoomplus.mouseover" end="zoomplus.mouseout"/></use>
    <path d="M-4,0h8M0,-4v8" fill="none" stroke="white" stroke-width="1.5" pointer-events="none"/>
  </g>
  <g id="zoomMin">
    <use xlink:href="#rim" fill="#404040"><set attributeName="fill" to="#808080" begin="zoomminus.mouseover" end="zoomminus.mouseout"/></use>
    <path d="M-4,0h8" fill="none" stroke="white" stroke-width="1.5" pointer-events="none"/>
  </g>
  <g id="arrowUp" transform="translate(30 24)">
    <use xlink:href="#rim"/>
    <path pointer-events="none" fill="none" stroke="white" stroke-width="1.5" d="M0,-3.0v7 M-2.5,-0.5L0,-3.0L2.5,-0.5"/>
  </g>
  <g id="arrowRight" transform="rotate(90) translate(36 -43)">
    <use xlink:href="#rim"/>
    <path pointer-events="none" fill="none" stroke="white" stroke-width="1.5" d="M0,-3.0v7 M-2.5,-0.5L0,-3.0L2.5,-0.5"/>
  </g>
  <g id="arrowDown" transform="rotate(180) translate(-30 -48)">
    <use xlink:href="#rim"/>
    <path pointer-events="none" fill="none" stroke="white" stroke-width="1.5" d="M0,-3.0v7 M-2.5,-0.5L0,-3.0L2.5,-0.5"/>
  </g>
  <g id="arrowLeft" transform="rotate(270) translate(-36 17)">
    <use xlink:href="#rim"/>
    <path pointer-events="none" fill="none" stroke="white" stroke-width="1.5" d="M0,-3.0v7 M-2.5,-0.5L0,-3.0L2.5,-0.5"/>
  </g>
  <g id="resetDef">
    <use xlink:href="#rim2" fill="#404040"><set attributeName="fill" to="#808080" begin="reset.mouseover" end="reset.mouseout"/></use>
  </g>
</defs>
<script type="application/ecmascript">
var viewWidth = 694;
var viewHeight = 530;
var sectionId = 'dynsection-0';
</script>
<script type="application/ecmascript" xlink:href="../../svg.min.js"/>
<svg id="graph" class="graph">
<g id="viewport">
<title>Alaris.Strategy.Hedge.STHD005A</title>
<!-- Node1 -->
<g id="Node000001" class="node">
<title>Node1</title>
<g id="a_Node000001"><a xlink:title="Orchestrates all pre&#45;trade validations for production deployment.">
<polygon fill="#999999" stroke="transparent" points="428,-109 270,-109 270,0 428,0 428,-109"/>
<text text-anchor="start" x="275" y="-96.5" font-family="Helvetica,sans-Serif" font-size="10.00">Alaris.Strategy.Hedge.STHD005A</text>
<text text-anchor="start" x="285" y="-81.5" font-family="Helvetica,sans-Serif" font-size="10.00">&#45;</text>
<text text-anchor="start" x="304" y="-81.5" font-family="Helvetica,sans-Serif" font-size="10.00">_logger</text>
<text text-anchor="start" x="285" y="-66.5" font-family="Helvetica,sans-Serif" font-size="10.00">&#45;</text>
<text text-anchor="start" x="304" y="-66.5" font-family="Helvetica,sans-Serif" font-size="10.00">LogValidationComplete</text>
<text text-anchor="start" x="285" y="-51.5" font-family="Helvetica,sans-Serif" font-size="10.00">&#45;</text>
<text text-anchor="start" x="304" y="-51.5" font-family="Helvetica,sans-Serif" font-size="10.00">LogValidationError</text>
<text text-anchor="start" x="283.5" y="-36.5" font-family="Helvetica,sans-Serif" font-size="10.00">+</text>
<text text-anchor="start" x="304" y="-36.5" font-family="Helvetica,sans-Serif" font-size="10.00">STHD005A()</text>
<text text-anchor="start" x="283.5" y="-21.5" font-family="Helvetica,sans-Serif" font-size="10.00">+</text>
<text text-anchor="start" x="304" y="-21.5" font-family="Helvetica,sans-Serif" font-size="10.00">Validate()</text>
<text text-anchor="start" x="285" y="-6.5" font-family="Helvetica,sans-Serif" font-size="10.00">&#45;</text>
<text text-anchor="start" x="304" y="-6.5" font-family="Helvetica,sans-Serif" font-size="10.00">SafeLog()</text>
<polygon fill="#666666" stroke="#666666" points="270,-91.5 270,-91.5 428,-91.5 428,-91.5 270,-91.5"/>
<polygon fill="#666666" stroke="#666666" points="270,-46.5 270,-46.5 302,-46.5 302,-46.5 270,-46.5"/>
<polygon fill="#666666" stroke="#666666" points="302,-46.5 302,-46.5 428,-46.5 428,-46.5 302,-46.5"/>
<polygon fill="none" stroke="#666666" points="270,0 270,-109 428,-109 428,0 270,0"/>
</a>
</g>
</g>
<!-- Node2 -->
<g id="Node000002" class="node">
<title>Node2</title>
<g id="a_Node000002"><a xlink:href="../../de/d01/classAlaris_1_1Strategy_1_1Cost_1_1STCS006A.html" target="_top" xlink:title="Validates that trading signals survive execution costs.">
<polygon fill="white" stroke="transparent" points="166,-411 0,-411 0,-156 166,-156 166,-411"/>
<text text-anchor="start" x="13" y="-398.5" font-family="Helvetica,sans-Serif" font-size="10.00">Alaris.Strategy.Cost.STCS006A</text>
<text text-anchor="start" x="4" y="-383.5" font-family="Helvetica,sans-Serif" font-size="10.00">+</text>
<text text-anchor="start" x="15" y="-383.5" font-family="Helvetica,sans-Serif" font-size="10.00">DefaultMinimumPostCostRatio</text>
<text text-anchor="start" x="4" y="-368.5" font-family="Helvetica,sans-Serif" font-size="10.00">+</text>
<text text-anchor="start" x="15" y="-368.5" font-family="Helvetica,sans-Serif" font-size="10.00">DefaultMaximumSlippagePercent</text>
<text text-anchor="start" x="4" y="-353.5" font-family="Helvetica,sans-Serif" font-size="10.00">+</text>
<text text-anchor="start" x="15" y="-353.5" font-family="Helvetica,sans-Serif" font-size="10.00">DefaultMaximumExecutionCost</text>
<text text-anchor="start" x="15" y="-342.5" font-family="Helvetica,sans-Serif" font-size="10.00">Percent</text>
<text text-anchor="start" x="5.5" y="-327.5" font-family="Helvetica,sans-Serif" font-size="10.00">&#45;</text>
<text text-anchor="start" x="15" y="-327.5" font-family="Helvetica,sans-Serif" font-size="10.00">_logger</text>
<text text-anchor="start" x="5.5" y="-312.5" font-family="Helvetica,sans-Serif" font-size="10.00">&#45;</text>
<text text-anchor="start" x="15" y="-312.5" font-family="Helvetica,sans-Serif" font-size="10.00">_minimumPostCostIVRVRatio</text>
<text text-anchor="start" x="5.5" y="-297.5" font-family="Helvetica,sans-Serif" font-size="10.00">&#45;</text>
<text text-anchor="start" x="15" y="-297.5" font-family="Helvetica,sans-Serif" font-size="10.00">_maximumSlippagePercent</text>
<text text-anchor="start" x="5.5" y="-282.5" font-family="Helvetica,sans-Serif" font-size="10.00">&#45;</text>
<text text-anchor="start" x="15" y="-282.5" font-family="Helvetica,sans-Serif" font-size="10.00">_maximumExecutionCostPercent</text>
<text text-anchor="start" x="5.5" y="-267.5" font-family="Helvetica,sans-Serif" font-size="10.00">&#45;</text>
<text text-anchor="start" x="15" y="-267.5" font-family="Helvetica,sans-Serif" font-size="10.00">LogValidationResult</text>
<text text-anchor="start" x="5.5" y="-252.5" font-family="Helvetica,sans-Serif" font-size="10.00">&#45;</text>
<text text-anchor="start" x="15" y="-252.5" font-family="Helvetica,sans-Serif" font-size="10.00">LogSlippageWarning</text>
<text text-anchor="start" x="5.5" y="-237.5" font-family="Helvetica,sans-Serif" font-size="10.00">&#45;</text>
<text text-anchor="start" x="15" y="-237.5" font-family="Helvetica,sans-Serif" font-size="10.00">LogValidationError</text>
<text text-anchor="start" x="4" y="-222.5" font-family="Helvetica,sans-Serif" font-size="10.00">+</text>
<text text-anchor="start" x="15" y="-222.5" font-family="Helvetica,sans-Serif" font-size="10.00">STCS006A()</text>
<text text-anchor="start" x="4" y="-207.5" font-family="Helvetica,sans-Serif" font-size="10.00">+</text>
<text text-anchor="start" x="15" y="-207.5" font-family="Helvetica,sans-Serif" font-size="10.00">Validate()</text>
<text text-anchor="start" x="4" y="-192.5" font-family="Helvetica,sans-Serif" font-size="10.00">+</text>
<text text-anchor="start" x="15" y="-192.5" font-family="Helvetica,sans-Serif" font-size="10.00">ValidateBatch()</text>
<text text-anchor="start" x="5.5" y="-177.5" font-family="Helvetica,sans-Serif" font-size="10.00">&#45;</text>
<text text-anchor="start" x="15" y="-177.5" font-family="Helvetica,sans-Serif" font-size="10.00">SafeLog()</text>
<text text-anchor="start" x="5.5" y="-162.5" font-family="Helvetica,sans-Serif" font-size="10.00">&#45;</text>
<text text-anchor="start" x="15" y="-162.5" font-family="Helvetica,sans-Serif" font-size="10.00">ComputePostCostRatio()</text>
<polygon fill="#666666" stroke="#666666" points="0,-393.5 0,-393.5 166,-393.5 166,-393.5 0,-393.5"/>
<polygon fill="#666666" stroke="#666666" points="0,-232.5 0,-232.5 13,-232.5 13,-232.5 0,-232.5"/>
<polygon fill="#666666" stroke="#666666" points="13,-232.5 13,-232.5 166,-232.5 166,-232.5 13,-232.5"/>
<polygon fill="none" stroke="#666666" points="0,-156 0,-411 166,-411 166,-156 0,-156"/>
</a>
</g>
</g>
<!-- Node2&#45;&gt;Node1 -->
<g id="edge1_Node000001_Node000002" class="edge">
<title>Node2&#45;&gt;Node1</title>
<g id="a_edge1_Node000001_Node000002"><a xlink:title=" ">
<path fill="none" stroke="#63b8ff" d="M166.04,-164.5C168.98,-161.57 171.97,-158.73 175,-156 199.83,-133.65 230.43,-113.96 259.01,-98.06"/>
<polygon fill="none" stroke="#63b8ff" points="259.31,-97.9 262.67,-91.52 269.85,-92.16 266.5,-98.54 259.31,-97.9"/>
</a>
</g>
<text text-anchor="middle" x="244" y="-130" font-family="Helvetica,sans-Serif" font-size="10.00" fill="grey"> &#45;_costValidator</text>
</g>
<!-- Node3 -->
<g id="Node000003" class="node">
<title>Node3</title>
<g id="a_Node000003"><a xlink:href="../../df/d02/interfaceAlaris_1_1Strategy_1_1Cost_1_1STCS001A.html" target="_top" xlink:title="Defines the contract for execution cost models.">
<polygon fill="white" stroke="transparent" points="158,-522 8,-522 8,-458 158,-458 158,-522"/>
<text text-anchor="start" x="13" y="-510" font-family="Helvetica,sans-Serif" font-size="10.00">Alaris.Strategy.Cost.STCS001A</text>
<text text-anchor="start" x="20" y="-495" font-family="Helvetica,sans-Serif" font-size="10.00">+</text>
<text text-anchor="start" x="39" y="-495" font-family="Helvetica,sans-Serif" font-size="10.00">ModelName</text>
<text text-anchor="start" x="20" y="-480" font-family="Helvetica,sans-Serif" font-size="10.00">+</text>
<text text-anchor="start" x="39" y="-480" font-family="Helvetica,sans-Serif" font-size="10.00">ComputeOptionCost()</text>
<text text-anchor="start" x="20" y="-465" font-family="Helvetica,sans-Serif" font-size="10.00">+</text>
<text text-anchor="start" x="39" y="-465" font-family="Helvetica,sans-Serif" font-size="10.00">ComputeSpreadCost()</text>
<polygon fill="#666666" stroke="#666666" points="8,-505 8,-505 158,-505 158,-505 8,-505"/>
<polygon fill="#666666" stroke="#666666" points="8,-490 8,-490 37,-490 37,-490 8,-490"/>
<polygon fill="#666666" stroke="#666666" points="37,-490 37,-490 158,-490 158,-490 37,-490"/>
<polygon fill="none" stroke="#666666" points="8,-458 8,-522 158,-522 158,-458 8,-458"/>
</a>
</g>
</g>
<!-- Node3&#45;&gt;Node2 -->
<g id="edge2_Node000002_Node000003" class="edge">
<title>Node3&#45;&gt;Node2</title>
<g id="a_edge2_Node000002_Node000003"><a xlink:title=" ">
<path fill="none" stroke="#63b8ff" d="M83,-457.94C83,-447.95 83,-436.16 83,-423.5"/>
<polygon fill="none" stroke="#63b8ff" points="83,-423.13 79,-417.13 83,-411.13 87,-417.13 83,-423.13"/>
</a>
</g>
<text text-anchor="middle" x="111.5" y="-432" font-family="Helvetica,sans-Serif" font-size="10.00" fill="grey"> &#45;_costModel</text>
</g>
<!-- Node4 -->
<g id="Node000004" class="node">
<title>Node4</title>
<g id="a_Node000004"><a xlink:href="../../d1/d01/classAlaris_1_1Strategy_1_1Hedge_1_1STHD001A.html" target="_top" xlink:title="Analyses the correlation between front&#45;month and back&#45;month implied volatility changes to assess cale...">
<polygon fill="white" stroke="transparent" points="342,-403.5 184,-403.5 184,-163.5 342,-163.5 342,-403.5"/>
<text text-anchor="start" x="189" y="-391.5" font-family="Helvetica,sans-Serif" font-size="10.00">Alaris.Strategy.Hedge.STHD001A</text>
<text text-anchor="start" x="190" y="-376.5" font-family="Helvetica,sans-Serif" font-size="10.00">+</text>
<text text-anchor="start" x="203" y="-376.5" font-family="Helvetica,sans-Serif" font-size="10.00">DefaultMaxCorrelation</text>
<text text-anchor="start" x="190" y="-361.5" font-family="Helvetica,sans-Serif" font-size="10.00">+</text>
<text text-anchor="start" x="203" y="-361.5" font-family="Helvetica,sans-Serif" font-size="10.00">DefaultMinimumObservations</text>
<text text-anchor="start" x="191.5" y="-346.5" font-family="Helvetica,sans-Serif" font-size="10.00">&#45;</text>
<text text-anchor="start" x="203" y="-346.5" font-family="Helvetica,sans-Serif" font-size="10.00">_logger</text>
<text text-anchor="start" x="191.5" y="-331.5" font-family="Helvetica,sans-Serif" font-size="10.00">&#45;</text>
<text text-anchor="start" x="203" y="-331.5" font-family="Helvetica,sans-Serif" font-size="10.00">_maxAcceptableCorrelation</text>
<text text-anchor="start" x="191.5" y="-316.5" font-family="Helvetica,sans-Serif" font-size="10.00">&#45;</text>
<text text-anchor="start" x="203" y="-316.5" font-family="Helvetica,sans-Serif" font-size="10.00">_minimumObservations</text>
<text text-anchor="start" x="191.5" y="-301.5" font-family="Helvetica,sans-Serif" font-size="10.00">&#45;</text>
<text text-anchor="start" x="203" y="-301.5" font-family="Helvetica,sans-Serif" font-size="10.00">LogCorrelationResult</text>
<text text-anchor="start" x="191.5" y="-286.5" font-family="Helvetica,sans-Serif" font-size="10.00">&#45;</text>
<text text-anchor="start" x="203" y="-286.5" font-family="Helvetica,sans-Serif" font-size="10.00">LogInsufficientData</text>
<text text-anchor="start" x="190" y="-271.5" font-family="Helvetica,sans-Serif" font-size="10.00">+</text>
<text text-anchor="start" x="203" y="-271.5" font-family="Helvetica,sans-Serif" font-size="10.00">STHD001A()</text>
<text text-anchor="start" x="190" y="-256.5" font-family="Helvetica,sans-Serif" font-size="10.00">+</text>
<text text-anchor="start" x="203" y="-256.5" font-family="Helvetica,sans-Serif" font-size="10.00">Analyse()</text>
<text text-anchor="start" x="190" y="-241.5" font-family="Helvetica,sans-Serif" font-size="10.00">+</text>
<text text-anchor="start" x="203" y="-241.5" font-family="Helvetica,sans-Serif" font-size="10.00">AnalyseFromLevels()</text>
<text text-anchor="start" x="190" y="-226.5" font-family="Helvetica,sans-Serif" font-size="10.00">+</text>
<text text-anchor="start" x="203" y="-226.5" font-family="Helvetica,sans-Serif" font-size="10.00">GetConditionalCorrelation</text>
<text text-anchor="start" x="203" y="-215.5" font-family="Helvetica,sans-Serif" font-size="10.00">Threshold()</text>
<text text-anchor="start" x="191.5" y="-200.5" font-family="Helvetica,sans-Serif" font-size="10.00">&#45;</text>
<text text-anchor="start" x="203" y="-200.5" font-family="Helvetica,sans-Serif" font-size="10.00">SafeLog()</text>
<text text-anchor="start" x="191.5" y="-185.5" font-family="Helvetica,sans-Serif" font-size="10.00">&#45;</text>
<text text-anchor="start" x="203" y="-185.5" font-family="Helvetica,sans-Serif" font-size="10.00">ComputeChanges()</text>
<text text-anchor="start" x="191.5" y="-170.5" font-family="Helvetica,sans-Serif" font-size="10.00">&#45;</text>
<text text-anchor="start" x="203" y="-170.5" font-family="Helvetica,sans-Serif" font-size="10.00">DetermineInterpretation()</text>
<polygon fill="#666666" stroke="#666666" points="184,-386.5 184,-386.5 342,-386.5 342,-386.5 184,-386.5"/>
<polygon fill="#666666" stroke="#666666" points="184,-281.5 184,-281.5 201,-281.5 201,-281.5 184,-281.5"/>
<polygon fill="#666666" stroke="#666666" points="201,-281.5 201,-281.5 342,-281.5 342,-281.5 201,-281.5"/>
<polygon fill="none" stroke="#666666" points="184,-163.5 184,-403.5 342,-403.5 342,-163.5 184,-163.5"/>
</a>
</g>
</g>
<!-- Node4&#45;&gt;Node1 -->
<g id="edge3_Node000001_Node000004" class="edge">
<title>Node4&#45;&gt;Node1</title>
<g id="a_edge3_Node000001_Node000004"><a xlink:title=" ">
<path fill="none" stroke="#63b8ff" d="M308.14,-163.35C313.69,-148.7 319.2,-134.17 324.28,-120.75"/>
<polygon fill="none" stroke="#63b8ff" points="324.38,-120.48 322.77,-113.45 328.63,-109.26 330.25,-116.29 324.38,-120.48"/>
</a>
</g>
<text text-anchor="middle" x="356.5" y="-130" font-family="Helvetica,sans-Serif" font-size="10.00" fill="grey"> &#45;_vegaAnalyser</text>
</g>
<!-- Node5 -->
<g id="Node000005" class="node">
<title>Node5</title>
<g id="a_Node000005"><a xlink:href="../../df/d03/classAlaris_1_1Strategy_1_1Cost_1_1STCS008A.html" target="_top" xlink:title="Validates that position sizing is appropriate given instrument liquidity.">
<polygon fill="white" stroke="transparent" points="510,-373.5 360,-373.5 360,-193.5 510,-193.5 510,-373.5"/>
<text text-anchor="start" x="365" y="-361.5" font-family="Helvetica,sans-Serif" font-size="10.00">Alaris.Strategy.Cost.STCS008A</text>
<text text-anchor="start" x="364" y="-346.5" font-family="Helvetica,sans-Serif" font-size="10.00">+</text>
<text text-anchor="start" x="375" y="-346.5" font-family="Helvetica,sans-Serif" font-size="10.00">DefaultMaxVolumeRatio</text>
<text text-anchor="start" x="364" y="-331.5" font-family="Helvetica,sans-Serif" font-size="10.00">+</text>
<text text-anchor="start" x="375" y="-331.5" font-family="Helvetica,sans-Serif" font-size="10.00">DefaultMaxOpenInterestRatio</text>
<text text-anchor="start" x="365.5" y="-316.5" font-family="Helvetica,sans-Serif" font-size="10.00">&#45;</text>
<text text-anchor="start" x="375" y="-316.5" font-family="Helvetica,sans-Serif" font-size="10.00">_logger</text>
<text text-anchor="start" x="365.5" y="-301.5" font-family="Helvetica,sans-Serif" font-size="10.00">&#45;</text>
<text text-anchor="start" x="375" y="-301.5" font-family="Helvetica,sans-Serif" font-size="10.00">_maxPositionToVolumeRatio</text>
<text text-anchor="start" x="365.5" y="-286.5" font-family="Helvetica,sans-Serif" font-size="10.00">&#45;</text>
<text text-anchor="start" x="375" y="-286.5" font-family="Helvetica,sans-Serif" font-size="10.00">_maxPositionToOpenInterest</text>
<text text-anchor="start" x="375" y="-275.5" font-family="Helvetica,sans-Serif" font-size="10.00">Ratio</text>
<text text-anchor="start" x="365.5" y="-260.5" font-family="Helvetica,sans-Serif" font-size="10.00">&#45;</text>
<text text-anchor="start" x="375" y="-260.5" font-family="Helvetica,sans-Serif" font-size="10.00">LogValidationResult</text>
<text text-anchor="start" x="365.5" y="-245.5" font-family="Helvetica,sans-Serif" font-size="10.00">&#45;</text>
<text text-anchor="start" x="375" y="-245.5" font-family="Helvetica,sans-Serif" font-size="10.00">LogSizeRecommendation</text>
<text text-anchor="start" x="364" y="-230.5" font-family="Helvetica,sans-Serif" font-size="10.00">+</text>
<text text-anchor="start" x="375" y="-230.5" font-family="Helvetica,sans-Serif" font-size="10.00">STCS008A()</text>
<text text-anchor="start" x="364" y="-215.5" font-family="Helvetica,sans-Serif" font-size="10.00">+</text>
<text text-anchor="start" x="375" y="-215.5" font-family="Helvetica,sans-Serif" font-size="10.00">Validate()</text>
<text text-anchor="start" x="365.5" y="-200.5" font-family="Helvetica,sans-Serif" font-size="10.00">&#45;</text>
<text text-anchor="start" x="375" y="-200.5" font-family="Helvetica,sans-Serif" font-size="10.00">SafeLog()</text>
<polygon fill="#666666" stroke="#666666" points="360,-356.5 360,-356.5 510,-356.5 510,-356.5 360,-356.5"/>
<polygon fill="#666666" stroke="#666666" points="360,-240.5 360,-240.5 373,-240.5 373,-240.5 360,-240.5"/>
<polygon fill="#666666" stroke="#666666" points="373,-240.5 373,-240.5 510,-240.5 510,-240.5 373,-240.5"/>
<polygon fill="none" stroke="#666666" points="360,-193.5 360,-373.5 510,-373.5 510,-193.5 360,-193.5"/>
</a>
</g>
</g>
<!-- Node5&#45;&gt;Node1 -->
<g id="edge4_Node000001_Node000005" class="edge">
<title>Node5&#45;&gt;Node1</title>
<g id="a_edge4_Node000001_Node000005"><a xlink:title=" ">
<path fill="none" stroke="#63b8ff" d="M418.05,-193.2C412.38,-171.08 405.12,-147.77 396,-127 394.93,-124.57 393.79,-122.13 392.57,-119.69"/>
<polygon fill="none" stroke="#63b8ff" points="392.56,-119.66 386.2,-116.25 386.91,-109.08 393.26,-112.49 392.56,-119.66"/>
</a>
</g>
<text text-anchor="middle" x="440" y="-130" font-family="Helvetica,sans-Serif" font-size="10.00" fill="grey"> &#45;_liquidityValidator</text>
</g>
<!-- Node6 -->
<g id="Node000006" class="node">
<title>Node6</title>
<g id="a_Node000006"><a xlink:href="../../db/d01/classAlaris_1_1Strategy_1_1Hedge_1_1STHD003A.html" target="_top" xlink:title="Monitors and manages gamma risk for calendar spread positions.">
<polygon fill="white" stroke="transparent" points="686,-405.5 528,-405.5 528,-161.5 686,-161.5 686,-405.5"/>
<text text-anchor="start" x="533" y="-393.5" font-family="Helvetica,sans-Serif" font-size="10.00">Alaris.Strategy.Hedge.STHD003A</text>
<text text-anchor="start" x="535.5" y="-378.5" font-family="Helvetica,sans-Serif" font-size="10.00">+</text>
<text text-anchor="start" x="550" y="-378.5" font-family="Helvetica,sans-Serif" font-size="10.00">DefaultDeltaThreshold</text>
<text text-anchor="start" x="535.5" y="-363.5" font-family="Helvetica,sans-Serif" font-size="10.00">+</text>
<text text-anchor="start" x="550" y="-363.5" font-family="Helvetica,sans-Serif" font-size="10.00">DefaultGammaThreshold</text>
<text text-anchor="start" x="535.5" y="-348.5" font-family="Helvetica,sans-Serif" font-size="10.00">+</text>
<text text-anchor="start" x="550" y="-348.5" font-family="Helvetica,sans-Serif" font-size="10.00">DefaultMoneynessThreshold</text>
<text text-anchor="start" x="537" y="-333.5" font-family="Helvetica,sans-Serif" font-size="10.00">&#45;</text>
<text text-anchor="start" x="550" y="-333.5" font-family="Helvetica,sans-Serif" font-size="10.00">_logger</text>
<text text-anchor="start" x="537" y="-318.5" font-family="Helvetica,sans-Serif" font-size="10.00">&#45;</text>
<text text-anchor="start" x="550" y="-318.5" font-family="Helvetica,sans-Serif" font-size="10.00">_deltaRehedgeThreshold</text>
<text text-anchor="start" x="537" y="-303.5" font-family="Helvetica,sans-Serif" font-size="10.00">&#45;</text>
<text text-anchor="start" x="550" y="-303.5" font-family="Helvetica,sans-Serif" font-size="10.00">_gammaWarningThreshold</text>
<text text-anchor="start" x="537" y="-288.5" font-family="Helvetica,sans-Serif" font-size="10.00">&#45;</text>
<text text-anchor="start" x="550" y="-288.5" font-family="Helvetica,sans-Serif" font-size="10.00">_moneynessAlertThreshold</text>
<text text-anchor="start" x="537" y="-273.5" font-family="Helvetica,sans-Serif" font-size="10.00">&#45;</text>
<text text-anchor="start" x="550" y="-273.5" font-family="Helvetica,sans-Serif" font-size="10.00">Action</text>
<text text-anchor="start" x="537" y="-258.5" font-family="Helvetica,sans-Serif" font-size="10.00">&#45;</text>
<text text-anchor="start" x="550" y="-258.5" font-family="Helvetica,sans-Serif" font-size="10.00">LogRiskAssessment</text>
<text text-anchor="start" x="537" y="-243.5" font-family="Helvetica,sans-Serif" font-size="10.00">&#45;</text>
<text text-anchor="start" x="550" y="-243.5" font-family="Helvetica,sans-Serif" font-size="10.00">LogRehedgeRequired</text>
<text text-anchor="start" x="535.5" y="-228.5" font-family="Helvetica,sans-Serif" font-size="10.00">+</text>
<text text-anchor="start" x="550" y="-228.5" font-family="Helvetica,sans-Serif" font-size="10.00">STHD003A()</text>
<text text-anchor="start" x="535.5" y="-213.5" font-family="Helvetica,sans-Serif" font-size="10.00">+</text>
<text text-anchor="start" x="550" y="-213.5" font-family="Helvetica,sans-Serif" font-size="10.00">Evaluate()</text>
<text text-anchor="start" x="535.5" y="-198.5" font-family="Helvetica,sans-Serif" font-size="10.00">+</text>
<text text-anchor="start" x="550" y="-198.5" font-family="Helvetica,sans-Serif" font-size="10.00">ComputeDeltaHedge()</text>
<text text-anchor="start" x="537" y="-183.5" font-family="Helvetica,sans-Serif" font-size="10.00">&#45;</text>
<text text-anchor="start" x="550" y="-183.5" font-family="Helvetica,sans-Serif" font-size="10.00">DetermineAction()</text>
<text text-anchor="start" x="537" y="-168.5" font-family="Helvetica,sans-Serif" font-size="10.00">&#45;</text>
<text text-anchor="start" x="550" y="-168.5" font-family="Helvetica,sans-Serif" font-size="10.00">SafeLog()</text>
<polygon fill="#666666" stroke="#666666" points="528,-388.5 528,-388.5 686,-388.5 686,-388.5 528,-388.5"/>
<polygon fill="#666666" stroke="#666666" points="528,-238.5 528,-238.5 548,-238.5 548,-238.5 528,-238.5"/>
<polygon fill="#666666" stroke="#666666" points="548,-238.5 548,-238.5 686,-238.5 686,-238.5 548,-238.5"/>
<polygon fill="none" stroke="#666666" points="528,-161.5 528,-405.5 686,-405.5 686,-161.5 528,-161.5"/>
</a>
</g>
</g>
<!-- Node6&#45;&gt;Node1 -->
<g id="edge5_Node000001_Node000006" class="edge">
<title>Node6&#45;&gt;Node1</title>
<g id="a_edge5_Node000001_Node000006"><a xlink:title=" ">
<path fill="none" stroke="#63b8ff" d="M527.83,-166.1C524.91,-162.65 521.96,-159.27 519,-156 496.85,-131.56 467.34,-111.29 439.13,-95.52"/>
<polygon fill="none" stroke="#63b8ff" points="438.94,-95.42 431.76,-96.07 428.4,-89.69 435.58,-89.04 438.94,-95.42"/>
</a>
</g>
<text text-anchor="middle" x="540" y="-130" font-family="Helvetica,sans-Serif" font-size="10.00" fill="grey"> &#45;_gammaManager</text>
</g>
</g>
</svg>

<g id="navigator" transform="translate(0 0)" fill="#404254">
  <rect fill="#f2f5e9" fill-opacity="0.5" stroke="#606060" stroke-width=".5" x="0" y="0" width="60" height="60"/>
  <use id="zoomplus" xlink:href="#zoomPlus" x="17" y="9" onmousedown="handleZoom(evt,'in')"/>
  <use id="zoomminus" xlink:href="#zoomMin" x="42" y="9" onmousedown="handleZoom(evt,'out')"/>
  <use id="reset" xlink:href="#resetDef" x="30" y="36" onmousedown="handleReset()"/>
   <use id="arrowup" xlink:href="#arrowUp" x="0" y="0" onmousedown="handlePan(0,-1)"/>
  <use id="arrowright" xlink:href="#arrowRight" x="0" y="0" onmousedown="handlePan(1,0)"/>
  <use id="arrowdown" xlink:href="#arrowDown" x="0" y="0" onmousedown="handlePan(0,1)"/>
  <use id="arrowleft" xlink:href="#arrowLeft" x="0" y="0" onmousedown="handlePan(-1,0)"/>
</g>
<svg viewBox="0 0 15 15" width="100%" height="30px" preserveAspectRatio="xMaxYMin meet">
 <g id="arrow_out" transform="scale(0.3 0.3)">
  <a xlink:href="classAlaris_1_1Strategy_1_1Hedge_1_1STHD005A__coll__graph_org.svg" target="_base">
   <rect id="button" ry="5" rx="5" y="6" x="6" height="38" width="38"
        fill="#f2f5e9" fill-opacity="0.5" stroke="#606060" stroke-width="1.0"/>
   <path id="arrow"
     d="M 11.500037,31.436501 C 11.940474,20.09759 22.043105,11.32322 32.158766,21.979434 L 37.068811,17.246167 C 37.068811,17.246167 37.088388,32 37.088388,32 L 22.160133,31.978069 C 22.160133,31.978069 26.997745,27.140456 26.997745,27.140456 C 18.528582,18.264221 13.291696,25.230495 11.500037,31.436501 z"
     style="fill:#404040;"/>
  </a>
 </g>
</svg>

<style type='text/css'>
<![CDATA[
[data-mouse-over-selected='false'] { opacity: 0.7; }
[data-mouse-over-selected='true']  { opacity: 1.0; }
]]>
</style>
<script type="application/ecmascript"><![CDATA[
document.addEventListener('DOMContentLoaded', (event) => {
  highlightEdges();
  highlightAdjacentNodes();
});
]]></script>
</svg>
