<?xml version="1.0" encoding="UTF-8" standalone="no"?>
<!DOCTYPE svg PUBLIC "-//W3C//DTD SVG 1.1//EN"
 "http://www.w3.org/Graphics/SVG/1.1/DTD/svg11.dtd">
<!-- Generated by graphviz version 2.43.0 (0)
 -->
<!-- Title: Alaris.Infrastructure.Data.Quality.EarningsDateValidator Pages: 1 -->
<svg width="252pt" height="284pt"
 viewBox="0.00 0.00 252.00 284.00" xmlns="http://www.w3.org/2000/svg" xmlns:xlink="http://www.w3.org/1999/xlink">
<g id="graph0" class="graph" transform="scale(1 1) rotate(0) translate(4 280)">
<title>Alaris.Infrastructure.Data.Quality.EarningsDateValidator</title>
<!-- Node1 -->
<g id="Node000001" class="node">
<title>Node1</title>
<g id="a_Node000001"><a xlink:title="Validates earnings date accuracy and consistency. Component ID: DTqc004A.">
<polygon fill="#999999" stroke="transparent" points="174,-90 34,-90 34,0 174,0 174,-90"/>
<text text-anchor="start" x="39" y="-78" font-family="Helvetica,sans-Serif" font-size="10.00">Alaris.Infrastructure.Data.</text>
<text text-anchor="start" x="39" y="-67" font-family="Helvetica,sans-Serif" font-size="10.00">Quality.EarningsDateValidator</text>
<text text-anchor="start" x="42.5" y="-52" font-family="Helvetica,sans-Serif" font-size="10.00">+</text>
<text text-anchor="start" x="58" y="-52" font-family="Helvetica,sans-Serif" font-size="10.00">ComponentId</text>
<text text-anchor="start" x="44" y="-37" font-family="Helvetica,sans-Serif" font-size="10.00">&#45;</text>
<text text-anchor="start" x="58" y="-37" font-family="Helvetica,sans-Serif" font-size="10.00">_logger</text>
<text text-anchor="start" x="42.5" y="-22" font-family="Helvetica,sans-Serif" font-size="10.00">+</text>
<text text-anchor="start" x="58" y="-22" font-family="Helvetica,sans-Serif" font-size="10.00">EarningsDateValidator()</text>
<text text-anchor="start" x="42.5" y="-7" font-family="Helvetica,sans-Serif" font-size="10.00">+</text>
<text text-anchor="start" x="58" y="-7" font-family="Helvetica,sans-Serif" font-size="10.00">Validate()</text>
<polygon fill="#666666" stroke="#666666" points="34,-62 34,-62 174,-62 174,-62 34,-62"/>
<polygon fill="#666666" stroke="#666666" points="34,-32 34,-32 56,-32 56,-32 34,-32"/>
<polygon fill="#666666" stroke="#666666" points="56,-32 56,-32 174,-32 174,-32 56,-32"/>
<polygon fill="none" stroke="#666666" points="34,0 34,-90 174,-90 174,0 34,0"/>
</a>
</g>
</g>
<!-- Node2 -->
<g id="Node000002" class="node">
<title>Node2</title>
<g id="a_Node000002"><a xlink:href="../../df/d00/interfaceAlaris_1_1Infrastructure_1_1Data_1_1Quality_1_1DTqc002A.html" target="_top" xlink:title="Interface for data quality validators.">
<polygon fill="white" stroke="transparent" points="78,-231 0,-231 0,-182 78,-182 78,-231"/>
<text text-anchor="start" x="15.5" y="-218.5" font-family="Helvetica,sans-Serif" font-size="10.00">DTqc002A</text>
<text text-anchor="start" x="4" y="-203.5" font-family="Helvetica,sans-Serif" font-size="10.00">+</text>
<text text-anchor="start" x="15" y="-203.5" font-family="Helvetica,sans-Serif" font-size="10.00">ComponentId</text>
<text text-anchor="start" x="4" y="-188.5" font-family="Helvetica,sans-Serif" font-size="10.00">+</text>
<text text-anchor="start" x="15" y="-188.5" font-family="Helvetica,sans-Serif" font-size="10.00">Validate()</text>
<polygon fill="#666666" stroke="#666666" points="0,-213.5 0,-213.5 78,-213.5 78,-213.5 0,-213.5"/>
<polygon fill="#666666" stroke="#666666" points="0,-198.5 0,-198.5 13,-198.5 13,-198.5 0,-198.5"/>
<polygon fill="#666666" stroke="#666666" points="13,-198.5 13,-198.5 78,-198.5 78,-198.5 13,-198.5"/>
<polygon fill="none" stroke="#666666" points="0,-182 0,-231 78,-231 78,-182 0,-182"/>
</a>
</g>
</g>
<!-- Node2&#45;&gt;Node1 -->
<g id="edge1_Node000001_Node000002" class="edge">
<title>Node2&#45;&gt;Node1</title>
<g id="a_edge1_Node000001_Node000002"><a xlink:title=" ">
<path fill="none" stroke="#63b8ff" d="M52.39,-172.64C62.11,-148.79 75.37,-116.26 86.01,-90.15"/>
<polygon fill="none" stroke="#63b8ff" points="49.12,-171.38 48.59,-181.97 55.61,-174.03 49.12,-171.38"/>
</a>
</g>
</g>
<!-- Node3 -->
<g id="Node000003" class="node">
<title>Node3</title>
<g id="a_Node000003"><a xlink:href="../../d9/d01/interfaceAlaris_1_1Core_1_1Time_1_1ITimeProvider.html" target="_top" xlink:title="Provides time&#45;aware operations supporting both live and backtest modes.">
<polygon fill="white" stroke="transparent" points="244,-276 96,-276 96,-137 244,-137 244,-276"/>
<text text-anchor="start" x="101" y="-263.5" font-family="Helvetica,sans-Serif" font-size="10.00">Alaris.Core.Time.ITimeProvider</text>
<text text-anchor="start" x="117" y="-248.5" font-family="Helvetica,sans-Serif" font-size="10.00">+</text>
<text text-anchor="start" x="145" y="-248.5" font-family="Helvetica,sans-Serif" font-size="10.00">Now</text>
<text text-anchor="start" x="117" y="-233.5" font-family="Helvetica,sans-Serif" font-size="10.00">+</text>
<text text-anchor="start" x="145" y="-233.5" font-family="Helvetica,sans-Serif" font-size="10.00">Today</text>
<text text-anchor="start" x="117" y="-218.5" font-family="Helvetica,sans-Serif" font-size="10.00">+</text>
<text text-anchor="start" x="145" y="-218.5" font-family="Helvetica,sans-Serif" font-size="10.00">ZonedNow</text>
<text text-anchor="start" x="117" y="-203.5" font-family="Helvetica,sans-Serif" font-size="10.00">+</text>
<text text-anchor="start" x="145" y="-203.5" font-family="Helvetica,sans-Serif" font-size="10.00">TimeZone</text>
<text text-anchor="start" x="117" y="-188.5" font-family="Helvetica,sans-Serif" font-size="10.00">+</text>
<text text-anchor="start" x="145" y="-188.5" font-family="Helvetica,sans-Serif" font-size="10.00">ToInstant()</text>
<text text-anchor="start" x="117" y="-173.5" font-family="Helvetica,sans-Serif" font-size="10.00">+</text>
<text text-anchor="start" x="145" y="-173.5" font-family="Helvetica,sans-Serif" font-size="10.00">ToDateTime()</text>
<text text-anchor="start" x="117" y="-158.5" font-family="Helvetica,sans-Serif" font-size="10.00">+</text>
<text text-anchor="start" x="145" y="-158.5" font-family="Helvetica,sans-Serif" font-size="10.00">ToLocalDate()</text>
<text text-anchor="start" x="117" y="-143.5" font-family="Helvetica,sans-Serif" font-size="10.00">+</text>
<text text-anchor="start" x="145" y="-143.5" font-family="Helvetica,sans-Serif" font-size="10.00">ToDateTime()</text>
<polygon fill="#666666" stroke="#666666" points="96,-258.5 96,-258.5 244,-258.5 244,-258.5 96,-258.5"/>
<polygon fill="#666666" stroke="#666666" points="96,-198.5 96,-198.5 143,-198.5 143,-198.5 96,-198.5"/>
<polygon fill="#666666" stroke="#666666" points="143,-198.5 143,-198.5 244,-198.5 244,-198.5 143,-198.5"/>
<polygon fill="none" stroke="#666666" points="96,-137 96,-276 244,-276 244,-137 96,-137"/>
</a>
</g>
</g>
<!-- Node3&#45;&gt;Node1 -->
<g id="edge2_Node000001_Node000003" class="edge">
<title>Node3&#45;&gt;Node1</title>
<g id="a_edge2_Node000001_Node000003"><a xlink:title=" ">
<path fill="none" stroke="#63b8ff" d="M141.63,-136.93C136.7,-125.03 131.63,-112.78 126.88,-101.29"/>
<polygon fill="none" stroke="#63b8ff" points="126.83,-101.17 120.84,-97.16 122.24,-90.09 128.23,-94.1 126.83,-101.17"/>
</a>
</g>
<text text-anchor="middle" x="167.5" y="-111" font-family="Helvetica,sans-Serif" font-size="10.00" fill="grey"> &#45;_timeProvider</text>
</g>
</g>
</svg>
