<?xml version="1.0" encoding="UTF-8" standalone="no"?>
<!DOCTYPE svg PUBLIC "-//W3C//DTD SVG 1.1//EN"
 "http://www.w3.org/Graphics/SVG/1.1/DTD/svg11.dtd">
<!-- Generated by graphviz version 2.43.0 (0)
 -->
<!-- Title: Alaris.Host.Application.Cli.Settings.DataStatusSettings Pages: 1 -->
<svg width="158pt" height="268pt"
 viewBox="0.00 0.00 158.00 268.00" xmlns="http://www.w3.org/2000/svg" xmlns:xlink="http://www.w3.org/1999/xlink">
<g id="graph0" class="graph" transform="scale(1 1) rotate(0) translate(4 264)">
<title>Alaris.Host.Application.Cli.Settings.DataStatusSettings</title>
<!-- Node1 -->
<g id="Node000001" class="node">
<title>Node1</title>
<g id="a_Node000001"><a xlink:title="Settings for data status command.">
<polygon fill="#999999" stroke="transparent" points="150,-60 0,-60 0,0 150,0 150,-60"/>
<text text-anchor="start" x="5" y="-48" font-family="Helvetica,sans-Serif" font-size="10.00">Alaris.Host.Application.</text>
<text text-anchor="start" x="5" y="-37" font-family="Helvetica,sans-Serif" font-size="10.00">Cli.Settings.DataStatusSettings</text>
<text text-anchor="start" x="25.5" y="-22" font-family="Helvetica,sans-Serif" font-size="10.00">+</text>
<text text-anchor="start" x="58" y="-22" font-family="Helvetica,sans-Serif" font-size="10.00">SessionId</text>
<text text-anchor="start" x="73" y="-7" font-family="Helvetica,sans-Serif" font-size="10.00"> </text>
<polygon fill="#666666" stroke="#666666" points="0,-32 0,-32 150,-32 150,-32 0,-32"/>
<polygon fill="#666666" stroke="#666666" points="0,-17 0,-17 56,-17 56,-17 0,-17"/>
<polygon fill="#666666" stroke="#666666" points="56,-17 56,-17 150,-17 150,-17 56,-17"/>
<polygon fill="none" stroke="#666666" points="0,0 0,-60 150,-60 150,0 0,0"/>
</a>
</g>
</g>
<!-- Node2 -->
<g id="Node000002" class="node">
<title>Node2</title>
<g id="a_Node000002"><a xlink:href="../../d4/d03/classAlaris_1_1Host_1_1Application_1_1Cli_1_1Infrastructure_1_1CLif004A.html" target="_top" xlink:title="Global settings inherited by all CLI commands. Component ID: CLif004A.">
<polygon fill="white" stroke="transparent" points="110,-175 40,-175 40,-96 110,-96 110,-175"/>
<text text-anchor="start" x="54.5" y="-162.5" font-family="Helvetica,sans-Serif" font-size="10.00">CLif004A</text>
<text text-anchor="start" x="44" y="-147.5" font-family="Helvetica,sans-Serif" font-size="10.00">+</text>
<text text-anchor="start" x="55" y="-147.5" font-family="Helvetica,sans-Serif" font-size="10.00">Verbose</text>
<text text-anchor="start" x="44" y="-132.5" font-family="Helvetica,sans-Serif" font-size="10.00">+</text>
<text text-anchor="start" x="55" y="-132.5" font-family="Helvetica,sans-Serif" font-size="10.00">JsonOutput</text>
<text text-anchor="start" x="44" y="-117.5" font-family="Helvetica,sans-Serif" font-size="10.00">+</text>
<text text-anchor="start" x="55" y="-117.5" font-family="Helvetica,sans-Serif" font-size="10.00">NoColor</text>
<text text-anchor="start" x="73" y="-102.5" font-family="Helvetica,sans-Serif" font-size="10.00"> </text>
<polygon fill="#666666" stroke="#666666" points="40,-157.5 40,-157.5 110,-157.5 110,-157.5 40,-157.5"/>
<polygon fill="#666666" stroke="#666666" points="40,-112.5 40,-112.5 53,-112.5 53,-112.5 40,-112.5"/>
<polygon fill="#666666" stroke="#666666" points="53,-112.5 53,-112.5 110,-112.5 110,-112.5 53,-112.5"/>
<polygon fill="none" stroke="#666666" points="40,-96 40,-175 110,-175 110,-96 40,-96"/>
</a>
</g>
</g>
<!-- Node2&#45;&gt;Node1 -->
<g id="edge1_Node000001_Node000002" class="edge">
<title>Node2&#45;&gt;Node1</title>
<g id="a_edge1_Node000001_Node000002"><a xlink:title=" ">
<path fill="none" stroke="#63b8ff" d="M75,-85.8C75,-77.04 75,-68.17 75,-60.19"/>
<polygon fill="none" stroke="#63b8ff" points="71.5,-85.96 75,-95.96 78.5,-85.96 71.5,-85.96"/>
</a>
</g>
</g>
<!-- Node3 -->
<g id="Node000003" class="node">
<title>Node3</title>
<g id="a_Node000003"><a xlink:title=" ">
<polygon fill="white" stroke="transparent" points="121,-260 29,-260 29,-211 121,-211 121,-260"/>
<text text-anchor="start" x="34" y="-247.5" font-family="Helvetica,sans-Serif" font-size="10.00">CommandSettings</text>
<text text-anchor="start" x="73" y="-232.5" font-family="Helvetica,sans-Serif" font-size="10.00"> </text>
<text text-anchor="start" x="73" y="-217.5" font-family="Helvetica,sans-Serif" font-size="10.00"> </text>
<polygon fill="#666666" stroke="#666666" points="29,-242.5 29,-242.5 121,-242.5 121,-242.5 29,-242.5"/>
<polygon fill="#666666" stroke="#666666" points="29,-227.5 29,-227.5 121,-227.5 121,-227.5 29,-227.5"/>
<polygon fill="none" stroke="#666666" points="29,-211 29,-260 121,-260 121,-211 29,-211"/>
</a>
</g>
</g>
<!-- Node3&#45;&gt;Node2 -->
<g id="edge2_Node000002_Node000003" class="edge">
<title>Node3&#45;&gt;Node2</title>
<g id="a_edge2_Node000002_Node000003"><a xlink:title=" ">
<path fill="none" stroke="#63b8ff" d="M75,-200.52C75,-192.38 75,-183.63 75,-175.29"/>
<polygon fill="none" stroke="#63b8ff" points="71.5,-200.78 75,-210.78 78.5,-200.78 71.5,-200.78"/>
</a>
</g>
</g>
</g>
</svg>
