<?xml version="1.0" encoding="UTF-8" standalone="no"?>
<!DOCTYPE svg PUBLIC "-//W3C//DTD SVG 1.1//EN"
 "http://www.w3.org/Graphics/SVG/1.1/DTD/svg11.dtd">
<!-- Generated by graphviz version 2.43.0 (0)
 -->
<!-- Title: Alaris.Core.Pricing.CREN003A Pages: 1 -->
<!--zoomable 764 -->

<svg id="main" version="1.1" xmlns="http://www.w3.org/2000/svg" xmlns:xlink="http://www.w3.org/1999/xlink" xml:space="preserve" onload="init(evt)">
<style type="text/css"><![CDATA[
.node, .edge {opacity: 0.7;}
.node.selected, .edge.selected {opacity: 1;}
.edge:hover path { stroke: red; }
.edge:hover polygon { stroke: red; fill: red; }
]]></style>

<defs>
  <circle id="rim" cx="0" cy="0" r="7"/>
  <circle id="rim2" cx="0" cy="0" r="3.5"/>
  <g id="zoomPlus">
    <use xlink:href="#rim" fill="#404040"><set attributeName="fill" to="#808080" begin="zoomplus.mouseover" end="zoomplus.mouseout"/></use>
    <path d="M-4,0h8M0,-4v8" fill="none" stroke="white" stroke-width="1.5" pointer-events="none"/>
  </g>
  <g id="zoomMin">
    <use xlink:href="#rim" fill="#404040"><set attributeName="fill" to="#808080" begin="zoomminus.mouseover" end="zoomminus.mouseout"/></use>
    <path d="M-4,0h8" fill="none" stroke="white" stroke-width="1.5" pointer-events="none"/>
  </g>
  <g id="arrowUp" transform="translate(30 24)">
    <use xlink:href="#rim"/>
    <path pointer-events="none" fill="none" stroke="white" stroke-width="1.5" d="M0,-3.0v7 M-2.5,-0.5L0,-3.0L2.5,-0.5"/>
  </g>
  <g id="arrowRight" transform="rotate(90) translate(36 -43)">
    <use xlink:href="#rim"/>
    <path pointer-events="none" fill="none" stroke="white" stroke-width="1.5" d="M0,-3.0v7 M-2.5,-0.5L0,-3.0L2.5,-0.5"/>
  </g>
  <g id="arrowDown" transform="rotate(180) translate(-30 -48)">
    <use xlink:href="#rim"/>
    <path pointer-events="none" fill="none" stroke="white" stroke-width="1.5" d="M0,-3.0v7 M-2.5,-0.5L0,-3.0L2.5,-0.5"/>
  </g>
  <g id="arrowLeft" transform="rotate(270) translate(-36 17)">
    <use xlink:href="#rim"/>
    <path pointer-events="none" fill="none" stroke="white" stroke-width="1.5" d="M0,-3.0v7 M-2.5,-0.5L0,-3.0L2.5,-0.5"/>
  </g>
  <g id="resetDef">
    <use xlink:href="#rim2" fill="#404040"><set attributeName="fill" to="#808080" begin="reset.mouseover" end="reset.mouseout"/></use>
  </g>
</defs>
<script type="application/ecmascript">
var viewWidth = 660;
var viewHeight = 764;
var sectionId = 'dynsection-1';
</script>
<script type="application/ecmascript" xlink:href="../../svg.min.js"/>
<svg id="graph" class="graph">
<g id="viewport">
<title>Alaris.Core.Pricing.CREN003A</title>
<!-- Node1 -->
<g id="Node000001" class="node">
<title>Node1</title>
<g id="a_Node000001"><a xlink:title="Unified American option pricing engine. Automatically selects the appropriate method based on rate re...">
<polygon fill="#999999" stroke="transparent" points="385,-214 238,-214 238,0 385,0 385,-214"/>
<text text-anchor="start" x="243.5" y="-202" font-family="Helvetica,sans-Serif" font-size="10.00">Alaris.Core.Pricing.CREN003A</text>
<text text-anchor="start" x="249" y="-187" font-family="Helvetica,sans-Serif" font-size="10.00">&#45;</text>
<text text-anchor="start" x="263.5" y="-187" font-family="Helvetica,sans-Serif" font-size="10.00">_enforceInvariants</text>
<text text-anchor="start" x="247.5" y="-172" font-family="Helvetica,sans-Serif" font-size="10.00">+</text>
<text text-anchor="start" x="263.5" y="-172" font-family="Helvetica,sans-Serif" font-size="10.00">CREN003A()</text>
<text text-anchor="start" x="247.5" y="-157" font-family="Helvetica,sans-Serif" font-size="10.00">+</text>
<text text-anchor="start" x="263.5" y="-157" font-family="Helvetica,sans-Serif" font-size="10.00">CREN003A()</text>
<text text-anchor="start" x="247.5" y="-142" font-family="Helvetica,sans-Serif" font-size="10.00">+</text>
<text text-anchor="start" x="263.5" y="-142" font-family="Helvetica,sans-Serif" font-size="10.00">Price()</text>
<text text-anchor="start" x="247.5" y="-127" font-family="Helvetica,sans-Serif" font-size="10.00">+</text>
<text text-anchor="start" x="263.5" y="-127" font-family="Helvetica,sans-Serif" font-size="10.00">Delta()</text>
<text text-anchor="start" x="247.5" y="-112" font-family="Helvetica,sans-Serif" font-size="10.00">+</text>
<text text-anchor="start" x="263.5" y="-112" font-family="Helvetica,sans-Serif" font-size="10.00">Gamma()</text>
<text text-anchor="start" x="247.5" y="-97" font-family="Helvetica,sans-Serif" font-size="10.00">+</text>
<text text-anchor="start" x="263.5" y="-97" font-family="Helvetica,sans-Serif" font-size="10.00">Theta()</text>
<text text-anchor="start" x="247.5" y="-82" font-family="Helvetica,sans-Serif" font-size="10.00">+</text>
<text text-anchor="start" x="263.5" y="-82" font-family="Helvetica,sans-Serif" font-size="10.00">Vega()</text>
<text text-anchor="start" x="247.5" y="-67" font-family="Helvetica,sans-Serif" font-size="10.00">+</text>
<text text-anchor="start" x="263.5" y="-67" font-family="Helvetica,sans-Serif" font-size="10.00">Rho()</text>
<text text-anchor="start" x="247.5" y="-52" font-family="Helvetica,sans-Serif" font-size="10.00">+</text>
<text text-anchor="start" x="263.5" y="-52" font-family="Helvetica,sans-Serif" font-size="10.00">PriceWithDetails()</text>
<text text-anchor="start" x="249" y="-37" font-family="Helvetica,sans-Serif" font-size="10.00">&#45;</text>
<text text-anchor="start" x="263.5" y="-37" font-family="Helvetica,sans-Serif" font-size="10.00">EnforceInvariants()</text>
<text text-anchor="start" x="249" y="-22" font-family="Helvetica,sans-Serif" font-size="10.00">&#45;</text>
<text text-anchor="start" x="263.5" y="-22" font-family="Helvetica,sans-Serif" font-size="10.00">BlackScholesEuropean()</text>
<text text-anchor="start" x="249" y="-7" font-family="Helvetica,sans-Serif" font-size="10.00">&#45;</text>
<text text-anchor="start" x="263.5" y="-7" font-family="Helvetica,sans-Serif" font-size="10.00">ValidateParameters()</text>
<polygon fill="#666666" stroke="#666666" points="238.5,-197 238.5,-197 385.5,-197 385.5,-197 238.5,-197"/>
<polygon fill="#666666" stroke="#666666" points="238.5,-182 238.5,-182 261.5,-182 261.5,-182 238.5,-182"/>
<polygon fill="#666666" stroke="#666666" points="261.5,-182 261.5,-182 385.5,-182 385.5,-182 261.5,-182"/>
<polygon fill="none" stroke="#666666" points="238,0 238,-214 385,-214 385,0 238,0"/>
</a>
</g>
</g>
<!-- Node2 -->
<g id="Node000002" class="node">
<title>Node2</title>
<g id="a_Node000002"><a xlink:href="../../d9/d01/interfaceAlaris_1_1Core_1_1Pricing_1_1IAmericanOptionEngine.html" target="_top" xlink:title="Interface for American option pricing engines.">
<polygon fill="white" stroke="transparent" points="113,-570.5 0,-570.5 0,-446.5 113,-446.5 113,-570.5"/>
<text text-anchor="start" x="5.5" y="-558.5" font-family="Helvetica,sans-Serif" font-size="10.00">IAmericanOptionEngine</text>
<text text-anchor="start" x="55" y="-543.5" font-family="Helvetica,sans-Serif" font-size="10.00"> </text>
<text text-anchor="start" x="17.5" y="-528.5" font-family="Helvetica,sans-Serif" font-size="10.00">+</text>
<text text-anchor="start" x="41.5" y="-528.5" font-family="Helvetica,sans-Serif" font-size="10.00">Price()</text>
<text text-anchor="start" x="17.5" y="-513.5" font-family="Helvetica,sans-Serif" font-size="10.00">+</text>
<text text-anchor="start" x="41.5" y="-513.5" font-family="Helvetica,sans-Serif" font-size="10.00">Delta()</text>
<text text-anchor="start" x="17.5" y="-498.5" font-family="Helvetica,sans-Serif" font-size="10.00">+</text>
<text text-anchor="start" x="41.5" y="-498.5" font-family="Helvetica,sans-Serif" font-size="10.00">Gamma()</text>
<text text-anchor="start" x="17.5" y="-483.5" font-family="Helvetica,sans-Serif" font-size="10.00">+</text>
<text text-anchor="start" x="41.5" y="-483.5" font-family="Helvetica,sans-Serif" font-size="10.00">Vega()</text>
<text text-anchor="start" x="17.5" y="-468.5" font-family="Helvetica,sans-Serif" font-size="10.00">+</text>
<text text-anchor="start" x="41.5" y="-468.5" font-family="Helvetica,sans-Serif" font-size="10.00">Theta()</text>
<text text-anchor="start" x="17.5" y="-453.5" font-family="Helvetica,sans-Serif" font-size="10.00">+</text>
<text text-anchor="start" x="41.5" y="-453.5" font-family="Helvetica,sans-Serif" font-size="10.00">Rho()</text>
<polygon fill="#666666" stroke="#666666" points="0.5,-553.5 0.5,-553.5 113.5,-553.5 113.5,-553.5 0.5,-553.5"/>
<polygon fill="#666666" stroke="#666666" points="0.5,-538.5 0.5,-538.5 113.5,-538.5 113.5,-538.5 0.5,-538.5"/>
<polygon fill="none" stroke="#666666" points="0,-446.5 0,-570.5 113,-570.5 113,-446.5 0,-446.5"/>
</a>
</g>
</g>
<!-- Node2&#45;&gt;Node1 -->
<g id="edge1_Node000001_Node000002" class="edge">
<title>Node2&#45;&gt;Node1</title>
<g id="a_edge1_Node000001_Node000002"><a xlink:title=" ">
<path fill="none" stroke="#63b8ff" d="M63.26,-436.31C70.93,-384.3 87.18,-313.91 121.5,-261 150.77,-215.87 197.76,-177.87 237.68,-151.02"/>
<polygon fill="none" stroke="#63b8ff" points="59.76,-436.06 61.84,-446.45 66.7,-437.04 59.76,-436.06"/>
</a>
</g>
</g>
<!-- Node3 -->
<g id="Node000003" class="node">
<title>Node3</title>
<g id="a_Node000003"><a xlink:href="../../da/d03/classAlaris_1_1Core_1_1Pricing_1_1CREN004A.html" target="_top" xlink:title="Spectral collocation American option pricing engine.">
<polygon fill="white" stroke="transparent" points="306,-756 131,-756 131,-261 306,-261 306,-756"/>
<text text-anchor="start" x="150.5" y="-743.5" font-family="Helvetica,sans-Serif" font-size="10.00">Alaris.Core.Pricing.CREN004A</text>
<text text-anchor="start" x="137" y="-728.5" font-family="Helvetica,sans-Serif" font-size="10.00">&#45;</text>
<text text-anchor="start" x="146.5" y="-728.5" font-family="Helvetica,sans-Serif" font-size="10.00">_chebyshevNodes</text>
<text text-anchor="start" x="137" y="-713.5" font-family="Helvetica,sans-Serif" font-size="10.00">&#45;</text>
<text text-anchor="start" x="146.5" y="-713.5" font-family="Helvetica,sans-Serif" font-size="10.00">_fixedPointIterations</text>
<text text-anchor="start" x="137" y="-698.5" font-family="Helvetica,sans-Serif" font-size="10.00">&#45;</text>
<text text-anchor="start" x="146.5" y="-698.5" font-family="Helvetica,sans-Serif" font-size="10.00">_fpEquation</text>
<text text-anchor="start" x="137" y="-683.5" font-family="Helvetica,sans-Serif" font-size="10.00">&#45;</text>
<text text-anchor="start" x="146.5" y="-683.5" font-family="Helvetica,sans-Serif" font-size="10.00">_useTanhSinh</text>
<text text-anchor="start" x="137" y="-668.5" font-family="Helvetica,sans-Serif" font-size="10.00">&#45;</text>
<text text-anchor="start" x="146.5" y="-668.5" font-family="Helvetica,sans-Serif" font-size="10.00">Upper</text>
<text text-anchor="start" x="137" y="-653.5" font-family="Helvetica,sans-Serif" font-size="10.00">&#45;</text>
<text text-anchor="start" x="146.5" y="-653.5" font-family="Helvetica,sans-Serif" font-size="10.00">Tolerance</text>
<text text-anchor="start" x="137" y="-638.5" font-family="Helvetica,sans-Serif" font-size="10.00">&#45;</text>
<text text-anchor="start" x="146.5" y="-638.5" font-family="Helvetica,sans-Serif" font-size="10.00">NumericalEpsilon</text>
<text text-anchor="start" x="135.5" y="-623.5" font-family="Helvetica,sans-Serif" font-size="10.00">+</text>
<text text-anchor="start" x="146.5" y="-623.5" font-family="Helvetica,sans-Serif" font-size="10.00">CREN004A()</text>
<text text-anchor="start" x="135.5" y="-608.5" font-family="Helvetica,sans-Serif" font-size="10.00">+</text>
<text text-anchor="start" x="146.5" y="-608.5" font-family="Helvetica,sans-Serif" font-size="10.00">CREN004A()</text>
<text text-anchor="start" x="135.5" y="-593.5" font-family="Helvetica,sans-Serif" font-size="10.00">+</text>
<text text-anchor="start" x="146.5" y="-593.5" font-family="Helvetica,sans-Serif" font-size="10.00">Price()</text>
<text text-anchor="start" x="135.5" y="-578.5" font-family="Helvetica,sans-Serif" font-size="10.00">+</text>
<text text-anchor="start" x="146.5" y="-578.5" font-family="Helvetica,sans-Serif" font-size="10.00">Delta()</text>
<text text-anchor="start" x="135.5" y="-563.5" font-family="Helvetica,sans-Serif" font-size="10.00">+</text>
<text text-anchor="start" x="146.5" y="-563.5" font-family="Helvetica,sans-Serif" font-size="10.00">Gamma()</text>
<text text-anchor="start" x="135.5" y="-548.5" font-family="Helvetica,sans-Serif" font-size="10.00">+</text>
<text text-anchor="start" x="146.5" y="-548.5" font-family="Helvetica,sans-Serif" font-size="10.00">Theta()</text>
<text text-anchor="start" x="135.5" y="-533.5" font-family="Helvetica,sans-Serif" font-size="10.00">+</text>
<text text-anchor="start" x="146.5" y="-533.5" font-family="Helvetica,sans-Serif" font-size="10.00">Vega()</text>
<text text-anchor="start" x="137" y="-518.5" font-family="Helvetica,sans-Serif" font-size="10.00">&#45;</text>
<text text-anchor="start" x="146.5" y="-518.5" font-family="Helvetica,sans-Serif" font-size="10.00">readonly()</text>
<text text-anchor="start" x="137" y="-503.5" font-family="Helvetica,sans-Serif" font-size="10.00">&#45;</text>
<text text-anchor="start" x="146.5" y="-503.5" font-family="Helvetica,sans-Serif" font-size="10.00">PriceSingleBoundary()</text>
<text text-anchor="start" x="137" y="-488.5" font-family="Helvetica,sans-Serif" font-size="10.00">&#45;</text>
<text text-anchor="start" x="146.5" y="-488.5" font-family="Helvetica,sans-Serif" font-size="10.00">PriceDoubleBoundary()</text>
<text text-anchor="start" x="137" y="-473.5" font-family="Helvetica,sans-Serif" font-size="10.00">&#45;</text>
<text text-anchor="start" x="146.5" y="-473.5" font-family="Helvetica,sans-Serif" font-size="10.00">FixedPointIteration()</text>
<text text-anchor="start" x="137" y="-458.5" font-family="Helvetica,sans-Serif" font-size="10.00">&#45;</text>
<text text-anchor="start" x="146.5" y="-458.5" font-family="Helvetica,sans-Serif" font-size="10.00">FixedPointUpdate()</text>
<text text-anchor="start" x="137" y="-443.5" font-family="Helvetica,sans-Serif" font-size="10.00">&#45;</text>
<text text-anchor="start" x="146.5" y="-443.5" font-family="Helvetica,sans-Serif" font-size="10.00">DoubleBoundaryFixedPoint</text>
<text text-anchor="start" x="146.5" y="-432.5" font-family="Helvetica,sans-Serif" font-size="10.00">Iteration()</text>
<text text-anchor="start" x="137" y="-417.5" font-family="Helvetica,sans-Serif" font-size="10.00">&#45;</text>
<text text-anchor="start" x="146.5" y="-417.5" font-family="Helvetica,sans-Serif" font-size="10.00">FixedPointUpdateLower()</text>
<text text-anchor="start" x="137" y="-402.5" font-family="Helvetica,sans-Serif" font-size="10.00">&#45;</text>
<text text-anchor="start" x="146.5" y="-402.5" font-family="Helvetica,sans-Serif" font-size="10.00">ComputeIntegralN()</text>
<text text-anchor="start" x="137" y="-387.5" font-family="Helvetica,sans-Serif" font-size="10.00">&#45;</text>
<text text-anchor="start" x="146.5" y="-387.5" font-family="Helvetica,sans-Serif" font-size="10.00">ComputeIntegralD()</text>
<text text-anchor="start" x="137" y="-372.5" font-family="Helvetica,sans-Serif" font-size="10.00">&#45;</text>
<text text-anchor="start" x="146.5" y="-372.5" font-family="Helvetica,sans-Serif" font-size="10.00">IntegrateEarlyExercisePremium()</text>
<text text-anchor="start" x="137" y="-357.5" font-family="Helvetica,sans-Serif" font-size="10.00">&#45;</text>
<text text-anchor="start" x="146.5" y="-357.5" font-family="Helvetica,sans-Serif" font-size="10.00">IntegrateDoubleBoundaryPremium()</text>
<text text-anchor="start" x="137" y="-342.5" font-family="Helvetica,sans-Serif" font-size="10.00">&#45;</text>
<text text-anchor="start" x="146.5" y="-342.5" font-family="Helvetica,sans-Serif" font-size="10.00">InterpolateBoundary()</text>
<text text-anchor="start" x="137" y="-327.5" font-family="Helvetica,sans-Serif" font-size="10.00">&#45;</text>
<text text-anchor="start" x="146.5" y="-327.5" font-family="Helvetica,sans-Serif" font-size="10.00">ComputeQdPlusInitialGuess()</text>
<text text-anchor="start" x="137" y="-312.5" font-family="Helvetica,sans-Serif" font-size="10.00">&#45;</text>
<text text-anchor="start" x="146.5" y="-312.5" font-family="Helvetica,sans-Serif" font-size="10.00">BlackScholesEuropean()</text>
<text text-anchor="start" x="137" y="-297.5" font-family="Helvetica,sans-Serif" font-size="10.00">&#45;</text>
<text text-anchor="start" x="146.5" y="-297.5" font-family="Helvetica,sans-Serif" font-size="10.00">CalculateIntrinsicValue()</text>
<text text-anchor="start" x="137" y="-282.5" font-family="Helvetica,sans-Serif" font-size="10.00">&#45;</text>
<text text-anchor="start" x="146.5" y="-282.5" font-family="Helvetica,sans-Serif" font-size="10.00">ClassifyRegime()</text>
<text text-anchor="start" x="137" y="-267.5" font-family="Helvetica,sans-Serif" font-size="10.00">&#45;</text>
<text text-anchor="start" x="146.5" y="-267.5" font-family="Helvetica,sans-Serif" font-size="10.00">ValidateInputs()</text>
<polygon fill="#666666" stroke="#666666" points="131.5,-738.5 131.5,-738.5 306.5,-738.5 306.5,-738.5 131.5,-738.5"/>
<polygon fill="#666666" stroke="#666666" points="131.5,-633.5 131.5,-633.5 144.5,-633.5 144.5,-633.5 131.5,-633.5"/>
<polygon fill="#666666" stroke="#666666" points="144.5,-633.5 144.5,-633.5 306.5,-633.5 306.5,-633.5 144.5,-633.5"/>
<polygon fill="none" stroke="#666666" points="131,-261 131,-756 306,-756 306,-261 131,-261"/>
</a>
</g>
</g>
<!-- Node3&#45;&gt;Node1 -->
<g id="edge2_Node000001_Node000003" class="edge">
<title>Node3&#45;&gt;Node1</title>
<g id="a_edge2_Node000001_Node000003"><a xlink:title=" ">
<path fill="none" stroke="#63b8ff" d="M275.94,-260.74C278.68,-248.99 281.36,-237.46 283.95,-226.34"/>
<polygon fill="none" stroke="#63b8ff" points="284,-226.13 281.47,-219.38 286.72,-214.44 289.26,-221.19 284,-226.13"/>
</a>
</g>
<text text-anchor="middle" x="319.5" y="-235" font-family="Helvetica,sans-Serif" font-size="10.00" fill="grey"> &#45;_spectralEngine</text>
</g>
<!-- Node4 -->
<g id="Node000004" class="node">
<title>Node4</title>
<g id="a_Node000004"><a xlink:href="../../d3/d01/classAlaris_1_1Core_1_1Pricing_1_1CREN002A.html" target="_top" xlink:title="Unified American option pricing engine supporting all rate regimes.">
<polygon fill="white" stroke="transparent" points="487,-683 324,-683 324,-334 487,-334 487,-683"/>
<text text-anchor="start" x="337.5" y="-670.5" font-family="Helvetica,sans-Serif" font-size="10.00">Alaris.Core.Pricing.CREN002A</text>
<text text-anchor="start" x="328.5" y="-655.5" font-family="Helvetica,sans-Serif" font-size="10.00">+</text>
<text text-anchor="start" x="339.5" y="-655.5" font-family="Helvetica,sans-Serif" font-size="10.00">DefaultTimeSteps</text>
<text text-anchor="start" x="328.5" y="-640.5" font-family="Helvetica,sans-Serif" font-size="10.00">+</text>
<text text-anchor="start" x="339.5" y="-640.5" font-family="Helvetica,sans-Serif" font-size="10.00">DefaultSpotSteps</text>
<text text-anchor="start" x="328.5" y="-625.5" font-family="Helvetica,sans-Serif" font-size="10.00">+</text>
<text text-anchor="start" x="339.5" y="-625.5" font-family="Helvetica,sans-Serif" font-size="10.00">DefaultGridConcentration</text>
<text text-anchor="start" x="330" y="-610.5" font-family="Helvetica,sans-Serif" font-size="10.00">&#45;</text>
<text text-anchor="start" x="339.5" y="-610.5" font-family="Helvetica,sans-Serif" font-size="10.00">_timeSteps</text>
<text text-anchor="start" x="330" y="-595.5" font-family="Helvetica,sans-Serif" font-size="10.00">&#45;</text>
<text text-anchor="start" x="339.5" y="-595.5" font-family="Helvetica,sans-Serif" font-size="10.00">_spotSteps</text>
<text text-anchor="start" x="330" y="-580.5" font-family="Helvetica,sans-Serif" font-size="10.00">&#45;</text>
<text text-anchor="start" x="339.5" y="-580.5" font-family="Helvetica,sans-Serif" font-size="10.00">_theta</text>
<text text-anchor="start" x="330" y="-565.5" font-family="Helvetica,sans-Serif" font-size="10.00">&#45;</text>
<text text-anchor="start" x="339.5" y="-565.5" font-family="Helvetica,sans-Serif" font-size="10.00">_gridConcentration</text>
<text text-anchor="start" x="328.5" y="-550.5" font-family="Helvetica,sans-Serif" font-size="10.00">+</text>
<text text-anchor="start" x="339.5" y="-550.5" font-family="Helvetica,sans-Serif" font-size="10.00">CREN002A()</text>
<text text-anchor="start" x="328.5" y="-535.5" font-family="Helvetica,sans-Serif" font-size="10.00">+</text>
<text text-anchor="start" x="339.5" y="-535.5" font-family="Helvetica,sans-Serif" font-size="10.00">Price()</text>
<text text-anchor="start" x="328.5" y="-520.5" font-family="Helvetica,sans-Serif" font-size="10.00">+</text>
<text text-anchor="start" x="339.5" y="-520.5" font-family="Helvetica,sans-Serif" font-size="10.00">Delta()</text>
<text text-anchor="start" x="328.5" y="-505.5" font-family="Helvetica,sans-Serif" font-size="10.00">+</text>
<text text-anchor="start" x="339.5" y="-505.5" font-family="Helvetica,sans-Serif" font-size="10.00">Gamma()</text>
<text text-anchor="start" x="328.5" y="-490.5" font-family="Helvetica,sans-Serif" font-size="10.00">+</text>
<text text-anchor="start" x="339.5" y="-490.5" font-family="Helvetica,sans-Serif" font-size="10.00">Vega()</text>
<text text-anchor="start" x="328.5" y="-475.5" font-family="Helvetica,sans-Serif" font-size="10.00">+</text>
<text text-anchor="start" x="339.5" y="-475.5" font-family="Helvetica,sans-Serif" font-size="10.00">Theta()</text>
<text text-anchor="start" x="328.5" y="-460.5" font-family="Helvetica,sans-Serif" font-size="10.00">+</text>
<text text-anchor="start" x="339.5" y="-460.5" font-family="Helvetica,sans-Serif" font-size="10.00">Rho()</text>
<text text-anchor="start" x="330" y="-445.5" font-family="Helvetica,sans-Serif" font-size="10.00">&#45;</text>
<text text-anchor="start" x="339.5" y="-445.5" font-family="Helvetica,sans-Serif" font-size="10.00">PriceWithCrankNicolson()</text>
<text text-anchor="start" x="330" y="-430.5" font-family="Helvetica,sans-Serif" font-size="10.00">&#45;</text>
<text text-anchor="start" x="339.5" y="-430.5" font-family="Helvetica,sans-Serif" font-size="10.00">BuildAsinhGrid()</text>
<text text-anchor="start" x="330" y="-415.5" font-family="Helvetica,sans-Serif" font-size="10.00">&#45;</text>
<text text-anchor="start" x="339.5" y="-415.5" font-family="Helvetica,sans-Serif" font-size="10.00">BuildTridiagonalSystemVariable()</text>
<text text-anchor="start" x="330" y="-400.5" font-family="Helvetica,sans-Serif" font-size="10.00">&#45;</text>
<text text-anchor="start" x="339.5" y="-400.5" font-family="Helvetica,sans-Serif" font-size="10.00">ApplyNeumannBoundaries()</text>
<text text-anchor="start" x="330" y="-385.5" font-family="Helvetica,sans-Serif" font-size="10.00">&#45;</text>
<text text-anchor="start" x="339.5" y="-385.5" font-family="Helvetica,sans-Serif" font-size="10.00">SolveTridiagonal()</text>
<text text-anchor="start" x="330" y="-370.5" font-family="Helvetica,sans-Serif" font-size="10.00">&#45;</text>
<text text-anchor="start" x="339.5" y="-370.5" font-family="Helvetica,sans-Serif" font-size="10.00">InterpolatePrice()</text>
<text text-anchor="start" x="330" y="-355.5" font-family="Helvetica,sans-Serif" font-size="10.00">&#45;</text>
<text text-anchor="start" x="339.5" y="-355.5" font-family="Helvetica,sans-Serif" font-size="10.00">CalculatePayoff()</text>
<text text-anchor="start" x="330" y="-340.5" font-family="Helvetica,sans-Serif" font-size="10.00">&#45;</text>
<text text-anchor="start" x="339.5" y="-340.5" font-family="Helvetica,sans-Serif" font-size="10.00">Asinh()</text>
<polygon fill="#666666" stroke="#666666" points="324.5,-665.5 324.5,-665.5 487.5,-665.5 487.5,-665.5 324.5,-665.5"/>
<polygon fill="#666666" stroke="#666666" points="324.5,-560.5 324.5,-560.5 337.5,-560.5 337.5,-560.5 324.5,-560.5"/>
<polygon fill="#666666" stroke="#666666" points="337.5,-560.5 337.5,-560.5 487.5,-560.5 487.5,-560.5 337.5,-560.5"/>
<polygon fill="none" stroke="#666666" points="324,-334 324,-683 487,-683 487,-334 324,-334"/>
</a>
</g>
</g>
<!-- Node4&#45;&gt;Node1 -->
<g id="edge3_Node000001_Node000004" class="edge">
<title>Node4&#45;&gt;Node1</title>
<g id="a_edge3_Node000001_Node000004"><a xlink:title=" ">
<path fill="none" stroke="#63b8ff" d="M383.87,-333.9C377.92,-299.82 370.54,-264.55 361.5,-232 360.94,-230 360.37,-227.99 359.77,-225.97"/>
<polygon fill="none" stroke="#63b8ff" points="359.72,-225.8 354.11,-221.26 356.15,-214.34 361.75,-218.88 359.72,-225.8"/>
</a>
</g>
<text text-anchor="middle" x="388.5" y="-235" font-family="Helvetica,sans-Serif" font-size="10.00" fill="grey"> &#45;_fdEngine</text>
</g>
<!-- Node5 -->
<g id="Node000005" class="node">
<title>Node5</title>
<g id="a_Node000005"><a xlink:href="../../dc/d00/classAlaris_1_1Core_1_1Pricing_1_1CREX001A.html" target="_top" xlink:title="Handles numerical stability as τ → 0 via blending to intrinsic. Threshold: τ &lt; 1/252.">
<polygon fill="white" stroke="transparent" points="652,-623 505,-623 505,-394 652,-394 652,-623"/>
<text text-anchor="start" x="511" y="-610.5" font-family="Helvetica,sans-Serif" font-size="10.00">Alaris.Core.Pricing.CREX001A</text>
<text text-anchor="start" x="509.5" y="-595.5" font-family="Helvetica,sans-Serif" font-size="10.00">+</text>
<text text-anchor="start" x="520.5" y="-595.5" font-family="Helvetica,sans-Serif" font-size="10.00">DefaultMinTimeToExpiry</text>
<text text-anchor="start" x="509.5" y="-580.5" font-family="Helvetica,sans-Serif" font-size="10.00">+</text>
<text text-anchor="start" x="520.5" y="-580.5" font-family="Helvetica,sans-Serif" font-size="10.00">DefaultBlendingZoneWidth</text>
<text text-anchor="start" x="511" y="-565.5" font-family="Helvetica,sans-Serif" font-size="10.00">&#45;</text>
<text text-anchor="start" x="520.5" y="-565.5" font-family="Helvetica,sans-Serif" font-size="10.00">_minTimeToExpiry</text>
<text text-anchor="start" x="511" y="-550.5" font-family="Helvetica,sans-Serif" font-size="10.00">&#45;</text>
<text text-anchor="start" x="520.5" y="-550.5" font-family="Helvetica,sans-Serif" font-size="10.00">_blendingZoneWidth</text>
<text text-anchor="start" x="509.5" y="-535.5" font-family="Helvetica,sans-Serif" font-size="10.00">+</text>
<text text-anchor="start" x="520.5" y="-535.5" font-family="Helvetica,sans-Serif" font-size="10.00">CREX001A()</text>
<text text-anchor="start" x="509.5" y="-520.5" font-family="Helvetica,sans-Serif" font-size="10.00">+</text>
<text text-anchor="start" x="520.5" y="-520.5" font-family="Helvetica,sans-Serif" font-size="10.00">IsNearExpiry()</text>
<text text-anchor="start" x="509.5" y="-505.5" font-family="Helvetica,sans-Serif" font-size="10.00">+</text>
<text text-anchor="start" x="520.5" y="-505.5" font-family="Helvetica,sans-Serif" font-size="10.00">IsIntrinsicOnly()</text>
<text text-anchor="start" x="509.5" y="-490.5" font-family="Helvetica,sans-Serif" font-size="10.00">+</text>
<text text-anchor="start" x="520.5" y="-490.5" font-family="Helvetica,sans-Serif" font-size="10.00">CalculateBlendingWeight()</text>
<text text-anchor="start" x="509.5" y="-475.5" font-family="Helvetica,sans-Serif" font-size="10.00">+</text>
<text text-anchor="start" x="520.5" y="-475.5" font-family="Helvetica,sans-Serif" font-size="10.00">BlendWithIntrinsic()</text>
<text text-anchor="start" x="509.5" y="-460.5" font-family="Helvetica,sans-Serif" font-size="10.00">+</text>
<text text-anchor="start" x="520.5" y="-460.5" font-family="Helvetica,sans-Serif" font-size="10.00">CalculateNearExpiryGreeks()</text>
<text text-anchor="start" x="509.5" y="-445.5" font-family="Helvetica,sans-Serif" font-size="10.00">+</text>
<text text-anchor="start" x="520.5" y="-445.5" font-family="Helvetica,sans-Serif" font-size="10.00">Validate()</text>
<text text-anchor="start" x="509.5" y="-430.5" font-family="Helvetica,sans-Serif" font-size="10.00">+</text>
<text text-anchor="start" x="520.5" y="-430.5" font-family="Helvetica,sans-Serif" font-size="10.00">CalculateCallIntrinsic()</text>
<text text-anchor="start" x="509.5" y="-415.5" font-family="Helvetica,sans-Serif" font-size="10.00">+</text>
<text text-anchor="start" x="520.5" y="-415.5" font-family="Helvetica,sans-Serif" font-size="10.00">CalculatePutIntrinsic()</text>
<text text-anchor="start" x="509.5" y="-400.5" font-family="Helvetica,sans-Serif" font-size="10.00">+</text>
<text text-anchor="start" x="520.5" y="-400.5" font-family="Helvetica,sans-Serif" font-size="10.00">CalculateIntrinsic()</text>
<polygon fill="#666666" stroke="#666666" points="505.5,-605.5 505.5,-605.5 652.5,-605.5 652.5,-605.5 505.5,-605.5"/>
<polygon fill="#666666" stroke="#666666" points="505.5,-545.5 505.5,-545.5 518.5,-545.5 518.5,-545.5 505.5,-545.5"/>
<polygon fill="#666666" stroke="#666666" points="518.5,-545.5 518.5,-545.5 652.5,-545.5 652.5,-545.5 518.5,-545.5"/>
<polygon fill="none" stroke="#666666" points="505,-394 505,-623 652,-623 652,-394 505,-394"/>
</a>
</g>
</g>
<!-- Node5&#45;&gt;Node1 -->
<g id="edge4_Node000001_Node000005" class="edge">
<title>Node5&#45;&gt;Node1</title>
<g id="a_edge4_Node000001_Node000005"><a xlink:title=" ">
<path fill="none" stroke="#63b8ff" d="M554.94,-393.72C542.3,-349.72 523.58,-300.54 496.5,-261 469.81,-222.02 430.49,-187.57 394.95,-161.27"/>
<polygon fill="none" stroke="#63b8ff" points="394.75,-161.13 387.55,-160.84 385.04,-154.07 392.25,-154.36 394.75,-161.13"/>
</a>
</g>
<text text-anchor="middle" x="526.5" y="-235" font-family="Helvetica,sans-Serif" font-size="10.00" fill="grey"> &#45;_nearExpiryHandler</text>
</g>
</g>
</svg>

<g id="navigator" transform="translate(0 0)" fill="#404254">
  <rect fill="#f2f5e9" fill-opacity="0.5" stroke="#606060" stroke-width=".5" x="0" y="0" width="60" height="60"/>
  <use id="zoomplus" xlink:href="#zoomPlus" x="17" y="9" onmousedown="handleZoom(evt,'in')"/>
  <use id="zoomminus" xlink:href="#zoomMin" x="42" y="9" onmousedown="handleZoom(evt,'out')"/>
  <use id="reset" xlink:href="#resetDef" x="30" y="36" onmousedown="handleReset()"/>
   <use id="arrowup" xlink:href="#arrowUp" x="0" y="0" onmousedown="handlePan(0,-1)"/>
  <use id="arrowright" xlink:href="#arrowRight" x="0" y="0" onmousedown="handlePan(1,0)"/>
  <use id="arrowdown" xlink:href="#arrowDown" x="0" y="0" onmousedown="handlePan(0,1)"/>
  <use id="arrowleft" xlink:href="#arrowLeft" x="0" y="0" onmousedown="handlePan(-1,0)"/>
</g>
<svg viewBox="0 0 15 15" width="100%" height="30px" preserveAspectRatio="xMaxYMin meet">
 <g id="arrow_out" transform="scale(0.3 0.3)">
  <a xlink:href="classAlaris_1_1Core_1_1Pricing_1_1CREN003A__coll__graph_org.svg" target="_base">
   <rect id="button" ry="5" rx="5" y="6" x="6" height="38" width="38"
        fill="#f2f5e9" fill-opacity="0.5" stroke="#606060" stroke-width="1.0"/>
   <path id="arrow"
     d="M 11.500037,31.436501 C 11.940474,20.09759 22.043105,11.32322 32.158766,21.979434 L 37.068811,17.246167 C 37.068811,17.246167 37.088388,32 37.088388,32 L 22.160133,31.978069 C 22.160133,31.978069 26.997745,27.140456 26.997745,27.140456 C 18.528582,18.264221 13.291696,25.230495 11.500037,31.436501 z"
     style="fill:#404040;"/>
  </a>
 </g>
</svg>

<style type='text/css'>
<![CDATA[
[data-mouse-over-selected='false'] { opacity: 0.7; }
[data-mouse-over-selected='true']  { opacity: 1.0; }
]]>
</style>
<script type="application/ecmascript"><![CDATA[
document.addEventListener('DOMContentLoaded', (event) => {
  highlightEdges();
  highlightAdjacentNodes();
});
]]></script>
</svg>
