<?xml version="1.0" encoding="UTF-8" standalone="no"?>
<!DOCTYPE svg PUBLIC "-//W3C//DTD SVG 1.1//EN"
 "http://www.w3.org/Graphics/SVG/1.1/DTD/svg11.dtd">
<!-- Generated by graphviz version 2.43.0 (0)
 -->
<!-- Title: Alaris.Host.Application.Cli.Infrastructure.CLif002A Pages: 1 -->
<svg width="135pt" height="168pt"
 viewBox="0.00 0.00 135.00 168.00" xmlns="http://www.w3.org/2000/svg" xmlns:xlink="http://www.w3.org/1999/xlink">

<svg id="main" version="1.1" xmlns="http://www.w3.org/2000/svg" xmlns:xlink="http://www.w3.org/1999/xlink" xml:space="preserve" onload="init(evt)">
<style type="text/css"><![CDATA[
.node, .edge {opacity: 0.7;}
.node.selected, .edge.selected {opacity: 1;}
.edge:hover path { stroke: red; }
.edge:hover polygon { stroke: red; fill: red; }
]]></style>
<script type="application/ecmascript" xlink:href="../../svg.min.js"/>
<svg id="graph" class="graph">
<g id="graph0" class="graph" transform="scale(1 1) rotate(0) translate(4 164)">
<title>Alaris.Host.Application.Cli.Infrastructure.CLif002A</title>
<!-- Node1 -->
<g id="Node000001" class="node">
<title>Node1</title>
<g id="a_Node000001"><a xlink:title="Resolves types from the DI container for Spectre.Console.Cli commands. Component ID: CLif002A.">
<polygon fill="#999999" stroke="transparent" points="127,-75 0,-75 0,0 127,0 127,-75"/>
<text text-anchor="start" x="5.5" y="-62.5" font-family="Helvetica,sans-Serif" font-size="10.00">Alaris.Host.Application.</text>
<text text-anchor="start" x="5.5" y="-51.5" font-family="Helvetica,sans-Serif" font-size="10.00">Cli.Infrastructure.CLif002A</text>
<text text-anchor="start" x="21" y="-36.5" font-family="Helvetica,sans-Serif" font-size="10.00">&#45;</text>
<text text-anchor="start" x="45.5" y="-36.5" font-family="Helvetica,sans-Serif" font-size="10.00">_provider</text>
<text text-anchor="start" x="19.5" y="-21.5" font-family="Helvetica,sans-Serif" font-size="10.00">+</text>
<text text-anchor="start" x="45.5" y="-21.5" font-family="Helvetica,sans-Serif" font-size="10.00">CLif002A()</text>
<text text-anchor="start" x="19.5" y="-6.5" font-family="Helvetica,sans-Serif" font-size="10.00">+</text>
<text text-anchor="start" x="45.5" y="-6.5" font-family="Helvetica,sans-Serif" font-size="10.00">Resolve()</text>
<polygon fill="#666666" stroke="#666666" points="0.5,-46.5 0.5,-46.5 127.5,-46.5 127.5,-46.5 0.5,-46.5"/>
<polygon fill="#666666" stroke="#666666" points="0.5,-31.5 0.5,-31.5 43.5,-31.5 43.5,-31.5 0.5,-31.5"/>
<polygon fill="#666666" stroke="#666666" points="43.5,-31.5 43.5,-31.5 127.5,-31.5 127.5,-31.5 43.5,-31.5"/>
<polygon fill="none" stroke="#666666" points="0,0 0,-75 127,-75 127,0 0,0"/>
</a>
</g>
</g>
<!-- Node2 -->
<g id="Node000002" class="node">
<title>Node2</title>
<g id="a_Node000002"><a xlink:title=" ">
<polygon fill="white" stroke="transparent" points="100.5,-160 26.5,-160 26.5,-111 100.5,-111 100.5,-160"/>
<text text-anchor="start" x="31.5" y="-147.5" font-family="Helvetica,sans-Serif" font-size="10.00">ITypeResolver</text>
<text text-anchor="start" x="61.5" y="-132.5" font-family="Helvetica,sans-Serif" font-size="10.00"> </text>
<text text-anchor="start" x="61.5" y="-117.5" font-family="Helvetica,sans-Serif" font-size="10.00"> </text>
<polygon fill="#666666" stroke="#666666" points="26.5,-142.5 26.5,-142.5 100.5,-142.5 100.5,-142.5 26.5,-142.5"/>
<polygon fill="#666666" stroke="#666666" points="26.5,-127.5 26.5,-127.5 100.5,-127.5 100.5,-127.5 26.5,-127.5"/>
<polygon fill="none" stroke="#666666" points="26.5,-111 26.5,-160 100.5,-160 100.5,-111 26.5,-111"/>
</a>
</g>
</g>
<!-- Node2&#45;&gt;Node1 -->
<g id="edge1_Node000001_Node000002" class="edge">
<title>Node2&#45;&gt;Node1</title>
<g id="a_edge1_Node000001_Node000002"><a xlink:title=" ">
<path fill="none" stroke="#63b8ff" d="M63.5,-100.68C63.5,-92.38 63.5,-83.46 63.5,-75.04"/>
<polygon fill="none" stroke="#63b8ff" points="60,-100.77 63.5,-110.77 67,-100.77 60,-100.77"/>
</a>
</g>
</g>
</g>
</svg>
</svg>

<style type='text/css'>
<![CDATA[
[data-mouse-over-selected='false'] { opacity: 0.7; }
[data-mouse-over-selected='true']  { opacity: 1.0; }
]]>
</style>
<script type="application/ecmascript"><![CDATA[
document.addEventListener('DOMContentLoaded', (event) => {
  highlightEdges();
  highlightAdjacentNodes();
});
]]></script>
</svg>
