<?xml version="1.0" encoding="UTF-8" standalone="no"?>
<!DOCTYPE svg PUBLIC "-//W3C//DTD SVG 1.1//EN"
 "http://www.w3.org/Graphics/SVG/1.1/DTD/svg11.dtd">
<!-- Generated by graphviz version 2.43.0 (0)
 -->
<!-- Title: Alaris.Host.Application.Command.APcm002A Pages: 1 -->
<svg width="146pt" height="318pt"
 viewBox="0.00 0.00 146.00 318.00" xmlns="http://www.w3.org/2000/svg" xmlns:xlink="http://www.w3.org/1999/xlink">

<svg id="main" version="1.1" xmlns="http://www.w3.org/2000/svg" xmlns:xlink="http://www.w3.org/1999/xlink" xml:space="preserve" onload="init(evt)">
<style type="text/css"><![CDATA[
.node, .edge {opacity: 0.7;}
.node.selected, .edge.selected {opacity: 1;}
.edge:hover path { stroke: red; }
.edge:hover polygon { stroke: red; fill: red; }
]]></style>
<script type="application/ecmascript" xlink:href="../../svg.min.js"/>
<svg id="graph" class="graph">
<g id="graph0" class="graph" transform="scale(1 1) rotate(0) translate(4 314)">
<title>Alaris.Host.Application.Command.APcm002A</title>
<!-- Node1 -->
<g id="Node000001" class="node">
<title>Node1</title>
<g id="a_Node000001"><a xlink:title="APcm002A: Configuration management command for Alaris.">
<polygon fill="#999999" stroke="transparent" points="128,-225 10,-225 10,0 128,0 128,-225"/>
<text text-anchor="start" x="17.5" y="-212.5" font-family="Helvetica,sans-Serif" font-size="10.00">Alaris.Host.Application.</text>
<text text-anchor="start" x="20" y="-201.5" font-family="Helvetica,sans-Serif" font-size="10.00">Command.APcm002A</text>
<text text-anchor="start" x="15.5" y="-186.5" font-family="Helvetica,sans-Serif" font-size="10.00">&#45;</text>
<text text-anchor="start" x="25" y="-186.5" font-family="Helvetica,sans-Serif" font-size="10.00">ConfigPaths</text>
<text text-anchor="start" x="15.5" y="-171.5" font-family="Helvetica,sans-Serif" font-size="10.00">&#45;</text>
<text text-anchor="start" x="25" y="-171.5" font-family="Helvetica,sans-Serif" font-size="10.00">BasePaths</text>
<text text-anchor="start" x="14" y="-156.5" font-family="Helvetica,sans-Serif" font-size="10.00">+</text>
<text text-anchor="start" x="25" y="-156.5" font-family="Helvetica,sans-Serif" font-size="10.00">Execute()</text>
<text text-anchor="start" x="15.5" y="-141.5" font-family="Helvetica,sans-Serif" font-size="10.00">&#45;</text>
<text text-anchor="start" x="25" y="-141.5" font-family="Helvetica,sans-Serif" font-size="10.00">ShowConfiguration()</text>
<text text-anchor="start" x="15.5" y="-126.5" font-family="Helvetica,sans-Serif" font-size="10.00">&#45;</text>
<text text-anchor="start" x="25" y="-126.5" font-family="Helvetica,sans-Serif" font-size="10.00">SetConfiguration()</text>
<text text-anchor="start" x="15.5" y="-111.5" font-family="Helvetica,sans-Serif" font-size="10.00">&#45;</text>
<text text-anchor="start" x="25" y="-111.5" font-family="Helvetica,sans-Serif" font-size="10.00">ValidateConfiguration()</text>
<text text-anchor="start" x="15.5" y="-96.5" font-family="Helvetica,sans-Serif" font-size="10.00">&#45;</text>
<text text-anchor="start" x="25" y="-96.5" font-family="Helvetica,sans-Serif" font-size="10.00">ShowHelp()</text>
<text text-anchor="start" x="15.5" y="-81.5" font-family="Helvetica,sans-Serif" font-size="10.00">&#45;</text>
<text text-anchor="start" x="25" y="-81.5" font-family="Helvetica,sans-Serif" font-size="10.00">FindConfigFile()</text>
<text text-anchor="start" x="15.5" y="-66.5" font-family="Helvetica,sans-Serif" font-size="10.00">&#45;</text>
<text text-anchor="start" x="25" y="-66.5" font-family="Helvetica,sans-Serif" font-size="10.00">LoadJsonc()</text>
<text text-anchor="start" x="15.5" y="-51.5" font-family="Helvetica,sans-Serif" font-size="10.00">&#45;</text>
<text text-anchor="start" x="25" y="-51.5" font-family="Helvetica,sans-Serif" font-size="10.00">StripJsonComments()</text>
<text text-anchor="start" x="15.5" y="-36.5" font-family="Helvetica,sans-Serif" font-size="10.00">&#45;</text>
<text text-anchor="start" x="25" y="-36.5" font-family="Helvetica,sans-Serif" font-size="10.00">AddConfigRow()</text>
<text text-anchor="start" x="15.5" y="-21.5" font-family="Helvetica,sans-Serif" font-size="10.00">&#45;</text>
<text text-anchor="start" x="25" y="-21.5" font-family="Helvetica,sans-Serif" font-size="10.00">GetNestedValue()</text>
<text text-anchor="start" x="15.5" y="-6.5" font-family="Helvetica,sans-Serif" font-size="10.00">&#45;</text>
<text text-anchor="start" x="25" y="-6.5" font-family="Helvetica,sans-Serif" font-size="10.00">MaskSensitive()</text>
<polygon fill="#666666" stroke="#666666" points="10,-196.5 10,-196.5 128,-196.5 128,-196.5 10,-196.5"/>
<polygon fill="#666666" stroke="#666666" points="10,-166.5 10,-166.5 23,-166.5 23,-166.5 10,-166.5"/>
<polygon fill="#666666" stroke="#666666" points="23,-166.5 23,-166.5 128,-166.5 128,-166.5 23,-166.5"/>
<polygon fill="none" stroke="#666666" points="10,0 10,-225 128,-225 128,0 10,0"/>
</a>
</g>
</g>
<!-- Node2 -->
<g id="Node000002" class="node">
<title>Node2</title>
<g id="a_Node000002"><a xlink:title=" ">
<polygon fill="white" stroke="transparent" points="138,-310 0,-310 0,-261 138,-261 138,-310"/>
<text text-anchor="start" x="5" y="-297.5" font-family="Helvetica,sans-Serif" font-size="10.00">Command&lt; ConfigSettings &gt;</text>
<text text-anchor="start" x="67" y="-282.5" font-family="Helvetica,sans-Serif" font-size="10.00"> </text>
<text text-anchor="start" x="67" y="-267.5" font-family="Helvetica,sans-Serif" font-size="10.00"> </text>
<polygon fill="#666666" stroke="#666666" points="0,-292.5 0,-292.5 138,-292.5 138,-292.5 0,-292.5"/>
<polygon fill="#666666" stroke="#666666" points="0,-277.5 0,-277.5 138,-277.5 138,-277.5 0,-277.5"/>
<polygon fill="none" stroke="#666666" points="0,-261 0,-310 138,-310 138,-261 0,-261"/>
</a>
</g>
</g>
<!-- Node2&#45;&gt;Node1 -->
<g id="edge1_Node000001_Node000002" class="edge">
<title>Node2&#45;&gt;Node1</title>
<g id="a_edge1_Node000001_Node000002"><a xlink:title=" ">
<path fill="none" stroke="#63b8ff" d="M69,-250.52C69,-242.85 69,-234.3 69,-225.32"/>
<polygon fill="none" stroke="#63b8ff" points="65.5,-250.72 69,-260.72 72.5,-250.72 65.5,-250.72"/>
</a>
</g>
</g>
</g>
</svg>
</svg>

<style type='text/css'>
<![CDATA[
[data-mouse-over-selected='false'] { opacity: 0.7; }
[data-mouse-over-selected='true']  { opacity: 1.0; }
]]>
</style>
<script type="application/ecmascript"><![CDATA[
document.addEventListener('DOMContentLoaded', (event) => {
  highlightEdges();
  highlightAdjacentNodes();
});
]]></script>
</svg>
