<?xml version="1.0" encoding="UTF-8" standalone="no"?>
<!DOCTYPE svg PUBLIC "-//W3C//DTD SVG 1.1//EN"
 "http://www.w3.org/Graphics/SVG/1.1/DTD/svg11.dtd">
<!-- Generated by graphviz version 2.43.0 (0)
 -->
<!-- Title: Alaris.Strategy.Cost.STCS001A Pages: 1 -->
<svg width="158pt" height="72pt"
 viewBox="0.00 0.00 158.00 72.00" xmlns="http://www.w3.org/2000/svg" xmlns:xlink="http://www.w3.org/1999/xlink">
<g id="graph0" class="graph" transform="scale(1 1) rotate(0) translate(4 68)">
<title>Alaris.Strategy.Cost.STCS001A</title>
<!-- Node1 -->
<g id="Node000001" class="node">
<title>Node1</title>
<g id="a_Node000001"><a xlink:title="Defines the contract for execution cost models.">
<polygon fill="#999999" stroke="transparent" points="150,-64 0,-64 0,0 150,0 150,-64"/>
<text text-anchor="start" x="5" y="-52" font-family="Helvetica,sans-Serif" font-size="10.00">Alaris.Strategy.Cost.STCS001A</text>
<text text-anchor="start" x="12" y="-37" font-family="Helvetica,sans-Serif" font-size="10.00">+</text>
<text text-anchor="start" x="31" y="-37" font-family="Helvetica,sans-Serif" font-size="10.00">ModelName</text>
<text text-anchor="start" x="12" y="-22" font-family="Helvetica,sans-Serif" font-size="10.00">+</text>
<text text-anchor="start" x="31" y="-22" font-family="Helvetica,sans-Serif" font-size="10.00">ComputeOptionCost()</text>
<text text-anchor="start" x="12" y="-7" font-family="Helvetica,sans-Serif" font-size="10.00">+</text>
<text text-anchor="start" x="31" y="-7" font-family="Helvetica,sans-Serif" font-size="10.00">ComputeSpreadCost()</text>
<polygon fill="#666666" stroke="#666666" points="0,-47 0,-47 150,-47 150,-47 0,-47"/>
<polygon fill="#666666" stroke="#666666" points="0,-32 0,-32 29,-32 29,-32 0,-32"/>
<polygon fill="#666666" stroke="#666666" points="29,-32 29,-32 150,-32 150,-32 29,-32"/>
<polygon fill="none" stroke="#666666" points="0,0 0,-64 150,-64 150,0 0,0"/>
</a>
</g>
</g>
</g>
</svg>
