<?xml version="1.0" encoding="UTF-8" standalone="no"?>
<!DOCTYPE svg PUBLIC "-//W3C//DTD SVG 1.1//EN"
 "http://www.w3.org/Graphics/SVG/1.1/DTD/svg11.dtd">
<!-- Generated by graphviz version 2.43.0 (0)
 -->
<!-- Title: Alaris.Strategy.Core.Numerical.STPR004A.LeastSquaresObjective Pages: 1 -->
<svg width="172pt" height="498pt"
 viewBox="0.00 0.00 172.00 498.00" xmlns="http://www.w3.org/2000/svg" xmlns:xlink="http://www.w3.org/1999/xlink">
<g id="graph0" class="graph" transform="scale(1 1) rotate(0) translate(4 494)">
<title>Alaris.Strategy.Core.Numerical.STPR004A.LeastSquaresObjective</title>
<!-- Node1 -->
<g id="Node000001" class="node">
<title>Node1</title>
<g id="a_Node000001"><a xlink:title=" ">
<polygon fill="#999999" stroke="transparent" points="164,-405 0,-405 0,0 164,0 164,-405"/>
<text text-anchor="start" x="5" y="-392.5" font-family="Helvetica,sans-Serif" font-size="10.00">Alaris.Strategy.Core.Numerical.</text>
<text text-anchor="start" x="5" y="-381.5" font-family="Helvetica,sans-Serif" font-size="10.00">STPR004A.LeastSquaresObjective</text>
<text text-anchor="start" x="13" y="-366.5" font-family="Helvetica,sans-Serif" font-size="10.00">+</text>
<text text-anchor="start" x="33" y="-366.5" font-family="Helvetica,sans-Serif" font-size="10.00">Value</text>
<text text-anchor="start" x="13" y="-351.5" font-family="Helvetica,sans-Serif" font-size="10.00">+</text>
<text text-anchor="start" x="33" y="-351.5" font-family="Helvetica,sans-Serif" font-size="10.00">Gradient</text>
<text text-anchor="start" x="13" y="-336.5" font-family="Helvetica,sans-Serif" font-size="10.00">+</text>
<text text-anchor="start" x="33" y="-336.5" font-family="Helvetica,sans-Serif" font-size="10.00">Hessian</text>
<text text-anchor="start" x="13" y="-321.5" font-family="Helvetica,sans-Serif" font-size="10.00">+</text>
<text text-anchor="start" x="33" y="-321.5" font-family="Helvetica,sans-Serif" font-size="10.00">IsGradientSupported</text>
<text text-anchor="start" x="13" y="-306.5" font-family="Helvetica,sans-Serif" font-size="10.00">+</text>
<text text-anchor="start" x="33" y="-306.5" font-family="Helvetica,sans-Serif" font-size="10.00">IsHessianSupported</text>
<text text-anchor="start" x="13" y="-291.5" font-family="Helvetica,sans-Serif" font-size="10.00">+</text>
<text text-anchor="start" x="33" y="-291.5" font-family="Helvetica,sans-Serif" font-size="10.00">DegreeOfFreedom</text>
<text text-anchor="start" x="13" y="-276.5" font-family="Helvetica,sans-Serif" font-size="10.00">+</text>
<text text-anchor="start" x="33" y="-276.5" font-family="Helvetica,sans-Serif" font-size="10.00">FunctionEvaluations</text>
<text text-anchor="start" x="13" y="-261.5" font-family="Helvetica,sans-Serif" font-size="10.00">+</text>
<text text-anchor="start" x="33" y="-261.5" font-family="Helvetica,sans-Serif" font-size="10.00">JacobianEvaluations</text>
<text text-anchor="start" x="13" y="-246.5" font-family="Helvetica,sans-Serif" font-size="10.00">+</text>
<text text-anchor="start" x="33" y="-246.5" font-family="Helvetica,sans-Serif" font-size="10.00">GradientEvaluations</text>
<text text-anchor="start" x="13" y="-231.5" font-family="Helvetica,sans-Serif" font-size="10.00">+</text>
<text text-anchor="start" x="33" y="-231.5" font-family="Helvetica,sans-Serif" font-size="10.00">Point</text>
<text text-anchor="start" x="13" y="-216.5" font-family="Helvetica,sans-Serif" font-size="10.00">+</text>
<text text-anchor="start" x="33" y="-216.5" font-family="Helvetica,sans-Serif" font-size="10.00">ObservedY</text>
<text text-anchor="start" x="13" y="-201.5" font-family="Helvetica,sans-Serif" font-size="10.00">+</text>
<text text-anchor="start" x="33" y="-201.5" font-family="Helvetica,sans-Serif" font-size="10.00">ModelValues</text>
<text text-anchor="start" x="13" y="-186.5" font-family="Helvetica,sans-Serif" font-size="10.00">+</text>
<text text-anchor="start" x="33" y="-186.5" font-family="Helvetica,sans-Serif" font-size="10.00">Weights</text>
<text text-anchor="start" x="14.5" y="-171.5" font-family="Helvetica,sans-Serif" font-size="10.00">&#45;</text>
<text text-anchor="start" x="33" y="-171.5" font-family="Helvetica,sans-Serif" font-size="10.00">_residuals</text>
<text text-anchor="start" x="14.5" y="-156.5" font-family="Helvetica,sans-Serif" font-size="10.00">&#45;</text>
<text text-anchor="start" x="33" y="-156.5" font-family="Helvetica,sans-Serif" font-size="10.00">_point</text>
<text text-anchor="start" x="14.5" y="-141.5" font-family="Helvetica,sans-Serif" font-size="10.00">&#45;</text>
<text text-anchor="start" x="33" y="-141.5" font-family="Helvetica,sans-Serif" font-size="10.00">_residualsVector</text>
<text text-anchor="start" x="14.5" y="-126.5" font-family="Helvetica,sans-Serif" font-size="10.00">&#45;</text>
<text text-anchor="start" x="33" y="-126.5" font-family="Helvetica,sans-Serif" font-size="10.00">_jacobian</text>
<text text-anchor="start" x="14.5" y="-111.5" font-family="Helvetica,sans-Serif" font-size="10.00">&#45;</text>
<text text-anchor="start" x="33" y="-111.5" font-family="Helvetica,sans-Serif" font-size="10.00">_evaluated</text>
<text text-anchor="start" x="13" y="-96.5" font-family="Helvetica,sans-Serif" font-size="10.00">+</text>
<text text-anchor="start" x="33" y="-96.5" font-family="Helvetica,sans-Serif" font-size="10.00">LeastSquaresObjective()</text>
<text text-anchor="start" x="13" y="-81.5" font-family="Helvetica,sans-Serif" font-size="10.00">+</text>
<text text-anchor="start" x="33" y="-81.5" font-family="Helvetica,sans-Serif" font-size="10.00">EvaluateAt()</text>
<text text-anchor="start" x="13" y="-66.5" font-family="Helvetica,sans-Serif" font-size="10.00">+</text>
<text text-anchor="start" x="33" y="-66.5" font-family="Helvetica,sans-Serif" font-size="10.00">SetParameters()</text>
<text text-anchor="start" x="13" y="-51.5" font-family="Helvetica,sans-Serif" font-size="10.00">+</text>
<text text-anchor="start" x="33" y="-51.5" font-family="Helvetica,sans-Serif" font-size="10.00">Fork()</text>
<text text-anchor="start" x="13" y="-36.5" font-family="Helvetica,sans-Serif" font-size="10.00">+</text>
<text text-anchor="start" x="33" y="-36.5" font-family="Helvetica,sans-Serif" font-size="10.00">CreateNew()</text>
<text text-anchor="start" x="13" y="-21.5" font-family="Helvetica,sans-Serif" font-size="10.00">+</text>
<text text-anchor="start" x="33" y="-21.5" font-family="Helvetica,sans-Serif" font-size="10.00">ToObjectiveFunction()</text>
<text text-anchor="start" x="14.5" y="-6.5" font-family="Helvetica,sans-Serif" font-size="10.00">&#45;</text>
<text text-anchor="start" x="33" y="-6.5" font-family="Helvetica,sans-Serif" font-size="10.00">ComputeJacobian()</text>
<polygon fill="#666666" stroke="#666666" points="0,-376.5 0,-376.5 164,-376.5 164,-376.5 0,-376.5"/>
<polygon fill="#666666" stroke="#666666" points="0,-106.5 0,-106.5 31,-106.5 31,-106.5 0,-106.5"/>
<polygon fill="#666666" stroke="#666666" points="31,-106.5 31,-106.5 164,-106.5 164,-106.5 31,-106.5"/>
<polygon fill="none" stroke="#666666" points="0,0 0,-405 164,-405 164,0 0,0"/>
</a>
</g>
</g>
<!-- Node2 -->
<g id="Node000002" class="node">
<title>Node2</title>
<g id="a_Node000002"><a xlink:title=" ">
<polygon fill="white" stroke="transparent" points="122.5,-490 41.5,-490 41.5,-441 122.5,-441 122.5,-490"/>
<text text-anchor="start" x="47" y="-477.5" font-family="Helvetica,sans-Serif" font-size="10.00">IObjectiveModel</text>
<text text-anchor="start" x="80.5" y="-462.5" font-family="Helvetica,sans-Serif" font-size="10.00"> </text>
<text text-anchor="start" x="80.5" y="-447.5" font-family="Helvetica,sans-Serif" font-size="10.00"> </text>
<polygon fill="#666666" stroke="#666666" points="42,-472.5 42,-472.5 123,-472.5 123,-472.5 42,-472.5"/>
<polygon fill="#666666" stroke="#666666" points="42,-457.5 42,-457.5 123,-457.5 123,-457.5 42,-457.5"/>
<polygon fill="none" stroke="#666666" points="41.5,-441 41.5,-490 122.5,-490 122.5,-441 41.5,-441"/>
</a>
</g>
</g>
<!-- Node2&#45;&gt;Node1 -->
<g id="edge1_Node000001_Node000002" class="edge">
<title>Node2&#45;&gt;Node1</title>
<g id="a_edge1_Node000001_Node000002"><a xlink:title=" ">
<path fill="none" stroke="#63b8ff" d="M82,-430.8C82,-423.17 82,-414.53 82,-405.2"/>
<polygon fill="none" stroke="#63b8ff" points="78.5,-430.88 82,-440.88 85.5,-430.88 78.5,-430.88"/>
</a>
</g>
</g>
</g>
</svg>
