<?xml version="1.0" encoding="UTF-8" standalone="no"?>
<!DOCTYPE svg PUBLIC "-//W3C//DTD SVG 1.1//EN"
 "http://www.w3.org/Graphics/SVG/1.1/DTD/svg11.dtd">
<!-- Generated by graphviz version 2.43.0 (0)
 -->
<!-- Title: Alaris.Strategy.Core.EarningsJumpCalibration Pages: 1 -->
<svg width="147pt" height="188pt"
 viewBox="0.00 0.00 147.00 188.00" xmlns="http://www.w3.org/2000/svg" xmlns:xlink="http://www.w3.org/1999/xlink">
<g id="graph0" class="graph" transform="scale(1 1) rotate(0) translate(4 184)">
<title>Alaris.Strategy.Core.EarningsJumpCalibration</title>
<!-- Node1 -->
<g id="Node000001" class="node">
<title>Node1</title>
<g id="a_Node000001"><a xlink:title="Results of earnings jump volatility calibration.">
<polygon fill="#999999" stroke="transparent" points="139,-180 0,-180 0,0 139,0 139,-180"/>
<text text-anchor="start" x="5.5" y="-168" font-family="Helvetica,sans-Serif" font-size="10.00">Alaris.Strategy.Core.Earnings</text>
<text text-anchor="start" x="34.5" y="-157" font-family="Helvetica,sans-Serif" font-size="10.00">JumpCalibration</text>
<text text-anchor="start" x="11" y="-142" font-family="Helvetica,sans-Serif" font-size="10.00">+</text>
<text text-anchor="start" x="28.5" y="-142" font-family="Helvetica,sans-Serif" font-size="10.00">Symbol</text>
<text text-anchor="start" x="11" y="-127" font-family="Helvetica,sans-Serif" font-size="10.00">+</text>
<text text-anchor="start" x="28.5" y="-127" font-family="Helvetica,sans-Serif" font-size="10.00">SigmaE</text>
<text text-anchor="start" x="11" y="-112" font-family="Helvetica,sans-Serif" font-size="10.00">+</text>
<text text-anchor="start" x="28.5" y="-112" font-family="Helvetica,sans-Serif" font-size="10.00">SampleCount</text>
<text text-anchor="start" x="11" y="-97" font-family="Helvetica,sans-Serif" font-size="10.00">+</text>
<text text-anchor="start" x="28.5" y="-97" font-family="Helvetica,sans-Serif" font-size="10.00">MeanLogReturn</text>
<text text-anchor="start" x="11" y="-82" font-family="Helvetica,sans-Serif" font-size="10.00">+</text>
<text text-anchor="start" x="28.5" y="-82" font-family="Helvetica,sans-Serif" font-size="10.00">MedianAbsoluteMove</text>
<text text-anchor="start" x="11" y="-67" font-family="Helvetica,sans-Serif" font-size="10.00">+</text>
<text text-anchor="start" x="28.5" y="-67" font-family="Helvetica,sans-Serif" font-size="10.00">MaxAbsoluteMove</text>
<text text-anchor="start" x="11" y="-52" font-family="Helvetica,sans-Serif" font-size="10.00">+</text>
<text text-anchor="start" x="28.5" y="-52" font-family="Helvetica,sans-Serif" font-size="10.00">MinAbsoluteMove</text>
<text text-anchor="start" x="11" y="-37" font-family="Helvetica,sans-Serif" font-size="10.00">+</text>
<text text-anchor="start" x="28.5" y="-37" font-family="Helvetica,sans-Serif" font-size="10.00">IsValid</text>
<text text-anchor="start" x="11" y="-22" font-family="Helvetica,sans-Serif" font-size="10.00">+</text>
<text text-anchor="start" x="28.5" y="-22" font-family="Helvetica,sans-Serif" font-size="10.00">HistoricalMoves</text>
<text text-anchor="start" x="68" y="-7" font-family="Helvetica,sans-Serif" font-size="10.00"> </text>
<polygon fill="#666666" stroke="#666666" points="0.5,-152 0.5,-152 139.5,-152 139.5,-152 0.5,-152"/>
<polygon fill="#666666" stroke="#666666" points="0.5,-17 0.5,-17 26.5,-17 26.5,-17 0.5,-17"/>
<polygon fill="#666666" stroke="#666666" points="26.5,-17 26.5,-17 139.5,-17 139.5,-17 26.5,-17"/>
<polygon fill="none" stroke="#666666" points="0,0 0,-180 139,-180 139,0 0,0"/>
</a>
</g>
</g>
</g>
</svg>
