<?xml version="1.0" encoding="UTF-8" standalone="no"?>
<!DOCTYPE svg PUBLIC "-//W3C//DTD SVG 1.1//EN"
 "http://www.w3.org/Graphics/SVG/1.1/DTD/svg11.dtd">
<!-- Generated by graphviz version 2.43.0 (0)
 -->
<!-- Title: Alaris.Strategy.Bridge.STBR002A Pages: 1 -->
<svg width="320pt" height="427pt"
 viewBox="0.00 0.00 319.50 427.00" xmlns="http://www.w3.org/2000/svg" xmlns:xlink="http://www.w3.org/1999/xlink">

<svg id="main" version="1.1" xmlns="http://www.w3.org/2000/svg" xmlns:xlink="http://www.w3.org/1999/xlink" xml:space="preserve" onload="init(evt)">
<style type="text/css"><![CDATA[
.node, .edge {opacity: 0.7;}
.node.selected, .edge.selected {opacity: 1;}
.edge:hover path { stroke: red; }
.edge:hover polygon { stroke: red; fill: red; }
]]></style>
<script type="application/ecmascript" xlink:href="../../svg.min.js"/>
<svg id="graph" class="graph">
<g id="graph0" class="graph" transform="scale(1 1) rotate(0) translate(4 423)">
<title>Alaris.Strategy.Bridge.STBR002A</title>
<!-- Node1 -->
<g id="Node000001" class="node">
<title>Node1</title>
<g id="a_Node000001"><a xlink:title="Interface for pricing options using advanced models including negative rates. Implementations use the...">
<polygon fill="#999999" stroke="transparent" points="239,-419 82,-419 82,-340 239,-340 239,-419"/>
<text text-anchor="start" x="87.5" y="-406.5" font-family="Helvetica,sans-Serif" font-size="10.00">Alaris.Strategy.Bridge.STBR002A</text>
<text text-anchor="start" x="159" y="-391.5" font-family="Helvetica,sans-Serif" font-size="10.00"> </text>
<text text-anchor="start" x="91.5" y="-376.5" font-family="Helvetica,sans-Serif" font-size="10.00">+</text>
<text text-anchor="start" x="107.5" y="-376.5" font-family="Helvetica,sans-Serif" font-size="10.00">PriceOption()</text>
<text text-anchor="start" x="91.5" y="-361.5" font-family="Helvetica,sans-Serif" font-size="10.00">+</text>
<text text-anchor="start" x="107.5" y="-361.5" font-family="Helvetica,sans-Serif" font-size="10.00">PriceSTPR001A()</text>
<text text-anchor="start" x="91.5" y="-346.5" font-family="Helvetica,sans-Serif" font-size="10.00">+</text>
<text text-anchor="start" x="107.5" y="-346.5" font-family="Helvetica,sans-Serif" font-size="10.00">CalculateImpliedVolatility()</text>
<polygon fill="#666666" stroke="#666666" points="82.5,-401.5 82.5,-401.5 239.5,-401.5 239.5,-401.5 82.5,-401.5"/>
<polygon fill="#666666" stroke="#666666" points="82.5,-386.5 82.5,-386.5 239.5,-386.5 239.5,-386.5 82.5,-386.5"/>
<polygon fill="none" stroke="#666666" points="82,-340 82,-419 239,-419 239,-340 82,-340"/>
</a>
</g>
</g>
<!-- Node2 -->
<g id="Node000002" class="node">
<title>Node2</title>
<g id="a_Node000002"><a xlink:href="../../dd/d03/classAlaris_1_1Strategy_1_1Bridge_1_1STBR001A.html" target="_top" xlink:title="Unified pricing engine that automatically selects between Alaris native engines based on interest rat...">
<polygon fill="white" stroke="transparent" points="157,-304 0,-304 0,0 157,0 157,-304"/>
<text text-anchor="start" x="5.5" y="-292" font-family="Helvetica,sans-Serif" font-size="10.00">Alaris.Strategy.Bridge.STBR001A</text>
<text text-anchor="start" x="7.5" y="-277" font-family="Helvetica,sans-Serif" font-size="10.00">&#45;</text>
<text text-anchor="start" x="18.5" y="-277" font-family="Helvetica,sans-Serif" font-size="10.00">_logger</text>
<text text-anchor="start" x="7.5" y="-262" font-family="Helvetica,sans-Serif" font-size="10.00">&#45;</text>
<text text-anchor="start" x="18.5" y="-262" font-family="Helvetica,sans-Serif" font-size="10.00">_nativeEngine</text>
<text text-anchor="start" x="7.5" y="-247" font-family="Helvetica,sans-Serif" font-size="10.00">&#45;</text>
<text text-anchor="start" x="18.5" y="-247" font-family="Helvetica,sans-Serif" font-size="10.00">_disposed</text>
<text text-anchor="start" x="7.5" y="-232" font-family="Helvetica,sans-Serif" font-size="10.00">&#45;</text>
<text text-anchor="start" x="18.5" y="-232" font-family="Helvetica,sans-Serif" font-size="10.00">LogPricingOption</text>
<text text-anchor="start" x="7.5" y="-217" font-family="Helvetica,sans-Serif" font-size="10.00">&#45;</text>
<text text-anchor="start" x="18.5" y="-217" font-family="Helvetica,sans-Serif" font-size="10.00">LogPricingSTPR001A</text>
<text text-anchor="start" x="7.5" y="-202" font-family="Helvetica,sans-Serif" font-size="10.00">&#45;</text>
<text text-anchor="start" x="18.5" y="-202" font-family="Helvetica,sans-Serif" font-size="10.00">LogImpliedVolatilityCalculated</text>
<text text-anchor="start" x="7.5" y="-187" font-family="Helvetica,sans-Serif" font-size="10.00">&#45;</text>
<text text-anchor="start" x="18.5" y="-187" font-family="Helvetica,sans-Serif" font-size="10.00">LogErrorPricing</text>
<text text-anchor="start" x="6" y="-172" font-family="Helvetica,sans-Serif" font-size="10.00">+</text>
<text text-anchor="start" x="18.5" y="-172" font-family="Helvetica,sans-Serif" font-size="10.00">STBR001A()</text>
<text text-anchor="start" x="6" y="-157" font-family="Helvetica,sans-Serif" font-size="10.00">+</text>
<text text-anchor="start" x="18.5" y="-157" font-family="Helvetica,sans-Serif" font-size="10.00">PriceOption()</text>
<text text-anchor="start" x="6" y="-142" font-family="Helvetica,sans-Serif" font-size="10.00">+</text>
<text text-anchor="start" x="18.5" y="-142" font-family="Helvetica,sans-Serif" font-size="10.00">PriceSTPR001A()</text>
<text text-anchor="start" x="6" y="-127" font-family="Helvetica,sans-Serif" font-size="10.00">+</text>
<text text-anchor="start" x="18.5" y="-127" font-family="Helvetica,sans-Serif" font-size="10.00">CalculateImpliedVolatility()</text>
<text text-anchor="start" x="6" y="-112" font-family="Helvetica,sans-Serif" font-size="10.00">+</text>
<text text-anchor="start" x="18.5" y="-112" font-family="Helvetica,sans-Serif" font-size="10.00">Dispose()</text>
<text text-anchor="start" x="6" y="-97" font-family="Helvetica,sans-Serif" font-size="10.00">+</text>
<text text-anchor="start" x="18.5" y="-97" font-family="Helvetica,sans-Serif" font-size="10.00">DetermineRegime()</text>
<text text-anchor="start" x="7.5" y="-82" font-family="Helvetica,sans-Serif" font-size="10.00">&#45;</text>
<text text-anchor="start" x="18.5" y="-82" font-family="Helvetica,sans-Serif" font-size="10.00">CalculateMaxProfit()</text>
<text text-anchor="start" x="7.5" y="-67" font-family="Helvetica,sans-Serif" font-size="10.00">&#45;</text>
<text text-anchor="start" x="18.5" y="-67" font-family="Helvetica,sans-Serif" font-size="10.00">CalculateBreakEven()</text>
<text text-anchor="start" x="7.5" y="-52" font-family="Helvetica,sans-Serif" font-size="10.00">&#45;</text>
<text text-anchor="start" x="18.5" y="-52" font-family="Helvetica,sans-Serif" font-size="10.00">SafeLog()</text>
<text text-anchor="start" x="7.5" y="-37" font-family="Helvetica,sans-Serif" font-size="10.00">&#45;</text>
<text text-anchor="start" x="18.5" y="-37" font-family="Helvetica,sans-Serif" font-size="10.00">CreateSTDT003A()</text>
<text text-anchor="start" x="7.5" y="-22" font-family="Helvetica,sans-Serif" font-size="10.00">&#45;</text>
<text text-anchor="start" x="18.5" y="-22" font-family="Helvetica,sans-Serif" font-size="10.00">BuildSTPR001APricing()</text>
<text text-anchor="start" x="7.5" y="-7" font-family="Helvetica,sans-Serif" font-size="10.00">&#45;</text>
<text text-anchor="start" x="18.5" y="-7" font-family="Helvetica,sans-Serif" font-size="10.00">CalculateDaysToExpiry()</text>
<polygon fill="#666666" stroke="#666666" points="0.5,-287 0.5,-287 157.5,-287 157.5,-287 0.5,-287"/>
<polygon fill="#666666" stroke="#666666" points="0.5,-182 0.5,-182 16.5,-182 16.5,-182 0.5,-182"/>
<polygon fill="#666666" stroke="#666666" points="16.5,-182 16.5,-182 157.5,-182 157.5,-182 16.5,-182"/>
<polygon fill="none" stroke="#666666" points="0,0 0,-304 157,-304 157,0 0,0"/>
</a>
</g>
</g>
<!-- Node1&#45;&gt;Node2 -->
<g id="edge1_Node000001_Node000002" class="edge">
<title>Node1&#45;&gt;Node2</title>
<g id="a_edge1_Node000001_Node000002"><a xlink:title=" ">
<path fill="none" stroke="#63b8ff" d="M143.03,-330.45C140.08,-322.35 136.89,-313.56 133.55,-304.39"/>
<polygon fill="none" stroke="#63b8ff" points="139.79,-331.79 146.5,-339.99 146.37,-329.4 139.79,-331.79"/>
</a>
</g>
</g>
<!-- Node3 -->
<g id="Node000003" class="node">
<title>Node3</title>
<g id="a_Node000003"><a xlink:title=" ">
<polygon fill="white" stroke="transparent" points="311.5,-197 175.5,-197 175.5,-107 311.5,-107 311.5,-197"/>
<text text-anchor="start" x="194" y="-185" font-family="Helvetica,sans-Serif" font-size="10.00">Alaris.Test.Integration.</text>
<text text-anchor="start" x="201" y="-174" font-family="Helvetica,sans-Serif" font-size="10.00">MockPricingEngine</text>
<text text-anchor="start" x="241.5" y="-159" font-family="Helvetica,sans-Serif" font-size="10.00"> </text>
<text text-anchor="start" x="179.5" y="-144" font-family="Helvetica,sans-Serif" font-size="10.00">+</text>
<text text-anchor="start" x="190.5" y="-144" font-family="Helvetica,sans-Serif" font-size="10.00">PriceOption()</text>
<text text-anchor="start" x="179.5" y="-129" font-family="Helvetica,sans-Serif" font-size="10.00">+</text>
<text text-anchor="start" x="190.5" y="-129" font-family="Helvetica,sans-Serif" font-size="10.00">PriceSTPR001A()</text>
<text text-anchor="start" x="179.5" y="-114" font-family="Helvetica,sans-Serif" font-size="10.00">+</text>
<text text-anchor="start" x="190.5" y="-114" font-family="Helvetica,sans-Serif" font-size="10.00">CalculateImpliedVolatility()</text>
<polygon fill="#666666" stroke="#666666" points="175.5,-169 175.5,-169 311.5,-169 311.5,-169 175.5,-169"/>
<polygon fill="#666666" stroke="#666666" points="175.5,-154 175.5,-154 311.5,-154 311.5,-154 175.5,-154"/>
<polygon fill="none" stroke="#666666" points="175.5,-107 175.5,-197 311.5,-197 311.5,-107 175.5,-107"/>
</a>
</g>
</g>
<!-- Node1&#45;&gt;Node3 -->
<g id="edge2_Node000001_Node000003" class="edge">
<title>Node1&#45;&gt;Node3</title>
<g id="a_edge2_Node000001_Node000003"><a xlink:title=" ">
<path fill="none" stroke="#63b8ff" d="M178.23,-330.32C192.76,-290.86 213.14,-235.47 227.25,-197.15"/>
<polygon fill="none" stroke="#63b8ff" points="174.84,-329.4 174.67,-339.99 181.41,-331.82 174.84,-329.4"/>
</a>
</g>
</g>
</g>
</svg>
</svg>

<style type='text/css'>
<![CDATA[
[data-mouse-over-selected='false'] { opacity: 0.7; }
[data-mouse-over-selected='true']  { opacity: 1.0; }
]]>
</style>
<script type="application/ecmascript"><![CDATA[
document.addEventListener('DOMContentLoaded', (event) => {
  highlightEdges();
  highlightAdjacentNodes();
});
]]></script>
</svg>
