<?xml version="1.0" encoding="UTF-8" standalone="no"?>
<!DOCTYPE svg PUBLIC "-//W3C//DTD SVG 1.1//EN"
 "http://www.w3.org/Graphics/SVG/1.1/DTD/svg11.dtd">
<!-- Generated by graphviz version 2.43.0 (0)
 -->
<!-- Title: Alaris.Infrastructure.Events.Core.EVCR004A Pages: 1 -->
<svg width="170pt" height="113pt"
 viewBox="0.00 0.00 170.00 113.00" xmlns="http://www.w3.org/2000/svg" xmlns:xlink="http://www.w3.org/1999/xlink">
<g id="graph0" class="graph" transform="scale(1 1) rotate(0) translate(4 109)">
<title>Alaris.Infrastructure.Events.Core.EVCR004A</title>
<!-- Node1 -->
<g id="Node000001" class="node">
<title>Node1</title>
<g id="a_Node000001"><a xlink:title="Interface for writing immutable audit logs. Audit logs provide a human&#45;readable trail of all system a...">
<polygon fill="#999999" stroke="transparent" points="162,-105 0,-105 0,0 162,0 162,-105"/>
<text text-anchor="start" x="19.5" y="-92.5" font-family="Helvetica,sans-Serif" font-size="10.00">Alaris.Infrastructure.Events.</text>
<text text-anchor="start" x="43" y="-81.5" font-family="Helvetica,sans-Serif" font-size="10.00">Core.EVCR004A</text>
<text text-anchor="start" x="79" y="-66.5" font-family="Helvetica,sans-Serif" font-size="10.00"> </text>
<text text-anchor="start" x="4" y="-51.5" font-family="Helvetica,sans-Serif" font-size="10.00">+</text>
<text text-anchor="start" x="15" y="-51.5" font-family="Helvetica,sans-Serif" font-size="10.00">LogAsync()</text>
<text text-anchor="start" x="4" y="-36.5" font-family="Helvetica,sans-Serif" font-size="10.00">+</text>
<text text-anchor="start" x="15" y="-36.5" font-family="Helvetica,sans-Serif" font-size="10.00">GetEntriesForEntityAsync()</text>
<text text-anchor="start" x="4" y="-21.5" font-family="Helvetica,sans-Serif" font-size="10.00">+</text>
<text text-anchor="start" x="15" y="-21.5" font-family="Helvetica,sans-Serif" font-size="10.00">GetEntriesByInitiatorAsync()</text>
<text text-anchor="start" x="4" y="-6.5" font-family="Helvetica,sans-Serif" font-size="10.00">+</text>
<text text-anchor="start" x="15" y="-6.5" font-family="Helvetica,sans-Serif" font-size="10.00">GetEntriesByTimeRangeAsync()</text>
<polygon fill="#666666" stroke="#666666" points="0,-76.5 0,-76.5 162,-76.5 162,-76.5 0,-76.5"/>
<polygon fill="#666666" stroke="#666666" points="0,-61.5 0,-61.5 162,-61.5 162,-61.5 0,-61.5"/>
<polygon fill="none" stroke="#666666" points="0,0 0,-105 162,-105 162,0 0,0"/>
</a>
</g>
</g>
</g>
</svg>
