<?xml version="1.0" encoding="UTF-8" standalone="no"?>
<!DOCTYPE svg PUBLIC "-//W3C//DTD SVG 1.1//EN"
 "http://www.w3.org/Graphics/SVG/1.1/DTD/svg11.dtd">
<!-- Generated by graphviz version 2.43.0 (0)
 -->
<!-- Title: Alaris.Strategy.Core.Numerical.STPR002C Pages: 1 -->
<svg width="156pt" height="128pt"
 viewBox="0.00 0.00 156.00 128.00" xmlns="http://www.w3.org/2000/svg" xmlns:xlink="http://www.w3.org/1999/xlink">
<g id="graph0" class="graph" transform="scale(1 1) rotate(0) translate(4 124)">
<title>Alaris.Strategy.Core.Numerical.STPR002C</title>
<!-- Node1 -->
<g id="Node000001" class="node">
<title>Node1</title>
<g id="a_Node000001"><a xlink:title="Unified numerical integration facade that automatically selects optimal implementation....">
<polygon fill="#999999" stroke="transparent" points="148,-120 0,-120 0,0 148,0 148,-120"/>
<text text-anchor="start" x="5" y="-108" font-family="Helvetica,sans-Serif" font-size="10.00">Alaris.Strategy.Core.Numerical.</text>
<text text-anchor="start" x="48.5" y="-97" font-family="Helvetica,sans-Serif" font-size="10.00">STPR002C</text>
<text text-anchor="start" x="5" y="-82" font-family="Helvetica,sans-Serif" font-size="10.00">+</text>
<text text-anchor="start" x="17" y="-82" font-family="Helvetica,sans-Serif" font-size="10.00">Value</text>
<text text-anchor="start" x="5" y="-67" font-family="Helvetica,sans-Serif" font-size="10.00">+</text>
<text text-anchor="start" x="17" y="-67" font-family="Helvetica,sans-Serif" font-size="10.00">Value</text>
<text text-anchor="start" x="5" y="-52" font-family="Helvetica,sans-Serif" font-size="10.00">+</text>
<text text-anchor="start" x="17" y="-52" font-family="Helvetica,sans-Serif" font-size="10.00">IsAvx2Supported</text>
<text text-anchor="start" x="5" y="-37" font-family="Helvetica,sans-Serif" font-size="10.00">+</text>
<text text-anchor="start" x="17" y="-37" font-family="Helvetica,sans-Serif" font-size="10.00">Integrate()</text>
<text text-anchor="start" x="5" y="-22" font-family="Helvetica,sans-Serif" font-size="10.00">+</text>
<text text-anchor="start" x="17" y="-22" font-family="Helvetica,sans-Serif" font-size="10.00">IntegrateToInfinity()</text>
<text text-anchor="start" x="5" y="-7" font-family="Helvetica,sans-Serif" font-size="10.00">+</text>
<text text-anchor="start" x="17" y="-7" font-family="Helvetica,sans-Serif" font-size="10.00">IntegrateComplexToInfinity()</text>
<polygon fill="#666666" stroke="#666666" points="0,-92 0,-92 148,-92 148,-92 0,-92"/>
<polygon fill="#666666" stroke="#666666" points="0,-47 0,-47 15,-47 15,-47 0,-47"/>
<polygon fill="#666666" stroke="#666666" points="15,-47 15,-47 148,-47 148,-47 15,-47"/>
<polygon fill="none" stroke="#666666" points="0,0 0,-120 148,-120 148,0 0,0"/>
</a>
</g>
</g>
</g>
</svg>
