<?xml version="1.0" encoding="UTF-8" standalone="no"?>
<!DOCTYPE svg PUBLIC "-//W3C//DTD SVG 1.1//EN"
 "http://www.w3.org/Graphics/SVG/1.1/DTD/svg11.dtd">
<!-- Generated by graphviz version 2.43.0 (0)
 -->
<!-- Title: Alaris.Algorithm.Universe.STUN001B Pages: 1 -->
<svg width="308pt" height="460pt"
 viewBox="0.00 0.00 308.00 460.00" xmlns="http://www.w3.org/2000/svg" xmlns:xlink="http://www.w3.org/1999/xlink">
<g id="graph0" class="graph" transform="scale(1 1) rotate(0) translate(4 456)">
<title>Alaris.Algorithm.Universe.STUN001B</title>
<!-- Node1 -->
<g id="Node000001" class="node">
<title>Node1</title>
<g id="a_Node000001"><a xlink:title="Polygon&#45;based universe selection model that uses pre&#45;generated universe files. Component ID: STUN001B...">
<polygon fill="#999999" stroke="transparent" points="207.5,-285 66.5,-285 66.5,0 207.5,0 207.5,-285"/>
<text text-anchor="start" x="80" y="-272.5" font-family="Helvetica,sans-Serif" font-size="10.00">Alaris.Algorithm.Universe.</text>
<text text-anchor="start" x="112" y="-261.5" font-family="Helvetica,sans-Serif" font-size="10.00">STUN001B</text>
<text text-anchor="start" x="72.5" y="-246.5" font-family="Helvetica,sans-Serif" font-size="10.00">&#45;</text>
<text text-anchor="start" x="82" y="-246.5" font-family="Helvetica,sans-Serif" font-size="10.00">_logger</text>
<text text-anchor="start" x="72.5" y="-231.5" font-family="Helvetica,sans-Serif" font-size="10.00">&#45;</text>
<text text-anchor="start" x="82" y="-231.5" font-family="Helvetica,sans-Serif" font-size="10.00">_dataPath</text>
<text text-anchor="start" x="72.5" y="-216.5" font-family="Helvetica,sans-Serif" font-size="10.00">&#45;</text>
<text text-anchor="start" x="82" y="-216.5" font-family="Helvetica,sans-Serif" font-size="10.00">_daysBeforeEarningsMin</text>
<text text-anchor="start" x="72.5" y="-201.5" font-family="Helvetica,sans-Serif" font-size="10.00">&#45;</text>
<text text-anchor="start" x="82" y="-201.5" font-family="Helvetica,sans-Serif" font-size="10.00">_daysBeforeEarningsMax</text>
<text text-anchor="start" x="72.5" y="-186.5" font-family="Helvetica,sans-Serif" font-size="10.00">&#45;</text>
<text text-anchor="start" x="82" y="-186.5" font-family="Helvetica,sans-Serif" font-size="10.00">_minimumDollarVolume</text>
<text text-anchor="start" x="72.5" y="-171.5" font-family="Helvetica,sans-Serif" font-size="10.00">&#45;</text>
<text text-anchor="start" x="82" y="-171.5" font-family="Helvetica,sans-Serif" font-size="10.00">_minimumPrice</text>
<text text-anchor="start" x="72.5" y="-156.5" font-family="Helvetica,sans-Serif" font-size="10.00">&#45;</text>
<text text-anchor="start" x="82" y="-156.5" font-family="Helvetica,sans-Serif" font-size="10.00">_maxSymbols</text>
<text text-anchor="start" x="72.5" y="-141.5" font-family="Helvetica,sans-Serif" font-size="10.00">&#45;</text>
<text text-anchor="start" x="82" y="-141.5" font-family="Helvetica,sans-Serif" font-size="10.00">_lastUniverseDate</text>
<text text-anchor="start" x="72.5" y="-126.5" font-family="Helvetica,sans-Serif" font-size="10.00">&#45;</text>
<text text-anchor="start" x="82" y="-126.5" font-family="Helvetica,sans-Serif" font-size="10.00">_cachedUniverse</text>
<text text-anchor="start" x="72.5" y="-111.5" font-family="Helvetica,sans-Serif" font-size="10.00">&#45;</text>
<text text-anchor="start" x="82" y="-111.5" font-family="Helvetica,sans-Serif" font-size="10.00">_cachedEarningsSymbols</text>
<text text-anchor="start" x="72.5" y="-96.5" font-family="Helvetica,sans-Serif" font-size="10.00">&#45;</text>
<text text-anchor="start" x="82" y="-96.5" font-family="Helvetica,sans-Serif" font-size="10.00">Separators</text>
<text text-anchor="start" x="71" y="-81.5" font-family="Helvetica,sans-Serif" font-size="10.00">+</text>
<text text-anchor="start" x="82" y="-81.5" font-family="Helvetica,sans-Serif" font-size="10.00">STUN001B()</text>
<text text-anchor="start" x="71" y="-66.5" font-family="Helvetica,sans-Serif" font-size="10.00">+</text>
<text text-anchor="start" x="82" y="-66.5" font-family="Helvetica,sans-Serif" font-size="10.00">GetConfigurationSummary()</text>
<text text-anchor="start" x="71" y="-51.5" font-family="Helvetica,sans-Serif" font-size="10.00">+</text>
<text text-anchor="start" x="82" y="-51.5" font-family="Helvetica,sans-Serif" font-size="10.00">CreateUniverses()</text>
<text text-anchor="start" x="72.5" y="-36.5" font-family="Helvetica,sans-Serif" font-size="10.00">&#45;</text>
<text text-anchor="start" x="82" y="-36.5" font-family="Helvetica,sans-Serif" font-size="10.00">SelectSymbols()</text>
<text text-anchor="start" x="72.5" y="-21.5" font-family="Helvetica,sans-Serif" font-size="10.00">&#45;</text>
<text text-anchor="start" x="82" y="-21.5" font-family="Helvetica,sans-Serif" font-size="10.00">LoadUniverseForDate()</text>
<text text-anchor="start" x="72.5" y="-6.5" font-family="Helvetica,sans-Serif" font-size="10.00">&#45;</text>
<text text-anchor="start" x="82" y="-6.5" font-family="Helvetica,sans-Serif" font-size="10.00">LoadEarningsSymbols()</text>
<polygon fill="#666666" stroke="#666666" points="67,-256.5 67,-256.5 208,-256.5 208,-256.5 67,-256.5"/>
<polygon fill="#666666" stroke="#666666" points="67,-91.5 67,-91.5 80,-91.5 80,-91.5 67,-91.5"/>
<polygon fill="#666666" stroke="#666666" points="80,-91.5 80,-91.5 208,-91.5 208,-91.5 80,-91.5"/>
<polygon fill="none" stroke="#666666" points="66.5,0 66.5,-285 207.5,-285 207.5,0 66.5,0"/>
</a>
</g>
</g>
<!-- Node2 -->
<g id="Node000002" class="node">
<title>Node2</title>
<g id="a_Node000002"><a xlink:title=" ">
<polygon fill="white" stroke="transparent" points="116,-416.5 0,-416.5 0,-367.5 116,-367.5 116,-416.5"/>
<text text-anchor="start" x="5" y="-404" font-family="Helvetica,sans-Serif" font-size="10.00">UniverseSelectionModel</text>
<text text-anchor="start" x="56" y="-389" font-family="Helvetica,sans-Serif" font-size="10.00"> </text>
<text text-anchor="start" x="56" y="-374" font-family="Helvetica,sans-Serif" font-size="10.00"> </text>
<polygon fill="#666666" stroke="#666666" points="0,-399 0,-399 116,-399 116,-399 0,-399"/>
<polygon fill="#666666" stroke="#666666" points="0,-384 0,-384 116,-384 116,-384 0,-384"/>
<polygon fill="none" stroke="#666666" points="0,-367.5 0,-416.5 116,-416.5 116,-367.5 0,-367.5"/>
</a>
</g>
</g>
<!-- Node2&#45;&gt;Node1 -->
<g id="edge1_Node000001_Node000002" class="edge">
<title>Node2&#45;&gt;Node1</title>
<g id="a_edge1_Node000001_Node000002"><a xlink:title=" ">
<path fill="none" stroke="#63b8ff" d="M68.62,-357.72C74.83,-338.26 83.14,-312.23 91.83,-285.02"/>
<polygon fill="none" stroke="#63b8ff" points="65.28,-356.68 65.57,-367.27 71.95,-358.81 65.28,-356.68"/>
</a>
</g>
</g>
<!-- Node3 -->
<g id="Node000003" class="node">
<title>Node3</title>
<g id="a_Node000003"><a xlink:href="../../da/d01/interfaceAlaris_1_1Infrastructure_1_1Data_1_1Provider_1_1DTpr004A.html" target="_top" xlink:title="Interface for earnings calendar providers.">
<polygon fill="white" stroke="transparent" points="300,-452 134,-452 134,-332 300,-332 300,-452"/>
<text text-anchor="start" x="160.5" y="-440" font-family="Helvetica,sans-Serif" font-size="10.00">Alaris.Infrastructure.Data.</text>
<text text-anchor="start" x="175.5" y="-429" font-family="Helvetica,sans-Serif" font-size="10.00">Provider.DTpr004A</text>
<text text-anchor="start" x="215" y="-414" font-family="Helvetica,sans-Serif" font-size="10.00"> </text>
<text text-anchor="start" x="138" y="-399" font-family="Helvetica,sans-Serif" font-size="10.00">+</text>
<text text-anchor="start" x="149" y="-399" font-family="Helvetica,sans-Serif" font-size="10.00">GetUpcomingEarningsAsync()</text>
<text text-anchor="start" x="138" y="-384" font-family="Helvetica,sans-Serif" font-size="10.00">+</text>
<text text-anchor="start" x="149" y="-384" font-family="Helvetica,sans-Serif" font-size="10.00">GetHistoricalEarningsAsync()</text>
<text text-anchor="start" x="138" y="-369" font-family="Helvetica,sans-Serif" font-size="10.00">+</text>
<text text-anchor="start" x="149" y="-369" font-family="Helvetica,sans-Serif" font-size="10.00">GetHistoricalEarningsAsync()</text>
<text text-anchor="start" x="138" y="-354" font-family="Helvetica,sans-Serif" font-size="10.00">+</text>
<text text-anchor="start" x="149" y="-354" font-family="Helvetica,sans-Serif" font-size="10.00">GetSymbolsWithEarningsAsync()</text>
<text text-anchor="start" x="138" y="-339" font-family="Helvetica,sans-Serif" font-size="10.00">+</text>
<text text-anchor="start" x="149" y="-339" font-family="Helvetica,sans-Serif" font-size="10.00">EnableCacheOnlyMode()</text>
<polygon fill="#666666" stroke="#666666" points="134,-424 134,-424 300,-424 300,-424 134,-424"/>
<polygon fill="#666666" stroke="#666666" points="134,-409 134,-409 300,-409 300,-409 134,-409"/>
<polygon fill="none" stroke="#666666" points="134,-332 134,-452 300,-452 300,-332 134,-332"/>
</a>
</g>
</g>
<!-- Node3&#45;&gt;Node1 -->
<g id="edge2_Node000001_Node000003" class="edge">
<title>Node3&#45;&gt;Node1</title>
<g id="a_edge2_Node000001_Node000003"><a xlink:title=" ">
<path fill="none" stroke="#63b8ff" d="M197.84,-331.72C194.34,-320.88 190.54,-309.13 186.61,-296.97"/>
<polygon fill="none" stroke="#63b8ff" points="186.49,-296.62 180.84,-292.14 182.8,-285.2 188.45,-289.68 186.49,-296.62"/>
</a>
</g>
<text text-anchor="middle" x="233.5" y="-306" font-family="Helvetica,sans-Serif" font-size="10.00" fill="grey"> &#45;_earningsProvider</text>
</g>
</g>
</svg>
