<?xml version="1.0" encoding="UTF-8" standalone="no"?>
<!DOCTYPE svg PUBLIC "-//W3C//DTD SVG 1.1//EN"
 "http://www.w3.org/Graphics/SVG/1.1/DTD/svg11.dtd">
<!-- Generated by graphviz version 2.43.0 (0)
 -->
<!-- Title: Alaris.Core.TermStructure.IYieldCurve Pages: 1 -->
<svg width="136pt" height="329pt"
 viewBox="0.00 0.00 136.00 329.00" xmlns="http://www.w3.org/2000/svg" xmlns:xlink="http://www.w3.org/1999/xlink">

<svg id="main" version="1.1" xmlns="http://www.w3.org/2000/svg" xmlns:xlink="http://www.w3.org/1999/xlink" xml:space="preserve" onload="init(evt)">
<style type="text/css"><![CDATA[
.node, .edge {opacity: 0.7;}
.node.selected, .edge.selected {opacity: 1;}
.edge:hover path { stroke: red; }
.edge:hover polygon { stroke: red; fill: red; }
]]></style>
<script type="application/ecmascript" xlink:href="../../svg.min.js"/>
<svg id="graph" class="graph">
<g id="graph0" class="graph" transform="scale(1 1) rotate(0) translate(4 325)">
<title>Alaris.Core.TermStructure.IYieldCurve</title>
<!-- Node1 -->
<g id="Node000001" class="node">
<title>Node1</title>
<g id="a_Node000001"><a xlink:title="Interface for yield term structures (discount curves). Replaces QuantLib YieldTermStructure.">
<polygon fill="#999999" stroke="transparent" points="127.5,-321 0.5,-321 0.5,-201 127.5,-201 127.5,-321"/>
<text text-anchor="start" x="6" y="-309" font-family="Helvetica,sans-Serif" font-size="10.00">Alaris.Core.TermStructure.</text>
<text text-anchor="start" x="38.5" y="-298" font-family="Helvetica,sans-Serif" font-size="10.00">IYieldCurve</text>
<text text-anchor="start" x="13.5" y="-283" font-family="Helvetica,sans-Serif" font-size="10.00">+</text>
<text text-anchor="start" x="33" y="-283" font-family="Helvetica,sans-Serif" font-size="10.00">ReferenceDate</text>
<text text-anchor="start" x="13.5" y="-268" font-family="Helvetica,sans-Serif" font-size="10.00">+</text>
<text text-anchor="start" x="33" y="-268" font-family="Helvetica,sans-Serif" font-size="10.00">DayCounter</text>
<text text-anchor="start" x="13.5" y="-253" font-family="Helvetica,sans-Serif" font-size="10.00">+</text>
<text text-anchor="start" x="33" y="-253" font-family="Helvetica,sans-Serif" font-size="10.00">DiscountFactor()</text>
<text text-anchor="start" x="13.5" y="-238" font-family="Helvetica,sans-Serif" font-size="10.00">+</text>
<text text-anchor="start" x="33" y="-238" font-family="Helvetica,sans-Serif" font-size="10.00">ZeroRate()</text>
<text text-anchor="start" x="13.5" y="-223" font-family="Helvetica,sans-Serif" font-size="10.00">+</text>
<text text-anchor="start" x="33" y="-223" font-family="Helvetica,sans-Serif" font-size="10.00">ForwardRate()</text>
<text text-anchor="start" x="13.5" y="-208" font-family="Helvetica,sans-Serif" font-size="10.00">+</text>
<text text-anchor="start" x="33" y="-208" font-family="Helvetica,sans-Serif" font-size="10.00">DiscountFactor()</text>
<polygon fill="#666666" stroke="#666666" points="1,-293 1,-293 128,-293 128,-293 1,-293"/>
<polygon fill="#666666" stroke="#666666" points="1,-263 1,-263 31,-263 31,-263 1,-263"/>
<polygon fill="#666666" stroke="#666666" points="31,-263 31,-263 128,-263 128,-263 31,-263"/>
<polygon fill="none" stroke="#666666" points="0.5,-201 0.5,-321 127.5,-321 127.5,-201 0.5,-201"/>
</a>
</g>
</g>
<!-- Node2 -->
<g id="Node000002" class="node">
<title>Node2</title>
<g id="a_Node000002"><a xlink:href="../../d3/d03/classAlaris_1_1Core_1_1TermStructure_1_1CRTS001AFlatForward.html" target="_top" xlink:title="Flat forward yield curve with constant rate. Replaces QuantLib FlatForward.">
<polygon fill="white" stroke="transparent" points="128,-165 0,-165 0,0 128,0 128,-165"/>
<text text-anchor="start" x="5.5" y="-152.5" font-family="Helvetica,sans-Serif" font-size="10.00">Alaris.Core.TermStructure.</text>
<text text-anchor="start" x="12.5" y="-141.5" font-family="Helvetica,sans-Serif" font-size="10.00">CRTS001AFlatForward</text>
<text text-anchor="start" x="4" y="-126.5" font-family="Helvetica,sans-Serif" font-size="10.00">+</text>
<text text-anchor="start" x="15" y="-126.5" font-family="Helvetica,sans-Serif" font-size="10.00">ReferenceDate</text>
<text text-anchor="start" x="4" y="-111.5" font-family="Helvetica,sans-Serif" font-size="10.00">+</text>
<text text-anchor="start" x="15" y="-111.5" font-family="Helvetica,sans-Serif" font-size="10.00">DayCounter</text>
<text text-anchor="start" x="4" y="-96.5" font-family="Helvetica,sans-Serif" font-size="10.00">+</text>
<text text-anchor="start" x="15" y="-96.5" font-family="Helvetica,sans-Serif" font-size="10.00">Rate</text>
<text text-anchor="start" x="5.5" y="-81.5" font-family="Helvetica,sans-Serif" font-size="10.00">&#45;</text>
<text text-anchor="start" x="15" y="-81.5" font-family="Helvetica,sans-Serif" font-size="10.00">_rate</text>
<text text-anchor="start" x="4" y="-66.5" font-family="Helvetica,sans-Serif" font-size="10.00">+</text>
<text text-anchor="start" x="15" y="-66.5" font-family="Helvetica,sans-Serif" font-size="10.00">CRTS001AFlatForward()</text>
<text text-anchor="start" x="4" y="-51.5" font-family="Helvetica,sans-Serif" font-size="10.00">+</text>
<text text-anchor="start" x="15" y="-51.5" font-family="Helvetica,sans-Serif" font-size="10.00">DiscountFactor()</text>
<text text-anchor="start" x="4" y="-36.5" font-family="Helvetica,sans-Serif" font-size="10.00">+</text>
<text text-anchor="start" x="15" y="-36.5" font-family="Helvetica,sans-Serif" font-size="10.00">ZeroRate()</text>
<text text-anchor="start" x="4" y="-21.5" font-family="Helvetica,sans-Serif" font-size="10.00">+</text>
<text text-anchor="start" x="15" y="-21.5" font-family="Helvetica,sans-Serif" font-size="10.00">ForwardRate()</text>
<text text-anchor="start" x="4" y="-6.5" font-family="Helvetica,sans-Serif" font-size="10.00">+</text>
<text text-anchor="start" x="15" y="-6.5" font-family="Helvetica,sans-Serif" font-size="10.00">DiscountFactor()</text>
<polygon fill="#666666" stroke="#666666" points="0,-136.5 0,-136.5 128,-136.5 128,-136.5 0,-136.5"/>
<polygon fill="#666666" stroke="#666666" points="0,-76.5 0,-76.5 13,-76.5 13,-76.5 0,-76.5"/>
<polygon fill="#666666" stroke="#666666" points="13,-76.5 13,-76.5 128,-76.5 128,-76.5 13,-76.5"/>
<polygon fill="none" stroke="#666666" points="0,0 0,-165 128,-165 128,0 0,0"/>
</a>
</g>
</g>
<!-- Node1&#45;&gt;Node2 -->
<g id="edge1_Node000001_Node000002" class="edge">
<title>Node1&#45;&gt;Node2</title>
<g id="a_edge1_Node000001_Node000002"><a xlink:title=" ">
<path fill="none" stroke="#63b8ff" d="M64,-190.68C64,-182.31 64,-173.71 64,-165.19"/>
<polygon fill="none" stroke="#63b8ff" points="60.5,-190.74 64,-200.74 67.5,-190.74 60.5,-190.74"/>
</a>
</g>
</g>
</g>
</svg>
</svg>

<style type='text/css'>
<![CDATA[
[data-mouse-over-selected='false'] { opacity: 0.7; }
[data-mouse-over-selected='true']  { opacity: 1.0; }
]]>
</style>
<script type="application/ecmascript"><![CDATA[
document.addEventListener('DOMContentLoaded', (event) => {
  highlightEdges();
  highlightAdjacentNodes();
});
]]></script>
</svg>
