<?xml version="1.0" encoding="UTF-8" standalone="no"?>
<!DOCTYPE svg PUBLIC "-//W3C//DTD SVG 1.1//EN"
 "http://www.w3.org/Graphics/SVG/1.1/DTD/svg11.dtd">
<!-- Generated by graphviz version 2.43.0 (0)
 -->
<!-- Title: Alaris.Infrastructure.Data.Provider.DTpr002A Pages: 1 -->
<svg width="178pt" height="687pt"
 viewBox="0.00 0.00 178.00 687.00" xmlns="http://www.w3.org/2000/svg" xmlns:xlink="http://www.w3.org/1999/xlink">
<g id="graph0" class="graph" transform="scale(1 1) rotate(0) translate(4 683)">
<title>Alaris.Infrastructure.Data.Provider.DTpr002A</title>
<!-- Node1 -->
<g id="Node000001" class="node">
<title>Node1</title>
<g id="a_Node000001"><a xlink:title="Interface for execution quote providers (IBKR snapshots).">
<polygon fill="#999999" stroke="transparent" points="153.5,-594 16.5,-594 16.5,-519 153.5,-519 153.5,-594"/>
<text text-anchor="start" x="29" y="-581.5" font-family="Helvetica,sans-Serif" font-size="10.00">Alaris.Infrastructure.Data.</text>
<text text-anchor="start" x="44" y="-570.5" font-family="Helvetica,sans-Serif" font-size="10.00">Provider.DTpr002A</text>
<text text-anchor="start" x="83.5" y="-555.5" font-family="Helvetica,sans-Serif" font-size="10.00"> </text>
<text text-anchor="start" x="21" y="-540.5" font-family="Helvetica,sans-Serif" font-size="10.00">+</text>
<text text-anchor="start" x="32" y="-540.5" font-family="Helvetica,sans-Serif" font-size="10.00">GetSnapshotQuoteAsync()</text>
<text text-anchor="start" x="21" y="-525.5" font-family="Helvetica,sans-Serif" font-size="10.00">+</text>
<text text-anchor="start" x="32" y="-525.5" font-family="Helvetica,sans-Serif" font-size="10.00">GetDTmd002AAsync()</text>
<polygon fill="#666666" stroke="#666666" points="17,-565.5 17,-565.5 154,-565.5 154,-565.5 17,-565.5"/>
<polygon fill="#666666" stroke="#666666" points="17,-550.5 17,-550.5 154,-550.5 154,-550.5 17,-550.5"/>
<polygon fill="none" stroke="#666666" points="16.5,-519 16.5,-594 153.5,-594 153.5,-519 16.5,-519"/>
</a>
</g>
</g>
<!-- Node3 -->
<g id="Node000003" class="node">
<title>Node3</title>
<g id="a_Node000003"><a xlink:href="../../dd/d01/classAlaris_1_1Infrastructure_1_1Data_1_1Provider_1_1InteractiveBrokersSnapshotProvider.html" target="_top" xlink:title="Interactive Brokers implementation of execution quote provider. Component: DTib005A | Category: Data ...">
<polygon fill="white" stroke="transparent" points="170,-483 0,-483 0,0 170,0 170,-483"/>
<text text-anchor="start" x="5" y="-470.5" font-family="Helvetica,sans-Serif" font-size="10.00">Alaris.Infrastructure.Data.</text>
<text text-anchor="start" x="5" y="-459.5" font-family="Helvetica,sans-Serif" font-size="10.00">Provider.InteractiveBrokersSnapshot</text>
<text text-anchor="start" x="66.5" y="-448.5" font-family="Helvetica,sans-Serif" font-size="10.00">Provider</text>
<text text-anchor="start" x="7" y="-433.5" font-family="Helvetica,sans-Serif" font-size="10.00">+</text>
<text text-anchor="start" x="21" y="-433.5" font-family="Helvetica,sans-Serif" font-size="10.00">IsConnected</text>
<text text-anchor="start" x="7" y="-418.5" font-family="Helvetica,sans-Serif" font-size="10.00">+</text>
<text text-anchor="start" x="21" y="-418.5" font-family="Helvetica,sans-Serif" font-size="10.00">IsBacktestMode</text>
<text text-anchor="start" x="8.5" y="-403.5" font-family="Helvetica,sans-Serif" font-size="10.00">&#45;</text>
<text text-anchor="start" x="21" y="-403.5" font-family="Helvetica,sans-Serif" font-size="10.00">_logger</text>
<text text-anchor="start" x="8.5" y="-388.5" font-family="Helvetica,sans-Serif" font-size="10.00">&#45;</text>
<text text-anchor="start" x="21" y="-388.5" font-family="Helvetica,sans-Serif" font-size="10.00">_configuration</text>
<text text-anchor="start" x="8.5" y="-373.5" font-family="Helvetica,sans-Serif" font-size="10.00">&#45;</text>
<text text-anchor="start" x="21" y="-373.5" font-family="Helvetica,sans-Serif" font-size="10.00">_pendingRequests</text>
<text text-anchor="start" x="8.5" y="-358.5" font-family="Helvetica,sans-Serif" font-size="10.00">&#45;</text>
<text text-anchor="start" x="21" y="-358.5" font-family="Helvetica,sans-Serif" font-size="10.00">_quoteStates</text>
<text text-anchor="start" x="8.5" y="-343.5" font-family="Helvetica,sans-Serif" font-size="10.00">&#45;</text>
<text text-anchor="start" x="21" y="-343.5" font-family="Helvetica,sans-Serif" font-size="10.00">_nextRequestId</text>
<text text-anchor="start" x="8.5" y="-328.5" font-family="Helvetica,sans-Serif" font-size="10.00">&#45;</text>
<text text-anchor="start" x="21" y="-328.5" font-family="Helvetica,sans-Serif" font-size="10.00">_disposed</text>
<text text-anchor="start" x="8.5" y="-313.5" font-family="Helvetica,sans-Serif" font-size="10.00">&#45;</text>
<text text-anchor="start" x="21" y="-313.5" font-family="Helvetica,sans-Serif" font-size="10.00">_isConnected</text>
<text text-anchor="start" x="8.5" y="-298.5" font-family="Helvetica,sans-Serif" font-size="10.00">&#45;</text>
<text text-anchor="start" x="21" y="-298.5" font-family="Helvetica,sans-Serif" font-size="10.00">_isBacktestMode</text>
<text text-anchor="start" x="8.5" y="-283.5" font-family="Helvetica,sans-Serif" font-size="10.00">&#45;</text>
<text text-anchor="start" x="21" y="-283.5" font-family="Helvetica,sans-Serif" font-size="10.00">_host</text>
<text text-anchor="start" x="8.5" y="-268.5" font-family="Helvetica,sans-Serif" font-size="10.00">&#45;</text>
<text text-anchor="start" x="21" y="-268.5" font-family="Helvetica,sans-Serif" font-size="10.00">_port</text>
<text text-anchor="start" x="8.5" y="-253.5" font-family="Helvetica,sans-Serif" font-size="10.00">&#45;</text>
<text text-anchor="start" x="21" y="-253.5" font-family="Helvetica,sans-Serif" font-size="10.00">_clientId</text>
<text text-anchor="start" x="8.5" y="-238.5" font-family="Helvetica,sans-Serif" font-size="10.00">&#45;</text>
<text text-anchor="start" x="21" y="-238.5" font-family="Helvetica,sans-Serif" font-size="10.00">_connectionTimeout</text>
<text text-anchor="start" x="8.5" y="-223.5" font-family="Helvetica,sans-Serif" font-size="10.00">&#45;</text>
<text text-anchor="start" x="21" y="-223.5" font-family="Helvetica,sans-Serif" font-size="10.00">_quoteTimeout</text>
<text text-anchor="start" x="8.5" y="-208.5" font-family="Helvetica,sans-Serif" font-size="10.00">&#45;</text>
<text text-anchor="start" x="21" y="-208.5" font-family="Helvetica,sans-Serif" font-size="10.00">_clientLock</text>
<text text-anchor="start" x="7" y="-193.5" font-family="Helvetica,sans-Serif" font-size="10.00">+</text>
<text text-anchor="start" x="21" y="-193.5" font-family="Helvetica,sans-Serif" font-size="10.00">InteractiveBrokersSnapshot</text>
<text text-anchor="start" x="21" y="-182.5" font-family="Helvetica,sans-Serif" font-size="10.00">Provider()</text>
<text text-anchor="start" x="7" y="-167.5" font-family="Helvetica,sans-Serif" font-size="10.00">+</text>
<text text-anchor="start" x="21" y="-167.5" font-family="Helvetica,sans-Serif" font-size="10.00">InteractiveBrokersSnapshot</text>
<text text-anchor="start" x="21" y="-156.5" font-family="Helvetica,sans-Serif" font-size="10.00">Provider()</text>
<text text-anchor="start" x="7" y="-141.5" font-family="Helvetica,sans-Serif" font-size="10.00">+</text>
<text text-anchor="start" x="21" y="-141.5" font-family="Helvetica,sans-Serif" font-size="10.00">GetSnapshotQuoteAsync()</text>
<text text-anchor="start" x="7" y="-126.5" font-family="Helvetica,sans-Serif" font-size="10.00">+</text>
<text text-anchor="start" x="21" y="-126.5" font-family="Helvetica,sans-Serif" font-size="10.00">GetDTmd002AAsync()</text>
<text text-anchor="start" x="7" y="-111.5" font-family="Helvetica,sans-Serif" font-size="10.00">+</text>
<text text-anchor="start" x="21" y="-111.5" font-family="Helvetica,sans-Serif" font-size="10.00">Dispose()</text>
<text text-anchor="start" x="7" y="-96.5" font-family="Helvetica,sans-Serif" font-size="10.00">~</text>
<text text-anchor="start" x="21" y="-96.5" font-family="Helvetica,sans-Serif" font-size="10.00">OnTickPrice()</text>
<text text-anchor="start" x="7" y="-81.5" font-family="Helvetica,sans-Serif" font-size="10.00">~</text>
<text text-anchor="start" x="21" y="-81.5" font-family="Helvetica,sans-Serif" font-size="10.00">OnTickSize()</text>
<text text-anchor="start" x="8.5" y="-66.5" font-family="Helvetica,sans-Serif" font-size="10.00">&#45;</text>
<text text-anchor="start" x="21" y="-66.5" font-family="Helvetica,sans-Serif" font-size="10.00">ConnectAsync()</text>
<text text-anchor="start" x="8.5" y="-51.5" font-family="Helvetica,sans-Serif" font-size="10.00">&#45;</text>
<text text-anchor="start" x="21" y="-51.5" font-family="Helvetica,sans-Serif" font-size="10.00">GenerateBacktestQuoteAsync()</text>
<text text-anchor="start" x="8.5" y="-36.5" font-family="Helvetica,sans-Serif" font-size="10.00">&#45;</text>
<text text-anchor="start" x="21" y="-36.5" font-family="Helvetica,sans-Serif" font-size="10.00">RequestLiveQuoteAsync()</text>
<text text-anchor="start" x="8.5" y="-21.5" font-family="Helvetica,sans-Serif" font-size="10.00">&#45;</text>
<text text-anchor="start" x="21" y="-21.5" font-family="Helvetica,sans-Serif" font-size="10.00">CheckCompletion()</text>
<text text-anchor="start" x="8.5" y="-6.5" font-family="Helvetica,sans-Serif" font-size="10.00">&#45;</text>
<text text-anchor="start" x="21" y="-6.5" font-family="Helvetica,sans-Serif" font-size="10.00">FormatOptionSymbol()</text>
<polygon fill="#666666" stroke="#666666" points="0,-443.5 0,-443.5 170,-443.5 170,-443.5 0,-443.5"/>
<polygon fill="#666666" stroke="#666666" points="0,-203.5 0,-203.5 19,-203.5 19,-203.5 0,-203.5"/>
<polygon fill="#666666" stroke="#666666" points="19,-203.5 19,-203.5 170,-203.5 170,-203.5 19,-203.5"/>
<polygon fill="none" stroke="#666666" points="0,0 0,-483 170,-483 170,0 0,0"/>
</a>
</g>
</g>
<!-- Node1&#45;&gt;Node3 -->
<g id="edge2_Node000001_Node000003" class="edge">
<title>Node1&#45;&gt;Node3</title>
<g id="a_edge2_Node000001_Node000003"><a xlink:title=" ">
<path fill="none" stroke="#63b8ff" d="M85,-508.73C85,-500.86 85,-492.25 85,-483.09"/>
<polygon fill="none" stroke="#63b8ff" points="81.5,-508.98 85,-518.98 88.5,-508.98 81.5,-508.98"/>
</a>
</g>
</g>
<!-- Node2 -->
<g id="Node000002" class="node">
<title>Node2</title>
<g id="a_Node000002"><a xlink:title=" ">
<polygon fill="white" stroke="transparent" points="116,-679 54,-679 54,-630 116,-630 116,-679"/>
<text text-anchor="start" x="59" y="-666.5" font-family="Helvetica,sans-Serif" font-size="10.00">IDisposable</text>
<text text-anchor="start" x="83" y="-651.5" font-family="Helvetica,sans-Serif" font-size="10.00"> </text>
<text text-anchor="start" x="83" y="-636.5" font-family="Helvetica,sans-Serif" font-size="10.00"> </text>
<polygon fill="#666666" stroke="#666666" points="54,-661.5 54,-661.5 116,-661.5 116,-661.5 54,-661.5"/>
<polygon fill="#666666" stroke="#666666" points="54,-646.5 54,-646.5 116,-646.5 116,-646.5 54,-646.5"/>
<polygon fill="none" stroke="#666666" points="54,-630 54,-679 116,-679 116,-630 54,-630"/>
</a>
</g>
</g>
<!-- Node2&#45;&gt;Node1 -->
<g id="edge1_Node000001_Node000002" class="edge">
<title>Node2&#45;&gt;Node1</title>
<g id="a_edge1_Node000001_Node000002"><a xlink:title=" ">
<path fill="none" stroke="#63b8ff" d="M85,-619.68C85,-611.38 85,-602.46 85,-594.04"/>
<polygon fill="none" stroke="#63b8ff" points="81.5,-619.77 85,-629.77 88.5,-619.77 81.5,-619.77"/>
</a>
</g>
</g>
</g>
</svg>
