<?xml version="1.0" encoding="UTF-8" standalone="no"?>
<!DOCTYPE svg PUBLIC "-//W3C//DTD SVG 1.1//EN"
 "http://www.w3.org/Graphics/SVG/1.1/DTD/svg11.dtd">
<!-- Generated by graphviz version 2.43.0 (0)
 -->
<!-- Title: Alaris.Infrastructure.Protocol.Buffers.PooledBuffer Pages: 1 -->
<svg width="146pt" height="243pt"
 viewBox="0.00 0.00 146.00 243.00" xmlns="http://www.w3.org/2000/svg" xmlns:xlink="http://www.w3.org/1999/xlink">
<g id="graph0" class="graph" transform="scale(1 1) rotate(0) translate(4 239)">
<title>Alaris.Infrastructure.Protocol.Buffers.PooledBuffer</title>
<!-- Node1 -->
<g id="Node000001" class="node">
<title>Node1</title>
<g id="a_Node000001"><a xlink:title="Disposable wrapper for a pooled byte array buffer.">
<polygon fill="#999999" stroke="transparent" points="138,-150 0,-150 0,0 138,0 138,-150"/>
<text text-anchor="start" x="5" y="-138" font-family="Helvetica,sans-Serif" font-size="10.00">Alaris.Infrastructure.Protocol.</text>
<text text-anchor="start" x="23.5" y="-127" font-family="Helvetica,sans-Serif" font-size="10.00">Buffers.PooledBuffer</text>
<text text-anchor="start" x="14" y="-112" font-family="Helvetica,sans-Serif" font-size="10.00">+</text>
<text text-anchor="start" x="35" y="-112" font-family="Helvetica,sans-Serif" font-size="10.00">Array</text>
<text text-anchor="start" x="14" y="-97" font-family="Helvetica,sans-Serif" font-size="10.00">+</text>
<text text-anchor="start" x="35" y="-97" font-family="Helvetica,sans-Serif" font-size="10.00">Span</text>
<text text-anchor="start" x="14" y="-82" font-family="Helvetica,sans-Serif" font-size="10.00">+</text>
<text text-anchor="start" x="35" y="-82" font-family="Helvetica,sans-Serif" font-size="10.00">Memory</text>
<text text-anchor="start" x="14" y="-67" font-family="Helvetica,sans-Serif" font-size="10.00">+</text>
<text text-anchor="start" x="35" y="-67" font-family="Helvetica,sans-Serif" font-size="10.00">Length</text>
<text text-anchor="start" x="15.5" y="-52" font-family="Helvetica,sans-Serif" font-size="10.00">&#45;</text>
<text text-anchor="start" x="35" y="-52" font-family="Helvetica,sans-Serif" font-size="10.00">_buffer</text>
<text text-anchor="start" x="15.5" y="-37" font-family="Helvetica,sans-Serif" font-size="10.00">&#45;</text>
<text text-anchor="start" x="35" y="-37" font-family="Helvetica,sans-Serif" font-size="10.00">_requestedLength</text>
<text text-anchor="start" x="14" y="-22" font-family="Helvetica,sans-Serif" font-size="10.00">+</text>
<text text-anchor="start" x="35" y="-22" font-family="Helvetica,sans-Serif" font-size="10.00">Dispose()</text>
<text text-anchor="start" x="14" y="-7" font-family="Helvetica,sans-Serif" font-size="10.00">~</text>
<text text-anchor="start" x="35" y="-7" font-family="Helvetica,sans-Serif" font-size="10.00">PooledBuffer()</text>
<polygon fill="#666666" stroke="#666666" points="0,-122 0,-122 138,-122 138,-122 0,-122"/>
<polygon fill="#666666" stroke="#666666" points="0,-32 0,-32 33,-32 33,-32 0,-32"/>
<polygon fill="#666666" stroke="#666666" points="33,-32 33,-32 138,-32 138,-32 33,-32"/>
<polygon fill="none" stroke="#666666" points="0,0 0,-150 138,-150 138,0 0,0"/>
</a>
</g>
</g>
<!-- Node2 -->
<g id="Node000002" class="node">
<title>Node2</title>
<g id="a_Node000002"><a xlink:title=" ">
<polygon fill="white" stroke="transparent" points="100,-235 38,-235 38,-186 100,-186 100,-235"/>
<text text-anchor="start" x="43" y="-222.5" font-family="Helvetica,sans-Serif" font-size="10.00">IDisposable</text>
<text text-anchor="start" x="67" y="-207.5" font-family="Helvetica,sans-Serif" font-size="10.00"> </text>
<text text-anchor="start" x="67" y="-192.5" font-family="Helvetica,sans-Serif" font-size="10.00"> </text>
<polygon fill="#666666" stroke="#666666" points="38,-217.5 38,-217.5 100,-217.5 100,-217.5 38,-217.5"/>
<polygon fill="#666666" stroke="#666666" points="38,-202.5 38,-202.5 100,-202.5 100,-202.5 38,-202.5"/>
<polygon fill="none" stroke="#666666" points="38,-186 38,-235 100,-235 100,-186 38,-186"/>
</a>
</g>
</g>
<!-- Node2&#45;&gt;Node1 -->
<g id="edge1_Node000001_Node000002" class="edge">
<title>Node2&#45;&gt;Node1</title>
<g id="a_edge1_Node000001_Node000002"><a xlink:title=" ">
<path fill="none" stroke="#63b8ff" d="M69,-175.69C69,-167.75 69,-158.98 69,-150.03"/>
<polygon fill="none" stroke="#63b8ff" points="65.5,-175.94 69,-185.94 72.5,-175.94 65.5,-175.94"/>
</a>
</g>
</g>
</g>
</svg>
