<?xml version="1.0" encoding="UTF-8" standalone="no"?>
<!DOCTYPE svg PUBLIC "-//W3C//DTD SVG 1.1//EN"
 "http://www.w3.org/Graphics/SVG/1.1/DTD/svg11.dtd">
<!-- Generated by graphviz version 2.43.0 (0)
 -->
<!-- Title: Alaris.Infrastructure.Data.Bridge.AlarisDataBridge Pages: 1 -->
<!--zoomable 493 -->

<svg id="main" version="1.1" xmlns="http://www.w3.org/2000/svg" xmlns:xlink="http://www.w3.org/1999/xlink" xml:space="preserve" onload="init(evt)">
<style type="text/css"><![CDATA[
.node, .edge {opacity: 0.7;}
.node.selected, .edge.selected {opacity: 1;}
.edge:hover path { stroke: red; }
.edge:hover polygon { stroke: red; fill: red; }
]]></style>

<defs>
  <circle id="rim" cx="0" cy="0" r="7"/>
  <circle id="rim2" cx="0" cy="0" r="3.5"/>
  <g id="zoomPlus">
    <use xlink:href="#rim" fill="#404040"><set attributeName="fill" to="#808080" begin="zoomplus.mouseover" end="zoomplus.mouseout"/></use>
    <path d="M-4,0h8M0,-4v8" fill="none" stroke="white" stroke-width="1.5" pointer-events="none"/>
  </g>
  <g id="zoomMin">
    <use xlink:href="#rim" fill="#404040"><set attributeName="fill" to="#808080" begin="zoomminus.mouseover" end="zoomminus.mouseout"/></use>
    <path d="M-4,0h8" fill="none" stroke="white" stroke-width="1.5" pointer-events="none"/>
  </g>
  <g id="arrowUp" transform="translate(30 24)">
    <use xlink:href="#rim"/>
    <path pointer-events="none" fill="none" stroke="white" stroke-width="1.5" d="M0,-3.0v7 M-2.5,-0.5L0,-3.0L2.5,-0.5"/>
  </g>
  <g id="arrowRight" transform="rotate(90) translate(36 -43)">
    <use xlink:href="#rim"/>
    <path pointer-events="none" fill="none" stroke="white" stroke-width="1.5" d="M0,-3.0v7 M-2.5,-0.5L0,-3.0L2.5,-0.5"/>
  </g>
  <g id="arrowDown" transform="rotate(180) translate(-30 -48)">
    <use xlink:href="#rim"/>
    <path pointer-events="none" fill="none" stroke="white" stroke-width="1.5" d="M0,-3.0v7 M-2.5,-0.5L0,-3.0L2.5,-0.5"/>
  </g>
  <g id="arrowLeft" transform="rotate(270) translate(-36 17)">
    <use xlink:href="#rim"/>
    <path pointer-events="none" fill="none" stroke="white" stroke-width="1.5" d="M0,-3.0v7 M-2.5,-0.5L0,-3.0L2.5,-0.5"/>
  </g>
  <g id="resetDef">
    <use xlink:href="#rim2" fill="#404040"><set attributeName="fill" to="#808080" begin="reset.mouseover" end="reset.mouseout"/></use>
  </g>
</defs>
<script type="application/ecmascript">
var viewWidth = 515;
var viewHeight = 493;
var sectionId = 'dynsection-0';
</script>
<script type="application/ecmascript" xlink:href="../../svg.min.js"/>
<svg id="graph" class="graph">
<g id="viewport">
<title>Alaris.Infrastructure.Data.Bridge.AlarisDataBridge</title>
<!-- Node1 -->
<g id="Node000001" class="node">
<title>Node1</title>
<g id="a_Node000001"><a xlink:title="Bridges Alaris data providers to Lean engine&#39;s data infrastructure. Component ID: DTbr001A.">
<polygon fill="#999999" stroke="transparent" points="356.5,-318 180.5,-318 180.5,0 356.5,0 356.5,-318"/>
<text text-anchor="start" x="212" y="-306" font-family="Helvetica,sans-Serif" font-size="10.00">Alaris.Infrastructure.Data.</text>
<text text-anchor="start" x="216" y="-295" font-family="Helvetica,sans-Serif" font-size="10.00">Bridge.AlarisDataBridge</text>
<text text-anchor="start" x="186" y="-280" font-family="Helvetica,sans-Serif" font-size="10.00">&#45;</text>
<text text-anchor="start" x="195.5" y="-280" font-family="Helvetica,sans-Serif" font-size="10.00">_validators</text>
<text text-anchor="start" x="186" y="-265" font-family="Helvetica,sans-Serif" font-size="10.00">&#45;</text>
<text text-anchor="start" x="195.5" y="-265" font-family="Helvetica,sans-Serif" font-size="10.00">_logger</text>
<text text-anchor="start" x="186" y="-250" font-family="Helvetica,sans-Serif" font-size="10.00">&#45;</text>
<text text-anchor="start" x="195.5" y="-250" font-family="Helvetica,sans-Serif" font-size="10.00">_sessionDataPath</text>
<text text-anchor="start" x="186" y="-235" font-family="Helvetica,sans-Serif" font-size="10.00">&#45;</text>
<text text-anchor="start" x="195.5" y="-235" font-family="Helvetica,sans-Serif" font-size="10.00">JsonOptions</text>
<text text-anchor="start" x="184.5" y="-220" font-family="Helvetica,sans-Serif" font-size="10.00">+</text>
<text text-anchor="start" x="195.5" y="-220" font-family="Helvetica,sans-Serif" font-size="10.00">AlarisDataBridge()</text>
<text text-anchor="start" x="184.5" y="-205" font-family="Helvetica,sans-Serif" font-size="10.00">+</text>
<text text-anchor="start" x="195.5" y="-205" font-family="Helvetica,sans-Serif" font-size="10.00">SetSessionDataPath()</text>
<text text-anchor="start" x="184.5" y="-190" font-family="Helvetica,sans-Serif" font-size="10.00">+</text>
<text text-anchor="start" x="195.5" y="-190" font-family="Helvetica,sans-Serif" font-size="10.00">GetMarketDataSnapshotAsync()</text>
<text text-anchor="start" x="184.5" y="-175" font-family="Helvetica,sans-Serif" font-size="10.00">+</text>
<text text-anchor="start" x="195.5" y="-175" font-family="Helvetica,sans-Serif" font-size="10.00">GetOptionChainSnapshotAsync()</text>
<text text-anchor="start" x="184.5" y="-160" font-family="Helvetica,sans-Serif" font-size="10.00">+</text>
<text text-anchor="start" x="195.5" y="-160" font-family="Helvetica,sans-Serif" font-size="10.00">SaveOptionChainCacheAsync()</text>
<text text-anchor="start" x="184.5" y="-145" font-family="Helvetica,sans-Serif" font-size="10.00">+</text>
<text text-anchor="start" x="195.5" y="-145" font-family="Helvetica,sans-Serif" font-size="10.00">GetSymbolsWithUpcomingEarnings</text>
<text text-anchor="start" x="195.5" y="-134" font-family="Helvetica,sans-Serif" font-size="10.00">Async()</text>
<text text-anchor="start" x="184.5" y="-119" font-family="Helvetica,sans-Serif" font-size="10.00">+</text>
<text text-anchor="start" x="195.5" y="-119" font-family="Helvetica,sans-Serif" font-size="10.00">MeetsBasicCriteriaAsync()</text>
<text text-anchor="start" x="186" y="-104" font-family="Helvetica,sans-Serif" font-size="10.00">&#45;</text>
<text text-anchor="start" x="195.5" y="-104" font-family="Helvetica,sans-Serif" font-size="10.00">GetOptionChainWithCacheFallback</text>
<text text-anchor="start" x="195.5" y="-93" font-family="Helvetica,sans-Serif" font-size="10.00">Async()</text>
<text text-anchor="start" x="186" y="-78" font-family="Helvetica,sans-Serif" font-size="10.00">&#45;</text>
<text text-anchor="start" x="195.5" y="-78" font-family="Helvetica,sans-Serif" font-size="10.00">FindNearestCacheAsync()</text>
<text text-anchor="start" x="186" y="-63" font-family="Helvetica,sans-Serif" font-size="10.00">&#45;</text>
<text text-anchor="start" x="195.5" y="-63" font-family="Helvetica,sans-Serif" font-size="10.00">LoadBinaryCacheAsync()</text>
<text text-anchor="start" x="186" y="-48" font-family="Helvetica,sans-Serif" font-size="10.00">&#45;</text>
<text text-anchor="start" x="195.5" y="-48" font-family="Helvetica,sans-Serif" font-size="10.00">GetHistoricalBarsForRvCalculation</text>
<text text-anchor="start" x="195.5" y="-37" font-family="Helvetica,sans-Serif" font-size="10.00">Async()</text>
<text text-anchor="start" x="186" y="-22" font-family="Helvetica,sans-Serif" font-size="10.00">&#45;</text>
<text text-anchor="start" x="195.5" y="-22" font-family="Helvetica,sans-Serif" font-size="10.00">GetEarningsDataAsync()</text>
<text text-anchor="start" x="186" y="-7" font-family="Helvetica,sans-Serif" font-size="10.00">&#45;</text>
<text text-anchor="start" x="195.5" y="-7" font-family="Helvetica,sans-Serif" font-size="10.00">RunDataQualityValidation()</text>
<polygon fill="#666666" stroke="#666666" points="180.5,-290 180.5,-290 356.5,-290 356.5,-290 180.5,-290"/>
<polygon fill="#666666" stroke="#666666" points="180.5,-230 180.5,-230 193.5,-230 193.5,-230 180.5,-230"/>
<polygon fill="#666666" stroke="#666666" points="193.5,-230 193.5,-230 356.5,-230 356.5,-230 193.5,-230"/>
<polygon fill="none" stroke="#666666" points="180.5,0 180.5,-318 356.5,-318 356.5,0 180.5,0"/>
</a>
</g>
</g>
<!-- Node2 -->
<g id="Node000002" class="node">
<title>Node2</title>
<g id="a_Node000002"><a xlink:href="../../d4/d02/interfaceAlaris_1_1Infrastructure_1_1Data_1_1Provider_1_1DTpr003A.html" target="_top" xlink:title="Interface for market data providers (Polygon, IBKR, etc.).">
<polygon fill="white" stroke="transparent" points="167,-477.5 0,-477.5 0,-372.5 167,-372.5 167,-477.5"/>
<text text-anchor="start" x="27.5" y="-465" font-family="Helvetica,sans-Serif" font-size="10.00">Alaris.Infrastructure.Data.</text>
<text text-anchor="start" x="42.5" y="-454" font-family="Helvetica,sans-Serif" font-size="10.00">Provider.DTpr003A</text>
<text text-anchor="start" x="82" y="-439" font-family="Helvetica,sans-Serif" font-size="10.00"> </text>
<text text-anchor="start" x="4.5" y="-424" font-family="Helvetica,sans-Serif" font-size="10.00">+</text>
<text text-anchor="start" x="15.5" y="-424" font-family="Helvetica,sans-Serif" font-size="10.00">GetHistoricalBarsAsync()</text>
<text text-anchor="start" x="4.5" y="-409" font-family="Helvetica,sans-Serif" font-size="10.00">+</text>
<text text-anchor="start" x="15.5" y="-409" font-family="Helvetica,sans-Serif" font-size="10.00">GetOptionChainAsync()</text>
<text text-anchor="start" x="4.5" y="-394" font-family="Helvetica,sans-Serif" font-size="10.00">+</text>
<text text-anchor="start" x="15.5" y="-394" font-family="Helvetica,sans-Serif" font-size="10.00">GetSpotPriceAsync()</text>
<text text-anchor="start" x="4.5" y="-379" font-family="Helvetica,sans-Serif" font-size="10.00">+</text>
<text text-anchor="start" x="15.5" y="-379" font-family="Helvetica,sans-Serif" font-size="10.00">GetAverageVolume30DayAsync()</text>
<polygon fill="#666666" stroke="#666666" points="0.5,-449 0.5,-449 167.5,-449 167.5,-449 0.5,-449"/>
<polygon fill="#666666" stroke="#666666" points="0.5,-434 0.5,-434 167.5,-434 167.5,-434 0.5,-434"/>
<polygon fill="none" stroke="#666666" points="0,-372.5 0,-477.5 167,-477.5 167,-372.5 0,-372.5"/>
</a>
</g>
</g>
<!-- Node2&#45;&gt;Node1 -->
<g id="edge1_Node000001_Node000002" class="edge">
<title>Node2&#45;&gt;Node1</title>
<g id="a_edge1_Node000001_Node000002"><a xlink:title=" ">
<path fill="none" stroke="#63b8ff" d="M119.61,-372.47C135.16,-350.29 154.14,-323.2 173.28,-295.89"/>
<polygon fill="none" stroke="#63b8ff" points="173.44,-295.65 173.61,-288.44 180.33,-285.82 180.16,-293.03 173.44,-295.65"/>
</a>
</g>
<text text-anchor="middle" x="193" y="-339" font-family="Helvetica,sans-Serif" font-size="10.00" fill="grey"> &#45;_marketDataProvider</text>
</g>
<!-- Node3 -->
<g id="Node000003" class="node">
<title>Node3</title>
<g id="a_Node000003"><a xlink:href="../../da/d01/interfaceAlaris_1_1Infrastructure_1_1Data_1_1Provider_1_1DTpr004A.html" target="_top" xlink:title="Interface for earnings calendar providers.">
<polygon fill="white" stroke="transparent" points="351.5,-485 185.5,-485 185.5,-365 351.5,-365 351.5,-485"/>
<text text-anchor="start" x="212" y="-473" font-family="Helvetica,sans-Serif" font-size="10.00">Alaris.Infrastructure.Data.</text>
<text text-anchor="start" x="227" y="-462" font-family="Helvetica,sans-Serif" font-size="10.00">Provider.DTpr004A</text>
<text text-anchor="start" x="266.5" y="-447" font-family="Helvetica,sans-Serif" font-size="10.00"> </text>
<text text-anchor="start" x="189.5" y="-432" font-family="Helvetica,sans-Serif" font-size="10.00">+</text>
<text text-anchor="start" x="200.5" y="-432" font-family="Helvetica,sans-Serif" font-size="10.00">GetUpcomingEarningsAsync()</text>
<text text-anchor="start" x="189.5" y="-417" font-family="Helvetica,sans-Serif" font-size="10.00">+</text>
<text text-anchor="start" x="200.5" y="-417" font-family="Helvetica,sans-Serif" font-size="10.00">GetHistoricalEarningsAsync()</text>
<text text-anchor="start" x="189.5" y="-402" font-family="Helvetica,sans-Serif" font-size="10.00">+</text>
<text text-anchor="start" x="200.5" y="-402" font-family="Helvetica,sans-Serif" font-size="10.00">GetHistoricalEarningsAsync()</text>
<text text-anchor="start" x="189.5" y="-387" font-family="Helvetica,sans-Serif" font-size="10.00">+</text>
<text text-anchor="start" x="200.5" y="-387" font-family="Helvetica,sans-Serif" font-size="10.00">GetSymbolsWithEarningsAsync()</text>
<text text-anchor="start" x="189.5" y="-372" font-family="Helvetica,sans-Serif" font-size="10.00">+</text>
<text text-anchor="start" x="200.5" y="-372" font-family="Helvetica,sans-Serif" font-size="10.00">EnableCacheOnlyMode()</text>
<polygon fill="#666666" stroke="#666666" points="185.5,-457 185.5,-457 351.5,-457 351.5,-457 185.5,-457"/>
<polygon fill="#666666" stroke="#666666" points="185.5,-442 185.5,-442 351.5,-442 351.5,-442 185.5,-442"/>
<polygon fill="none" stroke="#666666" points="185.5,-365 185.5,-485 351.5,-485 351.5,-365 185.5,-365"/>
</a>
</g>
</g>
<!-- Node3&#45;&gt;Node1 -->
<g id="edge2_Node000001_Node000003" class="edge">
<title>Node3&#45;&gt;Node1</title>
<g id="a_edge2_Node000001_Node000003"><a xlink:title=" ">
<path fill="none" stroke="#63b8ff" d="M268.5,-364.75C268.5,-354.04 268.5,-342.39 268.5,-330.27"/>
<polygon fill="none" stroke="#63b8ff" points="268.5,-330.01 264.5,-324.01 268.5,-318.01 272.5,-324.01 268.5,-330.01"/>
</a>
</g>
<text text-anchor="middle" x="311" y="-339" font-family="Helvetica,sans-Serif" font-size="10.00" fill="grey"> &#45;_earningsProvider</text>
</g>
<!-- Node4 -->
<g id="Node000004" class="node">
<title>Node4</title>
<g id="a_Node000004"><a xlink:href="../../d0/d01/interfaceAlaris_1_1Infrastructure_1_1Data_1_1Provider_1_1DTpr005A.html" target="_top" xlink:title="Interface for risk&#45;free rate providers.">
<polygon fill="white" stroke="transparent" points="507,-462.5 370,-462.5 370,-387.5 507,-387.5 507,-462.5"/>
<text text-anchor="start" x="382.5" y="-450" font-family="Helvetica,sans-Serif" font-size="10.00">Alaris.Infrastructure.Data.</text>
<text text-anchor="start" x="397.5" y="-439" font-family="Helvetica,sans-Serif" font-size="10.00">Provider.DTpr005A</text>
<text text-anchor="start" x="437" y="-424" font-family="Helvetica,sans-Serif" font-size="10.00"> </text>
<text text-anchor="start" x="374.5" y="-409" font-family="Helvetica,sans-Serif" font-size="10.00">+</text>
<text text-anchor="start" x="385.5" y="-409" font-family="Helvetica,sans-Serif" font-size="10.00">GetCurrentRateAsync()</text>
<text text-anchor="start" x="374.5" y="-394" font-family="Helvetica,sans-Serif" font-size="10.00">+</text>
<text text-anchor="start" x="385.5" y="-394" font-family="Helvetica,sans-Serif" font-size="10.00">GetHistoricalRatesAsync()</text>
<polygon fill="#666666" stroke="#666666" points="370.5,-434 370.5,-434 507.5,-434 507.5,-434 370.5,-434"/>
<polygon fill="#666666" stroke="#666666" points="370.5,-419 370.5,-419 507.5,-419 507.5,-419 370.5,-419"/>
<polygon fill="none" stroke="#666666" points="370,-387.5 370,-462.5 507,-462.5 507,-387.5 370,-387.5"/>
</a>
</g>
</g>
<!-- Node4&#45;&gt;Node1 -->
<g id="edge3_Node000001_Node000004" class="edge">
<title>Node4&#45;&gt;Node1</title>
<g id="a_edge3_Node000001_Node000004"><a xlink:title=" ">
<path fill="none" stroke="#63b8ff" d="M414.86,-387.29C400.97,-365.72 382.39,-336.87 363.15,-306.98"/>
<polygon fill="none" stroke="#63b8ff" points="363.1,-306.9 356.49,-304.03 356.6,-296.81 363.21,-299.69 363.1,-306.9"/>
</a>
</g>
<text text-anchor="middle" x="439.5" y="-339" font-family="Helvetica,sans-Serif" font-size="10.00" fill="grey"> &#45;_riskFreeRateProvider</text>
</g>
</g>
</svg>

<g id="navigator" transform="translate(0 0)" fill="#404254">
  <rect fill="#f2f5e9" fill-opacity="0.5" stroke="#606060" stroke-width=".5" x="0" y="0" width="60" height="60"/>
  <use id="zoomplus" xlink:href="#zoomPlus" x="17" y="9" onmousedown="handleZoom(evt,'in')"/>
  <use id="zoomminus" xlink:href="#zoomMin" x="42" y="9" onmousedown="handleZoom(evt,'out')"/>
  <use id="reset" xlink:href="#resetDef" x="30" y="36" onmousedown="handleReset()"/>
   <use id="arrowup" xlink:href="#arrowUp" x="0" y="0" onmousedown="handlePan(0,-1)"/>
  <use id="arrowright" xlink:href="#arrowRight" x="0" y="0" onmousedown="handlePan(1,0)"/>
  <use id="arrowdown" xlink:href="#arrowDown" x="0" y="0" onmousedown="handlePan(0,1)"/>
  <use id="arrowleft" xlink:href="#arrowLeft" x="0" y="0" onmousedown="handlePan(-1,0)"/>
</g>
<svg viewBox="0 0 15 15" width="100%" height="30px" preserveAspectRatio="xMaxYMin meet">
 <g id="arrow_out" transform="scale(0.3 0.3)">
  <a xlink:href="classAlaris_1_1Infrastructure_1_1Data_1_1Bridge_1_1AlarisDataBridge__coll__graph_org.svg" target="_base">
   <rect id="button" ry="5" rx="5" y="6" x="6" height="38" width="38"
        fill="#f2f5e9" fill-opacity="0.5" stroke="#606060" stroke-width="1.0"/>
   <path id="arrow"
     d="M 11.500037,31.436501 C 11.940474,20.09759 22.043105,11.32322 32.158766,21.979434 L 37.068811,17.246167 C 37.068811,17.246167 37.088388,32 37.088388,32 L 22.160133,31.978069 C 22.160133,31.978069 26.997745,27.140456 26.997745,27.140456 C 18.528582,18.264221 13.291696,25.230495 11.500037,31.436501 z"
     style="fill:#404040;"/>
  </a>
 </g>
</svg>

<style type='text/css'>
<![CDATA[
[data-mouse-over-selected='false'] { opacity: 0.7; }
[data-mouse-over-selected='true']  { opacity: 1.0; }
]]>
</style>
<script type="application/ecmascript"><![CDATA[
document.addEventListener('DOMContentLoaded', (event) => {
  highlightEdges();
  highlightAdjacentNodes();
});
]]></script>
</svg>
