<?xml version="1.0" encoding="UTF-8" standalone="no"?>
<!DOCTYPE svg PUBLIC "-//W3C//DTD SVG 1.1//EN"
 "http://www.w3.org/Graphics/SVG/1.1/DTD/svg11.dtd">
<!-- Generated by graphviz version 2.43.0 (0)
 -->
<!-- Title: Alaris.Strategy.Core.STIV006A Pages: 1 -->
<svg width="169pt" height="192pt"
 viewBox="0.00 0.00 169.00 192.00" xmlns="http://www.w3.org/2000/svg" xmlns:xlink="http://www.w3.org/1999/xlink">
<g id="graph0" class="graph" transform="scale(1 1) rotate(0) translate(4 188)">
<title>Alaris.Strategy.Core.STIV006A</title>
<!-- Node1 -->
<g id="Node000001" class="node">
<title>Node1</title>
<g id="a_Node000001"><a xlink:title="Interpolates implied volatility across strikes using sticky&#45;delta convention.">
<polygon fill="#999999" stroke="transparent" points="161,-184 0,-184 0,0 161,0 161,-184"/>
<text text-anchor="start" x="13" y="-172" font-family="Helvetica,sans-Serif" font-size="10.00">Alaris.Strategy.Core.STIV006A</text>
<text text-anchor="start" x="6" y="-157" font-family="Helvetica,sans-Serif" font-size="10.00">&#45;</text>
<text text-anchor="start" x="15.5" y="-157" font-family="Helvetica,sans-Serif" font-size="10.00">_logger</text>
<text text-anchor="start" x="6" y="-142" font-family="Helvetica,sans-Serif" font-size="10.00">&#45;</text>
<text text-anchor="start" x="15.5" y="-142" font-family="Helvetica,sans-Serif" font-size="10.00">DefaultSkewCoefficient</text>
<text text-anchor="start" x="6" y="-127" font-family="Helvetica,sans-Serif" font-size="10.00">&#45;</text>
<text text-anchor="start" x="15.5" y="-127" font-family="Helvetica,sans-Serif" font-size="10.00">MinTimeToExpiry</text>
<text text-anchor="start" x="6" y="-112" font-family="Helvetica,sans-Serif" font-size="10.00">&#45;</text>
<text text-anchor="start" x="15.5" y="-112" font-family="Helvetica,sans-Serif" font-size="10.00">LogCalibration</text>
<text text-anchor="start" x="4.5" y="-97" font-family="Helvetica,sans-Serif" font-size="10.00">+</text>
<text text-anchor="start" x="15.5" y="-97" font-family="Helvetica,sans-Serif" font-size="10.00">STIV006A()</text>
<text text-anchor="start" x="4.5" y="-82" font-family="Helvetica,sans-Serif" font-size="10.00">+</text>
<text text-anchor="start" x="15.5" y="-82" font-family="Helvetica,sans-Serif" font-size="10.00">CalibrateFromChain()</text>
<text text-anchor="start" x="4.5" y="-67" font-family="Helvetica,sans-Serif" font-size="10.00">+</text>
<text text-anchor="start" x="15.5" y="-67" font-family="Helvetica,sans-Serif" font-size="10.00">InterpolateIV()</text>
<text text-anchor="start" x="4.5" y="-52" font-family="Helvetica,sans-Serif" font-size="10.00">+</text>
<text text-anchor="start" x="15.5" y="-52" font-family="Helvetica,sans-Serif" font-size="10.00">CalculateStickyDeltaIVChange()</text>
<text text-anchor="start" x="4.5" y="-37" font-family="Helvetica,sans-Serif" font-size="10.00">+</text>
<text text-anchor="start" x="15.5" y="-37" font-family="Helvetica,sans-Serif" font-size="10.00">EvaluateSkewExposure()</text>
<text text-anchor="start" x="6" y="-22" font-family="Helvetica,sans-Serif" font-size="10.00">&#45;</text>
<text text-anchor="start" x="15.5" y="-22" font-family="Helvetica,sans-Serif" font-size="10.00">SafeLog()</text>
<text text-anchor="start" x="6" y="-7" font-family="Helvetica,sans-Serif" font-size="10.00">&#45;</text>
<text text-anchor="start" x="15.5" y="-7" font-family="Helvetica,sans-Serif" font-size="10.00">CalculateSkewFromChain()</text>
<polygon fill="#666666" stroke="#666666" points="0.5,-167 0.5,-167 161.5,-167 161.5,-167 0.5,-167"/>
<polygon fill="#666666" stroke="#666666" points="0.5,-107 0.5,-107 13.5,-107 13.5,-107 0.5,-107"/>
<polygon fill="#666666" stroke="#666666" points="13.5,-107 13.5,-107 161.5,-107 161.5,-107 13.5,-107"/>
<polygon fill="none" stroke="#666666" points="0,0 0,-184 161,-184 161,0 0,0"/>
</a>
</g>
</g>
</g>
</svg>
