<?xml version="1.0" encoding="UTF-8" standalone="no"?>
<!DOCTYPE svg PUBLIC "-//W3C//DTD SVG 1.1//EN"
 "http://www.w3.org/Graphics/SVG/1.1/DTD/svg11.dtd">
<!-- Generated by graphviz version 2.43.0 (0)
 -->
<!-- Title: Alaris.Infrastructure.Data.Bridge.AlarisDataBridge Pages: 1 -->
<svg width="515pt" height="493pt"
 viewBox="0.00 0.00 515.00 493.00" xmlns="http://www.w3.org/2000/svg" xmlns:xlink="http://www.w3.org/1999/xlink">
<g id="graph0" class="graph" transform="scale(1 1) rotate(0) translate(4 489)">
<title>Alaris.Infrastructure.Data.Bridge.AlarisDataBridge</title>
<!-- Node1 -->
<g id="Node000001" class="node">
<title>Node1</title>
<g id="a_Node000001"><a xlink:title="Bridges Alaris data providers to Lean engine&#39;s data infrastructure. Component ID: DTbr001A.">
<polygon fill="#999999" stroke="transparent" points="356.5,-318 180.5,-318 180.5,0 356.5,0 356.5,-318"/>
<text text-anchor="start" x="212" y="-306" font-family="Helvetica,sans-Serif" font-size="10.00">Alaris.Infrastructure.Data.</text>
<text text-anchor="start" x="216" y="-295" font-family="Helvetica,sans-Serif" font-size="10.00">Bridge.AlarisDataBridge</text>
<text text-anchor="start" x="186" y="-280" font-family="Helvetica,sans-Serif" font-size="10.00">&#45;</text>
<text text-anchor="start" x="195.5" y="-280" font-family="Helvetica,sans-Serif" font-size="10.00">_validators</text>
<text text-anchor="start" x="186" y="-265" font-family="Helvetica,sans-Serif" font-size="10.00">&#45;</text>
<text text-anchor="start" x="195.5" y="-265" font-family="Helvetica,sans-Serif" font-size="10.00">_logger</text>
<text text-anchor="start" x="186" y="-250" font-family="Helvetica,sans-Serif" font-size="10.00">&#45;</text>
<text text-anchor="start" x="195.5" y="-250" font-family="Helvetica,sans-Serif" font-size="10.00">_sessionDataPath</text>
<text text-anchor="start" x="186" y="-235" font-family="Helvetica,sans-Serif" font-size="10.00">&#45;</text>
<text text-anchor="start" x="195.5" y="-235" font-family="Helvetica,sans-Serif" font-size="10.00">JsonOptions</text>
<text text-anchor="start" x="184.5" y="-220" font-family="Helvetica,sans-Serif" font-size="10.00">+</text>
<text text-anchor="start" x="195.5" y="-220" font-family="Helvetica,sans-Serif" font-size="10.00">AlarisDataBridge()</text>
<text text-anchor="start" x="184.5" y="-205" font-family="Helvetica,sans-Serif" font-size="10.00">+</text>
<text text-anchor="start" x="195.5" y="-205" font-family="Helvetica,sans-Serif" font-size="10.00">SetSessionDataPath()</text>
<text text-anchor="start" x="184.5" y="-190" font-family="Helvetica,sans-Serif" font-size="10.00">+</text>
<text text-anchor="start" x="195.5" y="-190" font-family="Helvetica,sans-Serif" font-size="10.00">GetMarketDataSnapshotAsync()</text>
<text text-anchor="start" x="184.5" y="-175" font-family="Helvetica,sans-Serif" font-size="10.00">+</text>
<text text-anchor="start" x="195.5" y="-175" font-family="Helvetica,sans-Serif" font-size="10.00">GetOptionChainSnapshotAsync()</text>
<text text-anchor="start" x="184.5" y="-160" font-family="Helvetica,sans-Serif" font-size="10.00">+</text>
<text text-anchor="start" x="195.5" y="-160" font-family="Helvetica,sans-Serif" font-size="10.00">SaveOptionChainCacheAsync()</text>
<text text-anchor="start" x="184.5" y="-145" font-family="Helvetica,sans-Serif" font-size="10.00">+</text>
<text text-anchor="start" x="195.5" y="-145" font-family="Helvetica,sans-Serif" font-size="10.00">GetSymbolsWithUpcomingEarnings</text>
<text text-anchor="start" x="195.5" y="-134" font-family="Helvetica,sans-Serif" font-size="10.00">Async()</text>
<text text-anchor="start" x="184.5" y="-119" font-family="Helvetica,sans-Serif" font-size="10.00">+</text>
<text text-anchor="start" x="195.5" y="-119" font-family="Helvetica,sans-Serif" font-size="10.00">MeetsBasicCriteriaAsync()</text>
<text text-anchor="start" x="186" y="-104" font-family="Helvetica,sans-Serif" font-size="10.00">&#45;</text>
<text text-anchor="start" x="195.5" y="-104" font-family="Helvetica,sans-Serif" font-size="10.00">GetOptionChainWithCacheFallback</text>
<text text-anchor="start" x="195.5" y="-93" font-family="Helvetica,sans-Serif" font-size="10.00">Async()</text>
<text text-anchor="start" x="186" y="-78" font-family="Helvetica,sans-Serif" font-size="10.00">&#45;</text>
<text text-anchor="start" x="195.5" y="-78" font-family="Helvetica,sans-Serif" font-size="10.00">FindNearestCacheAsync()</text>
<text text-anchor="start" x="186" y="-63" font-family="Helvetica,sans-Serif" font-size="10.00">&#45;</text>
<text text-anchor="start" x="195.5" y="-63" font-family="Helvetica,sans-Serif" font-size="10.00">LoadBinaryCacheAsync()</text>
<text text-anchor="start" x="186" y="-48" font-family="Helvetica,sans-Serif" font-size="10.00">&#45;</text>
<text text-anchor="start" x="195.5" y="-48" font-family="Helvetica,sans-Serif" font-size="10.00">GetHistoricalBarsForRvCalculation</text>
<text text-anchor="start" x="195.5" y="-37" font-family="Helvetica,sans-Serif" font-size="10.00">Async()</text>
<text text-anchor="start" x="186" y="-22" font-family="Helvetica,sans-Serif" font-size="10.00">&#45;</text>
<text text-anchor="start" x="195.5" y="-22" font-family="Helvetica,sans-Serif" font-size="10.00">GetEarningsDataAsync()</text>
<text text-anchor="start" x="186" y="-7" font-family="Helvetica,sans-Serif" font-size="10.00">&#45;</text>
<text text-anchor="start" x="195.5" y="-7" font-family="Helvetica,sans-Serif" font-size="10.00">RunDataQualityValidation()</text>
<polygon fill="#666666" stroke="#666666" points="180.5,-290 180.5,-290 356.5,-290 356.5,-290 180.5,-290"/>
<polygon fill="#666666" stroke="#666666" points="180.5,-230 180.5,-230 193.5,-230 193.5,-230 180.5,-230"/>
<polygon fill="#666666" stroke="#666666" points="193.5,-230 193.5,-230 356.5,-230 356.5,-230 193.5,-230"/>
<polygon fill="none" stroke="#666666" points="180.5,0 180.5,-318 356.5,-318 356.5,0 180.5,0"/>
</a>
</g>
</g>
<!-- Node2 -->
<g id="Node000002" class="node">
<title>Node2</title>
<g id="a_Node000002"><a xlink:href="../../d4/d02/interfaceAlaris_1_1Infrastructure_1_1Data_1_1Provider_1_1DTpr003A.html" target="_top" xlink:title="Interface for market data providers (Polygon, IBKR, etc.).">
<polygon fill="white" stroke="transparent" points="167,-477.5 0,-477.5 0,-372.5 167,-372.5 167,-477.5"/>
<text text-anchor="start" x="27.5" y="-465" font-family="Helvetica,sans-Serif" font-size="10.00">Alaris.Infrastructure.Data.</text>
<text text-anchor="start" x="42.5" y="-454" font-family="Helvetica,sans-Serif" font-size="10.00">Provider.DTpr003A</text>
<text text-anchor="start" x="82" y="-439" font-family="Helvetica,sans-Serif" font-size="10.00"> </text>
<text text-anchor="start" x="4.5" y="-424" font-family="Helvetica,sans-Serif" font-size="10.00">+</text>
<text text-anchor="start" x="15.5" y="-424" font-family="Helvetica,sans-Serif" font-size="10.00">GetHistoricalBarsAsync()</text>
<text text-anchor="start" x="4.5" y="-409" font-family="Helvetica,sans-Serif" font-size="10.00">+</text>
<text text-anchor="start" x="15.5" y="-409" font-family="Helvetica,sans-Serif" font-size="10.00">GetOptionChainAsync()</text>
<text text-anchor="start" x="4.5" y="-394" font-family="Helvetica,sans-Serif" font-size="10.00">+</text>
<text text-anchor="start" x="15.5" y="-394" font-family="Helvetica,sans-Serif" font-size="10.00">GetSpotPriceAsync()</text>
<text text-anchor="start" x="4.5" y="-379" font-family="Helvetica,sans-Serif" font-size="10.00">+</text>
<text text-anchor="start" x="15.5" y="-379" font-family="Helvetica,sans-Serif" font-size="10.00">GetAverageVolume30DayAsync()</text>
<polygon fill="#666666" stroke="#666666" points="0.5,-449 0.5,-449 167.5,-449 167.5,-449 0.5,-449"/>
<polygon fill="#666666" stroke="#666666" points="0.5,-434 0.5,-434 167.5,-434 167.5,-434 0.5,-434"/>
<polygon fill="none" stroke="#666666" points="0,-372.5 0,-477.5 167,-477.5 167,-372.5 0,-372.5"/>
</a>
</g>
</g>
<!-- Node2&#45;&gt;Node1 -->
<g id="edge1_Node000001_Node000002" class="edge">
<title>Node2&#45;&gt;Node1</title>
<g id="a_edge1_Node000001_Node000002"><a xlink:title=" ">
<path fill="none" stroke="#63b8ff" d="M119.61,-372.47C135.16,-350.29 154.14,-323.2 173.28,-295.89"/>
<polygon fill="none" stroke="#63b8ff" points="173.44,-295.65 173.61,-288.44 180.33,-285.82 180.16,-293.03 173.44,-295.65"/>
</a>
</g>
<text text-anchor="middle" x="193" y="-339" font-family="Helvetica,sans-Serif" font-size="10.00" fill="grey"> &#45;_marketDataProvider</text>
</g>
<!-- Node3 -->
<g id="Node000003" class="node">
<title>Node3</title>
<g id="a_Node000003"><a xlink:href="../../da/d01/interfaceAlaris_1_1Infrastructure_1_1Data_1_1Provider_1_1DTpr004A.html" target="_top" xlink:title="Interface for earnings calendar providers.">
<polygon fill="white" stroke="transparent" points="351.5,-485 185.5,-485 185.5,-365 351.5,-365 351.5,-485"/>
<text text-anchor="start" x="212" y="-473" font-family="Helvetica,sans-Serif" font-size="10.00">Alaris.Infrastructure.Data.</text>
<text text-anchor="start" x="227" y="-462" font-family="Helvetica,sans-Serif" font-size="10.00">Provider.DTpr004A</text>
<text text-anchor="start" x="266.5" y="-447" font-family="Helvetica,sans-Serif" font-size="10.00"> </text>
<text text-anchor="start" x="189.5" y="-432" font-family="Helvetica,sans-Serif" font-size="10.00">+</text>
<text text-anchor="start" x="200.5" y="-432" font-family="Helvetica,sans-Serif" font-size="10.00">GetUpcomingEarningsAsync()</text>
<text text-anchor="start" x="189.5" y="-417" font-family="Helvetica,sans-Serif" font-size="10.00">+</text>
<text text-anchor="start" x="200.5" y="-417" font-family="Helvetica,sans-Serif" font-size="10.00">GetHistoricalEarningsAsync()</text>
<text text-anchor="start" x="189.5" y="-402" font-family="Helvetica,sans-Serif" font-size="10.00">+</text>
<text text-anchor="start" x="200.5" y="-402" font-family="Helvetica,sans-Serif" font-size="10.00">GetHistoricalEarningsAsync()</text>
<text text-anchor="start" x="189.5" y="-387" font-family="Helvetica,sans-Serif" font-size="10.00">+</text>
<text text-anchor="start" x="200.5" y="-387" font-family="Helvetica,sans-Serif" font-size="10.00">GetSymbolsWithEarningsAsync()</text>
<text text-anchor="start" x="189.5" y="-372" font-family="Helvetica,sans-Serif" font-size="10.00">+</text>
<text text-anchor="start" x="200.5" y="-372" font-family="Helvetica,sans-Serif" font-size="10.00">EnableCacheOnlyMode()</text>
<polygon fill="#666666" stroke="#666666" points="185.5,-457 185.5,-457 351.5,-457 351.5,-457 185.5,-457"/>
<polygon fill="#666666" stroke="#666666" points="185.5,-442 185.5,-442 351.5,-442 351.5,-442 185.5,-442"/>
<polygon fill="none" stroke="#666666" points="185.5,-365 185.5,-485 351.5,-485 351.5,-365 185.5,-365"/>
</a>
</g>
</g>
<!-- Node3&#45;&gt;Node1 -->
<g id="edge2_Node000001_Node000003" class="edge">
<title>Node3&#45;&gt;Node1</title>
<g id="a_edge2_Node000001_Node000003"><a xlink:title=" ">
<path fill="none" stroke="#63b8ff" d="M268.5,-364.75C268.5,-354.04 268.5,-342.39 268.5,-330.27"/>
<polygon fill="none" stroke="#63b8ff" points="268.5,-330.01 264.5,-324.01 268.5,-318.01 272.5,-324.01 268.5,-330.01"/>
</a>
</g>
<text text-anchor="middle" x="311" y="-339" font-family="Helvetica,sans-Serif" font-size="10.00" fill="grey"> &#45;_earningsProvider</text>
</g>
<!-- Node4 -->
<g id="Node000004" class="node">
<title>Node4</title>
<g id="a_Node000004"><a xlink:href="../../d0/d01/interfaceAlaris_1_1Infrastructure_1_1Data_1_1Provider_1_1DTpr005A.html" target="_top" xlink:title="Interface for risk&#45;free rate providers.">
<polygon fill="white" stroke="transparent" points="507,-462.5 370,-462.5 370,-387.5 507,-387.5 507,-462.5"/>
<text text-anchor="start" x="382.5" y="-450" font-family="Helvetica,sans-Serif" font-size="10.00">Alaris.Infrastructure.Data.</text>
<text text-anchor="start" x="397.5" y="-439" font-family="Helvetica,sans-Serif" font-size="10.00">Provider.DTpr005A</text>
<text text-anchor="start" x="437" y="-424" font-family="Helvetica,sans-Serif" font-size="10.00"> </text>
<text text-anchor="start" x="374.5" y="-409" font-family="Helvetica,sans-Serif" font-size="10.00">+</text>
<text text-anchor="start" x="385.5" y="-409" font-family="Helvetica,sans-Serif" font-size="10.00">GetCurrentRateAsync()</text>
<text text-anchor="start" x="374.5" y="-394" font-family="Helvetica,sans-Serif" font-size="10.00">+</text>
<text text-anchor="start" x="385.5" y="-394" font-family="Helvetica,sans-Serif" font-size="10.00">GetHistoricalRatesAsync()</text>
<polygon fill="#666666" stroke="#666666" points="370.5,-434 370.5,-434 507.5,-434 507.5,-434 370.5,-434"/>
<polygon fill="#666666" stroke="#666666" points="370.5,-419 370.5,-419 507.5,-419 507.5,-419 370.5,-419"/>
<polygon fill="none" stroke="#666666" points="370,-387.5 370,-462.5 507,-462.5 507,-387.5 370,-387.5"/>
</a>
</g>
</g>
<!-- Node4&#45;&gt;Node1 -->
<g id="edge3_Node000001_Node000004" class="edge">
<title>Node4&#45;&gt;Node1</title>
<g id="a_edge3_Node000001_Node000004"><a xlink:title=" ">
<path fill="none" stroke="#63b8ff" d="M414.86,-387.29C400.97,-365.72 382.39,-336.87 363.15,-306.98"/>
<polygon fill="none" stroke="#63b8ff" points="363.1,-306.9 356.49,-304.03 356.6,-296.81 363.21,-299.69 363.1,-306.9"/>
</a>
</g>
<text text-anchor="middle" x="439.5" y="-339" font-family="Helvetica,sans-Serif" font-size="10.00" fill="grey"> &#45;_riskFreeRateProvider</text>
</g>
</g>
</svg>
