<?xml version="1.0" encoding="UTF-8" standalone="no"?>
<!DOCTYPE svg PUBLIC "-//W3C//DTD SVG 1.1//EN"
 "http://www.w3.org/Graphics/SVG/1.1/DTD/svg11.dtd">
<!-- Generated by graphviz version 2.43.0 (0)
 -->
<!-- Title: Alaris.Strategy.Risk.STRK003A Pages: 1 -->
<svg width="164pt" height="524pt"
 viewBox="0.00 0.00 164.00 524.00" xmlns="http://www.w3.org/2000/svg" xmlns:xlink="http://www.w3.org/1999/xlink">
<g id="graph0" class="graph" transform="scale(1 1) rotate(0) translate(4 520)">
<title>Alaris.Strategy.Risk.STRK003A</title>
<!-- Node1 -->
<g id="Node000001" class="node">
<title>Node1</title>
<g id="a_Node000001"><a xlink:title="Implements reserve&#45;adjusted Kelly position sizing for concurrent positions.">
<polygon fill="#999999" stroke="transparent" points="156,-225 0,-225 0,0 156,0 156,-225"/>
<text text-anchor="start" x="8.5" y="-212.5" font-family="Helvetica,sans-Serif" font-size="10.00">Alaris.Strategy.Risk.STRK003A</text>
<text text-anchor="start" x="5.5" y="-197.5" font-family="Helvetica,sans-Serif" font-size="10.00">&#45;</text>
<text text-anchor="start" x="15" y="-197.5" font-family="Helvetica,sans-Serif" font-size="10.00">_logger</text>
<text text-anchor="start" x="5.5" y="-182.5" font-family="Helvetica,sans-Serif" font-size="10.00">&#45;</text>
<text text-anchor="start" x="15" y="-182.5" font-family="Helvetica,sans-Serif" font-size="10.00">DefaultReserveBuffer</text>
<text text-anchor="start" x="5.5" y="-167.5" font-family="Helvetica,sans-Serif" font-size="10.00">&#45;</text>
<text text-anchor="start" x="15" y="-167.5" font-family="Helvetica,sans-Serif" font-size="10.00">HighUtilisationThreshold</text>
<text text-anchor="start" x="5.5" y="-152.5" font-family="Helvetica,sans-Serif" font-size="10.00">&#45;</text>
<text text-anchor="start" x="15" y="-152.5" font-family="Helvetica,sans-Serif" font-size="10.00">MaxUtilisationThreshold</text>
<text text-anchor="start" x="5.5" y="-137.5" font-family="Helvetica,sans-Serif" font-size="10.00">&#45;</text>
<text text-anchor="start" x="15" y="-137.5" font-family="Helvetica,sans-Serif" font-size="10.00">LogReserveCalculation</text>
<text text-anchor="start" x="5.5" y="-122.5" font-family="Helvetica,sans-Serif" font-size="10.00">&#45;</text>
<text text-anchor="start" x="15" y="-122.5" font-family="Helvetica,sans-Serif" font-size="10.00">LogUtilisationFiltered</text>
<text text-anchor="start" x="5.5" y="-107.5" font-family="Helvetica,sans-Serif" font-size="10.00">&#45;</text>
<text text-anchor="start" x="15" y="-107.5" font-family="Helvetica,sans-Serif" font-size="10.00">LogAdjustedAllocation</text>
<text text-anchor="start" x="4" y="-92.5" font-family="Helvetica,sans-Serif" font-size="10.00">+</text>
<text text-anchor="start" x="15" y="-92.5" font-family="Helvetica,sans-Serif" font-size="10.00">STRK003A()</text>
<text text-anchor="start" x="4" y="-77.5" font-family="Helvetica,sans-Serif" font-size="10.00">+</text>
<text text-anchor="start" x="15" y="-77.5" font-family="Helvetica,sans-Serif" font-size="10.00">CalculateExpectedConcurrent()</text>
<text text-anchor="start" x="4" y="-62.5" font-family="Helvetica,sans-Serif" font-size="10.00">+</text>
<text text-anchor="start" x="15" y="-62.5" font-family="Helvetica,sans-Serif" font-size="10.00">CalculateExpectedConcurrent</text>
<text text-anchor="start" x="15" y="-51.5" font-family="Helvetica,sans-Serif" font-size="10.00">FromHistory()</text>
<text text-anchor="start" x="4" y="-36.5" font-family="Helvetica,sans-Serif" font-size="10.00">+</text>
<text text-anchor="start" x="15" y="-36.5" font-family="Helvetica,sans-Serif" font-size="10.00">CalculateWithReserve()</text>
<text text-anchor="start" x="5.5" y="-21.5" font-family="Helvetica,sans-Serif" font-size="10.00">&#45;</text>
<text text-anchor="start" x="15" y="-21.5" font-family="Helvetica,sans-Serif" font-size="10.00">SafeLog()</text>
<text text-anchor="start" x="5.5" y="-6.5" font-family="Helvetica,sans-Serif" font-size="10.00">&#45;</text>
<text text-anchor="start" x="15" y="-6.5" font-family="Helvetica,sans-Serif" font-size="10.00">GetZeroPosition()</text>
<polygon fill="#666666" stroke="#666666" points="0,-207.5 0,-207.5 156,-207.5 156,-207.5 0,-207.5"/>
<polygon fill="#666666" stroke="#666666" points="0,-102.5 0,-102.5 13,-102.5 13,-102.5 0,-102.5"/>
<polygon fill="#666666" stroke="#666666" points="13,-102.5 13,-102.5 156,-102.5 156,-102.5 13,-102.5"/>
<polygon fill="none" stroke="#666666" points="0,0 0,-225 156,-225 156,0 0,0"/>
</a>
</g>
</g>
<!-- Node2 -->
<g id="Node000002" class="node">
<title>Node2</title>
<g id="a_Node000002"><a xlink:href="../../d2/d00/classAlaris_1_1Strategy_1_1Risk_1_1STRK001A.html" target="_top" xlink:title="Implements Kelly Criterion position sizing for options strategies. Uses fractional Kelly (typically 2...">
<polygon fill="white" stroke="transparent" points="155.5,-516 0.5,-516 0.5,-272 155.5,-272 155.5,-516"/>
<text text-anchor="start" x="9" y="-504" font-family="Helvetica,sans-Serif" font-size="10.00">Alaris.Strategy.Risk.STRK001A</text>
<text text-anchor="start" x="6.5" y="-489" font-family="Helvetica,sans-Serif" font-size="10.00">&#45;</text>
<text text-anchor="start" x="16" y="-489" font-family="Helvetica,sans-Serif" font-size="10.00">_logger</text>
<text text-anchor="start" x="6.5" y="-474" font-family="Helvetica,sans-Serif" font-size="10.00">&#45;</text>
<text text-anchor="start" x="16" y="-474" font-family="Helvetica,sans-Serif" font-size="10.00">LogInsufficientTradeHistory</text>
<text text-anchor="start" x="6.5" y="-459" font-family="Helvetica,sans-Serif" font-size="10.00">&#45;</text>
<text text-anchor="start" x="16" y="-459" font-family="Helvetica,sans-Serif" font-size="10.00">LogInvalidWinRate</text>
<text text-anchor="start" x="6.5" y="-444" font-family="Helvetica,sans-Serif" font-size="10.00">&#45;</text>
<text text-anchor="start" x="16" y="-444" font-family="Helvetica,sans-Serif" font-size="10.00">LogInvalidAverageWinLoss</text>
<text text-anchor="start" x="6.5" y="-429" font-family="Helvetica,sans-Serif" font-size="10.00">&#45;</text>
<text text-anchor="start" x="16" y="-429" font-family="Helvetica,sans-Serif" font-size="10.00">LogPositionCalculated</text>
<text text-anchor="start" x="6.5" y="-414" font-family="Helvetica,sans-Serif" font-size="10.00">&#45;</text>
<text text-anchor="start" x="16" y="-414" font-family="Helvetica,sans-Serif" font-size="10.00">LogErrorCalculatingPosition</text>
<text text-anchor="start" x="6.5" y="-399" font-family="Helvetica,sans-Serif" font-size="10.00">&#45;</text>
<text text-anchor="start" x="16" y="-399" font-family="Helvetica,sans-Serif" font-size="10.00">FractionalKelly</text>
<text text-anchor="start" x="6.5" y="-384" font-family="Helvetica,sans-Serif" font-size="10.00">&#45;</text>
<text text-anchor="start" x="16" y="-384" font-family="Helvetica,sans-Serif" font-size="10.00">MaxAllocation</text>
<text text-anchor="start" x="6.5" y="-369" font-family="Helvetica,sans-Serif" font-size="10.00">&#45;</text>
<text text-anchor="start" x="16" y="-369" font-family="Helvetica,sans-Serif" font-size="10.00">ContractMultiplier</text>
<text text-anchor="start" x="5" y="-354" font-family="Helvetica,sans-Serif" font-size="10.00">+</text>
<text text-anchor="start" x="16" y="-354" font-family="Helvetica,sans-Serif" font-size="10.00">STRK001A()</text>
<text text-anchor="start" x="5" y="-339" font-family="Helvetica,sans-Serif" font-size="10.00">+</text>
<text text-anchor="start" x="16" y="-339" font-family="Helvetica,sans-Serif" font-size="10.00">CalculateFromHistory()</text>
<text text-anchor="start" x="5" y="-324" font-family="Helvetica,sans-Serif" font-size="10.00">+</text>
<text text-anchor="start" x="16" y="-324" font-family="Helvetica,sans-Serif" font-size="10.00">CalculateNetOfCostKelly()</text>
<text text-anchor="start" x="6.5" y="-309" font-family="Helvetica,sans-Serif" font-size="10.00">&#45;</text>
<text text-anchor="start" x="16" y="-309" font-family="Helvetica,sans-Serif" font-size="10.00">SafeLog()</text>
<text text-anchor="start" x="6.5" y="-294" font-family="Helvetica,sans-Serif" font-size="10.00">&#45;</text>
<text text-anchor="start" x="16" y="-294" font-family="Helvetica,sans-Serif" font-size="10.00">AdjustForSTCR004AStrength()</text>
<text text-anchor="start" x="6.5" y="-279" font-family="Helvetica,sans-Serif" font-size="10.00">&#45;</text>
<text text-anchor="start" x="16" y="-279" font-family="Helvetica,sans-Serif" font-size="10.00">GetMinimumPosition()</text>
<polygon fill="#666666" stroke="#666666" points="1,-499 1,-499 156,-499 156,-499 1,-499"/>
<polygon fill="#666666" stroke="#666666" points="1,-364 1,-364 14,-364 14,-364 1,-364"/>
<polygon fill="#666666" stroke="#666666" points="14,-364 14,-364 156,-364 156,-364 14,-364"/>
<polygon fill="none" stroke="#666666" points="0.5,-272 0.5,-516 155.5,-516 155.5,-272 0.5,-272"/>
</a>
</g>
</g>
<!-- Node2&#45;&gt;Node1 -->
<g id="edge1_Node000001_Node000002" class="edge">
<title>Node2&#45;&gt;Node1</title>
<g id="a_edge1_Node000001_Node000002"><a xlink:title=" ">
<path fill="none" stroke="#63b8ff" d="M78,-271.63C78,-260.27 78,-248.74 78,-237.36"/>
<polygon fill="none" stroke="#63b8ff" points="78,-237.08 74,-231.08 78,-225.08 82,-231.08 78,-237.08"/>
</a>
</g>
<text text-anchor="middle" x="105.5" y="-246" font-family="Helvetica,sans-Serif" font-size="10.00" fill="grey"> &#45;_baseKelly</text>
</g>
</g>
</svg>
