<?xml version="1.0" encoding="UTF-8" standalone="no"?>
<!DOCTYPE svg PUBLIC "-//W3C//DTD SVG 1.1//EN"
 "http://www.w3.org/Graphics/SVG/1.1/DTD/svg11.dtd">
<!-- Generated by graphviz version 2.43.0 (0)
 -->
<!-- Title: Alaris.Host.Application.Command.BootstrapEarningsCommand Pages: 1 -->
<svg width="192pt" height="164pt"
 viewBox="0.00 0.00 192.00 164.00" xmlns="http://www.w3.org/2000/svg" xmlns:xlink="http://www.w3.org/1999/xlink">
<g id="graph0" class="graph" transform="scale(1 1) rotate(0) translate(4 160)">
<title>Alaris.Host.Application.Command.BootstrapEarningsCommand</title>
<!-- Node1 -->
<g id="Node000001" class="node">
<title>Node1</title>
<g id="a_Node000001"><a xlink:title="Downloads earnings calendar to cache files for backtesting. Component ID: APcm006A.">
<polygon fill="#999999" stroke="transparent" points="184,-60 0,-60 0,0 184,0 184,-60"/>
<text text-anchor="start" x="5" y="-48" font-family="Helvetica,sans-Serif" font-size="10.00">Alaris.Host.Application.</text>
<text text-anchor="start" x="5" y="-37" font-family="Helvetica,sans-Serif" font-size="10.00">Command.BootstrapEarningsCommand</text>
<text text-anchor="start" x="90" y="-22" font-family="Helvetica,sans-Serif" font-size="10.00"> </text>
<text text-anchor="start" x="27.5" y="-7" font-family="Helvetica,sans-Serif" font-size="10.00">+</text>
<text text-anchor="start" x="62" y="-7" font-family="Helvetica,sans-Serif" font-size="10.00">ExecuteAsync()</text>
<polygon fill="#666666" stroke="#666666" points="0,-32 0,-32 184,-32 184,-32 0,-32"/>
<polygon fill="#666666" stroke="#666666" points="0,-17 0,-17 184,-17 184,-17 0,-17"/>
<polygon fill="none" stroke="#666666" points="0,0 0,-60 184,-60 184,0 0,0"/>
</a>
</g>
</g>
<!-- Node2 -->
<g id="Node000002" class="node">
<title>Node2</title>
<g id="a_Node000002"><a xlink:title=" ">
<polygon fill="white" stroke="transparent" points="178.5,-156 5.5,-156 5.5,-96 178.5,-96 178.5,-156"/>
<text text-anchor="start" x="11" y="-144" font-family="Helvetica,sans-Serif" font-size="10.00">AsyncCommand&lt; BootstrapEarnings</text>
<text text-anchor="start" x="69.5" y="-133" font-family="Helvetica,sans-Serif" font-size="10.00">Settings &gt;</text>
<text text-anchor="start" x="90.5" y="-118" font-family="Helvetica,sans-Serif" font-size="10.00"> </text>
<text text-anchor="start" x="90.5" y="-103" font-family="Helvetica,sans-Serif" font-size="10.00"> </text>
<polygon fill="#666666" stroke="#666666" points="6,-128 6,-128 179,-128 179,-128 6,-128"/>
<polygon fill="#666666" stroke="#666666" points="6,-113 6,-113 179,-113 179,-113 6,-113"/>
<polygon fill="none" stroke="#666666" points="5.5,-96 5.5,-156 178.5,-156 178.5,-96 5.5,-96"/>
</a>
</g>
</g>
<!-- Node2&#45;&gt;Node1 -->
<g id="edge1_Node000001_Node000002" class="edge">
<title>Node2&#45;&gt;Node1</title>
<g id="a_edge1_Node000001_Node000002"><a xlink:title=" ">
<path fill="none" stroke="#63b8ff" d="M92,-85.63C92,-77.11 92,-68.25 92,-60.21"/>
<polygon fill="none" stroke="#63b8ff" points="88.5,-85.77 92,-95.77 95.5,-85.77 88.5,-85.77"/>
</a>
</g>
</g>
</g>
</svg>
