<?xml version="1.0" encoding="UTF-8" standalone="no"?>
<!DOCTYPE svg PUBLIC "-//W3C//DTD SVG 1.1//EN"
 "http://www.w3.org/Graphics/SVG/1.1/DTD/svg11.dtd">
<!-- Generated by graphviz version 2.43.0 (0)
 -->
<!-- Title: Alaris.Algorithm.Universe.STUN001A Pages: 1 -->
<!--zoomable 460 -->

<svg id="main" version="1.1" xmlns="http://www.w3.org/2000/svg" xmlns:xlink="http://www.w3.org/1999/xlink" xml:space="preserve" onload="init(evt)">
<style type="text/css"><![CDATA[
.node, .edge {opacity: 0.7;}
.node.selected, .edge.selected {opacity: 1;}
.edge:hover path { stroke: red; }
.edge:hover polygon { stroke: red; fill: red; }
]]></style>

<defs>
  <circle id="rim" cx="0" cy="0" r="7"/>
  <circle id="rim2" cx="0" cy="0" r="3.5"/>
  <g id="zoomPlus">
    <use xlink:href="#rim" fill="#404040"><set attributeName="fill" to="#808080" begin="zoomplus.mouseover" end="zoomplus.mouseout"/></use>
    <path d="M-4,0h8M0,-4v8" fill="none" stroke="white" stroke-width="1.5" pointer-events="none"/>
  </g>
  <g id="zoomMin">
    <use xlink:href="#rim" fill="#404040"><set attributeName="fill" to="#808080" begin="zoomminus.mouseover" end="zoomminus.mouseout"/></use>
    <path d="M-4,0h8" fill="none" stroke="white" stroke-width="1.5" pointer-events="none"/>
  </g>
  <g id="arrowUp" transform="translate(30 24)">
    <use xlink:href="#rim"/>
    <path pointer-events="none" fill="none" stroke="white" stroke-width="1.5" d="M0,-3.0v7 M-2.5,-0.5L0,-3.0L2.5,-0.5"/>
  </g>
  <g id="arrowRight" transform="rotate(90) translate(36 -43)">
    <use xlink:href="#rim"/>
    <path pointer-events="none" fill="none" stroke="white" stroke-width="1.5" d="M0,-3.0v7 M-2.5,-0.5L0,-3.0L2.5,-0.5"/>
  </g>
  <g id="arrowDown" transform="rotate(180) translate(-30 -48)">
    <use xlink:href="#rim"/>
    <path pointer-events="none" fill="none" stroke="white" stroke-width="1.5" d="M0,-3.0v7 M-2.5,-0.5L0,-3.0L2.5,-0.5"/>
  </g>
  <g id="arrowLeft" transform="rotate(270) translate(-36 17)">
    <use xlink:href="#rim"/>
    <path pointer-events="none" fill="none" stroke="white" stroke-width="1.5" d="M0,-3.0v7 M-2.5,-0.5L0,-3.0L2.5,-0.5"/>
  </g>
  <g id="resetDef">
    <use xlink:href="#rim2" fill="#404040"><set attributeName="fill" to="#808080" begin="reset.mouseover" end="reset.mouseout"/></use>
  </g>
</defs>
<script type="application/ecmascript">
var viewWidth = 338;
var viewHeight = 460;
var sectionId = 'dynsection-1';
</script>
<script type="application/ecmascript" xlink:href="../../svg.min.js"/>
<svg id="graph" class="graph">
<g id="viewport">
<title>Alaris.Algorithm.Universe.STUN001A</title>
<!-- Node1 -->
<g id="Node000001" class="node">
<title>Node1</title>
<g id="a_Node000001"><a xlink:title="Universe selection model that filters for symbols with upcoming earnings. Implements Atilgan (2014) p...">
<polygon fill="#999999" stroke="transparent" points="243.5,-285 76.5,-285 76.5,0 243.5,0 243.5,-285"/>
<text text-anchor="start" x="103" y="-272.5" font-family="Helvetica,sans-Serif" font-size="10.00">Alaris.Algorithm.Universe.</text>
<text text-anchor="start" x="135" y="-261.5" font-family="Helvetica,sans-Serif" font-size="10.00">STUN001A</text>
<text text-anchor="start" x="82.5" y="-246.5" font-family="Helvetica,sans-Serif" font-size="10.00">&#45;</text>
<text text-anchor="start" x="92" y="-246.5" font-family="Helvetica,sans-Serif" font-size="10.00">_logger</text>
<text text-anchor="start" x="82.5" y="-231.5" font-family="Helvetica,sans-Serif" font-size="10.00">&#45;</text>
<text text-anchor="start" x="92" y="-231.5" font-family="Helvetica,sans-Serif" font-size="10.00">_daysBeforeEarningsMin</text>
<text text-anchor="start" x="82.5" y="-216.5" font-family="Helvetica,sans-Serif" font-size="10.00">&#45;</text>
<text text-anchor="start" x="92" y="-216.5" font-family="Helvetica,sans-Serif" font-size="10.00">_daysBeforeEarningsMax</text>
<text text-anchor="start" x="82.5" y="-201.5" font-family="Helvetica,sans-Serif" font-size="10.00">&#45;</text>
<text text-anchor="start" x="92" y="-201.5" font-family="Helvetica,sans-Serif" font-size="10.00">_minimumDollarVolume</text>
<text text-anchor="start" x="82.5" y="-186.5" font-family="Helvetica,sans-Serif" font-size="10.00">&#45;</text>
<text text-anchor="start" x="92" y="-186.5" font-family="Helvetica,sans-Serif" font-size="10.00">_minimumPrice</text>
<text text-anchor="start" x="82.5" y="-171.5" font-family="Helvetica,sans-Serif" font-size="10.00">&#45;</text>
<text text-anchor="start" x="92" y="-171.5" font-family="Helvetica,sans-Serif" font-size="10.00">_maxCoarseSymbols</text>
<text text-anchor="start" x="82.5" y="-156.5" font-family="Helvetica,sans-Serif" font-size="10.00">&#45;</text>
<text text-anchor="start" x="92" y="-156.5" font-family="Helvetica,sans-Serif" font-size="10.00">_maxSymbols</text>
<text text-anchor="start" x="82.5" y="-141.5" font-family="Helvetica,sans-Serif" font-size="10.00">&#45;</text>
<text text-anchor="start" x="92" y="-141.5" font-family="Helvetica,sans-Serif" font-size="10.00">_lastEarningsQueryDate</text>
<text text-anchor="start" x="82.5" y="-126.5" font-family="Helvetica,sans-Serif" font-size="10.00">&#45;</text>
<text text-anchor="start" x="92" y="-126.5" font-family="Helvetica,sans-Serif" font-size="10.00">_cachedEarningsSymbols</text>
<text text-anchor="start" x="82.5" y="-111.5" font-family="Helvetica,sans-Serif" font-size="10.00">&#45;</text>
<text text-anchor="start" x="92" y="-111.5" font-family="Helvetica,sans-Serif" font-size="10.00">LogEarningsQuery</text>
<text text-anchor="start" x="82.5" y="-96.5" font-family="Helvetica,sans-Serif" font-size="10.00">&#45;</text>
<text text-anchor="start" x="92" y="-96.5" font-family="Helvetica,sans-Serif" font-size="10.00">LogUniverseSelection</text>
<text text-anchor="start" x="81" y="-81.5" font-family="Helvetica,sans-Serif" font-size="10.00">+</text>
<text text-anchor="start" x="92" y="-81.5" font-family="Helvetica,sans-Serif" font-size="10.00">STUN001A()</text>
<text text-anchor="start" x="81" y="-66.5" font-family="Helvetica,sans-Serif" font-size="10.00">+</text>
<text text-anchor="start" x="92" y="-66.5" font-family="Helvetica,sans-Serif" font-size="10.00">GetConfigurationSummary()</text>
<text text-anchor="start" x="81" y="-51.5" font-family="Helvetica,sans-Serif" font-size="10.00">+</text>
<text text-anchor="start" x="92" y="-51.5" font-family="Helvetica,sans-Serif" font-size="10.00">Select()</text>
<text text-anchor="start" x="81" y="-36.5" font-family="Helvetica,sans-Serif" font-size="10.00">+</text>
<text text-anchor="start" x="92" y="-36.5" font-family="Helvetica,sans-Serif" font-size="10.00">SelectCoarse()</text>
<text text-anchor="start" x="81" y="-21.5" font-family="Helvetica,sans-Serif" font-size="10.00">+</text>
<text text-anchor="start" x="92" y="-21.5" font-family="Helvetica,sans-Serif" font-size="10.00">SelectFine()</text>
<text text-anchor="start" x="82.5" y="-6.5" font-family="Helvetica,sans-Serif" font-size="10.00">&#45;</text>
<text text-anchor="start" x="92" y="-6.5" font-family="Helvetica,sans-Serif" font-size="10.00">GetEarningsSymbolsForWindow()</text>
<polygon fill="#666666" stroke="#666666" points="77,-256.5 77,-256.5 244,-256.5 244,-256.5 77,-256.5"/>
<polygon fill="#666666" stroke="#666666" points="77,-91.5 77,-91.5 90,-91.5 90,-91.5 77,-91.5"/>
<polygon fill="#666666" stroke="#666666" points="90,-91.5 90,-91.5 244,-91.5 244,-91.5 90,-91.5"/>
<polygon fill="none" stroke="#666666" points="76.5,0 76.5,-285 243.5,-285 243.5,0 76.5,0"/>
</a>
</g>
</g>
<!-- Node2 -->
<g id="Node000002" class="node">
<title>Node2</title>
<g id="a_Node000002"><a xlink:title=" ">
<polygon fill="white" stroke="transparent" points="146,-422 0,-422 0,-362 146,-362 146,-422"/>
<text text-anchor="start" x="5" y="-410" font-family="Helvetica,sans-Serif" font-size="10.00">FundamentalUniverseSelection</text>
<text text-anchor="start" x="59.5" y="-399" font-family="Helvetica,sans-Serif" font-size="10.00">Model</text>
<text text-anchor="start" x="71" y="-384" font-family="Helvetica,sans-Serif" font-size="10.00"> </text>
<text text-anchor="start" x="71" y="-369" font-family="Helvetica,sans-Serif" font-size="10.00"> </text>
<polygon fill="#666666" stroke="#666666" points="0,-394 0,-394 146,-394 146,-394 0,-394"/>
<polygon fill="#666666" stroke="#666666" points="0,-379 0,-379 146,-379 146,-379 0,-379"/>
<polygon fill="none" stroke="#666666" points="0,-362 0,-422 146,-422 146,-362 0,-362"/>
</a>
</g>
</g>
<!-- Node2&#45;&gt;Node1 -->
<g id="edge1_Node000001_Node000002" class="edge">
<title>Node2&#45;&gt;Node1</title>
<g id="a_edge1_Node000001_Node000002"><a xlink:title=" ">
<path fill="none" stroke="#63b8ff" d="M86.69,-352.07C93.25,-333.38 101.57,-309.72 110.23,-285.1"/>
<polygon fill="none" stroke="#63b8ff" points="83.34,-351.04 83.32,-361.64 89.94,-353.36 83.34,-351.04"/>
</a>
</g>
</g>
<!-- Node3 -->
<g id="Node000003" class="node">
<title>Node3</title>
<g id="a_Node000003"><a xlink:href="../../da/d01/interfaceAlaris_1_1Infrastructure_1_1Data_1_1Provider_1_1DTpr004A.html" target="_top" xlink:title="Interface for earnings calendar providers.">
<polygon fill="white" stroke="transparent" points="330,-452 164,-452 164,-332 330,-332 330,-452"/>
<text text-anchor="start" x="190.5" y="-440" font-family="Helvetica,sans-Serif" font-size="10.00">Alaris.Infrastructure.Data.</text>
<text text-anchor="start" x="205.5" y="-429" font-family="Helvetica,sans-Serif" font-size="10.00">Provider.DTpr004A</text>
<text text-anchor="start" x="245" y="-414" font-family="Helvetica,sans-Serif" font-size="10.00"> </text>
<text text-anchor="start" x="168" y="-399" font-family="Helvetica,sans-Serif" font-size="10.00">+</text>
<text text-anchor="start" x="179" y="-399" font-family="Helvetica,sans-Serif" font-size="10.00">GetUpcomingEarningsAsync()</text>
<text text-anchor="start" x="168" y="-384" font-family="Helvetica,sans-Serif" font-size="10.00">+</text>
<text text-anchor="start" x="179" y="-384" font-family="Helvetica,sans-Serif" font-size="10.00">GetHistoricalEarningsAsync()</text>
<text text-anchor="start" x="168" y="-369" font-family="Helvetica,sans-Serif" font-size="10.00">+</text>
<text text-anchor="start" x="179" y="-369" font-family="Helvetica,sans-Serif" font-size="10.00">GetHistoricalEarningsAsync()</text>
<text text-anchor="start" x="168" y="-354" font-family="Helvetica,sans-Serif" font-size="10.00">+</text>
<text text-anchor="start" x="179" y="-354" font-family="Helvetica,sans-Serif" font-size="10.00">GetSymbolsWithEarningsAsync()</text>
<text text-anchor="start" x="168" y="-339" font-family="Helvetica,sans-Serif" font-size="10.00">+</text>
<text text-anchor="start" x="179" y="-339" font-family="Helvetica,sans-Serif" font-size="10.00">EnableCacheOnlyMode()</text>
<polygon fill="#666666" stroke="#666666" points="164,-424 164,-424 330,-424 330,-424 164,-424"/>
<polygon fill="#666666" stroke="#666666" points="164,-409 164,-409 330,-409 330,-409 164,-409"/>
<polygon fill="none" stroke="#666666" points="164,-332 164,-452 330,-452 330,-332 164,-332"/>
</a>
</g>
</g>
<!-- Node3&#45;&gt;Node1 -->
<g id="edge2_Node000001_Node000003" class="edge">
<title>Node3&#45;&gt;Node1</title>
<g id="a_edge2_Node000001_Node000003"><a xlink:title=" ">
<path fill="none" stroke="#63b8ff" d="M226.16,-331.72C222.31,-320.77 218.14,-308.89 213.81,-296.59"/>
<polygon fill="none" stroke="#63b8ff" points="213.79,-296.52 208.03,-292.19 209.81,-285.2 215.57,-289.54 213.79,-296.52"/>
</a>
</g>
<text text-anchor="middle" x="260.5" y="-306" font-family="Helvetica,sans-Serif" font-size="10.00" fill="grey"> &#45;_earningsProvider</text>
</g>
</g>
</svg>

<g id="navigator" transform="translate(0 0)" fill="#404254">
  <rect fill="#f2f5e9" fill-opacity="0.5" stroke="#606060" stroke-width=".5" x="0" y="0" width="60" height="60"/>
  <use id="zoomplus" xlink:href="#zoomPlus" x="17" y="9" onmousedown="handleZoom(evt,'in')"/>
  <use id="zoomminus" xlink:href="#zoomMin" x="42" y="9" onmousedown="handleZoom(evt,'out')"/>
  <use id="reset" xlink:href="#resetDef" x="30" y="36" onmousedown="handleReset()"/>
   <use id="arrowup" xlink:href="#arrowUp" x="0" y="0" onmousedown="handlePan(0,-1)"/>
  <use id="arrowright" xlink:href="#arrowRight" x="0" y="0" onmousedown="handlePan(1,0)"/>
  <use id="arrowdown" xlink:href="#arrowDown" x="0" y="0" onmousedown="handlePan(0,1)"/>
  <use id="arrowleft" xlink:href="#arrowLeft" x="0" y="0" onmousedown="handlePan(-1,0)"/>
</g>
<svg viewBox="0 0 15 15" width="100%" height="30px" preserveAspectRatio="xMaxYMin meet">
 <g id="arrow_out" transform="scale(0.3 0.3)">
  <a xlink:href="classAlaris_1_1Algorithm_1_1Universe_1_1STUN001A__coll__graph_org.svg" target="_base">
   <rect id="button" ry="5" rx="5" y="6" x="6" height="38" width="38"
        fill="#f2f5e9" fill-opacity="0.5" stroke="#606060" stroke-width="1.0"/>
   <path id="arrow"
     d="M 11.500037,31.436501 C 11.940474,20.09759 22.043105,11.32322 32.158766,21.979434 L 37.068811,17.246167 C 37.068811,17.246167 37.088388,32 37.088388,32 L 22.160133,31.978069 C 22.160133,31.978069 26.997745,27.140456 26.997745,27.140456 C 18.528582,18.264221 13.291696,25.230495 11.500037,31.436501 z"
     style="fill:#404040;"/>
  </a>
 </g>
</svg>

<style type='text/css'>
<![CDATA[
[data-mouse-over-selected='false'] { opacity: 0.7; }
[data-mouse-over-selected='true']  { opacity: 1.0; }
]]>
</style>
<script type="application/ecmascript"><![CDATA[
document.addEventListener('DOMContentLoaded', (event) => {
  highlightEdges();
  highlightAdjacentNodes();
});
]]></script>
</svg>
