<?xml version="1.0" encoding="UTF-8" standalone="no"?>
<!DOCTYPE svg PUBLIC "-//W3C//DTD SVG 1.1//EN"
 "http://www.w3.org/Graphics/SVG/1.1/DTD/svg11.dtd">
<!-- Generated by graphviz version 2.43.0 (0)
 -->
<!-- Title: Alaris.Algorithm.Universe.STUN001A Pages: 1 -->
<svg width="175pt" height="404pt"
 viewBox="0.00 0.00 175.00 404.00" xmlns="http://www.w3.org/2000/svg" xmlns:xlink="http://www.w3.org/1999/xlink">
<g id="graph0" class="graph" transform="scale(1 1) rotate(0) translate(4 400)">
<title>Alaris.Algorithm.Universe.STUN001A</title>
<!-- Node1 -->
<g id="Node000001" class="node">
<title>Node1</title>
<g id="a_Node000001"><a xlink:title="Universe selection model that filters for symbols with upcoming earnings. Implements Atilgan (2014) p...">
<polygon fill="#999999" stroke="transparent" points="167,-300 0,-300 0,0 167,0 167,-300"/>
<text text-anchor="start" x="26.5" y="-288" font-family="Helvetica,sans-Serif" font-size="10.00">Alaris.Algorithm.Universe.</text>
<text text-anchor="start" x="58.5" y="-277" font-family="Helvetica,sans-Serif" font-size="10.00">STUN001A</text>
<text text-anchor="start" x="6" y="-262" font-family="Helvetica,sans-Serif" font-size="10.00">&#45;</text>
<text text-anchor="start" x="15.5" y="-262" font-family="Helvetica,sans-Serif" font-size="10.00">_earningsProvider</text>
<text text-anchor="start" x="6" y="-247" font-family="Helvetica,sans-Serif" font-size="10.00">&#45;</text>
<text text-anchor="start" x="15.5" y="-247" font-family="Helvetica,sans-Serif" font-size="10.00">_logger</text>
<text text-anchor="start" x="6" y="-232" font-family="Helvetica,sans-Serif" font-size="10.00">&#45;</text>
<text text-anchor="start" x="15.5" y="-232" font-family="Helvetica,sans-Serif" font-size="10.00">_daysBeforeEarningsMin</text>
<text text-anchor="start" x="6" y="-217" font-family="Helvetica,sans-Serif" font-size="10.00">&#45;</text>
<text text-anchor="start" x="15.5" y="-217" font-family="Helvetica,sans-Serif" font-size="10.00">_daysBeforeEarningsMax</text>
<text text-anchor="start" x="6" y="-202" font-family="Helvetica,sans-Serif" font-size="10.00">&#45;</text>
<text text-anchor="start" x="15.5" y="-202" font-family="Helvetica,sans-Serif" font-size="10.00">_minimumDollarVolume</text>
<text text-anchor="start" x="6" y="-187" font-family="Helvetica,sans-Serif" font-size="10.00">&#45;</text>
<text text-anchor="start" x="15.5" y="-187" font-family="Helvetica,sans-Serif" font-size="10.00">_minimumPrice</text>
<text text-anchor="start" x="6" y="-172" font-family="Helvetica,sans-Serif" font-size="10.00">&#45;</text>
<text text-anchor="start" x="15.5" y="-172" font-family="Helvetica,sans-Serif" font-size="10.00">_maxCoarseSymbols</text>
<text text-anchor="start" x="6" y="-157" font-family="Helvetica,sans-Serif" font-size="10.00">&#45;</text>
<text text-anchor="start" x="15.5" y="-157" font-family="Helvetica,sans-Serif" font-size="10.00">_maxSymbols</text>
<text text-anchor="start" x="6" y="-142" font-family="Helvetica,sans-Serif" font-size="10.00">&#45;</text>
<text text-anchor="start" x="15.5" y="-142" font-family="Helvetica,sans-Serif" font-size="10.00">_lastEarningsQueryDate</text>
<text text-anchor="start" x="6" y="-127" font-family="Helvetica,sans-Serif" font-size="10.00">&#45;</text>
<text text-anchor="start" x="15.5" y="-127" font-family="Helvetica,sans-Serif" font-size="10.00">_cachedEarningsSymbols</text>
<text text-anchor="start" x="6" y="-112" font-family="Helvetica,sans-Serif" font-size="10.00">&#45;</text>
<text text-anchor="start" x="15.5" y="-112" font-family="Helvetica,sans-Serif" font-size="10.00">LogEarningsQuery</text>
<text text-anchor="start" x="6" y="-97" font-family="Helvetica,sans-Serif" font-size="10.00">&#45;</text>
<text text-anchor="start" x="15.5" y="-97" font-family="Helvetica,sans-Serif" font-size="10.00">LogUniverseSelection</text>
<text text-anchor="start" x="4.5" y="-82" font-family="Helvetica,sans-Serif" font-size="10.00">+</text>
<text text-anchor="start" x="15.5" y="-82" font-family="Helvetica,sans-Serif" font-size="10.00">STUN001A()</text>
<text text-anchor="start" x="4.5" y="-67" font-family="Helvetica,sans-Serif" font-size="10.00">+</text>
<text text-anchor="start" x="15.5" y="-67" font-family="Helvetica,sans-Serif" font-size="10.00">GetConfigurationSummary()</text>
<text text-anchor="start" x="4.5" y="-52" font-family="Helvetica,sans-Serif" font-size="10.00">+</text>
<text text-anchor="start" x="15.5" y="-52" font-family="Helvetica,sans-Serif" font-size="10.00">Select()</text>
<text text-anchor="start" x="4.5" y="-37" font-family="Helvetica,sans-Serif" font-size="10.00">+</text>
<text text-anchor="start" x="15.5" y="-37" font-family="Helvetica,sans-Serif" font-size="10.00">SelectCoarse()</text>
<text text-anchor="start" x="4.5" y="-22" font-family="Helvetica,sans-Serif" font-size="10.00">+</text>
<text text-anchor="start" x="15.5" y="-22" font-family="Helvetica,sans-Serif" font-size="10.00">SelectFine()</text>
<text text-anchor="start" x="6" y="-7" font-family="Helvetica,sans-Serif" font-size="10.00">&#45;</text>
<text text-anchor="start" x="15.5" y="-7" font-family="Helvetica,sans-Serif" font-size="10.00">GetEarningsSymbolsForWindow()</text>
<polygon fill="#666666" stroke="#666666" points="0.5,-272 0.5,-272 167.5,-272 167.5,-272 0.5,-272"/>
<polygon fill="#666666" stroke="#666666" points="0.5,-92 0.5,-92 13.5,-92 13.5,-92 0.5,-92"/>
<polygon fill="#666666" stroke="#666666" points="13.5,-92 13.5,-92 167.5,-92 167.5,-92 13.5,-92"/>
<polygon fill="none" stroke="#666666" points="0,0 0,-300 167,-300 167,0 0,0"/>
</a>
</g>
</g>
<!-- Node2 -->
<g id="Node000002" class="node">
<title>Node2</title>
<g id="a_Node000002"><a xlink:title=" ">
<polygon fill="white" stroke="transparent" points="156.5,-396 10.5,-396 10.5,-336 156.5,-336 156.5,-396"/>
<text text-anchor="start" x="15.5" y="-384" font-family="Helvetica,sans-Serif" font-size="10.00">FundamentalUniverseSelection</text>
<text text-anchor="start" x="70" y="-373" font-family="Helvetica,sans-Serif" font-size="10.00">Model</text>
<text text-anchor="start" x="81.5" y="-358" font-family="Helvetica,sans-Serif" font-size="10.00"> </text>
<text text-anchor="start" x="81.5" y="-343" font-family="Helvetica,sans-Serif" font-size="10.00"> </text>
<polygon fill="#666666" stroke="#666666" points="10.5,-368 10.5,-368 156.5,-368 156.5,-368 10.5,-368"/>
<polygon fill="#666666" stroke="#666666" points="10.5,-353 10.5,-353 156.5,-353 156.5,-353 10.5,-353"/>
<polygon fill="none" stroke="#666666" points="10.5,-336 10.5,-396 156.5,-396 156.5,-336 10.5,-336"/>
</a>
</g>
</g>
<!-- Node2&#45;&gt;Node1 -->
<g id="edge1_Node000001_Node000002" class="edge">
<title>Node2&#45;&gt;Node1</title>
<g id="a_edge1_Node000001_Node000002"><a xlink:title=" ">
<path fill="none" stroke="#63b8ff" d="M83.5,-325.58C83.5,-317.76 83.5,-309.14 83.5,-300.03"/>
<polygon fill="none" stroke="#63b8ff" points="80,-325.69 83.5,-335.69 87,-325.69 80,-325.69"/>
</a>
</g>
</g>
</g>
</svg>
