<?xml version="1.0" encoding="UTF-8" standalone="no"?>
<!DOCTYPE svg PUBLIC "-//W3C//DTD SVG 1.1//EN"
 "http://www.w3.org/Graphics/SVG/1.1/DTD/svg11.dtd">
<!-- Generated by graphviz version 2.43.0 (0)
 -->
<!-- Title: Alaris.Core.Time.CRTM007AThirty360 Pages: 1 -->
<svg width="283pt" height="306pt"
 viewBox="0.00 0.00 283.00 306.00" xmlns="http://www.w3.org/2000/svg" xmlns:xlink="http://www.w3.org/1999/xlink">

<svg id="main" version="1.1" xmlns="http://www.w3.org/2000/svg" xmlns:xlink="http://www.w3.org/1999/xlink" xml:space="preserve" onload="init(evt)">
<style type="text/css"><![CDATA[
.node, .edge {opacity: 0.7;}
.node.selected, .edge.selected {opacity: 1;}
.edge:hover path { stroke: red; }
.edge:hover polygon { stroke: red; fill: red; }
]]></style>
<script type="application/ecmascript" xlink:href="../../svg.min.js"/>
<svg id="graph" class="graph">
<g id="graph0" class="graph" transform="scale(1 1) rotate(0) translate(4 302)">
<title>Alaris.Core.Time.CRTM007AThirty360</title>
<!-- Node1 -->
<g id="Node000001" class="node">
<title>Node1</title>
<g id="a_Node000001"><a xlink:title="30/360 (ISDA) day count convention. Used for some corporate bonds.">
<polygon fill="#999999" stroke="transparent" points="132,-75 0,-75 0,0 132,0 132,-75"/>
<text text-anchor="start" x="5" y="-62.5" font-family="Helvetica,sans-Serif" font-size="10.00">Alaris.Core.Time.CRTM007</text>
<text text-anchor="start" x="42.5" y="-51.5" font-family="Helvetica,sans-Serif" font-size="10.00">AThirty360</text>
<text text-anchor="start" x="17" y="-36.5" font-family="Helvetica,sans-Serif" font-size="10.00">+</text>
<text text-anchor="start" x="41" y="-36.5" font-family="Helvetica,sans-Serif" font-size="10.00">Name</text>
<text text-anchor="start" x="17" y="-21.5" font-family="Helvetica,sans-Serif" font-size="10.00">+</text>
<text text-anchor="start" x="41" y="-21.5" font-family="Helvetica,sans-Serif" font-size="10.00">YearFraction()</text>
<text text-anchor="start" x="17" y="-6.5" font-family="Helvetica,sans-Serif" font-size="10.00">+</text>
<text text-anchor="start" x="41" y="-6.5" font-family="Helvetica,sans-Serif" font-size="10.00">DayCount()</text>
<polygon fill="#666666" stroke="#666666" points="0,-46.5 0,-46.5 132,-46.5 132,-46.5 0,-46.5"/>
<polygon fill="#666666" stroke="#666666" points="0,-31.5 0,-31.5 39,-31.5 39,-31.5 0,-31.5"/>
<polygon fill="#666666" stroke="#666666" points="39,-31.5 39,-31.5 132,-31.5 132,-31.5 39,-31.5"/>
<polygon fill="none" stroke="#666666" points="0,0 0,-75 132,-75 132,0 0,0"/>
</a>
</g>
</g>
<!-- Node2 -->
<g id="Node000002" class="node">
<title>Node2</title>
<g id="a_Node000002"><a xlink:href="../../d8/d01/interfaceAlaris_1_1Core_1_1Time_1_1IDayCounter.html" target="_top" xlink:title="Interface for day count conventions.">
<polygon fill="white" stroke="transparent" points="102,-298 22,-298 22,-234 102,-234 102,-298"/>
<text text-anchor="start" x="34" y="-286" font-family="Helvetica,sans-Serif" font-size="10.00">IDayCounter</text>
<text text-anchor="start" x="26" y="-271" font-family="Helvetica,sans-Serif" font-size="10.00">+</text>
<text text-anchor="start" x="37" y="-271" font-family="Helvetica,sans-Serif" font-size="10.00">Name</text>
<text text-anchor="start" x="26" y="-256" font-family="Helvetica,sans-Serif" font-size="10.00">+</text>
<text text-anchor="start" x="37" y="-256" font-family="Helvetica,sans-Serif" font-size="10.00">YearFraction()</text>
<text text-anchor="start" x="26" y="-241" font-family="Helvetica,sans-Serif" font-size="10.00">+</text>
<text text-anchor="start" x="37" y="-241" font-family="Helvetica,sans-Serif" font-size="10.00">DayCount()</text>
<polygon fill="#666666" stroke="#666666" points="22,-281 22,-281 102,-281 102,-281 22,-281"/>
<polygon fill="#666666" stroke="#666666" points="22,-266 22,-266 35,-266 35,-266 22,-266"/>
<polygon fill="#666666" stroke="#666666" points="35,-266 35,-266 102,-266 102,-266 35,-266"/>
<polygon fill="none" stroke="#666666" points="22,-234 22,-298 102,-298 102,-234 22,-234"/>
</a>
</g>
</g>
<!-- Node2&#45;&gt;Node1 -->
<g id="edge1_Node000001_Node000002" class="edge">
<title>Node2&#45;&gt;Node1</title>
<g id="a_edge1_Node000001_Node000002"><a xlink:title=" ">
<path fill="none" stroke="#63b8ff" d="M62.73,-223.72C63.48,-181.27 64.63,-115.8 65.35,-75.14"/>
<polygon fill="none" stroke="#63b8ff" points="59.23,-223.92 62.55,-233.98 66.22,-224.04 59.23,-223.92"/>
</a>
</g>
</g>
<!-- Node3 -->
<g id="Node000003" class="node">
<title>Node3</title>
<g id="a_Node000003"><a xlink:href="../../d7/d03/classAlaris_1_1Core_1_1Time_1_1CRTM007AThirty360.html" target="_top" xlink:title="30/360 (ISDA) day count convention. Used for some corporate bonds.">
<polygon fill="white" stroke="transparent" points="210,-197 78,-197 78,-122 210,-122 210,-197"/>
<text text-anchor="start" x="83" y="-184.5" font-family="Helvetica,sans-Serif" font-size="10.00">Alaris.Core.Time.CRTM007</text>
<text text-anchor="start" x="120.5" y="-173.5" font-family="Helvetica,sans-Serif" font-size="10.00">AThirty360</text>
<text text-anchor="start" x="95" y="-158.5" font-family="Helvetica,sans-Serif" font-size="10.00">+</text>
<text text-anchor="start" x="119" y="-158.5" font-family="Helvetica,sans-Serif" font-size="10.00">Name</text>
<text text-anchor="start" x="95" y="-143.5" font-family="Helvetica,sans-Serif" font-size="10.00">+</text>
<text text-anchor="start" x="119" y="-143.5" font-family="Helvetica,sans-Serif" font-size="10.00">YearFraction()</text>
<text text-anchor="start" x="95" y="-128.5" font-family="Helvetica,sans-Serif" font-size="10.00">+</text>
<text text-anchor="start" x="119" y="-128.5" font-family="Helvetica,sans-Serif" font-size="10.00">DayCount()</text>
<polygon fill="#666666" stroke="#666666" points="78,-168.5 78,-168.5 210,-168.5 210,-168.5 78,-168.5"/>
<polygon fill="#666666" stroke="#666666" points="78,-153.5 78,-153.5 117,-153.5 117,-153.5 78,-153.5"/>
<polygon fill="#666666" stroke="#666666" points="117,-153.5 117,-153.5 210,-153.5 210,-153.5 117,-153.5"/>
<polygon fill="none" stroke="#666666" points="78,-122 78,-197 210,-197 210,-122 78,-122"/>
</a>
</g>
</g>
<!-- Node2&#45;&gt;Node3 -->
<g id="edge3_Node000003_Node000002" class="edge">
<title>Node2&#45;&gt;Node3</title>
<g id="a_edge3_Node000003_Node000002"><a xlink:title=" ">
<path fill="none" stroke="#63b8ff" d="M92.72,-225.86C100.09,-216.45 107.95,-206.44 115.23,-197.16"/>
<polygon fill="none" stroke="#63b8ff" points="89.8,-223.9 86.38,-233.93 95.31,-228.22 89.8,-223.9"/>
</a>
</g>
</g>
<!-- Node3&#45;&gt;Node1 -->
<g id="edge2_Node000001_Node000003" class="edge">
<title>Node3&#45;&gt;Node1</title>
<g id="a_edge2_Node000001_Node000003"><a xlink:title=" ">
<path fill="none" stroke="#63b8ff" d="M120.17,-121.84C112.76,-110.44 104.48,-97.69 96.66,-85.67"/>
<polygon fill="none" stroke="#63b8ff" points="96.49,-85.41 89.87,-82.56 89.95,-75.35 96.57,-78.2 96.49,-85.41"/>
</a>
</g>
<text text-anchor="middle" x="130.5" y="-96" font-family="Helvetica,sans-Serif" font-size="10.00" fill="grey"> +Instance</text>
</g>
<!-- Node3&#45;&gt;Node3 -->
<g id="edge4_Node000003_Node000003" class="edge">
<title>Node3&#45;&gt;Node3</title>
<g id="a_edge4_Node000003_Node000003"><a xlink:title=" ">
<path fill="none" stroke="#63b8ff" d="M210.2,-169.17C220.77,-167.75 228,-164.53 228,-159.5 228,-156.75 225.84,-154.54 222.15,-152.87"/>
<polygon fill="none" stroke="#63b8ff" points="221.83,-152.79 215.03,-155.19 210.2,-149.83 217,-147.43 221.83,-152.79"/>
</a>
</g>
<text text-anchor="middle" x="251.5" y="-157" font-family="Helvetica,sans-Serif" font-size="10.00" fill="grey"> +Instance</text>
</g>
</g>
</svg>
</svg>

<style type='text/css'>
<![CDATA[
[data-mouse-over-selected='false'] { opacity: 0.7; }
[data-mouse-over-selected='true']  { opacity: 1.0; }
]]>
</style>
<script type="application/ecmascript"><![CDATA[
document.addEventListener('DOMContentLoaded', (event) => {
  highlightEdges();
  highlightAdjacentNodes();
});
]]></script>
</svg>
