<?xml version="1.0" encoding="UTF-8" standalone="no"?>
<!DOCTYPE svg PUBLIC "-//W3C//DTD SVG 1.1//EN"
 "http://www.w3.org/Graphics/SVG/1.1/DTD/svg11.dtd">
<!-- Generated by graphviz version 2.43.0 (0)
 -->
<!-- Title: Alaris.Strategy.Core.HestonParameters Pages: 1 -->
<svg width="140pt" height="233pt"
 viewBox="0.00 0.00 140.00 233.00" xmlns="http://www.w3.org/2000/svg" xmlns:xlink="http://www.w3.org/1999/xlink">
<g id="graph0" class="graph" transform="scale(1 1) rotate(0) translate(4 229)">
<title>Alaris.Strategy.Core.HestonParameters</title>
<!-- Node1 -->
<g id="Node000001" class="node">
<title>Node1</title>
<g id="a_Node000001"><a xlink:title="Heston model parameters.">
<polygon fill="#999999" stroke="transparent" points="132,-225 0,-225 0,0 132,0 132,-225"/>
<text text-anchor="start" x="5" y="-212.5" font-family="Helvetica,sans-Serif" font-size="10.00">Alaris.Strategy.Core.Heston</text>
<text text-anchor="start" x="40.5" y="-201.5" font-family="Helvetica,sans-Serif" font-size="10.00">Parameters</text>
<text text-anchor="start" x="4.5" y="-186.5" font-family="Helvetica,sans-Serif" font-size="10.00">+</text>
<text text-anchor="start" x="16" y="-186.5" font-family="Helvetica,sans-Serif" font-size="10.00">V0</text>
<text text-anchor="start" x="4.5" y="-171.5" font-family="Helvetica,sans-Serif" font-size="10.00">+</text>
<text text-anchor="start" x="16" y="-171.5" font-family="Helvetica,sans-Serif" font-size="10.00">Theta</text>
<text text-anchor="start" x="4.5" y="-156.5" font-family="Helvetica,sans-Serif" font-size="10.00">+</text>
<text text-anchor="start" x="16" y="-156.5" font-family="Helvetica,sans-Serif" font-size="10.00">Kappa</text>
<text text-anchor="start" x="4.5" y="-141.5" font-family="Helvetica,sans-Serif" font-size="10.00">+</text>
<text text-anchor="start" x="16" y="-141.5" font-family="Helvetica,sans-Serif" font-size="10.00">SigmaV</text>
<text text-anchor="start" x="4.5" y="-126.5" font-family="Helvetica,sans-Serif" font-size="10.00">+</text>
<text text-anchor="start" x="16" y="-126.5" font-family="Helvetica,sans-Serif" font-size="10.00">Rho</text>
<text text-anchor="start" x="4.5" y="-111.5" font-family="Helvetica,sans-Serif" font-size="10.00">+</text>
<text text-anchor="start" x="16" y="-111.5" font-family="Helvetica,sans-Serif" font-size="10.00">RiskFreeRate</text>
<text text-anchor="start" x="4.5" y="-96.5" font-family="Helvetica,sans-Serif" font-size="10.00">+</text>
<text text-anchor="start" x="16" y="-96.5" font-family="Helvetica,sans-Serif" font-size="10.00">DividendYield</text>
<text text-anchor="start" x="4.5" y="-81.5" font-family="Helvetica,sans-Serif" font-size="10.00">+</text>
<text text-anchor="start" x="16" y="-81.5" font-family="Helvetica,sans-Serif" font-size="10.00">DefaultEquity</text>
<text text-anchor="start" x="4.5" y="-66.5" font-family="Helvetica,sans-Serif" font-size="10.00">+</text>
<text text-anchor="start" x="16" y="-66.5" font-family="Helvetica,sans-Serif" font-size="10.00">HighVolRegime</text>
<text text-anchor="start" x="4.5" y="-51.5" font-family="Helvetica,sans-Serif" font-size="10.00">+</text>
<text text-anchor="start" x="16" y="-51.5" font-family="Helvetica,sans-Serif" font-size="10.00">Validate()</text>
<text text-anchor="start" x="4.5" y="-36.5" font-family="Helvetica,sans-Serif" font-size="10.00">+</text>
<text text-anchor="start" x="16" y="-36.5" font-family="Helvetica,sans-Serif" font-size="10.00">SatisfiesFellerCondition()</text>
<text text-anchor="start" x="4.5" y="-21.5" font-family="Helvetica,sans-Serif" font-size="10.00">+</text>
<text text-anchor="start" x="16" y="-21.5" font-family="Helvetica,sans-Serif" font-size="10.00">ExpectedVariance()</text>
<text text-anchor="start" x="4.5" y="-6.5" font-family="Helvetica,sans-Serif" font-size="10.00">+</text>
<text text-anchor="start" x="16" y="-6.5" font-family="Helvetica,sans-Serif" font-size="10.00">VarianceOfVariance()</text>
<polygon fill="#666666" stroke="#666666" points="0,-196.5 0,-196.5 132,-196.5 132,-196.5 0,-196.5"/>
<polygon fill="#666666" stroke="#666666" points="0,-61.5 0,-61.5 14,-61.5 14,-61.5 0,-61.5"/>
<polygon fill="#666666" stroke="#666666" points="14,-61.5 14,-61.5 132,-61.5 132,-61.5 14,-61.5"/>
<polygon fill="none" stroke="#666666" points="0,0 0,-225 132,-225 132,0 0,0"/>
</a>
</g>
</g>
</g>
</svg>
