<?xml version="1.0" encoding="UTF-8" standalone="no"?>
<!DOCTYPE svg PUBLIC "-//W3C//DTD SVG 1.1//EN"
 "http://www.w3.org/Graphics/SVG/1.1/DTD/svg11.dtd">
<!-- Generated by graphviz version 2.43.0 (0)
 -->
<!-- Title: Alaris.Infrastructure.Events.Core.EVCR002A Pages: 1 -->
<svg width="358pt" height="568pt"
 viewBox="0.00 0.00 358.00 568.00" xmlns="http://www.w3.org/2000/svg" xmlns:xlink="http://www.w3.org/1999/xlink">
<g id="graph0" class="graph" transform="scale(1 1) rotate(0) translate(4 564)">
<title>Alaris.Infrastructure.Events.Core.EVCR002A</title>
<!-- Node1 -->
<g id="Node000001" class="node">
<title>Node1</title>
<g id="a_Node000001"><a xlink:title="Interface for storing and retrieving events. Implementations must ensure events are never modified or...">
<polygon fill="#999999" stroke="transparent" points="258,-560 92,-560 92,-403 258,-403 258,-560"/>
<text text-anchor="start" x="113.5" y="-547.5" font-family="Helvetica,sans-Serif" font-size="10.00">Alaris.Infrastructure.Events.</text>
<text text-anchor="start" x="137" y="-536.5" font-family="Helvetica,sans-Serif" font-size="10.00">Core.EVCR002A</text>
<text text-anchor="start" x="173" y="-521.5" font-family="Helvetica,sans-Serif" font-size="10.00"> </text>
<text text-anchor="start" x="96" y="-506.5" font-family="Helvetica,sans-Serif" font-size="10.00">+</text>
<text text-anchor="start" x="107" y="-506.5" font-family="Helvetica,sans-Serif" font-size="10.00">AppendAsync&lt; TEvent &gt;()</text>
<text text-anchor="start" x="96" y="-491.5" font-family="Helvetica,sans-Serif" font-size="10.00">+</text>
<text text-anchor="start" x="107" y="-491.5" font-family="Helvetica,sans-Serif" font-size="10.00">GetEventsForAggregateAsync()</text>
<text text-anchor="start" x="96" y="-476.5" font-family="Helvetica,sans-Serif" font-size="10.00">+</text>
<text text-anchor="start" x="107" y="-476.5" font-family="Helvetica,sans-Serif" font-size="10.00">GetEventsFromSequenceAsync()</text>
<text text-anchor="start" x="96" y="-461.5" font-family="Helvetica,sans-Serif" font-size="10.00">+</text>
<text text-anchor="start" x="107" y="-461.5" font-family="Helvetica,sans-Serif" font-size="10.00">GetCurrentSequenceNumber</text>
<text text-anchor="start" x="107" y="-450.5" font-family="Helvetica,sans-Serif" font-size="10.00">Async()</text>
<text text-anchor="start" x="96" y="-435.5" font-family="Helvetica,sans-Serif" font-size="10.00">+</text>
<text text-anchor="start" x="107" y="-435.5" font-family="Helvetica,sans-Serif" font-size="10.00">GetEventsByCorrelationId</text>
<text text-anchor="start" x="107" y="-424.5" font-family="Helvetica,sans-Serif" font-size="10.00">Async()</text>
<text text-anchor="start" x="96" y="-409.5" font-family="Helvetica,sans-Serif" font-size="10.00">+</text>
<text text-anchor="start" x="107" y="-409.5" font-family="Helvetica,sans-Serif" font-size="10.00">GetEventsByTimeRangeAsync()</text>
<polygon fill="#666666" stroke="#666666" points="92,-531.5 92,-531.5 258,-531.5 258,-531.5 92,-531.5"/>
<polygon fill="#666666" stroke="#666666" points="92,-516.5 92,-516.5 258,-516.5 258,-516.5 92,-516.5"/>
<polygon fill="none" stroke="#666666" points="92,-403 92,-560 258,-560 258,-403 92,-403"/>
</a>
</g>
</g>
<!-- Node2 -->
<g id="Node000002" class="node">
<title>Node2</title>
<g id="a_Node000002"><a xlink:href="../../d5/d01/classAlaris_1_1Infrastructure_1_1Events_1_1Infrastructure_1_1EVIF001A.html" target="_top" xlink:title="In&#45;memory implementation of EVCR002A for development and testing. NOT suitable for production use &#45; e...">
<polygon fill="white" stroke="transparent" points="166,-277 0,-277 0,-90 166,-90 166,-277"/>
<text text-anchor="start" x="21.5" y="-264.5" font-family="Helvetica,sans-Serif" font-size="10.00">Alaris.Infrastructure.Events.</text>
<text text-anchor="start" x="30" y="-253.5" font-family="Helvetica,sans-Serif" font-size="10.00">Infrastructure.EVIF001A</text>
<text text-anchor="start" x="5.5" y="-238.5" font-family="Helvetica,sans-Serif" font-size="10.00">&#45;</text>
<text text-anchor="start" x="15" y="-238.5" font-family="Helvetica,sans-Serif" font-size="10.00">_events</text>
<text text-anchor="start" x="5.5" y="-223.5" font-family="Helvetica,sans-Serif" font-size="10.00">&#45;</text>
<text text-anchor="start" x="15" y="-223.5" font-family="Helvetica,sans-Serif" font-size="10.00">_currentSequence</text>
<text text-anchor="start" x="5.5" y="-208.5" font-family="Helvetica,sans-Serif" font-size="10.00">&#45;</text>
<text text-anchor="start" x="15" y="-208.5" font-family="Helvetica,sans-Serif" font-size="10.00">_lock</text>
<text text-anchor="start" x="4" y="-193.5" font-family="Helvetica,sans-Serif" font-size="10.00">+</text>
<text text-anchor="start" x="15" y="-193.5" font-family="Helvetica,sans-Serif" font-size="10.00">AppendAsync&lt; TEvent &gt;()</text>
<text text-anchor="start" x="4" y="-178.5" font-family="Helvetica,sans-Serif" font-size="10.00">+</text>
<text text-anchor="start" x="15" y="-178.5" font-family="Helvetica,sans-Serif" font-size="10.00">GetEventsForAggregateAsync()</text>
<text text-anchor="start" x="4" y="-163.5" font-family="Helvetica,sans-Serif" font-size="10.00">+</text>
<text text-anchor="start" x="15" y="-163.5" font-family="Helvetica,sans-Serif" font-size="10.00">GetEventsFromSequenceAsync()</text>
<text text-anchor="start" x="4" y="-148.5" font-family="Helvetica,sans-Serif" font-size="10.00">+</text>
<text text-anchor="start" x="15" y="-148.5" font-family="Helvetica,sans-Serif" font-size="10.00">GetCurrentSequenceNumber</text>
<text text-anchor="start" x="15" y="-137.5" font-family="Helvetica,sans-Serif" font-size="10.00">Async()</text>
<text text-anchor="start" x="4" y="-122.5" font-family="Helvetica,sans-Serif" font-size="10.00">+</text>
<text text-anchor="start" x="15" y="-122.5" font-family="Helvetica,sans-Serif" font-size="10.00">GetEventsByCorrelationId</text>
<text text-anchor="start" x="15" y="-111.5" font-family="Helvetica,sans-Serif" font-size="10.00">Async()</text>
<text text-anchor="start" x="4" y="-96.5" font-family="Helvetica,sans-Serif" font-size="10.00">+</text>
<text text-anchor="start" x="15" y="-96.5" font-family="Helvetica,sans-Serif" font-size="10.00">GetEventsByTimeRangeAsync()</text>
<polygon fill="#666666" stroke="#666666" points="0,-248.5 0,-248.5 166,-248.5 166,-248.5 0,-248.5"/>
<polygon fill="#666666" stroke="#666666" points="0,-203.5 0,-203.5 13,-203.5 13,-203.5 0,-203.5"/>
<polygon fill="#666666" stroke="#666666" points="13,-203.5 13,-203.5 166,-203.5 166,-203.5 13,-203.5"/>
<polygon fill="none" stroke="#666666" points="0,-90 0,-277 166,-277 166,-90 0,-90"/>
</a>
</g>
</g>
<!-- Node1&#45;&gt;Node2 -->
<g id="edge1_Node000001_Node000002" class="edge">
<title>Node1&#45;&gt;Node2</title>
<g id="a_edge1_Node000001_Node000002"><a xlink:title=" ">
<path fill="none" stroke="#63b8ff" d="M147.83,-393.09C136.48,-356.55 123.27,-314.07 111.75,-277.01"/>
<polygon fill="none" stroke="#63b8ff" points="144.52,-394.22 150.83,-402.73 151.2,-392.14 144.52,-394.22"/>
</a>
</g>
</g>
<!-- Node3 -->
<g id="Node000003" class="node">
<title>Node3</title>
<g id="a_Node000003"><a xlink:href="../../dd/d01/classAlaris_1_1Infrastructure_1_1Events_1_1Infrastructure_1_1EVIF001B.html" target="_top" xlink:title="File&#45;based persistent implementation of EVCR002A for production use.">
<polygon fill="white" stroke="transparent" points="350,-367 184,-367 184,0 350,0 350,-367"/>
<text text-anchor="start" x="205.5" y="-354.5" font-family="Helvetica,sans-Serif" font-size="10.00">Alaris.Infrastructure.Events.</text>
<text text-anchor="start" x="214" y="-343.5" font-family="Helvetica,sans-Serif" font-size="10.00">Infrastructure.EVIF001B</text>
<text text-anchor="start" x="189.5" y="-328.5" font-family="Helvetica,sans-Serif" font-size="10.00">&#45;</text>
<text text-anchor="start" x="199" y="-328.5" font-family="Helvetica,sans-Serif" font-size="10.00">_eventsPath</text>
<text text-anchor="start" x="189.5" y="-313.5" font-family="Helvetica,sans-Serif" font-size="10.00">&#45;</text>
<text text-anchor="start" x="199" y="-313.5" font-family="Helvetica,sans-Serif" font-size="10.00">_sequencePath</text>
<text text-anchor="start" x="189.5" y="-298.5" font-family="Helvetica,sans-Serif" font-size="10.00">&#45;</text>
<text text-anchor="start" x="199" y="-298.5" font-family="Helvetica,sans-Serif" font-size="10.00">_writeSemaphore</text>
<text text-anchor="start" x="189.5" y="-283.5" font-family="Helvetica,sans-Serif" font-size="10.00">&#45;</text>
<text text-anchor="start" x="199" y="-283.5" font-family="Helvetica,sans-Serif" font-size="10.00">_readSemaphore</text>
<text text-anchor="start" x="189.5" y="-268.5" font-family="Helvetica,sans-Serif" font-size="10.00">&#45;</text>
<text text-anchor="start" x="199" y="-268.5" font-family="Helvetica,sans-Serif" font-size="10.00">_currentSequence</text>
<text text-anchor="start" x="189.5" y="-253.5" font-family="Helvetica,sans-Serif" font-size="10.00">&#45;</text>
<text text-anchor="start" x="199" y="-253.5" font-family="Helvetica,sans-Serif" font-size="10.00">_disposed</text>
<text text-anchor="start" x="189.5" y="-238.5" font-family="Helvetica,sans-Serif" font-size="10.00">&#45;</text>
<text text-anchor="start" x="199" y="-238.5" font-family="Helvetica,sans-Serif" font-size="10.00">HeaderSize</text>
<text text-anchor="start" x="189.5" y="-223.5" font-family="Helvetica,sans-Serif" font-size="10.00">&#45;</text>
<text text-anchor="start" x="199" y="-223.5" font-family="Helvetica,sans-Serif" font-size="10.00">MaxRecordSize</text>
<text text-anchor="start" x="188" y="-208.5" font-family="Helvetica,sans-Serif" font-size="10.00">+</text>
<text text-anchor="start" x="199" y="-208.5" font-family="Helvetica,sans-Serif" font-size="10.00">EVIF001B()</text>
<text text-anchor="start" x="188" y="-193.5" font-family="Helvetica,sans-Serif" font-size="10.00">+</text>
<text text-anchor="start" x="199" y="-193.5" font-family="Helvetica,sans-Serif" font-size="10.00">AppendAsync&lt; TEvent &gt;()</text>
<text text-anchor="start" x="188" y="-178.5" font-family="Helvetica,sans-Serif" font-size="10.00">+</text>
<text text-anchor="start" x="199" y="-178.5" font-family="Helvetica,sans-Serif" font-size="10.00">GetEventsForAggregateAsync()</text>
<text text-anchor="start" x="188" y="-163.5" font-family="Helvetica,sans-Serif" font-size="10.00">+</text>
<text text-anchor="start" x="199" y="-163.5" font-family="Helvetica,sans-Serif" font-size="10.00">GetEventsFromSequenceAsync()</text>
<text text-anchor="start" x="188" y="-148.5" font-family="Helvetica,sans-Serif" font-size="10.00">+</text>
<text text-anchor="start" x="199" y="-148.5" font-family="Helvetica,sans-Serif" font-size="10.00">GetCurrentSequenceNumber</text>
<text text-anchor="start" x="199" y="-137.5" font-family="Helvetica,sans-Serif" font-size="10.00">Async()</text>
<text text-anchor="start" x="188" y="-122.5" font-family="Helvetica,sans-Serif" font-size="10.00">+</text>
<text text-anchor="start" x="199" y="-122.5" font-family="Helvetica,sans-Serif" font-size="10.00">GetEventsByCorrelationId</text>
<text text-anchor="start" x="199" y="-111.5" font-family="Helvetica,sans-Serif" font-size="10.00">Async()</text>
<text text-anchor="start" x="188" y="-96.5" font-family="Helvetica,sans-Serif" font-size="10.00">+</text>
<text text-anchor="start" x="199" y="-96.5" font-family="Helvetica,sans-Serif" font-size="10.00">GetEventsByTimeRangeAsync()</text>
<text text-anchor="start" x="188" y="-81.5" font-family="Helvetica,sans-Serif" font-size="10.00">+</text>
<text text-anchor="start" x="199" y="-81.5" font-family="Helvetica,sans-Serif" font-size="10.00">Dispose()</text>
<text text-anchor="start" x="189.5" y="-66.5" font-family="Helvetica,sans-Serif" font-size="10.00">&#45;</text>
<text text-anchor="start" x="199" y="-66.5" font-family="Helvetica,sans-Serif" font-size="10.00">ReadEventsAsync()</text>
<text text-anchor="start" x="189.5" y="-51.5" font-family="Helvetica,sans-Serif" font-size="10.00">&#45;</text>
<text text-anchor="start" x="199" y="-51.5" font-family="Helvetica,sans-Serif" font-size="10.00">RecoverSequence()</text>
<text text-anchor="start" x="189.5" y="-36.5" font-family="Helvetica,sans-Serif" font-size="10.00">&#45;</text>
<text text-anchor="start" x="199" y="-36.5" font-family="Helvetica,sans-Serif" font-size="10.00">PersistSequence()</text>
<text text-anchor="start" x="189.5" y="-21.5" font-family="Helvetica,sans-Serif" font-size="10.00">&#45;</text>
<text text-anchor="start" x="199" y="-21.5" font-family="Helvetica,sans-Serif" font-size="10.00">SerializeEnvelope()</text>
<text text-anchor="start" x="189.5" y="-6.5" font-family="Helvetica,sans-Serif" font-size="10.00">&#45;</text>
<text text-anchor="start" x="199" y="-6.5" font-family="Helvetica,sans-Serif" font-size="10.00">DeserializeEnvelope()</text>
<polygon fill="#666666" stroke="#666666" points="184,-338.5 184,-338.5 350,-338.5 350,-338.5 184,-338.5"/>
<polygon fill="#666666" stroke="#666666" points="184,-218.5 184,-218.5 197,-218.5 197,-218.5 184,-218.5"/>
<polygon fill="#666666" stroke="#666666" points="197,-218.5 197,-218.5 350,-218.5 350,-218.5 197,-218.5"/>
<polygon fill="none" stroke="#666666" points="184,0 184,-367 350,-367 350,0 184,0"/>
</a>
</g>
</g>
<!-- Node1&#45;&gt;Node3 -->
<g id="edge2_Node000001_Node000003" class="edge">
<title>Node1&#45;&gt;Node3</title>
<g id="a_edge2_Node000001_Node000003"><a xlink:title=" ">
<path fill="none" stroke="#63b8ff" d="M202.19,-393.03C204.79,-384.64 207.5,-375.93 210.26,-367.05"/>
<polygon fill="none" stroke="#63b8ff" points="198.8,-392.14 199.17,-402.73 205.48,-394.22 198.8,-392.14"/>
</a>
</g>
</g>
</g>
</svg>
