<?xml version="1.0" encoding="UTF-8" standalone="no"?>
<!DOCTYPE svg PUBLIC "-//W3C//DTD SVG 1.1//EN"
 "http://www.w3.org/Graphics/SVG/1.1/DTD/svg11.dtd">
<!-- Generated by graphviz version 2.43.0 (0)
 -->
<!-- Title: Alaris.Infrastructure.Events.Core.EVCR002A Pages: 1 -->
<!--zoomable 568 -->

<svg id="main" version="1.1" xmlns="http://www.w3.org/2000/svg" xmlns:xlink="http://www.w3.org/1999/xlink" xml:space="preserve" onload="init(evt)">
<style type="text/css"><![CDATA[
.node, .edge {opacity: 0.7;}
.node.selected, .edge.selected {opacity: 1;}
.edge:hover path { stroke: red; }
.edge:hover polygon { stroke: red; fill: red; }
]]></style>

<defs>
  <circle id="rim" cx="0" cy="0" r="7"/>
  <circle id="rim2" cx="0" cy="0" r="3.5"/>
  <g id="zoomPlus">
    <use xlink:href="#rim" fill="#404040"><set attributeName="fill" to="#808080" begin="zoomplus.mouseover" end="zoomplus.mouseout"/></use>
    <path d="M-4,0h8M0,-4v8" fill="none" stroke="white" stroke-width="1.5" pointer-events="none"/>
  </g>
  <g id="zoomMin">
    <use xlink:href="#rim" fill="#404040"><set attributeName="fill" to="#808080" begin="zoomminus.mouseover" end="zoomminus.mouseout"/></use>
    <path d="M-4,0h8" fill="none" stroke="white" stroke-width="1.5" pointer-events="none"/>
  </g>
  <g id="arrowUp" transform="translate(30 24)">
    <use xlink:href="#rim"/>
    <path pointer-events="none" fill="none" stroke="white" stroke-width="1.5" d="M0,-3.0v7 M-2.5,-0.5L0,-3.0L2.5,-0.5"/>
  </g>
  <g id="arrowRight" transform="rotate(90) translate(36 -43)">
    <use xlink:href="#rim"/>
    <path pointer-events="none" fill="none" stroke="white" stroke-width="1.5" d="M0,-3.0v7 M-2.5,-0.5L0,-3.0L2.5,-0.5"/>
  </g>
  <g id="arrowDown" transform="rotate(180) translate(-30 -48)">
    <use xlink:href="#rim"/>
    <path pointer-events="none" fill="none" stroke="white" stroke-width="1.5" d="M0,-3.0v7 M-2.5,-0.5L0,-3.0L2.5,-0.5"/>
  </g>
  <g id="arrowLeft" transform="rotate(270) translate(-36 17)">
    <use xlink:href="#rim"/>
    <path pointer-events="none" fill="none" stroke="white" stroke-width="1.5" d="M0,-3.0v7 M-2.5,-0.5L0,-3.0L2.5,-0.5"/>
  </g>
  <g id="resetDef">
    <use xlink:href="#rim2" fill="#404040"><set attributeName="fill" to="#808080" begin="reset.mouseover" end="reset.mouseout"/></use>
  </g>
</defs>
<script type="application/ecmascript">
var viewWidth = 358;
var viewHeight = 568;
var sectionId = 'dynsection-0';
</script>
<script type="application/ecmascript" xlink:href="../../svg.min.js"/>
<svg id="graph" class="graph">
<g id="viewport">
<title>Alaris.Infrastructure.Events.Core.EVCR002A</title>
<!-- Node1 -->
<g id="Node000001" class="node">
<title>Node1</title>
<g id="a_Node000001"><a xlink:title="Interface for storing and retrieving events. Implementations must ensure events are never modified or...">
<polygon fill="#999999" stroke="transparent" points="258,-560 92,-560 92,-403 258,-403 258,-560"/>
<text text-anchor="start" x="113.5" y="-547.5" font-family="Helvetica,sans-Serif" font-size="10.00">Alaris.Infrastructure.Events.</text>
<text text-anchor="start" x="137" y="-536.5" font-family="Helvetica,sans-Serif" font-size="10.00">Core.EVCR002A</text>
<text text-anchor="start" x="173" y="-521.5" font-family="Helvetica,sans-Serif" font-size="10.00"> </text>
<text text-anchor="start" x="96" y="-506.5" font-family="Helvetica,sans-Serif" font-size="10.00">+</text>
<text text-anchor="start" x="107" y="-506.5" font-family="Helvetica,sans-Serif" font-size="10.00">AppendAsync&lt; TEvent &gt;()</text>
<text text-anchor="start" x="96" y="-491.5" font-family="Helvetica,sans-Serif" font-size="10.00">+</text>
<text text-anchor="start" x="107" y="-491.5" font-family="Helvetica,sans-Serif" font-size="10.00">GetEventsForAggregateAsync()</text>
<text text-anchor="start" x="96" y="-476.5" font-family="Helvetica,sans-Serif" font-size="10.00">+</text>
<text text-anchor="start" x="107" y="-476.5" font-family="Helvetica,sans-Serif" font-size="10.00">GetEventsFromSequenceAsync()</text>
<text text-anchor="start" x="96" y="-461.5" font-family="Helvetica,sans-Serif" font-size="10.00">+</text>
<text text-anchor="start" x="107" y="-461.5" font-family="Helvetica,sans-Serif" font-size="10.00">GetCurrentSequenceNumber</text>
<text text-anchor="start" x="107" y="-450.5" font-family="Helvetica,sans-Serif" font-size="10.00">Async()</text>
<text text-anchor="start" x="96" y="-435.5" font-family="Helvetica,sans-Serif" font-size="10.00">+</text>
<text text-anchor="start" x="107" y="-435.5" font-family="Helvetica,sans-Serif" font-size="10.00">GetEventsByCorrelationId</text>
<text text-anchor="start" x="107" y="-424.5" font-family="Helvetica,sans-Serif" font-size="10.00">Async()</text>
<text text-anchor="start" x="96" y="-409.5" font-family="Helvetica,sans-Serif" font-size="10.00">+</text>
<text text-anchor="start" x="107" y="-409.5" font-family="Helvetica,sans-Serif" font-size="10.00">GetEventsByTimeRangeAsync()</text>
<polygon fill="#666666" stroke="#666666" points="92,-531.5 92,-531.5 258,-531.5 258,-531.5 92,-531.5"/>
<polygon fill="#666666" stroke="#666666" points="92,-516.5 92,-516.5 258,-516.5 258,-516.5 92,-516.5"/>
<polygon fill="none" stroke="#666666" points="92,-403 92,-560 258,-560 258,-403 92,-403"/>
</a>
</g>
</g>
<!-- Node2 -->
<g id="Node000002" class="node">
<title>Node2</title>
<g id="a_Node000002"><a xlink:href="../../d5/d01/classAlaris_1_1Infrastructure_1_1Events_1_1Infrastructure_1_1EVIF001A.html" target="_top" xlink:title="In&#45;memory implementation of EVCR002A for development and testing. NOT suitable for production use &#45; e...">
<polygon fill="white" stroke="transparent" points="166,-277 0,-277 0,-90 166,-90 166,-277"/>
<text text-anchor="start" x="21.5" y="-264.5" font-family="Helvetica,sans-Serif" font-size="10.00">Alaris.Infrastructure.Events.</text>
<text text-anchor="start" x="30" y="-253.5" font-family="Helvetica,sans-Serif" font-size="10.00">Infrastructure.EVIF001A</text>
<text text-anchor="start" x="5.5" y="-238.5" font-family="Helvetica,sans-Serif" font-size="10.00">&#45;</text>
<text text-anchor="start" x="15" y="-238.5" font-family="Helvetica,sans-Serif" font-size="10.00">_events</text>
<text text-anchor="start" x="5.5" y="-223.5" font-family="Helvetica,sans-Serif" font-size="10.00">&#45;</text>
<text text-anchor="start" x="15" y="-223.5" font-family="Helvetica,sans-Serif" font-size="10.00">_currentSequence</text>
<text text-anchor="start" x="5.5" y="-208.5" font-family="Helvetica,sans-Serif" font-size="10.00">&#45;</text>
<text text-anchor="start" x="15" y="-208.5" font-family="Helvetica,sans-Serif" font-size="10.00">_lock</text>
<text text-anchor="start" x="4" y="-193.5" font-family="Helvetica,sans-Serif" font-size="10.00">+</text>
<text text-anchor="start" x="15" y="-193.5" font-family="Helvetica,sans-Serif" font-size="10.00">AppendAsync&lt; TEvent &gt;()</text>
<text text-anchor="start" x="4" y="-178.5" font-family="Helvetica,sans-Serif" font-size="10.00">+</text>
<text text-anchor="start" x="15" y="-178.5" font-family="Helvetica,sans-Serif" font-size="10.00">GetEventsForAggregateAsync()</text>
<text text-anchor="start" x="4" y="-163.5" font-family="Helvetica,sans-Serif" font-size="10.00">+</text>
<text text-anchor="start" x="15" y="-163.5" font-family="Helvetica,sans-Serif" font-size="10.00">GetEventsFromSequenceAsync()</text>
<text text-anchor="start" x="4" y="-148.5" font-family="Helvetica,sans-Serif" font-size="10.00">+</text>
<text text-anchor="start" x="15" y="-148.5" font-family="Helvetica,sans-Serif" font-size="10.00">GetCurrentSequenceNumber</text>
<text text-anchor="start" x="15" y="-137.5" font-family="Helvetica,sans-Serif" font-size="10.00">Async()</text>
<text text-anchor="start" x="4" y="-122.5" font-family="Helvetica,sans-Serif" font-size="10.00">+</text>
<text text-anchor="start" x="15" y="-122.5" font-family="Helvetica,sans-Serif" font-size="10.00">GetEventsByCorrelationId</text>
<text text-anchor="start" x="15" y="-111.5" font-family="Helvetica,sans-Serif" font-size="10.00">Async()</text>
<text text-anchor="start" x="4" y="-96.5" font-family="Helvetica,sans-Serif" font-size="10.00">+</text>
<text text-anchor="start" x="15" y="-96.5" font-family="Helvetica,sans-Serif" font-size="10.00">GetEventsByTimeRangeAsync()</text>
<polygon fill="#666666" stroke="#666666" points="0,-248.5 0,-248.5 166,-248.5 166,-248.5 0,-248.5"/>
<polygon fill="#666666" stroke="#666666" points="0,-203.5 0,-203.5 13,-203.5 13,-203.5 0,-203.5"/>
<polygon fill="#666666" stroke="#666666" points="13,-203.5 13,-203.5 166,-203.5 166,-203.5 13,-203.5"/>
<polygon fill="none" stroke="#666666" points="0,-90 0,-277 166,-277 166,-90 0,-90"/>
</a>
</g>
</g>
<!-- Node1&#45;&gt;Node2 -->
<g id="edge1_Node000001_Node000002" class="edge">
<title>Node1&#45;&gt;Node2</title>
<g id="a_edge1_Node000001_Node000002"><a xlink:title=" ">
<path fill="none" stroke="#63b8ff" d="M147.83,-393.09C136.48,-356.55 123.27,-314.07 111.75,-277.01"/>
<polygon fill="none" stroke="#63b8ff" points="144.52,-394.22 150.83,-402.73 151.2,-392.14 144.52,-394.22"/>
</a>
</g>
</g>
<!-- Node3 -->
<g id="Node000003" class="node">
<title>Node3</title>
<g id="a_Node000003"><a xlink:href="../../dd/d01/classAlaris_1_1Infrastructure_1_1Events_1_1Infrastructure_1_1EVIF001B.html" target="_top" xlink:title="File&#45;based persistent implementation of EVCR002A for production use.">
<polygon fill="white" stroke="transparent" points="350,-367 184,-367 184,0 350,0 350,-367"/>
<text text-anchor="start" x="205.5" y="-354.5" font-family="Helvetica,sans-Serif" font-size="10.00">Alaris.Infrastructure.Events.</text>
<text text-anchor="start" x="214" y="-343.5" font-family="Helvetica,sans-Serif" font-size="10.00">Infrastructure.EVIF001B</text>
<text text-anchor="start" x="189.5" y="-328.5" font-family="Helvetica,sans-Serif" font-size="10.00">&#45;</text>
<text text-anchor="start" x="199" y="-328.5" font-family="Helvetica,sans-Serif" font-size="10.00">_eventsPath</text>
<text text-anchor="start" x="189.5" y="-313.5" font-family="Helvetica,sans-Serif" font-size="10.00">&#45;</text>
<text text-anchor="start" x="199" y="-313.5" font-family="Helvetica,sans-Serif" font-size="10.00">_sequencePath</text>
<text text-anchor="start" x="189.5" y="-298.5" font-family="Helvetica,sans-Serif" font-size="10.00">&#45;</text>
<text text-anchor="start" x="199" y="-298.5" font-family="Helvetica,sans-Serif" font-size="10.00">_writeSemaphore</text>
<text text-anchor="start" x="189.5" y="-283.5" font-family="Helvetica,sans-Serif" font-size="10.00">&#45;</text>
<text text-anchor="start" x="199" y="-283.5" font-family="Helvetica,sans-Serif" font-size="10.00">_readSemaphore</text>
<text text-anchor="start" x="189.5" y="-268.5" font-family="Helvetica,sans-Serif" font-size="10.00">&#45;</text>
<text text-anchor="start" x="199" y="-268.5" font-family="Helvetica,sans-Serif" font-size="10.00">_currentSequence</text>
<text text-anchor="start" x="189.5" y="-253.5" font-family="Helvetica,sans-Serif" font-size="10.00">&#45;</text>
<text text-anchor="start" x="199" y="-253.5" font-family="Helvetica,sans-Serif" font-size="10.00">_disposed</text>
<text text-anchor="start" x="189.5" y="-238.5" font-family="Helvetica,sans-Serif" font-size="10.00">&#45;</text>
<text text-anchor="start" x="199" y="-238.5" font-family="Helvetica,sans-Serif" font-size="10.00">HeaderSize</text>
<text text-anchor="start" x="189.5" y="-223.5" font-family="Helvetica,sans-Serif" font-size="10.00">&#45;</text>
<text text-anchor="start" x="199" y="-223.5" font-family="Helvetica,sans-Serif" font-size="10.00">MaxRecordSize</text>
<text text-anchor="start" x="188" y="-208.5" font-family="Helvetica,sans-Serif" font-size="10.00">+</text>
<text text-anchor="start" x="199" y="-208.5" font-family="Helvetica,sans-Serif" font-size="10.00">EVIF001B()</text>
<text text-anchor="start" x="188" y="-193.5" font-family="Helvetica,sans-Serif" font-size="10.00">+</text>
<text text-anchor="start" x="199" y="-193.5" font-family="Helvetica,sans-Serif" font-size="10.00">AppendAsync&lt; TEvent &gt;()</text>
<text text-anchor="start" x="188" y="-178.5" font-family="Helvetica,sans-Serif" font-size="10.00">+</text>
<text text-anchor="start" x="199" y="-178.5" font-family="Helvetica,sans-Serif" font-size="10.00">GetEventsForAggregateAsync()</text>
<text text-anchor="start" x="188" y="-163.5" font-family="Helvetica,sans-Serif" font-size="10.00">+</text>
<text text-anchor="start" x="199" y="-163.5" font-family="Helvetica,sans-Serif" font-size="10.00">GetEventsFromSequenceAsync()</text>
<text text-anchor="start" x="188" y="-148.5" font-family="Helvetica,sans-Serif" font-size="10.00">+</text>
<text text-anchor="start" x="199" y="-148.5" font-family="Helvetica,sans-Serif" font-size="10.00">GetCurrentSequenceNumber</text>
<text text-anchor="start" x="199" y="-137.5" font-family="Helvetica,sans-Serif" font-size="10.00">Async()</text>
<text text-anchor="start" x="188" y="-122.5" font-family="Helvetica,sans-Serif" font-size="10.00">+</text>
<text text-anchor="start" x="199" y="-122.5" font-family="Helvetica,sans-Serif" font-size="10.00">GetEventsByCorrelationId</text>
<text text-anchor="start" x="199" y="-111.5" font-family="Helvetica,sans-Serif" font-size="10.00">Async()</text>
<text text-anchor="start" x="188" y="-96.5" font-family="Helvetica,sans-Serif" font-size="10.00">+</text>
<text text-anchor="start" x="199" y="-96.5" font-family="Helvetica,sans-Serif" font-size="10.00">GetEventsByTimeRangeAsync()</text>
<text text-anchor="start" x="188" y="-81.5" font-family="Helvetica,sans-Serif" font-size="10.00">+</text>
<text text-anchor="start" x="199" y="-81.5" font-family="Helvetica,sans-Serif" font-size="10.00">Dispose()</text>
<text text-anchor="start" x="189.5" y="-66.5" font-family="Helvetica,sans-Serif" font-size="10.00">&#45;</text>
<text text-anchor="start" x="199" y="-66.5" font-family="Helvetica,sans-Serif" font-size="10.00">ReadEventsAsync()</text>
<text text-anchor="start" x="189.5" y="-51.5" font-family="Helvetica,sans-Serif" font-size="10.00">&#45;</text>
<text text-anchor="start" x="199" y="-51.5" font-family="Helvetica,sans-Serif" font-size="10.00">RecoverSequence()</text>
<text text-anchor="start" x="189.5" y="-36.5" font-family="Helvetica,sans-Serif" font-size="10.00">&#45;</text>
<text text-anchor="start" x="199" y="-36.5" font-family="Helvetica,sans-Serif" font-size="10.00">PersistSequence()</text>
<text text-anchor="start" x="189.5" y="-21.5" font-family="Helvetica,sans-Serif" font-size="10.00">&#45;</text>
<text text-anchor="start" x="199" y="-21.5" font-family="Helvetica,sans-Serif" font-size="10.00">SerializeEnvelope()</text>
<text text-anchor="start" x="189.5" y="-6.5" font-family="Helvetica,sans-Serif" font-size="10.00">&#45;</text>
<text text-anchor="start" x="199" y="-6.5" font-family="Helvetica,sans-Serif" font-size="10.00">DeserializeEnvelope()</text>
<polygon fill="#666666" stroke="#666666" points="184,-338.5 184,-338.5 350,-338.5 350,-338.5 184,-338.5"/>
<polygon fill="#666666" stroke="#666666" points="184,-218.5 184,-218.5 197,-218.5 197,-218.5 184,-218.5"/>
<polygon fill="#666666" stroke="#666666" points="197,-218.5 197,-218.5 350,-218.5 350,-218.5 197,-218.5"/>
<polygon fill="none" stroke="#666666" points="184,0 184,-367 350,-367 350,0 184,0"/>
</a>
</g>
</g>
<!-- Node1&#45;&gt;Node3 -->
<g id="edge2_Node000001_Node000003" class="edge">
<title>Node1&#45;&gt;Node3</title>
<g id="a_edge2_Node000001_Node000003"><a xlink:title=" ">
<path fill="none" stroke="#63b8ff" d="M202.19,-393.03C204.79,-384.64 207.5,-375.93 210.26,-367.05"/>
<polygon fill="none" stroke="#63b8ff" points="198.8,-392.14 199.17,-402.73 205.48,-394.22 198.8,-392.14"/>
</a>
</g>
</g>
</g>
</svg>

<g id="navigator" transform="translate(0 0)" fill="#404254">
  <rect fill="#f2f5e9" fill-opacity="0.5" stroke="#606060" stroke-width=".5" x="0" y="0" width="60" height="60"/>
  <use id="zoomplus" xlink:href="#zoomPlus" x="17" y="9" onmousedown="handleZoom(evt,'in')"/>
  <use id="zoomminus" xlink:href="#zoomMin" x="42" y="9" onmousedown="handleZoom(evt,'out')"/>
  <use id="reset" xlink:href="#resetDef" x="30" y="36" onmousedown="handleReset()"/>
   <use id="arrowup" xlink:href="#arrowUp" x="0" y="0" onmousedown="handlePan(0,-1)"/>
  <use id="arrowright" xlink:href="#arrowRight" x="0" y="0" onmousedown="handlePan(1,0)"/>
  <use id="arrowdown" xlink:href="#arrowDown" x="0" y="0" onmousedown="handlePan(0,1)"/>
  <use id="arrowleft" xlink:href="#arrowLeft" x="0" y="0" onmousedown="handlePan(-1,0)"/>
</g>
<svg viewBox="0 0 15 15" width="100%" height="30px" preserveAspectRatio="xMaxYMin meet">
 <g id="arrow_out" transform="scale(0.3 0.3)">
  <a xlink:href="interfaceAlaris_1_1Infrastructure_1_1Events_1_1Core_1_1EVCR002A__inherit__graph_org.svg" target="_base">
   <rect id="button" ry="5" rx="5" y="6" x="6" height="38" width="38"
        fill="#f2f5e9" fill-opacity="0.5" stroke="#606060" stroke-width="1.0"/>
   <path id="arrow"
     d="M 11.500037,31.436501 C 11.940474,20.09759 22.043105,11.32322 32.158766,21.979434 L 37.068811,17.246167 C 37.068811,17.246167 37.088388,32 37.088388,32 L 22.160133,31.978069 C 22.160133,31.978069 26.997745,27.140456 26.997745,27.140456 C 18.528582,18.264221 13.291696,25.230495 11.500037,31.436501 z"
     style="fill:#404040;"/>
  </a>
 </g>
</svg>

<style type='text/css'>
<![CDATA[
[data-mouse-over-selected='false'] { opacity: 0.7; }
[data-mouse-over-selected='true']  { opacity: 1.0; }
]]>
</style>
<script type="application/ecmascript"><![CDATA[
document.addEventListener('DOMContentLoaded', (event) => {
  highlightEdges();
  highlightAdjacentNodes();
});
]]></script>
</svg>
