<?xml version="1.0" encoding="UTF-8" standalone="no"?>
<!DOCTYPE svg PUBLIC "-//W3C//DTD SVG 1.1//EN"
 "http://www.w3.org/Graphics/SVG/1.1/DTD/svg11.dtd">
<!-- Generated by graphviz version 2.43.0 (0)
 -->
<!-- Title: Alaris.Strategy.Bridge.STBR001A Pages: 1 -->
<!--zoomable 1100 -->

<svg id="main" version="1.1" xmlns="http://www.w3.org/2000/svg" xmlns:xlink="http://www.w3.org/1999/xlink" xml:space="preserve" onload="init(evt)">
<style type="text/css"><![CDATA[
.node, .edge {opacity: 0.7;}
.node.selected, .edge.selected {opacity: 1;}
.edge:hover path { stroke: red; }
.edge:hover polygon { stroke: red; fill: red; }
]]></style>

<defs>
  <circle id="rim" cx="0" cy="0" r="7"/>
  <circle id="rim2" cx="0" cy="0" r="3.5"/>
  <g id="zoomPlus">
    <use xlink:href="#rim" fill="#404040"><set attributeName="fill" to="#808080" begin="zoomplus.mouseover" end="zoomplus.mouseout"/></use>
    <path d="M-4,0h8M0,-4v8" fill="none" stroke="white" stroke-width="1.5" pointer-events="none"/>
  </g>
  <g id="zoomMin">
    <use xlink:href="#rim" fill="#404040"><set attributeName="fill" to="#808080" begin="zoomminus.mouseover" end="zoomminus.mouseout"/></use>
    <path d="M-4,0h8" fill="none" stroke="white" stroke-width="1.5" pointer-events="none"/>
  </g>
  <g id="arrowUp" transform="translate(30 24)">
    <use xlink:href="#rim"/>
    <path pointer-events="none" fill="none" stroke="white" stroke-width="1.5" d="M0,-3.0v7 M-2.5,-0.5L0,-3.0L2.5,-0.5"/>
  </g>
  <g id="arrowRight" transform="rotate(90) translate(36 -43)">
    <use xlink:href="#rim"/>
    <path pointer-events="none" fill="none" stroke="white" stroke-width="1.5" d="M0,-3.0v7 M-2.5,-0.5L0,-3.0L2.5,-0.5"/>
  </g>
  <g id="arrowDown" transform="rotate(180) translate(-30 -48)">
    <use xlink:href="#rim"/>
    <path pointer-events="none" fill="none" stroke="white" stroke-width="1.5" d="M0,-3.0v7 M-2.5,-0.5L0,-3.0L2.5,-0.5"/>
  </g>
  <g id="arrowLeft" transform="rotate(270) translate(-36 17)">
    <use xlink:href="#rim"/>
    <path pointer-events="none" fill="none" stroke="white" stroke-width="1.5" d="M0,-3.0v7 M-2.5,-0.5L0,-3.0L2.5,-0.5"/>
  </g>
  <g id="resetDef">
    <use xlink:href="#rim2" fill="#404040"><set attributeName="fill" to="#808080" begin="reset.mouseover" end="reset.mouseout"/></use>
  </g>
</defs>
<script type="application/ecmascript">
var viewWidth = 660;
var viewHeight = 1100;
var sectionId = 'dynsection-1';
</script>
<script type="application/ecmascript" xlink:href="../../svg.min.js"/>
<svg id="graph" class="graph">
<g id="viewport">
<title>Alaris.Strategy.Bridge.STBR001A</title>
<!-- Node1 -->
<g id="Node000001" class="node">
<title>Node1</title>
<g id="a_Node000001"><a xlink:title="Unified pricing engine that automatically selects between Alaris native engines based on interest rat...">
<polygon fill="#999999" stroke="transparent" points="267,-289 110,-289 110,0 267,0 267,-289"/>
<text text-anchor="start" x="115.5" y="-276.5" font-family="Helvetica,sans-Serif" font-size="10.00">Alaris.Strategy.Bridge.STBR001A</text>
<text text-anchor="start" x="117.5" y="-261.5" font-family="Helvetica,sans-Serif" font-size="10.00">&#45;</text>
<text text-anchor="start" x="128.5" y="-261.5" font-family="Helvetica,sans-Serif" font-size="10.00">_logger</text>
<text text-anchor="start" x="117.5" y="-246.5" font-family="Helvetica,sans-Serif" font-size="10.00">&#45;</text>
<text text-anchor="start" x="128.5" y="-246.5" font-family="Helvetica,sans-Serif" font-size="10.00">_disposed</text>
<text text-anchor="start" x="117.5" y="-231.5" font-family="Helvetica,sans-Serif" font-size="10.00">&#45;</text>
<text text-anchor="start" x="128.5" y="-231.5" font-family="Helvetica,sans-Serif" font-size="10.00">LogPricingOption</text>
<text text-anchor="start" x="117.5" y="-216.5" font-family="Helvetica,sans-Serif" font-size="10.00">&#45;</text>
<text text-anchor="start" x="128.5" y="-216.5" font-family="Helvetica,sans-Serif" font-size="10.00">LogPricingSTPR001A</text>
<text text-anchor="start" x="117.5" y="-201.5" font-family="Helvetica,sans-Serif" font-size="10.00">&#45;</text>
<text text-anchor="start" x="128.5" y="-201.5" font-family="Helvetica,sans-Serif" font-size="10.00">LogImpliedVolatilityCalculated</text>
<text text-anchor="start" x="117.5" y="-186.5" font-family="Helvetica,sans-Serif" font-size="10.00">&#45;</text>
<text text-anchor="start" x="128.5" y="-186.5" font-family="Helvetica,sans-Serif" font-size="10.00">LogErrorPricing</text>
<text text-anchor="start" x="116" y="-171.5" font-family="Helvetica,sans-Serif" font-size="10.00">+</text>
<text text-anchor="start" x="128.5" y="-171.5" font-family="Helvetica,sans-Serif" font-size="10.00">STBR001A()</text>
<text text-anchor="start" x="116" y="-156.5" font-family="Helvetica,sans-Serif" font-size="10.00">+</text>
<text text-anchor="start" x="128.5" y="-156.5" font-family="Helvetica,sans-Serif" font-size="10.00">PriceOption()</text>
<text text-anchor="start" x="116" y="-141.5" font-family="Helvetica,sans-Serif" font-size="10.00">+</text>
<text text-anchor="start" x="128.5" y="-141.5" font-family="Helvetica,sans-Serif" font-size="10.00">PriceSTPR001A()</text>
<text text-anchor="start" x="116" y="-126.5" font-family="Helvetica,sans-Serif" font-size="10.00">+</text>
<text text-anchor="start" x="128.5" y="-126.5" font-family="Helvetica,sans-Serif" font-size="10.00">CalculateImpliedVolatility()</text>
<text text-anchor="start" x="116" y="-111.5" font-family="Helvetica,sans-Serif" font-size="10.00">+</text>
<text text-anchor="start" x="128.5" y="-111.5" font-family="Helvetica,sans-Serif" font-size="10.00">Dispose()</text>
<text text-anchor="start" x="116" y="-96.5" font-family="Helvetica,sans-Serif" font-size="10.00">+</text>
<text text-anchor="start" x="128.5" y="-96.5" font-family="Helvetica,sans-Serif" font-size="10.00">DetermineRegime()</text>
<text text-anchor="start" x="117.5" y="-81.5" font-family="Helvetica,sans-Serif" font-size="10.00">&#45;</text>
<text text-anchor="start" x="128.5" y="-81.5" font-family="Helvetica,sans-Serif" font-size="10.00">CalculateMaxProfit()</text>
<text text-anchor="start" x="117.5" y="-66.5" font-family="Helvetica,sans-Serif" font-size="10.00">&#45;</text>
<text text-anchor="start" x="128.5" y="-66.5" font-family="Helvetica,sans-Serif" font-size="10.00">CalculateBreakEven()</text>
<text text-anchor="start" x="117.5" y="-51.5" font-family="Helvetica,sans-Serif" font-size="10.00">&#45;</text>
<text text-anchor="start" x="128.5" y="-51.5" font-family="Helvetica,sans-Serif" font-size="10.00">SafeLog()</text>
<text text-anchor="start" x="117.5" y="-36.5" font-family="Helvetica,sans-Serif" font-size="10.00">&#45;</text>
<text text-anchor="start" x="128.5" y="-36.5" font-family="Helvetica,sans-Serif" font-size="10.00">CreateSTDT003A()</text>
<text text-anchor="start" x="117.5" y="-21.5" font-family="Helvetica,sans-Serif" font-size="10.00">&#45;</text>
<text text-anchor="start" x="128.5" y="-21.5" font-family="Helvetica,sans-Serif" font-size="10.00">BuildSTPR001APricing()</text>
<text text-anchor="start" x="117.5" y="-6.5" font-family="Helvetica,sans-Serif" font-size="10.00">&#45;</text>
<text text-anchor="start" x="128.5" y="-6.5" font-family="Helvetica,sans-Serif" font-size="10.00">CalculateDaysToExpiry()</text>
<polygon fill="#666666" stroke="#666666" points="110.5,-271.5 110.5,-271.5 267.5,-271.5 267.5,-271.5 110.5,-271.5"/>
<polygon fill="#666666" stroke="#666666" points="110.5,-181.5 110.5,-181.5 126.5,-181.5 126.5,-181.5 110.5,-181.5"/>
<polygon fill="#666666" stroke="#666666" points="126.5,-181.5 126.5,-181.5 267.5,-181.5 267.5,-181.5 126.5,-181.5"/>
<polygon fill="none" stroke="#666666" points="110,0 110,-289 267,-289 267,0 110,0"/>
</a>
</g>
</g>
<!-- Node2 -->
<g id="Node000002" class="node">
<title>Node2</title>
<g id="a_Node000002"><a xlink:href="../../d9/d02/interfaceAlaris_1_1Strategy_1_1Bridge_1_1STBR002A.html" target="_top" xlink:title="Interface for pricing options using advanced models including negative rates. Implementations use the...">
<polygon fill="white" stroke="transparent" points="139.5,-482.5 3.5,-482.5 3.5,-403.5 139.5,-403.5 139.5,-482.5"/>
<text text-anchor="start" x="46.5" y="-470" font-family="Helvetica,sans-Serif" font-size="10.00">STBR002A</text>
<text text-anchor="start" x="69.5" y="-455" font-family="Helvetica,sans-Serif" font-size="10.00"> </text>
<text text-anchor="start" x="7.5" y="-440" font-family="Helvetica,sans-Serif" font-size="10.00">+</text>
<text text-anchor="start" x="18.5" y="-440" font-family="Helvetica,sans-Serif" font-size="10.00">PriceOption()</text>
<text text-anchor="start" x="7.5" y="-425" font-family="Helvetica,sans-Serif" font-size="10.00">+</text>
<text text-anchor="start" x="18.5" y="-425" font-family="Helvetica,sans-Serif" font-size="10.00">PriceSTPR001A()</text>
<text text-anchor="start" x="7.5" y="-410" font-family="Helvetica,sans-Serif" font-size="10.00">+</text>
<text text-anchor="start" x="18.5" y="-410" font-family="Helvetica,sans-Serif" font-size="10.00">CalculateImpliedVolatility()</text>
<polygon fill="#666666" stroke="#666666" points="3.5,-465 3.5,-465 139.5,-465 139.5,-465 3.5,-465"/>
<polygon fill="#666666" stroke="#666666" points="3.5,-450 3.5,-450 139.5,-450 139.5,-450 3.5,-450"/>
<polygon fill="none" stroke="#666666" points="3.5,-403.5 3.5,-482.5 139.5,-482.5 139.5,-403.5 3.5,-403.5"/>
</a>
</g>
</g>
<!-- Node2&#45;&gt;Node1 -->
<g id="edge1_Node000001_Node000002" class="edge">
<title>Node2&#45;&gt;Node1</title>
<g id="a_edge1_Node000001_Node000002"><a xlink:title=" ">
<path fill="none" stroke="#63b8ff" d="M90.5,-393.86C101.85,-365.08 116.93,-326.86 131.85,-289.05"/>
<polygon fill="none" stroke="#63b8ff" points="87.21,-392.65 86.8,-403.24 93.72,-395.22 87.21,-392.65"/>
</a>
</g>
</g>
<!-- Node3 -->
<g id="Node000003" class="node">
<title>Node3</title>
<g id="a_Node000003"><a xlink:title=" ">
<polygon fill="white" stroke="transparent" points="219.5,-467.5 157.5,-467.5 157.5,-418.5 219.5,-418.5 219.5,-467.5"/>
<text text-anchor="start" x="162.5" y="-455" font-family="Helvetica,sans-Serif" font-size="10.00">IDisposable</text>
<text text-anchor="start" x="186.5" y="-440" font-family="Helvetica,sans-Serif" font-size="10.00"> </text>
<text text-anchor="start" x="186.5" y="-425" font-family="Helvetica,sans-Serif" font-size="10.00"> </text>
<polygon fill="#666666" stroke="#666666" points="157.5,-450 157.5,-450 219.5,-450 219.5,-450 157.5,-450"/>
<polygon fill="#666666" stroke="#666666" points="157.5,-435 157.5,-435 219.5,-435 219.5,-435 157.5,-435"/>
<polygon fill="none" stroke="#666666" points="157.5,-418.5 157.5,-467.5 219.5,-467.5 219.5,-418.5 157.5,-418.5"/>
</a>
</g>
</g>
<!-- Node3&#45;&gt;Node1 -->
<g id="edge2_Node000001_Node000003" class="edge">
<title>Node3&#45;&gt;Node1</title>
<g id="a_edge2_Node000001_Node000003"><a xlink:title=" ">
<path fill="none" stroke="#63b8ff" d="M188.5,-408.33C188.5,-378.77 188.5,-333.64 188.5,-289.08"/>
<polygon fill="none" stroke="#63b8ff" points="185,-408.49 188.5,-418.49 192,-408.49 185,-408.49"/>
</a>
</g>
</g>
<!-- Node4 -->
<g id="Node000004" class="node">
<title>Node4</title>
<g id="a_Node000004"><a xlink:href="../../d1/d02/classAlaris_1_1Core_1_1Pricing_1_1CREN003A.html" target="_top" xlink:title="Unified American option pricing engine. Automatically selects the appropriate method based on rate re...">
<polygon fill="white" stroke="transparent" points="385,-550 238,-550 238,-336 385,-336 385,-550"/>
<text text-anchor="start" x="243.5" y="-538" font-family="Helvetica,sans-Serif" font-size="10.00">Alaris.Core.Pricing.CREN003A</text>
<text text-anchor="start" x="249" y="-523" font-family="Helvetica,sans-Serif" font-size="10.00">&#45;</text>
<text text-anchor="start" x="263.5" y="-523" font-family="Helvetica,sans-Serif" font-size="10.00">_enforceInvariants</text>
<text text-anchor="start" x="247.5" y="-508" font-family="Helvetica,sans-Serif" font-size="10.00">+</text>
<text text-anchor="start" x="263.5" y="-508" font-family="Helvetica,sans-Serif" font-size="10.00">CREN003A()</text>
<text text-anchor="start" x="247.5" y="-493" font-family="Helvetica,sans-Serif" font-size="10.00">+</text>
<text text-anchor="start" x="263.5" y="-493" font-family="Helvetica,sans-Serif" font-size="10.00">CREN003A()</text>
<text text-anchor="start" x="247.5" y="-478" font-family="Helvetica,sans-Serif" font-size="10.00">+</text>
<text text-anchor="start" x="263.5" y="-478" font-family="Helvetica,sans-Serif" font-size="10.00">Price()</text>
<text text-anchor="start" x="247.5" y="-463" font-family="Helvetica,sans-Serif" font-size="10.00">+</text>
<text text-anchor="start" x="263.5" y="-463" font-family="Helvetica,sans-Serif" font-size="10.00">Delta()</text>
<text text-anchor="start" x="247.5" y="-448" font-family="Helvetica,sans-Serif" font-size="10.00">+</text>
<text text-anchor="start" x="263.5" y="-448" font-family="Helvetica,sans-Serif" font-size="10.00">Gamma()</text>
<text text-anchor="start" x="247.5" y="-433" font-family="Helvetica,sans-Serif" font-size="10.00">+</text>
<text text-anchor="start" x="263.5" y="-433" font-family="Helvetica,sans-Serif" font-size="10.00">Theta()</text>
<text text-anchor="start" x="247.5" y="-418" font-family="Helvetica,sans-Serif" font-size="10.00">+</text>
<text text-anchor="start" x="263.5" y="-418" font-family="Helvetica,sans-Serif" font-size="10.00">Vega()</text>
<text text-anchor="start" x="247.5" y="-403" font-family="Helvetica,sans-Serif" font-size="10.00">+</text>
<text text-anchor="start" x="263.5" y="-403" font-family="Helvetica,sans-Serif" font-size="10.00">Rho()</text>
<text text-anchor="start" x="247.5" y="-388" font-family="Helvetica,sans-Serif" font-size="10.00">+</text>
<text text-anchor="start" x="263.5" y="-388" font-family="Helvetica,sans-Serif" font-size="10.00">PriceWithDetails()</text>
<text text-anchor="start" x="249" y="-373" font-family="Helvetica,sans-Serif" font-size="10.00">&#45;</text>
<text text-anchor="start" x="263.5" y="-373" font-family="Helvetica,sans-Serif" font-size="10.00">EnforceInvariants()</text>
<text text-anchor="start" x="249" y="-358" font-family="Helvetica,sans-Serif" font-size="10.00">&#45;</text>
<text text-anchor="start" x="263.5" y="-358" font-family="Helvetica,sans-Serif" font-size="10.00">BlackScholesEuropean()</text>
<text text-anchor="start" x="249" y="-343" font-family="Helvetica,sans-Serif" font-size="10.00">&#45;</text>
<text text-anchor="start" x="263.5" y="-343" font-family="Helvetica,sans-Serif" font-size="10.00">ValidateParameters()</text>
<polygon fill="#666666" stroke="#666666" points="238.5,-533 238.5,-533 385.5,-533 385.5,-533 238.5,-533"/>
<polygon fill="#666666" stroke="#666666" points="238.5,-518 238.5,-518 261.5,-518 261.5,-518 238.5,-518"/>
<polygon fill="#666666" stroke="#666666" points="261.5,-518 261.5,-518 385.5,-518 385.5,-518 261.5,-518"/>
<polygon fill="none" stroke="#666666" points="238,-336 238,-550 385,-550 385,-336 238,-336"/>
</a>
</g>
</g>
<!-- Node4&#45;&gt;Node1 -->
<g id="edge3_Node000001_Node000004" class="edge">
<title>Node4&#45;&gt;Node1</title>
<g id="a_edge3_Node000001_Node000004"><a xlink:title=" ">
<path fill="none" stroke="#63b8ff" d="M267.44,-335.79C262.69,-324.34 257.78,-312.51 252.85,-300.63"/>
<polygon fill="none" stroke="#63b8ff" points="252.72,-300.31 246.73,-296.3 248.12,-289.23 254.12,-293.24 252.72,-300.31"/>
</a>
</g>
<text text-anchor="middle" x="291.5" y="-310" font-family="Helvetica,sans-Serif" font-size="10.00" fill="grey"> &#45;_nativeEngine</text>
</g>
<!-- Node5 -->
<g id="Node000005" class="node">
<title>Node5</title>
<g id="a_Node000005"><a xlink:href="../../d9/d01/interfaceAlaris_1_1Core_1_1Pricing_1_1IAmericanOptionEngine.html" target="_top" xlink:title="Interface for American option pricing engines.">
<polygon fill="white" stroke="transparent" points="113,-906.5 0,-906.5 0,-782.5 113,-782.5 113,-906.5"/>
<text text-anchor="start" x="5.5" y="-894.5" font-family="Helvetica,sans-Serif" font-size="10.00">IAmericanOptionEngine</text>
<text text-anchor="start" x="55" y="-879.5" font-family="Helvetica,sans-Serif" font-size="10.00"> </text>
<text text-anchor="start" x="17.5" y="-864.5" font-family="Helvetica,sans-Serif" font-size="10.00">+</text>
<text text-anchor="start" x="41.5" y="-864.5" font-family="Helvetica,sans-Serif" font-size="10.00">Price()</text>
<text text-anchor="start" x="17.5" y="-849.5" font-family="Helvetica,sans-Serif" font-size="10.00">+</text>
<text text-anchor="start" x="41.5" y="-849.5" font-family="Helvetica,sans-Serif" font-size="10.00">Delta()</text>
<text text-anchor="start" x="17.5" y="-834.5" font-family="Helvetica,sans-Serif" font-size="10.00">+</text>
<text text-anchor="start" x="41.5" y="-834.5" font-family="Helvetica,sans-Serif" font-size="10.00">Gamma()</text>
<text text-anchor="start" x="17.5" y="-819.5" font-family="Helvetica,sans-Serif" font-size="10.00">+</text>
<text text-anchor="start" x="41.5" y="-819.5" font-family="Helvetica,sans-Serif" font-size="10.00">Vega()</text>
<text text-anchor="start" x="17.5" y="-804.5" font-family="Helvetica,sans-Serif" font-size="10.00">+</text>
<text text-anchor="start" x="41.5" y="-804.5" font-family="Helvetica,sans-Serif" font-size="10.00">Theta()</text>
<text text-anchor="start" x="17.5" y="-789.5" font-family="Helvetica,sans-Serif" font-size="10.00">+</text>
<text text-anchor="start" x="41.5" y="-789.5" font-family="Helvetica,sans-Serif" font-size="10.00">Rho()</text>
<polygon fill="#666666" stroke="#666666" points="0.5,-889.5 0.5,-889.5 113.5,-889.5 113.5,-889.5 0.5,-889.5"/>
<polygon fill="#666666" stroke="#666666" points="0.5,-874.5 0.5,-874.5 113.5,-874.5 113.5,-874.5 0.5,-874.5"/>
<polygon fill="none" stroke="#666666" points="0,-782.5 0,-906.5 113,-906.5 113,-782.5 0,-782.5"/>
</a>
</g>
</g>
<!-- Node5&#45;&gt;Node4 -->
<g id="edge4_Node000004_Node000005" class="edge">
<title>Node5&#45;&gt;Node4</title>
<g id="a_edge4_Node000004_Node000005"><a xlink:title=" ">
<path fill="none" stroke="#63b8ff" d="M59.03,-772.33C64.45,-718.53 79.76,-645.83 121.5,-597 155.25,-557.52 187.47,-581.85 228.5,-550 231.64,-547.56 234.73,-544.98 237.76,-542.29"/>
<polygon fill="none" stroke="#63b8ff" points="55.52,-772.21 58.1,-782.49 62.49,-772.85 55.52,-772.21"/>
</a>
</g>
</g>
<!-- Node6 -->
<g id="Node000006" class="node">
<title>Node6</title>
<g id="a_Node000006"><a xlink:href="../../da/d03/classAlaris_1_1Core_1_1Pricing_1_1CREN004A.html" target="_top" xlink:title="Spectral collocation American option pricing engine.">
<polygon fill="white" stroke="transparent" points="306,-1092 131,-1092 131,-597 306,-597 306,-1092"/>
<text text-anchor="start" x="150.5" y="-1079.5" font-family="Helvetica,sans-Serif" font-size="10.00">Alaris.Core.Pricing.CREN004A</text>
<text text-anchor="start" x="137" y="-1064.5" font-family="Helvetica,sans-Serif" font-size="10.00">&#45;</text>
<text text-anchor="start" x="146.5" y="-1064.5" font-family="Helvetica,sans-Serif" font-size="10.00">_chebyshevNodes</text>
<text text-anchor="start" x="137" y="-1049.5" font-family="Helvetica,sans-Serif" font-size="10.00">&#45;</text>
<text text-anchor="start" x="146.5" y="-1049.5" font-family="Helvetica,sans-Serif" font-size="10.00">_fixedPointIterations</text>
<text text-anchor="start" x="137" y="-1034.5" font-family="Helvetica,sans-Serif" font-size="10.00">&#45;</text>
<text text-anchor="start" x="146.5" y="-1034.5" font-family="Helvetica,sans-Serif" font-size="10.00">_fpEquation</text>
<text text-anchor="start" x="137" y="-1019.5" font-family="Helvetica,sans-Serif" font-size="10.00">&#45;</text>
<text text-anchor="start" x="146.5" y="-1019.5" font-family="Helvetica,sans-Serif" font-size="10.00">_useTanhSinh</text>
<text text-anchor="start" x="137" y="-1004.5" font-family="Helvetica,sans-Serif" font-size="10.00">&#45;</text>
<text text-anchor="start" x="146.5" y="-1004.5" font-family="Helvetica,sans-Serif" font-size="10.00">Upper</text>
<text text-anchor="start" x="137" y="-989.5" font-family="Helvetica,sans-Serif" font-size="10.00">&#45;</text>
<text text-anchor="start" x="146.5" y="-989.5" font-family="Helvetica,sans-Serif" font-size="10.00">Tolerance</text>
<text text-anchor="start" x="137" y="-974.5" font-family="Helvetica,sans-Serif" font-size="10.00">&#45;</text>
<text text-anchor="start" x="146.5" y="-974.5" font-family="Helvetica,sans-Serif" font-size="10.00">NumericalEpsilon</text>
<text text-anchor="start" x="135.5" y="-959.5" font-family="Helvetica,sans-Serif" font-size="10.00">+</text>
<text text-anchor="start" x="146.5" y="-959.5" font-family="Helvetica,sans-Serif" font-size="10.00">CREN004A()</text>
<text text-anchor="start" x="135.5" y="-944.5" font-family="Helvetica,sans-Serif" font-size="10.00">+</text>
<text text-anchor="start" x="146.5" y="-944.5" font-family="Helvetica,sans-Serif" font-size="10.00">CREN004A()</text>
<text text-anchor="start" x="135.5" y="-929.5" font-family="Helvetica,sans-Serif" font-size="10.00">+</text>
<text text-anchor="start" x="146.5" y="-929.5" font-family="Helvetica,sans-Serif" font-size="10.00">Price()</text>
<text text-anchor="start" x="135.5" y="-914.5" font-family="Helvetica,sans-Serif" font-size="10.00">+</text>
<text text-anchor="start" x="146.5" y="-914.5" font-family="Helvetica,sans-Serif" font-size="10.00">Delta()</text>
<text text-anchor="start" x="135.5" y="-899.5" font-family="Helvetica,sans-Serif" font-size="10.00">+</text>
<text text-anchor="start" x="146.5" y="-899.5" font-family="Helvetica,sans-Serif" font-size="10.00">Gamma()</text>
<text text-anchor="start" x="135.5" y="-884.5" font-family="Helvetica,sans-Serif" font-size="10.00">+</text>
<text text-anchor="start" x="146.5" y="-884.5" font-family="Helvetica,sans-Serif" font-size="10.00">Theta()</text>
<text text-anchor="start" x="135.5" y="-869.5" font-family="Helvetica,sans-Serif" font-size="10.00">+</text>
<text text-anchor="start" x="146.5" y="-869.5" font-family="Helvetica,sans-Serif" font-size="10.00">Vega()</text>
<text text-anchor="start" x="137" y="-854.5" font-family="Helvetica,sans-Serif" font-size="10.00">&#45;</text>
<text text-anchor="start" x="146.5" y="-854.5" font-family="Helvetica,sans-Serif" font-size="10.00">readonly()</text>
<text text-anchor="start" x="137" y="-839.5" font-family="Helvetica,sans-Serif" font-size="10.00">&#45;</text>
<text text-anchor="start" x="146.5" y="-839.5" font-family="Helvetica,sans-Serif" font-size="10.00">PriceSingleBoundary()</text>
<text text-anchor="start" x="137" y="-824.5" font-family="Helvetica,sans-Serif" font-size="10.00">&#45;</text>
<text text-anchor="start" x="146.5" y="-824.5" font-family="Helvetica,sans-Serif" font-size="10.00">PriceDoubleBoundary()</text>
<text text-anchor="start" x="137" y="-809.5" font-family="Helvetica,sans-Serif" font-size="10.00">&#45;</text>
<text text-anchor="start" x="146.5" y="-809.5" font-family="Helvetica,sans-Serif" font-size="10.00">FixedPointIteration()</text>
<text text-anchor="start" x="137" y="-794.5" font-family="Helvetica,sans-Serif" font-size="10.00">&#45;</text>
<text text-anchor="start" x="146.5" y="-794.5" font-family="Helvetica,sans-Serif" font-size="10.00">FixedPointUpdate()</text>
<text text-anchor="start" x="137" y="-779.5" font-family="Helvetica,sans-Serif" font-size="10.00">&#45;</text>
<text text-anchor="start" x="146.5" y="-779.5" font-family="Helvetica,sans-Serif" font-size="10.00">DoubleBoundaryFixedPoint</text>
<text text-anchor="start" x="146.5" y="-768.5" font-family="Helvetica,sans-Serif" font-size="10.00">Iteration()</text>
<text text-anchor="start" x="137" y="-753.5" font-family="Helvetica,sans-Serif" font-size="10.00">&#45;</text>
<text text-anchor="start" x="146.5" y="-753.5" font-family="Helvetica,sans-Serif" font-size="10.00">FixedPointUpdateLower()</text>
<text text-anchor="start" x="137" y="-738.5" font-family="Helvetica,sans-Serif" font-size="10.00">&#45;</text>
<text text-anchor="start" x="146.5" y="-738.5" font-family="Helvetica,sans-Serif" font-size="10.00">ComputeIntegralN()</text>
<text text-anchor="start" x="137" y="-723.5" font-family="Helvetica,sans-Serif" font-size="10.00">&#45;</text>
<text text-anchor="start" x="146.5" y="-723.5" font-family="Helvetica,sans-Serif" font-size="10.00">ComputeIntegralD()</text>
<text text-anchor="start" x="137" y="-708.5" font-family="Helvetica,sans-Serif" font-size="10.00">&#45;</text>
<text text-anchor="start" x="146.5" y="-708.5" font-family="Helvetica,sans-Serif" font-size="10.00">IntegrateEarlyExercisePremium()</text>
<text text-anchor="start" x="137" y="-693.5" font-family="Helvetica,sans-Serif" font-size="10.00">&#45;</text>
<text text-anchor="start" x="146.5" y="-693.5" font-family="Helvetica,sans-Serif" font-size="10.00">IntegrateDoubleBoundaryPremium()</text>
<text text-anchor="start" x="137" y="-678.5" font-family="Helvetica,sans-Serif" font-size="10.00">&#45;</text>
<text text-anchor="start" x="146.5" y="-678.5" font-family="Helvetica,sans-Serif" font-size="10.00">InterpolateBoundary()</text>
<text text-anchor="start" x="137" y="-663.5" font-family="Helvetica,sans-Serif" font-size="10.00">&#45;</text>
<text text-anchor="start" x="146.5" y="-663.5" font-family="Helvetica,sans-Serif" font-size="10.00">ComputeQdPlusInitialGuess()</text>
<text text-anchor="start" x="137" y="-648.5" font-family="Helvetica,sans-Serif" font-size="10.00">&#45;</text>
<text text-anchor="start" x="146.5" y="-648.5" font-family="Helvetica,sans-Serif" font-size="10.00">BlackScholesEuropean()</text>
<text text-anchor="start" x="137" y="-633.5" font-family="Helvetica,sans-Serif" font-size="10.00">&#45;</text>
<text text-anchor="start" x="146.5" y="-633.5" font-family="Helvetica,sans-Serif" font-size="10.00">CalculateIntrinsicValue()</text>
<text text-anchor="start" x="137" y="-618.5" font-family="Helvetica,sans-Serif" font-size="10.00">&#45;</text>
<text text-anchor="start" x="146.5" y="-618.5" font-family="Helvetica,sans-Serif" font-size="10.00">ClassifyRegime()</text>
<text text-anchor="start" x="137" y="-603.5" font-family="Helvetica,sans-Serif" font-size="10.00">&#45;</text>
<text text-anchor="start" x="146.5" y="-603.5" font-family="Helvetica,sans-Serif" font-size="10.00">ValidateInputs()</text>
<polygon fill="#666666" stroke="#666666" points="131.5,-1074.5 131.5,-1074.5 306.5,-1074.5 306.5,-1074.5 131.5,-1074.5"/>
<polygon fill="#666666" stroke="#666666" points="131.5,-969.5 131.5,-969.5 144.5,-969.5 144.5,-969.5 131.5,-969.5"/>
<polygon fill="#666666" stroke="#666666" points="144.5,-969.5 144.5,-969.5 306.5,-969.5 306.5,-969.5 144.5,-969.5"/>
<polygon fill="none" stroke="#666666" points="131,-597 131,-1092 306,-1092 306,-597 131,-597"/>
</a>
</g>
</g>
<!-- Node6&#45;&gt;Node4 -->
<g id="edge5_Node000004_Node000006" class="edge">
<title>Node6&#45;&gt;Node4</title>
<g id="a_edge5_Node000004_Node000006"><a xlink:title=" ">
<path fill="none" stroke="#63b8ff" d="M275.94,-596.74C278.68,-584.99 281.36,-573.46 283.95,-562.34"/>
<polygon fill="none" stroke="#63b8ff" points="284,-562.13 281.47,-555.38 286.72,-550.44 289.26,-557.19 284,-562.13"/>
</a>
</g>
<text text-anchor="middle" x="319.5" y="-571" font-family="Helvetica,sans-Serif" font-size="10.00" fill="grey"> &#45;_spectralEngine</text>
</g>
<!-- Node7 -->
<g id="Node000007" class="node">
<title>Node7</title>
<g id="a_Node000007"><a xlink:href="../../d3/d01/classAlaris_1_1Core_1_1Pricing_1_1CREN002A.html" target="_top" xlink:title="Unified American option pricing engine supporting all rate regimes.">
<polygon fill="white" stroke="transparent" points="487,-1019 324,-1019 324,-670 487,-670 487,-1019"/>
<text text-anchor="start" x="337.5" y="-1006.5" font-family="Helvetica,sans-Serif" font-size="10.00">Alaris.Core.Pricing.CREN002A</text>
<text text-anchor="start" x="328.5" y="-991.5" font-family="Helvetica,sans-Serif" font-size="10.00">+</text>
<text text-anchor="start" x="339.5" y="-991.5" font-family="Helvetica,sans-Serif" font-size="10.00">DefaultTimeSteps</text>
<text text-anchor="start" x="328.5" y="-976.5" font-family="Helvetica,sans-Serif" font-size="10.00">+</text>
<text text-anchor="start" x="339.5" y="-976.5" font-family="Helvetica,sans-Serif" font-size="10.00">DefaultSpotSteps</text>
<text text-anchor="start" x="328.5" y="-961.5" font-family="Helvetica,sans-Serif" font-size="10.00">+</text>
<text text-anchor="start" x="339.5" y="-961.5" font-family="Helvetica,sans-Serif" font-size="10.00">DefaultGridConcentration</text>
<text text-anchor="start" x="330" y="-946.5" font-family="Helvetica,sans-Serif" font-size="10.00">&#45;</text>
<text text-anchor="start" x="339.5" y="-946.5" font-family="Helvetica,sans-Serif" font-size="10.00">_timeSteps</text>
<text text-anchor="start" x="330" y="-931.5" font-family="Helvetica,sans-Serif" font-size="10.00">&#45;</text>
<text text-anchor="start" x="339.5" y="-931.5" font-family="Helvetica,sans-Serif" font-size="10.00">_spotSteps</text>
<text text-anchor="start" x="330" y="-916.5" font-family="Helvetica,sans-Serif" font-size="10.00">&#45;</text>
<text text-anchor="start" x="339.5" y="-916.5" font-family="Helvetica,sans-Serif" font-size="10.00">_theta</text>
<text text-anchor="start" x="330" y="-901.5" font-family="Helvetica,sans-Serif" font-size="10.00">&#45;</text>
<text text-anchor="start" x="339.5" y="-901.5" font-family="Helvetica,sans-Serif" font-size="10.00">_gridConcentration</text>
<text text-anchor="start" x="328.5" y="-886.5" font-family="Helvetica,sans-Serif" font-size="10.00">+</text>
<text text-anchor="start" x="339.5" y="-886.5" font-family="Helvetica,sans-Serif" font-size="10.00">CREN002A()</text>
<text text-anchor="start" x="328.5" y="-871.5" font-family="Helvetica,sans-Serif" font-size="10.00">+</text>
<text text-anchor="start" x="339.5" y="-871.5" font-family="Helvetica,sans-Serif" font-size="10.00">Price()</text>
<text text-anchor="start" x="328.5" y="-856.5" font-family="Helvetica,sans-Serif" font-size="10.00">+</text>
<text text-anchor="start" x="339.5" y="-856.5" font-family="Helvetica,sans-Serif" font-size="10.00">Delta()</text>
<text text-anchor="start" x="328.5" y="-841.5" font-family="Helvetica,sans-Serif" font-size="10.00">+</text>
<text text-anchor="start" x="339.5" y="-841.5" font-family="Helvetica,sans-Serif" font-size="10.00">Gamma()</text>
<text text-anchor="start" x="328.5" y="-826.5" font-family="Helvetica,sans-Serif" font-size="10.00">+</text>
<text text-anchor="start" x="339.5" y="-826.5" font-family="Helvetica,sans-Serif" font-size="10.00">Vega()</text>
<text text-anchor="start" x="328.5" y="-811.5" font-family="Helvetica,sans-Serif" font-size="10.00">+</text>
<text text-anchor="start" x="339.5" y="-811.5" font-family="Helvetica,sans-Serif" font-size="10.00">Theta()</text>
<text text-anchor="start" x="328.5" y="-796.5" font-family="Helvetica,sans-Serif" font-size="10.00">+</text>
<text text-anchor="start" x="339.5" y="-796.5" font-family="Helvetica,sans-Serif" font-size="10.00">Rho()</text>
<text text-anchor="start" x="330" y="-781.5" font-family="Helvetica,sans-Serif" font-size="10.00">&#45;</text>
<text text-anchor="start" x="339.5" y="-781.5" font-family="Helvetica,sans-Serif" font-size="10.00">PriceWithCrankNicolson()</text>
<text text-anchor="start" x="330" y="-766.5" font-family="Helvetica,sans-Serif" font-size="10.00">&#45;</text>
<text text-anchor="start" x="339.5" y="-766.5" font-family="Helvetica,sans-Serif" font-size="10.00">BuildAsinhGrid()</text>
<text text-anchor="start" x="330" y="-751.5" font-family="Helvetica,sans-Serif" font-size="10.00">&#45;</text>
<text text-anchor="start" x="339.5" y="-751.5" font-family="Helvetica,sans-Serif" font-size="10.00">BuildTridiagonalSystemVariable()</text>
<text text-anchor="start" x="330" y="-736.5" font-family="Helvetica,sans-Serif" font-size="10.00">&#45;</text>
<text text-anchor="start" x="339.5" y="-736.5" font-family="Helvetica,sans-Serif" font-size="10.00">ApplyNeumannBoundaries()</text>
<text text-anchor="start" x="330" y="-721.5" font-family="Helvetica,sans-Serif" font-size="10.00">&#45;</text>
<text text-anchor="start" x="339.5" y="-721.5" font-family="Helvetica,sans-Serif" font-size="10.00">SolveTridiagonal()</text>
<text text-anchor="start" x="330" y="-706.5" font-family="Helvetica,sans-Serif" font-size="10.00">&#45;</text>
<text text-anchor="start" x="339.5" y="-706.5" font-family="Helvetica,sans-Serif" font-size="10.00">InterpolatePrice()</text>
<text text-anchor="start" x="330" y="-691.5" font-family="Helvetica,sans-Serif" font-size="10.00">&#45;</text>
<text text-anchor="start" x="339.5" y="-691.5" font-family="Helvetica,sans-Serif" font-size="10.00">CalculatePayoff()</text>
<text text-anchor="start" x="330" y="-676.5" font-family="Helvetica,sans-Serif" font-size="10.00">&#45;</text>
<text text-anchor="start" x="339.5" y="-676.5" font-family="Helvetica,sans-Serif" font-size="10.00">Asinh()</text>
<polygon fill="#666666" stroke="#666666" points="324.5,-1001.5 324.5,-1001.5 487.5,-1001.5 487.5,-1001.5 324.5,-1001.5"/>
<polygon fill="#666666" stroke="#666666" points="324.5,-896.5 324.5,-896.5 337.5,-896.5 337.5,-896.5 324.5,-896.5"/>
<polygon fill="#666666" stroke="#666666" points="337.5,-896.5 337.5,-896.5 487.5,-896.5 487.5,-896.5 337.5,-896.5"/>
<polygon fill="none" stroke="#666666" points="324,-670 324,-1019 487,-1019 487,-670 324,-670"/>
</a>
</g>
</g>
<!-- Node7&#45;&gt;Node4 -->
<g id="edge6_Node000004_Node000007" class="edge">
<title>Node7&#45;&gt;Node4</title>
<g id="a_edge6_Node000004_Node000007"><a xlink:title=" ">
<path fill="none" stroke="#63b8ff" d="M383.87,-669.9C377.92,-635.82 370.54,-600.55 361.5,-568 360.94,-566 360.37,-563.99 359.77,-561.97"/>
<polygon fill="none" stroke="#63b8ff" points="359.72,-561.8 354.11,-557.26 356.15,-550.34 361.75,-554.88 359.72,-561.8"/>
</a>
</g>
<text text-anchor="middle" x="388.5" y="-571" font-family="Helvetica,sans-Serif" font-size="10.00" fill="grey"> &#45;_fdEngine</text>
</g>
<!-- Node8 -->
<g id="Node000008" class="node">
<title>Node8</title>
<g id="a_Node000008"><a xlink:href="../../dc/d00/classAlaris_1_1Core_1_1Pricing_1_1CREX001A.html" target="_top" xlink:title="Handles numerical stability as τ → 0 via blending to intrinsic. Threshold: τ &lt; 1/252.">
<polygon fill="white" stroke="transparent" points="652,-959 505,-959 505,-730 652,-730 652,-959"/>
<text text-anchor="start" x="511" y="-946.5" font-family="Helvetica,sans-Serif" font-size="10.00">Alaris.Core.Pricing.CREX001A</text>
<text text-anchor="start" x="509.5" y="-931.5" font-family="Helvetica,sans-Serif" font-size="10.00">+</text>
<text text-anchor="start" x="520.5" y="-931.5" font-family="Helvetica,sans-Serif" font-size="10.00">DefaultMinTimeToExpiry</text>
<text text-anchor="start" x="509.5" y="-916.5" font-family="Helvetica,sans-Serif" font-size="10.00">+</text>
<text text-anchor="start" x="520.5" y="-916.5" font-family="Helvetica,sans-Serif" font-size="10.00">DefaultBlendingZoneWidth</text>
<text text-anchor="start" x="511" y="-901.5" font-family="Helvetica,sans-Serif" font-size="10.00">&#45;</text>
<text text-anchor="start" x="520.5" y="-901.5" font-family="Helvetica,sans-Serif" font-size="10.00">_minTimeToExpiry</text>
<text text-anchor="start" x="511" y="-886.5" font-family="Helvetica,sans-Serif" font-size="10.00">&#45;</text>
<text text-anchor="start" x="520.5" y="-886.5" font-family="Helvetica,sans-Serif" font-size="10.00">_blendingZoneWidth</text>
<text text-anchor="start" x="509.5" y="-871.5" font-family="Helvetica,sans-Serif" font-size="10.00">+</text>
<text text-anchor="start" x="520.5" y="-871.5" font-family="Helvetica,sans-Serif" font-size="10.00">CREX001A()</text>
<text text-anchor="start" x="509.5" y="-856.5" font-family="Helvetica,sans-Serif" font-size="10.00">+</text>
<text text-anchor="start" x="520.5" y="-856.5" font-family="Helvetica,sans-Serif" font-size="10.00">IsNearExpiry()</text>
<text text-anchor="start" x="509.5" y="-841.5" font-family="Helvetica,sans-Serif" font-size="10.00">+</text>
<text text-anchor="start" x="520.5" y="-841.5" font-family="Helvetica,sans-Serif" font-size="10.00">IsIntrinsicOnly()</text>
<text text-anchor="start" x="509.5" y="-826.5" font-family="Helvetica,sans-Serif" font-size="10.00">+</text>
<text text-anchor="start" x="520.5" y="-826.5" font-family="Helvetica,sans-Serif" font-size="10.00">CalculateBlendingWeight()</text>
<text text-anchor="start" x="509.5" y="-811.5" font-family="Helvetica,sans-Serif" font-size="10.00">+</text>
<text text-anchor="start" x="520.5" y="-811.5" font-family="Helvetica,sans-Serif" font-size="10.00">BlendWithIntrinsic()</text>
<text text-anchor="start" x="509.5" y="-796.5" font-family="Helvetica,sans-Serif" font-size="10.00">+</text>
<text text-anchor="start" x="520.5" y="-796.5" font-family="Helvetica,sans-Serif" font-size="10.00">CalculateNearExpiryGreeks()</text>
<text text-anchor="start" x="509.5" y="-781.5" font-family="Helvetica,sans-Serif" font-size="10.00">+</text>
<text text-anchor="start" x="520.5" y="-781.5" font-family="Helvetica,sans-Serif" font-size="10.00">Validate()</text>
<text text-anchor="start" x="509.5" y="-766.5" font-family="Helvetica,sans-Serif" font-size="10.00">+</text>
<text text-anchor="start" x="520.5" y="-766.5" font-family="Helvetica,sans-Serif" font-size="10.00">CalculateCallIntrinsic()</text>
<text text-anchor="start" x="509.5" y="-751.5" font-family="Helvetica,sans-Serif" font-size="10.00">+</text>
<text text-anchor="start" x="520.5" y="-751.5" font-family="Helvetica,sans-Serif" font-size="10.00">CalculatePutIntrinsic()</text>
<text text-anchor="start" x="509.5" y="-736.5" font-family="Helvetica,sans-Serif" font-size="10.00">+</text>
<text text-anchor="start" x="520.5" y="-736.5" font-family="Helvetica,sans-Serif" font-size="10.00">CalculateIntrinsic()</text>
<polygon fill="#666666" stroke="#666666" points="505.5,-941.5 505.5,-941.5 652.5,-941.5 652.5,-941.5 505.5,-941.5"/>
<polygon fill="#666666" stroke="#666666" points="505.5,-881.5 505.5,-881.5 518.5,-881.5 518.5,-881.5 505.5,-881.5"/>
<polygon fill="#666666" stroke="#666666" points="518.5,-881.5 518.5,-881.5 652.5,-881.5 652.5,-881.5 518.5,-881.5"/>
<polygon fill="none" stroke="#666666" points="505,-730 505,-959 652,-959 652,-730 505,-730"/>
</a>
</g>
</g>
<!-- Node8&#45;&gt;Node4 -->
<g id="edge7_Node000004_Node000008" class="edge">
<title>Node8&#45;&gt;Node4</title>
<g id="a_edge7_Node000004_Node000008"><a xlink:title=" ">
<path fill="none" stroke="#63b8ff" d="M554.94,-729.72C542.3,-685.72 523.58,-636.54 496.5,-597 469.81,-558.02 430.49,-523.57 394.95,-497.27"/>
<polygon fill="none" stroke="#63b8ff" points="394.75,-497.13 387.55,-496.84 385.04,-490.07 392.25,-490.36 394.75,-497.13"/>
</a>
</g>
<text text-anchor="middle" x="526.5" y="-571" font-family="Helvetica,sans-Serif" font-size="10.00" fill="grey"> &#45;_nearExpiryHandler</text>
</g>
</g>
</svg>

<g id="navigator" transform="translate(0 0)" fill="#404254">
  <rect fill="#f2f5e9" fill-opacity="0.5" stroke="#606060" stroke-width=".5" x="0" y="0" width="60" height="60"/>
  <use id="zoomplus" xlink:href="#zoomPlus" x="17" y="9" onmousedown="handleZoom(evt,'in')"/>
  <use id="zoomminus" xlink:href="#zoomMin" x="42" y="9" onmousedown="handleZoom(evt,'out')"/>
  <use id="reset" xlink:href="#resetDef" x="30" y="36" onmousedown="handleReset()"/>
   <use id="arrowup" xlink:href="#arrowUp" x="0" y="0" onmousedown="handlePan(0,-1)"/>
  <use id="arrowright" xlink:href="#arrowRight" x="0" y="0" onmousedown="handlePan(1,0)"/>
  <use id="arrowdown" xlink:href="#arrowDown" x="0" y="0" onmousedown="handlePan(0,1)"/>
  <use id="arrowleft" xlink:href="#arrowLeft" x="0" y="0" onmousedown="handlePan(-1,0)"/>
</g>
<svg viewBox="0 0 15 15" width="100%" height="30px" preserveAspectRatio="xMaxYMin meet">
 <g id="arrow_out" transform="scale(0.3 0.3)">
  <a xlink:href="classAlaris_1_1Strategy_1_1Bridge_1_1STBR001A__coll__graph_org.svg" target="_base">
   <rect id="button" ry="5" rx="5" y="6" x="6" height="38" width="38"
        fill="#f2f5e9" fill-opacity="0.5" stroke="#606060" stroke-width="1.0"/>
   <path id="arrow"
     d="M 11.500037,31.436501 C 11.940474,20.09759 22.043105,11.32322 32.158766,21.979434 L 37.068811,17.246167 C 37.068811,17.246167 37.088388,32 37.088388,32 L 22.160133,31.978069 C 22.160133,31.978069 26.997745,27.140456 26.997745,27.140456 C 18.528582,18.264221 13.291696,25.230495 11.500037,31.436501 z"
     style="fill:#404040;"/>
  </a>
 </g>
</svg>

<style type='text/css'>
<![CDATA[
[data-mouse-over-selected='false'] { opacity: 0.7; }
[data-mouse-over-selected='true']  { opacity: 1.0; }
]]>
</style>
<script type="application/ecmascript"><![CDATA[
document.addEventListener('DOMContentLoaded', (event) => {
  highlightEdges();
  highlightAdjacentNodes();
});
]]></script>
</svg>
