<?xml version="1.0" encoding="UTF-8" standalone="no"?>
<!DOCTYPE svg PUBLIC "-//W3C//DTD SVG 1.1//EN"
 "http://www.w3.org/Graphics/SVG/1.1/DTD/svg11.dtd">
<!-- Generated by graphviz version 2.43.0 (0)
 -->
<!-- Title: Alaris.Host.Application.Cli.Settings.EarningsBootstrapSettings Pages: 1 -->
<svg width="153pt" height="324pt"
 viewBox="0.00 0.00 153.00 324.00" xmlns="http://www.w3.org/2000/svg" xmlns:xlink="http://www.w3.org/1999/xlink">
<g id="graph0" class="graph" transform="scale(1 1) rotate(0) translate(4 320)">
<title>Alaris.Host.Application.Cli.Settings.EarningsBootstrapSettings</title>
<!-- Node1 -->
<g id="Node000001" class="node">
<title>Node1</title>
<g id="a_Node000001"><a xlink:title="Settings for earnings bootstrap command. Component ID: CLse002A.">
<polygon fill="#999999" stroke="transparent" points="145,-116 0,-116 0,0 145,0 145,-116"/>
<text text-anchor="start" x="5.5" y="-104" font-family="Helvetica,sans-Serif" font-size="10.00">Alaris.Host.Application.</text>
<text text-anchor="start" x="5.5" y="-93" font-family="Helvetica,sans-Serif" font-size="10.00">Cli.Settings.EarningsBootstrap</text>
<text text-anchor="start" x="54.5" y="-82" font-family="Helvetica,sans-Serif" font-size="10.00">Settings</text>
<text text-anchor="start" x="23.5" y="-67" font-family="Helvetica,sans-Serif" font-size="10.00">+</text>
<text text-anchor="start" x="53.5" y="-67" font-family="Helvetica,sans-Serif" font-size="10.00">StartDate</text>
<text text-anchor="start" x="23.5" y="-52" font-family="Helvetica,sans-Serif" font-size="10.00">+</text>
<text text-anchor="start" x="53.5" y="-52" font-family="Helvetica,sans-Serif" font-size="10.00">EndDate</text>
<text text-anchor="start" x="23.5" y="-37" font-family="Helvetica,sans-Serif" font-size="10.00">+</text>
<text text-anchor="start" x="53.5" y="-37" font-family="Helvetica,sans-Serif" font-size="10.00">OutputPath</text>
<text text-anchor="start" x="23.5" y="-22" font-family="Helvetica,sans-Serif" font-size="10.00">+</text>
<text text-anchor="start" x="53.5" y="-22" font-family="Helvetica,sans-Serif" font-size="10.00">Force</text>
<text text-anchor="start" x="23.5" y="-7" font-family="Helvetica,sans-Serif" font-size="10.00">+</text>
<text text-anchor="start" x="53.5" y="-7" font-family="Helvetica,sans-Serif" font-size="10.00">Validate()</text>
<polygon fill="#666666" stroke="#666666" points="0.5,-77 0.5,-77 145.5,-77 145.5,-77 0.5,-77"/>
<polygon fill="#666666" stroke="#666666" points="0.5,-17 0.5,-17 51.5,-17 51.5,-17 0.5,-17"/>
<polygon fill="#666666" stroke="#666666" points="51.5,-17 51.5,-17 145.5,-17 145.5,-17 51.5,-17"/>
<polygon fill="none" stroke="#666666" points="0,0 0,-116 145,-116 145,0 0,0"/>
</a>
</g>
</g>
<!-- Node2 -->
<g id="Node000002" class="node">
<title>Node2</title>
<g id="a_Node000002"><a xlink:href="../../d4/d03/classAlaris_1_1Host_1_1Application_1_1Cli_1_1Infrastructure_1_1CLif004A.html" target="_top" xlink:title="Global settings inherited by all CLI commands. Component ID: CLif004A.">
<polygon fill="white" stroke="transparent" points="107.5,-231 37.5,-231 37.5,-152 107.5,-152 107.5,-231"/>
<text text-anchor="start" x="52" y="-218.5" font-family="Helvetica,sans-Serif" font-size="10.00">CLif004A</text>
<text text-anchor="start" x="41.5" y="-203.5" font-family="Helvetica,sans-Serif" font-size="10.00">+</text>
<text text-anchor="start" x="52.5" y="-203.5" font-family="Helvetica,sans-Serif" font-size="10.00">Verbose</text>
<text text-anchor="start" x="41.5" y="-188.5" font-family="Helvetica,sans-Serif" font-size="10.00">+</text>
<text text-anchor="start" x="52.5" y="-188.5" font-family="Helvetica,sans-Serif" font-size="10.00">JsonOutput</text>
<text text-anchor="start" x="41.5" y="-173.5" font-family="Helvetica,sans-Serif" font-size="10.00">+</text>
<text text-anchor="start" x="52.5" y="-173.5" font-family="Helvetica,sans-Serif" font-size="10.00">NoColor</text>
<text text-anchor="start" x="70.5" y="-158.5" font-family="Helvetica,sans-Serif" font-size="10.00"> </text>
<polygon fill="#666666" stroke="#666666" points="37.5,-213.5 37.5,-213.5 107.5,-213.5 107.5,-213.5 37.5,-213.5"/>
<polygon fill="#666666" stroke="#666666" points="37.5,-168.5 37.5,-168.5 50.5,-168.5 50.5,-168.5 37.5,-168.5"/>
<polygon fill="#666666" stroke="#666666" points="50.5,-168.5 50.5,-168.5 107.5,-168.5 107.5,-168.5 50.5,-168.5"/>
<polygon fill="none" stroke="#666666" points="37.5,-152 37.5,-231 107.5,-231 107.5,-152 37.5,-152"/>
</a>
</g>
</g>
<!-- Node2&#45;&gt;Node1 -->
<g id="edge1_Node000001_Node000002" class="edge">
<title>Node2&#45;&gt;Node1</title>
<g id="a_edge1_Node000001_Node000002"><a xlink:title=" ">
<path fill="none" stroke="#63b8ff" d="M72.5,-141.62C72.5,-133.43 72.5,-124.86 72.5,-116.47"/>
<polygon fill="none" stroke="#63b8ff" points="69,-141.76 72.5,-151.76 76,-141.76 69,-141.76"/>
</a>
</g>
</g>
<!-- Node3 -->
<g id="Node000003" class="node">
<title>Node3</title>
<g id="a_Node000003"><a xlink:title=" ">
<polygon fill="white" stroke="transparent" points="118.5,-316 26.5,-316 26.5,-267 118.5,-267 118.5,-316"/>
<text text-anchor="start" x="31.5" y="-303.5" font-family="Helvetica,sans-Serif" font-size="10.00">CommandSettings</text>
<text text-anchor="start" x="70.5" y="-288.5" font-family="Helvetica,sans-Serif" font-size="10.00"> </text>
<text text-anchor="start" x="70.5" y="-273.5" font-family="Helvetica,sans-Serif" font-size="10.00"> </text>
<polygon fill="#666666" stroke="#666666" points="26.5,-298.5 26.5,-298.5 118.5,-298.5 118.5,-298.5 26.5,-298.5"/>
<polygon fill="#666666" stroke="#666666" points="26.5,-283.5 26.5,-283.5 118.5,-283.5 118.5,-283.5 26.5,-283.5"/>
<polygon fill="none" stroke="#666666" points="26.5,-267 26.5,-316 118.5,-316 118.5,-267 26.5,-267"/>
</a>
</g>
</g>
<!-- Node3&#45;&gt;Node2 -->
<g id="edge2_Node000002_Node000003" class="edge">
<title>Node3&#45;&gt;Node2</title>
<g id="a_edge2_Node000002_Node000003"><a xlink:title=" ">
<path fill="none" stroke="#63b8ff" d="M72.5,-256.52C72.5,-248.38 72.5,-239.63 72.5,-231.29"/>
<polygon fill="none" stroke="#63b8ff" points="69,-256.78 72.5,-266.78 76,-256.78 69,-256.78"/>
</a>
</g>
</g>
</g>
</svg>
