<?xml version="1.0" encoding="UTF-8" standalone="no"?>
<!DOCTYPE svg PUBLIC "-//W3C//DTD SVG 1.1//EN"
 "http://www.w3.org/Graphics/SVG/1.1/DTD/svg11.dtd">
<!-- Generated by graphviz version 2.43.0 (0)
 -->
<!-- Title: Alaris.Infrastructure.Data.Provider.Treasury.TreasuryDirectRateProvider Pages: 1 -->
<svg width="324pt" height="235pt"
 viewBox="0.00 0.00 323.50 235.00" xmlns="http://www.w3.org/2000/svg" xmlns:xlink="http://www.w3.org/1999/xlink">

<svg id="main" version="1.1" xmlns="http://www.w3.org/2000/svg" xmlns:xlink="http://www.w3.org/1999/xlink" xml:space="preserve" onload="init(evt)">
<style type="text/css"><![CDATA[
.node, .edge {opacity: 0.7;}
.node.selected, .edge.selected {opacity: 1;}
.edge:hover path { stroke: red; }
.edge:hover polygon { stroke: red; fill: red; }
]]></style>
<script type="application/ecmascript" xlink:href="../../svg.min.js"/>
<svg id="graph" class="graph">
<g id="graph0" class="graph" transform="scale(1 1) rotate(0) translate(4 231)">
<title>Alaris.Infrastructure.Data.Provider.Treasury.TreasuryDirectRateProvider</title>
<!-- Node1 -->
<g id="Node000001" class="node">
<title>Node1</title>
<g id="a_Node000001"><a xlink:title="Treasury Direct API risk&#45;free rate provider. Component ID: DTrf001A.">
<polygon fill="#999999" stroke="transparent" points="228,-116 75,-116 75,0 228,0 228,-116"/>
<text text-anchor="start" x="80.5" y="-104" font-family="Helvetica,sans-Serif" font-size="10.00">Alaris.Infrastructure.Data.</text>
<text text-anchor="start" x="80.5" y="-93" font-family="Helvetica,sans-Serif" font-size="10.00">Provider.Treasury.TreasuryDirect</text>
<text text-anchor="start" x="123" y="-82" font-family="Helvetica,sans-Serif" font-size="10.00">RateProvider</text>
<text text-anchor="start" x="82.5" y="-67" font-family="Helvetica,sans-Serif" font-size="10.00">&#45;</text>
<text text-anchor="start" x="93.5" y="-67" font-family="Helvetica,sans-Serif" font-size="10.00">_logger</text>
<text text-anchor="start" x="81" y="-52" font-family="Helvetica,sans-Serif" font-size="10.00">+</text>
<text text-anchor="start" x="93.5" y="-52" font-family="Helvetica,sans-Serif" font-size="10.00">TreasuryDirectRateProvider()</text>
<text text-anchor="start" x="81" y="-37" font-family="Helvetica,sans-Serif" font-size="10.00">+</text>
<text text-anchor="start" x="93.5" y="-37" font-family="Helvetica,sans-Serif" font-size="10.00">GetCurrentRateAsync()</text>
<text text-anchor="start" x="81" y="-22" font-family="Helvetica,sans-Serif" font-size="10.00">+</text>
<text text-anchor="start" x="93.5" y="-22" font-family="Helvetica,sans-Serif" font-size="10.00">GetHistoricalRatesAsync()</text>
<text text-anchor="start" x="82.5" y="-7" font-family="Helvetica,sans-Serif" font-size="10.00">&#45;</text>
<text text-anchor="start" x="93.5" y="-7" font-family="Helvetica,sans-Serif" font-size="10.00">ParseRate()</text>
<polygon fill="#666666" stroke="#666666" points="75.5,-77 75.5,-77 228.5,-77 228.5,-77 75.5,-77"/>
<polygon fill="#666666" stroke="#666666" points="75.5,-62 75.5,-62 91.5,-62 91.5,-62 75.5,-62"/>
<polygon fill="#666666" stroke="#666666" points="91.5,-62 91.5,-62 228.5,-62 228.5,-62 91.5,-62"/>
<polygon fill="none" stroke="#666666" points="75,0 75,-116 228,-116 228,0 75,0"/>
</a>
</g>
</g>
<!-- Node2 -->
<g id="Node000002" class="node">
<title>Node2</title>
<g id="a_Node000002"><a xlink:href="../../d0/d01/interfaceAlaris_1_1Infrastructure_1_1Data_1_1Provider_1_1DTpr005A.html" target="_top" xlink:title="Interface for risk&#45;free rate providers.">
<polygon fill="white" stroke="transparent" points="137,-227 0,-227 0,-163 137,-163 137,-227"/>
<text text-anchor="start" x="46.5" y="-215" font-family="Helvetica,sans-Serif" font-size="10.00">DTpr005A</text>
<text text-anchor="start" x="67" y="-200" font-family="Helvetica,sans-Serif" font-size="10.00"> </text>
<text text-anchor="start" x="4.5" y="-185" font-family="Helvetica,sans-Serif" font-size="10.00">+</text>
<text text-anchor="start" x="15.5" y="-185" font-family="Helvetica,sans-Serif" font-size="10.00">GetCurrentRateAsync()</text>
<text text-anchor="start" x="4.5" y="-170" font-family="Helvetica,sans-Serif" font-size="10.00">+</text>
<text text-anchor="start" x="15.5" y="-170" font-family="Helvetica,sans-Serif" font-size="10.00">GetHistoricalRatesAsync()</text>
<polygon fill="#666666" stroke="#666666" points="0.5,-210 0.5,-210 137.5,-210 137.5,-210 0.5,-210"/>
<polygon fill="#666666" stroke="#666666" points="0.5,-195 0.5,-195 137.5,-195 137.5,-195 0.5,-195"/>
<polygon fill="none" stroke="#666666" points="0,-163 0,-227 137,-227 137,-163 0,-163"/>
</a>
</g>
</g>
<!-- Node2&#45;&gt;Node1 -->
<g id="edge1_Node000001_Node000002" class="edge">
<title>Node2&#45;&gt;Node1</title>
<g id="a_edge1_Node000001_Node000002"><a xlink:title=" ">
<path fill="none" stroke="#63b8ff" d="M93.15,-153.91C100.44,-142.05 108.57,-128.83 116.39,-116.11"/>
<polygon fill="none" stroke="#63b8ff" points="90.01,-152.34 87.75,-162.69 95.97,-156 90.01,-152.34"/>
</a>
</g>
</g>
<!-- Node3 -->
<g id="Node000003" class="node">
<title>Node3</title>
<g id="a_Node000003"><a xlink:href="../../d3/d03/interfaceAlaris_1_1Infrastructure_1_1Data_1_1Http_1_1Contracts_1_1ITreasuryDirectApi.html" target="_top" xlink:title="Treasury Direct REST API contract. Component ID: DTAP003A.">
<polygon fill="white" stroke="transparent" points="315.5,-225 155.5,-225 155.5,-165 315.5,-165 315.5,-225"/>
<text text-anchor="start" x="160.5" y="-213" font-family="Helvetica,sans-Serif" font-size="10.00">Alaris.Infrastructure.Data.</text>
<text text-anchor="start" x="160.5" y="-202" font-family="Helvetica,sans-Serif" font-size="10.00">Http.Contracts.ITreasuryDirectApi</text>
<text text-anchor="start" x="233.5" y="-187" font-family="Helvetica,sans-Serif" font-size="10.00"> </text>
<text text-anchor="start" x="167.5" y="-172" font-family="Helvetica,sans-Serif" font-size="10.00">+</text>
<text text-anchor="start" x="186.5" y="-172" font-family="Helvetica,sans-Serif" font-size="10.00">SearchSecuritiesAsync()</text>
<polygon fill="#666666" stroke="#666666" points="155.5,-197 155.5,-197 315.5,-197 315.5,-197 155.5,-197"/>
<polygon fill="#666666" stroke="#666666" points="155.5,-182 155.5,-182 315.5,-182 315.5,-182 155.5,-182"/>
<polygon fill="none" stroke="#666666" points="155.5,-165 155.5,-225 315.5,-225 315.5,-165 155.5,-165"/>
</a>
</g>
</g>
<!-- Node3&#45;&gt;Node1 -->
<g id="edge2_Node000001_Node000003" class="edge">
<title>Node3&#45;&gt;Node1</title>
<g id="a_edge2_Node000001_Node000003"><a xlink:title=" ">
<path fill="none" stroke="#63b8ff" d="M217.27,-164.71C210.24,-153.4 201.87,-139.96 193.51,-126.51"/>
<polygon fill="none" stroke="#63b8ff" points="193.47,-126.46 186.91,-123.48 187.13,-116.27 193.7,-119.25 193.47,-126.46"/>
</a>
</g>
<text text-anchor="middle" x="215" y="-137" font-family="Helvetica,sans-Serif" font-size="10.00" fill="grey"> &#45;_api</text>
</g>
</g>
</svg>
</svg>

<style type='text/css'>
<![CDATA[
[data-mouse-over-selected='false'] { opacity: 0.7; }
[data-mouse-over-selected='true']  { opacity: 1.0; }
]]>
</style>
<script type="application/ecmascript"><![CDATA[
document.addEventListener('DOMContentLoaded', (event) => {
  highlightEdges();
  highlightAdjacentNodes();
});
]]></script>
</svg>
