<?xml version="1.0" encoding="UTF-8" standalone="no"?>
<!DOCTYPE svg PUBLIC "-//W3C//DTD SVG 1.1//EN"
 "http://www.w3.org/Graphics/SVG/1.1/DTD/svg11.dtd">
<!-- Generated by graphviz version 2.43.0 (0)
 -->
<!-- Title: Alaris.Infrastructure.Data.Provider.Nasdaq.NasdaqEarningsProvider Pages: 1 -->
<svg width="360pt" height="449pt"
 viewBox="0.00 0.00 360.00 449.00" xmlns="http://www.w3.org/2000/svg" xmlns:xlink="http://www.w3.org/1999/xlink">
<g id="graph0" class="graph" transform="scale(1 1) rotate(0) translate(4 445)">
<title>Alaris.Infrastructure.Data.Provider.Nasdaq.NasdaqEarningsProvider</title>
<!-- Node1 -->
<g id="Node000001" class="node">
<title>Node1</title>
<g id="a_Node000001"><a xlink:title="NASDAQ public API earnings calendar provider. Component ID: DTea001C.">
<polygon fill="#999999" stroke="transparent" points="272,-285 78,-285 78,0 272,0 272,-285"/>
<text text-anchor="start" x="83" y="-272.5" font-family="Helvetica,sans-Serif" font-size="10.00">Alaris.Infrastructure.Data.</text>
<text text-anchor="start" x="83" y="-261.5" font-family="Helvetica,sans-Serif" font-size="10.00">Provider.Nasdaq.NasdaqEarningsProvider</text>
<text text-anchor="start" x="90.5" y="-246.5" font-family="Helvetica,sans-Serif" font-size="10.00">&#45;</text>
<text text-anchor="start" x="107" y="-246.5" font-family="Helvetica,sans-Serif" font-size="10.00">_logger</text>
<text text-anchor="start" x="90.5" y="-231.5" font-family="Helvetica,sans-Serif" font-size="10.00">&#45;</text>
<text text-anchor="start" x="107" y="-231.5" font-family="Helvetica,sans-Serif" font-size="10.00">_cacheDataPath</text>
<text text-anchor="start" x="90.5" y="-216.5" font-family="Helvetica,sans-Serif" font-size="10.00">&#45;</text>
<text text-anchor="start" x="107" y="-216.5" font-family="Helvetica,sans-Serif" font-size="10.00">_cacheOnlyMode</text>
<text text-anchor="start" x="90.5" y="-201.5" font-family="Helvetica,sans-Serif" font-size="10.00">&#45;</text>
<text text-anchor="start" x="107" y="-201.5" font-family="Helvetica,sans-Serif" font-size="10.00">JsonOptions</text>
<text text-anchor="start" x="89" y="-186.5" font-family="Helvetica,sans-Serif" font-size="10.00">+</text>
<text text-anchor="start" x="107" y="-186.5" font-family="Helvetica,sans-Serif" font-size="10.00">NasdaqEarningsProvider()</text>
<text text-anchor="start" x="89" y="-171.5" font-family="Helvetica,sans-Serif" font-size="10.00">+</text>
<text text-anchor="start" x="107" y="-171.5" font-family="Helvetica,sans-Serif" font-size="10.00">EnableCacheOnlyMode()</text>
<text text-anchor="start" x="89" y="-156.5" font-family="Helvetica,sans-Serif" font-size="10.00">+</text>
<text text-anchor="start" x="107" y="-156.5" font-family="Helvetica,sans-Serif" font-size="10.00">GetUpcomingEarningsAsync()</text>
<text text-anchor="start" x="89" y="-141.5" font-family="Helvetica,sans-Serif" font-size="10.00">+</text>
<text text-anchor="start" x="107" y="-141.5" font-family="Helvetica,sans-Serif" font-size="10.00">GetHistoricalEarningsAsync()</text>
<text text-anchor="start" x="89" y="-126.5" font-family="Helvetica,sans-Serif" font-size="10.00">+</text>
<text text-anchor="start" x="107" y="-126.5" font-family="Helvetica,sans-Serif" font-size="10.00">GetHistoricalEarningsAsync()</text>
<text text-anchor="start" x="89" y="-111.5" font-family="Helvetica,sans-Serif" font-size="10.00">+</text>
<text text-anchor="start" x="107" y="-111.5" font-family="Helvetica,sans-Serif" font-size="10.00">GetSymbolsWithEarningsAsync()</text>
<text text-anchor="start" x="89" y="-96.5" font-family="Helvetica,sans-Serif" font-size="10.00">+</text>
<text text-anchor="start" x="107" y="-96.5" font-family="Helvetica,sans-Serif" font-size="10.00">SaveToCacheAsync()</text>
<text text-anchor="start" x="89" y="-81.5" font-family="Helvetica,sans-Serif" font-size="10.00">+</text>
<text text-anchor="start" x="107" y="-81.5" font-family="Helvetica,sans-Serif" font-size="10.00">FetchAndCacheAsync()</text>
<text text-anchor="start" x="90.5" y="-66.5" font-family="Helvetica,sans-Serif" font-size="10.00">&#45;</text>
<text text-anchor="start" x="107" y="-66.5" font-family="Helvetica,sans-Serif" font-size="10.00">GetEarningsInDateRangeAsync()</text>
<text text-anchor="start" x="90.5" y="-51.5" font-family="Helvetica,sans-Serif" font-size="10.00">&#45;</text>
<text text-anchor="start" x="107" y="-51.5" font-family="Helvetica,sans-Serif" font-size="10.00">GetEarningsForDateAsync()</text>
<text text-anchor="start" x="90.5" y="-36.5" font-family="Helvetica,sans-Serif" font-size="10.00">&#45;</text>
<text text-anchor="start" x="107" y="-36.5" font-family="Helvetica,sans-Serif" font-size="10.00">LoadFromCacheAsync()</text>
<text text-anchor="start" x="90.5" y="-21.5" font-family="Helvetica,sans-Serif" font-size="10.00">&#45;</text>
<text text-anchor="start" x="107" y="-21.5" font-family="Helvetica,sans-Serif" font-size="10.00">MapToEarningsEvent()</text>
<text text-anchor="start" x="90.5" y="-6.5" font-family="Helvetica,sans-Serif" font-size="10.00">&#45;</text>
<text text-anchor="start" x="107" y="-6.5" font-family="Helvetica,sans-Serif" font-size="10.00">ParseDecimal()</text>
<polygon fill="#666666" stroke="#666666" points="78,-256.5 78,-256.5 272,-256.5 272,-256.5 78,-256.5"/>
<polygon fill="#666666" stroke="#666666" points="78,-196.5 78,-196.5 105,-196.5 105,-196.5 78,-196.5"/>
<polygon fill="#666666" stroke="#666666" points="105,-196.5 105,-196.5 272,-196.5 272,-196.5 105,-196.5"/>
<polygon fill="none" stroke="#666666" points="78,0 78,-285 272,-285 272,0 78,0"/>
</a>
</g>
</g>
<!-- Node2 -->
<g id="Node000002" class="node">
<title>Node2</title>
<g id="a_Node000002"><a xlink:href="../../da/d01/interfaceAlaris_1_1Infrastructure_1_1Data_1_1Provider_1_1DTpr004A.html" target="_top" xlink:title="Interface for earnings calendar providers.">
<polygon fill="white" stroke="transparent" points="166,-441 0,-441 0,-332 166,-332 166,-441"/>
<text text-anchor="start" x="60.5" y="-428.5" font-family="Helvetica,sans-Serif" font-size="10.00">DTpr004A</text>
<text text-anchor="start" x="81" y="-413.5" font-family="Helvetica,sans-Serif" font-size="10.00"> </text>
<text text-anchor="start" x="4" y="-398.5" font-family="Helvetica,sans-Serif" font-size="10.00">+</text>
<text text-anchor="start" x="15" y="-398.5" font-family="Helvetica,sans-Serif" font-size="10.00">GetUpcomingEarningsAsync()</text>
<text text-anchor="start" x="4" y="-383.5" font-family="Helvetica,sans-Serif" font-size="10.00">+</text>
<text text-anchor="start" x="15" y="-383.5" font-family="Helvetica,sans-Serif" font-size="10.00">GetHistoricalEarningsAsync()</text>
<text text-anchor="start" x="4" y="-368.5" font-family="Helvetica,sans-Serif" font-size="10.00">+</text>
<text text-anchor="start" x="15" y="-368.5" font-family="Helvetica,sans-Serif" font-size="10.00">GetHistoricalEarningsAsync()</text>
<text text-anchor="start" x="4" y="-353.5" font-family="Helvetica,sans-Serif" font-size="10.00">+</text>
<text text-anchor="start" x="15" y="-353.5" font-family="Helvetica,sans-Serif" font-size="10.00">GetSymbolsWithEarningsAsync()</text>
<text text-anchor="start" x="4" y="-338.5" font-family="Helvetica,sans-Serif" font-size="10.00">+</text>
<text text-anchor="start" x="15" y="-338.5" font-family="Helvetica,sans-Serif" font-size="10.00">EnableCacheOnlyMode()</text>
<polygon fill="#666666" stroke="#666666" points="0,-423.5 0,-423.5 166,-423.5 166,-423.5 0,-423.5"/>
<polygon fill="#666666" stroke="#666666" points="0,-408.5 0,-408.5 166,-408.5 166,-408.5 0,-408.5"/>
<polygon fill="none" stroke="#666666" points="0,-332 0,-441 166,-441 166,-332 0,-332"/>
</a>
</g>
</g>
<!-- Node2&#45;&gt;Node1 -->
<g id="edge1_Node000001_Node000002" class="edge">
<title>Node2&#45;&gt;Node1</title>
<g id="a_edge1_Node000001_Node000002"><a xlink:title=" ">
<path fill="none" stroke="#63b8ff" d="M107.06,-322.22C111.49,-310.56 116.28,-297.95 121.2,-285.03"/>
<polygon fill="none" stroke="#63b8ff" points="103.7,-321.2 103.42,-331.79 110.24,-323.69 103.7,-321.2"/>
</a>
</g>
</g>
<!-- Node3 -->
<g id="Node000003" class="node">
<title>Node3</title>
<g id="a_Node000003"><a xlink:href="../../df/d00/interfaceAlaris_1_1Infrastructure_1_1Data_1_1Http_1_1Contracts_1_1INasdaqCalendarApi.html" target="_top" xlink:title="NASDAQ public calendar REST API contract. Component ID: DTAP004A.">
<polygon fill="white" stroke="transparent" points="352,-416.5 184,-416.5 184,-356.5 352,-356.5 352,-416.5"/>
<text text-anchor="start" x="189" y="-404.5" font-family="Helvetica,sans-Serif" font-size="10.00">Alaris.Infrastructure.Data.</text>
<text text-anchor="start" x="189" y="-393.5" font-family="Helvetica,sans-Serif" font-size="10.00">Http.Contracts.INasdaqCalendarApi</text>
<text text-anchor="start" x="266" y="-378.5" font-family="Helvetica,sans-Serif" font-size="10.00"> </text>
<text text-anchor="start" x="203" y="-363.5" font-family="Helvetica,sans-Serif" font-size="10.00">+</text>
<text text-anchor="start" x="229" y="-363.5" font-family="Helvetica,sans-Serif" font-size="10.00">GetEarningsAsync()</text>
<polygon fill="#666666" stroke="#666666" points="184,-388.5 184,-388.5 352,-388.5 352,-388.5 184,-388.5"/>
<polygon fill="#666666" stroke="#666666" points="184,-373.5 184,-373.5 352,-373.5 352,-373.5 184,-373.5"/>
<polygon fill="none" stroke="#666666" points="184,-356.5 184,-416.5 352,-416.5 352,-356.5 184,-356.5"/>
</a>
</g>
</g>
<!-- Node3&#45;&gt;Node1 -->
<g id="edge2_Node000001_Node000003" class="edge">
<title>Node3&#45;&gt;Node1</title>
<g id="a_edge2_Node000001_Node000003"><a xlink:title=" ">
<path fill="none" stroke="#63b8ff" d="M256.78,-356.31C250.64,-340.32 242.5,-319.14 233.74,-296.34"/>
<polygon fill="none" stroke="#63b8ff" points="233.7,-296.23 227.81,-292.07 229.39,-285.03 235.28,-289.2 233.7,-296.23"/>
</a>
</g>
<text text-anchor="middle" x="252.5" y="-306" font-family="Helvetica,sans-Serif" font-size="10.00" fill="grey"> &#45;_api</text>
</g>
</g>
</svg>
