<?xml version="1.0" encoding="UTF-8" standalone="no"?>
<!DOCTYPE svg PUBLIC "-//W3C//DTD SVG 1.1//EN"
 "http://www.w3.org/Graphics/SVG/1.1/DTD/svg11.dtd">
<!-- Generated by graphviz version 2.43.0 (0)
 -->
<!-- Title: Alaris.Host.Application.Cli.Settings.BacktestRunSettings Pages: 1 -->
<svg width="166pt" height="283pt"
 viewBox="0.00 0.00 166.00 283.00" xmlns="http://www.w3.org/2000/svg" xmlns:xlink="http://www.w3.org/1999/xlink">
<g id="graph0" class="graph" transform="scale(1 1) rotate(0) translate(4 279)">
<title>Alaris.Host.Application.Cli.Settings.BacktestRunSettings</title>
<!-- Node1 -->
<g id="Node000001" class="node">
<title>Node1</title>
<g id="a_Node000001"><a xlink:title="Settings for backtest run command. Component ID: CLse003A.">
<polygon fill="#999999" stroke="transparent" points="158,-75 0,-75 0,0 158,0 158,-75"/>
<text text-anchor="start" x="5" y="-62.5" font-family="Helvetica,sans-Serif" font-size="10.00">Alaris.Host.Application.</text>
<text text-anchor="start" x="5" y="-51.5" font-family="Helvetica,sans-Serif" font-size="10.00">Cli.Settings.BacktestRunSettings</text>
<text text-anchor="start" x="27.5" y="-36.5" font-family="Helvetica,sans-Serif" font-size="10.00">+</text>
<text text-anchor="start" x="62" y="-36.5" font-family="Helvetica,sans-Serif" font-size="10.00">SessionId</text>
<text text-anchor="start" x="27.5" y="-21.5" font-family="Helvetica,sans-Serif" font-size="10.00">+</text>
<text text-anchor="start" x="62" y="-21.5" font-family="Helvetica,sans-Serif" font-size="10.00">Monitor</text>
<text text-anchor="start" x="27.5" y="-6.5" font-family="Helvetica,sans-Serif" font-size="10.00">+</text>
<text text-anchor="start" x="62" y="-6.5" font-family="Helvetica,sans-Serif" font-size="10.00">Validate()</text>
<polygon fill="#666666" stroke="#666666" points="0,-46.5 0,-46.5 158,-46.5 158,-46.5 0,-46.5"/>
<polygon fill="#666666" stroke="#666666" points="0,-16.5 0,-16.5 60,-16.5 60,-16.5 0,-16.5"/>
<polygon fill="#666666" stroke="#666666" points="60,-16.5 60,-16.5 158,-16.5 158,-16.5 60,-16.5"/>
<polygon fill="none" stroke="#666666" points="0,0 0,-75 158,-75 158,0 0,0"/>
</a>
</g>
</g>
<!-- Node2 -->
<g id="Node000002" class="node">
<title>Node2</title>
<g id="a_Node000002"><a xlink:href="../../d4/d03/classAlaris_1_1Host_1_1Application_1_1Cli_1_1Infrastructure_1_1CLif004A.html" target="_top" xlink:title="Global settings inherited by all CLI commands. Component ID: CLif004A.">
<polygon fill="white" stroke="transparent" points="114,-190 44,-190 44,-111 114,-111 114,-190"/>
<text text-anchor="start" x="58.5" y="-177.5" font-family="Helvetica,sans-Serif" font-size="10.00">CLif004A</text>
<text text-anchor="start" x="48" y="-162.5" font-family="Helvetica,sans-Serif" font-size="10.00">+</text>
<text text-anchor="start" x="59" y="-162.5" font-family="Helvetica,sans-Serif" font-size="10.00">Verbose</text>
<text text-anchor="start" x="48" y="-147.5" font-family="Helvetica,sans-Serif" font-size="10.00">+</text>
<text text-anchor="start" x="59" y="-147.5" font-family="Helvetica,sans-Serif" font-size="10.00">JsonOutput</text>
<text text-anchor="start" x="48" y="-132.5" font-family="Helvetica,sans-Serif" font-size="10.00">+</text>
<text text-anchor="start" x="59" y="-132.5" font-family="Helvetica,sans-Serif" font-size="10.00">NoColor</text>
<text text-anchor="start" x="77" y="-117.5" font-family="Helvetica,sans-Serif" font-size="10.00"> </text>
<polygon fill="#666666" stroke="#666666" points="44,-172.5 44,-172.5 114,-172.5 114,-172.5 44,-172.5"/>
<polygon fill="#666666" stroke="#666666" points="44,-127.5 44,-127.5 57,-127.5 57,-127.5 44,-127.5"/>
<polygon fill="#666666" stroke="#666666" points="57,-127.5 57,-127.5 114,-127.5 114,-127.5 57,-127.5"/>
<polygon fill="none" stroke="#666666" points="44,-111 44,-190 114,-190 114,-111 44,-111"/>
</a>
</g>
</g>
<!-- Node2&#45;&gt;Node1 -->
<g id="edge1_Node000001_Node000002" class="edge">
<title>Node2&#45;&gt;Node1</title>
<g id="a_edge1_Node000001_Node000002"><a xlink:title=" ">
<path fill="none" stroke="#63b8ff" d="M79,-100.95C79,-92.27 79,-83.35 79,-75.08"/>
<polygon fill="none" stroke="#63b8ff" points="75.5,-100.99 79,-110.99 82.5,-100.99 75.5,-100.99"/>
</a>
</g>
</g>
<!-- Node3 -->
<g id="Node000003" class="node">
<title>Node3</title>
<g id="a_Node000003"><a xlink:title=" ">
<polygon fill="white" stroke="transparent" points="125,-275 33,-275 33,-226 125,-226 125,-275"/>
<text text-anchor="start" x="38" y="-262.5" font-family="Helvetica,sans-Serif" font-size="10.00">CommandSettings</text>
<text text-anchor="start" x="77" y="-247.5" font-family="Helvetica,sans-Serif" font-size="10.00"> </text>
<text text-anchor="start" x="77" y="-232.5" font-family="Helvetica,sans-Serif" font-size="10.00"> </text>
<polygon fill="#666666" stroke="#666666" points="33,-257.5 33,-257.5 125,-257.5 125,-257.5 33,-257.5"/>
<polygon fill="#666666" stroke="#666666" points="33,-242.5 33,-242.5 125,-242.5 125,-242.5 33,-242.5"/>
<polygon fill="none" stroke="#666666" points="33,-226 33,-275 125,-275 125,-226 33,-226"/>
</a>
</g>
</g>
<!-- Node3&#45;&gt;Node2 -->
<g id="edge2_Node000002_Node000003" class="edge">
<title>Node3&#45;&gt;Node2</title>
<g id="a_edge2_Node000002_Node000003"><a xlink:title=" ">
<path fill="none" stroke="#63b8ff" d="M79,-215.52C79,-207.38 79,-198.63 79,-190.29"/>
<polygon fill="none" stroke="#63b8ff" points="75.5,-215.78 79,-225.78 82.5,-215.78 75.5,-215.78"/>
</a>
</g>
</g>
</g>
</svg>
