<?xml version="1.0" encoding="UTF-8" standalone="no"?>
<!DOCTYPE svg PUBLIC "-//W3C//DTD SVG 1.1//EN"
 "http://www.w3.org/Graphics/SVG/1.1/DTD/svg11.dtd">
<!-- Generated by graphviz version 2.43.0 (0)
 -->
<!-- Title: Alaris.Strategy.Core.STCR003A Pages: 1 -->
<svg width="159pt" height="143pt"
 viewBox="0.00 0.00 159.00 143.00" xmlns="http://www.w3.org/2000/svg" xmlns:xlink="http://www.w3.org/1999/xlink">
<g id="graph0" class="graph" transform="scale(1 1) rotate(0) translate(4 139)">
<title>Alaris.Strategy.Core.STCR003A</title>
<!-- Node1 -->
<g id="Node000001" class="node">
<title>Node1</title>
<g id="a_Node000001"><a xlink:title="Implements the Yang&#45;Zhang (2000) realized volatility estimator. This estimator is an efficient method...">
<polygon fill="#999999" stroke="transparent" points="151,-135 0,-135 0,0 151,0 151,-135"/>
<text text-anchor="start" x="5.5" y="-122.5" font-family="Helvetica,sans-Serif" font-size="10.00">Alaris.Strategy.Core.STCR003A</text>
<text text-anchor="start" x="6" y="-107.5" font-family="Helvetica,sans-Serif" font-size="10.00">&#45;</text>
<text text-anchor="start" x="15.5" y="-107.5" font-family="Helvetica,sans-Serif" font-size="10.00">TradingDaysPerYear</text>
<text text-anchor="start" x="4.5" y="-92.5" font-family="Helvetica,sans-Serif" font-size="10.00">+</text>
<text text-anchor="start" x="15.5" y="-92.5" font-family="Helvetica,sans-Serif" font-size="10.00">Calculate()</text>
<text text-anchor="start" x="4.5" y="-77.5" font-family="Helvetica,sans-Serif" font-size="10.00">+</text>
<text text-anchor="start" x="15.5" y="-77.5" font-family="Helvetica,sans-Serif" font-size="10.00">CalculateRolling()</text>
<text text-anchor="start" x="6" y="-62.5" font-family="Helvetica,sans-Serif" font-size="10.00">&#45;</text>
<text text-anchor="start" x="15.5" y="-62.5" font-family="Helvetica,sans-Serif" font-size="10.00">CalculateLogReturnsInPlace()</text>
<text text-anchor="start" x="6" y="-47.5" font-family="Helvetica,sans-Serif" font-size="10.00">&#45;</text>
<text text-anchor="start" x="15.5" y="-47.5" font-family="Helvetica,sans-Serif" font-size="10.00">CalculateSTCR003AVariance</text>
<text text-anchor="start" x="15.5" y="-36.5" font-family="Helvetica,sans-Serif" font-size="10.00">FromSpan()</text>
<text text-anchor="start" x="6" y="-21.5" font-family="Helvetica,sans-Serif" font-size="10.00">&#45;</text>
<text text-anchor="start" x="15.5" y="-21.5" font-family="Helvetica,sans-Serif" font-size="10.00">VarianceFromSpan()</text>
<text text-anchor="start" x="6" y="-6.5" font-family="Helvetica,sans-Serif" font-size="10.00">&#45;</text>
<text text-anchor="start" x="15.5" y="-6.5" font-family="Helvetica,sans-Serif" font-size="10.00">AverageFromSpan()</text>
<polygon fill="#666666" stroke="#666666" points="0.5,-117.5 0.5,-117.5 151.5,-117.5 151.5,-117.5 0.5,-117.5"/>
<polygon fill="#666666" stroke="#666666" points="0.5,-102.5 0.5,-102.5 13.5,-102.5 13.5,-102.5 0.5,-102.5"/>
<polygon fill="#666666" stroke="#666666" points="13.5,-102.5 13.5,-102.5 151.5,-102.5 151.5,-102.5 13.5,-102.5"/>
<polygon fill="none" stroke="#666666" points="0,0 0,-135 151,-135 151,0 0,0"/>
</a>
</g>
</g>
</g>
</svg>
