<?xml version="1.0" encoding="UTF-8" standalone="no"?>
<!DOCTYPE svg PUBLIC "-//W3C//DTD SVG 1.1//EN"
 "http://www.w3.org/Graphics/SVG/1.1/DTD/svg11.dtd">
<!-- Generated by graphviz version 2.43.0 (0)
 -->
<!-- Title: Alaris.Host.Application.Cli.Settings.EarningsUpcomingSettings Pages: 1 -->
<svg width="155pt" height="294pt"
 viewBox="0.00 0.00 155.00 294.00" xmlns="http://www.w3.org/2000/svg" xmlns:xlink="http://www.w3.org/1999/xlink">
<g id="graph0" class="graph" transform="scale(1 1) rotate(0) translate(4 290)">
<title>Alaris.Host.Application.Cli.Settings.EarningsUpcomingSettings</title>
<!-- Node1 -->
<g id="Node000001" class="node">
<title>Node1</title>
<g id="a_Node000001"><a xlink:title="Settings for earnings upcoming command.">
<polygon fill="#999999" stroke="transparent" points="147,-86 0,-86 0,0 147,0 147,-86"/>
<text text-anchor="start" x="5.5" y="-74" font-family="Helvetica,sans-Serif" font-size="10.00">Alaris.Host.Application.</text>
<text text-anchor="start" x="5.5" y="-63" font-family="Helvetica,sans-Serif" font-size="10.00">Cli.Settings.EarningsUpcoming</text>
<text text-anchor="start" x="55.5" y="-52" font-family="Helvetica,sans-Serif" font-size="10.00">Settings</text>
<text text-anchor="start" x="28" y="-37" font-family="Helvetica,sans-Serif" font-size="10.00">+</text>
<text text-anchor="start" x="62.5" y="-37" font-family="Helvetica,sans-Serif" font-size="10.00">Days</text>
<text text-anchor="start" x="28" y="-22" font-family="Helvetica,sans-Serif" font-size="10.00">+</text>
<text text-anchor="start" x="62.5" y="-22" font-family="Helvetica,sans-Serif" font-size="10.00">Symbol</text>
<text text-anchor="start" x="72" y="-7" font-family="Helvetica,sans-Serif" font-size="10.00"> </text>
<polygon fill="#666666" stroke="#666666" points="0.5,-47 0.5,-47 147.5,-47 147.5,-47 0.5,-47"/>
<polygon fill="#666666" stroke="#666666" points="0.5,-17 0.5,-17 60.5,-17 60.5,-17 0.5,-17"/>
<polygon fill="#666666" stroke="#666666" points="60.5,-17 60.5,-17 147.5,-17 147.5,-17 60.5,-17"/>
<polygon fill="none" stroke="#666666" points="0,0 0,-86 147,-86 147,0 0,0"/>
</a>
</g>
</g>
<!-- Node2 -->
<g id="Node000002" class="node">
<title>Node2</title>
<g id="a_Node000002"><a xlink:href="../../d4/d03/classAlaris_1_1Host_1_1Application_1_1Cli_1_1Infrastructure_1_1CLif004A.html" target="_top" xlink:title="Global settings inherited by all CLI commands. Component ID: CLif004A.">
<polygon fill="white" stroke="transparent" points="108.5,-201 38.5,-201 38.5,-122 108.5,-122 108.5,-201"/>
<text text-anchor="start" x="53" y="-188.5" font-family="Helvetica,sans-Serif" font-size="10.00">CLif004A</text>
<text text-anchor="start" x="42.5" y="-173.5" font-family="Helvetica,sans-Serif" font-size="10.00">+</text>
<text text-anchor="start" x="53.5" y="-173.5" font-family="Helvetica,sans-Serif" font-size="10.00">Verbose</text>
<text text-anchor="start" x="42.5" y="-158.5" font-family="Helvetica,sans-Serif" font-size="10.00">+</text>
<text text-anchor="start" x="53.5" y="-158.5" font-family="Helvetica,sans-Serif" font-size="10.00">JsonOutput</text>
<text text-anchor="start" x="42.5" y="-143.5" font-family="Helvetica,sans-Serif" font-size="10.00">+</text>
<text text-anchor="start" x="53.5" y="-143.5" font-family="Helvetica,sans-Serif" font-size="10.00">NoColor</text>
<text text-anchor="start" x="71.5" y="-128.5" font-family="Helvetica,sans-Serif" font-size="10.00"> </text>
<polygon fill="#666666" stroke="#666666" points="38.5,-183.5 38.5,-183.5 108.5,-183.5 108.5,-183.5 38.5,-183.5"/>
<polygon fill="#666666" stroke="#666666" points="38.5,-138.5 38.5,-138.5 51.5,-138.5 51.5,-138.5 38.5,-138.5"/>
<polygon fill="#666666" stroke="#666666" points="51.5,-138.5 51.5,-138.5 108.5,-138.5 108.5,-138.5 51.5,-138.5"/>
<polygon fill="none" stroke="#666666" points="38.5,-122 38.5,-201 108.5,-201 108.5,-122 38.5,-122"/>
</a>
</g>
</g>
<!-- Node2&#45;&gt;Node1 -->
<g id="edge1_Node000001_Node000002" class="edge">
<title>Node2&#45;&gt;Node1</title>
<g id="a_edge1_Node000001_Node000002"><a xlink:title=" ">
<path fill="none" stroke="#63b8ff" d="M73.5,-111.6C73.5,-103.17 73.5,-94.47 73.5,-86.23"/>
<polygon fill="none" stroke="#63b8ff" points="70,-111.71 73.5,-121.71 77,-111.71 70,-111.71"/>
</a>
</g>
</g>
<!-- Node3 -->
<g id="Node000003" class="node">
<title>Node3</title>
<g id="a_Node000003"><a xlink:title=" ">
<polygon fill="white" stroke="transparent" points="119.5,-286 27.5,-286 27.5,-237 119.5,-237 119.5,-286"/>
<text text-anchor="start" x="32.5" y="-273.5" font-family="Helvetica,sans-Serif" font-size="10.00">CommandSettings</text>
<text text-anchor="start" x="71.5" y="-258.5" font-family="Helvetica,sans-Serif" font-size="10.00"> </text>
<text text-anchor="start" x="71.5" y="-243.5" font-family="Helvetica,sans-Serif" font-size="10.00"> </text>
<polygon fill="#666666" stroke="#666666" points="27.5,-268.5 27.5,-268.5 119.5,-268.5 119.5,-268.5 27.5,-268.5"/>
<polygon fill="#666666" stroke="#666666" points="27.5,-253.5 27.5,-253.5 119.5,-253.5 119.5,-253.5 27.5,-253.5"/>
<polygon fill="none" stroke="#666666" points="27.5,-237 27.5,-286 119.5,-286 119.5,-237 27.5,-237"/>
</a>
</g>
</g>
<!-- Node3&#45;&gt;Node2 -->
<g id="edge2_Node000002_Node000003" class="edge">
<title>Node3&#45;&gt;Node2</title>
<g id="a_edge2_Node000002_Node000003"><a xlink:title=" ">
<path fill="none" stroke="#63b8ff" d="M73.5,-226.52C73.5,-218.38 73.5,-209.63 73.5,-201.29"/>
<polygon fill="none" stroke="#63b8ff" points="70,-226.78 73.5,-236.78 77,-226.78 70,-226.78"/>
</a>
</g>
</g>
</g>
</svg>
