<?xml version="1.0" encoding="UTF-8" standalone="no"?>
<!DOCTYPE svg PUBLIC "-//W3C//DTD SVG 1.1//EN"
 "http://www.w3.org/Graphics/SVG/1.1/DTD/svg11.dtd">
<!-- Generated by graphviz version 2.43.0 (0)
 -->
<!-- Title: Alaris.Core.Time.BacktestTimeProvider Pages: 1 -->
<svg width="134pt" height="423pt"
 viewBox="0.00 0.00 134.00 423.00" xmlns="http://www.w3.org/2000/svg" xmlns:xlink="http://www.w3.org/1999/xlink">
<g id="graph0" class="graph" transform="scale(1 1) rotate(0) translate(4 419)">
<title>Alaris.Core.Time.BacktestTimeProvider</title>
<!-- Node1 -->
<g id="Node000001" class="node">
<title>Node1</title>
<g id="a_Node000001"><a xlink:title="Time provider for backtesting using simulated time from LEAN algorithm.">
<polygon fill="#999999" stroke="transparent" points="126,-240 0,-240 0,0 126,0 126,-240"/>
<text text-anchor="start" x="5" y="-228" font-family="Helvetica,sans-Serif" font-size="10.00">Alaris.Core.Time.Backtest</text>
<text text-anchor="start" x="34" y="-217" font-family="Helvetica,sans-Serif" font-size="10.00">TimeProvider</text>
<text text-anchor="start" x="5" y="-202" font-family="Helvetica,sans-Serif" font-size="10.00">+</text>
<text text-anchor="start" x="17" y="-202" font-family="Helvetica,sans-Serif" font-size="10.00">Now</text>
<text text-anchor="start" x="5" y="-187" font-family="Helvetica,sans-Serif" font-size="10.00">+</text>
<text text-anchor="start" x="17" y="-187" font-family="Helvetica,sans-Serif" font-size="10.00">Today</text>
<text text-anchor="start" x="5" y="-172" font-family="Helvetica,sans-Serif" font-size="10.00">+</text>
<text text-anchor="start" x="17" y="-172" font-family="Helvetica,sans-Serif" font-size="10.00">ZonedNow</text>
<text text-anchor="start" x="5" y="-157" font-family="Helvetica,sans-Serif" font-size="10.00">+</text>
<text text-anchor="start" x="17" y="-157" font-family="Helvetica,sans-Serif" font-size="10.00">TimeZone</text>
<text text-anchor="start" x="6.5" y="-142" font-family="Helvetica,sans-Serif" font-size="10.00">&#45;</text>
<text text-anchor="start" x="17" y="-142" font-family="Helvetica,sans-Serif" font-size="10.00">_timeSource</text>
<text text-anchor="start" x="6.5" y="-127" font-family="Helvetica,sans-Serif" font-size="10.00">&#45;</text>
<text text-anchor="start" x="17" y="-127" font-family="Helvetica,sans-Serif" font-size="10.00">NyseTimeZone</text>
<text text-anchor="start" x="5" y="-112" font-family="Helvetica,sans-Serif" font-size="10.00">+</text>
<text text-anchor="start" x="17" y="-112" font-family="Helvetica,sans-Serif" font-size="10.00">BacktestTimeProvider()</text>
<text text-anchor="start" x="5" y="-97" font-family="Helvetica,sans-Serif" font-size="10.00">+</text>
<text text-anchor="start" x="17" y="-97" font-family="Helvetica,sans-Serif" font-size="10.00">BacktestTimeProvider()</text>
<text text-anchor="start" x="5" y="-82" font-family="Helvetica,sans-Serif" font-size="10.00">+</text>
<text text-anchor="start" x="17" y="-82" font-family="Helvetica,sans-Serif" font-size="10.00">BacktestTimeProvider()</text>
<text text-anchor="start" x="5" y="-67" font-family="Helvetica,sans-Serif" font-size="10.00">+</text>
<text text-anchor="start" x="17" y="-67" font-family="Helvetica,sans-Serif" font-size="10.00">ToInstant()</text>
<text text-anchor="start" x="5" y="-52" font-family="Helvetica,sans-Serif" font-size="10.00">+</text>
<text text-anchor="start" x="17" y="-52" font-family="Helvetica,sans-Serif" font-size="10.00">ToDateTime()</text>
<text text-anchor="start" x="5" y="-37" font-family="Helvetica,sans-Serif" font-size="10.00">+</text>
<text text-anchor="start" x="17" y="-37" font-family="Helvetica,sans-Serif" font-size="10.00">ToLocalDate()</text>
<text text-anchor="start" x="5" y="-22" font-family="Helvetica,sans-Serif" font-size="10.00">+</text>
<text text-anchor="start" x="17" y="-22" font-family="Helvetica,sans-Serif" font-size="10.00">ToDateTime()</text>
<text text-anchor="start" x="5" y="-7" font-family="Helvetica,sans-Serif" font-size="10.00">+</text>
<text text-anchor="start" x="17" y="-7" font-family="Helvetica,sans-Serif" font-size="10.00">WithTimeSource()</text>
<polygon fill="#666666" stroke="#666666" points="0,-212 0,-212 126,-212 126,-212 0,-212"/>
<polygon fill="#666666" stroke="#666666" points="0,-122 0,-122 15,-122 15,-122 0,-122"/>
<polygon fill="#666666" stroke="#666666" points="15,-122 15,-122 126,-122 126,-122 15,-122"/>
<polygon fill="none" stroke="#666666" points="0,0 0,-240 126,-240 126,0 0,0"/>
</a>
</g>
</g>
<!-- Node2 -->
<g id="Node000002" class="node">
<title>Node2</title>
<g id="a_Node000002"><a xlink:href="../../d9/d01/interfaceAlaris_1_1Core_1_1Time_1_1ITimeProvider.html" target="_top" xlink:title="Provides time&#45;aware operations supporting both live and backtest modes.">
<polygon fill="white" stroke="transparent" points="103,-415 23,-415 23,-276 103,-276 103,-415"/>
<text text-anchor="start" x="32.5" y="-402.5" font-family="Helvetica,sans-Serif" font-size="10.00">ITimeProvider</text>
<text text-anchor="start" x="27" y="-387.5" font-family="Helvetica,sans-Serif" font-size="10.00">+</text>
<text text-anchor="start" x="38" y="-387.5" font-family="Helvetica,sans-Serif" font-size="10.00">Now</text>
<text text-anchor="start" x="27" y="-372.5" font-family="Helvetica,sans-Serif" font-size="10.00">+</text>
<text text-anchor="start" x="38" y="-372.5" font-family="Helvetica,sans-Serif" font-size="10.00">Today</text>
<text text-anchor="start" x="27" y="-357.5" font-family="Helvetica,sans-Serif" font-size="10.00">+</text>
<text text-anchor="start" x="38" y="-357.5" font-family="Helvetica,sans-Serif" font-size="10.00">ZonedNow</text>
<text text-anchor="start" x="27" y="-342.5" font-family="Helvetica,sans-Serif" font-size="10.00">+</text>
<text text-anchor="start" x="38" y="-342.5" font-family="Helvetica,sans-Serif" font-size="10.00">TimeZone</text>
<text text-anchor="start" x="27" y="-327.5" font-family="Helvetica,sans-Serif" font-size="10.00">+</text>
<text text-anchor="start" x="38" y="-327.5" font-family="Helvetica,sans-Serif" font-size="10.00">ToInstant()</text>
<text text-anchor="start" x="27" y="-312.5" font-family="Helvetica,sans-Serif" font-size="10.00">+</text>
<text text-anchor="start" x="38" y="-312.5" font-family="Helvetica,sans-Serif" font-size="10.00">ToDateTime()</text>
<text text-anchor="start" x="27" y="-297.5" font-family="Helvetica,sans-Serif" font-size="10.00">+</text>
<text text-anchor="start" x="38" y="-297.5" font-family="Helvetica,sans-Serif" font-size="10.00">ToLocalDate()</text>
<text text-anchor="start" x="27" y="-282.5" font-family="Helvetica,sans-Serif" font-size="10.00">+</text>
<text text-anchor="start" x="38" y="-282.5" font-family="Helvetica,sans-Serif" font-size="10.00">ToDateTime()</text>
<polygon fill="#666666" stroke="#666666" points="23,-397.5 23,-397.5 103,-397.5 103,-397.5 23,-397.5"/>
<polygon fill="#666666" stroke="#666666" points="23,-337.5 23,-337.5 36,-337.5 36,-337.5 23,-337.5"/>
<polygon fill="#666666" stroke="#666666" points="36,-337.5 36,-337.5 103,-337.5 103,-337.5 36,-337.5"/>
<polygon fill="none" stroke="#666666" points="23,-276 23,-415 103,-415 103,-276 23,-276"/>
</a>
</g>
</g>
<!-- Node2&#45;&gt;Node1 -->
<g id="edge1_Node000001_Node000002" class="edge">
<title>Node2&#45;&gt;Node1</title>
<g id="a_edge1_Node000001_Node000002"><a xlink:title=" ">
<path fill="none" stroke="#63b8ff" d="M63,-265.86C63,-257.48 63,-248.83 63,-240.12"/>
<polygon fill="none" stroke="#63b8ff" points="59.5,-265.92 63,-275.92 66.5,-265.92 59.5,-265.92"/>
</a>
</g>
</g>
</g>
</svg>
