<?xml version="1.0" encoding="UTF-8" standalone="no"?>
<!DOCTYPE svg PUBLIC "-//W3C//DTD SVG 1.1//EN"
 "http://www.w3.org/Graphics/SVG/1.1/DTD/svg11.dtd">
<!-- Generated by graphviz version 2.43.0 (0)
 -->
<!-- Title: Alaris.Infrastructure.Data.Quality.PriceReasonablenessValidator Pages: 1 -->
<svg width="184pt" height="198pt"
 viewBox="0.00 0.00 184.00 198.00" xmlns="http://www.w3.org/2000/svg" xmlns:xlink="http://www.w3.org/1999/xlink">
<g id="graph0" class="graph" transform="scale(1 1) rotate(0) translate(4 194)">
<title>Alaris.Infrastructure.Data.Quality.PriceReasonablenessValidator</title>
<!-- Node1 -->
<g id="Node000001" class="node">
<title>Node1</title>
<g id="a_Node000001"><a xlink:title="Validates price reasonableness and data freshness. Component ID: DTqc001A.">
<polygon fill="#999999" stroke="transparent" points="176,-105 0,-105 0,0 176,0 176,-105"/>
<text text-anchor="start" x="5" y="-92.5" font-family="Helvetica,sans-Serif" font-size="10.00">Alaris.Infrastructure.Data.</text>
<text text-anchor="start" x="5" y="-81.5" font-family="Helvetica,sans-Serif" font-size="10.00">Quality.PriceReasonablenessValidator</text>
<text text-anchor="start" x="8.5" y="-66.5" font-family="Helvetica,sans-Serif" font-size="10.00">+</text>
<text text-anchor="start" x="24" y="-66.5" font-family="Helvetica,sans-Serif" font-size="10.00">ComponentId</text>
<text text-anchor="start" x="10" y="-51.5" font-family="Helvetica,sans-Serif" font-size="10.00">&#45;</text>
<text text-anchor="start" x="24" y="-51.5" font-family="Helvetica,sans-Serif" font-size="10.00">_logger</text>
<text text-anchor="start" x="10" y="-36.5" font-family="Helvetica,sans-Serif" font-size="10.00">&#45;</text>
<text text-anchor="start" x="24" y="-36.5" font-family="Helvetica,sans-Serif" font-size="10.00">_timeProvider</text>
<text text-anchor="start" x="8.5" y="-21.5" font-family="Helvetica,sans-Serif" font-size="10.00">+</text>
<text text-anchor="start" x="24" y="-21.5" font-family="Helvetica,sans-Serif" font-size="10.00">PriceReasonablenessValidator()</text>
<text text-anchor="start" x="8.5" y="-6.5" font-family="Helvetica,sans-Serif" font-size="10.00">+</text>
<text text-anchor="start" x="24" y="-6.5" font-family="Helvetica,sans-Serif" font-size="10.00">Validate()</text>
<polygon fill="#666666" stroke="#666666" points="0,-76.5 0,-76.5 176,-76.5 176,-76.5 0,-76.5"/>
<polygon fill="#666666" stroke="#666666" points="0,-31.5 0,-31.5 22,-31.5 22,-31.5 0,-31.5"/>
<polygon fill="#666666" stroke="#666666" points="22,-31.5 22,-31.5 176,-31.5 176,-31.5 22,-31.5"/>
<polygon fill="none" stroke="#666666" points="0,0 0,-105 176,-105 176,0 0,0"/>
</a>
</g>
</g>
<!-- Node2 -->
<g id="Node000002" class="node">
<title>Node2</title>
<g id="a_Node000002"><a xlink:href="../../df/d00/interfaceAlaris_1_1Infrastructure_1_1Data_1_1Quality_1_1DTqc002A.html" target="_top" xlink:title="Interface for data quality validators.">
<polygon fill="white" stroke="transparent" points="127,-190 49,-190 49,-141 127,-141 127,-190"/>
<text text-anchor="start" x="64.5" y="-177.5" font-family="Helvetica,sans-Serif" font-size="10.00">DTqc002A</text>
<text text-anchor="start" x="53" y="-162.5" font-family="Helvetica,sans-Serif" font-size="10.00">+</text>
<text text-anchor="start" x="64" y="-162.5" font-family="Helvetica,sans-Serif" font-size="10.00">ComponentId</text>
<text text-anchor="start" x="53" y="-147.5" font-family="Helvetica,sans-Serif" font-size="10.00">+</text>
<text text-anchor="start" x="64" y="-147.5" font-family="Helvetica,sans-Serif" font-size="10.00">Validate()</text>
<polygon fill="#666666" stroke="#666666" points="49,-172.5 49,-172.5 127,-172.5 127,-172.5 49,-172.5"/>
<polygon fill="#666666" stroke="#666666" points="49,-157.5 49,-157.5 62,-157.5 62,-157.5 49,-157.5"/>
<polygon fill="#666666" stroke="#666666" points="62,-157.5 62,-157.5 127,-157.5 127,-157.5 62,-157.5"/>
<polygon fill="none" stroke="#666666" points="49,-141 49,-190 127,-190 127,-141 49,-141"/>
</a>
</g>
</g>
<!-- Node2&#45;&gt;Node1 -->
<g id="edge1_Node000001_Node000002" class="edge">
<title>Node2&#45;&gt;Node1</title>
<g id="a_edge1_Node000001_Node000002"><a xlink:title=" ">
<path fill="none" stroke="#63b8ff" d="M88,-130.85C88,-122.79 88,-114 88,-105.32"/>
<polygon fill="none" stroke="#63b8ff" points="84.5,-130.96 88,-140.96 91.5,-130.96 84.5,-130.96"/>
</a>
</g>
</g>
</g>
</svg>
